<svg version="1.1" xmlns="http://www.w3.org/2000/svg" xmlns:xlink="http://www.w3.org/1999/xlink" width="515.91321" height="455.74461" viewBox="0,0,515.91321,455.74461"><defs><radialGradient cx="238.50969" cy="171.67436" r="257.95663" gradientUnits="userSpaceOnUse" id="color-1"><stop offset="0" stop-color="#22797d"/><stop offset="1" stop-color="#22797d" stop-opacity="0"/></radialGradient><radialGradient cx="238.91681" cy="173.94871" r="187.48983" gradientUnits="userSpaceOnUse" id="color-2"><stop offset="0" stop-color="#34e664"/><stop offset="1" stop-color="#34e664" stop-opacity="0"/></radialGradient><radialGradient cx="239.17516" cy="175.39201" r="142.77178" gradientUnits="userSpaceOnUse" id="color-3"><stop offset="0" stop-color="#34e664"/><stop offset="1" stop-color="#34e664" stop-opacity="0"/></radialGradient><radialGradient cx="239.42314" cy="176.7773" r="99.85049" gradientUnits="userSpaceOnUse" id="color-4"><stop offset="0" stop-color="#34e664"/><stop offset="1" stop-color="#34e664" stop-opacity="0"/></radialGradient></defs><g transform="translate(17.95661,47.8723)"><g data-paper-data="{&quot;isPaintingLayer&quot;:true}" fill-rule="nonzero" stroke-linejoin="miter" stroke-miterlimit="10" stroke-dasharray="" stroke-dashoffset="0" style="mix-blend-mode: normal"><path d="" fill="none" stroke="#44ff21" stroke-width="1.5" stroke-linecap="round"/><path d="M497.95661,180c0,125.85042 -115.49111,227.8723 -257.95661,227.8723c-142.4655,0 -257.95661,-102.02193 -257.95661,-227.8723c0,-125.85042 115.49111,-227.8723 257.95661,-227.8723c142.4655,0 257.95661,102.02193 257.95661,227.8723z" fill="url(#color-1)" stroke="#000000" stroke-width="0" stroke-linecap="butt"/><path d="M427.48983,180c0,91.47149 -83.94206,165.62374 -187.48983,165.62374c-103.54777,0 -187.48983,-74.15229 -187.48983,-165.62374c0,-91.47149 83.94206,-165.62374 187.48983,-165.62374c103.54777,0 187.48983,74.15229 187.48983,165.62374z" fill="url(#color-2)" stroke="#000000" stroke-width="0" stroke-linecap="butt"/><path d="M382.77178,180c0,69.6547 -63.9211,126.12096 -142.77178,126.12096c-78.85067,0 -142.77178,-56.46629 -142.77178,-126.12096c0,-69.6547 63.9211,-126.12096 142.77178,-126.12096c78.85067,0 142.77178,56.46629 142.77178,126.12096z" fill="url(#color-3)" stroke="#000000" stroke-width="0" stroke-linecap="butt"/><path d="M339.85049,180c0,48.7145 -44.70459,88.20538 -99.85049,88.20538c-55.1459,0 -99.85049,-39.4909 -99.85049,-88.20538c0,-48.7145 44.70459,-88.20538 99.85049,-88.20538c55.1459,0 99.85049,39.4909 99.85049,88.20538z" fill="url(#color-4)" stroke="#000000" stroke-width="0" stroke-linecap="butt"/><path d="M2.7473,157.35376c0.80574,-0.80574 1.61151,0 1.61151,0l-0.04608,0.42592c7.26962,0.05568 16.08227,-4.8802 22.95662,-7.27712c1.36955,-0.47752 5.92043,-2.73599 7.23288,-2.24133c1.77977,0.67078 4.12751,6.76243 5.07562,8.44174c5.21291,9.23317 8.43779,19.38509 13.60364,28.75177c2.57567,4.67051 5.1983,9.11384 8.24852,13.49049c0.51569,0.73995 2.53681,4.92491 3.18685,5.21184c0.09162,0.04045 4.47225,-2.70361 4.82646,-2.91777c5.16484,-3.12251 9.90258,-6.96016 14.72291,-10.57507c11.5838,-8.2121 22.40293,-15.41217 37.1355,-15.41217c0,0 1.1395,0 1.1395,1.1395c0,1.1395 -1.1395,1.1395 -1.1395,1.1395c-14.23625,0 -24.60468,7.04473 -35.79271,14.97458c-4.87309,3.65516 -9.66495,7.5271 -14.88663,10.68396c-1.08102,0.65355 -5.32381,3.57202 -6.58612,3.17128c-0.56285,-0.17867 -2.72369,-3.58376 -3.17958,-4.25256c-3.48054,-5.10568 -6.68458,-10.13793 -9.67087,-15.55306c-4.87021,-8.83193 -8.11682,-17.80107 -12.50313,-26.80871c-0.66647,-1.36866 -3.88031,-8.93671 -4.98423,-9.35277c-0.4801,-0.18095 -5.00488,2.02572 -5.67878,2.26071c-7.22725,2.51999 -16.05355,7.35461 -23.70696,7.4042l-1.56543,-1.09342c0,0 -0.80574,-0.80574 0,-1.61151z" fill="#34e664" stroke="none" stroke-width="0.5" stroke-linecap="butt"/><path d="M138.17015,39.73219c0.67864,0.91539 -0.23674,1.59401 -0.23674,1.59401l-0.73657,0.54607c-0.65617,0.48162 -1.31234,0.96322 -1.96851,1.44484c-6.30729,2.34542 -18.22449,3.72109 -22.99247,8.53073c-4.37626,4.41448 -3.69746,15.00243 -4.27503,20.7919c-0.54623,1.06471 -2.87991,1.98837 -2.11,2.90443c0.80745,0.96072 2.53822,-0.26373 3.76494,0.00114c3.9592,0.85488 7.12568,1.97487 10.58507,4.05814c8.39196,5.05365 13.57149,11.4194 19.86822,18.86099c4.35612,5.14814 9.56675,10.17451 13.32927,15.76494c3.78094,5.61782 5.57709,11.62211 10.49093,16.53593c0,0 0.80574,0.80574 0,1.61151c-0.80574,0.80574 -1.61151,0 -1.61151,0c-5.0428,-5.0428 -6.90186,-11.1404 -10.77982,-16.88949c-3.71747,-5.51121 -8.87033,-10.47094 -13.16865,-15.55078c-6.76817,-7.99877 -12.81488,-16.28387 -22.79966,-20.49732c-1.75046,-0.73867 -10.94785,-1.49893 -11.64324,-2.73969c-0.39545,-0.70558 1.39414,-3.79142 1.88877,-4.70549c0.50881,-6.34749 0.05998,-16.9252 4.841,-21.74956c5.0287,-5.07428 16.88719,-6.54068 23.53033,-8.93332c0.56433,-0.42323 1.12868,-0.84647 1.69301,-1.2697l0.73657,-0.54607c0,0 0.91539,-0.67864 1.59401,0.23674z" fill="#34e664" stroke="none" stroke-width="0.5" stroke-linecap="butt"/><path d="M296.83316,6.1815c0.80392,0.80759 -0.00367,1.61149 -0.00367,1.61149l-0.43379,0.43183c-10.38188,10.3347 -24.50409,14.13137 -38.35395,18.34819c-8.91531,2.71113 -23.03203,11.18297 -20.91189,22.73423c0.64728,3.52667 3.46496,6.58002 4.58445,9.97106c1.16211,3.61601 1.16357,6.6449 3.30928,9.99283c5.26874,8.22067 14.14112,14.74331 14.15803,25.07621c0,0 0,1.1395 -1.1395,1.1395c-1.1395,0 -1.1395,-1.1395 -1.1395,-1.1395c0.01712,-9.62839 -8.85861,-16.14002 -13.79777,-23.84646c-2.24767,-3.50696 -2.3072,-6.77567 -3.55648,-10.51367c-1.14098,-3.51974 -3.97053,-6.56119 -4.65476,-10.24069c-2.37917,-12.79393 12.40229,-22.28777 22.48509,-25.35393c13.47009,-4.09109 27.32541,-7.74498 37.40917,-17.78293l0.43379,-0.43183c0,0 0.80759,-0.80392 1.61149,0.00367z" fill="#34e664" stroke="none" stroke-width="0.5" stroke-linecap="butt"/><path d="M403.56174,134.14859c-1.05814,0.42285 -1.48099,-0.63532 -1.48099,-0.63532l-0.46968,-1.17537c-4.43356,-11.09498 -7.95221,-23.13613 -13.79861,-33.54926c-0.64229,-1.14502 -0.84394,-2.69025 -1.92398,-3.43667c-1.05896,-0.73186 -6.52525,0.13104 -7.96467,0.12917c-6.82451,-0.00893 -19.78399,-2.08415 -25.5458,2.96827c-1.99452,1.74896 -1.83884,3.65974 -4.35858,5.2524c-5.25275,3.19934 -11.01337,4.44853 -16.61642,6.89486c-7.05056,3.07835 -13.2426,7.45383 -20.58335,9.90076c0,0 -1.08102,0.36033 -1.44138,-0.72069c-0.36033,-1.08102 0.72069,-1.44138 0.72069,-1.44138c7.2673,-2.42242 13.40747,-6.77774 20.39214,-9.82731c5.50184,-2.40214 11.19279,-3.61587 16.3428,-6.75265c2.99313,-1.73467 2.92627,-4.87129 6.49736,-6.18076c8.17806,-2.99879 16.13293,-2.38188 24.59531,-2.37254c2.02879,0.00223 7.31447,-0.93765 9.03733,0.14052c0.78872,0.49359 2.34045,3.44875 2.83579,4.33027c5.89723,10.50362 9.45592,22.62871 13.92769,33.8193l0.46968,1.17537c0,0 0.42285,1.05814 -0.63532,1.48099z" fill="#34e664" stroke="none" stroke-width="0.5" stroke-linecap="butt"/><path d="M52.25807,330.22998c2.33464,0.03033 4.56695,0.18749 6.90977,0.48035c15.87333,1.98417 30.36223,-1.49713 44.95512,-7.98279c7.08933,-3.20467 14.37702,-7.12933 19.58216,-13.06892c4.35714,-4.97193 6.58558,-13.60442 9.91028,-19.42265c4.78605,-8.37556 9.91546,-16.8752 12.56574,-26.18335c0.82591,-2.90077 2.41841,-7.09765 1.38766,-9.81445c0,0 -0.36033,-1.08102 0.72069,-1.44138c1.08102,-0.36033 1.44138,0.72069 1.44138,0.72069c1.0467,3.46528 -0.34643,7.59759 -1.3576,11.15845c-2.69486,9.48985 -7.90127,18.1545 -12.77912,26.69075c-3.41641,5.9787 -5.68302,14.66819 -10.17504,19.79399c-5.40646,6.16932 -13.00328,10.31923 -20.36397,13.64651c-14.96852,6.65272 -29.88158,10.20061 -46.16997,8.16456c-2.53307,-0.31665 -4.91935,-0.4682 -7.47295,-0.4682l0.37984,-1.1395l-0.37984,-1.1395c0.25413,0 0.50678,0.00146 0.7582,0.00438l0.00146,-0.00438c0,0 0.03236,0 0.08619,0.00545z" fill="#34e664" stroke="none" stroke-width="0.5" stroke-linecap="butt"/><path d="M240.94959,369.34747c0,1.1395 -1.1395,1.1395 -1.1395,1.1395l-1.63134,-0.00552c-2.67872,-0.52563 -6.21107,-0.57417 -8.70656,-1.61176c-9.42734,-3.91973 -8.71276,-17.13521 -7.52651,-25.19586c1.50508,-10.22707 10.32903,-15.99462 19.23976,-20.29023c2.46864,-1.19007 7.31974,-1.34737 8.98941,-3.90143c0.50284,-0.76919 -1.29614,-4.41416 -1.54182,-5.15445c-4.2846,-8.53037 -8.50391,-17.05002 -12.32478,-25.79861c-1.07722,-2.4665 -2.12223,-7.48273 -4.60446,-8.56303c0,0 -1.01919,-0.50961 -0.50961,-1.5288c0.50961,-1.01919 1.5288,-0.50961 1.5288,-0.50961c3.26816,1.77222 4.2153,6.34988 5.67377,9.68929c3.82725,8.76319 8.08004,17.27982 12.34178,25.8386c0.57071,1.70522 2.44638,5.15527 1.49685,7.00024c-1.74465,3.38995 -7.10597,3.55648 -10.06029,4.9807c-8.19738,3.95173 -16.59204,9.17382 -17.97471,18.56914c-1.01448,6.89338 -2.13577,19.39303 6.19619,22.78093c2.29453,0.93298 5.54341,0.92653 8.00615,1.42691l1.40736,-0.00552c0,0 1.1395,0 1.1395,1.1395z" fill="#34e664" stroke="none" stroke-width="0.5" stroke-linecap="butt"/><path d="M419.94538,316.16603c-0.75506,0.85344 -1.6085,0.09838 -1.6085,0.09838l-1.57744,-1.39557c-8.56793,-7.60787 -16.94077,-1.60043 -23.09577,5.81965c-4.92521,5.9375 -13.10288,15.99026 -20.69628,18.59009c-5.5752,1.90885 -15.8184,-0.52495 -20.96413,-2.8208c-16.63128,-7.47856 -19.89188,-23.24172 -25.35204,-39.22807c-4.38285,-12.88468 -5.30448,-25.53527 -15.47838,-35.70916c0,0 -0.80574,-0.80574 0,-1.61151c0.80574,-0.80574 1.61151,0 1.61151,0c10.4801,10.4801 11.47826,23.33432 16.02356,36.58405c5.23449,15.32564 8.20007,30.72295 24.13001,37.88614c4.57242,2.07399 14.3288,4.44226 19.29127,2.74319c1.57949,-0.54079 3.72761,-2.99122 5.05575,-4.02867c5.55344,-4.33786 10.12323,-8.43369 14.62466,-13.86033c7.00072,-8.43962 16.71816,-14.57302 26.35995,-6.0715l1.57744,1.39557c0,0 0.85344,0.75506 0.09838,1.6085z" fill="#34e664" stroke="none" stroke-width="0.5" stroke-linecap="butt"/><path d="M443.74145,214.07671c0.2983,1.09976 -0.80146,1.39808 -0.80146,1.39808l-2.2291,0.57543c-7.17757,-1.27344 -14.48035,-6.78663 -20.90781,-10.22991c-13.85531,-7.49531 -20.3322,-24.05758 -34.39837,-31.35838c-3.40764,0.08259 -10.84686,-1.39425 -13.67614,1.00146c-1.68551,1.42723 -2.23199,5.69558 -2.74459,7.70792c-1.35599,5.32342 -3.40051,10.10562 -5.848,15.0006c0,0 -0.50961,1.01919 -1.5288,0.50961c-1.01919,-0.50961 -0.50961,-1.5288 -0.50961,-1.5288c2.37539,-4.75075 4.36323,-9.37551 5.67783,-14.5436c0.65196,-2.56299 1.33187,-7.06565 3.48043,-8.88496c3.48232,-2.94869 11.48977,-1.55184 15.67248,-1.48026c14.58751,7.07629 20.85911,24.10241 34.95096,31.56753c5.98581,3.20668 13.07899,8.69024 19.73599,9.96181l1.72813,-0.49796c0,0 1.09976,-0.2983 1.39808,0.80146z" fill="#34e664" stroke="none" stroke-width="0.5" stroke-linecap="butt"/><path d="M242.30654,-5.75557c0.58627,0.97712 -0.39085,1.56338 -0.39085,1.56338l-1.8441,1.10646c-7.87379,4.5545 -21.70929,0.35981 -30.70663,1.68934c-10.86309,1.59068 -28.55956,7.91125 -31.50191,20.05319c0,0 -0.27638,1.10548 -1.38185,0.8291c-1.10548,-0.27638 -0.8291,-1.38185 -0.8291,-1.38185c3.36869,-13.13125 21.41692,-20.00325 33.38269,-21.7554c6.71988,-0.9756 13.86242,-0.3777 20.65195,-0.37829c3.16372,-0.00027 6.50661,0.69115 9.21232,-1.01031l1.8441,-1.10646c0,0 0.97712,-0.58627 1.56338,0.39085z" fill="#34e664" stroke="none" stroke-width="0.5" stroke-linecap="butt"/><path d="M368.57365,29.74834c0.02712,1.13918 -1.11206,1.1663 -1.11206,1.1663c-10.63234,0.25315 -21.27375,0.50651 -31.90609,0.75966c0,0 -1.13918,0.02712 -1.1663,-1.11206c-0.02712,-1.13918 1.11206,-1.1663 1.11206,-1.1663c10.63234,-0.25315 21.26471,-0.5063 31.89705,-0.75946l0.00905,-0.00021c0,0 1.13918,-0.02712 1.1663,1.11206z" fill="#34e664" stroke="none" stroke-width="0.5" stroke-linecap="butt"/><path d="M16.74323,238.41242c1.03168,-0.48386 1.51554,0.54783 1.51554,0.54783l0.61777,1.3172c3.2363,6.90045 6.68613,13.49254 10.51105,20.08496c1.82421,3.14409 4.22956,8.41485 7.88463,9.88679c1.313,0.52878 5.97209,-1.57217 7.35185,-1.97797c6.35335,-1.86863 11.56072,-2.61853 18.18317,-2.61853c0,0 1.1395,0 1.1395,1.1395c0,1.1395 -1.1395,1.1395 -1.1395,1.1395c-6.4345,0 -11.36707,0.71034 -17.5401,2.52594c-2.01257,0.59193 -6.51233,2.69834 -8.58237,1.99356c-4.3488,-1.4806 -7.16955,-7.32758 -9.2684,-10.94507c-3.85761,-6.64877 -7.3392,-13.30151 -10.60315,-20.26096l-0.61777,-1.3172c0,0 -0.48386,-1.03168 0.54783,-1.51554z" fill="#34e664" stroke="none" stroke-width="0.5" stroke-linecap="butt"/><path d="M200.53157,358.52718c-0.57472,0.98394 -1.55868,0.40922 -1.55868,0.40922l-1.59763,-0.93318c-7.80913,-4.56136 -13.99848,-12.08384 -20.45776,-18.39541c-9.39416,-9.17934 -12.12607,-25.15973 -16.42925,-37.49554c0,0 -0.37533,-1.07592 0.70059,-1.45125c1.07592,-0.37533 1.45125,0.70059 1.45125,0.70059c4.16673,11.94459 6.79269,27.74627 15.87018,36.61614c6.31713,6.17267 12.38032,13.5984 20.01447,18.05755l1.59763,0.93318c0,0 0.98394,0.57472 0.40922,1.55868z" fill="#34e664" stroke="none" stroke-width="0.5" stroke-linecap="butt"/><path d="M329.8289,358.77897c-0.06684,1.13754 -1.20439,1.0707 -1.20439,1.0707l-2.06492,-0.12136c-3.25536,-0.1913 -6.24639,-0.1245 -9.2983,-1.33561c-8.30511,-3.35458 -15.32605,-14.33039 -20.30816,-21.78211c-2.01672,-3.0164 -3.01727,-6.85598 -6.11763,-8.85643c0,0 -0.94814,-0.63208 -0.31605,-1.58022c0.63208,-0.94814 1.58022,-0.31605 1.58022,-0.31605c3.44012,2.35307 4.48609,6.10282 6.74803,9.486c4.69669,7.02481 11.45458,17.78004 19.26713,20.93566c2.76464,1.13982 5.60718,0.99905 8.57845,1.17367l2.06492,0.12136c0,0 1.13754,0.06684 1.0707,1.20439z" fill="#34e664" stroke="none" stroke-width="0.5" stroke-linecap="butt"/><path d="M437.41864,217.0378c1.13556,0.09462 1.04094,1.23021 1.04094,1.23021c-0.18927,2.27114 -0.38114,4.57376 -0.57041,6.84488c-1.21282,12.35878 -19.29717,21.73354 -28.8463,27.46303c0,0 -0.97712,0.58627 -1.56338,-0.39085c-0.58627,-0.97712 0.39085,-1.56338 0.39085,-1.56338c8.44914,-5.06949 27.03005,-14.52937 27.74771,-25.69806c0.18927,-2.27114 0.37852,-4.54227 0.56779,-6.81341l0.00262,-0.0315c0,0 0.09462,-1.13556 1.23021,-1.04094z" fill="#34e664" stroke="none" stroke-width="0.5" stroke-linecap="butt"/><path d="M415.45023,106.29485c0.96685,-0.60305 1.56989,0.3638 1.56989,0.3638l0.75522,1.21081c7.36678,11.811 10.05281,22.65645 10.05281,36.616c0,0 0,1.1395 -1.1395,1.1395c-1.1395,0 -1.1395,-1.1395 -1.1395,-1.1395c0,-13.55152 -2.56308,-23.95542 -9.7075,-35.40991l-0.75522,-1.21081c0,0 -0.60305,-0.96685 0.3638,-1.56989z" fill="#34e664" stroke="none" stroke-width="0.5" stroke-linecap="butt"/><path d="M30.20052,71.41827c0.89866,-0.70061 1.59929,0.19805 1.59929,0.19805l1.11692,1.43265c2.79137,3.60735 6.62931,5.43689 10.56705,7.5635c7.64404,4.13182 18.37982,9.78081 27.05616,10.62815c3.31288,0.32353 6.8385,1.09853 8.79156,-2.08338c0,0 0.63208,-0.94814 1.58022,-0.31605c0.94814,0.63208 0.31605,1.58022 0.31605,1.58022c-2.77417,3.93204 -6.50882,3.53713 -10.91457,3.08689c-9.01915,-0.92165 -19.96196,-6.60046 -27.91236,-10.8906c-4.24114,-2.29047 -8.25078,-4.30593 -11.28143,-8.16753l-1.11692,-1.43265c0,0 -0.70061,-0.89866 0.19805,-1.59929z" fill="#34e664" stroke="none" stroke-width="0.5" stroke-linecap="butt"/></g></g></svg>