<svg version="1.1" xmlns="http://www.w3.org/2000/svg" xmlns:xlink="http://www.w3.org/1999/xlink" width="474.79978" height="355.68516" viewBox="0,0,474.79978,355.68516"><g transform="translate(1.04555,4.55153)"><g data-paper-data="{&quot;isPaintingLayer&quot;:true}" fill-rule="nonzero" stroke="none" stroke-linecap="butt" stroke-linejoin="miter" stroke-miterlimit="10" stroke-dasharray="" stroke-dashoffset="0" style="mix-blend-mode: normal"><path d="M421.55775,95.46844l35.226,93.77713c0,0 -37.20931,-39.88233 -34.87672,-28.37782c6.37436,31.43876 32.65072,69.59314 32.65072,77.91759c0,6.49941 -33,-28.30951 -33,-28.30951h-349c0,0 -47,46.18085 -47,36.27156c0,-9.35523 27.97406,-52.81075 38.73274,-85.51232c6.12064,-18.60399 -36.1883,27.18307 -36.1883,27.18307l44.45555,-92.94969z" data-paper-data="{&quot;index&quot;:null}" fill="#333333" stroke-width="NaN"/><text transform="translate(90.57497,150.75214) scale(1.75229,1.53835)" font-size="40" xml:space="preserve" fill="#ffffff" fill-rule="nonzero" stroke="none" stroke-width="1" stroke-linecap="butt" stroke-linejoin="miter" stroke-miterlimit="10" stroke-dasharray="" stroke-dashoffset="0" font-family="Handwriting" font-weight="normal" text-anchor="start" style="mix-blend-mode: normal"><tspan x="0" dy="0">You Lost :(</tspan></text><path d="M-1.02697,239.37946c-0.25662,-2.48679 2.23017,-2.74341 2.23017,-2.74341l1.16176,-0.0599c3.79772,-1.26498 11.98227,-2.76327 13.77626,-7.22659c1.70525,-4.24257 -0.99362,-9.34121 1.2153,-13.56083c2.57597,-4.92079 8.70164,-8.77451 13.04279,-12.03224c0,0 2,-1.5 3.5,0.5c1.5,2 -0.5,3.5 -0.5,3.5c-3.7055,2.77746 -9.2393,6.09478 -11.54294,10.212c-0.53579,0.95759 -0.33583,4.78044 -0.3353,5.34924c0.00223,2.42037 0.13784,5.83642 -0.7909,8.01716c-2.67458,6.28011 -11.07207,8.07933 -16.78406,9.98468l-2.22965,0.29007c0,0 -2.48679,0.25662 -2.74341,-2.23017z" fill="#333333" stroke-width="0.5"/><path d="M81.08242,278.35459c-1.76777,1.76777 -3.53553,0 -3.53553,0l-1.40298,-1.43852c-1.70756,-2.30848 -2.76718,-3.26791 -3.38176,-6.2956c-1.09558,-5.39725 0.54875,-11.35475 -1.11222,-16.73627c-0.97103,-3.14613 -3.34553,-8.27542 -1.66946,-11.62044c1.53323,-3.05996 4.63869,-5.03768 6.82827,-7.66825c0,0 1.60046,-1.92055 3.52101,-0.32009c1.92055,1.60046 0.32009,3.52101 0.32009,3.52101c-1.87761,2.25062 -4.49478,3.89639 -6.04998,6.38074c-0.31878,0.50924 0.10808,1.19697 0.18401,1.79294c0.2822,2.21476 1.03206,4.34645 1.65877,6.48935c2.08351,7.12406 -0.94735,15.36451 3.70126,21.4566l0.93852,0.90298c0,0 1.76777,1.76777 0,3.53553z" fill="#333333" stroke-width="0.5"/><path d="M206.34028,343.61197c-0.87781,2.34082 -3.21863,1.46301 -3.21863,1.46301l-0.00135,-0.00051c-1.57984,-0.59271 -3.15967,-1.18543 -4.73951,-1.77814c-9.10605,-3.93899 -18.24817,-7.67243 -26.63039,-13.03009c-4.17971,-2.67154 -9.8845,-7.1279 -15.28132,-5.14718c-2.82411,1.03649 -4.79789,3.63272 -7.12707,5.53661c-3.25833,2.66339 -6.75023,4.36833 -9.4929,7.78787c-2.0654,2.57514 -2.71094,6.07929 -4.68547,8.72475c-1.02475,1.37295 -2.60421,2.22677 -3.90631,3.34016c0,0 -1.92055,1.60046 -3.52101,-0.32009c-1.60046,-1.92055 0.32009,-3.52101 0.32009,-3.52101c1.03939,-0.83786 2.3303,-1.43582 3.11818,-2.51359c1.97492,-2.70156 2.68244,-6.21834 4.77019,-8.83369c2.98674,-3.74152 6.7672,-5.69565 10.32018,-8.60542c2.76411,-2.26372 5.26731,-5.16261 8.639,-6.34431c8.93112,-3.13017 16.58126,4.30218 23.63971,8.30799c6.91455,3.92414 14.42731,6.82865 21.70846,9.9814c1.54126,0.5777 3.08252,1.1554 4.62378,1.7331l0.00135,0.00051c0,0 2.34082,0.87781 1.46301,3.21863z" fill="#333333" stroke-width="0.5"/><path d="M338.58291,312.40011c2.23607,1.11803 1.11803,3.3541 1.11803,3.3541l-1.05368,1.82048c-2.68274,2.67679 -6.04817,6.21343 -9.65613,7.59208c-3.82234,1.46058 -9.11333,0.6621 -13.07783,0.7796c-6.12015,0.18138 -12.22773,0.75504 -18.3245,1.284c-3.94794,0.34253 -7.07047,0.54345 -10.70842,2.01986c0,0 -2.32119,0.92848 -3.24967,-1.39272c-0.92848,-2.32119 1.39272,-3.24967 1.39272,-3.24967c9.19879,-3.63443 20.91371,-3.36801 30.74176,-3.65928c3.07898,-0.09125 8.37643,0.73715 11.44144,-0.4525c2.91655,-1.13203 5.74653,-4.29312 7.90511,-6.45691l0.11707,-0.52102c0,0 1.11803,-2.23607 3.3541,-1.11803z" fill="#333333" stroke-width="0.5"/><path d="M341.72693,265.03499c1.60046,1.92055 -0.32009,3.52101 -0.32009,3.52101l-3.83763,3.15671c-6.48152,2.56427 -12.80903,2.10573 -19.69006,2.10573c-2.70395,0 -5.44691,-0.49029 -8.11179,-0.03228c-2.47103,0.42469 -4.91778,1.18235 -7.42495,1.20303c0,0 -2.5,0 -2.5,-2.5c0,-2.5 2.5,-2.5 2.5,-2.5c3.75934,0.039 6.72755,-1.15695 10.53674,-1.17075c7.15194,-0.0259 15.39179,1.24299 22.13991,-1.40651l3.18686,-2.69704c0,0 1.92055,-1.60046 3.52101,0.32009z" fill="#333333" stroke-width="0.5"/><path d="M46.27285,2.41631c1.38592,2.08068 -0.69475,3.4666 -0.69475,3.4666l-3.30338,2.20036c-5.3529,3.56198 -11.29026,6.66305 -15.83268,11.26569c-0.55248,0.55981 -3.64536,3.45083 -3.7607,5.16996c-0.12498,1.86283 0.86325,3.63307 1.26409,5.45655c0.69055,3.14139 1.59091,6.24412 2.69348,9.26564c0,0 0.85436,2.34948 -1.49513,3.20384c-2.34948,0.85436 -3.20384,-1.49513 -3.20384,-1.49513c-1.58378,-4.36966 -2.72153,-8.65672 -3.60929,-13.21827c-0.23708,-1.2182 -0.77297,-2.43716 -0.62838,-3.66977c0.40494,-3.45225 2.90882,-5.886 5.16585,-8.20956c4.75871,-4.899 10.98862,-8.1731 16.63568,-11.93093l3.30244,-2.19973c0,0 2.08068,-1.38592 3.4666,0.69475z" fill="#333333" stroke-width="0.5"/><path d="M335.64317,19.4711c-1.03451,2.27592 -3.31042,1.24141 -3.31042,1.24141l-1.88729,-0.85786c-5.43382,-2.47409 -10.74926,-5.35351 -15.76546,-8.60947c-1.44419,-0.93741 -5.7809,-4.44416 -7.69634,-5.02288c-0.99945,-0.30197 -2.09287,0.17432 -3.13149,0.06776c-2.96925,-0.30464 -5.82209,-1.36073 -8.78062,-1.75612c-7.91432,-1.05772 -16.77887,-0.02168 -24.73303,0.59018c0,0 -2.49264,0.19174 -2.68438,-2.30089c-0.19174,-2.49264 2.30089,-2.68438 2.30089,-2.68438c8.26026,-0.6354 17.37919,-1.64535 25.6092,-0.58057c2.96017,0.38298 5.81279,1.43795 8.78062,1.75612c1.29047,0.13835 2.65422,-0.31935 3.89301,0.06776c3.47968,1.08737 6.20036,3.74292 9.16548,5.66977c4.80413,3.12191 9.90186,5.88725 15.11112,8.25089l1.88729,0.85786c0,0 2.27592,1.03451 1.24141,3.31042z" fill="#333333" stroke-width="0.5"/><path d="M191.27972,-2.05152c0,2.5 -2.5,2.5 -2.5,2.5l-3.89142,-0.00852c-0.85817,0.1056 -1.79264,-0.05238 -2.5745,0.31681c-2.81581,1.32962 -1.98901,6.23637 -2.16357,8.50557c0,0 -0.19174,2.49264 -2.68438,2.30089c-2.49264,-0.19174 -2.30089,-2.68438 -2.30089,-2.68438c0.40227,-5.22954 -0.4703,-9.4591 4.86093,-12.56792c1.30476,-0.76085 2.96667,-0.56929 4.45,-0.85394l4.30382,-0.00852c0,0 2.5,0 2.5,2.5z" fill="#333333" stroke-width="0.5"/><path d="M465.40581,63.16895c-2,1.5 -3.5,-0.5 -3.5,-0.5l-1.86235,-2.49473c-2.08116,-3.89148 -4.75482,-6.15144 -8.07892,-9.00707c-2.93428,-2.52075 -6.45576,-5.94353 -10.05156,-7.57612c-1.23471,-0.56059 -4.22172,-0.41426 -5.51978,-0.4102c0,0 -2.5,0 -2.5,-2.5c0,-2.5 2.5,-2.5 2.5,-2.5c2.31692,0.0063 5.18252,-0.16611 7.35847,0.76055c4.11755,1.75353 8.13523,5.56597 11.47152,8.43351c3.65221,3.13906 6.71208,5.83059 9.03273,10.10578l1.64989,2.18827c0,0 1.5,2 -0.5,3.5z" fill="#333333" stroke-width="0.5"/><path d="M466.04211,216.90881c-2.37171,-0.79057 -1.58114,-3.16228 -1.58114,-3.16228l0.4911,-1.37655c0.65265,-3.91591 1.17468,-7.73383 2.44189,-11.51982c0.55476,-1.65743 1.77924,-3.08269 1.12009,-4.98876c-0.95121,-2.75059 -3.69823,-4.64884 -4.61782,-7.41016c-1.30595,-3.92146 -0.5564,-7.16104 -0.13364,-11.06883c0,0 0.27608,-2.48471 2.76079,-2.20863c2.48471,0.27608 2.20863,2.76079 2.20863,2.76079c-0.2886,2.52312 -1.04378,6.22464 -0.13638,8.80915c1.01173,2.88166 3.91639,4.89646 4.75092,7.83434c1.06446,3.74733 -0.17385,4.73403 -1.22141,7.88949c-1.16863,3.52012 -1.6343,7.08361 -2.2411,10.72442l-0.67965,2.1357c0,0 -0.79057,2.37171 -3.16228,1.58114z" fill="#333333" stroke-width="0.5"/><text transform="translate(72.29016,179.84589) scale(0.3809,0.3809)" font-size="40" xml:space="preserve" fill="#ffffff" fill-rule="nonzero" stroke="none" stroke-width="1" stroke-linecap="butt" stroke-linejoin="miter" stroke-miterlimit="10" stroke-dasharray="" stroke-dashoffset="0" font-family="Handwriting" font-weight="normal" text-anchor="start" style="mix-blend-mode: normal"><tspan x="0" dy="0">sad :( team rocket beat you</tspan></text><text transform="translate(182.3406,252.58646) scale(0.5,0.5)" font-size="40" xml:space="preserve" fill="#ffffff" fill-rule="nonzero" stroke="none" stroke-width="1" stroke-linecap="butt" stroke-linejoin="miter" stroke-miterlimit="10" stroke-dasharray="" stroke-dashoffset="0" font-family="Handwriting" font-weight="normal" text-anchor="start" style="mix-blend-mode: normal"><tspan x="0" dy="0"> </tspan></text></g></g></svg>