<svg version="1.1" xmlns="http://www.w3.org/2000/svg" xmlns:xlink="http://www.w3.org/1999/xlink" width="144.5" height="155.86662" viewBox="0,0,144.5,155.86662"><g transform="translate(-183.75,-106.96879)"><g data-paper-data="{&quot;isPaintingLayer&quot;:true}" fill-rule="nonzero" stroke-linejoin="miter" stroke-miterlimit="10" stroke-dasharray="" stroke-dashoffset="0" style="mix-blend-mode: normal"><path d="M239.21118,225.78515l1.16386,-86.87648l80.30659,-31.93988l1.16386,155.86662z" fill="#ffffff" stroke="#000000" stroke-width="0" stroke-linecap="butt"/><path d="M219.97904,251.37599v-59.2991h40.97981v59.29911z" fill="#ffffff" stroke="#000000" stroke-width="0" stroke-linecap="butt"/><path d="M190.29348,225.55292v-88.01718h60.8354v88.01718z" fill="#ffffff" stroke="#000000" stroke-width="0" stroke-linecap="butt"/><path d="M240.5,215.54659l1,-68l69,-25l1,122z" fill="#000000" stroke="#000000" stroke-width="2" stroke-linecap="butt"/><path d="M198.5,215.00001v-68h47v68z" fill="#000000" stroke="#000000" stroke-width="2" stroke-linecap="butt"/><path d="M228.5,242.00002v-37h24v37z" fill="#000000" stroke="#000000" stroke-width="2" stroke-linecap="butt"/><path d="M322.5,186.00944c0,35.34101 -29.77306,63.99057 -66.5,63.99057c-36.72694,0 -66.5,-28.64955 -66.5,-63.99057c0,-35.34101 29.77306,-63.99057 66.5,-63.99057c36.72694,0 66.5,28.64955 66.5,63.99057z" fill="none" stroke="#ff0000" stroke-width="11.5" stroke-linecap="butt"/><path d="M217.5,235.00002l89,-92" fill="none" stroke="#ff0000" stroke-width="11" stroke-linecap="round"/></g></g></svg>