<svg xmlns="http://www.w3.org/2000/svg" xmlns:xlink="http://www.w3.org/1999/xlink" version="1.1" width="435.91702" height="318.87781" viewBox="0,0,435.91702,318.87781"><defs><linearGradient x1="338.19867" y1="-52.18714" x2="338.19867" y2="153.28552" gradientUnits="userSpaceOnUse" id="color-1"><stop offset="0" stop-color="#000303"/><stop offset="1" stop-color="#c06800"/></linearGradient><linearGradient x1="325.35619" y1="6.59337" x2="325.35619" y2="259.93631" gradientUnits="userSpaceOnUse" id="color-2"><stop offset="0" stop-color="#4d4d4d"/><stop offset="1" stop-color="#542323"/></linearGradient><radialGradient cx="194.55151" cy="185.51166" r="41.95559" gradientUnits="userSpaceOnUse" id="color-3"><stop offset="0" stop-color="#656565"/><stop offset="1" stop-color="#6b2d2d"/></radialGradient><radialGradient cx="440.61057" cy="156.33157" r="50.25275" gradientUnits="userSpaceOnUse" id="color-4"><stop offset="0" stop-color="#656565"/><stop offset="1" stop-color="#6b2d2d"/></radialGradient><radialGradient cx="274.08589" cy="175.47545" r="62.58615" gradientUnits="userSpaceOnUse" id="color-5"><stop offset="0" stop-color="#727272"/><stop offset="1" stop-color="#6b2d2d"/></radialGradient><linearGradient x1="330.59378" y1="138.19261" x2="330.59378" y2="265.16539" gradientUnits="userSpaceOnUse" id="color-6"><stop offset="0" stop-color="#ff5500" stop-opacity="0"/><stop offset="1" stop-color="#ff5500"/></linearGradient></defs><g><g data-paper-data="{&quot;isPaintingLayer&quot;:true}" fill-rule="nonzero" stroke-linecap="butt" stroke-linejoin="miter" stroke-miterlimit="10" stroke-dasharray="" stroke-dashoffset="0" style="mix-blend-mode: normal"><path d="M134.09472,153.28552v-205.47266h408.2079v205.47266z" fill="url(#color-1)" stroke-width="0" stroke="none" transform="matrix(1,0,0,1,-108.79545,52.18715)"/><path d="M134.82094,259.93631l-26.02548,-168.91521l20.11228,-29.34312l29.19629,-42.14885c0,0 6.86943,60.496 12.40949,57.88705c7.96385,-3.75037 35.00972,-33.36453 35.00972,-33.36453c0,0 17.93974,20.40976 24.2532,14.33787c5.6563,-5.43989 7.2676,-43.41878 7.2676,-43.41878c0,0 25.53795,60.7046 36.69328,56.33591c18.15982,-7.11181 27.8993,-56.98363 27.8993,-56.98363l16.24217,41.12541l16.77844,-21.42089c0,0 6.28989,38.55542 7.41269,40.05556c3.45282,4.6132 16.55736,-25.43177 16.55736,-25.43177c0,0 11.49529,37.77764 20.79739,44.44141c10.44293,7.48104 19.79824,-3.45917 22.61557,-2.37994c1.00288,0.38417 17.1371,-42.26466 17.1371,-42.26466c0,0 21.68712,16.18842 29.55898,15.72414c10.714,-0.63191 7.19995,-52.07651 7.19995,-52.07651l85.98066,76.99319v170.84739z" data-paper-data="{&quot;index&quot;:null}" fill="url(#color-2)" stroke-width="0" stroke="none" transform="matrix(1,0,0,1,-108.79545,52.18715)"/><path d="M187.80309,232.98195c-7.75814,-3.29584 -28.33329,-13.02083 -30.66522,-19.81864c-2.20649,-6.43214 11.89302,-16.97899 11.89302,-16.97899l16.07696,-18.45376c0,0 22.79138,2.61387 30.54894,5.90945c1.3698,0.58193 32.83249,-63.63071 32.83249,-63.63071c0,0 -25.57687,72.24299 -22.82985,73.513c1.80935,0.8365 -7.56454,-56.30195 -7.56454,-56.30195l22.7198,59.54179c0,0 -8.03707,6.16203 -11.05834,12.18663c-2.09955,4.18663 1.00983,7.96997 -0.68734,10.97647c-3.32799,5.89544 -14.11591,22.69588 -14.11591,22.69588c0,0 -5.11105,-5.17052 -11.27694,-7.29052c-5.49147,-1.88811 -11.83788,-0.63442 -15.87305,-2.34866z" data-paper-data="{&quot;index&quot;:null}" fill="url(#color-3)" stroke-width="0" stroke="none" transform="matrix(1,0,0,1,-108.79545,52.18715)"/><path d="M478.82041,179.33968c4.60452,8.76107 9.10867,50.43393 9.10867,50.43393c0,0 -15.82551,-13.67911 -22.89082,-6.72563c-3.60311,3.54606 -9.60747,-0.01426 -14.69883,4.52023c-7.32653,6.52516 -13.43351,20.76569 -13.43351,20.76569c0,0 -4.62387,-16.0292 -8.6436,-22.15688c-4.08515,-6.22742 -39.22552,-0.96328 -42.23639,-5.86727c-0.96871,-1.57781 -59.02584,-5.36018 -59.14859,-7.9761c-0.08212,-1.74991 3.98824,-83.31884 3.98824,-83.31884c0,0 16.91834,75.92229 19.97417,75.29013c1.83699,-0.38002 1.88102,-41.90419 1.88102,-41.90419c0,0 11.33447,25.37599 13.91433,20.97288c7.85173,-13.40075 15.33856,-28.27945 15.33856,-28.27945c0,0 4.83669,41.03412 5.46069,38.62541c3.27294,-12.63384 8.0366,-24.5777 8.0366,-24.5777l10.27673,-15.43817c0,0 14.08216,4.36973 24.75439,2.85075c8.70938,-1.2396 17.77395,-9.29701 21.97316,-8.69388c9.87608,1.41848 12.0633,-2.88227 18.70939,7.94264c0,0 3.5349,15.73366 7.63578,23.53645z" data-paper-data="{&quot;index&quot;:null}" fill="url(#color-4)" stroke-width="0" stroke="none" transform="matrix(1,0,0,1,-108.79545,52.18715)"/><path d="M236.25213,179.80674c6.94956,-10.94196 10.15282,-7.35489 22.18879,-10.20669c5.11757,-1.21257 17.25503,4.72567 28.1593,4.48744c13.36181,-0.29193 24.7297,15.57835 24.7297,15.57835l12.91763,-49.80902c0,0 -5.35459,74.16334 -7.50041,81.45532c-3.06058,10.40052 3.42578,-4.04811 -0.6592,2.38362c-3.14835,4.95702 -14.28743,7.34761 -18.60879,13.68358c-4.25216,6.2345 -8.09706,21.61546 -8.09706,21.61546c0,0 -9.20396,-12.05616 -19.01565,-16.86739c-6.81835,-3.34345 -13.82152,0.85664 -18.68608,-1.81759c-9.53888,-5.24391 -36.503,-22.06853 -36.503,-22.06853c0,0 9.71573,-6.98279 14.38354,-15.71664c4.15725,-7.77855 6.69122,-22.71788 6.69122,-22.71788z" data-paper-data="{&quot;index&quot;:null}" fill="url(#color-5)" stroke-width="0" stroke="none" transform="matrix(1,0,0,1,-108.79545,52.18715)"/><path d="M127.2372,266.69067l-10.25246,-64.99074c0,0 7.35585,3.05836 66.17705,0.21174c38.33082,-1.855 139.05853,-17.1506 167.14772,-17.1506c23.40365,0 109.08446,17.41622 139.55668,19.09838c52.41543,2.89349 44.467,-17.14389 44.467,-17.14389v79.9751z" data-paper-data="{&quot;index&quot;:null}" fill="#ff5500" stroke-width="0" stroke="none" transform="matrix(1,0,0,1,-108.79545,52.18715)"/><path d="M116.47508,265.16539v-126.97278h428.2374v126.97278z" fill="url(#color-6)" stroke-width="0" stroke="none" transform="matrix(1,0,0,1,-108.79545,52.18715)"/></g></g></svg>