<svg version="1.1" xmlns="http://www.w3.org/2000/svg" xmlns:xlink="http://www.w3.org/1999/xlink" width="105.73364" height="100.88078" viewBox="0,0,105.73364,100.88078"><defs><radialGradient cx="240" cy="179.99998" r="35.89968" gradientUnits="userSpaceOnUse" id="color-1"><stop offset="0" stop-color="#050308"/><stop offset="1" stop-color="#050308" stop-opacity="0"/></radialGradient><radialGradient cx="240" cy="180" r="52.86682" gradientUnits="userSpaceOnUse" id="color-2"><stop offset="0" stop-color="#050308"/><stop offset="1" stop-color="#050308" stop-opacity="0"/></radialGradient></defs><g transform="translate(-187.13318,-129.55961)"><g data-paper-data="{&quot;isPaintingLayer&quot;:true}" fill-rule="nonzero" stroke="none" stroke-width="0" stroke-linecap="butt" stroke-linejoin="miter" stroke-miterlimit="10" stroke-dasharray="" stroke-dashoffset="0" style="mix-blend-mode: normal"><path d="M240,213.75888c-19.82685,0 -35.89968,-15.11436 -35.89968,-33.75888c0,-18.6445 16.07281,-33.75889 35.89968,-33.75889c19.82685,0 35.89968,15.11437 35.89968,33.75889c0,18.6445 -16.07283,33.75888 -35.89968,33.75888z" fill="url(#color-1)"/><path d="M292.86682,180c0,27.85746 -23.66928,50.44039 -52.86682,50.44039c-29.19754,0 -52.86682,-22.58293 -52.86682,-50.44039c0,-27.85746 23.66928,-50.44039 52.86682,-50.44039c29.19754,0 52.86682,22.58293 52.86682,50.44039z" fill="url(#color-2)"/></g></g></svg>