<svg xmlns="http://www.w3.org/2000/svg" xmlns:xlink="http://www.w3.org/1999/xlink" version="1.1" width="88.07756" height="80.44976" viewBox="0,0,88.07756,80.44976"><defs><radialGradient cx="241.45974" cy="180.06397" r="44.03878" gradientUnits="userSpaceOnUse" id="color-1"><stop offset="0" stop-color="#e4e4e4" stop-opacity="0"/><stop offset="1" stop-color="#e4e4e4"/></radialGradient></defs><g><g data-paper-data="{&quot;isPaintingLayer&quot;:true}" fill-rule="nonzero" stroke-linejoin="miter" stroke-miterlimit="10" stroke-dasharray="" stroke-dashoffset="0" style="mix-blend-mode: normal"><path d="M266.51979,213.46732c0,0 -17.47476,-20.22189 -27.58452,-17.75047c-9.62719,2.35348 -28.47017,16.4696 -28.47017,16.4696c0,0 10.0984,-14.23769 9.46126,-19.78124c-1.23684,-10.76121 -23.29848,-24.02977 -23.29848,-24.02977c0,0 26.09524,3.97219 30.47814,-0.10899c6.73016,-6.26692 15.03139,-35.158 15.03139,-35.158c0,0 5.26341,29.48403 15.25151,35.14511c4.78764,2.71355 27.31652,-9.88216 27.31652,-9.88216c0,0 -25.76346,23.6297 -25.91553,29.81041c-0.26409,10.7347 7.99255,25.3764 7.99255,25.3764" fill="url(#color-1)" stroke="#ff9400" stroke-linecap="round" stroke-width="0" transform="matrix(1,0,0,1,-196.62788,-133.10845)"/><path d="M213.63521,174.60457c0,0 7.63541,1.16225 11.96115,0.73363c-0.92515,1.47552 -1.44385,3.31764 -1.40523,5.63482c0.01216,0.72939 0.99848,1.12466 1.22285,1.81675c-0.65991,0.04258 -1.3182,0.11278 -1.9607,0.22743c-2.96667,-4.29198 -9.81807,-8.41263 -9.81807,-8.41263z" fill="#ffffff" stroke="#000000" stroke-linecap="butt" stroke-width="0" transform="matrix(1,0,0,1,-196.62788,-133.10845)"/><path d="M223.72205,201.28229c0,0 4.82638,-6.80469 4.52187,-9.45415c-0.06177,-0.53743 -0.23222,-1.08795 -0.48795,-1.64294c0.29065,0.00819 0.60289,-0.01 0.92448,-0.04324c-0.00965,0.17067 0.01468,0.33359 0.10227,0.48307c0.86007,1.46776 2.89787,3.12048 5.05604,4.19079c-4.6031,2.33598 -10.1167,6.46647 -10.1167,6.46647z" fill="#ffffff" stroke="#000000" stroke-linecap="butt" stroke-width="0" transform="matrix(1,0,0,1,-196.62788,-133.10845)"/><path d="M242.3329,152.46341c0,0 1.48144,8.29859 4.32797,13.38179c-1.32855,-0.6526 -2.82307,-1.01908 -4.40317,-1.01908c-1.83318,0 -3.55116,0.49327 -5.02843,1.35433c2.62649,-5.09572 5.10364,-13.71704 5.10364,-13.71704z" fill="#ffffff" stroke="#000000" stroke-linecap="butt" stroke-width="0" transform="matrix(1,0,0,1,-196.62788,-133.10845)"/><path d="M267.81246,169.37022c0,0 -6.94258,6.36759 -10.43234,10.79073c0.00822,-0.16632 0.01238,-0.33371 0.01238,-0.50207c0,-1.98335 -0.5774,-3.83184 -1.57326,-5.38654c3.505,-0.15642 11.99322,-4.90212 11.99322,-4.90212z" fill="#ffffff" stroke="#000000" stroke-linecap="butt" stroke-width="0" transform="matrix(1,0,0,1,-196.62788,-133.10845)"/><path d="M257.91271,199.17603c0,0 -3.59797,-4.16359 -7.43706,-6.6912c0.32301,-0.16603 0.59298,-0.39997 0.784,-0.73426c1.20851,-0.71324 2.25391,-1.67343 3.06679,-2.81116c0.62861,4.81255 3.7118,10.28005 3.7118,10.28005z" fill="#ffffff" stroke="#000000" stroke-linecap="butt" stroke-width="0" transform="matrix(1,0,0,1,-196.62788,-133.10845)"/></g></g></svg>