<svg version="1.1" xmlns="http://www.w3.org/2000/svg" xmlns:xlink="http://www.w3.org/1999/xlink" width="104.41529" height="125.55303" viewBox="0,0,104.41529,125.55303"><defs><linearGradient x1="214.67603" y1="255.23875" x2="264.92987" y2="255.23875" gradientUnits="userSpaceOnUse" id="color-1"><stop offset="0" stop-color="#90865b"/><stop offset="1" stop-color="#4e422c"/></linearGradient><linearGradient x1="189.58674" y1="193.45707" x2="291.51711" y2="193.45707" gradientUnits="userSpaceOnUse" id="color-2"><stop offset="0" stop-color="#90865b"/><stop offset="1" stop-color="#4e422c"/></linearGradient><linearGradient x1="193.87634" y1="192.73781" x2="286.65968" y2="192.73781" gradientUnits="userSpaceOnUse" id="color-3"><stop offset="0" stop-color="#998d60"/><stop offset="1" stop-color="#68583b"/></linearGradient><linearGradient x1="197.92423" y1="191.74442" x2="281.86673" y2="191.74442" gradientUnits="userSpaceOnUse" id="color-4"><stop offset="0" stop-color="#d6c687"/><stop offset="1" stop-color="#68583b"/></linearGradient><linearGradient x1="239.79088" y1="236.88473" x2="239.79088" y2="242.48712" gradientUnits="userSpaceOnUse" id="color-5"><stop offset="0" stop-color="#c2b37a"/><stop offset="1" stop-color="#68583b"/></linearGradient><linearGradient x1="239.45372" y1="246.72659" x2="239.45372" y2="252.32897" gradientUnits="userSpaceOnUse" id="color-6"><stop offset="0" stop-color="#998d60"/><stop offset="1" stop-color="#68583b"/></linearGradient><linearGradient x1="239.69806" y1="255.36268" x2="239.69806" y2="260.27437" gradientUnits="userSpaceOnUse" id="color-7"><stop offset="0" stop-color="#786e4c"/><stop offset="1" stop-color="#68583b"/></linearGradient><linearGradient x1="194.56225" y1="233.90573" x2="201.26771" y2="233.90573" gradientUnits="userSpaceOnUse" id="color-8"><stop offset="0" stop-color="#c2b37a"/><stop offset="1" stop-color="#68583b"/></linearGradient><linearGradient x1="188.60183" y1="241.75289" x2="195.804" y2="241.75289" gradientUnits="userSpaceOnUse" id="color-9"><stop offset="0" stop-color="#c2b37a"/><stop offset="1" stop-color="#68583b"/></linearGradient><linearGradient x1="279.77787" y1="234.52661" x2="285.24158" y2="234.52661" gradientUnits="userSpaceOnUse" id="color-10"><stop offset="0" stop-color="#c2b37a"/><stop offset="1" stop-color="#68583b"/></linearGradient><linearGradient x1="283.60198" y1="241.30561" x2="291.30085" y2="241.30561" gradientUnits="userSpaceOnUse" id="color-11"><stop offset="0" stop-color="#c2b37a"/><stop offset="1" stop-color="#68583b"/></linearGradient></defs><g transform="translate(-187.85182,-140.51872)"><g data-paper-data="{&quot;isPaintingLayer&quot;:true}" fill-rule="nonzero" stroke="#000000" stroke-linecap="butt" stroke-linejoin="miter" stroke-miterlimit="10" stroke-dasharray="" stroke-dashoffset="0" style="mix-blend-mode: normal"><path d="M217.51523,265.31791l-5.39448,-23.56536l54.22872,0.56784l-4.54272,22.7136z" fill="url(#color-1)" stroke-width="1.5"/><path d="M189.58674,245.64542v-104.3767h101.93037v104.3767z" fill="url(#color-2)" stroke-width="1.5"/><path d="M193.87634,238.76985v-92.06408h92.78333v92.06408z" fill="url(#color-3)" stroke-width="1.5"/><path d="M197.92423,230.9838v-78.47878h83.94249v78.47878l-17.5047,0.28392l-0.54979,4.91925l-48.56836,0.47523l-0.56784,-5.6784z" fill="url(#color-4)" stroke-width="1.5"/><path d="M215.244,242.48712v-5.60239h49.09374v5.60239z" fill="url(#color-5)" stroke-width="1.5"/><path d="M214.86587,245.89894v-2.80119h49.48774v2.80119z" fill="#48432e" stroke-width="1"/><path d="M217.04417,252.32897v-5.60239h44.81908v5.60239z" fill="url(#color-6)" stroke-width="1.5"/><path d="M216.69375,255.17297v-2.80119h45.44156v2.80119z" fill="#48432e" stroke-width="1"/><path d="M220.05134,260.27437v-4.91168h39.29344v4.91168z" fill="url(#color-7)" stroke-width="1.5"/><path d="M219.77848,263.86007v-2.45585h39.83917v2.45585z" fill="#48432e" stroke-width="1"/><path d="M201.26771,233.90573c0,1.71451 -1.50106,3.10439 -3.35273,3.10439c-1.85167,0 -3.35273,-1.38988 -3.35273,-3.10439c0,-1.71451 1.50106,-3.10439 3.35273,-3.10439c1.85167,0 3.35273,1.38988 3.35273,3.10439z" fill="url(#color-8)" stroke-width="1.5"/><path d="M195.804,241.75289c0,2.0574 -1.61226,3.72526 -3.60109,3.72526c-1.98883,0 -3.60109,-1.66786 -3.60109,-3.72526c0,-2.0574 1.61226,-3.72526 3.60109,-3.72526c1.98883,0 3.60109,1.66786 3.60109,3.72526z" fill="url(#color-9)" stroke-width="1.5"/><path d="M285.24158,234.52661c0,1.64592 -1.2231,2.98021 -2.73186,2.98021c-1.50877,0 -2.73186,-1.33428 -2.73186,-2.98021c0,-1.64592 1.2231,-2.98021 2.73186,-2.98021c1.50877,0 2.73186,1.33428 2.73186,2.98021z" fill="url(#color-10)" stroke-width="1.5"/><path d="M291.30085,241.30561c0,2.12598 -1.72345,3.84943 -3.84943,3.84943c-2.12598,0 -3.84943,-1.72345 -3.84943,-3.84943c0,-2.12598 1.72345,-3.84943 3.84943,-3.84943c2.12598,0 3.84943,1.72345 3.84943,3.84943z" fill="url(#color-11)" stroke-width="1.5"/></g></g></svg>