<svg version="1.1" xmlns="http://www.w3.org/2000/svg" xmlns:xlink="http://www.w3.org/1999/xlink" width="132.35085" height="201.15379" viewBox="0,0,132.35085,201.15379"><defs><linearGradient x1="270.50941" y1="135.1085" x2="340.92768" y2="135.1085" gradientUnits="userSpaceOnUse" id="color-1"><stop offset="0" stop-color="#0c1504" stop-opacity="0"/><stop offset="1" stop-color="#0c1504"/></linearGradient><linearGradient x1="333.86574" y1="91.90864" x2="333.86574" y2="221.04132" gradientUnits="userSpaceOnUse" id="color-2"><stop offset="0" stop-color="#0c1504" stop-opacity="0"/><stop offset="1" stop-color="#0c1504"/></linearGradient><linearGradient x1="328.97441" y1="109.3153" x2="328.97441" y2="273.90634" gradientUnits="userSpaceOnUse" id="color-3"><stop offset="0" stop-color="#0c1504" stop-opacity="0"/><stop offset="1" stop-color="#0c1504"/></linearGradient></defs><g transform="translate(-261.71625,-72.75253)"><g data-paper-data="{&quot;isPaintingLayer&quot;:true}" fill-rule="nonzero" stroke="none" stroke-width="0.5" stroke-linecap="butt" stroke-linejoin="miter" stroke-miterlimit="10" stroke-dasharray="" stroke-dashoffset="0" style="mix-blend-mode: normal"><path d="M280.05101,108.02061c-1.81041,-2.92462 -3.163,-5.82075 -4.28904,-8.81125l-0.22528,0.10628l-2.73678,-4.34989c-0.0611,-0.09277 -0.11554,-0.18925 -0.16276,-0.28896l-0.59238,-0.28498c-0.91333,-0.41981 -1.53535,-1.25182 -1.53535,-2.20964c0,-1.38071 1.29256,-2.5 2.887,-2.5h3.30575v0.12008l0.35275,-0.10135c1.4431,0.30607 2.85596,0.69002 4.24344,1.13763c1.92872,-0.24729 4.18068,0.27954 6.13073,0.50838c1.55133,0.18205 2.83149,1.16154 4.28596,1.66301c6.78932,2.34079 13.07371,5.62242 19.85148,7.95754c6.56312,2.28434 12.35281,5.29953 18.4073,8.44526c1.41674,0.7361 4.96403,2.356 6.00561,3.18693c0.79964,0.63793 4.92002,6.06876 4.93817,6.36793c0.3143,5.18328 -6.80431,6.24582 -9.91602,9.21628c-2.57341,2.4566 -4.50517,5.63354 -6.7609,8.3518c-1.95419,2.35489 -4.57315,4.33007 -6.92997,6.37096c-3.17967,2.73974 -4.8148,5.85566 -7.42823,8.93638c-3.32374,3.91805 -7.59738,7.16465 -11.11316,10.91917c-1.39143,1.48592 -1.91201,3.4558 -3.05289,5.094c-2.19157,3.14691 -5.30557,6.46039 -7.86401,9.42266l-1.79984,2.182c-0.52147,0.64913 -1.38925,1.07402 -2.37161,1.07402c-0.79493,0 -1.51481,-0.27821 -2.03689,-0.72832c-0.62329,0.41201 -1.54888,0.67964 -2.80869,0.19478c-2.63817,-1.01535 -1.46565,-3.29988 -1.46565,-3.29988c3.8768,-7.48856 3.5507,-15.95179 3.06134,-23.97385c-0.16588,-2.71926 -1.10346,-5.30355 -1.43636,-8.00759c-0.18927,-1.53731 -1.0788,-3.1506 -0.51252,-4.61679c0.39315,-1.01793 2.21631,-1.06119 3.02086,-1.87771c0.53263,-0.54055 0.66752,-1.31293 0.81223,-2.01238c0.45067,-2.17836 -0.87206,-5.18887 -1.14959,-7.3407c-0.00386,-3.17588 0.0508,-6.24888 -0.35406,-9.40424c-0.24608,-1.91782 -0.91529,-5.5287 0.00505,-7.25614c0.32077,-0.60207 1.40649,-0.54686 2.09565,-0.86156c0.02124,-0.05588 0.04378,-0.11121 0.06765,-0.16596c-0.98431,-1.04024 -2.21234,-2.00625 -2.92896,-3.16391zM309.4136,118.45351c-0.06712,-0.02749 -0.13288,-0.05639 -0.19721,-0.0867l-0.1447,0.50118zM328.04301,116.72037c0.01284,-0.01787 0.01642,-0.0355 0.00826,-0.05277c-0.00254,0.01765 -0.00529,0.03524 -0.00826,0.05277zM322.65883,124.45025c0.00045,-0.00384 0.00091,-0.00769 0.00136,-0.01153c-0.01969,0.006 -0.03936,0.01199 -0.059,0.01797c0.01922,-0.00217 0.03843,-0.00431 0.05762,-0.00644z" fill="url(#color-1)"/><path d="M358.79651,98.82153l-0.04747,0.01028l-1.08622,-3.76244c-0.06644,-0.21047 -0.1019,-0.43201 -0.1019,-0.66073c0,-1.38071 1.29256,-2.5 2.887,-2.5c0.88368,0 1.67462,0.3438 2.20419,0.88536l2.19163,2.21414l-0.09229,0.0685l0.28096,0.14422c2.23792,3.59758 3.83321,7.3755 4.95663,11.26214c1.78756,2.9959 3.42586,6.02892 4.75629,9.26326c2.65911,6.4645 5.35413,13.69028 6.88974,20.43743c2.85118,12.52739 1.90168,25.99597 1.90168,38.69638c-0.01879,3.73166 -1.20649,7.25307 -1.47481,10.96969c-0.40366,5.59134 0.37168,11.24647 0.00117,16.84056c-0.19811,2.99097 -1.25328,5.68203 -1.8812,8.59059c-0.34433,1.59495 -0.79205,3.1746 -1.05809,4.78074c-0.22186,1.33953 0.8165,3.148 -0.35012,4.04837c-1.47758,1.14035 -3.91723,1.01569 -5.8734,0.75478c-1.61133,-0.21491 -2.79598,-1.45657 -4.24459,-2.1043c-3.10298,-1.38745 -5.68297,-2.26982 -9.10205,-2.57985c-3.40529,0.00414 -7.05863,0.31261 -10.43993,-0.0111c-4.077,-0.39031 -7.89095,-1.95928 -11.86805,-2.55742c-1.1652,-0.17524 -2.37464,0.14254 -3.54793,0.01388c-9.33739,-1.02389 -19.3982,-3.70529 -28.03832,-6.8305c-3.57732,-1.29395 -6.51745,-0.97644 -10.17618,-1.75874c-1.87288,-0.40046 -4.74501,-0.02922 -5.49697,-1.56762c-0.01426,-0.02917 -0.02785,-0.0584 -0.0408,-0.0877c-0.54863,0.26743 -1.10468,0.52439 -1.66765,0.77054c0,0 -2.58221,1.11803 -3.87331,-1.11803c-1.2911,-2.23607 1.2911,-3.3541 1.2911,-3.3541c2.72798,-1.16736 5.2569,-2.64428 7.52054,-4.37157c0.47328,-0.58173 0.99961,-1.12253 1.56154,-1.63554c1.33273,-1.74712 2.8424,-3.2392 3.76837,-4.02986c0.34615,-0.29557 0.69951,-0.56959 1.05975,-0.82448c1.42109,-1.95287 2.57706,-4.05143 3.42187,-6.25449l0.09529,-0.09524l-0.04183,-0.0161l1.44246,-2.81047c0.43553,-0.90256 1.4647,-1.53681 2.66494,-1.53681c1.39905,0 2.56566,0.86176 2.83059,2.00574l0.34368,1.33925c0.36605,0.23236 0.66653,0.53761 0.87291,0.89107c0.01631,-0.03659 0.0327,-0.07031 0.04913,-0.10069c0.4097,-0.75774 0.98392,-1.44082 1.43903,-2.17888c1.1585,-1.87877 2.38656,-4.79116 4.69217,-5.8811c0.77586,-0.36678 1.73817,0.17532 2.63867,0.25797c0.56456,-0.45517 1.17281,-0.89329 1.7971,-1.32656c0.06405,-0.18722 0.11821,-0.38462 0.16793,-0.58563c3.98009,-0.00886 7.96519,-1.58973 10.09996,-4.35049c4.3508,-5.62659 3.31242,-12.85431 6.45116,-17.97567c3.18254,-5.1928 3.39977,-9.98011 4.40786,-15.68259c0.53668,-3.03587 3.88501,-7.81251 4.1937,-11.50793c1.0005,0.98965 1.96366,2.00831 2.89169,3.06078c-0.10909,-0.26356 -0.16852,-0.54761 -0.16852,-0.84367c0,-0.38061 0.09823,-0.74136 0.27392,-1.06428c-0.11014,-0.45632 -0.20768,-0.91471 -0.28708,-1.3761c-0.43433,-2.52371 -0.44699,-5.10083 -1.01478,-7.60431l-1.01684,-2.34807c-0.13363,-0.28795 -0.20718,-0.60242 -0.20718,-0.93176c0,-1.38071 1.29256,-2.5 2.887,-2.5c1.1525,0 2.14727,0.58479 2.61018,1.43041l2.14223,3.71013c1.68243,1.77617 3.25481,4.38921 4.67327,6.89421c0.0012,-0.01424 0.00249,-0.02846 0.00388,-0.04268c-0.08317,-1.92202 -0.19546,-3.83542 -0.19546,-5.67524c0,-4.28415 0.54425,-8.74188 -0.68552,-12.89985l0.05804,-0.15814l-0.08483,0.00918l-0.36166,-2.50543c-0.01842,-0.11412 -0.02795,-0.2307 -0.02795,-0.34921c0,-0.29245 0.05799,-0.57317 0.16455,-0.83401c-0.01092,-0.05338 -0.02121,-0.1068 -0.03088,-0.16027z" fill="url(#color-2)"/><path d="M323.63269,191.45186c0.73803,-1.88461 1.90571,-3.62703 3.031,-5.36215c1.41988,-2.18938 3.05341,-4.23465 4.77701,-6.22088c6.99879,-11.01933 14.89064,-21.61145 21.34524,-32.8831v-3.07584c0,-1.38071 1.29256,-2.5 2.887,-2.5c1.39905,0 2.56566,0.86176 2.83059,2.00574l0.53891,2.1c0.89648,1.09534 1.72973,2.26207 2.22129,3.33869c0.45917,-0.51309 0.91847,-0.96705 1.36824,-1.33243c1.51939,-2.91287 2.48296,-5.4772 3.04301,-8.76184c0.16553,-0.97079 0.33649,-1.92644 0.51521,-2.86963c3.39548,-0.14886 5.80276,-1.99358 7.38781,-4.3701c1.10647,-1.3644 1.82919,-2.97913 2.03236,-4.72662c0.23826,-0.9721 0.37508,-1.91806 0.41926,-2.77633c0.30831,-0.56281 0.55771,-1.15452 0.74131,-1.76916c1.69756,-4.04719 2.50085,-9.22327 3.05499,-12.93291c0.93205,0.34833 1.68101,1.06346 2.36237,1.90563c0.97872,0.66241 1.69109,1.60627 1.97479,2.691c0.01362,0.01756 0.02725,0.03506 0.0409,0.05252c4.15375,5.30962 6.92051,10.64146 8.94252,16.76404c1.54225,10.96637 0.97702,22.57597 -0.44566,33.50262c-1.20493,9.25423 -5.26618,18.34063 -8.4341,27.18018c-3.23695,9.03214 -5.66016,18.47791 -10.52325,26.97701c-2.69007,6.06779 -4.96914,12.58544 -8.99252,18.10657c-2.32084,3.1848 -5.3127,5.81639 -7.19201,9.2917c-3.36344,6.21983 -4.70483,13.24799 -9.47371,18.87581c-2.64189,3.11774 -6.58214,6.83215 -11.01987,8.10193c-1.7465,0.49972 -3.72189,1.58311 -5.4085,0.9476c-1.54721,-0.58298 -1.57587,-2.58411 -2.36381,-3.87617c-2.98101,-2.89817 -6.90126,-4.29049 -10.53495,-6.50904c-5.62457,-3.43407 -10.98936,-7.03632 -16.56339,-10.51755c-3.57435,-2.23234 -7.73677,-4.55566 -10.75296,-7.36343c-2.25405,-2.09829 -3.63308,-5.2231 -5.41687,-7.62933c-3.37765,-4.55627 -6.83871,-8.4447 -11.85725,-11.58264c-2.10672,-0.80176 -4.2344,-1.56279 -6.3746,-2.29504l-0.32405,-0.46786l-0.15439,0.13369l-2.20383,-1.90841l0.70572,-0.61112l-0.64541,-0.93183c-0.54988,-0.28792 -1.04,-0.79717 -1.22663,-1.68602c-0.51644,-2.45967 2.32399,-2.90689 2.32399,-2.90689c5.76404,-0.90631 12.77167,-1.64718 18.04236,-3.94637c3.31853,-1.44762 6.45185,-3.1965 9.74061,-4.6942c2.24859,-1.02401 8.69515,-6.12383 11.23091,-4.76333c1.8042,0.968 1.44416,3.45417 1.47742,5.36348c0.63125,-0.37516 1.38728,-0.60838 1.98278,-1.02915c1.39395,-0.98494 2.68531,-2.07639 3.95878,-3.17689c3.81225,-3.29447 7.47625,-6.78246 10.53859,-10.60734c0.10469,-0.42436 0.23179,-0.84349 0.39279,-1.25463z" fill="url(#color-3)"/><path d="M288.77463,175.61747c1.78338,0.53946 3.57312,1.18628 4.94009,2.07589c4.15555,2.70439 6.90656,7.88913 6.46833,12.43697c-0.12055,1.25103 -1.21434,2.28337 -1.70514,3.46462c-0.81825,1.96934 -0.68242,4.20959 -1.72129,6.09931c-0.44744,0.8139 -1.65278,1.15828 -2.18238,1.93432c-0.34832,0.51041 -0.09597,1.19928 -0.33521,1.75478c-1.14265,2.65318 -3.92168,7.70788 -6.21124,9.66385c-3.02391,2.58333 -7.53816,3.11363 -11.28274,4.19302c-0.52705,0.15193 -1.04271,0.33928 -1.55683,0.53052c0.57454,0.53477 1.28007,1.22064 2.18319,1.96753c6.57916,5.44103 13.13816,10.65576 20.06881,15.75812c4.08074,3.00425 8.05859,6.85051 12.50662,9.48182c4.95838,2.93322 9.82324,6.00595 14.40985,9.36226c2.29306,1.67797 7.53505,4.7886 8.73904,8.04243c0.18062,-0.32818 0.36519,-0.65482 0.54602,-0.98243c1.83452,-3.32357 3.45609,-6.61711 5.64404,-9.77487c1.08663,-2.3769 2.09522,-5.45988 3.39792,-7.69992c2.55697,-4.3968 5.98052,-6.92254 9.0763,-10.70823c2.95073,-3.60831 5.49765,-7.70694 8.68564,-11.24604c0.49951,-0.55452 1.35637,-0.8398 1.7821,-1.43871c0.59783,-0.84104 0.6439,-1.91405 1.21042,-2.77119c2.07671,-3.14207 6.75055,-5.13653 8.59356,-8.12317c1.49472,-2.42223 1.07943,-5.05093 1.31401,-7.62792c0.36374,-3.99593 1.51902,-8.01076 2.30852,-11.95516c2.94552,-6.02409 1.91655,-13.62783 1.91655,-20.13224c0,-7.4433 1.08976,-15.69657 -0.6075,-22.961c-0.25148,-1.07636 -1.19842,-1.97654 -1.41296,-3.05888c-1.40305,-7.07846 0.22037,-14.59662 -1.09439,-21.71622c-1.38005,-1.70011 -2.14371,-3.80588 -3.84746,-5.26938c-2.30393,-1.97904 -5.74558,-2.72566 -8.14573,-4.61701c-4.01192,-3.16144 -7.13561,-7.23878 -11.25979,-10.36689c-9.16926,-6.95471 -19.62652,-11.46608 -31.03107,-14.29485c-5.29629,-1.31369 -11.43584,-4.95225 -16.9479,-4.73216c-3.10604,-0.02252 -6.85922,-0.98551 -9.92697,-0.64737c-2.80988,0.30972 -6.01079,1.32088 -8.65781,2.18765c-1.96438,0.64324 -3.92924,1.51511 -5.91326,2.23898c0.18227,0.08706 0.36107,0.17929 0.53564,0.27744c1.58383,0.89047 3.27294,1.78139 4.39203,3.09855c1.00528,1.1832 0.89805,2.86876 1.75501,4.13647c0.9639,1.42591 2.78193,2.3521 3.63131,3.83161c0.95728,1.66747 0.94166,3.64369 1.66667,5.39682c0.60711,1.46803 1.88113,2.7136 2.31342,4.22732c1.14401,4.006 0.55227,9.43745 0.03399,13.37696c-1.21183,0.6788 -2.34131,1.49572 -3.54608,2.18637c3.40113,3.19803 4.69702,8.73381 5.05309,12.66613c0.23908,2.64037 0.11453,6.65629 -1.20111,9.12762c-0.73182,1.37466 -2.22613,2.3427 -3.17743,3.61261c-1.80821,2.41381 -2.88511,5.71872 -2.69425,8.59566c0.12693,1.91331 2.59584,3.18267 3.24987,5.01353c1.66974,4.67415 0.39503,9.31637 -1.96351,13.38449zM278.06761,178.10833c-1.76445,-2.15935 -0.23767,-4.80359 -0.23767,-4.80359l0.90907,-1.54314c1.18953,-1.45749 2.47746,-4.46814 1.64696,-6.38405c-0.46948,-1.08305 -2.06611,-1.57286 -2.62181,-2.62486c-1.2204,-2.31034 -1.47701,-6.18437 -1.1787,-8.70443c0.42123,-3.55842 2.21404,-7.57795 4.35613,-10.54452c0.67275,-0.93169 1.83813,-1.55443 2.4744,-2.50515c1.18492,-1.77052 -0.00485,-5.67292 -0.39839,-7.42665c-0.97878,-4.36177 -7.36057,-7.29332 -6.40241,-12.1283c0.97152,-4.9024 3.54668,-4.79345 7.1067,-5.40701c-2.7864,-0.32909 -0.95979,-4.76935 -1.37897,-6.19987c-0.33441,-1.14126 -1.46956,-2.00472 -1.92545,-3.11399c-0.58142,-1.4147 -0.37961,-3.0503 -1.15925,-4.39159c-0.79607,-1.36956 -2.54409,-2.18391 -3.43348,-3.50971c-0.6451,-0.96162 -0.46564,-2.22399 -1.07091,-3.20484c-1.13205,-1.83451 -4.74891,-1.40605 -6.34187,-2.96285c-1.83597,-1.7943 -3.79599,-3.96539 -3.87371,-6.36177c-0.21253,-6.55278 3.40453,-6.10768 7.81703,-7.69612c6.06395,-2.18295 12.96378,-5.17192 19.60134,-5.76544c3.95842,-0.35396 7.35534,0.6152 11.26739,0.57619c7.22138,0.15113 12.93921,3.36592 19.789,5.05626c13.00669,3.2097 24.9691,8.41364 35.37793,16.29394c4.16575,3.1538 7.33605,7.21999 11.34753,10.4335c2.60426,2.08621 6.3072,2.99385 8.80976,5.1714c2.639,2.29627 4.02138,5.46393 6.04324,8.18969c1.16722,4.68936 1.21093,9.37506 1.7894,14.08467c0.36905,3.00461 -0.7207,6.529 -0.05788,9.47052c0.24287,1.07784 1.16675,1.9816 1.41296,3.05888c2.06853,9.05089 0.80545,19.1795 0.80545,28.42818c0,6.3565 0.3056,13.06082 -2.32232,19.02142c-0.60875,3.33068 -1.63926,6.70383 -1.93035,10.06878c-0.37032,4.28076 -0.33872,7.98753 -2.92486,11.94892c-1.99677,3.05859 -6.42708,4.65381 -8.36193,7.78301c-3.46321,5.60099 -8.00959,11.13669 -12.34212,16.3564c-2.60203,3.13486 -5.81459,5.25783 -7.87919,8.8686c-1.40399,2.45544 -2.45836,5.61394 -3.66687,8.20625c-2.98095,4.30226 -4.54823,10.74986 -8.47391,14.3919c-1.60108,1.4854 -3.51195,3.07676 -5.82387,3.4241c-10.90248,1.638 -8.97501,-6.22387 -14.69807,-10.22056c-5.5006,-3.84134 -10.72635,-7.24762 -16.55194,-10.73648c-2.78772,-1.66953 -5.0625,-3.90403 -7.58093,-5.86841c-4.57921,-3.57178 -9.47265,-6.83185 -14.0886,-10.36799c-4.17019,-3.19466 -8.16257,-6.56027 -12.16404,-9.91283c-1.61657,-1.35441 -3.52381,-2.51974 -4.74292,-4.15669c-1.48898,-1.99932 -3.56057,-4.19967 -3.24009,-6.56246c0.30703,-2.26367 3.24069,-3.59227 4.86104,-5.38841c2.25126,-0.57954 4.34644,-1.55087 6.57425,-2.19478c1.52148,-0.43975 5.77242,-0.73393 7.08571,-1.92474c0.38187,-0.34626 0.23262,-0.94729 0.4832,-1.37409c0.52214,-0.88935 2.63185,-3.57186 3.19626,-4.86823c0.44476,-1.02155 0.46456,-2.18552 1.07775,-3.13943c0.46566,-0.7244 1.60078,-1.00721 2.05649,-1.73633c0.34208,-0.54731 0.05371,-1.24879 0.19106,-1.85965c0.35433,-1.57585 1.66186,-2.90989 2.03434,-4.4826c0.82283,-3.47422 -5.39511,-4.63376 -7.6015,-5.26346c0,0 -4.80806,-1.38785 -3.64041,-5.49757z" fill="#000000"/><path d="M289.00618,162.21756c-0.76189,-1.83086 -3.63538,-3.10515 -3.78325,-5.01846c-0.22234,-2.87694 1.03982,-6.19154 3.14621,-8.60535c1.10818,-1.26991 2.85389,-2.24233 3.70639,-3.61699c1.53259,-2.47133 1.68574,-6.49262 1.40723,-9.13299c-0.41478,-3.93232 -1.92045,-9.47015 -5.88244,-12.66819c1.40343,-0.69065 2.72285,-1.50923 4.13451,-2.18803c0.60374,-3.93952 1.29864,-9.37306 -0.03403,-13.37906c-0.50357,-1.51373 -1.98777,-2.75927 -2.69499,-4.2273c-0.84457,-1.75313 -0.77177,-3.63796 -1.88691,-5.30543c-0.98944,-1.47951 -3.10631,-2.40602 -4.22916,-3.83193c-0.99827,-1.26771 -0.87359,-2.95319 -2.04464,-4.13639c-1.30363,-1.31715 -3.26987,-2.20856 -5.11488,-3.09903c-0.20336,-0.09815 -0.47004,-0.28046 -0.68237,-0.36753c2.31119,-0.72387 4.60367,-1.59694 6.89199,-2.24018c3.08353,-0.86677 6.81747,-1.87933 10.09071,-2.18906c3.57364,-0.33815 7.95139,0.6237 11.56963,0.64622c6.42102,-0.22009 13.58345,3.41735 19.75312,4.73103c13.2852,2.82877 25.49082,7.34219 36.17212,14.2969c4.80427,3.12811 8.45449,7.2089 13.12799,10.37034c2.79594,1.89135 6.81234,2.64119 9.4962,4.62023c1.98471,1.46349 2.87903,3.57193 4.48666,5.27204c1.53156,7.1196 -0.34655,14.64847 1.28787,21.72694c0.24991,1.08234 1.35528,1.98523 1.64823,3.06159c1.97715,7.26443 0.71667,15.54012 0.71667,22.98342c0,6.50442 1.19354,14.1301 -2.2377,20.15419c-0.91969,3.94439 -2.27331,7.96953 -2.69703,11.96545c-0.27326,2.57699 0.20508,5.21052 -1.53613,7.63275c-2.14693,2.98663 -7.60164,4.98761 -10.02081,8.12967c-0.65994,0.85714 -0.716,1.93135 -1.41241,2.77238c-0.49592,0.59891 -1.49615,0.88513 -2.07803,1.43966c-3.7137,3.5391 -6.69214,7.64176 -10.12946,11.25006c-3.60629,3.78569 -7.60421,6.31343 -10.58283,10.71023c-1.51752,2.24004 -2.69604,5.32348 -3.96186,7.70037c-2.54876,3.15777 -4.44237,6.45167 -6.5794,9.77523c-0.21065,0.32761 -0.42606,0.65427 -0.63646,0.98245c-1.40253,-3.25383 -7.51473,-6.36437 -10.18592,-8.04234c-5.34295,-3.3563 -11.02154,-6.42997 -16.79758,-9.36319c-5.18154,-2.63132 -9.82721,-6.48018 -14.58088,-9.48443c-8.07354,-5.10236 -15.73416,-10.32632 -23.39824,-15.76735c-1.05205,-0.74689 -1.87603,-1.43423 -2.54531,-1.969c0.5989,-0.19123 1.29318,-0.45042 1.90715,-0.60234c4.36207,-1.07939 9.61677,-1.6123 13.13934,-4.19563c2.66711,-1.95597 5.81683,-6.93481 7.14791,-9.58799c0.27869,-0.5555 -0.01646,-1.24517 0.38931,-1.75558c0.61693,-0.77604 2.0211,-1.12038 2.54232,-1.93428c1.21019,-1.88973 1.04748,-4.13342 2.00066,-6.10276c0.57174,-1.18125 1.84348,-2.21575 1.98391,-3.46679c0.5105,-4.54784 -2.70724,-9.75403 -7.54806,-12.45842c-1.5924,-0.88961 -3.6781,-1.54071 -5.75557,-2.08017c2.74748,-4.06812 4.23532,-8.73082 2.29024,-13.40497z" data-paper-data="{&quot;noHover&quot;:false,&quot;origItem&quot;:[&quot;Path&quot;,{&quot;applyMatrix&quot;:true,&quot;selected&quot;:true,&quot;segments&quot;:[[[288.77463,175.61747],[2.35855,-4.06812],[1.78338,0.53946],7],[[293.71472,177.69336],[-1.36698,-0.88961],[4.15555,2.70439],7],[[300.18304,190.13033],[0.43824,-4.54784],[-0.12055,1.25103],7],[[298.4779,193.59495],[0.4908,-1.18125],[-0.81825,1.96934],7],[[296.75661,199.69426],[1.03887,-1.88973],[-0.44744,0.8139],7],[[294.57424,201.62858],[0.5296,-0.77604],[-0.34832,0.51041],7],[[294.23903,203.38336],[0.23924,-0.5555],[-1.14265,2.65318],7],[[288.02779,213.04721],[2.28955,-1.95597],[-3.02391,2.58333],7],[[276.74505,217.24023],[3.74458,-1.07939],[-0.52705,0.15193],7],[[275.18823,217.77075],[0.51412,-0.19123],[0.57454,0.53477],7],[[277.37142,219.73828],[-0.90312,-0.74689],[6.57916,5.44103],7],[[297.44023,235.4964],[-6.93065,-5.10236],[4.08074,3.00425],7],[[309.94685,244.97822],[-4.44804,-2.63132],[4.95838,2.93322],7],[[324.3567,254.34048],[-4.5866,-3.3563],[2.29306,1.67797],7],[[333.09574,262.38291],[-1.20399,-3.25383],[0.18062,-0.32818],7],[[333.64176,261.40047],[-0.18083,0.32761],[1.83452,-3.32357],7],[[339.2858,251.6256],[-2.18795,3.15777],[1.08663,-2.3769],7],[[342.68372,243.92568],[-1.3027,2.24004],[2.55697,-4.3968],7],[[351.76002,233.21745],[-3.09579,3.78569],[2.95073,-3.60831],7],[[360.44566,221.97141],[-3.18799,3.5391],[0.49951,-0.55452],7],[[362.22776,220.5327],[-0.42572,0.59891],[0.59783,-0.84104],7],[[363.43818,217.7615],[-0.56652,0.85714],[2.07671,-3.14207],7],[[372.03174,209.63834],[-1.84301,2.98663],[1.49472,-2.42223],7],[[373.34575,202.01042],[-0.23458,2.57699],[0.36374,-3.99593],7],[[375.65427,190.05526],[-0.7895,3.94439],[2.94552,-6.02409],7],[[377.57082,169.92302],[0,6.50442],[0,-7.4433],7],[[376.96332,146.96202],[1.69726,7.26443],[-0.25148,-1.07636],7],[[375.55036,143.90314],[0.21454,1.08234],[-1.40305,-7.07846],7],[[374.45597,122.18692],[1.31476,7.1196],[-1.38005,-1.70011],7],[[370.60851,116.91754],[1.70375,1.46349],[-2.30393,-1.97904],7],[[362.46278,112.30053],[2.40015,1.89135],[-4.01192,-3.16144],7],[[351.20299,101.93364],[4.12417,3.12811],[-9.16926,-6.95471],7],[[320.17192,87.63879],[11.40455,2.82877],[-5.29629,-1.31369],7],[[303.22402,82.90663],[5.51206,-0.22009],[-3.10604,-0.02252],7],[[293.29705,82.25926],[3.06775,-0.33815],[-2.80988,0.30972],7],[[284.63925,84.44691],[2.64702,-0.86677],[-1.96438,0.64324],7],[[278.72598,86.68589],[1.98402,-0.72387],[0.18227,0.08706],7],[[279.26162,86.96333],[-0.17457,-0.09815],[1.58383,0.89047],7],[[283.65365,90.06188],[-1.11908,-1.31715],[1.00528,1.1832],7],[[285.40866,94.19835],[-0.85696,-1.26771],[0.9639,1.42591],7],[[289.03997,98.02995],[-0.84937,-1.47951],[0.95728,1.66747],7],[[290.70664,103.42678],[-0.72501,-1.75313],[0.60711,1.46803],7],[[293.02005,107.6541],[-0.43228,-1.51373],[1.14401,4.006],7],[[293.05404,121.03106],[0.51828,-3.93952],[-1.21183,0.6788],7],[[289.50797,123.21743],[1.20476,-0.69065],[3.40113,3.19803],7],[[294.56106,135.88356],[-0.35607,-3.93232],[0.23908,2.64037],7],[[293.35995,145.01118],[1.31564,-2.47133],[-0.73182,1.37466],7],[[290.18252,148.62379],[0.95131,-1.26991],[-1.80821,2.41381],7],[[287.48827,157.21945],[-0.19086,-2.87694],[0.12693,1.91331],7],[[290.73814,162.23298],[-0.65404,-1.83086],[1.66974,4.67415],7]],&quot;closed&quot;:true}]}" fill="#000000"/></g></g></svg>