<svg version="1.1" xmlns="http://www.w3.org/2000/svg" xmlns:xlink="http://www.w3.org/1999/xlink" width="231.37568" height="251.91467" viewBox="0,0,231.37568,251.91467"><defs><radialGradient cx="298.01111" cy="168.83835" r="26.20934" gradientUnits="userSpaceOnUse" id="color-1"><stop offset="0" stop-color="#a8f2ff"/><stop offset="1" stop-color="#a8f2ff" stop-opacity="0"/></radialGradient><radialGradient cx="302.79547" cy="168.96593" r="42.28731" gradientUnits="userSpaceOnUse" id="color-2"><stop offset="0" stop-color="#a8f2ff"/><stop offset="1" stop-color="#a8f2ff" stop-opacity="0"/></radialGradient><radialGradient cx="279.69943" cy="179.19356" r="42.28732" gradientUnits="userSpaceOnUse" id="color-3"><stop offset="0" stop-color="#a8f2ff"/><stop offset="1" stop-color="#a8f2ff" stop-opacity="0"/></radialGradient><radialGradient cx="274.85339" cy="163.20692" r="42.28732" gradientUnits="userSpaceOnUse" id="color-4"><stop offset="0" stop-color="#a8f2ff"/><stop offset="1" stop-color="#a8f2ff" stop-opacity="0"/></radialGradient><radialGradient cx="325.44961" cy="155.60636" r="26.20934" gradientUnits="userSpaceOnUse" id="color-5"><stop offset="0" stop-color="#a8f2ff"/><stop offset="1" stop-color="#a8f2ff" stop-opacity="0"/></radialGradient><radialGradient cx="330.23397" cy="155.73394" r="42.28732" gradientUnits="userSpaceOnUse" id="color-6"><stop offset="0" stop-color="#a8f2ff"/><stop offset="1" stop-color="#a8f2ff" stop-opacity="0"/></radialGradient><radialGradient cx="307.13794" cy="165.96157" r="42.28732" gradientUnits="userSpaceOnUse" id="color-7"><stop offset="0" stop-color="#a8f2ff"/><stop offset="1" stop-color="#a8f2ff" stop-opacity="0"/></radialGradient><radialGradient cx="334.34427" cy="145.66939" r="42.28732" gradientUnits="userSpaceOnUse" id="color-8"><stop offset="0" stop-color="#a8f2ff"/><stop offset="1" stop-color="#a8f2ff" stop-opacity="0"/></radialGradient><radialGradient cx="320.15655" cy="180.4008" r="26.20933" gradientUnits="userSpaceOnUse" id="color-9"><stop offset="0" stop-color="#a8f2ff"/><stop offset="1" stop-color="#a8f2ff" stop-opacity="0"/></radialGradient><radialGradient cx="324.9409" cy="180.52838" r="42.28732" gradientUnits="userSpaceOnUse" id="color-10"><stop offset="0" stop-color="#a8f2ff"/><stop offset="1" stop-color="#a8f2ff" stop-opacity="0"/></radialGradient><radialGradient cx="301.84487" cy="190.75601" r="42.28732" gradientUnits="userSpaceOnUse" id="color-11"><stop offset="0" stop-color="#a8f2ff"/><stop offset="1" stop-color="#a8f2ff" stop-opacity="0"/></radialGradient><radialGradient cx="301.02358" cy="174.15514" r="42.28732" gradientUnits="userSpaceOnUse" id="color-12"><stop offset="0" stop-color="#c7f7ff"/><stop offset="1" stop-color="#c7f7ff" stop-opacity="0"/></radialGradient><radialGradient cx="365.33341" cy="180.1981" r="42.28732" gradientUnits="userSpaceOnUse" id="color-13"><stop offset="0" stop-color="#a8f2ff"/><stop offset="1" stop-color="#a8f2ff" stop-opacity="0"/></radialGradient><radialGradient cx="352.62559" cy="205.26581" r="42.28732" gradientUnits="userSpaceOnUse" id="color-14"><stop offset="0" stop-color="#a8f2ff"/><stop offset="1" stop-color="#a8f2ff" stop-opacity="0"/></radialGradient><radialGradient cx="399.68196" cy="171.6104" r="42.28732" gradientUnits="userSpaceOnUse" id="color-15"><stop offset="0" stop-color="#a8f2ff"/><stop offset="1" stop-color="#a8f2ff" stop-opacity="0"/></radialGradient><radialGradient cx="366.77346" cy="140.33638" r="42.28733" gradientUnits="userSpaceOnUse" id="color-16"><stop offset="0" stop-color="#a8f2ff"/><stop offset="1" stop-color="#a8f2ff" stop-opacity="0"/></radialGradient><radialGradient cx="306.90596" cy="173.50389" r="47.985" gradientUnits="userSpaceOnUse" id="color-17"><stop offset="0" stop-color="#c7f7ff"/><stop offset="1" stop-color="#c7f7ff" stop-opacity="0"/></radialGradient><radialGradient cx="250.31671" cy="221.40813" r="43.29463" gradientUnits="userSpaceOnUse" id="color-18"><stop offset="0" stop-color="#a8f2ff"/><stop offset="1" stop-color="#a8f2ff" stop-opacity="0"/></radialGradient><radialGradient cx="239.55285" cy="125.251" r="33.72675" gradientUnits="userSpaceOnUse" id="color-19"><stop offset="0" stop-color="#a8f2ff"/><stop offset="1" stop-color="#a8f2ff" stop-opacity="0"/></radialGradient><radialGradient cx="258.9278" cy="86.02272" r="25.59406" gradientUnits="userSpaceOnUse" id="color-20"><stop offset="0" stop-color="#a8f2ff"/><stop offset="1" stop-color="#a8f2ff" stop-opacity="0"/></radialGradient><radialGradient cx="265.14691" cy="280.01135" r="31.09559" gradientUnits="userSpaceOnUse" id="color-21"><stop offset="0" stop-color="#a8f2ff"/><stop offset="1" stop-color="#a8f2ff" stop-opacity="0"/></radialGradient></defs><g transform="translate(-210.83659,-61.42476)"><g data-paper-data="{&quot;isPaintingLayer&quot;:true}" fill-rule="nonzero" stroke="none" stroke-linecap="butt" stroke-linejoin="miter" stroke-miterlimit="10" stroke-dasharray="" stroke-dashoffset="0" style="mix-blend-mode: normal"><path d="M210.83659,313.33942c0,0 0,0 0.00001,0c-0.00001,0.00001 -0.00001,0.00001 -0.00001,0.00001z" fill="#eaeaea" stroke-width="0"/><path d="M323.92046,164.88427c2.66613,9.3508 -6.77255,18.70142 -21.08189,20.8852c-14.30935,2.18378 -28.07068,-3.62623 -30.73681,-12.97703c-2.66613,-9.3508 6.77255,-18.70142 21.0819,-20.88521c14.30935,-2.18378 28.07068,3.62624 30.73681,12.97704z" fill="url(#color-1)" stroke-width="0"/><path d="M344.59878,162.58623c4.30165,15.08699 -10.92714,30.1737 -34.01447,33.69711c-23.08733,3.52341 -45.29048,-5.85073 -49.59213,-20.93771c-4.30165,-15.08699 10.92714,-30.1737 34.01447,-33.69711c23.08733,-3.52341 45.29048,5.85072 49.59213,20.93771z" fill="url(#color-2)" stroke-width="0"/><path d="M321.50275,172.81386c4.30165,15.08699 -10.92714,30.1737 -34.01448,33.69711c-23.08733,3.52341 -45.29047,-5.85073 -49.59213,-20.93772c-4.30166,-15.08699 10.92713,-30.1737 34.01446,-33.69711c23.08733,-3.52341 45.29049,5.85073 49.59215,20.93771z" fill="url(#color-3)" stroke-width="0"/><path d="M316.6567,156.82722c4.30165,15.08699 -10.92715,30.17371 -34.01448,33.69712c-23.08733,3.52341 -45.29047,-5.85073 -49.59213,-20.93772c-4.30166,-15.08699 10.92713,-30.1737 34.01446,-33.69711c23.08733,-3.52341 45.29049,5.85072 49.59215,20.93771z" fill="url(#color-4)" stroke-width="0"/><path d="M351.35897,151.65227c2.66613,9.3508 -6.77256,18.70143 -21.0819,20.88521c-14.30934,2.18378 -28.07067,-3.62623 -30.73681,-12.97703c-2.66613,-9.3508 6.77255,-18.70142 21.08189,-20.8852c14.30934,-2.18378 28.07068,3.62623 30.73681,12.97702z" fill="url(#color-5)" stroke-width="0"/><path d="M372.03729,149.35423c4.30165,15.08699 -10.92715,30.17371 -34.01448,33.69712c-23.08733,3.52341 -45.29048,-5.85073 -49.59213,-20.93772c-4.30165,-15.08699 10.92713,-30.1737 34.01446,-33.69711c23.08733,-3.52341 45.29049,5.85072 49.59215,20.93771z" fill="url(#color-6)" stroke-width="0"/><path d="M348.94125,159.58187c4.30165,15.08699 -10.92715,30.17371 -34.01448,33.69713c-23.08733,3.52341 -45.29048,-5.85074 -49.59213,-20.93772c-4.30165,-15.08699 10.92713,-30.17369 34.01446,-33.6971c23.08733,-3.52341 45.2905,5.85071 49.59215,20.9377z" fill="url(#color-7)" stroke-width="0"/><path d="M376.14758,139.28969c4.30165,15.08699 -10.92715,30.17371 -34.01448,33.69712c-23.08733,3.52341 -45.29048,-5.85073 -49.59213,-20.93772c-4.30165,-15.08699 10.92713,-30.1737 34.01446,-33.69711c23.08733,-3.52341 45.2905,5.85072 49.59215,20.93771z" fill="url(#color-8)" stroke-width="0"/><path d="M346.0659,176.44671c2.66613,9.3508 -6.77256,18.70142 -21.0819,20.8852c-14.30934,2.18378 -28.07068,-3.62623 -30.73681,-12.97702c-2.66613,-9.3508 6.77256,-18.70142 21.0819,-20.8852c14.30934,-2.18378 28.07068,3.62623 30.73681,12.97703z" fill="url(#color-9)" stroke-width="0"/><path d="M366.74421,174.14868c4.30165,15.08699 -10.92714,30.17371 -34.01447,33.69712c-23.08733,3.52341 -45.29048,-5.85073 -49.59213,-20.93772c-4.30165,-15.08699 10.92713,-30.1737 34.01446,-33.69711c23.08733,-3.52341 45.29049,5.85072 49.59214,20.93771z" fill="url(#color-10)" stroke-width="0"/><path d="M343.64818,184.37631c4.30165,15.08699 -10.92714,30.17371 -34.01448,33.69712c-23.08733,3.52341 -45.29048,-5.85073 -49.59213,-20.93772c-4.30166,-15.08699 10.92714,-30.1737 34.01447,-33.69711c23.08733,-3.52341 45.29048,5.85072 49.59214,20.93771z" fill="url(#color-11)" stroke-width="0"/><path d="M342.82689,167.77544c4.30165,15.08699 -10.92714,30.17371 -34.01448,33.69712c-23.08733,3.52341 -45.29048,-5.85073 -49.59213,-20.93772c-4.30166,-15.08699 10.92713,-30.1737 34.01446,-33.69711c23.08733,-3.52341 45.29049,5.85072 49.59215,20.93771z" fill="url(#color-12)" stroke-width="0"/><path d="M407.13673,173.8184c4.30165,15.08699 -10.92715,30.1737 -34.01448,33.69711c-23.08733,3.52341 -45.29048,-5.85073 -49.59213,-20.93772c-4.30165,-15.08699 10.92714,-30.1737 34.01447,-33.69711c23.08733,-3.52341 45.29049,5.85073 49.59214,20.93771z" fill="url(#color-13)" stroke-width="0"/><path d="M394.4289,198.88611c4.30165,15.08699 -10.92714,30.17371 -34.01448,33.69713c-23.08733,3.52341 -45.29047,-5.85073 -49.59213,-20.93772c-4.30165,-15.08699 10.92713,-30.17369 34.01446,-33.6971c23.08733,-3.52341 45.29049,5.85072 49.59214,20.9377z" fill="url(#color-14)" stroke-width="0"/><path d="M441.48527,165.2307c4.30165,15.08699 -10.92714,30.17371 -34.01448,33.69713c-23.08733,3.52341 -45.29048,-5.85073 -49.59213,-20.93772c-4.30165,-15.08699 10.92714,-30.1737 34.01447,-33.69711c23.08733,-3.52341 45.29049,5.85072 49.59214,20.93771z" fill="url(#color-15)" stroke-width="0"/><path d="M408.57678,133.95668c4.30165,15.08699 -10.92715,30.17371 -34.01448,33.69712c-23.08733,3.52341 -45.29048,-5.85073 -49.59213,-20.93772c-4.30165,-15.08699 10.92713,-30.1737 34.01446,-33.69711c23.08733,-3.52341 45.2905,5.85072 49.59215,20.93771z" fill="url(#color-16)" stroke-width="0"/><path d="M395.91271,138.84206c0.04642,0.40934 -0.35862,0.3295 -0.35862,0.3295l-0.28555,-0.05628c-0.69121,-0.21225 -0.62757,0.41278 -0.10864,0.79706c0,0 0.36279,0.29347 0.17676,0.58979c-0.18603,0.29632 -0.54884,0.00282 -0.54884,0.00282c-0.53435,-0.45499 -0.80521,-0.97448 -0.81926,-1.39752l-0.82286,-0.35971c-0.1846,0.10039 -0.41688,0.17193 -0.70047,0.21385c0,0 -0.36958,0.05372 -0.54172,-0.35985c-0.17214,-0.41357 0.19744,-0.46729 0.19744,-0.46729c0.17219,-0.02454 0.31518,-0.05957 0.43075,-0.10749c-0.40188,-0.36087 -0.77599,-0.78333 -1.09608,-1.19921c-0.15288,0.14523 -0.35634,0.23593 -0.58474,0.27128c0.02094,0.1604 0.03599,0.32105 0.04366,0.48198c0.06654,-0.07773 0.19116,-0.14048 0.41405,-0.02587c0.39896,0.20518 0.3149,0.56826 0.3149,0.56826l-0.12364,0.48265c-0.2115,0.19436 -0.48417,0.34716 -0.7725,0.42497c-0.10633,0.46179 -0.21963,0.91288 -0.20446,1.42342c0.12372,0.09093 0.25876,0.19682 0.40757,0.31719l0.38579,0.40814c0,0 0.31924,0.34586 0.06566,0.57887c-0.25355,0.233 -0.57281,-0.11289 -0.57281,-0.11289l-0.25076,-0.28154c-0.08661,-0.07005 -0.16438,-0.17507 -0.24078,-0.27922c-0.03725,0.00339 -0.08045,0.00101 -0.13057,-0.00886c-0.21899,-0.04317 -0.33314,-0.18259 -0.39184,-0.30162c-0.13321,0.10519 -0.12702,0.4067 -0.22575,0.56594c0,0 -0.18603,0.29632 -0.54882,0.00285c-0.36279,-0.29347 -0.17672,-0.58979 -0.17672,-0.58979c0.31823,-0.50159 0.5611,-0.72517 0.87644,-0.69898c0.0163,-0.36911 0.08481,-0.70573 0.15813,-1.04201c-0.40492,-0.14863 -0.7473,-0.53026 -0.88227,-1.25128c0,0 -0.04643,-0.40934 0.35862,-0.32951c0.40505,0.07983 0.45148,0.48917 0.45148,0.48917c-0.02247,0.24933 0.07484,0.35451 0.2162,0.37953c0.03937,-0.24242 0.0653,-0.49538 0.06224,-0.76939c-0.00193,-0.17124 -0.0136,-0.34233 -0.03312,-0.51338c-0.34184,-0.11607 -0.67814,-0.33528 -0.94486,-0.65946c-0.02267,0.02432 -0.04092,0.03663 -0.04092,0.03663c-0.10826,0.07269 -0.21826,0.14198 -0.3295,0.20892c0.03697,0.00896 0.07321,0.01641 0.10833,0.02223c0,0 0.40505,0.07983 0.45147,0.48916c0.04642,0.40934 -0.35862,0.3295 -0.35862,0.3295c-0.34894,-0.07591 -0.68701,-0.21139 -0.9892,-0.39984c-0.1293,0.06977 -0.25876,0.13959 -0.38767,0.21108c0.10441,0.34775 -0.04002,0.78926 -0.3947,1.35411c0,0 -0.18603,0.29632 -0.54883,0.00282c-0.36279,-0.29347 -0.17675,-0.58979 -0.17675,-0.58979c0.07691,-0.12249 0.28117,-0.27619 0.44799,-0.41173c-0.09425,-0.00822 -0.20948,-0.05681 -0.33311,-0.19466c-0.06539,-0.0729 -0.10594,-0.14044 -0.12914,-0.20171c-0.14806,-0.01917 -0.29806,-0.04185 -0.45406,-0.07259l-0.45915,-0.34873c0,0 -0.31924,-0.34586 -0.06566,-0.57888c0.25355,-0.233 0.57281,0.11289 0.57281,0.11289l-0.14089,-0.00391c0.38842,0.07653 0.70644,0.16636 0.95845,0.27281c0.12617,-0.07177 0.25323,-0.14125 0.38045,-0.20999c-0.22558,-0.29682 -0.38533,-0.64577 -0.44988,-1.03907l0.13559,-0.08153c-0.10077,-0.1013 -0.14925,-0.21778 -0.14925,-0.21778c-0.06177,-0.15153 -0.12897,-0.28933 -0.19583,-0.41616c-0.64171,-0.11329 -1.27914,-0.27682 -1.90112,-0.59027c0,0 -0.07941,-0.04084 -0.15993,-0.11837c-0.16506,0.24404 -0.38949,0.44334 -0.69579,0.60831c0,0 -0.31126,0.16063 -0.5746,-0.22422c-0.26331,-0.38486 0.04793,-0.54552 0.04793,-0.54552c0.43055,-0.20939 0.57546,-0.57461 0.84186,-0.96077l-0.34748,-0.30063c0,0 -0.31924,-0.34586 -0.06566,-0.57887c0.25355,-0.233 0.57281,0.1129 0.57281,0.1129l0.60738,0.7339c-0.02627,0.19007 -0.06053,0.36522 -0.10585,0.52667c0.02924,0.01112 0.04732,0.02042 0.04732,0.02042c0.40321,0.21293 0.84838,0.36027 1.30918,0.4707c-0.07166,-0.27036 0.00691,-0.50746 0.40318,-0.79186l0.17494,0.0018c0.0118,-0.08962 0.02944,-0.1725 0.05304,-0.24863l-0.55912,-0.40799c0,0 -0.10583,-0.07724 -0.18068,-0.19699c-0.42907,-0.0285 -0.93936,-0.26871 -1.40448,-0.74359c0,0 -0.31924,-0.34586 -0.06566,-0.57887c0.25355,-0.233 0.57281,0.11289 0.57281,0.11289c0.56991,0.683 1.37892,0.48805 0.9755,-0.38565l-0.20226,-0.16553c0,0 -0.31925,-0.34586 -0.06566,-0.57887c0.25355,-0.233 0.57281,0.11289 0.57281,0.11289l0.4343,0.52414c0.26508,0.681 0.1932,1.17272 -0.06839,1.44839l0.39672,0.28968c0.01227,0.00969 0.02452,0.01934 0.03667,0.02887c0.08927,-0.04333 0.19049,-0.07406 0.30394,-0.09232c-0.01017,-0.13532 0.0535,-0.22774 0.0535,-0.22774c0.39944,-0.57944 0.92857,-1.19771 1.50226,-1.04098c0.0057,-0.40637 0.00532,-0.81416 -0.02546,-1.22966c-0.08169,-0.07421 -0.15406,-0.18358 -0.17211,-0.34289c-0.0076,-0.0672 -0.00307,-0.12126 0.00984,-0.16462c-0.16664,-0.12109 -0.33236,-0.21317 -0.49685,-0.23643c0,0 -0.40505,-0.07983 -0.45148,-0.48917c-0.04642,-0.40934 0.35862,-0.3295 0.35862,-0.3295c0.38041,0.08689 0.78005,0.29916 1.12182,0.5704c0.18168,0.14419 0.47825,0.68735 0.49701,0.49614c0.02972,-0.30329 0.04207,-0.61753 0.12673,-0.89417l-0.02809,0.00202c0,0 -0.04643,-0.40934 0.35862,-0.3295c0.40505,0.07983 0.45148,0.48917 0.45148,0.48917l0.00466,0.29059c-0.02635,0.08595 -0.34166,1.21095 -0.46799,1.24553c-0.1662,0.04546 -0.3321,0.00853 -0.49746,-0.07392c0.03743,0.59181 0.01287,1.16863 0.00264,1.74936c0.0796,0.13561 0.15928,0.29155 0.23889,0.46967l0.0682,0.42212c0,0 0.0403,0.35508 -0.28146,0.33934c0.00745,0.09397 0.01658,0.18839 0.02765,0.2833c0.19758,-0.0714 0.40575,-0.11279 0.6161,-0.11953c-0.02114,-0.02387 -0.04218,-0.05077 -0.06289,-0.08106c-0.26331,-0.38486 0.04793,-0.54552 0.04793,-0.54552l0.33964,-0.16518c0.44297,-0.66817 0.97036,-0.74484 1.40023,-0.4541c0.14442,-0.0895 0.29285,-0.17134 0.44072,-0.24701l0.3533,-0.05436c-0.02726,-0.11622 -0.04919,-0.24146 -0.06583,-0.37585c0,0 -0.04643,-0.40934 0.35862,-0.32951c0.40505,0.07983 0.45148,0.48917 0.45148,0.48917c0.06163,0.61944 0.03472,0.70042 0.59627,0.46484l0.15621,-0.17637c0,0 0.25355,-0.233 0.57281,0.11289c0.31924,0.34586 0.06566,0.57888 0.06566,0.57888l-0.34937,0.28823c-0.60482,0.16591 -1.0685,0.0911 -1.38525,-0.23474l-0.3146,0.04237c-0.09941,0.05194 -0.204,0.10949 -0.30909,0.17287c0.11291,0.25105 0.19369,0.54366 0.22984,0.86256c0,0 0.04643,0.40934 -0.35862,0.32951c-0.40505,-0.07983 -0.45148,-0.48917 -0.45148,-0.48917c-0.00965,-0.08496 -0.0199,-0.1642 -0.03103,-0.23723c-0.15907,0.16123 -0.2883,0.344 -0.35981,0.5502c0.18963,0.17625 0.36099,0.40236 0.50407,0.6837c-0.03623,-0.39431 0.35996,-0.31623 0.35996,-0.31623l0.4283,0.08439c1.0904,0.36161 1.2208,0.96221 0.9876,1.58001c0.32766,0.07763 0.6559,0.15117 0.98486,0.21847c0.1154,-0.18922 0.34373,-0.33215 0.71262,-0.40254l0.60993,0.78193c0,0 0.04643,0.40934 -0.35862,0.3295c-0.10802,-0.0213 -0.19052,-0.06601 -0.25347,-0.12014c-0.06404,0.22019 0.35103,0.61122 0.69953,0.88547c0,0 0.36279,0.29346 0.17675,0.58979c-0.18603,0.29632 -0.54883,0.00282 -0.54883,0.00282c-0.47376,-0.39103 -0.85343,-0.84778 -1.02739,-1.26411c-0.47234,-0.09458 -0.94002,-0.19223 -1.40538,-0.29444c-0.01038,0.0134 -0.13318,0.16469 -0.3439,0.09803l-0.00052,0.03059c0.27055,0.66533 0.38507,1.2102 0.30774,1.62755c0.03333,0.01868 0.06671,0.03655 0.1,0.05357l0.03967,0.05247l0.0101,-0.01614l0.42926,0.34726c0.20183,-0.14511 0.50534,-0.2091 0.90873,-0.15081l0.28555,0.05628c0,0 0.40505,0.07983 0.45148,0.48917zM387.72121,135.53519c0.01598,0.14107 -0.02161,0.22404 -0.07778,0.27223c0.04035,0.09213 0.09777,0.17842 0.16719,0.25794c0.23035,-0.12809 0.45737,-0.26153 0.67671,-0.40959c0,0 0.08474,-0.05706 0.20855,-0.04998c-0.07701,-0.23104 -0.11224,-0.45461 -0.1122,-0.66732c-0.39195,-0.07237 -0.7867,-0.12414 -1.18168,-0.17845c0.03569,0.06169 0.06727,0.12238 0.0919,0.18064c0,0 0.04934,0.11857 0.03846,0.23701c0.08834,0.07424 0.16958,0.1874 0.18888,0.35751zM388.44655,133.11612c-0.02725,-0.00536 -0.0529,-0.01226 -0.07702,-0.02038c0.22035,0.19199 0.42389,0.40499 0.61905,0.68203c0.06386,-0.08118 0.13401,-0.15711 0.20933,-0.22735c-0.12687,-0.6512 -0.14609,-1.27347 -0.14179,-1.88895c-0.23698,-0.15682 -0.44425,0.25715 -0.63783,0.60138l0.38686,0.52376c0,0 0.04643,0.40934 -0.35862,0.32951zM387.52477,133.80381c0,0 0.01423,0.12534 -0.04172,0.22381c0.319,0.04508 0.6335,0.08579 0.93518,0.13128c-0.23854,-0.38545 -0.55172,-0.62876 -0.90231,-0.87362c-0.02299,0.13196 -0.01861,0.30303 0.00884,0.51856zM393.23977,134.76599l-0.42829,-0.08439c0,0 -0.19254,-0.03793 -0.32732,-0.19567c0.02308,0.22796 0.02434,0.43146 0.01953,0.62909c0.25432,0.06686 0.50881,0.13329 0.76358,0.19825c0.21262,-0.29632 0.40471,-0.64899 -0.0275,-0.54728zM392.64097,136.49016l-0.0682,-0.42212c0,0 -0.00373,-0.03284 0.00013,-0.07804c-0.02708,-0.00649 -0.05416,-0.01297 -0.08126,-0.01949c0.00138,0.03112 0.00309,0.06267 0.00521,0.09468l-0.43813,0.44974c0.24976,0.32245 0.54413,0.64733 0.85765,0.92888c-0.00649,-0.24006 -0.10302,-0.55191 -0.27539,-0.95362zM391.68757,134.3909c-0.17816,-0.81894 -0.9862,-0.68221 -1.57302,-0.24753c0.03308,0.12839 0.06767,0.25634 0.10317,0.38394c0.49217,0.1179 0.98425,0.24509 1.47683,0.37447c0.00891,-0.15977 0.01515,-0.3237 -0.00696,-0.51085zM390.48009,135.44541c0.07808,0.27584 0.15263,0.55074 0.21667,0.82549c0.20056,-0.07186 0.30154,-0.29896 0.15527,-0.72203c-0.12377,-0.03393 -0.24773,-0.06841 -0.37191,-0.10346zM389.63818,135.19983c-0.05188,-0.01561 -0.10382,-0.03136 -0.15581,-0.0472c-0.0006,-0.00018 -0.00125,-0.00037 -0.00185,-0.00055c0.00336,0.34499 0.16268,0.63182 0.3742,0.83203c-0.06553,-0.2608 -0.14002,-0.5221 -0.21655,-0.78427z" fill="#a8f2ff" stroke-width="0.5"/><path d="M412.60234,202.39289c0.14579,0.2786 -0.16453,0.33334 -0.16453,0.33334l-0.21878,0.03858c-0.55051,0.03928 -0.33305,0.4667 0.14219,0.59732c0,0 0.33908,0.10898 0.28827,0.37116c-0.05082,0.26218 -0.38992,0.15317 -0.38992,0.15317c-0.5057,-0.17672 -0.84159,-0.47193 -0.96811,-0.7692l-0.68484,-0.02943c-0.10376,0.12231 -0.24942,0.2372 -0.43974,0.34515c0,0 -0.24829,0.14003 -0.48474,-0.10696c-0.23645,-0.24699 0.01184,-0.38702 0.01184,-0.38702c0.11582,-0.0649 0.20796,-0.12921 0.27703,-0.19516c-0.38548,-0.1462 -0.76815,-0.3439 -1.11055,-0.55179c-0.06883,0.1455 -0.18868,0.26609 -0.34154,0.35417c0.05909,0.10841 0.11405,0.21864 0.16383,0.33108c0.02596,-0.07366 0.09738,-0.15265 0.28762,-0.13245c0.34052,0.03618 0.38068,0.31778 0.38068,0.31778l0.04492,0.37764c-0.09703,0.19661 -0.24905,0.38048 -0.43287,0.51528c0.05149,0.35802 0.09509,0.71034 0.2465,1.06959c0.11312,0.03066 0.23841,0.06884 0.37749,0.11354l0.38704,0.18429c0,0 0.32251,0.15828 0.20617,0.39399c-0.11632,0.2357 -0.43885,0.0774 -0.43885,0.0774l-0.25605,-0.13135c-0.08095,-0.02602 -0.16523,-0.07935 -0.24831,-0.13245c-0.02558,0.01268 -0.05699,0.02288 -0.09539,0.02965c-0.16778,0.02958 -0.28744,-0.03822 -0.36201,-0.10679c-0.06586,0.11157 0.02159,0.3245 -0.00483,0.46505c0,0 -0.05081,0.26217 -0.38989,0.15318c-0.33908,-0.10899 -0.28825,-0.37118 -0.28825,-0.37118c0.08838,-0.44471 0.19969,-0.67075 0.43139,-0.73896c-0.09006,-0.26725 -0.134,-0.52574 -0.17443,-0.78532c-0.32918,0.00572 -0.67803,-0.17166 -0.97269,-0.64775c0,0 -0.14579,-0.2786 0.16454,-0.33333c0.31033,-0.05473 0.45612,0.22387 0.45612,0.22387c0.05267,0.18368 0.15091,0.23175 0.25844,0.21062c-0.03875,-0.18341 -0.08996,-0.37063 -0.1676,-0.56484c-0.04854,-0.12137 -0.10397,-0.23994 -0.16498,-0.35634c-0.27531,0.01153 -0.57508,-0.0519 -0.85424,-0.20921c-0.00944,0.02356 -0.01904,0.03734 -0.01904,0.03734c-0.05705,0.08157 -0.11626,0.16118 -0.17701,0.23948c0.02879,-0.0038 0.05663,-0.00847 0.08323,-0.01401c0,0 0.31033,-0.05473 0.45612,0.22387c0.14579,0.2786 -0.16454,0.33333 -0.16454,0.33333c-0.2693,0.04206 -0.54728,0.03874 -0.8143,-0.01218c-0.07283,0.08528 -0.14576,0.17064 -0.21783,0.25703c0.1701,0.21879 0.18889,0.57287 0.09198,1.07265c0,0 -0.05081,0.26218 -0.38992,0.15317c-0.33908,-0.10899 -0.28827,-0.37117 -0.28827,-0.37117c0.02102,-0.10838 0.12409,-0.27404 0.20551,-0.41648c-0.06936,0.02011 -0.16477,0.01725 -0.29075,-0.04683c-0.06663,-0.03389 -0.11409,-0.0708 -0.14748,-0.10802c-0.11068,0.02713 -0.2237,0.05231 -0.34322,0.07338l-0.42291,-0.12179c0,0 -0.32251,-0.15828 -0.20617,-0.39399c0.11632,-0.2357 0.43885,-0.0774 0.43885,-0.0774l-0.10137,0.03602c0.29758,-0.0525 0.54871,-0.07615 0.75742,-0.06978c0.07005,-0.08584 0.14136,-0.1703 0.21299,-0.25427c-0.24233,-0.14916 -0.45216,-0.35356 -0.60644,-0.61576l0.07407,-0.09539c-0.09963,-0.04435 -0.16622,-0.11393 -0.16622,-0.11393c-0.08571,-0.09085 -0.1715,-0.17045 -0.25403,-0.24232c-0.48801,0.09609 -0.98682,0.15524 -1.51591,0.10342c0,0 -0.06778,-0.0072 -0.14644,-0.04022c-0.05028,0.21919 -0.15516,0.42288 -0.32777,0.62467c0,0 -0.17733,0.20008 -0.47078,-0.00135c-0.29344,-0.20144 -0.11613,-0.40154 -0.11613,-0.40154c0.24882,-0.26764 0.25139,-0.56755 0.33467,-0.91581l-0.33015,-0.11829c0,0 -0.32252,-0.15829 -0.20618,-0.394c0.11632,-0.2357 0.43886,-0.0774 0.43886,-0.0774l0.6345,0.35515c0.03366,0.14254 0.05751,0.27665 0.06971,0.40407c0.02388,-0.00014 0.03931,0.0015 0.03931,0.0015c0.34568,0.04053 0.70315,0.0228 1.06159,-0.02551c-0.12548,-0.17272 -0.13485,-0.36314 0.06892,-0.67475l0.12503,-0.0469c-0.01628,-0.06705 -0.02655,-0.1309 -0.03072,-0.19159l-0.51039,-0.13644c0,0 -0.09661,-0.02584 -0.18287,-0.09046c-0.31329,0.09789 -0.7427,0.06744 -1.20459,-0.1425c0,0 -0.32252,-0.15828 -0.20617,-0.39399c0.11632,-0.2357 0.43886,-0.0774 0.43886,-0.0774c0.59381,0.32924 1.11603,-0.03236 0.58821,-0.5432l-0.18957,-0.06212c0,0 -0.32251,-0.15828 -0.20617,-0.39399c0.11632,-0.2357 0.43885,-0.0774 0.43885,-0.0774l0.45352,0.2535c0.37626,0.41177 0.46053,0.78161 0.35024,1.04989l0.36219,0.09694c0.0114,0.00351 0.02278,0.00702 0.03406,0.01045c0.05161,-0.05543 0.1152,-0.10519 0.19094,-0.14944c-0.04451,-0.09353 -0.02464,-0.17686 -0.02464,-0.17686c0.12476,-0.5225 0.33114,-1.10836 0.78269,-1.15479c-0.10787,-0.29085 -0.22044,-0.58103 -0.35679,-0.86834c-0.07859,-0.03033 -0.16024,-0.08825 -0.21696,-0.19668c-0.02391,-0.04574 -0.03559,-0.08548 -0.03834,-0.1199c-0.15198,-0.0403 -0.2953,-0.06021 -0.41881,-0.03147c0,0 -0.31033,0.05473 -0.45612,-0.22387c-0.14579,-0.2786 0.16454,-0.33333 0.16454,-0.33333c0.29473,-0.04292 0.63768,-0.00188 0.95568,0.09707c0.16904,0.05261 0.52977,0.35758 0.49045,0.2163c-0.06238,-0.22409 -0.14013,-0.45118 -0.15606,-0.67143l-0.01944,0.00917c0,0 -0.14579,-0.2786 0.16453,-0.33334c0.31033,-0.05473 0.45612,0.22387 0.45612,0.22387l0.08336,0.20557c0.00492,0.06844 0.09031,0.95614 0.0099,1.01554c-0.10579,0.07813 -0.23406,0.09754 -0.37448,0.08439c0.18964,0.41098 0.33103,0.82836 0.48369,1.24457c0.09402,0.07462 0.19369,0.16367 0.29941,0.26855l0.16481,0.28171c0,0 0.12648,0.24167 -0.1069,0.31908c0.03119,0.06484 0.06369,0.12955 0.09771,0.19406c0.12098,-0.10525 0.25778,-0.19204 0.40566,-0.25478c-0.02162,-0.01117 -0.04401,-0.02453 -0.0671,-0.04038c-0.29344,-0.20144 -0.11613,-0.40154 -0.11613,-0.40154l0.19627,-0.21113c0.1313,-0.59765 0.48563,-0.79749 0.87171,-0.70891c0.07815,-0.10349 0.16128,-0.20262 0.2457,-0.29722l0.23653,-0.136c-0.05141,-0.07523 -0.10152,-0.15834 -0.15038,-0.24943c0,0 -0.14579,-0.2786 0.16453,-0.33334c0.31033,-0.05473 0.45612,0.22387 0.45612,0.22387c0.21448,0.42398 0.21763,0.48904 0.55248,0.16667l0.06263,-0.16857c0,0 0.11633,-0.2357 0.43886,-0.0774c0.32252,0.15828 0.20618,0.394 0.20618,0.394l-0.16932,0.3014c-0.38485,0.28468 -0.73554,0.35914 -1.05076,0.21442l-0.21228,0.11681c-0.05646,0.06435 -0.11506,0.13412 -0.17241,0.20819c0.14952,0.14762 0.28761,0.33367 0.40118,0.55072c0,0 0.14579,0.2786 -0.16454,0.33333c-0.31033,0.05473 -0.45612,-0.22387 -0.45612,-0.22387c-0.03027,-0.05783 -0.05939,-0.11141 -0.08742,-0.16033c-0.06883,0.15859 -0.1105,0.32429 -0.1046,0.49077c0.18354,0.07324 0.36779,0.18699 0.54714,0.34786c-0.1344,-0.27072 0.16914,-0.32425 0.16914,-0.32425l0.32814,-0.05789c0.87581,-0.04291 1.13405,0.34873 1.13821,0.85274c0.25463,-0.03498 0.50855,-0.07304 0.76126,-0.11573c0.03003,-0.16648 0.1532,-0.33112 0.39641,-0.48283l0.64955,0.38865c0,0 0.1458,0.2786 -0.16453,0.33333c-0.08276,0.01459 -0.15381,0.00548 -0.21353,-0.01571c0.01506,0.17438 0.41823,0.33842 0.74185,0.43767c0,0 0.33908,0.10898 0.28827,0.37116c-0.05082,0.26218 -0.38992,0.15317 -0.38992,0.15317c-0.44495,-0.14788 -0.84103,-0.36845 -1.07953,-0.61691c-0.36229,0.06277 -0.72211,0.12206 -1.08154,0.17747c-0.0037,0.01239 -0.04944,0.15391 -0.21781,0.1645l0.00805,0.02192c0.37584,0.39911 0.60743,0.75544 0.66733,1.07383c0.02888,0.00412 0.05755,0.00765 0.08594,0.01059l0.04269,0.02642l0.00275,-0.01427l0.40121,0.12898c0.10371,-0.15889 0.30214,-0.28803 0.60535,-0.35764l0.21877,-0.03858c0,0 0.31033,-0.05473 0.45612,0.22388zM405.86033,202.29497c0.05023,0.09602 0.04633,0.16544 0.01961,0.21522c0.0541,0.05447 0.11874,0.10008 0.19006,0.13757c0.1287,-0.15462 0.25355,-0.31215 0.36891,-0.47795c0,0 0.04461,-0.06396 0.1347,-0.09302c-0.11845,-0.14326 -0.20511,-0.29271 -0.26367,-0.44414c-0.29895,0.05644 -0.59421,0.12831 -0.89034,0.19843c0.0424,0.03409 0.08158,0.06859 0.11516,0.10327c0,0 0.06778,0.07082 0.09266,0.15813c0.08334,0.02851 0.17234,0.08669 0.23293,0.20248zM405.71041,200.37315c-0.02087,0.00369 -0.04103,0.00585 -0.06044,0.00671c0.20974,0.07598 0.4133,0.17155 0.62853,0.31501c0.0231,-0.07538 0.05212,-0.14875 0.08639,-0.2195c-0.26967,-0.42862 -0.45474,-0.8663 -0.62119,-1.30562c-0.21189,-0.04636 -0.24542,0.3054 -0.28841,0.60377l0.41965,0.2663c0,0 0.14579,0.2786 -0.16454,0.33333zM405.24364,201.11658c0,0 0.04465,0.08531 0.03194,0.17082c0.2395,-0.05577 0.47459,-0.11341 0.70188,-0.16411c-0.27597,-0.20869 -0.56593,-0.29564 -0.88294,-0.37338c0.01998,0.10027 0.07022,0.22085 0.14912,0.36671zM409.57694,200.22747l-0.32813,0.05788c0,0 -0.14751,0.02603 -0.2869,-0.04914c0.07922,0.15592 0.13616,0.30044 0.18717,0.44245c0.19946,-0.02245 0.39892,-0.04526 0.59817,-0.06918c0.06974,-0.26949 0.10935,-0.57345 -0.1703,-0.38201zM409.62555,201.61977l-0.16481,-0.28171c0,0 -0.0117,-0.02235 -0.02141,-0.05559c-0.02106,0.00284 -0.04213,0.00569 -0.06321,0.00851c0.00956,0.02177 0.01946,0.04377 0.02979,0.06596l-0.18802,0.44083c0.26661,0.16075 0.56563,0.31094 0.86636,0.42502c-0.07074,-0.1691 -0.22534,-0.36451 -0.45868,-0.60299zM408.36868,200.38797c-0.35238,-0.5339 -0.88994,-0.21402 -1.18796,0.25703c0.05891,0.08228 0.11877,0.16385 0.17919,0.2449c0.38283,-0.05163 0.76816,-0.09661 1.15444,-0.14018c-0.03767,-0.11618 -0.07836,-0.2346 -0.14565,-0.36174zM407.79955,201.47121c0.13155,0.17485 0.26034,0.35001 0.38159,0.52796c0.12298,-0.10639 0.13231,-0.29587 -0.08833,-0.55676c-0.09745,0.00994 -0.19519,0.01953 -0.29324,0.02878zM407.13259,201.52827c-0.04123,0.00317 -0.08254,0.00627 -0.12391,0.00931c-0.00048,0.00004 -0.00099,0.00008 -0.00147,0.00012c0.09741,0.24466 0.28982,0.40496 0.49554,0.48922c-0.11848,-0.1676 -0.24347,-0.3331 -0.37016,-0.49866z" fill="#a8f2ff" stroke-width="0.5"/><path d="M300.96837,115.834c0.14142,0.24705 -0.13745,0.30718 -0.13745,0.30718l-0.1966,0.04239c-0.49668,0.05437 -0.28533,0.4336 0.14907,0.53551c0,0 0.31048,0.08699 0.27348,0.32591c-0.037,0.23892 -0.3475,0.15191 -0.3475,0.15191c-0.46353,-0.14256 -0.7775,-0.39815 -0.90212,-0.66275l-0.62056,-0.0032c-0.08968,0.1142 -0.21753,0.22312 -0.38602,0.32729c0,0 -0.21983,0.13517 -0.44218,-0.08018c-0.22235,-0.21535 -0.00253,-0.35053 -0.00253,-0.35053c0.10256,-0.06267 0.18371,-0.12401 0.24394,-0.18603c-0.35373,-0.11908 -0.70668,-0.28483 -1.02355,-0.46119c-0.05729,0.13398 -0.16159,0.24718 -0.29686,0.33209c0.05717,0.09606 0.11064,0.19389 0.15953,0.29391c0.02097,-0.06752 0.08288,-0.14142 0.25567,-0.12967c0.30929,0.02108 0.35525,0.27446 0.35525,0.27446l0.05356,0.34009c-0.08105,0.18119 -0.21228,0.35273 -0.37397,0.48097c0.05884,0.32213 0.11032,0.63937 0.25959,0.95919c0.10338,0.02387 0.21803,0.05412 0.34539,0.0898l0.35644,0.15347c0,0 0.29718,0.13216 0.2,0.34938c-0.09717,0.21721 -0.39437,0.08503 -0.39437,0.08503l-0.23612,-0.11007c-0.07412,-0.02077 -0.15219,-0.06613 -0.22917,-0.11133c-0.02271,0.01234 -0.05078,0.02265 -0.08528,0.03009c-0.15077,0.03251 -0.26134,-0.02475 -0.33114,-0.08422c-0.05576,0.10318 0.03064,0.29282 0.01154,0.42088c0,0 -0.037,0.23891 -0.34749,0.15192c-0.31048,-0.087 -0.27346,-0.32593 -0.27346,-0.32593c0.06474,-0.40534 0.15771,-0.61363 0.36498,-0.68327c-0.09061,-0.23868 -0.13922,-0.47103 -0.18467,-0.70448c-0.2976,0.01643 -0.61925,-0.13209 -0.90211,-0.55271c0,0 -0.14143,-0.24705 0.13744,-0.30719c0.27887,-0.06013 0.4203,0.18693 0.4203,0.18693c0.05393,0.16437 0.14445,0.20449 0.24101,0.1817c-0.04133,-0.1646 -0.09406,-0.33221 -0.17094,-0.50526c-0.04806,-0.10814 -0.10227,-0.21351 -0.16144,-0.31672c-0.24867,0.01984 -0.52203,-0.02727 -0.77996,-0.16004c-0.00774,0.02164 -0.01595,0.03443 -0.01595,0.03443c-0.04882,0.07574 -0.09966,0.14979 -0.15195,0.2227c0.02591,-0.00443 0.05095,-0.00961 0.07482,-0.01552c0,0 0.27887,-0.06012 0.42029,0.18693c0.14142,0.24705 -0.13745,0.30718 -0.13745,0.30718c-0.24219,0.04727 -0.49378,0.05377 -0.73708,0.01684c-0.06297,0.07964 -0.12602,0.15936 -0.18827,0.23998c0.16136,0.19211 0.19048,0.51179 0.11991,0.96724c0,0 -0.037,0.23892 -0.34751,0.15191c-0.31048,-0.087 -0.27348,-0.32592 -0.27348,-0.32592c0.0153,-0.09877 0.10288,-0.25217 0.17167,-0.38381c-0.06206,0.02056 -0.14847,0.02125 -0.26463,-0.03242c-0.06144,-0.02838 -0.10563,-0.06014 -0.13712,-0.09268c-0.0992,0.02833 -0.20058,0.05497 -0.30798,0.07813l-0.38676,-0.09571c0,0 -0.29718,-0.13216 -0.19999,-0.34938c0.09717,-0.21721 0.39437,-0.08503 0.39437,-0.08503l-0.09048,0.03606c0.26741,-0.05767 0.49378,-0.08766 0.68282,-0.08904c0.06043,-0.08005 0.12206,-0.1589 0.18399,-0.23731c-0.22433,-0.12666 -0.42114,-0.30439 -0.56968,-0.53631l0.06374,-0.08883c-0.09165,-0.03672 -0.15427,-0.09738 -0.15427,-0.09738c-0.08064,-0.07926 -0.16098,-0.14833 -0.2381,-0.21053c-0.4382,0.10363 -0.88742,0.1742 -1.36785,0.14542c0,0 -0.06157,-0.0042 -0.13386,-0.03137c-0.03799,0.20001 -0.1259,0.38787 -0.27514,0.57633c0,0 -0.15358,0.18706 -0.42595,0.01488c-0.27235,-0.1722 -0.11879,-0.35928 -0.11879,-0.35928c0.21594,-0.25063 0.208,-0.52204 0.27143,-0.83994l-0.30272,-0.09572c0,0 -0.29719,-0.13216 -0.2,-0.34938c0.09717,-0.21721 0.39436,-0.08504 0.39436,-0.08504l0.58616,0.29959c0.03532,0.1278 0.06148,0.24831 0.07688,0.36316c0.0216,-0.00094 0.03561,0.00002 0.03561,0.00002c0.31411,0.02484 0.63689,-0.00343 0.95951,-0.0594c-0.11943,-0.15196 -0.13441,-0.3239 0.03927,-0.61277l0.11151,-0.0467c-0.01703,-0.0601 -0.0285,-0.11752 -0.03435,-0.17228l-0.4664,-0.10596c0,0 -0.08828,-0.02007 -0.16853,-0.07559c-0.28007,0.09927 -0.66958,0.08641 -1.09463,-0.08771c0,0 -0.29718,-0.13215 -0.19999,-0.34937c0.09717,-0.21721 0.39437,-0.08504 0.39437,-0.08504c0.54846,0.27753 1.00852,-0.06745 0.51355,-0.51154l-0.17363,-0.04972c0,0 -0.29718,-0.13216 -0.2,-0.34938c0.09717,-0.21721 0.39437,-0.08503 0.39437,-0.08503l0.41896,0.21382c0.35448,0.35964 0.44336,0.69133 0.35276,0.93781l0.33098,0.07531c0.01044,0.00279 0.02085,0.00557 0.03117,0.00828c0.0448,-0.05191 0.10062,-0.0991 0.16762,-0.14172c-0.04347,-0.08309 -0.02834,-0.15915 -0.02834,-0.15915c0.09499,-0.47695 0.26166,-1.01402 0.66857,-1.07147c-0.10753,-0.25943 -0.21931,-0.5181 -0.35249,-0.77334c-0.07213,-0.02475 -0.14798,-0.07436 -0.203,-0.17051c-0.0232,-0.04057 -0.03511,-0.07611 -0.03878,-0.10716c-0.13887,-0.03126 -0.26921,-0.04437 -0.37995,-0.01414c0,0 -0.27887,0.06012 -0.42029,-0.18693c-0.14142,-0.24705 0.13745,-0.30718 0.13745,-0.30718c0.26517,-0.04891 0.57682,-0.02352 0.86789,0.05512c0.15473,0.04181 0.49149,0.30536 0.45109,0.17889c-0.0641,-0.20059 -0.14221,-0.40337 -0.16415,-0.60207l-0.01727,0.00896c0,0 -0.14142,-0.24705 0.13745,-0.30718c0.27887,-0.06013 0.42029,0.18693 0.42029,0.18693l0.08244,0.18312c0.00679,0.06175 0.11441,0.86189 0.0437,0.91838c-0.09303,0.0743 -0.20841,0.09625 -0.33589,0.08915c0.18562,0.36531 0.32781,0.73807 0.48016,1.10937c0.0876,0.06428 0.18082,0.14145 0.28005,0.2327l0.15874,0.24921c0,0 0.12269,0.2143 -0.0858,0.29232c0.03043,0.05759 0.06204,0.11502 0.09503,0.17221c0.10585,-0.09935 0.22664,-0.18255 0.35827,-0.24437c-0.01994,-0.00937 -0.04066,-0.02068 -0.06208,-0.03424c-0.27235,-0.1722 -0.11879,-0.35929 -0.11879,-0.35929l0.17034,-0.19772c0.09834,-0.54516 0.41204,-0.73806 0.76435,-0.67114c0.06716,-0.0963 0.13897,-0.18883 0.21211,-0.27729l0.20932,-0.13113c-0.04909,-0.0663 -0.09726,-0.13977 -0.14457,-0.2205c0,0 -0.14143,-0.24705 0.13744,-0.30718c0.27887,-0.06013 0.4203,0.18692 0.4203,0.18692c0.20854,0.37622 0.2136,0.43497 0.50551,0.13188l0.05089,-0.15464c0,0 0.09716,-0.21721 0.39437,-0.08504c0.29718,0.13216 0.2,0.34938 0.2,0.34938l-0.14286,0.27846c-0.33842,0.27071 -0.65313,0.35006 -0.94325,0.22993l-0.18805,0.11294c-0.04887,0.06015 -0.0995,0.12527 -0.14885,0.19424c0.14032,0.12843 0.27161,0.29202 0.38177,0.48449c0,0 0.14143,0.24704 -0.13744,0.30718c-0.27887,0.06013 -0.42029,-0.18692 -0.42029,-0.18692c-0.02936,-0.05128 -0.05753,-0.09876 -0.08457,-0.14206c-0.05684,0.14583 -0.08886,0.29716 -0.07784,0.44756c0.16854,0.05997 0.33913,0.15658 0.50688,0.29598c-0.13085,-0.24031 0.14193,-0.29913 0.14193,-0.29913l0.29487,-0.06359c0.79084,-0.06878 1.03787,0.27668 1.05887,0.7325c0.22916,-0.04036 0.45756,-0.08347 0.68472,-0.13074c0.02147,-0.15164 0.12727,-0.30479 0.3421,-0.45035l0.60092,0.32937c0,0 0.14143,0.24705 -0.13744,0.30718c-0.07437,0.01603 -0.13896,0.01022 -0.19371,-0.0069c0.01959,0.15724 0.38993,0.29185 0.6861,0.37056c0,0 0.31048,0.087 0.27348,0.32592c-0.037,0.23892 -0.3475,0.15191 -0.3475,0.15191c-0.40759,-0.11856 -0.77345,-0.30455 -0.99771,-0.52116c-0.3256,0.06918 -0.64908,0.13513 -0.97234,0.19755c-0.00292,0.01134 -0.03947,0.14094 -0.19142,0.15627l0.00803,0.01955c0.35366,0.3482 0.57536,0.66263 0.64044,0.94862c0.02626,0.00274 0.05233,0.00494 0.07811,0.00664l0.03952,0.02245l0.002,-0.01301l0.36737,0.10295c0.08839,-0.14729 0.26348,-0.2709 0.5354,-0.34425l0.1966,-0.04239c0,0 0.27887,-0.06012 0.4203,0.18693zM294.86578,115.97607c0.04872,0.08514 0.04756,0.14808 0.0251,0.19402c0.05081,0.04742 0.11085,0.08648 0.17665,0.11796c0.11114,-0.14428 0.2187,-0.29106 0.31739,-0.44501c0,0 0.03817,-0.05938 0.11867,-0.08876c-0.11206,-0.12555 -0.19557,-0.25778 -0.25373,-0.39277c-0.26852,0.06128 -0.53317,0.1364 -0.79867,0.20997c0.03952,0.02939 0.07615,0.05926 0.10772,0.08949c0,0 0.06374,0.06175 0.08923,0.13989c0.07637,0.02294 0.15887,0.07253 0.21765,0.1752zM294.66441,114.24261c-0.01875,0.00405 -0.03693,0.00669 -0.05445,0.00814c0.19234,0.06156 0.37977,0.14105 0.57938,0.26348c0.01832,-0.06898 0.04207,-0.13635 0.07065,-0.20153c-0.25863,-0.37853 -0.44102,-0.76815 -0.60664,-1.15989c-0.19328,-0.0347 -0.21158,0.28469 -0.24026,0.55608l0.38875,0.22655c0,0 0.14142,0.24705 -0.13745,0.30718zM294.26757,114.93112c0,0 0.04331,0.07565 0.03474,0.15344c0.21476,-0.05865 0.42547,-0.11883 0.62935,-0.17248c-0.25679,-0.17935 -0.52209,-0.24809 -0.81154,-0.30757c0.0215,0.09003 0.07108,0.19739 0.14745,0.32665zM298.15732,113.97853l-0.29487,0.06359c0,0 -0.13256,0.0286 -0.26123,-0.03464c0.077,0.13834 0.13345,0.26713 0.18446,0.39386c0.17968,-0.02714 0.35934,-0.05458 0.53878,-0.08304c0.05387,-0.24618 0.07931,-0.52253 -0.16714,-0.33977zM298.24893,115.23643l-0.15873,-0.24921c0,0 -0.01136,-0.01982 -0.02127,-0.04956c-0.01896,0.0033 -0.03792,0.00659 -0.05689,0.00986c0.00939,0.01937 0.01911,0.03893 0.02921,0.05865l-0.15501,0.40523c0.24669,0.13631 0.52234,0.26194 0.7983,0.35485c-0.06978,-0.15056 -0.21632,-0.32205 -0.43559,-0.52982zM297.06975,114.16507c-0.33704,-0.47095 -0.81241,-0.16317 -1.0659,0.27317c0.0561,0.07242 0.11305,0.14416 0.17048,0.21542c0.34457,-0.05981 0.69162,-0.11368 1.03958,-0.16631c-0.03805,-0.10382 -0.07892,-0.20955 -0.14414,-0.32227zM296.59193,115.1645c0.12499,0.15368 0.24749,0.30773 0.36328,0.46457c0.10762,-0.10046 0.10957,-0.2722 -0.09897,-0.50066c-0.08782,0.01232 -0.17591,0.02435 -0.2643,0.03607zM295.99051,115.23893c-0.03719,0.00428 -0.07446,0.0085 -0.11178,0.01267c-0.00043,0.00005 -0.0009,0.0001 -0.00133,0.00016c0.09649,0.218 0.27604,0.35643 0.46504,0.42563c-0.11292,-0.14757 -0.23165,-0.29302 -0.35193,-0.43845z" fill="#a8f2ff" stroke-width="0.5"/><path d="M297.23816,247.68763c0.37165,-0.00505 0.37856,0.26685 0.37856,0.26685l0.00486,0.19168c-0.05895,0.45903 0.50998,0.45628 0.76358,0.12633c0,0 0.20038,-0.22905 0.51345,-0.08245c0.31308,0.1466 0.11266,0.37565 0.11266,0.37565c-0.31631,0.33588 -0.74549,0.48729 -1.13637,0.46931l-0.1698,0.53947c0.13045,0.13284 0.24358,0.29643 0.33945,0.49318c0,0 0.1241,0.25635 -0.22629,0.34713c-0.35039,0.09078 -0.47448,-0.16556 -0.47448,-0.16556c-0.05736,-0.11941 -0.11863,-0.21951 -0.1864,-0.3017c-0.25527,0.25139 -0.57344,0.47977 -0.89632,0.67162c0.16582,0.11407 0.29101,0.25917 0.36971,0.41774c0.14508,-0.00386 0.29158,-0.00368 0.43981,0.00158c-0.08568,-0.05059 -0.16906,-0.13994 -0.10709,-0.28495c0.11097,-0.25955 0.46572,-0.17836 0.46572,-0.17836l0.47397,0.11607c0.22329,0.15738 0.42016,0.35388 0.55038,0.55622c0.4511,0.10287 0.89361,0.20981 1.36571,0.23274c0.05983,-0.07871 0.1313,-0.16418 0.21349,-0.25813l0.30249,-0.2373c0,0 0.25787,-0.19583 0.52557,-0.00715c0.26768,0.18867 0.00977,0.38451 0.00977,0.38451l-0.21174,0.15319c-0.04784,0.05469 -0.12997,0.10103 -0.21159,0.14651c0.01063,0.0257 0.01707,0.0551 0.01793,0.08875c0.00374,0.147 -0.10314,0.216 -0.20216,0.24839c0.1246,0.09799 0.40396,0.11343 0.57196,0.19137c0,0 0.31306,0.14659 0.11268,0.37564c-0.20038,0.22905 -0.51346,0.08243 -0.51346,0.08243c-0.53062,-0.25044 -0.78737,-0.43117 -0.82622,-0.6452c-0.34679,-0.03524 -0.67379,-0.10407 -1.00146,-0.17617c-0.05714,0.26732 -0.34368,0.47665 -0.98765,0.52195c0,0 -0.37164,0.00506 -0.37855,-0.26684c-0.00691,-0.2719 0.36473,-0.27695 0.36473,-0.27695c0.23654,0.03164 0.31493,-0.02806 0.30987,-0.12315c-0.2335,-0.04275 -0.47412,-0.07699 -0.72852,-0.09278c-0.15898,-0.00985 -0.31587,-0.01303 -0.47115,-0.01084c-0.03948,0.22629 -0.17608,0.44206 -0.42431,0.60338c0.02718,0.0171 0.04229,0.03038 0.04229,0.03038c0.08936,0.0788 0.17589,0.15857 0.26049,0.23905c0.00093,-0.02471 0.0006,-0.04902 -0.00103,-0.07266c0,0 -0.00692,-0.2719 0.36473,-0.27695c0.37165,-0.00505 0.37856,0.26684 0.37856,0.26684c-0.0007,0.23376 -0.059,0.45622 -0.17379,0.65066c0.09086,0.09301 0.18179,0.18613 0.27417,0.27898c0.30271,-0.04874 0.74256,0.07888 1.33935,0.35838c0,0 0.31307,0.1466 0.11266,0.37566c-0.20038,0.22905 -0.51346,0.08244 -0.51346,0.08244c-0.12942,-0.06061 -0.31341,-0.21038 -0.473,-0.33335c0.01124,0.06394 -0.01087,0.13961 -0.11438,0.21519c-0.05473,0.03997 -0.10947,0.06331 -0.16183,0.07519c0.01184,0.10004 0.02082,0.20118 0.02348,0.30589l-0.2325,0.29137c0,0 -0.25788,0.19583 -0.52557,0.00715c-0.26768,-0.18867 -0.00977,-0.38451 -0.00977,-0.38451l0.02461,0.09614c-0.00664,-0.26074 0.01319,-0.47244 0.06173,-0.63791c-0.09208,-0.09099 -0.18221,-0.18246 -0.2717,-0.27398c-0.23102,0.13496 -0.52373,0.22149 -0.87683,0.23999l-0.10307,-0.09809c-0.07407,0.06233 -0.17277,0.0879 -0.17277,0.0879c-0.12864,0.03238 -0.24341,0.06936 -0.34804,0.10682c0.02322,0.43162 -0.00118,0.85704 -0.1682,1.26211c0,0 -0.02209,0.05166 -0.0781,0.10169c0.26022,0.12885 0.4907,0.2954 0.70564,0.5157c0,0 0.21189,0.22342 -0.09348,0.37847c-0.30538,0.15503 -0.51731,-0.06839 -0.51731,-0.06839c-0.2812,-0.30821 -0.65016,-0.43117 -1.06295,-0.63862l-0.2101,0.2181c0,0 -0.25788,0.19583 -0.52558,0.00715c-0.26768,-0.18867 -0.00977,-0.38451 -0.00977,-0.38451l0.56125,-0.36764c0.18216,0.03037 0.35202,0.06524 0.51137,0.10678c0.00448,-0.01928 0.00952,-0.03104 0.00952,-0.03104c0.11733,-0.26196 0.1652,-0.55689 0.17558,-0.86495c-0.23724,0.03139 -0.47365,-0.03783 -0.81779,-0.32749l-0.03339,-0.11956c-0.08578,-0.01392 -0.16644,-0.0314 -0.24203,-0.05251l-0.26759,0.35589c0,0 -0.05068,0.06736 -0.14711,0.11076c0.0595,0.29168 -0.06174,0.62511 -0.41045,0.91233c0,0 -0.25788,0.19584 -0.52558,0.00716c-0.26768,-0.18867 -0.00977,-0.38451 -0.00977,-0.38451c0.52139,-0.34533 0.17775,-0.91153 -0.55448,-0.69254l-0.1135,0.12758c0,0 -0.25788,0.19584 -0.52557,0.00715c-0.26768,-0.18867 -0.00977,-0.38451 -0.00977,-0.38451l0.40073,-0.26292c0.58063,-0.13692 1.05267,-0.05567 1.36167,0.14128l0.19006,-0.25251c0.00655,-0.00776 0.01308,-0.01551 0.01951,-0.0232c-0.05822,-0.0639 -0.10712,-0.13515 -0.14686,-0.21396c-0.1239,-0.00187 -0.22267,-0.05147 -0.22267,-0.05147c-0.61934,-0.31108 -1.30083,-0.7134 -1.26998,-1.09565c-0.37934,-0.03041 -0.75878,-0.05677 -1.1393,-0.06282c-0.05269,0.05104 -0.13997,0.09342 -0.2846,0.09537c-0.06101,0.00081 -0.11224,-0.00581 -0.15518,-0.01747c-0.07928,0.10611 -0.13175,0.21347 -0.12043,0.32449c0,0 0.00691,0.2719 -0.36473,0.27695c-0.37165,0.00505 -0.37856,-0.26684 -0.37856,-0.26684c0.00459,-0.25458 0.12203,-0.51413 0.30595,-0.73025c0.09777,-0.11488 0.5438,-0.28235 0.36209,-0.30766c-0.28822,-0.04012 -0.58315,-0.06907 -0.85757,-0.14504l0.00752,0.01935c0,0 -0.37165,0.00505 -0.37856,-0.26684c-0.00691,-0.2719 0.36474,-0.27695 0.36474,-0.27695l0.2695,0.01576c0.08528,0.02364 1.19549,0.31275 1.25299,0.40144c0.07563,0.11667 0.07452,0.22775 0.03094,0.33549c0.54327,0.013 1.08503,0.06745 1.62754,0.11234c0.11025,-0.0456 0.23941,-0.08995 0.38921,-0.13279l0.37918,-0.01911c0,0 0.32238,-0.00439 0.37224,0.2147c0.08596,0.00104 0.172,0.00095 0.25811,-0.00044c-0.10607,-0.13984 -0.18631,-0.28495 -0.23477,-0.42929c-0.01798,0.0129 -0.03879,0.02555 -0.06283,0.03774c-0.30538,0.15503 -0.51731,-0.06839 -0.51731,-0.06839l-0.22182,-0.24312c-0.71065,-0.34664 -0.88774,-0.71246 -0.70334,-0.98757c-0.11225,-0.10464 -0.21817,-0.21153 -0.31824,-0.31763l-0.12142,-0.24525c-0.1027,0.01107 -0.21485,0.0179 -0.33659,0.02052c0,0 -0.37165,0.00506 -0.37856,-0.26684c-0.00691,-0.2719 0.36473,-0.27696 0.36473,-0.27696c0.56414,-0.00175 0.64488,0.02195 0.31306,-0.37759l-0.19545,-0.11838c0,0 -0.26768,-0.18866 -0.00978,-0.38451c0.25788,-0.19583 0.52558,-0.00715 0.52558,-0.00715l0.33829,0.25782c0.27566,0.4246 0.299,0.73694 0.05925,0.93238l0.10252,0.21799c0.06827,0.0714 0.14279,0.1467 0.22285,0.22273c0.21101,-0.06087 0.46713,-0.09703 0.75667,-0.10096c0,0 0.37165,-0.00505 0.37856,0.26684c0.00691,0.2719 -0.36473,0.27695 -0.36473,0.27695c-0.07714,0.00106 -0.14883,0.00289 -0.21456,0.00575c0.18195,0.11935 0.37795,0.21968 0.58418,0.28205c0.12601,-0.11823 0.30208,-0.22072 0.53523,-0.30025c-0.35971,-0.00094 -0.36647,-0.26689 -0.36647,-0.26689l-0.00733,-0.28751c0.11792,-0.72239 0.65074,-0.77241 1.27246,-0.57256c0.00656,-0.2191 0.00919,-0.43886 0.00587,-0.65952c-0.19923,-0.0913 -0.37804,-0.25682 -0.5175,-0.51378l0.60544,-0.36625c0,0 0.37165,-0.00506 0.37856,0.26684c0.00183,0.07251 -0.02323,0.12604 -0.06099,0.16557c0.21776,0.05818 0.49846,-0.20028 0.68383,-0.42081c0,0 0.20038,-0.22904 0.51346,-0.08244c0.31308,0.1466 0.11266,0.37566 0.11266,0.37566c-0.26893,0.2986 -0.6179,0.52855 -0.97048,0.62039c0.00668,0.31697 0.00956,0.63055 0.00774,0.94225c0.01454,0.00797 0.17996,0.10186 0.16018,0.24167l0.02857,0.00235c0.56496,-0.14168 1.04909,-0.18447 1.453,-0.10433c0.0107,-0.02158 0.02063,-0.04325 0.0298,-0.06492l0.04088,-0.02372l-0.01704,-0.00796l0.23712,-0.27101c-0.17552,-0.14755 -0.29592,-0.35936 -0.32254,-0.63153l-0.00486,-0.19168c0,0 -0.00692,-0.2719 0.36473,-0.27696zM295.80287,253.07594c0.12808,-0.00172 0.21284,0.0294 0.26895,0.07098c0.07765,-0.02159 0.14645,-0.05525 0.20654,-0.09755c-0.16539,-0.16594 -0.33509,-0.32996 -0.51686,-0.48968c0,0 -0.07009,-0.0617 -0.08833,-0.14595c-0.19959,0.03761 -0.40059,0.04713 -0.59856,0.03323c0.01123,0.26343 0.04219,0.5301 0.07084,0.79678c0.05027,-0.02039 0.1004,-0.03804 0.14968,-0.05109c0,0 0.10046,-0.02602 0.21287,-0.01084c0.05138,-0.0556 0.14041,-0.10379 0.29485,-0.1059zM293.40611,252.42188c0.00047,0.01829 -0.00081,0.03539 -0.00353,0.05137c0.1345,-0.13822 0.29192,-0.26358 0.51063,-0.37901c-0.08835,-0.04898 -0.17309,-0.10193 -0.25356,-0.15804c-0.58062,0.04431 -1.15588,0.01685 -1.72954,-0.02625c-0.09843,0.15189 0.32838,0.3207 0.68756,0.4756l0.40989,-0.2305c0,0 0.37165,-0.00505 0.37856,0.26685zM294.23093,253.09736c0,0 0.1138,-0.00156 0.21666,0.04314c-0.022,-0.2153 -0.04717,-0.4278 -0.06531,-0.63122c-0.3109,0.13804 -0.47456,0.33643 -0.63214,0.5603c0.12742,0.02434 0.28576,0.0325 0.48084,0.02778zM293.9806,249.25033l0.00733,0.28751c0,0 0.00329,0.12925 -0.11649,0.21116c0.20752,-0.00091 0.39666,0.0115 0.58155,0.02768c0.01123,-0.16963 0.02205,-0.33939 0.03142,-0.50946c-0.31839,-0.16479 -0.68514,-0.31922 -0.50382,-0.0169zM295.70527,249.77248l-0.37918,0.01911c0,0 -0.02981,0.00041 -0.07265,-0.00518c-0.0006,0.0181 -0.0012,0.0362 -0.00184,0.05432c0.02868,0.00108 0.05771,0.00197 0.08706,0.00261l0.5064,0.32908c0.25002,-0.14983 0.49335,-0.33002 0.69252,-0.52614c-0.22211,-0.01121 -0.49298,0.03446 -0.83228,0.12618zM293.94272,250.28777c-0.72643,0.06845 -0.43718,0.63018 0.085,1.06c0.11286,-0.01425 0.22501,-0.02957 0.33664,-0.04553c0.01105,-0.32902 0.03078,-0.65737 0.05242,-0.98592c-0.15047,-0.01652 -0.30428,-0.03149 -0.47403,-0.02857zM295.1662,251.18265c0.24106,-0.03542 0.48195,-0.06848 0.72481,-0.09437c-0.10708,-0.1419 -0.3387,-0.2258 -0.7031,-0.15333c-0.00677,0.08247 -0.014,0.16502 -0.02173,0.24768zM295.10643,251.7426c-0.00413,0.03447 -0.00837,0.06898 -0.01269,0.10352c-0.00004,0.0004 -0.0001,0.00083 -0.00014,0.00123c0.3204,0.02021 0.55539,-0.07007 0.69931,-0.20172c-0.22958,0.02782 -0.45784,0.06172 -0.68648,0.09697z" fill="#a8f2ff" stroke-width="0.5"/><path d="M354.34174,166.2646c4.88124,17.11978 -12.39944,34.23924 -38.5975,38.23739c-26.19806,3.99815 -51.3928,-6.63904 -56.27404,-23.75882c-4.88125,-17.11978 12.39943,-34.23921 38.59749,-38.23736c26.19806,-3.99815 51.39281,6.63902 56.27406,23.7588z" fill="url(#color-17)" stroke-width="0"/><path d="M312.7826,204.4901c0.14839,0.47598 -0.45287,0.75293 -0.45287,0.75293l-0.42388,0.19524c-1.04115,0.37617 -0.82504,1.10974 0.00128,1.1127c0,0 0.5826,0.03356 0.37258,0.58322c-0.21002,0.54967 -0.79266,0.51609 -0.79266,0.51609c-0.86264,-0.07827 -1.35726,-0.48444 -1.46159,-1.00803l-1.26071,0.31202c-0.24686,0.29976 -0.56837,0.60742 -0.96992,0.92543c0,0 -0.52348,0.41326 -0.8544,0.0493c-0.33092,-0.36396 0.19256,-0.77723 0.19256,-0.77723c0.24399,-0.19192 0.44369,-0.36989 0.6012,-0.53862c-0.65249,-0.08256 -1.27709,-0.2692 -1.82229,-0.49795c-0.19212,0.32702 -0.46815,0.63208 -0.79124,0.89022c0.06213,0.18394 0.11577,0.37372 0.15882,0.57073c0.08074,-0.16075 0.24838,-0.35673 0.59329,-0.41947c0.61736,-0.11223 0.56796,0.4269 0.56796,0.4269l-0.08283,0.72781c-0.26707,0.44409 -0.63081,0.89257 -1.03207,1.26053c-0.06197,0.68518 -0.13614,1.36328 -0.01283,1.99685c0.19687,-0.00016 0.41307,0.00808 0.65204,0.02184l0.63862,0.15757c0,0 0.53008,0.14069 0.20985,0.67311c-0.32018,0.53239 -0.85029,0.39166 -0.85029,0.39166l-0.41832,-0.12303c-0.13909,-0.00801 -0.27234,-0.06861 -0.40346,-0.12941c-0.05316,0.0391 -0.11607,0.07641 -0.19047,0.11068c-0.32508,0.14973 -0.51774,0.07943 -0.62622,-0.01678c-0.17165,0.25785 -0.1028,0.63459 -0.21388,0.92883c0,0 -0.21003,0.54966 -0.79263,0.5161c-0.58261,-0.03356 -0.37254,-0.58326 -0.37254,-0.58326c0.36031,-0.93354 0.66692,-1.44398 1.12788,-1.70522c-0.04973,-0.48352 -0.01758,-0.97456 0.0216,-1.46968c-0.61473,0.18955 -1.18536,0.02507 -1.52362,-0.76368c0,0 -0.14839,-0.47598 0.45288,-0.75293c0.60127,-0.27695 0.74965,0.19902 0.74965,0.19902c0.01704,0.33732 0.17856,0.37989 0.38785,0.27963c0.00876,-0.34433 -0.004,-0.68948 -0.06283,-1.03427c-0.03679,-0.21546 -0.08764,-0.42162 -0.14982,-0.62041c-0.51711,0.17196 -1.04668,0.20786 -1.49655,0.04564c-0.02794,0.05203 -0.05187,0.08469 -0.05187,0.08469c-0.14204,0.19332 -0.28724,0.38394 -0.43473,0.57275c0.05521,-0.02316 0.10906,-0.04754 0.16098,-0.07296c0,0 0.60127,-0.27695 0.74966,0.19903c0.14839,0.47598 -0.45288,0.75293 -0.45288,0.75293c-0.51939,0.22952 -1.03492,0.37335 -1.50907,0.41644c-0.17301,0.20926 -0.34626,0.41873 -0.51837,0.62981c0.21996,0.3437 0.0989,1.03872 -0.30154,2.08657c0,0 -0.21003,0.54966 -0.79266,0.51608c-0.58261,-0.03356 -0.37258,-0.58322 -0.37258,-0.58322c0.08684,-0.22723 0.35152,-0.61295 0.5657,-0.9407c-0.13786,0.07758 -0.31404,0.12353 -0.52009,0.06408c-0.10898,-0.03143 -0.18099,-0.07925 -0.2267,-0.13531c-0.2178,0.11394 -0.4391,0.22524 -0.67066,0.3319l-0.73286,-0.01368c0,0 -0.53008,-0.14069 -0.20986,-0.67311c0.32018,-0.53239 0.85029,-0.39167 0.85029,-0.39167l-0.20441,0.12661c0.57657,-0.26561 1.05403,-0.44861 1.43941,-0.54889c0.16809,-0.20887 0.33794,-0.41568 0.50815,-0.62169c-0.38497,-0.16594 -0.68514,-0.45948 -0.85654,-0.8982l0.17977,-0.23005c-0.16575,-0.03442 -0.25896,-0.13694 -0.25896,-0.13694c-0.11937,-0.13457 -0.24386,-0.24665 -0.36568,-0.34512c-0.94995,0.4555 -1.90369,0.84325 -2.86487,1.02638c0,0 -0.12289,0.02235 -0.25465,-0.00083c-0.19009,0.46376 -0.47488,0.9262 -0.8848,1.42152c0,0 -0.41795,0.49445 -0.87497,0.25209c-0.45698,-0.2424 -0.03907,-0.73688 -0.03907,-0.73688c0.58068,-0.66771 0.7176,-1.2664 1.02593,-2.00509l-0.56191,-0.05693c0,0 -0.53007,-0.1407 -0.20985,-0.67312c0.32018,-0.53239 0.85029,-0.39165 0.85029,-0.39165l1.02357,0.36395c-0.00022,0.26568 -0.01495,0.51988 -0.04838,0.76704c0.04447,-0.0132 0.07244,-0.01828 0.07244,-0.01828c0.62505,-0.10637 1.29769,-0.33514 1.98561,-0.62534c-0.15727,-0.27609 -0.0908,-0.65027 0.42546,-1.38116l0.2532,-0.16108c-0.00074,-0.12473 0.0083,-0.24634 0.02728,-0.36496l-0.88911,0.00449c0,0 -0.16829,0.00082 -0.30025,-0.08121c-0.62579,0.36451 -1.41099,0.53627 -2.17753,0.36811c0,0 -0.53008,-0.14069 -0.20986,-0.67311c0.32018,-0.53239 0.85029,-0.39167 0.85029,-0.39167c0.95932,0.33435 2.08986,-0.66844 1.33329,-1.40021l-0.3252,-0.02113c0,0 -0.53008,-0.1407 -0.20986,-0.67312c0.32018,-0.53239 0.8503,-0.39166 0.8503,-0.39166l0.73178,0.25943c0.51835,0.61647 0.51213,1.30744 0.1888,1.90146l0.63091,-0.00294c0.01966,0.00083 0.03927,0.00163 0.05874,0.00238c0.12041,-0.13833 0.2606,-0.27185 0.42095,-0.40096c-0.04158,-0.16218 0.0321,-0.33889 0.0321,-0.33889c0.46223,-1.10815 1.10418,-2.38667 1.96445,-2.72353c-0.07246,-0.5209 -0.15398,-1.03792 -0.28098,-1.53633c-0.1328,-0.01788 -0.25913,-0.08904 -0.31685,-0.2743c-0.02433,-0.07817 -0.02852,-0.15099 -0.01846,-0.21805c-0.26489,0.00198 -0.52267,0.03992 -0.76504,0.16399c0,0 -0.60127,0.27695 -0.74966,-0.19903c-0.14839,-0.47598 0.45288,-0.75293 0.45288,-0.75293c0.56705,-0.24499 1.1868,-0.34886 1.73462,-0.32388c0.2912,0.01329 0.82771,0.42545 0.81684,0.16535c-0.01728,-0.41254 -0.06183,-0.82274 0.00558,-1.25278l-0.04019,0.0288c0,0 -0.14839,-0.47598 0.45288,-0.75293c0.60127,-0.27695 0.74965,0.19903 0.74965,0.19903l0.06445,0.36432c-0.02101,0.13366 -0.25331,1.85542 -0.42903,2.01725c-0.23118,0.21287 -0.47828,0.32093 -0.73364,0.37074c0.17163,0.71589 0.25068,1.47066 0.35123,2.21698c0.14198,0.09772 0.28809,0.22117 0.43852,0.37281l0.1824,0.47187c0,0 0.12875,0.41287 -0.3394,0.69337c0.02943,0.11227 0.06135,0.22354 0.09621,0.33361c0.27138,-0.27509 0.56404,-0.52199 0.8667,-0.72697c-0.03529,-0.01054 -0.07104,-0.02502 -0.10699,-0.04412c-0.45698,-0.2424 -0.03906,-0.73687 -0.03906,-0.73687l0.45806,-0.52672c0.50751,-1.26137 1.25452,-1.85112 1.93355,-1.88367c0.19095,-0.24841 0.38923,-0.49084 0.58792,-0.72494l0.49982,-0.39889c-0.06247,-0.12201 -0.11906,-0.2604 -0.16979,-0.41537c0,0 -0.14839,-0.47598 0.45288,-0.75293c0.60127,-0.27695 0.74966,0.19902 0.74966,0.19902c0.21209,0.72834 0.18927,0.85621 0.95408,0.03295l0.19074,-0.36963c0,0 0.32019,-0.53238 0.8503,-0.39166c0.53008,0.1407 0.20985,0.67312 0.20985,0.67312l-0.4477,0.69192c-0.84118,0.77527 -1.5262,1.11335 -2.0487,0.99573l-0.44627,0.34753c-0.13335,0.15873 -0.27308,0.3294 -0.41238,0.50796c0.21305,0.21309 0.3879,0.50889 0.50347,0.87973c0,0 0.14839,0.47598 -0.45288,0.75293c-0.60127,0.27695 -0.74965,-0.19903 -0.74965,-0.19903c-0.03082,-0.09878 -0.06136,-0.18975 -0.09195,-0.272c-0.19788,0.3531 -0.34837,0.70567 -0.41076,1.03404c0.30908,0.04653 0.60163,0.17338 0.8643,0.39671c-0.13067,-0.46644 0.45745,-0.73735 0.45745,-0.73735l0.63576,-0.29288c1.64774,-0.55945 1.95548,0.08079 1.74114,1.08237c0.48897,-0.20748 0.97798,-0.4207 1.46678,-0.6425c0.12921,-0.34783 0.43083,-0.74238 0.94999,-1.17615l1.03681,0.42251c0,0 0.14839,0.47598 -0.45288,0.75293c-0.16035,0.07385 -0.28846,0.09417 -0.3902,0.08427c-0.04883,0.33917 0.62872,0.44768 1.18687,0.47019c0,0 0.58261,0.03356 0.37259,0.58322c-0.21002,0.54967 -0.79266,0.51608 -0.79266,0.51608c-0.76236,-0.05372 -1.40181,-0.27866 -1.73591,-0.64442c-0.70144,0.32109 -1.39677,0.6339 -2.08964,0.93879c-0.01234,0.02668 -0.15978,0.33331 -0.47758,0.44552l0.00532,0.03929c0.52314,0.59149 0.79686,1.17583 0.76797,1.77755c0.05189,-0.00743 0.10367,-0.01593 0.15517,-0.02542l0.06776,0.02952l0.01139,-0.02991l0.68937,0.03973c0.26289,-0.37258 0.68882,-0.73717 1.28341,-1.03991l0.42388,-0.19524c0,0 0.60126,-0.27696 0.74965,0.19902zM300.28688,207.94389c0.05111,0.16405 0.01326,0.30442 -0.05836,0.41802c0.07662,0.07921 0.17674,0.13507 0.29287,0.17113c0.30748,-0.37761 0.60908,-0.75891 0.89668,-1.15158c0,0 0.11114,-0.15152 0.2915,-0.25816c-0.15718,-0.22123 -0.2525,-0.47197 -0.29469,-0.74188c-0.58085,0.27419 -1.16166,0.57713 -1.7433,0.87706c0.06383,0.04495 0.12152,0.09245 0.16868,0.14336c0,0 0.09487,0.10435 0.10266,0.26479c0.14243,0.01169 0.28231,0.07941 0.34398,0.27721zM300.8548,204.19742c-0.04045,0.01864 -0.07889,0.03385 -0.11537,0.04607c0.3566,0.03781 0.69308,0.11799 1.03015,0.28724c0.07617,-0.16262 0.16247,-0.32448 0.25738,-0.48392c-0.31269,-0.70773 -0.46404,-1.47926 -0.58005,-2.26414c-0.37365,0.02233 -0.591,0.74109 -0.80241,1.3586l0.66313,0.30326c0,0 0.1484,0.47598 -0.45287,0.75294zM299.65913,205.93068c0,0 0.04545,0.14574 -0.01585,0.32291c0.46999,-0.24068 0.93262,-0.48272 1.37767,-0.70671c-0.42129,-0.26628 -0.92226,-0.28253 -1.47759,-0.26579c-0.00702,0.18889 0.03328,0.40185 0.11577,0.64965zM308.10999,201.8147l-0.63577,0.29288c0,0 -0.2858,0.13168 -0.51193,0.05741c0.07863,0.26767 0.12085,0.52468 0.15316,0.7799c0.38085,-0.15267 0.76186,-0.30603 1.14297,-0.46152c0.24845,-0.57449 0.45603,-1.20131 -0.14844,-0.66867zM307.58697,204.56136l-0.1824,-0.47187c0,0 -0.01191,-0.03818 -0.01531,-0.09913c-0.04043,0.01706 -0.08085,0.03412 -0.12131,0.05115c0.00818,0.03819 0.01691,0.07663 0.02632,0.11525l-0.5439,0.97973c0.42501,0.17587 0.91497,0.31317 1.42401,0.3776c-0.05706,-0.2985 -0.25849,-0.60403 -0.58739,-0.95271zM305.79214,202.78827c-0.42012,-0.87264 -1.56081,0.05539 -2.32262,1.15486c0.0733,0.132 0.1487,0.26204 0.22535,0.39078c0.73474,-0.31002 1.4712,-0.60814 2.2088,-0.90397c-0.01885,-0.21102 -0.04239,-0.42483 -0.11151,-0.64164zM304.2564,205.25372c0.16762,0.27705 0.32997,0.55622 0.47708,0.845c0.2756,-0.27846 0.37643,-0.66089 0.08101,-1.06106c-0.18563,0.07253 -0.37162,0.14453 -0.55805,0.21603zM302.99084,205.72832c-0.07808,0.02863 -0.15627,0.05716 -0.23456,0.08561c-0.0009,0.00034 -0.00188,0.00069 -0.00279,0.00103c0.07337,0.43456 0.36059,0.64969 0.70607,0.70618c-0.1465,-0.26969 -0.30605,-0.53166 -0.46872,-0.79281z" fill="#6de9ff" stroke-width="0.5"/><path d="M364.45499,143.41801c0.22792,0.10825 0.12446,0.42689 0.12446,0.42689l-0.07294,0.22464c-0.2176,0.51626 0.12934,0.68777 0.41415,0.38156c0,0 0.21251,-0.20509 0.34477,0.06172c0.13226,0.26681 -0.08026,0.47191 -0.08026,0.47191c-0.32528,0.29386 -0.64612,0.33831 -0.87662,0.19733l-0.31684,0.57587c0.02669,0.1947 0.0307,0.41987 0.01107,0.67836c0,0 -0.02607,0.33652 -0.27502,0.3346c-0.24894,-0.00192 -0.22287,-0.33845 -0.22287,-0.33845c0.01241,-0.15661 0.01481,-0.29197 0.00615,-0.40846c-0.25472,0.21426 -0.53857,0.3824 -0.81081,0.50658c0.05563,0.18371 0.07428,0.39108 0.05933,0.59984c0.08972,0.04005 0.1787,0.08527 0.26673,0.13691c-0.03205,-0.08521 -0.04736,-0.21483 0.04774,-0.36461c0.17024,-0.26807 0.35373,-0.0646 0.35373,-0.0646l0.24216,0.28068c0.07342,0.25177 0.11528,0.541 0.11432,0.81652c0.23348,0.25829 0.46013,0.51869 0.73804,0.69037c0.06754,-0.07325 0.14483,-0.15081 0.23199,-0.23494l0.27785,-0.18334c0,0 0.23431,-0.14878 0.32232,0.15308c0.08801,0.30184 -0.14631,0.45062 -0.14631,0.45062l-0.18937,0.1133c-0.05073,0.04896 -0.11902,0.0777 -0.18664,0.10558c-0.00371,0.03319 -0.01144,0.06939 -0.02424,0.10882c-0.05594,0.17227 -0.14823,0.21977 -0.22124,0.22707c0.03694,0.15235 0.20065,0.2561 0.27191,0.39842c0,0 0.13226,0.26681 -0.08025,0.47191c-0.21251,0.20509 -0.34477,-0.06174 -0.34477,-0.06174c-0.22339,-0.45449 -0.3079,-0.74374 -0.24677,-1.00483c-0.19685,-0.14752 -0.36839,-0.32807 -0.53902,-0.51263c-0.14059,0.29364 -0.39766,0.44934 -0.80706,0.30429c0,0 -0.22792,-0.10825 -0.12446,-0.42689c0.10346,-0.31864 0.33138,-0.21039 0.33138,-0.21039c0.13127,0.10948 0.20255,0.06404 0.23713,-0.0482c-0.12502,-0.12148 -0.25773,-0.23524 -0.40612,-0.33174c-0.09274,-0.0603 -0.18685,-0.11217 -0.28212,-0.15731c-0.11361,0.2513 -0.28208,0.46053 -0.49686,0.5721c0.00975,0.02825 0.01368,0.04836 0.01368,0.04836c0.02311,0.11918 0.04413,0.23862 0.06369,0.35828c0.01035,-0.02848 0.01977,-0.05687 0.02814,-0.0849c0,0 0.10346,-0.31864 0.33139,-0.21039c0.22792,0.10825 0.12446,0.42689 0.12446,0.42689c-0.09299,0.27192 -0.21651,0.51298 -0.36329,0.70407c0.0184,0.13617 0.0368,0.27251 0.05619,0.40897c0.20331,0.03622 0.42016,0.31986 0.67227,0.82851c0,0 0.13226,0.26681 -0.08027,0.47191c-0.21251,0.20509 -0.34477,-0.06172 -0.34477,-0.06172c-0.05467,-0.1103 -0.10721,-0.34115 -0.15553,-0.53331c-0.01849,0.07789 -0.06189,0.15918 -0.15474,0.21537c-0.0491,0.02973 -0.09161,0.04008 -0.12814,0.03783c-0.03242,0.1201 -0.06701,0.24059 -0.10686,0.36331l-0.25671,0.26779c0,0 -0.23431,0.14878 -0.32232,-0.15308c-0.08801,-0.30184 0.14631,-0.45062 0.14631,-0.45062l-0.02311,0.11947c0.0992,-0.30557 0.19509,-0.54592 0.29012,-0.72364c-0.01995,-0.13421 -0.03853,-0.26837 -0.05668,-0.40239c-0.19387,0.08616 -0.40607,0.09699 -0.62804,0.01008l-0.02381,-0.14583c-0.06971,0.04981 -0.13983,0.04926 -0.13983,0.04926c-0.09102,-0.00182 -0.17543,0.00599 -0.25387,0.01747c-0.1568,0.50959 -0.34008,0.99733 -0.60201,1.41758c0,0 -0.03388,0.05336 -0.08774,0.09439c0.10716,0.2299 0.18133,0.49457 0.22475,0.81704c0,0 0.04034,0.32516 -0.20668,0.41187c-0.24703,0.08669 -0.28739,-0.23848 -0.28739,-0.23848c-0.04889,-0.44515 -0.22448,-0.70162 -0.39327,-1.06988l-0.21409,0.18937c0,0 -0.23431,0.14878 -0.32232,-0.15308c-0.08801,-0.30184 0.14632,-0.45062 0.14632,-0.45062l0.48675,-0.25562c0.09871,0.0913 0.18816,0.18405 0.26858,0.28135c0.01036,-0.02107 0.01807,-0.03321 0.01807,-0.03321c0.17506,-0.26892 0.32094,-0.59755 0.44923,-0.95297c-0.15665,-0.03632 -0.27295,-0.1895 -0.36745,-0.6324l0.02704,-0.14945c-0.04663,-0.04255 -0.08875,-0.08766 -0.12633,-0.13545l-0.3036,0.33212c0,0 -0.05748,0.06285 -0.13328,0.08375c-0.07933,0.35782 -0.28506,0.70874 -0.61077,0.93601c0,0 -0.23431,0.14878 -0.32232,-0.15308c-0.08801,-0.30184 0.14631,-0.45062 0.14631,-0.45062c0.45369,-0.24189 0.469,-1.00653 -0.06284,-0.97648l-0.11951,0.11366c0,0 -0.23431,0.14878 -0.32232,-0.15308c-0.08801,-0.30184 0.14632,-0.45062 0.14632,-0.45062l0.34771,-0.18301c0.40718,0.01893 0.66195,0.25849 0.7718,0.58265l0.21552,-0.23559c0.00706,-0.00702 0.01409,-0.01404 0.02105,-0.02102c-0.01009,-0.09227 -0.0116,-0.19023 -0.00455,-0.29418c-0.07458,-0.04022 -0.11498,-0.12829 -0.11498,-0.12829c-0.25332,-0.55233 -0.50828,-1.22998 -0.33816,-1.6655c-0.21856,-0.15191 -0.43877,-0.29911 -0.66769,-0.42301c-0.05224,0.04324 -0.12208,0.06577 -0.21078,0.02363c-0.03742,-0.01779 -0.06593,-0.04124 -0.08741,-0.068c-0.09021,0.09917 -0.16461,0.20804 -0.20169,0.34075c0,0 -0.10347,0.31864 -0.33139,0.21039c-0.22792,-0.10825 -0.12446,-0.42689 -0.12446,-0.42689c0.1036,-0.29495 0.27777,-0.56104 0.47514,-0.75615c0.10492,-0.10371 0.44237,-0.16168 0.34193,-0.24694c-0.15932,-0.13522 -0.32713,-0.25949 -0.46388,-0.43221l-0.00309,0.02483c0,0 -0.22792,-0.10825 -0.12446,-0.42689c0.10346,-0.31864 0.33139,-0.21039 0.33139,-0.21039l0.15758,0.10112c0.04248,0.0537 0.60289,0.73122 0.60273,0.85212c-0.00022,0.15904 -0.04489,0.28802 -0.11404,0.40006c0.3251,0.18198 0.63287,0.41173 0.94488,0.63059c0.08508,-0.01924 0.18115,-0.03118 0.28918,-0.03505l0.23807,0.09419c0,0 0.19771,0.09388 0.14127,0.36425c0.05185,0.0276 0.10418,0.05394 0.15707,0.07877c-0.00911,-0.19535 -0.00042,-0.38893 0.02728,-0.57184c-0.01604,0.0095 -0.03369,0.01782 -0.05314,0.02463c-0.24703,0.08669 -0.28739,-0.23848 -0.28739,-0.23848l-0.03857,-0.35116c-0.29474,-0.62177 -0.25754,-1.102 -0.0365,-1.36565c-0.0268,-0.15629 -0.04886,-0.31325 -0.06768,-0.46749l0.0233,-0.32279c-0.06681,-0.01866 -0.1377,-0.04514 -0.21274,-0.07949c0,0 -0.22792,-0.10825 -0.12446,-0.42689c0.10346,-0.31864 0.33139,-0.21039 0.33139,-0.21039c0.34362,0.17121 0.38333,0.2236 0.33983,-0.34342l-0.07194,-0.19783c0,0 -0.08801,-0.30184 0.14632,-0.45062c0.23431,-0.14878 0.32232,0.15308 0.32232,0.15308l0.10355,0.40402c-0.00056,0.57894 -0.11005,0.94971 -0.33318,1.1036l-0.02401,0.28525c0.01323,0.10408 0.02871,0.21463 0.04728,0.32773c0.15237,-0.00605 0.32239,0.0305 0.49995,0.11485c0,0 0.22792,0.10825 0.12446,0.42689c-0.10346,0.31864 -0.33139,0.21039 -0.33139,0.21039c-0.04731,-0.02246 -0.09162,-0.04233 -0.13271,-0.0592c0.06335,0.19481 0.14276,0.37181 0.24344,0.50775c0.12342,-0.09894 0.27103,-0.16416 0.44425,-0.18515c-0.21829,-0.11156 -0.11709,-0.42325 -0.11709,-0.42325l0.10939,-0.33694c0.35773,-0.80472 0.70143,-0.69933 1.00023,-0.27575c0.09074,-0.25304 0.17936,-0.50806 0.26472,-0.76596c-0.08496,-0.16746 -0.12811,-0.41507 -0.11114,-0.75703l0.51307,-0.24043c0,0 0.22792,0.10825 0.12446,0.42689c-0.0276,0.08498 -0.06403,0.13958 -0.10264,0.17401c0.10934,0.1346 0.38232,-0.08006 0.58232,-0.27985c0,0 0.21251,-0.20509 0.34477,0.06171c0.13226,0.26681 -0.08027,0.47191 -0.08027,0.47191c-0.28172,0.26501 -0.58491,0.42553 -0.83561,0.42417c-0.12145,0.37104 -0.24388,0.73697 -0.36841,1.09927c0.00568,0.01375 0.06907,0.17385 0.00168,0.33053l0.01643,0.01151c0.39954,0.00857 0.71077,0.10743 0.92458,0.32476c0.01506,-0.02184 0.02967,-0.04401 0.04382,-0.06642l0.03424,-0.01506l-0.00721,-0.01451l0.25146,-0.24267c-0.04827,-0.22566 -0.03759,-0.50921 0.054,-0.83422l0.07294,-0.22464c0,0 0.10346,-0.31865 0.33138,-0.2104zM361.44886,149.24984c0.07854,0.03732 0.11774,0.09959 0.13539,0.16522c0.05576,-0.00129 0.1109,-0.01934 0.16418,-0.05013c-0.03483,-0.24397 -0.07305,-0.48702 -0.1203,-0.72878c0,0 -0.01818,-0.09335 0.0041,-0.19702c-0.13622,-0.01751 -0.26218,-0.06817 -0.37701,-0.14515c-0.09748,0.31011 -0.18426,0.63007 -0.27245,0.94931c0.03862,-0.0083 0.0761,-0.01344 0.11122,-0.0135c0,0 0.07137,0.00056 0.1337,0.05274c0.05325,-0.04894 0.12645,-0.0777 0.22117,-0.03272zM360.25089,147.75237c-0.00696,0.02144 -0.0145,0.04095 -0.02248,0.05871c0.13649,-0.1196 0.28183,-0.21718 0.46049,-0.2844c-0.03431,-0.08416 -0.06486,-0.17181 -0.09156,-0.26185c-0.3705,-0.12673 -0.70932,-0.33535 -1.04098,-0.5617c-0.11998,0.14659 0.07263,0.47418 0.22964,0.76481l0.34043,-0.14244c0,0 0.22792,0.10825 0.12446,0.42689zM360.48481,148.79203c0,0 0.06979,0.03314 0.11462,0.11676c0.07188,-0.25738 0.14073,-0.51249 0.21025,-0.75487c-0.24365,0.06522 -0.4217,0.2459 -0.60614,0.45812c0.06782,0.06746 0.16084,0.1256 0.28129,0.18001zM361.85596,144.23675l-0.10939,0.33694c0,0 -0.04917,0.15147 -0.15442,0.21005c0.12652,0.06267 0.23657,0.13521 0.34256,0.21083c0.074,-0.19402 0.14779,-0.38834 0.22083,-0.58343c-0.1283,-0.28962 -0.29009,-0.58201 -0.29958,-0.17439zM362.69762,145.37425l-0.23807,-0.09419c0,0 -0.01829,-0.00868 -0.04211,-0.02834c-0.00754,0.02089 -0.01507,0.04178 -0.02263,0.06267c0.01701,0.01007 0.0343,0.02003 0.05189,0.02978l0.17753,0.5386c0.21131,-0.09764 0.43059,-0.23267 0.62932,-0.39982c-0.13058,-0.08127 -0.31333,-0.11128 -0.5559,-0.1087zM361.42214,145.43281c-0.4687,-0.14341 -0.51529,0.59934 -0.36806,1.26008c0.07425,0.01807 0.14848,0.03468 0.22267,0.05038c0.137,-0.37962 0.27901,-0.7558 0.42226,-1.13162c-0.08493,-0.06544 -0.17251,-0.1301 -0.27685,-0.17884zM361.81153,146.8503c0.16056,0.0328 0.3201,0.06829 0.47798,0.11274c-0.00891,-0.19807 -0.11648,-0.36687 -0.36669,-0.39442c-0.03677,0.09392 -0.07385,0.1878 -0.11128,0.28166zM361.55348,147.48379c-0.01616,0.03886 -0.0324,0.07773 -0.04871,0.1166c-0.00018,0.00045 -0.00039,0.00094 -0.00057,0.00139c0.18676,0.12192 0.36536,0.08899 0.50498,-0.02006c-0.15057,-0.03812 -0.30275,-0.06875 -0.4557,-0.09793z" fill="#6de9ff" stroke-width="0.5"/><path d="M257.69598,223.44153c-6.35205,23.0518 -14.80522,40.82859 -18.88067,39.70558c-4.07546,-1.12301 -2.22991,-20.72057 4.12214,-43.77238c6.35205,-23.0518 14.80522,-40.82859 18.88067,-39.70558c4.07546,1.12301 2.22991,20.72057 -4.12214,43.77238z" fill="url(#color-18)" stroke-width="0"/><path d="M246.4973,121.49841c-8.85522,-16.38724 -19.14293,-27.99164 -22.97824,-25.91914c-3.83531,2.0725 0.23413,17.03707 9.08934,33.42432c8.85522,16.38724 19.14293,27.99164 22.97824,25.91914c3.83531,-2.0725 -0.23413,-17.03707 -9.08934,-33.42432z" fill="url(#color-19)" stroke-width="0"/><path d="M265.79964,83.956c-4.07106,-13.53627 -10.44793,-23.58428 -14.24315,-22.44287c-3.79522,1.14142 -3.5716,13.04004 0.49946,26.57631c4.07106,13.53627 10.44793,23.58428 14.24315,22.44287c3.79522,-1.14142 3.5716,-13.04004 -0.49946,-26.57631z" fill="url(#color-20)" stroke-width="0"/><path d="M271.44661,283.44755c-8.22362,15.07664 -17.71066,25.76024 -21.18988,23.86248c-3.47923,-1.89776 0.36687,-15.65823 8.59049,-30.73488c8.22362,-15.07664 17.71066,-25.76024 21.18988,-23.86248c3.47923,1.89776 -0.36687,15.65823 -8.59049,30.73488z" fill="url(#color-21)" stroke-width="0"/></g></g></svg>