<svg version="1.1" xmlns="http://www.w3.org/2000/svg" xmlns:xlink="http://www.w3.org/1999/xlink" width="328.76645" height="97.21271" viewBox="0,0,328.76645,97.21271"><defs><linearGradient x1="115.52524" y1="148.42644" x2="115.52524" y2="163.14224" gradientTransform="translate(-200.38278,-520.13728) scale(2.34208,3.26179)" gradientUnits="userSpaceOnUse" id="color-1"><stop offset="0" stop-color="#2fffce"/><stop offset="1" stop-color="#00daff"/></linearGradient></defs><g transform="translate(-68.88641,-122.54817)"><g data-paper-data="{&quot;isPaintingLayer&quot;:true}" fill-rule="nonzero" stroke-linecap="butt" stroke-linejoin="miter" stroke-miterlimit="10" stroke-dasharray="" stroke-dashoffset="0" style="mix-blend-mode: normal"><path d="M161.02606,140.82144v-15.23906h93.61135v15.23906z" fill="#fcfcfc" stroke="#000000" stroke-width="2.5"/><text transform="translate(163.63848,136.46742) scale(0.23584,0.23584)" font-size="40" xml:space="preserve" fill="#0a0a0a" fill-rule="nonzero" stroke="none" stroke-width="1" stroke-linecap="butt" stroke-linejoin="miter" stroke-miterlimit="10" stroke-dasharray="" stroke-dashoffset="0" font-family="Sans Serif" font-weight="normal" text-anchor="start" style="mix-blend-mode: normal"><tspan x="0" dy="0">TowerSize: Big</tspan></text><path d="M83.59714,218.51085v-76.49249h288.32853c0.37838,1.71158 2.47986,3.46486 3.92566,4.26878c1.5041,0.83102 5.44893,0.8267 6.34266,2.45211c0.19239,0.3499 0.10483,0.95451 -0.06518,1.56196c-0.34073,0.29704 -0.69906,0.58821 -1.08252,0.87581c0,0 -0.2,0.15 -0.05,0.35c0.15,0.2 0.35,0.05 0.35,0.05c0.14503,-0.10878 0.3055,-0.22958 0.47807,-0.36095c-0.10549,0.28271 -0.20546,0.53059 -0.27193,0.70792c-1.35488,3.6152 -0.86311,3.72778 0.4682,0.17547c0.13335,-0.35581 0.34233,-0.87649 0.50854,-1.4285c1.95432,-1.538 4.67941,-3.92485 4.96375,-5.73897c0.13667,-1.02342 0.08243,-1.98282 -0.06972,-2.91363h8.97966v76.49249h-38.51416c-0.06005,-0.82581 -0.14274,-1.65254 -0.25244,-2.48787c-0.06644,-0.50592 -0.02149,-1.7613 -0.43013,-2.1227c-0.30861,-0.27293 -1.57987,-0.43532 -2.01446,-0.57404c-3.09907,-0.85978 -5.69167,-1.21303 -8.90777,-1.21303c0,0 -0.25,0 -0.25,0.25c0,0.25 0.25,0.25 0.25,0.25c3.17409,0 5.7062,0.34421 8.76489,1.19218c0.40735,0.1301 1.54763,0.25221 1.83388,0.47617c0.23798,0.18619 0.21841,1.50625 0.25785,1.80653c0.10687,0.81378 0.18575,1.61889 0.24331,2.42277h-13.79747c-1.87121,-0.69512 -3.59591,-1.62081 -4.49384,-3.39735c-0.11035,-2.61766 -0.66012,-2.68629 -0.48382,0.12615c0.77256,1.60951 2.13928,2.56712 3.70209,3.2712h-160.36327c-1.12497,-1.37636 -2.28958,-2.7258 -3.40258,-4.09564c0,0 -0.15765,-0.19403 -0.35168,-0.03638c-0.19403,0.15765 -0.03638,0.35168 -0.03638,0.35168c0.98514,1.21248 1.9369,2.51759 2.92943,3.78035h-7.68003c0.20894,-0.30761 0.3243,-0.64268 0.31928,-1.00976c-0.14359,-1.59194 -2.77429,-4.91981 -1.18963,-6.27358c0.14581,-0.12457 1.57779,0.05992 1.83761,0.05992c0,0 0.25,0 0.25,-0.25c0,-0.25 -0.25,-0.25 -0.25,-0.25c-0.4195,0 -1.84765,-0.20896 -2.16239,0.05992c-1.93181,1.65034 0.84673,4.82867 1.01507,6.67964c0.00458,0.3541 -0.16199,0.6809 -0.45308,0.98387z" fill="#218e90" stroke="#000000" stroke-width="2.5"/><path d="M84.66201,217.94282v-76.4537h74.68599v76.4537z" fill="#b3b9b9" stroke="#000000" stroke-width="0.5"/><text transform="translate(113.37106,206.78926) scale(0.44104,0.5)" font-size="40" xml:space="preserve" fill="#000000" fill-rule="nonzero" stroke="none" stroke-width="1" stroke-linecap="butt" stroke-linejoin="miter" stroke-miterlimit="10" stroke-dasharray="" stroke-dashoffset="0" font-family="Marker" font-weight="normal" text-anchor="start" style="mix-blend-mode: normal"><tspan x="0" dy="0">1800</tspan></text><text transform="translate(160.00078,165.95974) scale(0.18652,0.41978)" font-size="40" xml:space="preserve" fill="#ffffff" fill-rule="nonzero" stroke="#000000" stroke-width="0" stroke-linecap="butt" stroke-linejoin="miter" stroke-miterlimit="10" stroke-dasharray="" stroke-dashoffset="0" font-family="Serif" font-weight="normal" text-anchor="start" style="mix-blend-mode: normal"><tspan x="0" dy="0">Has 2 Attacks A simple Burst Attack that does Really good Damage</tspan><tspan x="0" dy="48px">and one were Powers Up and then Lets out a Giant Explosion Killing anything</tspan><tspan x="0" dy="48px">in the Area, Good Endgame Tower!</tspan></text><g stroke="#000000"><path d="M101.88066,210.27296c-6.07513,0 -11,-4.64505 -11,-10.375c0,-5.72995 4.92487,-10.375 11,-10.375c6.07513,0 11,4.64505 11,10.375c0,5.72995 -4.92487,10.375 -11,10.375z" fill="#ffd036" stroke-width="1"/><path d="M109.81816,199.77296c0,4.55635 -3.55374,8.25 -7.9375,8.25c-4.38376,0 -7.9375,-3.69365 -7.9375,-8.25c0,-4.55635 3.55374,-8.25 7.9375,-8.25c4.38376,0 7.9375,3.69365 7.9375,8.25z" fill="#e0b82f" stroke-width="1"/><text transform="translate(97.03046,205.49171) scale(0.4349,0.4349)" font-size="40" xml:space="preserve" fill="#000000" fill-rule="nonzero" stroke="#000000" stroke-width="0" stroke-linecap="butt" stroke-linejoin="miter" stroke-miterlimit="10" stroke-dasharray="" stroke-dashoffset="0" font-family="Sans Serif" font-weight="normal" text-anchor="start" style="mix-blend-mode: normal"><tspan x="0" dy="0">$</tspan></text></g><text transform="translate(85.55743,159.46369) scale(0.42697,0.30658)" font-size="40" xml:space="preserve" fill="url(#color-1)" fill-rule="nonzero" stroke="#96fffa" stroke-width="1" stroke-linecap="butt" stroke-linejoin="miter" stroke-miterlimit="10" stroke-dasharray="" stroke-dashoffset="0" font-family="Sans Serif" font-weight="normal" text-anchor="start" style="mix-blend-mode: normal"><tspan x="0" dy="0">Regice</tspan></text><path d="M265.69651,122.5679c0.74984,-0.01541 0.76525,0.73443 0.76525,0.73443l0.0088,0.51814c0.0737,0.81596 -0.38901,1.84349 0.15879,2.4527c0.49571,0.55128 1.47626,-0.16994 2.21764,-0.16991c2.22995,0.00009 5.60651,-0.6258 7.72308,0.05322c3.1527,1.01142 3.92118,4.63504 4.02144,7.50368c1.03729,0.08588 2.33914,0.20316 2.97027,-0.58018c0.47358,-0.5878 0.58707,-1.39099 0.89613,-2.07966c0.53482,-1.60784 0.94207,-5.37777 3.4563,-5.12062c1.97321,0.20181 1.53991,1.66357 2.16164,2.77566c0.48212,0.86237 1.43327,1.38728 1.96102,2.2225c2.10474,3.33095 2.31939,6.47978 6.10818,7.61938c0.47616,0.14322 1.73903,1.08555 2.4502,0.8613c0.99792,-0.31467 1.595,-1.35557 2.41746,-2.00243c1.18589,0.71912 2.71885,1.59611 3.59733,2.80418c0.10732,-0.15684 0.2457,-0.24333 0.2457,-0.24333c1.68866,-1.05541 3.35053,-2.20766 5.08799,-3.17999c0.57608,-0.32239 1.10747,-0.9851 1.76253,-0.90321c1.70196,0.21276 2.53555,3.53906 4.00594,4.02948c2.70143,0.901 8.66891,-3.13818 10.26407,0.05173l0.48956,-0.11201c0,0 0.75,0 0.75,0.75c0,0.75 -0.75,0.75 -0.75,0.75l-1.27816,-0.11201c-1.3078,-2.61594 -7.49912,1.00903 -10.06466,0.05173c-1.2223,-0.45609 -2.56233,-3.79044 -3.60282,-3.92051c-0.34411,-0.04302 -0.50025,0.48386 -0.78147,0.68679c-1.36783,0.98703 -2.87274,1.83496 -4.3271,2.71329c0.10738,0.30201 -0.04564,0.60804 -0.04564,0.60804l-0.99261,1.28876c-1.57599,-1.12237 -2.92399,-2.37488 -4.26692,-3.76589c-1.83453,2.39386 -2.76886,1.8704 -5.30604,1.10394c-1.26343,-0.38167 -2.53572,-0.83113 -3.442,-1.60028c-2.29228,-1.94545 -2.58401,-5.50921 -4.50898,-7.71036c-0.42644,-0.48762 -1.52342,-3.17487 -2.1152,-3.27761c-0.98974,-0.17184 -1.69104,3.6143 -1.87856,4.17574c-0.17633,0.39482 -1.07562,2.42562 -1.16359,2.52148c-3.00237,3.27176 -8.44978,-0.84051 -11.75065,0.68188c-1.5097,0.69629 -4.94898,4.05281 -5.64225,5.6233c-0.32197,0.72937 0.04659,1.59409 0.04659,2.39136c0,0 0,0.75 -0.75,0.75c-0.75,0 -0.75,-0.75 -0.75,-0.75c0,-0.10189 -0.01649,-2.76027 0.04659,-2.91178c0.78455,-1.88452 4.59926,-5.6817 6.44194,-6.47451c1.71611,-0.73836 4.64714,0.00225 6.75651,0.19625c-0.0759,-2.21475 -0.54974,-5.26186 -2.96715,-5.98404c-1.99556,-0.59616 -5.1769,0.01483 -7.27675,0.01474c-0.33012,-0.00001 -2.93579,0.05054 -3.16857,-0.17009c-0.5254,-0.498 -0.63472,-2.7477 -0.70161,-3.47668l-0.01466,-0.62334c0,0 -0.01541,-0.74984 0.73443,-0.76525z" fill="#2efdff" stroke="none" stroke-width="0.5"/><path d="M93.50057,123.87395c0.75,0 0.75,0.75 0.75,0.75l-0.41242,-0.22769c0.7989,0.44154 1.37882,1.28214 1.72565,2.12648c-0.00783,1.52683 1.29248,4.04701 -0.29891,5.33858c-0.43008,0.34905 -1.11,0.0423 -1.65629,0.13375c-1.36579,0.22863 -2.61564,1.01621 -3.94356,1.32007c-1.1855,0.27127 -2.42752,-0.18165 -3.57478,-0.2206c-0.88863,-0.03017 1.0484,1.44556 1.45039,2.23864c0.8286,1.63473 1.6774,2.55298 1.82636,4.29693c0.34794,0.06131 0.64896,0.13295 0.88514,0.21038c0.59742,0.30374 1.14987,0.70237 1.65202,1.1511c1.44309,-1.82792 2.88619,-3.65584 4.32928,-5.48376c0.28168,-0.3568 1.94809,-2.52533 2.23727,-2.60982c0.93669,-0.27367 3.7551,1.15609 4.70752,1.48658c3.68044,1.27713 8.2299,2.07407 10.22499,5.82925c0.28844,0.57688 0.02915,1.93561 0.66325,1.81769c2.02037,-0.37574 3.93377,-2.93313 6.24262,-3.39322c3.56524,-0.71045 1.92143,2.38773 3.85855,3.75374c0.17822,0.12568 2.59817,-1.66858 2.80008,-1.82055c2.21498,-1.66721 2.82748,-1.91813 5.31898,-0.27202l-0.88852,1.07789l0.05647,0.17019c-0.00972,-0.00655 -0.0542,-0.03866 -0.12395,-0.08832l-0.21807,0.26455c0,0 -0.74846,0.0481 -0.79656,-0.70036c-0.00565,-0.08792 -0.00031,-0.16617 0.01352,-0.23582c-0.36895,-0.22749 -0.72356,-0.41494 -0.87706,-0.40441c-1.48099,0.10154 -3.61049,4.37158 -5.73645,3.43927c-1.63589,-0.71739 -1.18455,-3.16847 -2.2868,-3.95406c-0.59555,-0.42446 -1.3842,0.47383 -2.06606,0.73826c-1.43677,0.55718 -4.25546,3.11631 -5.77109,2.84789c-0.35933,-0.06364 -1.42375,-2.3563 -1.53054,-2.56989c-1.52117,-3.32562 -6.27201,-4.00618 -9.37509,-5.08296c-0.55968,-0.19421 -3.30845,-1.60606 -3.79512,-1.46388c-0.82198,0.24015 -0.94997,1.42735 -1.4806,2.09948c-1.51852,1.92346 -3.03705,3.84693 -4.55557,5.77039c-0.08095,0.17478 -0.22036,0.27348 -0.352,0.32921c-0.16645,0.09137 -0.40091,0.14654 -0.66809,-0.00445l-0.63259,-0.14293c-0.44807,-0.45582 -0.95,-0.88285 -1.5244,-1.16321c-1.84033,-0.62649 -2.71928,0.05709 -4.57421,0.05709c-0.46626,0 -2.1684,-0.05384 -2.41724,0.72587c-0.34087,1.06806 -0.08213,2.58785 -0.45631,3.6936c-0.24241,0.71634 -1.25352,1.14532 -1.23767,1.90139c0.03568,1.70185 2.41596,3.86474 3.64339,4.67911c0,0 0.62404,0.41603 0.20801,1.04006c-0.41603,0.62404 -1.04006,0.20801 -1.04006,0.20801c-1.56855,-1.05028 -4.33112,-3.71117 -4.31134,-5.92718c0.01074,-1.20343 0.97631,-1.34265 1.31029,-2.36248c0.34457,-1.05216 0.08753,-2.90187 0.53116,-3.88111c0.77113,-1.70214 4.02982,-2.06208 6.51392,-1.9051c-0.32347,-2.17395 -2.42588,-3.54505 -2.96213,-5.67875c-0.13957,-0.55536 -0.30973,-1.33048 0.11549,-1.71401c0.31768,-0.28653 2.97928,-0.23741 3.54441,-0.23413c1.70063,0.00985 3.15072,-1.14395 4.84669,-1.31797c0.33299,-0.03417 0.71076,0.3101 0.99528,0.13375c0.5681,-0.35211 -0.29717,-3.49078 -0.29891,-3.84843c-0.1474,-0.44471 -0.49093,-0.87999 -0.92375,-1.05933l-0.41459,-1.11275c0,0 0,-0.75 0.75,-0.75z" fill="#2efdff" stroke="none" stroke-width="0.5"/><path d="M101.89721,140.22532c0.75,0 0.75,0.75 0.75,0.75v2.20964c0,0.41421 -0.33579,0.75 -0.75,0.75c-0.28155,0 -0.52686,-0.15514 -0.65512,-0.38459l-0.31346,-0.53773c-1.67821,0.45685 -2.87143,2.14985 -4.55916,2.65785c-2.22866,0.67082 -4.72756,-0.56999 -3.98166,-2.82094c0,0 0.33541,-0.67082 1.00623,-0.33541c0.67082,0.33541 0.33541,1.00623 0.33541,1.00623c-0.81528,0.63249 1.58451,0.93565 2.20534,0.71449c2.17976,-0.77651 2.97235,-2.16094 5.21241,-2.52876v-0.73078c0,0 0,-0.75 0.75,-0.75z" fill="#2efdff" stroke="none" stroke-width="0.5"/><path d="M365.59492,130.81096c0,0.75 -0.75,0.75 -0.75,0.75h-0.0935c-1.28716,0 -3.96675,0.6596 -5.53917,0.51054c0.29317,0.27326 0.53537,0.60577 0.79211,0.91477c1.01829,1.22557 1.70191,2.05354 3.04694,2.94573c0,0 0.62404,0.41603 0.20801,1.04006c-0.41603,0.62404 -1.04006,0.20801 -1.04006,0.20801c-1.71655,-1.14961 -3.14563,-2.62866 -4.36383,-4.2992c-0.31651,-0.43403 -1.04971,-0.92266 -0.80062,-1.3986c0.93055,-1.77801 6.11858,-1.42131 7.69661,-1.42131h0.0935c0,0 0.75,0 0.75,0.75z" fill="#2efdff" stroke="none" stroke-width="0.5"/><path d="M388.11409,136.72466c-0.16863,0.7308 -0.89943,0.56217 -0.89943,0.56217l-1.34392,-0.33994c-0.62839,-0.60735 -1.00132,-1.59904 -1.82957,-1.87786c-1.90231,-0.64038 -6.19777,0.16299 -6.07224,2.37086c0,0 0,0.75 -0.75,0.75c-0.75,0 -0.75,-0.75 -0.75,-0.75c0.12345,-3.30803 5.04176,-4.84587 8.1265,-3.7647c0.2492,0.08734 1.76813,1.71463 2.00245,1.95973l0.95404,0.19032c0,0 0.7308,0.16863 0.56217,0.89943z" fill="#2efdff" stroke="none" stroke-width="0.5"/><path d="M142.68853,123.29817c0,-0.75 0.75,-0.75 0.75,-0.75l0.69019,0.04228c1.7791,0.63412 3.04564,2.12101 4.75205,2.81297c1.3925,0.56467 1.97698,-0.17895 2.76346,1.5851c0.42281,0.94834 0.05709,3.20546 0.05709,4.26437c0,0 0,0.75 -0.75,0.75c-0.75,0 -0.75,-0.75 -0.75,-0.75c0,-0.98038 0.34777,-2.76759 0.05709,-3.69035c-0.23934,-0.7598 -1.54698,-0.60609 -1.946,-0.77097c-1.6908,-0.69866 -2.92412,-2.18146 -4.68022,-2.78569l-0.19366,0.04228c0,0 -0.75,0 -0.75,-0.75z" fill="#2efdff" stroke="none" stroke-width="0.5"/><path d="M69.59618,172.21634c-0.15565,-0.01272 -0.70977,-0.10326 -0.70977,-0.74792c0,-0.75 0.75,-0.75 0.75,-0.75l1.11275,0.41459c0.32951,0.65902 1.57783,4.33208 2.10089,4.45631c0.59071,0.1403 0.94789,-0.77991 1.49894,-1.03481c1.29547,-0.59924 2.08579,-1.34391 3.34866,-1.9892c0,0 0.67082,-0.33541 1.00623,0.33541c0.33541,0.67082 -0.33541,1.00623 -0.33541,1.00623c-1.24539,0.60542 -4.18202,3.5626 -5.75869,3.163c-1.49205,-0.37815 -2.34164,-3.27955 -3.01359,-4.85361z" fill="#2efdff" stroke="none" stroke-width="0.5"/><path d="M133.90064,141.72574c0.17264,0.18081 -0.00817,0.35346 -0.00817,0.35346l-0.29118,0.27803c-1.08895,0.84119 -0.82112,-0.30602 -1.69431,-0.64597c-0.89692,-0.34918 -2.18847,0.57886 -3.39443,-0.01389c0,0 -0.22361,-0.1118 -0.1118,-0.33541c0.1118,-0.22361 0.33541,-0.1118 0.33541,-0.1118c1.26008,0.64282 2.26968,-0.37628 3.34012,-0.00936c0.53285,0.18265 0.79295,1.32676 1.17973,0.75481l0.29118,-0.27803c0,0 0.18081,-0.17264 0.35346,0.00817z" fill="#49fcff" stroke="none" stroke-width="0.5"/><path d="M149.89928,141.65225c0.24614,0.04377 0.20237,0.28991 0.20237,0.28991l-0.00289,0.01626c-0.42515,2.1151 -2.00126,0.50393 -3.0211,0.17812c-1.216,-0.38848 -2.08316,0.34628 -3.05507,0.8347c0,0 -0.22361,0.1118 -0.33541,-0.1118c-0.1118,-0.22361 0.1118,-0.33541 0.1118,-0.33541c2.24598,-1.11676 2.48887,-0.5053 4.65309,-0.07994c0.67785,0.13323 1.04644,0.16516 1.15441,-0.57322l0.00289,-0.01626c0,0 0.04377,-0.24614 0.28991,-0.20237z" fill="#49fcff" stroke="none" stroke-width="0.5"/><path d="M139.66785,149.36696c-0.24998,0.0033 -0.25328,-0.24668 -0.25328,-0.24668l-0.00157,-0.11879c-0.01296,-0.98648 -0.03337,-2.40738 -0.77448,-3.10472c0,0 -0.17678,-0.17678 0,-0.35355c0.17678,-0.17678 0.35355,0 0.35355,0c0.82817,0.86564 0.90537,2.2803 0.92088,3.45168l0.00157,0.11879c0,0 0.0033,0.24998 -0.24668,0.25328z" fill="#49fcff" stroke="none" stroke-width="0.5"/><path d="M95.86303,180.29778c0.24131,-0.06534 0.30665,0.17597 0.30665,0.17597l-0.09368,0.25546c1.36483,0.16374 2.45443,0.46473 3.88509,0.36385c0.16818,-0.01181 1.18387,0.0395 1.29345,-0.11835c0.24682,-0.35553 -0.11807,-1.4841 0.105,-1.95164c0.89147,-1.86841 2.95459,-2.5556 4.75978,-2.5556c0,0 0.25,0 0.25,0.25c0,0.25 -0.25,0.25 -0.25,0.25c-1.63878,0 -3.4876,0.55039 -4.30851,2.27091c-0.2468,0.51725 0.19361,1.58977 -0.15726,2.03764c-0.28669,0.36596 -1.25089,0.28725 -1.65743,0.31581c-1.45212,0.10161 -2.59253,-0.2102 -3.97795,-0.36598l-0.33111,-0.62143c0,0 -0.06534,-0.24131 0.17597,-0.30665z" fill="#49fcff" stroke="none" stroke-width="0.5"/><path d="M122.65727,181.63734c-0.249,-0.02236 -0.22664,-0.27136 -0.22664,-0.27136l0.01227,-0.1367c0.13204,-0.65936 -1.82596,-1.39895 -2.43505,-1.74699c0,0 -0.21706,-0.12403 -0.09303,-0.3411c0.12403,-0.21706 0.3411,-0.09303 0.3411,-0.09303c0.93693,0.53539 2.71594,1.09053 2.68498,2.22583l-0.01227,0.1367c0,0 -0.02236,0.249 -0.27136,0.22664z" fill="#49fcff" stroke="none" stroke-width="0.5"/></g></g></svg>