<svg version="1.1" xmlns="http://www.w3.org/2000/svg" xmlns:xlink="http://www.w3.org/1999/xlink" width="315.30573" height="95.4285" viewBox="0,0,315.30573,95.4285"><defs><linearGradient x1="83.59713" y1="180.26464" x2="396.40294" y2="180.26464" gradientUnits="userSpaceOnUse" id="color-1"><stop offset="0" stop-color="#a38d50"/><stop offset="1" stop-color="#e3db5f"/></linearGradient><radialGradient cx="120.99911" cy="179.53839" r="35.27729" gradientUnits="userSpaceOnUse" id="color-2"><stop offset="0" stop-color="#ffd100"/><stop offset="1" stop-color="#ffd100" stop-opacity="0"/></radialGradient><radialGradient cx="120.9991" cy="179.53841" r="4.87619" gradientUnits="userSpaceOnUse" id="color-3"><stop offset="0" stop-color="#ffd100"/><stop offset="1" stop-color="#ffd100" stop-opacity="0"/></radialGradient><radialGradient cx="120.99911" cy="179.53844" r="4.87712" gradientUnits="userSpaceOnUse" id="color-4"><stop offset="0" stop-color="#fff721"/><stop offset="1" stop-color="#fff721" stop-opacity="0"/></radialGradient><radialGradient cx="120.99912" cy="179.53839" r="3.78086" gradientUnits="userSpaceOnUse" id="color-5"><stop offset="0" stop-color="#ffd100"/><stop offset="1" stop-color="#ffd100" stop-opacity="0"/></radialGradient><radialGradient cx="120.99915" cy="179.53844" r="3.78164" gradientUnits="userSpaceOnUse" id="color-6"><stop offset="0" stop-color="#fff721"/><stop offset="1" stop-color="#fff721" stop-opacity="0"/></radialGradient><radialGradient cx="120.99912" cy="179.53839" r="7.28697" gradientUnits="userSpaceOnUse" id="color-7"><stop offset="0" stop-color="#ffd100"/><stop offset="1" stop-color="#ffd100" stop-opacity="0"/></radialGradient><radialGradient cx="120.98925" cy="208.20519" r="5.16976" gradientUnits="userSpaceOnUse" id="color-8"><stop offset="0" stop-color="#ffd100"/><stop offset="1" stop-color="#ffd100" stop-opacity="0"/></radialGradient><linearGradient x1="115.81949" y1="208.20519" x2="126.159" y2="208.20519" gradientUnits="userSpaceOnUse" id="color-9"><stop offset="0" stop-color="#f2ff21"/><stop offset="1" stop-color="#f2ff21" stop-opacity="0"/></linearGradient><radialGradient cx="120.86914" cy="150.67395" r="5.16976" gradientUnits="userSpaceOnUse" id="color-10"><stop offset="0" stop-color="#ffd100"/><stop offset="1" stop-color="#ffd100" stop-opacity="0"/></radialGradient><linearGradient x1="115.69939" y1="150.67395" x2="126.03889" y2="150.67395" gradientUnits="userSpaceOnUse" id="color-11"><stop offset="0" stop-color="#f2ff21"/><stop offset="1" stop-color="#f2ff21" stop-opacity="0"/></linearGradient><radialGradient cx="151.37631" cy="179.85993" r="5.16898" gradientUnits="userSpaceOnUse" id="color-12"><stop offset="0" stop-color="#ffd100"/><stop offset="1" stop-color="#ffd100" stop-opacity="0"/></radialGradient><linearGradient x1="148.53278" y1="179.85993" x2="154.21981" y2="179.85993" gradientUnits="userSpaceOnUse" id="color-13"><stop offset="0" stop-color="#f2ff21"/><stop offset="1" stop-color="#f2ff21" stop-opacity="0"/></linearGradient><radialGradient cx="90.96251" cy="180.10016" r="5.16898" gradientUnits="userSpaceOnUse" id="color-14"><stop offset="0" stop-color="#ffd100"/><stop offset="1" stop-color="#ffd100" stop-opacity="0"/></radialGradient><linearGradient x1="88.11899" y1="180.10016" x2="93.80602" y2="180.10016" gradientUnits="userSpaceOnUse" id="color-15"><stop offset="0" stop-color="#f2ff21"/><stop offset="1" stop-color="#f2ff21" stop-opacity="0"/></linearGradient><radialGradient cx="99.00967" cy="161.36344" r="4.37417" gradientUnits="userSpaceOnUse" id="color-16"><stop offset="0" stop-color="#ffd100"/><stop offset="1" stop-color="#ffd100" stop-opacity="0"/></radialGradient><linearGradient x1="94.63549" y1="161.36344" x2="103.38383" y2="161.36344" gradientUnits="userSpaceOnUse" id="color-17"><stop offset="0" stop-color="#f2ff21"/><stop offset="1" stop-color="#f2ff21" stop-opacity="0"/></linearGradient><radialGradient cx="143.80955" cy="161.12324" r="4.37418" gradientUnits="userSpaceOnUse" id="color-18"><stop offset="0" stop-color="#ffd100"/><stop offset="1" stop-color="#ffd100" stop-opacity="0"/></radialGradient><linearGradient x1="139.43539" y1="161.12324" x2="148.18372" y2="161.12324" gradientUnits="userSpaceOnUse" id="color-19"><stop offset="0" stop-color="#f2ff21"/><stop offset="1" stop-color="#f2ff21" stop-opacity="0"/></linearGradient><radialGradient cx="143.56935" cy="197.87596" r="4.37417" gradientUnits="userSpaceOnUse" id="color-20"><stop offset="0" stop-color="#ffd100"/><stop offset="1" stop-color="#ffd100" stop-opacity="0"/></radialGradient><linearGradient x1="139.19517" y1="197.87596" x2="147.94352" y2="197.87596" gradientUnits="userSpaceOnUse" id="color-21"><stop offset="0" stop-color="#f2ff21"/><stop offset="1" stop-color="#f2ff21" stop-opacity="0"/></linearGradient><radialGradient cx="101.89224" cy="201.59928" r="4.37417" gradientUnits="userSpaceOnUse" id="color-22"><stop offset="0" stop-color="#ffd100"/><stop offset="1" stop-color="#ffd100" stop-opacity="0"/></radialGradient><linearGradient x1="97.51806" y1="201.59927" x2="106.26639" y2="201.59927" gradientUnits="userSpaceOnUse" id="color-23"><stop offset="0" stop-color="#f2ff21"/><stop offset="1" stop-color="#f2ff21" stop-opacity="0"/></linearGradient><radialGradient cx="120.93905" cy="194.19145" r="11.16994" gradientUnits="userSpaceOnUse" id="color-24"><stop offset="0" stop-color="#ffd100"/><stop offset="1" stop-color="#ffd100" stop-opacity="0"/></radialGradient><linearGradient x1="119.73798" y1="194.19145" x2="122.14012" y2="194.19145" gradientUnits="userSpaceOnUse" id="color-25"><stop offset="0" stop-color="#f2ff21"/><stop offset="1" stop-color="#f2ff21" stop-opacity="0"/></linearGradient><radialGradient cx="132.76959" cy="179.53841" r="8.70776" gradientUnits="userSpaceOnUse" id="color-26"><stop offset="0" stop-color="#ffd100"/><stop offset="1" stop-color="#ffd100" stop-opacity="0"/></radialGradient><linearGradient x1="124.06183" y1="179.53841" x2="141.47734" y2="179.53841" gradientUnits="userSpaceOnUse" id="color-27"><stop offset="0" stop-color="#f2ff21"/><stop offset="1" stop-color="#f2ff21" stop-opacity="0"/></linearGradient><radialGradient cx="118.51079" cy="179.63254" r="16.73905" gradientUnits="userSpaceOnUse" id="color-28"><stop offset="0" stop-color="#eae400"/><stop offset="1" stop-color="#eae400" stop-opacity="0"/></radialGradient></defs><g transform="translate(-82.34713,-124.33238)"><g data-paper-data="{&quot;isPaintingLayer&quot;:true}" fill-rule="nonzero" stroke-linejoin="miter" stroke-miterlimit="10" stroke-dasharray="" stroke-dashoffset="0" style="mix-blend-mode: normal"><path d="M83.59713,218.51088v-76.49249h312.80573v76.49249z" fill="url(#color-1)" stroke="#000000" stroke-width="2.5" stroke-linecap="butt"/><path d="M84.66201,217.94285v-76.4537h74.68599v76.4537z" fill="#727272" stroke="#000000" stroke-width="0.5" stroke-linecap="butt"/><path d="M121.39166,213.23708c-18.54365,0 -35.66984,-15.08745 -35.66984,-33.69874c0,-18.61129 17.12619,-33.69865 35.66984,-33.69865c18.54365,0 34.88473,15.08736 34.88473,33.69865c0,18.61129 -16.34108,33.69874 -34.88473,33.69874z" fill="url(#color-2)" stroke="#f9ff21" stroke-width="2" stroke-linecap="butt"/><path d="M121.21002,184.35367c-2.69049,0.14154 -4.96599,-1.8996 -5.08245,-4.55897c-0.11655,-2.65946 1.97014,-4.93005 4.66063,-5.07159c2.69049,-0.14144 4.96599,1.89971 5.08245,4.55907c0.11646,2.65946 -1.97014,4.93005 -4.66063,5.07149z" fill="url(#color-3)" stroke="url(#color-4)" stroke-width="3" stroke-linecap="butt"/><path d="M121.16269,183.27204c-2.08611,0.10973 -3.85043,-1.4729 -3.94085,-3.53489c-0.09022,-2.06209 1.52766,-3.82267 3.61378,-3.93239c2.08611,-0.10973 3.85043,1.47289 3.94076,3.53498c0.09033,2.062 -1.52756,3.82257 -3.61368,3.93231z" fill="url(#color-5)" stroke="url(#color-6)" stroke-width="3" stroke-linecap="butt"/><path d="M121.31787,186.81615c-3.81037,0.20044 -7.04201,-2.89544 -7.21804,-6.91479c-0.17602,-4.01945 2.77015,-7.44029 6.58052,-7.64072c3.81037,-0.20044 7.04201,2.89544 7.21804,6.91479c0.17612,4.01945 -2.77015,7.44029 -6.58052,7.64072z" fill="url(#color-7)" stroke="#f9ff21" stroke-width="2" stroke-linecap="butt"/><path d="M126.14814,207.95657c0.18352,1.56341 -1.97744,2.94223 -4.82657,3.07954c-2.84913,0.1373 -5.30768,-1.0187 -5.4912,-2.5822c-0.18352,-1.56351 1.97744,-2.94233 4.82666,-3.07964c2.84913,-0.1373 5.30758,1.01879 5.4911,2.5823z" data-paper-data="{&quot;index&quot;:null}" fill="url(#color-8)" stroke="url(#color-9)" stroke-width="2.5" stroke-linecap="butt"/><path d="M120.53693,153.50488c-2.84922,-0.1373 -5.01018,-1.51614 -4.82666,-3.07964c0.18352,-1.56351 2.64207,-2.71952 5.4912,-2.5822c2.84913,0.1373 5.01009,1.51614 4.82657,3.07954c-0.18352,1.56351 -2.64197,2.7196 -5.4911,2.5823z" data-paper-data="{&quot;index&quot;:null}" fill="url(#color-10)" stroke="url(#color-11)" stroke-width="2.5" stroke-linecap="butt"/><path d="M148.54871,179.50051c0.1647,-2.84778 1.56423,-4.99538 3.1259,-4.79683c1.56167,0.19856 2.69398,2.66809 2.52928,5.51576c-0.1647,2.84768 -1.56424,4.99528 -3.12581,4.79674c-1.56167,-0.19856 -2.69408,-2.66799 -2.52938,-5.51567z" data-paper-data="{&quot;index&quot;:null}" fill="url(#color-12)" stroke="url(#color-13)" stroke-width="2.5" stroke-linecap="butt"/><path d="M91.26072,185.2564c-1.56157,0.19856 -2.96112,-1.94906 -3.12581,-4.79674c-0.1647,-2.84768 0.96762,-5.31722 2.52928,-5.51577c1.56167,-0.19856 2.96121,1.94906 3.12591,4.79684c0.1647,2.84768 -0.96772,5.31713 -2.52939,5.51568z" data-paper-data="{&quot;index&quot;:null}" fill="url(#color-14)" stroke="url(#color-15)" stroke-width="2.5" stroke-linecap="butt"/><path d="M95.13427,164.77772c-1.11921,-1.10692 -0.29148,-3.533 1.84881,-5.41861c2.1403,-1.88561 4.78267,-2.51696 5.90195,-1.40997c1.11928,1.107 0.29155,3.53307 -1.84882,5.41875c-2.1403,1.88561 -4.78266,2.51684 -5.90193,1.40983z" data-paper-data="{&quot;index&quot;:null}" fill="url(#color-16)" stroke="url(#color-17)" stroke-width="2.5" stroke-linecap="butt"/><path d="M141.78302,163.12767c-2.14037,-1.88567 -2.96811,-4.31174 -1.84882,-5.41873c1.11928,-1.10701 3.76165,-0.47564 5.90194,1.40997c2.1403,1.88561 2.96803,4.31167 1.84881,5.4186c-1.11928,1.10701 -3.76164,0.47578 -5.90193,-1.40983z" data-paper-data="{&quot;index&quot;:null}" fill="url(#color-18)" stroke="url(#color-19)" stroke-width="2.5" stroke-linecap="butt"/><path d="M147.44474,194.46169c1.11921,1.10693 0.29149,3.53299 -1.84881,5.4186c-2.1403,1.88561 -4.78267,2.51698 -5.90194,1.40997c-1.11928,-1.10701 -0.29155,-3.53307 1.84883,-5.41873c2.1403,-1.88561 4.78266,-2.51685 5.90193,-1.40984z" data-paper-data="{&quot;index&quot;:null}" fill="url(#color-20)" stroke="url(#color-21)" stroke-width="2.5" stroke-linecap="butt"/><path d="M103.91877,199.59484c2.14037,1.88567 2.9681,4.31174 1.84883,5.41875c-1.11928,1.10701 -3.76165,0.47564 -5.90194,-1.40997c-2.1403,-1.88561 -2.96803,-4.31167 -1.84881,-5.4186c1.11928,-1.10701 3.76164,-0.47577 5.90193,1.40984z" data-paper-data="{&quot;index&quot;:null}" fill="url(#color-22)" stroke="url(#color-23)" stroke-width="2.5" stroke-linecap="butt"/><path d="M121.29937,183.02151l-0.72064,22.33989" fill="url(#color-24)" stroke="url(#color-25)" stroke-width="2.5" stroke-linecap="round"/><path d="M124.06183,179.53841h17.41551" fill="url(#color-26)" stroke="url(#color-27)" stroke-width="2.5" stroke-linecap="round"/><path d="M118.0544,193.46344c-7.37377,0 -13.35139,-6.23446 -13.35139,-13.92505c0,-7.69059 5.97762,-13.92506 13.35139,-13.92506c7.37377,0 13.35138,6.23446 13.35138,13.92506c0,7.69059 -5.97761,13.92505 -13.35138,13.92505z" fill="url(#color-28)" stroke="none" stroke-width="0" stroke-linecap="butt"/><text transform="translate(88.71198,159.0597) scale(0.5,0.44016)" font-size="40" xml:space="preserve" fill="#000000" fill-rule="nonzero" stroke="#000000" stroke-width="0" stroke-linecap="butt" stroke-linejoin="miter" stroke-miterlimit="10" stroke-dasharray="" stroke-dashoffset="0" font-family="Serif" font-weight="normal" text-anchor="start" style="mix-blend-mode: normal"><tspan x="0" dy="0">Ultra</tspan><tspan x="0" dy="48px">Necrozma</tspan></text><text transform="translate(115.5807,206.7893) scale(0.5,0.5)" font-size="40" xml:space="preserve" fill="#000000" fill-rule="nonzero" stroke="none" stroke-width="1" stroke-linecap="butt" stroke-linejoin="miter" stroke-miterlimit="10" stroke-dasharray="" stroke-dashoffset="0" font-family="Marker" font-weight="normal" text-anchor="start" style="mix-blend-mode: normal"><tspan x="0" dy="0">650</tspan></text><text transform="translate(161.79513,157.73993) scale(0.35889,0.37092)" font-size="40" xml:space="preserve" fill="#333333" fill-rule="nonzero" stroke="#000000" stroke-width="0" stroke-linecap="butt" stroke-linejoin="miter" stroke-miterlimit="10" stroke-dasharray="" stroke-dashoffset="0" font-family="Serif" font-weight="normal" text-anchor="start" style="mix-blend-mode: normal"><tspan x="0" dy="0">Shoots a Projectile that Freezes</tspan><tspan x="0" dy="48px">enemies in time! he Realeses them </tspan><tspan x="0" dy="48px">shortly after, making them Walk slower,</tspan><tspan x="0" dy="48px">Good Endgame Tower!</tspan></text><g stroke="#000000" stroke-linecap="butt"><path d="M101.88066,210.27299c-6.07513,0 -11,-4.64505 -11,-10.375c0,-5.72995 4.92487,-10.375 11,-10.375c6.07513,0 11,4.64505 11,10.375c0,5.72995 -4.92487,10.375 -11,10.375z" fill="#ffd036" stroke-width="1"/><path d="M109.81816,199.77299c0,4.55635 -3.55374,8.25 -7.9375,8.25c-4.38376,0 -7.9375,-3.69365 -7.9375,-8.25c0,-4.55635 3.55374,-8.25 7.9375,-8.25c4.38376,0 7.9375,3.69365 7.9375,8.25z" fill="#e0b82f" stroke-width="1"/><text transform="translate(97.03046,205.49174) scale(0.4349,0.4349)" font-size="40" xml:space="preserve" fill="#000000" fill-rule="nonzero" stroke="#000000" stroke-width="0" stroke-linecap="butt" stroke-linejoin="miter" stroke-miterlimit="10" stroke-dasharray="" stroke-dashoffset="0" font-family="Sans Serif" font-weight="normal" text-anchor="start" style="mix-blend-mode: normal"><tspan x="0" dy="0">$</tspan></text></g><path d="M161.02606,140.82144v-15.23906h93.61135v15.23906z" fill="#fcfcfc" stroke="#000000" stroke-width="2.5" stroke-linecap="butt"/><text transform="translate(163.63849,136.46742) scale(0.23584,0.23584)" font-size="40" xml:space="preserve" fill="#0a0a0a" fill-rule="nonzero" stroke="none" stroke-width="1" stroke-linecap="butt" stroke-linejoin="miter" stroke-miterlimit="10" stroke-dasharray="" stroke-dashoffset="0" font-family="Sans Serif" font-weight="normal" text-anchor="start" style="mix-blend-mode: normal"><tspan x="0" dy="0">TowerSize: Large</tspan></text></g></g></svg>