<svg version="1.1" xmlns="http://www.w3.org/2000/svg" xmlns:xlink="http://www.w3.org/1999/xlink" width="68.375" height="15.375" viewBox="0,0,68.375,15.375"><defs><radialGradient cx="240.37179" cy="155.02418" r="34.1875" gradientUnits="userSpaceOnUse" id="color-1"><stop offset="0" stop-color="#ffffbc"/><stop offset="1" stop-color="#ffffbc" stop-opacity="0"/></radialGradient><radialGradient cx="263.04258" cy="154.72964" r="10.63503" gradientUnits="userSpaceOnUse" id="color-2"><stop offset="0" stop-color="#fffe58"/><stop offset="1" stop-color="#fffe58" stop-opacity="0"/></radialGradient><linearGradient x1="213.07952" y1="154.67831" x2="263.20498" y2="154.67831" gradientUnits="userSpaceOnUse" id="color-3"><stop offset="0" stop-color="#fffe58" stop-opacity="0"/><stop offset="1" stop-color="#fffe58"/></linearGradient><linearGradient x1="206.32242" y1="154.93434" x2="256.44788" y2="154.93434" gradientUnits="userSpaceOnUse" id="color-4"><stop offset="0" stop-color="#fffe58"/><stop offset="1" stop-color="#fffe58" stop-opacity="0"/></linearGradient></defs><g transform="translate(-206.18429,-147.33668)"><g data-paper-data="{&quot;isPaintingLayer&quot;:true}" fill-rule="nonzero" stroke="none" stroke-linecap="butt" stroke-linejoin="miter" stroke-miterlimit="10" stroke-dasharray="" stroke-dashoffset="0" style="mix-blend-mode: normal"><path d="M206.18429,162.71168v-15.375h68.375v15.375z" fill="url(#color-1)" stroke-width="0"/><path d="M273.6776,154.72964c0,1.17578 -4.76146,2.12894 -10.63503,2.12894c-5.87356,0 -10.63503,-0.95316 -10.63503,-2.12894c0,-1.17578 4.76147,-2.12894 10.63503,-2.12894c5.87356,0 10.63503,0.95316 10.63503,2.12894z" fill="url(#color-2)" stroke-width="0"/><path d="M260.64173,154.63736c0,1.17578 8.25955,1.88329 -4.87439,1.88329c-13.13394,0 -42.68783,-0.70751 -42.68783,-1.88329c0,-1.17578 27.19055,-1.8014 40.32449,-1.8014c13.13394,0 7.23773,0.62564 7.23773,1.8014z" fill="url(#color-3)" stroke-width="0"/><path d="M253.88464,154.89341c0,1.17578 8.25955,1.88329 -4.87439,1.88329c-13.13394,0 -42.68783,-0.70751 -42.68783,-1.88329c0,-1.17578 27.19055,-1.8014 40.32449,-1.8014c13.13394,0 7.23773,0.62564 7.23773,1.8014z" fill="url(#color-4)" stroke-width="0"/><path d="M266.77279,154.65816c0,0.33917 -10.44877,0.61412 -23.33798,0.61412c-12.88921,0 -23.33798,-0.27495 -23.33798,-0.61412c0,-0.33917 10.44877,-0.61412 23.33798,-0.61412c12.88921,0 23.33798,0.27495 23.33798,0.61412z" fill="#ffffff" stroke-width="NaN"/></g></g></svg>