<svg version="1.1" xmlns="http://www.w3.org/2000/svg" xmlns:xlink="http://www.w3.org/1999/xlink" width="472.47579" height="273.21828" viewBox="0,0,472.47579,273.21828"><defs><radialGradient cx="11.07647" cy="298.09483" r="47.9332" gradientUnits="userSpaceOnUse" id="color-1"><stop offset="0" stop-color="#000000"/><stop offset="1" stop-color="#000000" stop-opacity="0"/></radialGradient><radialGradient cx="10.80672" cy="138.4611" r="48.87925" gradientUnits="userSpaceOnUse" id="color-2"><stop offset="0" stop-color="#000000"/><stop offset="1" stop-color="#000000" stop-opacity="0"/></radialGradient><radialGradient cx="406.25558" cy="204.28195" r="30.58895" gradientUnits="userSpaceOnUse" id="color-3"><stop offset="0" stop-color="#000000"/><stop offset="1" stop-color="#000000" stop-opacity="0"/></radialGradient><radialGradient cx="8" cy="298.57292" r="43.5" gradientUnits="userSpaceOnUse" id="color-4"><stop offset="0" stop-color="#000000"/><stop offset="1" stop-color="#000000" stop-opacity="0"/></radialGradient><radialGradient cx="8" cy="298.57292" r="43.5" gradientUnits="userSpaceOnUse" id="color-5"><stop offset="0" stop-color="#000000"/><stop offset="1" stop-color="#000000" stop-opacity="0"/></radialGradient><radialGradient cx="8" cy="298.57292" r="43.5" gradientUnits="userSpaceOnUse" id="color-6"><stop offset="0" stop-color="#000000"/><stop offset="1" stop-color="#000000" stop-opacity="0"/></radialGradient><radialGradient cx="8" cy="298.57292" r="43.5" gradientUnits="userSpaceOnUse" id="color-7"><stop offset="0" stop-color="#000000"/><stop offset="1" stop-color="#000000" stop-opacity="0"/></radialGradient><radialGradient cx="8" cy="298.57292" r="43.5" gradientUnits="userSpaceOnUse" id="color-8"><stop offset="0" stop-color="#000000"/><stop offset="1" stop-color="#000000" stop-opacity="0"/></radialGradient><radialGradient cx="8" cy="298.57292" r="43.5" gradientUnits="userSpaceOnUse" id="color-9"><stop offset="0" stop-color="#000000"/><stop offset="1" stop-color="#000000" stop-opacity="0"/></radialGradient><radialGradient cx="11" cy="138.31005" r="51.77586" gradientUnits="userSpaceOnUse" id="color-10"><stop offset="0" stop-color="#000000"/><stop offset="1" stop-color="#000000" stop-opacity="0"/></radialGradient><radialGradient cx="11" cy="138.31005" r="51.77586" gradientUnits="userSpaceOnUse" id="color-11"><stop offset="0" stop-color="#000000"/><stop offset="1" stop-color="#000000" stop-opacity="0"/></radialGradient><radialGradient cx="11" cy="138.31005" r="51.77586" gradientUnits="userSpaceOnUse" id="color-12"><stop offset="0" stop-color="#000000"/><stop offset="1" stop-color="#000000" stop-opacity="0"/></radialGradient><radialGradient cx="11" cy="138.31005" r="51.77586" gradientUnits="userSpaceOnUse" id="color-13"><stop offset="0" stop-color="#000000"/><stop offset="1" stop-color="#000000" stop-opacity="0"/></radialGradient><radialGradient cx="11" cy="138.31005" r="51.77586" gradientUnits="userSpaceOnUse" id="color-14"><stop offset="0" stop-color="#000000"/><stop offset="1" stop-color="#000000" stop-opacity="0"/></radialGradient><radialGradient cx="11" cy="138.31005" r="51.77586" gradientUnits="userSpaceOnUse" id="color-15"><stop offset="0" stop-color="#000000"/><stop offset="1" stop-color="#000000" stop-opacity="0"/></radialGradient><radialGradient cx="335.78947" cy="98.61764" r="34.08791" gradientUnits="userSpaceOnUse" id="color-16"><stop offset="0" stop-color="#000000"/><stop offset="1" stop-color="#000000" stop-opacity="0"/></radialGradient></defs><g transform="translate(38.07253,-62.519)"><g data-paper-data="{&quot;isPaintingLayer&quot;:true}" fill-rule="nonzero" stroke-linecap="butt" stroke-linejoin="miter" stroke-miterlimit="10" stroke-dasharray="" stroke-dashoffset="0" style="mix-blend-mode: normal"><path d="M59.00967,298.09483c0,20.78935 -21.46043,37.64245 -47.9332,37.64245c-26.47278,0 -47.9332,-16.8531 -47.9332,-37.64245c0,-20.78935 21.46042,-37.64245 47.9332,-37.64245c26.47278,0 47.9332,16.8531 47.9332,37.64245z" fill="url(#color-1)" stroke="none" stroke-width="0"/><path d="M59.68596,138.4611c0,21.19967 -21.88398,38.3854 -48.87925,38.3854c-26.99526,0 -48.87925,-17.18573 -48.87925,-38.3854c0,-21.19967 21.88398,-38.3854 48.87925,-38.3854c26.99526,0 48.87925,17.18573 48.87925,38.3854z" fill="url(#color-2)" stroke="none" stroke-width="0"/><path d="M433.91125,199.49939c2.87876,16.64673 -7.16941,32.28279 -22.44321,34.92413c-15.2738,2.64133 -29.98936,-8.71228 -32.86812,-25.35901c-2.87876,-16.64673 7.16941,-32.28279 22.44321,-34.92413c15.2738,-2.64133 29.98936,8.71228 32.86812,25.35901z" fill="url(#color-3)" stroke="none" stroke-width="0"/><path d="" fill="#201f1a" stroke="none" stroke-width="0.5"/><path d="" fill="#201f1a" stroke="none" stroke-width="0.5"/><path d="" fill="#201f1a" stroke="none" stroke-width="0.5"/><path d="" fill="#201f1a" stroke="none" stroke-width="0.5"/><path d="" fill="#201f1a" stroke="none" stroke-width="0.5"/><path d="" fill="#201f1a" stroke="none" stroke-width="0.5"/><path d="" fill="#567b2f" stroke="none" stroke-width="0.5"/><path d="" fill="#567b2f" stroke="none" stroke-width="0.5"/><path d="" fill="#567b2f" stroke="none" stroke-width="0.5"/><path d="" data-paper-data="{&quot;index&quot;:null}" fill="#201f1a" stroke="none" stroke-width="0.5"/><path d="" data-paper-data="{&quot;index&quot;:null}" fill="#201f1a" stroke="none" stroke-width="0.5"/><path d="" data-paper-data="{&quot;index&quot;:null}" fill="#201f1a" stroke="none" stroke-width="0.5"/><path d="" data-paper-data="{&quot;index&quot;:null}" fill="#201f1a" stroke="none" stroke-width="0.5"/><path d="" data-paper-data="{&quot;index&quot;:null}" fill="#201f1a" stroke="none" stroke-width="0.5"/><path d="" data-paper-data="{&quot;index&quot;:null}" fill="#201f1a" stroke="none" stroke-width="0.5"/><path d="" data-paper-data="{&quot;index&quot;:null}" fill="#201f1a" stroke="none" stroke-width="0.5"/><path d="" data-paper-data="{&quot;index&quot;:null}" fill="#201f1a" stroke="none" stroke-width="0.5"/><path d="" data-paper-data="{&quot;index&quot;:null}" fill="#201f1a" stroke="none" stroke-width="0.5"/><path d="" data-paper-data="{&quot;index&quot;:null}" fill="#201f1a" stroke="none" stroke-width="0.5"/><path d="" fill="#201f1a" stroke="none" stroke-width="0.5"/><path d="" fill="#201f1a" stroke="none" stroke-width="0.5"/><path d="" fill="#201f1a" stroke="none" stroke-width="0.5"/><path d="" fill="#201f1a" stroke="none" stroke-width="0.5"/><path d="" fill="#201f1a" stroke="none" stroke-width="0.5"/><path d="" data-paper-data="{&quot;index&quot;:null}" fill="#201f1a" stroke="none" stroke-width="0.5"/><path d="M-8.38249,273.92176c-0.45925,0.40867 -0.89067,0.85702 -1.26617,1.27241l-0.1088,-0.32641c-0.15709,-0.51078 -0.63267,-0.88206 -1.19497,-0.88206c-0.69036,0 -1.25,0.55964 -1.25,1.25v1.8921h0.17055c-0.04055,0.06926 -0.07463,0.14277 -0.1014,0.2197l-0.68543,1.83054c-0.28462,0.37768 -0.56336,0.75991 -0.85674,1.1308c-0.2834,0.35827 0.16643,-0.90109 0.18883,-1.35734c0.04085,-0.83233 0,-1.66667 0,-2.5c0,-0.90277 0,-1.80555 0,-2.70832c1.68259,0.09323 3.41397,0.13192 5.12466,0.13371c-0.00684,0.01496 -0.01368,0.02991 -0.02052,0.04487z" fill="url(#color-4)" stroke="none" stroke-width="0"/><path d="M-8.65721,280.20347c0.37773,-0.12862 0.67417,-0.43298 0.79185,-0.81563l0.60915,-1.82745c0.13142,-0.30344 0.32357,-0.63982 0.5341,-0.99074c0.09763,0.27014 0.20042,0.54599 0.30839,0.82269c-0.0362,0.27687 -0.06546,0.55427 -0.08505,0.83218c-0.80372,0.86112 -1.36645,2.17152 -1.64626,3.37925c-0.17282,-0.50658 -0.33727,-0.96688 -0.51218,-1.40029z" fill="url(#color-5)" stroke="none" stroke-width="0"/><path d="M21.61164,278.78496l-0.40977,-1.22931l0,-0.04044c0.14839,-0.13867 0.29278,-0.25594 0.43312,-0.34512c0.25523,-0.16218 1.10783,-0.55636 2.05382,-0.94874c-0.65212,0.58776 -1.35222,1.50973 -1.86762,2.41776c-0.07001,0.04827 -0.13986,0.09689 -0.20955,0.14586z" fill="url(#color-6)" stroke="none" stroke-width="0"/><path d="M26.81653,275.22216c0.45289,0.11323 0.87764,0.30006 1.29028,0.51936c-0.07156,0.06678 -0.14423,0.13542 -0.21768,0.20573c-0.61157,0.11175 -1.1971,0.26504 -1.76139,0.45341c-0.2545,-0.38142 -0.56268,-0.66235 -0.93736,-0.76465c0.77363,-0.2784 1.42091,-0.46516 1.62616,-0.41385z" fill="url(#color-7)" stroke="none" stroke-width="0"/><path d="M-2.5965,277.07037c-0.01379,0.31812 -0.02439,0.6364 -0.03246,0.9548c-0.38426,-0.29532 -0.75244,-0.4967 -1.10349,-0.61767c-0.00453,-0.01235 -0.00906,-0.02469 -0.01358,-0.03704c0.36682,-0.16143 0.75298,-0.24965 1.14953,-0.30009z" fill="url(#color-8)" stroke="none" stroke-width="0"/><path d="M11.66855,274.34014c0.38507,0.12051 0.3985,0.62693 0.48295,1.0784c-0.32863,-0.25933 -0.6659,-0.47576 -1.03414,-0.53845c0.21264,-0.34206 0.41611,-0.58222 0.55118,-0.53995z" fill="url(#color-9)" stroke="none" stroke-width="0"/><path d="M16.33718,151.90106c0.2072,-1.54611 -0.26362,-3.23199 0.34854,-4.66678c0.1691,-0.39634 0.53232,-0.66858 0.88603,-0.94639c0.23894,2.03646 0.74164,4.10956 0.84751,6.06239c-0.33049,0.06013 -0.5973,0.27354 -0.82893,0.56613c-0.50092,0.08562 -1.01367,0.30174 -1.45755,0.11245c0.08458,-0.37298 0.15364,-0.74896 0.2044,-1.12779z" fill="url(#color-10)" stroke="none" stroke-width="0"/><path d="M-9.01203,158.2282c0.02685,0.10798 0.06775,0.2104 0.12063,0.30523c-0.03411,0.09173 -0.06836,0.18347 -0.10276,0.27522c-0.23368,-0.18988 -0.47288,-0.37154 -0.71541,-0.54191c-0.19714,-0.31294 -0.52924,-0.53233 -0.9146,-0.57647c-0.05464,-0.03038 -0.10932,-0.06003 -0.164,-0.08891l0.3909,-1.17267c0,0 0.39528,-1.18585 -0.79057,-1.58114c-0.14755,-0.04918 -0.28285,-0.07389 -0.40668,-0.07944c0,-0.26725 0,-0.5345 0,-0.80175c0.00244,-0.00164 0.00489,-0.00327 0.00736,-0.00488c0.40579,-0.26493 0.90094,-0.14645 1.40912,-0.00865c0.42916,1.57359 0.90131,3.30481 1.16601,4.27538z" fill="url(#color-11)" stroke="none" stroke-width="0"/><path d="M29.6161,156.96413c0.25509,-0.22885 0.41556,-0.56105 0.41556,-0.93072c0,0 0,0 0,0v-0.1703c0.14995,0.50081 0.25782,1.37209 0.3631,2.22038c-0.09089,0.00144 -0.1819,0.00284 -0.27301,0.00421c-0.1634,-0.37663 -0.34125,-0.74748 -0.50566,-1.12357z" fill="url(#color-12)" stroke="none" stroke-width="0"/><path d="M-7.44512,154.47209c-0.08871,-0.32528 -0.17743,-0.65057 -0.26614,-0.97585c0.08234,-0.02437 0.16721,-0.03632 0.25583,-0.03048c0.12576,0.00828 0.23076,0.04821 0.32024,0.11233c-0.10337,0.29812 -0.20659,0.59611 -0.30994,0.89401z" fill="url(#color-13)" stroke="none" stroke-width="0"/><path d="" fill="url(#color-14)" stroke="none" stroke-width="0"/><path d="M46.37782,173.23946c-0.0422,0.0435 -0.08449,0.08693 -0.12685,0.13028c0.03972,-0.05121 0.08193,-0.0949 0.12685,-0.13028z" fill="url(#color-15)" stroke="none" stroke-width="0"/><path d="M39.24367,152.48562c0,0 0.44381,1.68557 0.96145,4.53748c-1.64197,0.00001 -3.26971,0.50547 -4.86954,0.79633c0.27224,-1.37298 0.34211,-2.35909 0.22327,-3.36797c0.02163,-0.10577 0.04111,-0.21646 0.05833,-0.33295h0.09078l0,-1.63288z" fill="#3a3930" stroke="#000000" stroke-width="0.5"/><path d="M33.20797,153.06636c-0.0242,1.15907 -0.49601,2.09595 -0.93987,2.96929c-0.28659,-1.07335 -0.56375,-2.01677 -0.67717,-2.11296c-0.7126,-0.60431 -1.74394,-0.95155 -2.71162,-0.92229c-0.10645,-0.16079 -0.22123,-0.33399 -0.3432,-0.51478l4.67187,0z" fill="#3a3930" stroke="#000000" stroke-width="0.5"/><path d="M-2.63486,152.48562l3.87486,0c0.09584,0.33546 0.21592,0.75572 0.3423,1.19805c-0.34785,-0.05925 -0.69644,-0.11102 -1.04573,-0.15421c-0.3234,-0.03999 -1.1402,0.02585 -2.03205,0.10191l-0.88033,-0.88033l-0.00857,0.00857c-0.0648,-0.09366 -0.1473,-0.19026 -0.25047,-0.274z" fill="#3a3930" stroke="#000000" stroke-width="0.5"/><path d="M17.59033,152.9164c-0.50092,0.08562 -1.01367,0.30174 -1.45755,0.11245c0.04091,-0.18038 0.07818,-0.36147 0.11151,-0.54323h1.81661c-0.17433,0.10275 -0.32902,0.25199 -0.47057,0.43078z" fill="#3a3930" stroke="#000000" stroke-width="0.5"/><path d="M29.6161,156.96413c0.25509,-0.22885 0.41556,-0.56105 0.41556,-0.93072c0,0 0,0 0,0v-0.1703c0.14995,0.50081 0.25782,1.37209 0.3631,2.22038c-0.09089,0.00144 -0.1819,0.00284 -0.27301,0.00421c-0.1634,-0.37663 -0.34125,-0.74748 -0.50566,-1.12357z" fill="#3a3930" stroke="#000000" stroke-width="0.5"/><path d="M-7.44512,154.47209c-0.08871,-0.32528 -0.17743,-0.65057 -0.26614,-0.97585c0.08234,-0.02437 0.16721,-0.03632 0.25583,-0.03048c0.12576,0.00828 0.23076,0.04821 0.32024,0.11233c-0.10337,0.29812 -0.20659,0.59611 -0.30994,0.89401z" fill="#3a3930" stroke="#000000" stroke-width="0.5"/><path d="" fill="#3a3930" stroke="#000000" stroke-width="0.5"/><path d="M-10.39728,156.42869c0,0 0.39528,-1.18585 -0.79057,-1.58114c-0.14755,-0.04918 -0.28285,-0.07389 -0.40668,-0.07944c0,-0.26725 0,-0.5345 0,-0.80175c0.00244,-0.00164 0.00489,-0.00327 0.00736,-0.00488c0.40579,-0.26493 0.90094,-0.14645 1.40912,-0.00865c0.42916,1.57359 0.90131,3.30481 1.16601,4.27538c0.02685,0.10798 0.06775,0.2104 0.12063,0.30523c-0.03411,0.09173 -0.06836,0.18347 -0.10276,0.27522c-0.23368,-0.18988 -0.47288,-0.37154 -0.71541,-0.54191c-0.19714,-0.31294 -0.52924,-0.53233 -0.9146,-0.57647c-0.05464,-0.03038 -0.10932,-0.06003 -0.164,-0.08891z" fill="#3a3930" stroke="#000000" stroke-width="0.5"/><path d="M-16.75633,152.48562l2.6618,0c0,0.33309 0,0.73777 0,1.18618c-0.05807,0.10579 -0.11947,0.20823 -0.1863,0.30517c-0.19375,0.28104 -0.48733,0.6214 -0.78795,1.00186c-0.39688,-0.52918 -0.79377,-1.05835 -1.19065,-1.58753c0,0 -0.18626,-0.24835 -0.4969,-0.40469z" fill="#3a3930" stroke="#000000" stroke-width="0.5"/><path d="M-8.38249,273.92176c-0.45925,0.40867 -0.89067,0.85702 -1.26617,1.27241l-0.1088,-0.32641c-0.15709,-0.51078 -0.63267,-0.88206 -1.19497,-0.88206c-0.69036,0 -1.25,0.55964 -1.25,1.25l0,1.4791l-1.28298,0c-0.00076,-0.08777 -0.00122,-0.17554 -0.00122,-0.2633c0,-0.90277 0,-1.80555 0,-2.70832c1.68259,0.09323 3.41397,0.13192 5.12466,0.13371c-0.00684,0.01496 -0.01368,0.02991 -0.02052,0.04487z" fill="#3a3930" stroke="#000000" stroke-width="0.5"/><path d="M-16.75633,276.71479v-3.23492c0.24916,0.02724 0.50066,0.05284 0.75423,0.07688c-0.01242,1.05215 -0.02737,2.10606 -0.02457,3.15804z" fill="#3a3930" stroke="#000000" stroke-width="0.5"/><path d="M26.81653,275.22216c0.45289,0.11323 0.87764,0.30006 1.29028,0.51936c-0.07156,0.06678 -0.14423,0.13542 -0.21768,0.20573c-0.61157,0.11175 -1.1971,0.26504 -1.76139,0.45341c-0.2545,-0.38142 -0.56268,-0.66235 -0.93736,-0.76465c0.77363,-0.2784 1.42091,-0.46516 1.62616,-0.41385z" fill="#3a3930" stroke="#000000" stroke-width="0.5"/><path d="M37.17784,276.71479h-2.75765c0.01338,-0.20716 0.02186,-0.41456 0.025,-0.62211c0.87896,0.22177 1.7983,0.443 2.73265,0.62211z" fill="#3a3930" stroke="#000000" stroke-width="0.5"/><path d="M11.66855,274.34014c0.38507,0.12051 0.3985,0.62693 0.48295,1.0784c-0.32863,-0.25933 -0.6659,-0.47576 -1.03414,-0.53845c0.21264,-0.34206 0.41611,-0.58222 0.55118,-0.53995z" fill="#3a3930" stroke="#000000" stroke-width="0.5"/><path d="M1.01504,276.60302c0.29125,-0.16053 0.5782,-0.31815 0.85083,-0.1923c0.178,0.08216 0.34458,0.18463 0.50017,0.30407h-1.36547c0.00645,-0.03673 0.0113,-0.07401 0.01447,-0.11177z" fill="#3a3930" stroke="#000000" stroke-width="0.5"/><path d="M23.68881,276.22134c-0.16167,0.14571 -0.32628,0.31196 -0.4903,0.49345h-0.64886c0.33449,-0.15203 0.72801,-0.32291 1.13916,-0.49345z" fill="#3a3930" stroke="#000000" stroke-width="0.5"/><path d="M-6.72211,276.56964c0.01742,0.04821 0.03501,0.0966 0.05277,0.14515h-0.13921c0.02839,-0.04807 0.05724,-0.09647 0.08644,-0.14515z" fill="#3a3930" stroke="#000000" stroke-width="0.5"/><path d="M-22.75633,158.04813v-2.79054c0.20998,0.47245 0.40492,0.91107 0.57044,1.28348c0,0 0.50767,1.14226 1.64994,0.63459c1.14226,-0.50767 0.63459,-1.64994 0.63459,-1.64994c-0.6769,-1.52302 -1.8459,-4.15328 -2.5228,-5.6763c0,0 -0.10665,-0.23996 -0.33216,-0.45103v-41.41277c0,0 28.01485,-4.71119 38.7749,-2.68227c2.83047,0.5337 -0.75393,5.1094 1.01756,8.84923c2.02432,4.27362 9.20755,7.73929 9.20755,7.73929c0,0 5.81831,-6.35493 9.93771,-6.57315c4.82465,-0.25557 8.06229,5.83903 8.06229,9.3544c0,9.21626 2,33.375 2,33.375h-2.52c-2.83203,-1.85214 -5.65092,-0.72634 -8.3881,-0.2287c0.27224,-1.37298 0.34211,-2.35909 0.22327,-3.36797c0.02163,-0.10577 0.04111,-0.21646 0.05833,-0.33295h0.09078l0,-2.5c0,-0.69036 -0.55964,-1.25 -1.25,-1.25c-0.69036,0 -1.25,0.55964 -1.25,1.25v1.44786c-0.0242,1.15907 -0.49601,2.09595 -0.93987,2.96929c-0.28659,-1.07335 -0.56375,-2.01677 -0.67717,-2.11296c-0.7126,-0.60431 -1.74394,-0.95155 -2.71162,-0.92229c-0.23843,-0.36015 -0.51867,-0.78257 -0.82782,-1.21305c-0.08114,-0.20396 -0.21444,-0.38152 -0.38342,-0.5162c-0.79754,-1.03451 -1.73364,-1.98985 -2.62639,-2.10237c-1.0757,-0.13557 -1.98291,0.88553 -2.92673,1.41911c-0.48507,0.27423 -1.05042,0.4869 -1.55103,0.76346c-0.00547,-0.31728 -0.01242,-0.59124 -0.01517,-0.7875c-0.02933,-2.09515 0.1742,-5.89992 -0.80891,-7.80525c-0.03047,-0.05905 -0.06214,-0.11732 -0.0949,-0.17485l0.02022,-0.01011l-1.10592,-2.21185c-0.20043,-0.42281 -0.63114,-0.7152 -1.13014,-0.7152c-0.67082,0 -1.21822,0.52842 -1.24867,1.19172l-0.08015,1.51271c-0.01231,0.69322 0.2418,1.44482 -0.03694,2.07965c-0.33608,0.76542 -1.38071,1.07636 -1.68983,1.85305c-0.18647,0.46852 -0.34558,1.09036 -0.46862,1.79484c-0.35918,-1.15406 -0.81867,-2.10159 -1.4212,-2.51973c-0.52927,-0.3673 -1.29121,-0.43291 -1.97178,-0.26847c-0.07458,-0.41437 -0.15823,-0.82781 -0.25205,-1.24028h0.22015v-1.8921c0,-0.69036 -0.55964,-1.25 -1.25,-1.25c-0.63256,0 -1.15538,0.46986 -1.23849,1.07962l-0.19596,1.27748c-0.32102,-1.54459 -0.78221,-3.26308 -1.34683,-3.56179c-0.8226,-0.43518 -1.79342,0.74055 -2.37566,1.46652c-0.07991,0.09964 -1.61319,4.7317 -1.70522,5.00778c0,0 -0.39221,1.17664 0.7768,1.57649c-0.18014,0.2976 -0.20593,0.60709 -0.20593,0.60709l-0.00786,0.09431c-0.05741,0.68894 -0.15484,1.33352 -0.23224,1.95075c-0.20143,-0.06473 -0.44864,-0.07568 -0.74972,0.01034c-1.2019,0.3434 -0.8585,1.54531 -0.8585,1.54531c0.09425,0.32988 0.28461,0.99612 0.49193,1.72177c-0.34785,-0.05925 -0.69644,-0.11102 -1.04573,-0.15421c-0.3234,-0.03999 -1.1402,0.02585 -2.03205,0.10191l-0.88033,-0.88033l-0.00857,0.00857c-0.08614,-0.1245 -0.20356,-0.2542 -0.35923,-0.35199c-0.03482,-0.20842 -0.07112,-0.41455 -0.1087,-0.6181l-0.19124,-0.18778l0.06889,-0.04593l-1.25065,-1.87597c-0.22257,-0.34463 -0.61005,-0.57276 -1.05082,-0.57276c-0.63664,0 -1.16211,0.47594 -1.24004,1.09142l-0.01395,0.09765c-0.36932,-0.30217 -0.73864,-0.60435 -1.10797,-0.90652c0,0 -0.96745,-0.79155 -1.75899,0.1759c-0.04527,0.05533 -0.08478,0.11008 -0.11905,0.16414c-0.14786,-0.0132 -0.31509,0.00069 -0.5038,0.05215c-1.20595,0.3289 -0.87706,1.53485 -0.87706,1.53485c0.01952,0.07156 0.04016,0.14726 0.06184,0.22673c-0.33105,-0.05595 -0.66241,-0.10105 -1.00586,-0.07168c-0.17699,-0.25419 -0.48108,-0.47255 -1.00352,-0.47255c-1.25,0 -1.25,1.25 -1.25,1.25c0,0.36949 0,0.86185 0,1.4226c-0.05807,0.10579 -0.11947,0.20823 -0.1863,0.30517c-0.19375,0.28104 -0.48733,0.6214 -0.78795,1.00186c-0.39688,-0.52918 -0.79377,-1.05835 -1.19065,-1.58753c0,0 -0.75,-1 -1.75,-0.25c-1,0.75 -0.25,1.75 -0.25,1.75c0.20336,0.27114 0.43914,0.58552 0.69416,0.92555c-0.64537,0.6403 -0.13533,1.49037 -0.13533,1.49037l0.44454,0.74091zM-6.55406,140.78343c-0.12326,-1.35588 -0.36532,-4.01849 -0.53209,-5.85294c1.29375,0.48516 2.70029,1.01261 3.89391,1.46022c0,0 1.17041,0.4389 1.60932,-0.73151c0.4389,-1.17041 -0.73151,-1.60932 -0.73151,-1.60932c-1.56055,-0.58521 -3.48505,-1.30689 -5.0456,-1.8921c0,0 -1.10858,-0.41572 -1.57253,0.64092c-0.82974,0.30757 -0.74194,1.27336 -0.74194,1.27336c0.15089,1.65982 0.47981,5.27788 0.6307,6.9377c0,0 0.11317,1.24487 1.35804,1.1317c1.24487,-0.11317 1.1317,-1.35804 1.1317,-1.35804zM4.95311,131.45515c-1.65647,-0.18405 -4.01983,-0.44665 -5.6763,-0.6307c0,0 -1.24235,-0.13804 -1.38039,1.10432c-0.13804,1.24235 1.10432,1.38039 1.10432,1.38039c1.65647,0.18405 4.01983,0.44665 5.6763,0.6307c0,0 1.24235,0.13804 1.38039,-1.10432c0.13804,-1.24235 -1.10432,-1.38039 -1.10432,-1.38039zM13.01417,136.4703c0.69036,0 1.25,-0.55964 1.25,-1.25c0,-0.69036 -0.55964,-1.25 -1.25,-1.25c-0.69036,0 -1.25,0.55964 -1.25,1.25c0,0.69036 0.55964,1.25 1.25,1.25z" fill="#4f4d41" stroke="#000000" stroke-width="0.5"/><path d="M16.33718,151.90106c0.2072,-1.54611 -0.26362,-3.23199 0.34854,-4.66678c0.1691,-0.39634 0.53232,-0.66858 0.88603,-0.94639c0.23894,2.03646 0.74164,4.10956 0.84751,6.06239c-0.33049,0.06013 -0.5973,0.27354 -0.82893,0.56613c-0.50092,0.08562 -1.01367,0.30174 -1.45755,0.11245c0.08458,-0.37298 0.15364,-0.74896 0.2044,-1.12779z" fill="#4f4d41" stroke="#000000" stroke-width="0.5"/><path d="M29.6161,156.96413c0.25509,-0.22885 0.41556,-0.56105 0.41556,-0.93072c0,0 0,0 0,0v-0.1703c0.14787,0.49386 0.25481,1.34796 0.35872,2.18503l-0.28585,0c-0.15862,-0.36306 -0.32979,-0.72109 -0.48843,-1.084z" fill="#4f4d41" stroke="#000000" stroke-width="0.5"/><path d="M-7.44512,154.47209c-0.08871,-0.32528 -0.17743,-0.65057 -0.26614,-0.97585c0.08234,-0.02437 0.16721,-0.03632 0.25583,-0.03048c0.12576,0.00828 0.23076,0.04821 0.32024,0.11233c-0.10337,0.29812 -0.20659,0.59611 -0.30994,0.89401z" fill="#4f4d41" stroke="#000000" stroke-width="0.5"/><path d="" fill="#4f4d41" stroke="#000000" stroke-width="0.5"/><path d="M-24.12563,321.21479v-47.28125l8.11901,0c-0.02026,1.67427 -0.04079,3.35188 0.01999,5.01795c0.03189,0.87419 -0.31922,1.90402 0.18669,2.61766c0.53954,0.76108 1.61329,1.40551 2.52494,1.2074c0.89097,-0.19362 1.45517,-1.03045 2.07545,-1.75691c0.26392,0.74045 0.73175,1.51487 0.95337,2.17973l0.62158,1.86475c0.15709,0.51078 0.63267,0.88206 1.19497,0.88206c0.499,0 0.92971,-0.2924 1.13014,-0.7152l1.10592,-2.21185l-0.37204,-0.18602c0.26352,-0.47429 0.52603,-0.94561 0.8007,-1.401c0.15014,0.06385 0.31533,0.09917 0.48877,0.09917c0.385,0 0.72934,-0.17405 0.95864,-0.44776c0.06505,0.06226 0.13096,0.12061 0.19772,0.17473c0.55746,1.47405 1.31676,3.68696 1.39109,4.25015c0.01681,0.12739 0.033,0.25656 0.04854,0.38738c-0.01399,0.40708 -0.03271,0.81381 -0.05753,1.2201c-0.21354,3.49562 -2.47922,8.01661 -1.89631,11.44427c0.01089,0.06405 0.02331,0.12765 0.03713,0.19084l-0.02372,0.00351l0.31955,2.16013c0.08043,0.61273 0.60463,1.08573 1.2393,1.08573c0.56333,0 1.03963,-0.37265 1.19583,-0.88488l0.77586,-2.34627c1.18328,-3.65038 1.53608,-9.20871 0.77648,-13.44825c0.11398,-1.9545 0.13013,-3.9177 0.01699,-5.91778c0.02162,-0.03727 0.04248,-0.07484 0.06262,-0.11272l0.0034,0.0017l1.10679,-2.21358c0.07591,-0.14419 0.12447,-0.30501 0.13879,-0.47558c0.29125,-0.16053 0.5782,-0.31815 0.85083,-0.1923c1.57027,0.72485 2.25262,3.02975 2.32649,4.62946c-0.514,0.46587 -1.16124,0.87175 -1.23505,1.52553c-0.11626,1.02976 0.64723,1.96973 1.01569,2.93831c0.68077,1.78959 0.4934,4.34412 2.13266,5.33353c1.14308,0.68993 3.3469,-0.78039 4.36888,-1.37879c2.15439,-1.26147 4.50869,-2.42099 6.55076,-3.85529c0.95988,-0.6742 1.88113,-1.5515 2.80572,-2.45394c0.20918,0.15763 0.46945,0.25107 0.75155,0.25107c0.34138,0 0.65079,-0.13685 0.87638,-0.35868l1.2608,-1.23802l-0.00859,-0.00875c0.0279,-0.02324 0.05554,-0.04685 0.08289,-0.07085c0.90512,-0.79427 1.32491,-1.48274 1.58975,-2.32816c0.04392,-0.02287 0.08797,-0.04528 0.13215,-0.06723c0.09133,0.56551 0.25403,1.12176 0.36384,1.68487l0.13445,1.27622c0.05881,0.63568 0.5936,1.13339 1.24463,1.13339c0.69036,0 1.25,-0.55964 1.25,-1.25l0,-1.14736c0.43797,-0.87578 0.88755,-1.69955 1.45267,-2.46099c0.67903,-0.09654 1.33251,-0.21547 1.88466,-0.3844l0.3401,0.7935c0.13156,0.32729 0.39758,0.58605 0.72967,0.70791l0.009,0.036l0.02176,1.21355c0.01048,0.68131 0.56604,1.23039 1.24985,1.23039c0.69036,0 1.25,-0.55964 1.25,-1.25l0,-2.5h-0.23757c0.13791,-0.76832 0.22445,-1.5427 0.23619,-2.31931c3.68692,0.93025 8.0843,1.85089 11.31977,-0.30609c0.59245,-0.39497 0.76158,-1.16692 1.04384,-1.85305h1.06557l-5,23.17708l-10.59093,-2.86073l-3.48732,-5.92705l-8.58704,-3.61084l1.99203,11.40948l3.17953,3.8313l-7.9093,4.53445l1.99979,5.14003l7.9208,-1.31576l-12.49013,11.77598z" fill="#4f4d41" stroke="#000000" stroke-width="0.5"/><path d="M-9.64866,275.19416l-0.1088,-0.32641c-0.15709,-0.51078 -0.63267,-0.88206 -1.19497,-0.88206c-0.69036,0 -1.25,0.55964 -1.25,1.25v1.8921h0.17055c-0.04055,0.06926 -0.07463,0.14277 -0.1014,0.2197l-0.68543,1.83054c-0.28462,0.37768 -0.56336,0.75991 -0.85674,1.1308c-0.2834,0.35827 0.16643,-0.90109 0.18883,-1.35734c0.04085,-0.83233 0,-1.66667 0,-2.5c0,-0.83932 0,-1.67863 0,-2.51795l5.09092,0c-0.45431,0.40549 -0.88106,0.84923 -1.25295,1.26062z" fill="#4f4d41" stroke="#000000" stroke-width="0.5"/><path d="M-8.65721,280.20347c0.37773,-0.12862 0.67417,-0.43298 0.79185,-0.81563l0.60915,-1.82745c0.13142,-0.30344 0.32357,-0.63982 0.5341,-0.99074c0.09763,0.27014 0.20042,0.54599 0.30839,0.82269c-0.0362,0.27687 -0.06546,0.55427 -0.08505,0.83218c-0.80372,0.86112 -1.36645,2.17152 -1.64626,3.37925c-0.17282,-0.50658 -0.33727,-0.96688 -0.51218,-1.40029z" fill="#4f4d41" stroke="#000000" stroke-width="0.5"/><path d="M21.61164,278.78496l-0.40977,-1.22931l0,-0.04044c0.14839,-0.13867 0.29278,-0.25594 0.43312,-0.34512c0.25523,-0.16218 1.10783,-0.55636 2.05382,-0.94874c-0.65212,0.58776 -1.35222,1.50973 -1.86762,2.41776c-0.07001,0.04827 -0.13986,0.09689 -0.20955,0.14586z" fill="#4f4d41" stroke="#000000" stroke-width="0.5"/><path d="M26.81653,275.22216c0.45289,0.11323 0.87764,0.30006 1.29028,0.51936c-0.07156,0.06678 -0.14423,0.13542 -0.21768,0.20573c-0.61157,0.11175 -1.1971,0.26504 -1.76139,0.45341c-0.2545,-0.38142 -0.56268,-0.66235 -0.93736,-0.76465c0.77363,-0.2784 1.42091,-0.46516 1.62616,-0.41385z" fill="#4f4d41" stroke="#000000" stroke-width="0.5"/><path d="M-2.5965,277.07037c-0.01379,0.31812 -0.02439,0.6364 -0.03246,0.9548c-0.38426,-0.29532 -0.75244,-0.4967 -1.10349,-0.61767c-0.00453,-0.01235 -0.00906,-0.02469 -0.01358,-0.03704c0.36682,-0.16143 0.75298,-0.24965 1.14953,-0.30009z" fill="#4f4d41" stroke="#000000" stroke-width="0.5"/><path d="M321.74577,64.86171c16.29,-7.04988 35.78324,2.34809 43.53936,20.99097c3.18456,7.6545 3.89532,15.67739 2.49931,22.96373c-1.23578,-1.80926 -2.82699,-3.33742 -4.97368,-4.4881c-2.15466,-1.15496 -7.72036,0.46679 -9.97981,1.40208c-0.3372,0.13958 -1.64146,2.2926 -2.18492,2.50376c-3.65695,1.42089 -8.69652,3.36767 -12.48441,3.4532c-1.05254,0.02377 -2.08043,-0.80947 -3.10615,-0.5722c-2.08854,0.48312 -5.17695,4.93029 -6.10208,6.27694c-0.38032,0.55361 -4.55217,0.8124 -5.48001,1.02166c-3.54353,0.79917 -7.0493,2.62279 -8.95983,5.56302c-3.36382,-3.48085 -6.19264,-7.72177 -8.21975,-12.59418c-7.75612,-18.64289 -0.83804,-39.47098 15.45197,-46.52087z" data-paper-data="{&quot;index&quot;:null}" fill="url(#color-16)" stroke="none" stroke-width="0"/><path d="M406.87138,184.02385l-0.8395,20.39907c0,0 -7.04869,2.71306 -10.25409,2.63631c-2.26259,-0.05417 -5.79598,-1.54841 -7.71584,-2.44187c1.58377,-1.11862 2.99099,-2.5243 4.16466,-3.84737c0.3268,-0.3684 3.45499,-0.24353 3.82084,-0.39388c1.44658,-0.59447 3.60666,-1.85027 4.77197,-2.96592c1.04942,-1.0047 1.43703,-3.12824 2.32552,-3.90264c0.60644,-0.52857 1.6048,-0.77425 1.86072,-1.53692c0.72675,-2.16584 -0.91193,-4.79677 0.08344,-6.85305c0.30104,-0.6219 1.06853,-0.85692 1.6362,-1.26995z" data-paper-data="{&quot;index&quot;:null}" fill="#3a3930" stroke="#000000" stroke-width="0.5"/><path d="" data-paper-data="{&quot;index&quot;:null}" fill="#3a3930" stroke="#000000" stroke-width="0.5"/><path d="M357.3683,101.95556l0.91985,2.21099c-2.0791,0.36201 -4.24443,1.06181 -5.4572,1.56384c-0.3372,0.13958 -1.64146,2.2926 -2.18492,2.50376c-3.65695,1.42089 -8.69652,3.36767 -12.48441,3.4532c-0.69968,0.0158 -1.38848,-0.34712 -2.07298,-0.52252z" data-paper-data="{&quot;index&quot;:null}" fill="#3a3930" stroke="#000000" stroke-width="0.5"/><path d="M323.99946,116.39671l8.84267,-3.82687c-1.63347,1.56177 -3.26026,3.90744 -3.88873,4.82226c-0.3035,0.44179 -3.02165,0.69584 -4.57879,0.88678c-0.25964,-1.19186 -0.37467,-1.87934 -0.37514,-1.88217z" data-paper-data="{&quot;index&quot;:null}" fill="#3a3930" stroke="#000000" stroke-width="0.5"/><path d="M323.99946,116.3967c0,0 0,0 0,0.00001l0,0z" data-paper-data="{&quot;index&quot;:null}" fill="#3a3930" stroke="#000000" stroke-width="0.5"/><path d="M312.14564,97.97286c-0.98856,-2.37614 -0.77321,-7.33058 2.17353,-8.40201c2.51601,-0.9148 7.77005,1.88028 7.77005,1.88028c0,0 3.30569,-4.19496 3.31013,-7.60564c0.00389,-2.9847 -3.41869,-5.15321 -1.88217,-6.24386c5.84105,-4.14619 23.85917,-8.18615 23.85917,-8.18615l14.07816,33.83874l-1.64805,0.71323c-2.46221,0.20105 -5.46131,1.13614 -6.97551,1.76294c-0.24036,0.0995 -0.97209,1.22204 -1.56939,1.93506l-5.43248,2.35103c-2.62502,0.88586 -5.3754,1.61912 -7.66746,1.67087c-1.05254,0.02377 -2.08043,-0.80947 -3.10615,-0.5722c-2.0381,0.47146 -5.02837,4.71781 -6.03131,6.17406l-1.19782,0.51838c-1.41218,0.28496 -3.69593,0.45798 -4.35296,0.60616c-1.23015,0.27743 -2.45575,0.67833 -3.61164,1.20655c-1.40889,-4.19637 -5.58253,-16.5191 -7.7161,-21.64744z" data-paper-data="{&quot;index&quot;:null}" fill="#4f4d41" stroke="#000000" stroke-width="0.5"/><path d="M398.73233,218.23234l-5.11016,1.79301l-2.47578,-4.76021c0,0 4.28399,-3.43994 4.05675,-5.20934c-0.20742,-1.6151 -5.36616,-4.98648 -5.36616,-4.98648l8.17653,-3.79069l1.12275,-2.5683c0.64312,-0.42386 1.2363,-0.8723 1.68317,-1.30014c0.06578,-0.06298 0.12896,-0.13035 0.18983,-0.20152l3.70049,-1.00392l2.88697,-10.94141l22.50946,22.25842c0,0 -6.56044,2.79086 -15.80874,7.04598c0,0 -5.97141,-3.40127 -8.38918,-2.83204c-2.73209,0.64323 -7.17594,6.49665 -7.17594,6.49665z" data-paper-data="{&quot;index&quot;:null}" fill="#4f4d41" stroke="#000000" stroke-width="0.5"/><path d="M25.68754,131.80126c0.48309,-0.04037 2.69854,-0.28706 3.2881,-0.12023c6.51862,1.8446 3.27872,9.31402 3.28323,14.21558c0.00174,1.89988 0.705,6.14462 -0.71412,7.98765c-0.71053,-0.58056 -1.71847,-0.91249 -2.66545,-0.88385c-0.23843,-0.36015 -0.51867,-0.78257 -0.82782,-1.21305c-0.0111,-0.02791 -0.02318,-0.05532 -0.0362,-0.0822c0.59468,-0.01344 1.15885,0.0164 1.58124,0.15591c0.29753,0.09826 0.38792,0.85339 0.64896,0.68007c0.31344,-0.2081 0.02454,-0.75217 0.0263,-1.1284c0.0086,-1.83831 -0.01453,-3.67765 -0.01291,-5.51612c0.0023,-2.60653 0.63297,-5.07189 0.6307,-7.6763c-0.00093,-1.06887 0.67493,-2.29193 0.11832,-3.20444c-0.78812,-1.29207 -3.0288,-1.26156 -4.26889,-1.51331c-0.92672,3.03464 -0.92023,6.27876 -0.84892,9.52757c0.07699,0.03437 0.14992,0.07531 0.21822,0.12373c1.84067,1.3051 1.16779,4.6044 0.35082,6.78019c-0.46685,-0.41404 -0.94814,-0.70611 -1.41746,-0.76526c-0.15652,-0.01973 -0.30948,-0.01496 -0.4595,0.00922c0.04581,-0.13246 0.09191,-0.2694 0.13758,-0.40941c-0.76788,-0.14134 -0.76788,-0.97989 -0.76788,-0.97989h0.00001v-1.1535c0,-0.608 -0.01336,-1.21994 -0.03225,-1.83376c-0.84992,0.08505 -1.89143,0.28608 -2.351,0.17631c-0.35447,-0.08466 -0.79994,-0.24956 -1.27913,-0.41953c-0.12008,-0.68546 -0.29509,-1.30622 -0.54967,-1.79961c-0.03047,-0.05905 -0.06214,-0.11732 -0.0949,-0.17485l0.02022,-0.01011l-0.10931,-0.21863c0.94182,0.20505 1.84073,0.50989 2.4723,0.67623c0.49391,0.13009 1.15598,0.03103 1.82658,-0.05862c-0.14069,-3.90095 -0.19277,-7.79704 1.83283,-11.17138z" fill="#3e3c33" stroke="none" stroke-width="0.5"/><path d="M17.75277,148.20361c0,1.50925 0,3.01849 0,4.52774c-0.05616,0.05709 -0.11019,0.11906 -0.16244,0.18506c-0.50092,0.08562 -1.01367,0.30174 -1.45755,0.11245c0.08458,-0.37298 0.15364,-0.74896 0.2044,-1.12779c0.2072,-1.54611 -0.26362,-3.23199 0.34854,-4.66678c0.1691,-0.39634 0.53232,-0.66858 0.88603,-0.94639c0.05279,0.44993 0.11846,0.90166 0.18987,1.35347c-0.00535,0.18756 -0.00886,0.37501 -0.00886,0.56224z" fill="#3e3c33" stroke="none" stroke-width="0.5"/><path d="M16.04566,142.6667c0.02019,-0.01579 0.04064,-0.03116 0.06133,-0.04613c0.03741,0.61476 0.19927,1.25679 -0.04368,1.81011c-0.07519,0.17125 -0.18586,0.31975 -0.31581,0.45581c0.01615,-0.97749 0.08202,-2.05078 0.29816,-2.21979z" fill="#3e3c33" stroke="none" stroke-width="0.5"/><path d="M14.15356,105.4554c0.70711,-0.7071 1.41421,0 1.41421,0l0.92359,1.33781c-0.04093,2.28172 -1.2133,3.72904 -1.75764,5.77715c-0.46002,1.73086 2.22978,1.54403 2.86969,2.52692c0.86101,1.32248 -0.13367,3.59543 0.67447,5.12412c0.47977,0.99999 1.51642,2.48091 0.44338,3.67712c-0.44298,0.49383 -1.30783,0.23298 -1.96851,0.2929c-1.78797,0.16214 -5.89263,1.52683 -7.44772,0.49086c-1.71349,-1.1415 -1.12067,-3.60899 -1.12067,-5.27506c0,-4.4149 0,-8.8298 0,-13.2447c0,0 0,-1 1,-1c1,0 1,1 1,1c0,4.4149 0,8.8298 0,13.2447c0,0.61438 -0.43107,3.30634 0.14072,3.55474c0.85201,0.37014 3.11772,-0.63586 3.74469,-0.75763c2.21416,-0.43005 3.70773,1.34881 2.41925,-1.0885c-0.44121,-0.91961 -0.72636,-1.95009 -0.73627,-2.97002c-0.00648,-0.66751 0.5359,-1.45283 0.14935,-1.99707c-0.52373,-0.73737 -1.96843,-0.39721 -2.45219,-1.1614c-0.49963,-0.78925 -0.77025,-1.78408 -0.69386,-2.71505c0.1498,-1.82548 1.78787,-3.4517 1.7353,-5.47908l-0.3378,0.07641c0,0 -0.70711,-0.70711 0,-1.41421z" fill="#3e3c33" stroke="none" stroke-width="0.5"/><path d="M10.09008,136.60051c0,0 -0.1644,-0.98639 0.822,-1.15079c0.98639,-0.1644 1.15079,0.82199 1.15079,0.82199c0.54157,3.24943 1.27501,5.88641 1.27501,9.21v0.4149c0,0 0,0.25606 -0.12957,0.50903c-0.21562,-0.36848 -0.45591,-0.6603 -0.72465,-0.84679c-0.32046,-0.22238 -0.7262,-0.33417 -1.14754,-0.35127c-0.03939,-3.07708 -0.73373,-5.53319 -1.24604,-8.60707z" fill="#3e3c33" stroke="none" stroke-width="0.5"/><path d="M19.27557,139.32821c-1,0 -1,-1 -1,-1c0,-1.29737 0,-4.37893 0,-5.6763c0,0 0,-1 1,-1c1,0 1,1 1,1c0,1.29737 0,2.59473 0,3.8921v1.7842c0,0 0,1 -1,1z" fill="#3e3c33" stroke="none" stroke-width="0.5"/><path d="M35.67377,135.54401c-1,0 -1,-1 -1,-1v-0.0912c0,-4.62131 0.91819,-10.33993 -0.57938,-14.72937c0,0 -0.31623,-0.94868 0.63246,-1.26492c0.94869,-0.31623 1.26491,0.63246 1.26491,0.63246c1.52743,4.67551 0.68201,10.46021 0.68201,15.36183v0.0912c0,0 0,1 -1,1z" fill="#3e3c33" stroke="none" stroke-width="0.5"/><path d="M-1.27613,130.12911c0,-2.5228 0,-6.307 0,-8.8298c0,0 0,-1 1,-1c1,0 1,1 1,1c0,2.5228 0,5.0456 0,7.5684v1.2614c0,0 0,0.52464 -0.38,0.8139c-0.35569,-0.03952 -0.71137,-0.07904 -1.06706,-0.11856c0,0 -0.1219,-0.01354 -0.29357,0.00604c-0.25937,-0.29467 -0.25937,-0.70137 -0.25937,-0.70137z" fill="#3e3c33" stroke="none" stroke-width="0.5"/><path d="M4.40017,140.22031c0,-0.87733 0.58946,-1.86881 0.14935,-2.62777c-0.37926,-0.65404 -1.53668,-0.0854 -2.23821,-0.3673c-0.67389,-0.27079 -1.21897,-0.78991 -1.82797,-1.18562c-0.34117,-0.22169 -1.09234,-0.73081 -1.1745,-0.33232c-1.15357,5.59476 -0.60459,12.02561 -0.49472,17.89793c-0.10173,0.00847 -0.20515,0.01724 -0.30961,0.02615l-0.88033,-0.88033l-0.00857,0.00857c-0.08614,-0.1245 -0.20356,-0.2542 -0.35923,-0.35199c-0.03482,-0.20842 -0.07112,-0.41455 -0.1087,-0.6181l-0.19124,-0.18778l0.06889,-0.04593l-0.2341,-0.35116c-0.05753,-4.1748 -0.09415,-8.36358 0.53712,-12.44524c0.03053,-0.19741 0.07473,-1.2869 0.12784,-2.29647c0.34554,-0.03862 0.7432,-0.22323 0.96089,-0.80375c0.29601,-0.78937 -0.14,-1.246 -0.45527,-1.45966c1.73206,-1.92114 3.43553,0.51077 5.02561,1.14344c1.0767,0.4284 2.60206,0.24656 3.2634,1.19809c0.15659,0.2253 0.16012,2.16565 0.15382,3.14051c-0.6726,-0.30757 -1.43677,0.42439 -2.00447,1.09013c0,-0.18596 0,-0.36982 0,-0.55141z" fill="#3e3c33" stroke="none" stroke-width="0.5"/><path d="M10.18437,294.74179c0,0.26043 0.06415,3.47167 -0.18876,3.73821c-1.983,2.0899 -5.66043,0.90927 -7.90912,0.40238c-0.55119,-0.12425 -1.29433,0.23146 -1.68593,-0.17585c-0.51282,-0.53341 -0.79551,-1.27178 -0.94572,-2.0187c0.25326,-1.2106 0.43413,-2.53155 0.53596,-3.88672c0.08558,-0.29307 0.16168,-0.58692 0.21436,-0.88235c0.35138,-1.97072 0.40036,-3.79586 0.4098,-5.79571c0.09805,-0.72659 -0.26323,-1.70346 0.29415,-2.17979c0.4494,-0.38405 1.22386,-0.54963 2.11784,-0.57391c0.18101,0.6866 0.62211,1.34516 0.8986,2.01513c-0.89244,-0.01839 -1.52726,0.17253 -1.31061,0.74402c-0.01342,2.78671 -0.19122,5.41273 -0.79737,8.14333c-0.07553,0.34025 -0.89198,2.23494 -0.24759,2.81223c0.21231,0.1902 0.5557,-0.22271 0.83687,-0.17584c0.65577,0.1093 1.24101,0.49632 1.8921,0.6307c0.83242,0.1718 3.40023,0.3513 4.07418,-0.22832c0.65094,-0.55984 -0.18876,-1.71022 -0.18875,-2.56879c0.00001,-1.33141 -0.12137,-2.64369 -0.25766,-3.94833c0.65701,-0.23451 1.33421,-0.61315 1.88682,-0.94017c0.17386,1.61864 0.37081,3.24848 0.37082,4.88849z" fill="#3e3c33" stroke="none" stroke-width="0.5"/><path d="M18.82541,285.86601c-0.84909,1.09089 -2.47715,1.32797 -4.14891,1.224c0.80811,-0.47093 1.59948,-0.96024 2.3488,-1.48655c0.68312,-0.47981 1.34668,-1.06249 2.0058,-1.68388c0.05744,0.69422 0.19771,1.42816 -0.20569,1.94643z" fill="#3e3c33" stroke="none" stroke-width="0.5"/><path d="M17.99334,281.27993l0.14347,-0.4304c0.31859,-0.25529 0.62704,-0.56 0.92519,-0.8848c0.00272,0.25256 0.0043,0.50506 0.00458,0.75742c-0.64336,0.51339 -1.2892,1.03547 -1.9498,1.5497c-0.01071,-0.04784 -0.02091,-0.09559 -0.03044,-0.1432c0.43208,-0.10188 0.7776,-0.42797 0.907,-0.84873z" fill="#3e3c33" stroke="none" stroke-width="0.5"/><path d="M18.64487,314.66279c-1,0 -1,-1 -1,-1v-0.6307c0.01238,-0.76929 0.5221,-1.94016 -0.15643,-2.30285c-0.84065,-0.44935 -4.50691,0.03397 -5.62109,0.13644c-0.41885,0.03852 -0.98351,-0.10424 -1.24104,0.22832c-0.64176,0.82873 0.63774,2.00482 0.80654,3.03931c0.01688,0.10345 0.01292,3.74632 0.01292,3.94439c0,0 0,1 -1,1c-1,0 -1,-1 -1,-1c0,-1.73471 -1.38506,-6.88012 -0.44195,-8.15311c1.26678,-1.70987 5.97339,-1.11807 7.74894,-1.04599c0.5973,0.02425 1.29949,-0.19641 1.78713,0.14935c1.41095,1.00041 1.08755,2.62237 1.10497,4.00415v0.6307c0,0 0,1 -1,1z" fill="#3e3c33" stroke="none" stroke-width="0.5"/><path d="M37.30214,290.1434c-0.44721,-0.89443 0.44721,-1.34164 0.44721,-1.34164l0.85797,-0.262c-0.53124,-3.08897 1.11205,-6.93202 1.11205,-10.19617c0,0 0,-1 1,-1c1,0 1,1 1,1c0,3.90049 -1.08132,7.39602 -1.41075,11.24763l-1.66484,0.9994c0,0 -0.89442,0.44721 -1.34164,-0.44722z" fill="#3e3c33" stroke="none" stroke-width="0.5"/><path d="M35.9375,285.09781c-0.44721,0.89443 -1.34164,0.44722 -1.34164,0.44722l-1.2614,-0.6307c0,0 -0.28751,-0.14376 -0.45501,-0.43127c0.00662,0.05247 0.01013,0.10825 0.01013,0.16755c0,1 -1,1 -1,1l-1.07791,-0.10557c-2.25101,-1.35127 -1.81419,-2.21128 -1.81419,-4.67863c0,0 0,-1 1,-1c1,0 1,1 1,1c0,1.33523 -0.73032,2.45035 0.70862,2.88977l0.18349,-0.10557c0,0 0.607,0 0.87517,0.47292c-0.01286,-0.15949 0.01864,-0.3431 0.1225,-0.55083c0.44721,-0.89443 1.34164,-0.44721 1.34164,-0.44721l1.2614,0.6307c0,0 0.89443,0.44721 0.44721,1.34164z" fill="#3e3c33" stroke="none" stroke-width="0.5"/><path d="M18.46138,308.88092c-0.89442,0.44722 -1.34164,-0.44721 -1.34164,-0.44721l-0.6307,-1.2614c-0.2365,-0.49295 -0.60994,-0.94126 -0.70952,-1.47886c-0.5605,-3.02594 1.1117,-4.75135 3.81999,-5.59643c0.37713,-0.11768 0.86781,0.12552 1.17938,-0.11738c0.89483,-0.69761 1.45993,-1.82035 2.46437,-2.34806c0,0 0.89442,-0.44722 1.34164,0.44721c0.44721,0.89443 -0.44721,1.34164 -0.44721,1.34164c-0.96609,0.44848 -1.41601,1.61482 -2.27724,2.24154c-2.09325,1.52326 -5.66952,0.66817 -3.58255,4.61592l0.6307,1.2614c0,0 0.44721,0.89443 -0.44721,1.34164z" fill="#3e3c33" stroke="none" stroke-width="0.5"/><path d="M43.29558,278.78845c0.81654,-0.57729 1.39383,0.23926 1.39383,0.23926l0.10683,0.15111c1.56694,2.31512 1.34573,3.59898 1.31127,6.33223c-1.42645,2.97317 -1.90364,5.73402 -2.5228,8.8298c-0.31618,1.5809 0.67598,2.5306 -1.07822,3.77439c-0.21496,0.15242 -2.58987,0.17182 -3.04853,0.14935c-0.59707,-0.02925 -1.27255,0.15487 -1.78713,-0.14935c-0.44621,-0.2638 -0.34534,-1.04577 -0.76017,-1.35659c-0.53204,-0.39864 -1.36536,-0.22508 -1.8921,-0.6307c-1.87034,-1.44026 -2.097,-4.93019 -5.0211,-4.80106c0,0 -1,0 -1,-1c0,-1 1,-1 1,-1c4.07723,0.11278 3.77965,3.43417 6.3315,5.29014c0.53765,0.39103 1.36045,0.23154 1.8921,0.6307c0.33837,0.25405 0.17439,0.89751 0.50123,1.16621c0.70365,0.57848 1.92939,0.42942 2.73274,0c0.74646,-0.399 0.01718,-1.70263 0.18318,-2.5326c0.60668,-3.03337 0.99456,-5.93897 2.5228,-8.8298c-0.03359,-2.08713 0.28684,-3.00367 -0.99786,-4.71815l-0.10684,-0.15111c0,0 -0.57728,-0.81654 0.23926,-1.39382z" fill="#3e3c33" stroke="none" stroke-width="0.5"/><path d="M40.98077,145.89661c0,-1 1,-1 1,-1l1.96851,0.29289c0.44892,3.91073 1.09982,6.57983 0.26615,10.39736c-0.15586,0.71368 0.25955,1.5655 -0.1226,2.18808c-0.07584,0.12355 -0.16755,0.23596 -0.27213,0.33781c-2.86466,-1.94255 -5.71669,-0.79664 -8.48511,-0.29332c0.11648,-0.58747 0.19592,-1.10411 0.23937,-1.582c0.87397,0.00024 1.74787,0.0033 2.62162,0.01179c0.41152,0.004 3.99644,1.15626 4.19495,0.47427c0.96189,-3.30468 -0.51903,-6.93637 0.14355,-10.11976l-0.5543,0.29289c0,0 -1,0 -1,-1z" fill="#3e3c33" stroke="none" stroke-width="0.5"/><path d="M29.6161,156.96413c0.20431,-0.18329 0.34792,-0.43288 0.397,-0.71492c0.03769,0 0.07538,-0.00001 0.11306,-0.00002c0.10344,0.50229 0.1868,1.17523 0.2686,1.83429c-0.09089,0.00144 -0.1819,0.00284 -0.27301,0.00421c-0.1634,-0.37663 -0.34125,-0.74748 -0.50566,-1.12357z" fill="#3e3c33" stroke="none" stroke-width="0.5"/><path d="M323.99316,97.61862c0.79078,-0.6121 1.40288,0.17866 1.40288,0.17866l0.31182,0.48667c0.39713,0.27084 0.76982,0.57767 1.12125,0.90914c0.08149,-0.23243 0.08777,-0.51913 -0.00565,-0.86791c-0.24518,-0.9155 -0.69733,-1.82724 -1.13249,-2.73682c-0.04983,-0.04578 -0.09901,-0.09925 -0.14711,-0.16139c-0.18341,-0.23695 -0.24087,-0.45786 -0.23138,-0.65106c-0.14301,-0.32065 -0.27559,-0.64108 -0.38789,-0.96139c-0.31108,-0.88723 -0.77933,-1.73433 -0.93257,-2.66195c-0.03999,-0.2421 0.36268,-0.79209 0.1266,-0.72519c-0.8887,0.25186 -1.5287,1.11154 -2.42206,1.34633c-0.25575,0.38605 -0.5115,0.77213 -0.76725,1.15818l-0.17024,0.06539c0.25943,0.89395 0.43754,1.81263 0.67052,2.71451c0.18139,0.70211 0.68013,3.10111 1.17943,3.58919c0.37646,0.36801 1.25066,0.66546 2.11176,0.7293c-0.04175,-0.02877 -0.08381,-0.05705 -0.1262,-0.08481l-0.78011,-0.92398c0,0 -0.61211,-0.79078 0.17867,-1.40289zM328.29339,100.83284c0.81566,2.79636 4.09107,1.63395 6.48577,2.15472c-0.00773,-0.00985 -0.01498,-0.01959 -0.02174,-0.02923c-0.37471,-0.53374 -0.5644,-1.19459 -0.66999,-1.83812c-0.26283,-1.60188 -0.81027,-2.63797 -1.28953,-4.46062c-0.18893,-0.71851 0.04157,-1.76729 -0.59674,-2.14742c-1.34259,-0.79955 -3.03609,-0.29119 -4.33191,0.46633c0.69111,1.83822 1.15676,3.69933 0.721,4.80582c-0.12612,0.32024 -0.27754,0.60399 -0.44995,0.85335c0.05153,0.06481 0.10255,0.12988 0.1531,0.19518zM333.45913,92.95732c0.52877,0.3733 0.54103,1.17665 0.78106,1.77776c0.80221,2.00895 1.71834,4.19473 1.83618,6.17521c0.08495,1.4277 3.69976,2.0815 1.88713,4.1809c-0.60635,0.70227 -1.8532,0.14901 -2.78069,0.12395c-3.0738,-0.08303 -7.31295,-0.24779 -8.61032,-3.33799c-2.21224,0.84142 -5.25614,-0.62287 -6.11889,-2.90988c-0.667,-1.7681 -1.01897,-3.58334 -1.58854,-5.36272c-0.29018,-0.0202 -0.6449,-0.15936 -0.82258,-0.6665c-0.33064,-0.94375 0.61313,-1.27439 0.61313,-1.27439l1.04949,-0.3133c0.26759,-0.39502 0.53518,-0.79003 0.80277,-1.18505c1.45679,-0.4821 2.82843,-2.00092 4.31249,-1.61076c0.71165,0.1871 0.74792,1.27002 1.05917,1.93677c0.3106,0.66534 0.77091,1.60545 1.23285,2.64998c1.9367,-1.01639 4.44222,-1.52854 6.34674,-0.18398z" fill="#3e3c33" stroke="none" stroke-width="0.5"/><path d="M338.40721,69.91254c0.99199,0.12634 0.86565,1.11832 0.86565,1.11832l-0.51503,-0.33145c3.14118,2.10465 3.68229,4.51513 3.94089,8.16567c0.08598,1.21371 1.11328,3.61083 -0.23481,4.72929c-0.46943,0.38946 -1.22251,-0.01371 -1.8292,0.04928c-1.82428,0.18941 -3.96757,0.35183 -5.16621,-1.62831c-1.56149,-2.57956 -1.73007,-5.38334 -2.32093,-8.26683c0,0 -0.19384,-0.98103 0.78719,-1.17487c0.98104,-0.19384 1.17487,0.7872 1.17487,0.7872c0.20633,1.07814 -0.00688,3.26832 0.59112,4.25519c0.61989,1.023 0.88183,2.22823 1.4321,3.2903c0.73508,1.41874 2.41833,0.75437 3.43347,0.73851c0.25575,-0.004 0.44307,0.4793 0.67337,0.368c0.19444,-0.09397 -0.52625,-2.88566 -0.52993,-2.93783c-0.22342,-3.15389 -0.49708,-4.99337 -3.06521,-6.71406l-0.35568,-1.58275c0,0 0.12634,-0.99199 1.11832,-0.86565z" fill="#3e3c33" stroke="none" stroke-width="0.5"/><path d="M350.88389,91.73272c-0.85181,0.52385 -1.37566,-0.32796 -1.37566,-0.32796l-0.77409,-1.26706c-1.06618,-2.77979 -2.84008,-6.40987 -2.55042,-9.32558c0,0 0.12634,-0.99199 1.11832,-0.86565c0.99199,0.12634 0.86565,1.11832 0.86565,1.11832c-0.39067,2.26496 1.51441,5.95369 2.36054,8.18902l0.68361,1.10323c0,0 0.52385,0.85181 -0.32795,1.37566z" fill="#3e3c33" stroke="none" stroke-width="0.5"/><path d="M338.57366,93.5669c-0.99199,-0.12634 -0.86565,-1.11832 -0.86565,-1.11832l0.12791,-0.16868c-0.31085,-0.88732 -0.62172,-1.77463 -0.93257,-2.66195c0,0 -0.33063,-0.94375 0.61312,-1.27439c0.94376,-0.33063 1.27439,0.61312 1.27439,0.61312c0.31085,0.88732 0.62172,1.77463 0.93257,2.66195l-0.03145,1.08261c0,0 -0.12634,0.99199 -1.11832,0.86565z" fill="#3e3c33" stroke="none" stroke-width="0.5"/><path d="M324.87508,111.87246c-0.79078,0.6121 -1.40288,-0.17866 -1.40288,-0.17866l-0.70254,-0.99725c-0.64365,-1.9044 -1.13866,-3.47191 -1.28965,-5.49374c0,0 -0.07066,-0.99751 0.92684,-1.06817c0.9975,-0.07067 1.06816,0.92684 1.06816,0.92684c0.12292,1.84915 0.60107,3.25411 1.18935,4.99469l0.38938,0.41341c0,0 0.61211,0.79078 -0.17866,1.40288z" fill="#3e3c33" stroke="none" stroke-width="0.5"/><path d="M343.26224,99.19333c0.90114,0.43355 0.46758,1.33468 0.46758,1.33468l-0.89768,1.86004c-0.53936,0.77222 -0.79623,1.74238 -0.90019,2.67855c0,0 -0.12634,0.99199 -1.11832,0.86565c-0.99199,-0.12634 -0.86565,-1.11832 -0.86565,-1.11832c0.16688,-1.19041 0.4943,-2.40973 1.1479,-3.41855l0.83169,-1.73447c0,0 0.43354,-0.90113 1.33468,-0.46758z" fill="#3e3c33" stroke="none" stroke-width="0.5"/><path d="M412.24257,192.9046c0.5442,-0.09411 1.06167,0.27076 1.15578,0.81497c0.01754,0.1014 0.01913,0.20188 0.0066,0.29886c0.04434,0.09066 0.0792,0.19729 0.10087,0.32261c0.1704,0.98537 -0.81497,1.15578 -0.81497,1.15578l-0.5961,-0.19415c0.0989,0.3682 0.518,0.79415 0.2967,1.1046c-0.38591,0.54136 -1.40959,0.37704 -1.75695,0.9439c-0.23007,0.37544 0.31648,0.82558 0.40878,1.2561c0.41276,1.92516 0.82191,1.94528 2.28146,2.9016c1.47793,-0.23977 3.35553,0.38851 5.00471,1.19679c0.2712,-0.05063 0.54341,-0.09313 0.81829,-0.11415c0.37098,-0.02837 0.91681,0.42229 1.11125,0.10507c0.1467,-0.23935 -0.91442,-2.5345 -1.1328,-2.84933l-1.06242,-0.26623c0,0 -0.95755,-0.28826 -0.66929,-1.24581c0.28827,-0.95756 1.24581,-0.66929 1.24581,-0.66929l1.63844,0.54682c0.82508,1.09112 2.64542,4.11411 1.61477,5.63638c-0.08494,0.12545 -0.44726,0.25941 -0.93155,0.38864c0.25314,0.17214 0.4756,0.33219 0.66039,0.47247l0.46264,2.22855c0,0 0.01199,0.06933 0.01122,0.17439c0.14902,-0.57689 0.80491,-0.69032 0.80491,-0.69032l1.86443,-0.32242c0,0 0.98537,-0.1704 1.15578,0.81497c0.1704,0.98537 -0.81497,1.15578 -0.81497,1.15578l-1.86443,0.32242c0,0 -0.98537,0.1704 -1.15578,-0.81497c-0.01225,-0.07085 -0.01853,-0.13749 -0.01962,-0.20015c-0.01629,0.07227 -0.0408,0.14778 -0.07702,0.22178c-0.16479,0.56968 -0.18578,1.24395 -0.63341,1.60797c-0.44398,0.36105 -1.23422,-0.16763 -1.71017,0.15006c-0.22955,0.15323 0.42018,0.45231 0.39585,0.72723c-0.05945,0.67182 -0.16628,1.43322 -0.63034,1.92263c-0.92759,0.97825 -2.59731,0.99478 -3.94227,0.90277c-0.65072,-0.04452 -1.2867,-0.11447 -1.90457,-0.21764c-0.37188,0.07021 -0.73386,0.08355 -1.06618,-0.07309c-0.11729,-0.05528 -0.2158,-0.13069 -0.30089,-0.22071c-2.25634,-0.60465 -4.20919,-1.78333 -5.66906,-3.97306c-1.95115,-0.77049 -1.56044,3.9226 -2.19428,4.84689c-1.96501,2.86545 -7.19963,4.09609 -9.85858,2.46361c-0.61823,-0.37956 -1.79602,-0.36373 -1.88751,-1.08338c-0.29663,-2.33327 2.18569,-1.84206 3.11794,-2.66449c0.65899,-0.58138 0.61947,-3.18236 1.15183,-3.96553c0.44227,-0.65063 1.21049,-1.13571 1.40171,-1.89883c0,0 0.28826,-0.95755 1.24581,-0.66929c0.95755,0.28826 0.66929,1.24581 0.66929,1.24581c-0.31578,0.9462 -1.08988,1.67234 -1.6823,2.47486c-0.78293,1.06061 -0.31072,3.1377 -1.28735,4.137c-0.39837,0.40762 -0.94967,0.62469 -1.50366,0.81017c0.46311,0.30037 0.87219,0.76273 0.88971,0.7671c1.16895,0.29165 5.45088,-1.7845 6.08816,-2.74004c1.20507,-1.80688 -0.37124,-5.36653 2.90466,-5.93304c0.7142,-0.12351 1.39807,0.38309 2.09709,0.57464c0.53463,0.68237 1.06711,1.25905 1.61669,1.74528c-0.50958,-0.65756 -0.88818,-1.35516 -0.81447,-1.96902c0.17019,-1.41713 2.03134,-2.00648 3.01056,-3.04491c0.17238,-0.18281 0.20316,-0.45819 0.23573,-0.72967c-1.92847,-1.47253 -4.08778,-3.63425 -2.89302,-6.31825c0.27037,-0.60735 1.37632,-0.39883 1.75695,-0.9439c0.26485,-0.37925 -0.0888,-0.92087 -0.1332,-1.3813l0.95403,-0.31504c0.02461,-0.45516 0.36008,-0.84951 0.82832,-0.93049zM417.5178,204.90307c0,0 -0.79918,0.1382 -1.08255,-0.55403c-0.41661,-0.10381 -0.88525,-0.22266 -1.45548,-0.39432c-0.30758,-0.09259 -0.69533,-0.3613 -1.0305,-0.48884c-0.2266,0.21407 -0.47292,0.2617 -0.68517,0.24308c-0.1103,0.34773 0.02903,0.81398 -0.22163,1.0798c-0.71016,0.7531 -2.60584,0.7246 -2.55936,1.75867c0.04522,1.006 1.73608,2.1205 2.25794,2.75381c0.26418,0.32059 0.2202,0.86706 0.38796,1.23481c0.29261,0.07289 0.5951,0.13564 0.90883,0.18935c0.19815,-0.10996 0.3995,-0.24919 0.5925,-0.312c0,0 0.76549,-0.13239 1.06375,0.51091c0.74239,0.07832 1.67447,0.34939 2.16863,-0.18166c0.57705,-0.62012 -0.41119,-1.9012 0.14868,-2.53689c0.33722,-0.38289 1.00287,-0.50203 1.50205,-0.71991c-0.00783,-0.03156 -0.01475,-0.06447 -0.02068,-0.09878c-0.10587,-0.61222 0.23441,-0.90984 0.50732,-1.04747l-0.06805,-0.56033c-0.76694,-0.48071 -1.34263,-0.76383 -1.87819,-0.96459c-0.24387,0.04022 -0.43298,0.07057 -0.53605,0.0884z" fill="#3e3c33" stroke="none" stroke-width="0.5"/><path d="M394.90943,205.87776c-0.09411,-0.54421 0.27077,-1.06167 0.81497,-1.15578c0.5442,-0.09411 1.06167,0.27076 1.15578,0.81497c0.09411,0.54421 -0.27077,1.06167 -0.81497,1.15578c-0.5442,0.09411 -1.06167,-0.27076 -1.15578,-0.81497z" fill="#3e3c33" stroke="none" stroke-width="0.5"/><path d="M399.37873,200.58087c0.53786,-0.84304 1.38089,-0.30518 1.38089,-0.30518l0.84647,0.55357c2.26984,1.03409 3.53062,2.49593 5.97848,3.22899c0,0 0.95755,0.28826 0.66929,1.24581c-0.28827,0.95756 -1.24581,0.66929 -1.24581,0.66929c-2.52787,-0.76461 -3.9211,-2.33759 -6.21157,-3.3153l-1.11256,-0.69629c0,0 -0.84304,-0.53785 -0.30518,-1.38089z" fill="#3e3c33" stroke="none" stroke-width="0.5"/><path d="M408.2754,188.47016c0.98537,-0.1704 1.15578,0.81497 1.15578,0.81497c0.1136,0.65691 0.42377,2.45047 0.53737,3.10738c0,0 0.1704,0.98537 -0.81497,1.15578c-0.98537,0.1704 -1.15578,-0.81497 -1.15578,-0.81497c-0.1136,-0.65691 -0.22721,-1.31384 -0.34081,-1.97075l-0.19656,-1.13663c0,0 -0.1704,-0.98537 0.81497,-1.15578z" fill="#3e3c33" stroke="none" stroke-width="0.5"/><path d="" fill="#161512" stroke="none" stroke-width="0.5"/><path d="" fill="#161512" stroke="none" stroke-width="0.5"/><path d="" fill="#161512" stroke="none" stroke-width="0.5"/><path d="" fill="#161512" stroke="none" stroke-width="0.5"/><path d="" fill="#161512" stroke="none" stroke-width="0.5"/><path d="" fill="#161512" stroke="none" stroke-width="0.5"/><path d="" fill="#161512" stroke="none" stroke-width="0.5"/><path d="" fill="#161512" stroke="none" stroke-width="0.5"/><path d="" fill="#161512" stroke="none" stroke-width="0.5"/><path d="" fill="#161512" stroke="none" stroke-width="0.5"/><path d="" fill="#161512" stroke="none" stroke-width="0.5"/><path d="" fill="#161512" stroke="none" stroke-width="0.5"/><path d="" fill="#161512" stroke="none" stroke-width="0.5"/><path d="" fill="#161512" stroke="none" stroke-width="0.5"/><path d="" fill="#161512" stroke="none" stroke-width="0.5"/><path d="" fill="#161512" stroke="none" stroke-width="0.5"/><path d="" fill="#567b2f" stroke="none" stroke-width="0.5"/><path d="" fill="#567b2f" stroke="none" stroke-width="0.5"/><path d="" fill="#567b2f" stroke="none" stroke-width="0.5"/><path d="M356.66051,88.66319c0.61211,0.79077 -0.17866,1.40288 -0.17866,1.40288l-1.17097,0.53602c-0.51477,-0.24458 -2.61214,3.17281 -3.41128,4.03728c-0.60181,0.08995 -1.07795,0.62514 -1.45443,1.10318c-0.53258,0.67626 -1.63244,0.80123 -2.07194,1.54137c-0.89472,1.50678 0.16494,3.36489 0.5571,4.73582c0.3958,1.38364 -0.04997,2.54988 1.63848,3.1444c2.37271,0.83545 2.3256,-0.3115 4.0919,-0.94612c0.69161,-0.24849 1.50555,-0.08181 2.29723,0.22064c-1.62808,0.37903 -3.17253,0.89662 -4.12699,1.29172c-0.21668,0.08969 -0.83267,1.01076 -1.38952,1.71375c-0.48198,-0.04181 -1.00082,-0.16949 -1.57436,-0.40713c-2.44932,-1.01485 -2.25117,-2.33417 -2.85334,-4.44569c-0.54876,-1.92423 -1.57654,-4.2479 -0.37676,-6.30005c0.4859,-0.83112 1.65772,-1.05033 2.25336,-1.80668c0.52598,-0.66789 1.17869,-1.37873 2.0058,-1.57526c1.51298,-1.9329 2.09657,-4.33986 4.66742,-4.29121l-0.30591,-0.13359c0,0 0.79078,-0.6121 1.40289,0.17867z" fill="#567b2f" stroke="none" stroke-width="0.5"/><path d="M341.98761,92.68424c0.00852,0.0849 0.00742,0.17825 -0.00565,0.28085c-0.12634,0.99199 -1.11832,0.86565 -1.11832,0.86565l-1.15846,-1.4744c0.31795,-0.51573 0.3844,-1.34032 0.95385,-1.54721c3.76381,-1.36745 4.12442,3.0668 2.79173,5.12525c-0.58142,0.89805 -0.92973,2.22532 -1.94915,2.54985c-0.6201,0.1974 -1.25778,-0.34231 -1.86632,-0.57288c-1.68188,-0.63729 -2.91376,-2.09932 -3.56474,-3.7799c-0.32444,0.21719 -0.72483,0.1662 -0.72483,0.1662c-0.00043,-0.00006 -0.00084,-0.00011 -0.00127,-0.00017c-1.30753,-0.17555 -3.05849,0.47198 -4.25428,-0.22865c-1.76864,-1.03625 -2.56608,-5.24345 0.11267,-5.797c0.57295,-0.1184 1.09376,0.41573 1.64064,0.6236l0.79616,1.38669c0,0 0.33063,0.94375 -0.61313,1.27439c-0.94376,0.33063 -1.27439,-0.61312 -1.27439,-0.61312l0.22427,-0.2457c-1.56885,-1.21612 0.04259,1.60515 0.10646,1.63488c0.77907,0.36264 2.33195,-0.07943 3.33293,-0.03371c0.12024,-0.67709 0.20904,-1.39281 -0.03055,-1.9833c-0.54046,-1.33203 -2.62939,-1.88066 -2.76267,-3.76933c-0.04071,-0.57688 0.23744,-1.11683 0.45314,-1.66855c-0.8445,0.43148 -1.7298,0.77724 -2.73089,0.97225c-1.84566,-0.23506 -3.26272,-1.03581 -4.92516,-1.83563l-0.84155,-0.55177c0,0 -0.83077,-0.55662 -0.27413,-1.38739c0.55663,-0.83075 1.38739,-0.27413 1.38739,-0.27413l0.59538,0.41102c1.2909,0.62107 2.56265,1.45733 3.98968,1.63907c2.6143,-0.52844 4.90561,-2.7333 7.01217,-4.28318c1.69418,-1.24647 3.65279,-0.02675 5.11323,-1.17486c0.41547,-0.32663 0.04532,-1.05722 0.02463,-1.5853c-0.02359,-0.60225 0.21289,-1.3959 -0.24144,-1.79192c-0.37067,-0.32309 -1.02584,-0.15687 -1.39381,-0.48304c-0.65971,-0.58477 -0.8634,-1.54528 -1.40643,-2.23977c0,0 -0.61211,-0.79078 0.17866,-1.40288c0.79078,-0.6121 1.40288,0.17866 1.40288,0.17866c1.46996,1.91511 5.59882,5.64009 2.89725,8.68926c-1.30856,1.47693 -3.4123,0.53749 -4.8349,0.89583c-0.92739,0.2336 -2.36333,2.0305 -3.19193,2.56086c-0.22919,0.14671 -0.45529,0.29241 -0.67977,0.43582c0.17378,0.31147 0.1289,0.66388 0.1289,0.66388c-0.09663,0.70384 -0.72496,1.3132 -0.67435,2.02185c0.10262,1.43684 1.99998,1.84454 2.59422,3.15115c0.09932,0.21838 0.17095,0.43913 0.22059,0.66161c0.19501,0.31861 0.14708,0.69497 0.14708,0.69497c-0.2183,1.55374 0.56417,3.93581 1.9426,4.80029c0.46064,0.28889 0.85928,1.23412 1.32432,0.95236c0.20189,-0.12231 -0.08581,-0.49942 0.02527,-0.7077c0.36166,-0.6781 1.07187,-1.16263 1.32085,-1.8897c0.14417,-0.421 0.00076,-1.06491 -0.19884,-1.31509z" fill="#567b2f" stroke="none" stroke-width="0.5"/><path d="M402.7348,195.12382c0.50745,-0.11847 0.98945,-1.15391 1.44916,-2.2828c0.3668,-0.22633 0.69104,-0.48097 0.82171,-0.87039c0.1617,-0.48189 0.2063,-0.98681 0.18887,-1.5033c0.0876,-0.16295 0.17436,-0.30356 0.26031,-0.41477c0.0435,-0.87179 -0.3698,-1.78144 -0.11439,-2.61611c0.94111,-3.07544 4.23993,-1.69064 5.44844,0.2353c0.38978,0.62118 0.18482,1.55139 0.68002,2.09228c0.28088,0.30679 0.78913,0.39497 0.99056,0.75888c1.69583,3.06364 -1.70006,3.73271 -2.04478,6.13865c-0.44345,3.09498 2.40794,4.71242 4.67974,6.12567c3.14282,-0.5438 4.98874,-1.35865 7.20753,1.67637c0.84001,1.14903 1.6898,1.17172 1.32293,2.9605c-0.53401,2.60373 -4.84457,3.20554 -5.23712,0.32567l-0.65944,0.0909c0,0 -0.06982,-0.01059 -0.16954,-0.04469c0.01909,0.23076 0.01106,0.4587 -0.03165,0.68261c-0.13666,0.71637 -1.21376,1.06029 -1.26082,1.78807c-0.05613,0.86792 0.8979,2.37599 0.45068,3.26715c-0.27175,0.54151 -1.00211,0.68123 -1.50317,1.02183l-0.68396,0.17036c0,0 -0.98537,0.1704 -1.15578,-0.81497c-0.1704,-0.98537 0.81497,-1.15578 0.81497,-1.15578l0.07825,0.03854c1.2571,-0.26202 -0.14127,-1.53637 0.04786,-2.96644c0.09562,-0.723 1.0718,-1.0837 1.26082,-1.78807c0.24456,-0.91136 -1.27481,-2.54935 -1.39775,-3.61735c-0.01127,-0.01669 -0.02219,-0.03409 -0.03269,-0.0522c-2.09408,-1.03616 -4.32717,-2.60182 -5.29441,-4.75713c-0.78776,0.99576 -0.81588,1.69626 -1.28133,3.54501c-0.12299,0.48852 -0.39711,0.81387 -0.46551,1.01604c0.19154,-0.04676 0.34566,-0.03539 0.34566,-0.03539l1.56948,0.11595c0.45603,0.0237 0.85147,0.35947 0.93256,0.82841c0.09411,0.54421 -0.27077,1.06167 -0.81497,1.15578l-1.14333,0.19772l-0.01241,-0.07175l-0.14764,0.08632c-4.91602,-1.0021 -1.90137,-6.78963 0.52502,-9.23984c0.00548,-0.2585 0.0287,-0.52323 0.07109,-0.79422c0.19023,-1.21611 3.18495,-3.69677 2.33941,-4.82471c-0.67696,-0.90304 -1.11717,-1.9224 -1.67057,-2.85116c-0.0807,-0.13544 -1.83508,-1.88178 -1.80697,-0.86504c0.02627,0.95017 0.12986,1.90439 0.04608,2.85123c-1.32971,1.99673 -1.69293,5.35399 -3.95082,6.28754c-0.93534,0.38673 -1.86529,0.56889 -2.76693,0.57952c0.06927,-0.06161 0.13584,-0.12293 0.19946,-0.18383c0.55238,-0.52884 0.9214,-1.36767 1.27662,-2.15657c0.20909,-0.03599 0.42203,-0.07921 0.63876,-0.1298zM418.02823,205.8633l1.75903,0.45769c0.17099,0.82838 1.48529,2.33254 1.88648,0.66381c0.10454,-0.43481 -1.22685,-1.97676 -1.50953,-2.34963c-0.8205,-1.08227 -2.55629,-0.5592 -3.88227,-0.14373c0.25821,0.55529 0.56566,1.12841 0.81526,1.70171c0.33699,-0.41995 0.93103,-0.32985 0.93103,-0.32985z" fill="#567b2f" stroke="none" stroke-width="0.5"/><path d="" fill="#567b2f" stroke="none" stroke-width="0.5"/><path d="" fill="#567b2f" stroke="none" stroke-width="0.5"/></g></g></svg>