<svg version="1.1" xmlns="http://www.w3.org/2000/svg" xmlns:xlink="http://www.w3.org/1999/xlink" width="14.41485" height="15.66458" viewBox="0,0,14.41485,15.66458"><g transform="translate(-232.7926,-172.16774)"><g data-paper-data="{&quot;isPaintingLayer&quot;:true}" fill="#effffc" fill-rule="nonzero" stroke="none" stroke-width="0.5" stroke-linecap="butt" stroke-linejoin="miter" stroke-miterlimit="10" stroke-dasharray="" stroke-dashoffset="0" style="mix-blend-mode: normal"><path d="M238.13252,173.66776c0.46052,-0.39597 1.71586,-0.38698 2.25835,-0.54655c0.76402,-0.22474 1.77343,-0.84634 2.567,-0.94353c0.78465,-0.09611 0.72828,0.5284 1.11414,0.84699c0.43423,0.35852 1.3398,0.05889 1.66543,0.79238c0.19294,0.4346 0.3002,2.29456 0.34697,2.33335c0.16916,0.14029 0.57763,0.13678 0.70619,0.34268c0.18073,0.28941 0.50253,2.84858 0.39556,3.11191c-0.03444,0.08477 -0.07529,0.16867 -0.1224,0.24852l0.00354,0.00838l-0.03382,0.07812l-0.00319,0.0851l-0.05456,0.04829l-0.09947,0.22978l-0.16509,0.21528l0.12408,0.27917l0.01955,0.11172l0.04644,0.10356l0.03217,0.18029l-0.01031,0.1497l0.01496,0.14937l-0.0168,0.11452l-0.01959,0.04745l-0.0013,0.01891l-0.00509,0.00422l-0.00249,0.05861l-0.04632,0.15638l0.01859,0.05637l0.00038,0.00529l0.01259,0.01154l0.0053,0.23183l0.01701,0.2313l-0.01143,0.01263l0.00012,0.0053l-0.01388,0.06127l-0.0028,0.02245l0.00437,0.04376l0.00711,0.01075l-0.00418,0.01848l0.00513,0.05113l-0.0168,0.11452l-0.03652,0.08848l-0.00331,0.02651l-0.01098,0.00813l-0.0064,0.01552l-0.03312,0.14631l-0.08417,0.16638l-0.07397,0.30114l-0.02794,0.32114l-0.02999,0.08689l0.00172,0.00387l-0.01959,0.0479l-0.0098,0.02838l-0.03903,0.17238l-0.03303,0.06529l-0.0166,0.01917l-0.0106,0.03069l-0.02481,0.01137l-0.02859,0.0699l-0.0861,0.11711l-0.21288,0.42083l-0.06088,0.07024l-0.03795,0.08483l-0.11534,0.14668l-0.14561,0.11276l-0.02774,0.06573l-0.11221,0.04264l-0.09484,0.07344l-0.07076,-0.01051l-0.1723,0.06547l-0.08682,0.01032l-0.14821,0.15574l-0.17694,0.19092l-0.04071,0.02655l-0.0276,0.03997l-0.12747,0.11201l-0.01949,0.01928l-0.00211,0.01027l-0.02271,0.01426l-0.0185,0.01829l-0.18465,0.10927l-0.17388,0.10919l-0.03291,0.04006l-0.00297,0.00919l-0.01803,0.00871l-0.04969,0.03682l-0.12662,0.05239l-0.05224,0.03661l-0.02268,-0.00448l-0.16423,0.07932l-0.06063,0.01259l-0.01851,0.00766l-0.00589,-0.00258l-0.04309,0.00895l-0.08216,0.03731l-0.42487,0.23937l-0.16281,0.0447l-0.15574,0.06501l-0.31181,0.04729l-0.07388,-0.00697l-0.07203,0.01754l-0.04942,-0.0003l-0.13571,0.08758l-0.3924,0.3448l-0.03523,0.01814l-0.02513,0.0306l-0.06578,0.04874l-0.44489,0.18411l-0.03385,-0.01483l-0.0308,0.02027l-0.47017,-0.10715l-0.02819,-0.01426l-0.0352,-0.00802l-0.10281,-0.052l-0.11231,-0.02559l-0.39233,-0.19846l-0.08695,-0.00051l-0.27849,0.01044l-0.15291,0.03179l-0.09943,-0.00395l-0.09661,0.02351l-0.18501,-0.00109l-0.00876,0.00577l-0.02619,-0.00597l-0.02606,-0.00015l-0.20829,-0.05326l-0.20962,-0.04777l-0.02327,-0.01177l-0.02604,-0.00666l-0.00518,-0.00913l-0.03025,-0.01531l-0.2627,-0.09828l-0.04342,-0.02986l-0.05138,-0.0117l-0.25518,-0.1291l-0.28608,0.01073l-0.05889,-0.01237l-0.0594,0.00932l-0.19677,-0.01753l-0.09594,-0.03321l-0.1013,-0.00602l-0.21299,-0.06674l-0.06677,-0.04074l-0.07624,-0.01738l-0.16374,-0.08283l-0.05917,-0.05113l-0.07237,-0.02965l-0.17996,-0.13205l-0.04742,-0.05706l-0.06347,-0.03847l-0.12945,-0.13043l-0.22435,-0.18381l-0.00755,-0.01014l-0.01129,-0.00571l-0.02731,-0.02361l-0.22467,-0.11366l-0.11381,-0.09834l-0.12864,-0.07797l-0.3269,-0.32939l-0.01438,-0.02416l-0.02317,-0.01597l-0.13071,-0.14813l-0.02185,-0.04213l-0.03296,-0.01393l-0.07304,-0.19049l-0.079,-0.15235l-0.11767,-0.05952l-0.07051,-0.06093l-0.08507,-0.03809l-0.14722,-0.11548l-0.07672,-0.09861l-0.09668,-0.0792l-0.02988,-0.04014l-0.00068,-0.00019l-0.00131,-0.00249l-0.06607,-0.08874l-0.07132,-0.17091l-0.08665,-0.16374l-0.02645,-0.1073l-0.00108,-0.00258l0.00027,-0.00064l-0.0536,-0.21741l0.00044,-0.12369l-0.03358,-0.05073l0.03427,-0.15142l0.00053,-0.1553l0.04408,-0.04176l0.0273,-0.12059l0.05932,-0.11724l-0.02388,-0.05064l-0.04938,-0.02852l-0.03937,-0.15966l-0.07019,-0.14882l0.02041,-0.05307l-0.02613,-0.10594l0.00029,-0.08186l0.00976,-0.03837l-0.00625,-0.03914l0.02574,-0.29594l-0.03481,-0.28619l-0.04059,-0.28032l-0.10542,-0.20609l-0.06464,-0.27872l0.00087,-0.04976l-0.06398,-0.15782l-0.20258,-0.29334l-0.02405,-0.06395l-0.04432,-0.05209l-0.16288,-0.32843l-0.05771,-0.26369l-0.04219,-0.05761l0.01322,-0.07478l-0.01625,-0.07425l0.03981,-0.05907l0.04693,-0.26556l0.23638,-0.52847l-0.04168,-0.17128l0.0231,-0.03606l-0.00656,-0.06554l0.0168,-0.11451l0.0398,-0.09645l0.01277,-0.10357l0.13242,-0.34306l0.10117,-0.14349l0.08443,-0.15391l0.11344,-0.1224l0.00042,-0.00387l0.01076,-0.0082l0.05649,-0.06096l0.16178,-0.10551l0.15355,-0.11711l0.07642,-0.03288l0.01133,-0.0074l0.0038,0.00089l0.43414,-0.18675l0.07817,-0.01273l0.07004,-0.0368l0.32834,-0.07993l0.05735,0.00034l0.05355,-0.02036l0.29521,-0.03508l0.16352,-0.06767l0.03385,0.01483l0.0308,-0.02027l0.00993,0.00226l0.02611,-0.09419l0.04377,-0.07715l-0.00614,-0.05042l0.11233,-0.13676l0.08732,-0.15392l0.0493,-0.01241l0.05631,-0.06856l0.06578,-0.04872l0.44489,-0.18409l0.00115,0.00051l0.001,-0.00075l0.44906,0.0714l0.27081,-0.45684l0.06509,-0.06569l0.00768,-0.05139l0.14286,-0.10056l0.12292,-0.12405l0.05206,0.00089l0.07564,-0.05325l0.0785,-0.03028c-0.06321,-0.41993 0.07505,-0.93868 0.36529,-1.18824zM237.00441,176.37101c-1.22702,-0.21004 -2.06577,1.46472 -2.49174,2.30679c-0.42805,0.84615 -0.35479,1.8171 0.00176,2.75395c-0.12506,0.59672 0.04293,1.30381 0.59567,2.02875c1.36149,1.78561 3.39392,2.95271 5.65868,2.98164c0.90167,0.01151 1.82643,-0.39099 2.3947,-1.05666c0.05935,-0.03132 0.11808,-0.06402 0.17615,-0.09813c0.96555,0.20344 1.98661,-0.25852 2.45517,-1.18475c0.40979,-0.81006 0.28313,-1.75017 -0.2474,-2.41295c0.04829,-0.36934 0.08084,-0.74771 0.1278,-1.14133c0.13631,-1.1425 0.32045,-2.30493 -0.0417,-3.29844c-0.07445,-0.28522 -0.20472,-0.5549 -0.38507,-0.79148c0.16188,-0.9404 -0.66122,-2.06246 -1.43865,-2.45573c-0.80372,-0.40659 -2.86008,-0.76788 -3.58755,0.00007c-0.26835,0.28329 -0.50729,0.60226 -0.82234,0.83717c-0.68755,0.51269 -1.50854,0.95474 -2.00451,1.59976c-0.137,-0.02599 -0.26913,-0.04781 -0.39098,-0.06867z"/></g></g></svg>