<svg version="1.1" xmlns="http://www.w3.org/2000/svg" xmlns:xlink="http://www.w3.org/1999/xlink" width="104.02693" height="104.22521" viewBox="0,0,104.02693,104.22521"><defs><radialGradient cx="237.92685" cy="179.58254" r="51.35512" gradientUnits="userSpaceOnUse" id="color-1"><stop offset="0" stop-color="#66ecff" stop-opacity="0"/><stop offset="1" stop-color="#66ecff"/></radialGradient><radialGradient cx="238.81552" cy="177.84778" r="33.73139" gradientUnits="userSpaceOnUse" id="color-2"><stop offset="0" stop-color="#66ecff" stop-opacity="0"/><stop offset="1" stop-color="#66ecff"/></radialGradient></defs><g transform="translate(-187.98653,-127.8874)"><g data-paper-data="{&quot;isPaintingLayer&quot;:true}" fill-rule="nonzero" stroke="none" stroke-width="0.5" stroke-linecap="butt" stroke-linejoin="miter" stroke-miterlimit="10" stroke-dasharray="" stroke-dashoffset="0" style="mix-blend-mode: normal"><path d="M227.56365,216.83965c1.07854,2.95397 2.56216,6.01915 3.60913,8.12739c0.46573,0.93783 3.5043,4.91913 2.93683,5.98225c-0.95257,1.78456 -3.57261,1.09969 -4.87705,0.65346c-5.27724,-1.80529 -7.08594,-6.89335 -9.73605,-11.38452c-0.98527,-1.66976 -1.82597,-3.07064 -2.48361,-4.74011c-0.6573,1.42915 -1.81259,3.15045 -2.18548,4.12765c-0.85348,2.23665 0.27937,3.47871 -0.24587,5.6704l0.59286,2.00049c0.17273,0.53935 -0.04314,1.14543 -0.55145,1.44538c-0.42639,0.2516 -0.94188,0.21892 -1.32632,-0.04131l-1.05531,-0.68249l0.35009,-0.54134c-5.91997,-4.95545 -6.80941,-21.44664 -7.46693,-29.10342c-2.14353,1.9487 -8.19356,4.81424 -9.52032,5.59712l-1.18467,0.69905l-0.21226,-0.35972l-1.16363,0.28264c0.0142,-0.38477 0.03134,-0.77492 0.05159,-1.16996l-0.5069,-0.13069l0.60801,-2.35844l0.06206,0.01602c0.65611,-8.14347 2.59733,-17.76546 6.65672,-24.83435c-3.27639,0.40309 -7.6385,-2.49313 -9.25262,-4.75133c-0.32387,-0.4531 -2.96963,-3.08793 -2.64907,-3.9787c0.27267,-0.75771 3.88264,-2.76662 4.69888,-3.24826c3.97926,-2.34806 10.74698,-6.22549 15.7599,-4.4843c-1.17472,-1.41858 -2.65078,-3.86358 -2.97421,-4.26761c-1.18,-1.47408 -8.33156,-7.29011 -7.3052,-9.54091c0.76672,-1.6814 4.35145,-0.99909 5.48974,-0.90239c6.08228,0.5167 12.26343,-0.07298 18.30272,0.58541c3.52941,2.03377 -7.31981,-11.2862 -4.54875,-13.2911c1.57644,-1.14058 3.81464,0.77433 5.73436,1.0919c6.41727,1.06156 12.88533,3.70622 18.19115,7.45041c-1.08431,-3.61082 -0.86395,-11.72717 1.3552,-12.79488c1.19303,-0.57401 4.46143,2.2719 5.43604,2.90218c5.69845,3.68526 10.38565,6.52145 12.8375,12.26376c0.61551,-2.66826 1.74927,-5.16446 3.50886,-6.66952c2.15984,-1.8474 4.65095,-3.49948 6.7574,-0.58619c3.66931,5.07471 1.99627,15.44209 2.38248,21.36653c-0.35069,2.49867 -0.87027,4.93487 -1.46725,7.37016c3.56084,-2.52525 10.59434,-5.73192 12.62136,-5.08138c3.02661,0.97132 2.01518,4.30759 1.60259,6.64612c-1.15597,6.55197 -3.11838,13.02117 -7.74152,17.85993c2.80407,-0.64512 6.75322,0.22462 9.1493,0.64534c1.38331,0.24289 3.69784,-0.44012 4.11603,0.90064c0.64951,2.0824 -2.25747,5.68874 -3.41883,7.13262c-4.81417,5.98533 -11.56377,13.30783 -20.09511,12.2584c-0.6677,0.5175 2.03466,5.04213 2.53756,6.06129c2.30972,4.68089 1.55239,9.404 -4.57263,10.4932c-5.05566,0.89904 -10.49964,-3.06672 -14.3214,-5.89566c-1.4188,-1.05023 -6.84643,-5.97072 -5.79102,-4.4339c0.84971,2.82109 3.14651,5.06205 3.39186,8.04697c0.42902,5.21965 -5.72837,6.82444 -9.77893,3.68904c-2.52405,-1.95378 -4.13127,-5.63419 -6.32113,-8.49843c0.33912,0.97737 0.46561,2.08052 0.54538,3.2184l0.36094,1.68243c0.12331,0.51566 -0.09586,1.07271 -0.57635,1.35624c-0.37662,0.22223 -0.82276,0.22267 -1.1867,0.04042l-1.84671,-0.89138l0.19256,-0.39894c-1.27431,-0.68809 -2.43802,-1.57978 -3.47584,-2.60198zM260.07995,178.40571l1.38974,-1.86768c0.52187,-0.67029 0.531,-1.63532 -0.02988,-2.32031c-0.47048,-0.57459 -1.21327,-0.79487 -1.88909,-0.62702l-2.16106,0.48883c-3.43147,-0.70806 -3.80319,-7.04495 -8.00178,-7.7016c-1.34292,-0.21002 -2.98324,-0.09221 -3.99546,0.81496c-1.09374,0.98024 0.3234,3.37503 -0.7881,4.3351c-0.99949,0.86334 -1.82491,1.42932 -2.55941,1.93846c-0.48078,-0.25336 -1.18434,-0.38368 -1.96453,0.25513c-0.82237,0.67336 -0.79016,1.43185 -0.61145,1.9584c-0.10436,0.12506 -0.20917,0.25692 -0.31479,0.39664c-0.57373,0.16658 -0.88549,0.58901 -1.05285,0.95891c-0.87887,-0.23189 -1.65473,0.40339 -1.65473,0.40339c-0.08516,0.07034 -0.20449,0.17184 -0.3484,0.2939c-0.32254,-0.59595 -0.9441,-0.8743 -0.9441,-0.8743c-1.07512,-0.45177 -3.31001,-0.54661 -3.06505,-1.68678c0.60922,-2.83559 6.19667,-5.67238 4.41882,-9.535c-2.14375,-4.65758 -7.2006,-2.88342 -9.80025,-0.99813l0.10288,3.06206c0,0 1.17855,1.43936 2.61791,0.26081c0.51529,-0.42193 0.69506,-0.87728 0.71349,-1.28805c0.93492,-0.55739 2.15311,-0.85587 2.9365,0.40608c0.27124,0.43693 -4.71849,7.90726 -4.70289,8.32122c0.04251,1.12717 0.51773,1.96205 1.19993,2.61468c-0.314,-0.16434 -0.63924,-0.26918 -0.98318,-0.26696c-4.21992,0.02722 -6.80483,4.92419 -8.33569,7.87795l0.07518,0.41149l-0.13568,-0.00504l-0.09762,2.62924c-0.0185,0.44009 0.11834,0.88838 0.41935,1.256c0.65089,0.79493 1.82298,0.9117 2.61791,0.26081l1.77667,-1.45474l-0.59491,-0.72656c0.56196,-0.62393 1.01655,-1.31647 1.28552,-2.06485c0.08468,-0.0719 1.2092,-1.06175 0.46816,-2.31234c3.0342,-2.51805 6.31328,0.09452 10.60037,-1.93628c-0.53607,0.90981 -1.17972,1.79844 -1.81706,3.22752c-0.71738,1.60857 0.11259,3.8972 -1.10879,5.16619c-0.51834,0.53853 -5.74659,2.02942 -6.5516,1.81773c-1.16987,-0.30763 -1.95331,-2.18642 -3.1174,-1.85766c-1.31882,0.37246 -1.54719,2.26236 -2.32079,3.39353l1.34952,3.27137c0,0 1.17855,1.43936 2.61791,0.26081c1.43936,-1.17855 0.26081,-2.61791 0.26081,-2.61791l-0.83258,0.60639c-0.07406,-0.43086 -0.617,-1.48042 -0.2222,-1.29261c3.01655,1.43509 8.08371,2.5362 11.65701,-1.17884c1.29418,-1.34552 2.94323,-6.04446 3.99936,-9.84583c0.41776,0.67075 1.04772,1.44477 1.94684,2.44292c1.82603,2.02716 6.57467,2.24109 6.50441,4.9685c-0.03894,1.5116 -2.50368,4.11327 -4.27108,5.74044c-0.48129,-0.26932 -1.2054,-0.43009 -2.01124,0.22975c-1.43936,1.17855 -0.26081,2.61791 -0.26081,2.61791l3.34527,1.14913c2.59711,-2.15061 7.22185,-6.95764 6.79814,-10.67579c-0.55446,-4.86555 -7.24898,-4.62474 -8.33227,-8.4952c0.5772,0.19839 1.19545,0.2506 1.85518,0.08467c1.73863,-0.43729 2.34208,-5.38432 3.53919,-4.04979c1.17746,1.31263 1.78191,3.06058 2.89904,4.42493l0.1887,0.23045c0,0 1.17855,1.43936 2.61791,0.26081c1.43936,-1.17855 0.26081,-2.61791 0.26081,-2.61791l-0.1887,-0.23045c-0.69463,-0.84836 -4.36467,-5.58931 -5.45202,-5.77413c-2.90736,-0.4942 -3.03346,3.10441 -4.61675,4.11225c-0.30789,0.19598 -0.58427,0.14421 -0.84017,-0.05731c0.00964,-0.19268 -0.00192,-0.42457 -0.06769,-0.66101c2.55291,-2.09614 5.3144,-4.28583 3.76797,-6.78152c-0.68773,-1.10991 1.70901,1.97494 2.53622,2.9852c1.62495,1.98453 3.53295,4.07344 5.90261,5.02188c0.0436,0.40219 0.247,0.83809 0.76981,1.22713c1.49246,1.11054 2.603,-0.38192 2.603,-0.38192zM239.71597,156.46693c-0.18189,0.40615 -0.35545,0.79496 -0.52043,1.17192l-0.00421,-0.00038c0,0 -0.01447,0.03231 -0.03496,0.09001c-1.05067,2.40859 -1.74647,4.34481 -2.01564,7.24682c-0.1626,1.75315 1.37993,5.58697 0.21867,4.70047c0,0 -1.85135,0.1822 -1.66915,2.03356c0.1822,1.85135 2.03356,1.66915 2.03356,1.66915c1.12873,-0.32181 2.86035,0.0839 3.38616,-0.96545c0.72726,-1.45134 -0.41321,-3.22475 -0.47357,-4.84699c-0.13446,-3.61381 1.04295,-6.38016 2.47522,-9.57845l-1.96015,-0.17457z" fill="url(#color-1)"/><path d="M196.71352,199.67959c-0.48226,-0.58899 0.10671,-1.07125 0.10671,-1.07125l0.59204,-0.37785c1.05535,-0.23026 3.93523,-0.15503 4.63973,-1.08937c0.10003,-0.13267 -0.19761,-2.00787 -0.43969,-3.52287l-0.18878,0.072l-0.39081,-1.02471c-0.12305,-0.30127 -0.04221,-0.6597 0.22275,-0.87665c0.31368,-0.25685 0.77087,-0.22157 1.04194,0.07296l0.53053,0.56654c0.85174,0.49841 1.70165,0.99997 2.55019,1.50381c0.41245,0.32341 0.826,0.64544 1.23736,0.97023c6.84279,5.40288 -0.57223,-5.0102 2.30525,-7.23133c0.37144,-0.28672 4.03038,0.98066 4.38915,0.63048c0.5855,-0.57146 -0.35358,-1.60401 -0.40742,-2.42039c-0.10598,-1.607 -0.21293,-3.06322 -0.14921,-4.5675l-0.15136,0.00997l-0.09952,-1.50905c-0.01884,-0.24005 0.07624,-0.48511 0.27666,-0.6492c0.32529,-0.26635 0.8049,-0.21856 1.07125,0.10671c0.00451,0.0055 0.00892,0.01106 0.01326,0.01665l0.81193,1.04177c0.63412,0.81413 1.241,1.6503 1.81737,2.5063c0.4818,0.71551 1.60768,3.02052 1.38175,2.18802c-1.30888,-4.82312 2.88598,-7.13572 5.24938,-2.17762c0,0 0.32501,0.68837 -0.36334,1.01338c-0.68837,0.32501 -1.01338,-0.36334 -1.01338,-0.36334c-0.19181,-0.41068 -0.34345,-0.84266 -0.57542,-1.23207c-2.54989,-4.28059 -0.60468,5.2925 -3.74281,4.15752c-1.1372,-0.41129 -2.3229,-2.56439 -3.24012,-4.07396c0.56308,2.41892 0.95086,6.25784 0.2206,7.00579c-1.13398,1.16142 -4.07192,-0.73205 -4.59373,-0.45186c-0.63738,0.34226 0.22711,1.42933 0.31387,2.14756c0.30104,2.49202 2.98067,8.11465 -1.8283,6.57361c-0.45467,-0.1457 -0.92166,-0.28035 -1.33459,-0.52c-0.083,-0.04817 -2.30009,-1.79833 -2.44882,-1.91547c-0.48118,-0.2843 -0.96184,-0.56948 -1.44206,-0.85538c0.47091,1.20545 0.7258,2.88726 0.33472,3.49518c-1.04075,1.61778 -4.04608,1.53189 -5.67264,1.88953l0.04678,0.0686c0,0 -0.58899,0.48226 -1.07125,-0.10671z" fill="#a2fcff"/><path d="M271.83861,202.83323c-0.15781,0.7447 -0.90251,0.58689 -0.90251,0.58689l-0.10112,-0.06136c-1.55805,0.14256 -4.19098,1.28484 -5.69427,-0.23309c-0.62665,-0.63277 0.31993,-1.30766 -0.6321,-1.42947c-0.85421,-0.10929 -3.20864,2.01519 -4.13444,2.27829c-1.88603,0.53597 -3.48625,-0.98345 -5.39146,-1.06752c-0.97734,-0.04313 -2.16566,0.57037 -3.26212,1.19835l0.13277,0.17956l-1.22105,0.90283c-0.16943,0.12651 -0.39041,0.18219 -0.61352,0.13491c-0.41128,-0.08716 -0.67404,-0.49123 -0.58689,-0.90251c0.00667,-0.03149 0.0152,-0.06211 0.02546,-0.09178l0.4747,-1.43493c1.14245,-3.42304 3.44833,-6.43394 4.88442,-9.77255c0.13525,-0.31445 0.2528,-0.70384 0.38848,-1.09474c-1.13609,0.92999 -2.28454,1.83911 -3.45409,2.7344c0,0 -0.60447,0.46271 -1.06717,-0.14175c-0.46271,-0.60447 0.14175,-1.06717 0.14175,-1.06717c1.60683,-1.23003 3.17304,-2.4862 4.72255,-3.78771l0.89461,-0.75142c0.17373,-0.14874 0.4123,-0.21785 0.65333,-0.16677c0.41128,0.08716 0.67404,0.49123 0.58689,0.90251l-0.21915,1.03412l-0.21018,-0.04454c-0.58516,4.12021 -3.82013,7.67041 -5.44982,11.50558c1.94258,-1.49092 5.19871,-0.18277 7.38666,0.37361c2.02243,0.51431 3.5595,-2.92391 5.53618,-2.42757c0.79409,0.19939 1.08002,1.23604 1.54116,1.91256c0.65139,0.95563 3.65301,-0.15983 4.39579,-0.25597l0.58829,0.08473c0,0 0.7447,0.15781 0.58689,0.90251z" fill="#a2fcff"/><path d="M216.39556,150.0228c-0.03927,0.18533 -0.1149,0.31475 -0.20633,0.40464c0.87673,2.5333 6.06111,2.42321 7.21989,4.97095c0.09022,0.19836 -0.40791,2.79665 -0.46106,3.09059c-0.03734,5.81602 4.12741,-5.93112 7.86236,-3.96922c2.7024,1.41952 -2.06307,8.14956 -0.13517,9.76783c0,0 0.53209,0.54439 -0.0123,1.07649c-0.54439,0.53209 -1.07649,-0.0123 -1.07649,-0.0123c-1.82712,-2.08846 -0.31552,-4.40272 0.04531,-6.93957c0.12467,-0.87657 1.19951,-2.56487 0.31708,-2.63719c-2.33022,-0.19096 -7.11069,10.44095 -8.52002,4.263c-0.12503,-0.54808 0.00198,-1.12431 0.00296,-1.68646c0.1425,-0.805 0.9355,-1.65848 0.56412,-2.38675c-1.5643,-3.06762 -6.86716,-1.71085 -7.44779,-6.10295l1.26054,-0.74151c0,0 0.7447,0.15781 0.58689,0.90251z" fill="#a2fcff"/><path d="M265.47611,143.30495c0.63817,-0.41499 1.05317,0.22318 1.05317,0.22318l0.37819,0.99055c-0.38251,1.65651 0.79547,3.08632 -1.66659,2.21703c-0.47527,-0.16781 0.81147,0.62935 1.08623,1.05189c0.35193,0.5412 1.62124,2.03912 0.98506,2.92905c-0.67193,0.93996 -5.94156,-0.56462 -6.05832,-0.01357c-0.1957,0.9235 0.90252,2.92825 1.7969,4.56473l0.29046,-0.18888l0.82998,1.27635c0.1062,0.16332 0.15011,0.36716 0.10653,0.5728c-0.08716,0.41128 -0.49123,0.67404 -0.90251,0.58689c-0.10362,-0.02196 -0.19782,-0.06404 -0.27936,-0.12128l-0.84169,-0.56221c-1.07621,-0.71885 -2.091,-1.46419 -3.11548,-2.23972c-0.47664,-0.36081 0.49906,1.09305 0.65007,1.67148c0.26564,1.01744 2.45454,4.91897 1.85137,5.8765c-0.37944,0.60236 -2.91109,-0.29735 -3.31675,-0.41631c-1.15473,-0.33906 -2.36837,-0.84828 -3.54838,-1.08119c-0.55739,-0.11003 0.5049,1.02097 0.69453,1.55655c0.26193,0.73977 0.74054,1.38387 1.10845,2.07707c0.84966,1.60093 4.16229,6.32193 1.97847,7.9203c-0.42631,0.31202 -1.04342,-0.25067 -1.49608,-0.52305c-2.20969,-1.32959 -3.6074,-3.07732 -6.05137,-4.19078c0,0 -0.69272,-0.31561 -0.37713,-1.00834c0.31561,-0.69272 1.00834,-0.37713 1.00834,-0.37713c1.55136,0.70679 2.80117,1.25435 4.10688,2.36714c0.81406,0.69377 2.83923,3.19382 2.19784,2.33789c-1.44916,-1.9339 -3.06519,-5.74072 -3.89403,-8.05056c-0.05086,-0.14172 -0.81968,-2.73573 -0.49712,-3.01821c1.2947,-1.13382 3.88477,0.14374 5.19856,0.52949c0.32716,0.09619 0.95336,0.40905 1.38586,0.64695c-1.33523,-1.3344 -3.2423,-6.92709 -1.82147,-7.59934c0.63278,-0.29938 1.54182,0.06376 2.42254,0.59281c-0.80443,-1.3381 -1.31744,-2.92119 -0.86242,-3.84936c0.84247,-1.71851 3.25807,-0.74183 4.60476,-0.64623c0.2612,0.01855 0.68802,-0.01316 1.0446,-0.00011c-0.17722,-0.27355 -0.35251,-0.60082 -0.47539,-0.78979c-0.25912,-0.39848 -1.7311,-2.20169 -0.9109,-2.93338c0.38121,-0.34007 1.0103,0.43937 1.50242,0.30233c0.57721,-0.16074 -0.34052,-1.1957 -0.2242,-1.78347l-0.16512,0.15505c0,0 -0.41499,-0.63817 0.22318,-1.05317z" fill="#a2fcff"/><path d="M213.46458,176.26205c-1.75123,1.09526 -3.51876,2.46595 -4.73086,3.42576c-0.53919,0.42696 -2.68365,2.92154 -3.44403,2.70167c-1.27639,-0.36908 -1.19309,-2.14586 -1.08398,-3.0448c0.44141,-3.63675 3.46449,-5.49177 5.98946,-7.80617c0.93875,-0.86046 1.72442,-1.59141 2.7076,-2.24131c-1.00781,-0.22775 -2.27116,-0.7357 -2.94984,-0.84224c-1.55339,-0.24385 -2.19723,0.6532 -3.67703,0.61414l-1.2047,0.65335c-0.32304,0.18443 -0.74188,0.12825 -1.00383,-0.15752c-0.21973,-0.23972 -0.26892,-0.5754 -0.15406,-0.85786l0.29484,-0.77103l0.39551,0.15124c2.37805,-4.47869 12.85346,-7.29577 17.68384,-8.76087c-1.54403,-1.11199 -4.20912,-4.60928 -4.89283,-5.3552l-0.61049,-0.66603l0.20224,-0.18537l-0.34006,-0.70921c0.24917,-0.04327 0.5022,-0.08538 0.75879,-0.12616l0.01495,-0.34351l1.59822,0.06954l-0.00184,0.04206c5.32198,-0.68729 11.76899,-0.75015 16.86391,0.89568c-0.70515,-2.05038 0.56186,-5.24765 1.79309,-6.59231c0.24704,-0.2698 1.5798,-2.32863 2.19582,-2.24395c0.524,0.07203 2.3064,2.11809 2.72703,2.57699c2.05061,2.23717 5.46362,6.05783 5.02741,9.51601c0.75156,-0.94799 2.12162,-2.22937 2.33719,-2.49221c0.7865,-0.95894 3.54982,-6.34618 5.13584,-5.99317c1.1848,0.26371 1.2345,2.66001 1.32736,3.40459c0.4962,3.97857 1.71678,7.87001 2.11608,11.84025c-0.82622,2.54478 6.2553,-6.24021 7.92089,-4.73265c0.94755,0.85764 0.02188,2.55656 0.07923,3.83333c0.19171,4.26801 -0.62689,8.78422 -2.31026,12.70335c2.17251,-1.18841 7.41773,-2.152 8.40597,-0.87146c0.53129,0.68843 -0.85232,3.17608 -1.1246,3.88815c-1.59204,4.16339 -2.77621,7.56138 -6.13211,9.91875c1.79832,0.03217 3.55665,0.42077 4.76334,1.34647c1.48116,1.13626 2.88192,2.51198 1.2968,4.26219c-2.76115,3.04875 -9.65059,3.38543 -13.40479,4.44031c-1.65329,0.1149 -3.28944,0.11277 -4.93554,0.06079c2.10749,1.94418 5.12569,6.02696 4.9837,7.41802c-0.212,2.07703 -2.49347,1.88142 -4.05229,1.93474c-4.36742,0.14939 -8.79146,-0.23067 -12.53016,-2.54242c0.79635,1.71393 0.77524,4.36991 0.83117,5.96682c0.03229,0.92193 0.78633,2.31614 -0.01824,2.76742c-1.24962,0.7009 -3.96273,-0.67593 -5.04865,-1.22556c-4.50145,-2.27837 -10.12565,-5.61828 -10.61302,-11.24305c-0.42344,-0.35857 -2.9628,1.99396 -3.54919,2.45588c-2.69323,2.12151 -5.83122,2.27802 -7.36512,-1.50934c-1.2661,-3.12613 0.54083,-7.1642 1.83818,-10.00511c0.48164,-1.05467 2.90426,-5.21224 2.06048,-4.32481c-1.69701,0.93013 -2.8242,2.7111 -4.70877,3.2752c-3.2955,0.98642 -5.16511,-2.75153 -3.70199,-5.78119c0.91172,-1.88789 3.05774,-3.42177 4.59999,-5.2189c-0.58184,0.35099 -1.27345,0.58248 -1.99374,0.78868l-1.03191,0.46102c-0.31455,0.14945 -0.70233,0.08447 -0.94994,-0.18566c-0.19408,-0.21174 -0.25511,-0.49835 -0.18756,-0.75702l0.3213,-1.30799l0.28256,0.06941c0.26862,-0.91251 0.68312,-1.78168 1.19862,-2.58773zM242.58824,191.92215l1.38933,0.63867c0.50176,0.24406 1.12309,0.11852 1.48686,-0.33515c0.30514,-0.38055 0.34554,-0.88783 0.14566,-1.29923l-0.60837,-1.32204c-0.01229,-2.30133 4.00891,-3.40306 3.85913,-6.19031c-0.04791,-0.8915 -0.34697,-1.92946 -1.06771,-2.45634c-0.77879,-0.56931 -2.12461,0.66737 -2.89286,0.0839c-0.69084,-0.52467 -1.16691,-0.97798 -1.59408,-1.38061c0.09733,-0.34343 0.08527,-0.81325 -0.43144,-1.22758c-0.54465,-0.43673 -1.02764,-0.31275 -1.34164,-0.12622c-0.09457,-0.05003 -0.19357,-0.09942 -0.29773,-0.14826c-0.18516,-0.34597 -0.49905,-0.48877 -0.75952,-0.54594c0.02933,-0.5963 -0.48452,-1.00833 -0.48452,-1.00833c-0.05679,-0.04514 -0.13826,-0.108 -0.23629,-0.18385c0.33901,-0.2884 0.43323,-0.72569 0.43323,-0.72569c0.14389,-0.75234 -0.09949,-2.2013 0.66649,-2.19915c1.90498,0.00534 4.48861,3.20932 6.72848,1.54098c2.70085,-2.01169 0.87227,-5.01942 -0.69312,-6.43313l-1.95354,0.48306c0,0 -0.76439,0.95328 0.18889,1.71767c0.34128,0.27365 0.65835,0.32716 0.9248,0.28307c0.48546,0.52484 0.84313,1.26695 0.13893,1.94216c-0.24382,0.23378 -5.72337,-1.95518 -5.98724,-1.88879c-0.71848,0.1808 -1.19023,0.59984 -1.51669,1.12706c0.06284,-0.22414 0.08592,-0.4474 0.03766,-0.6681c-0.59211,-2.70783 -4.09067,-3.70197 -6.19708,-4.28343l-0.25417,0.10434l-0.01524,-0.08787l-1.70273,0.29529c-0.2853,0.04804 -0.55472,0.19701 -0.74995,0.44048c-0.42216,0.52648 -0.33759,1.29551 0.18889,1.71767l1.17668,0.94352l0.38585,-0.4812c0.47743,0.27613 0.98433,0.47393 1.50183,0.54485c0.05773,0.04462 0.84689,0.6324 1.54956,-0.01405c2.03115,1.60677 0.79893,4.06951 2.6876,6.54768c-0.6576,-0.22057 -1.31624,-0.51315 -2.32129,-0.72808c-1.13128,-0.24192 -2.48884,0.60302 -3.47055,-0.00899c-0.41662,-0.25973 -2.08652,-3.41617 -2.06011,-3.96226c0.03837,-0.7936 1.13892,-1.55283 0.76916,-2.25606c-0.41891,-0.7967 -1.66437,-0.6861 -2.49655,-1.02915l-1.91828,1.3126c0,0 -0.76439,0.95328 0.18889,1.71767c0.95328,0.76439 1.71767,-0.18889 1.71767,-0.18889l-0.50301,-0.45241c0.26677,-0.10626 0.86724,-0.59804 0.80032,-0.31879c-0.51137,2.13372 -0.52891,5.53959 2.34478,7.32977c1.0408,0.64837 4.28468,1.06813 6.87109,1.22913c-0.37411,0.35977 -0.78568,0.86995 -1.30462,1.5836c-1.05392,1.44936 -0.54477,4.52976 -2.30685,4.856c-0.97659,0.18081 -2.98393,-1.04866 -4.27014,-1.96275c0.10752,-0.34593 0.11222,-0.8331 -0.42149,-1.26105c-0.95328,-0.76439 -1.71767,0.18889 -1.71767,0.18889l-0.28286,2.306c1.73553,1.37595 5.45406,3.69304 7.78549,2.91449c3.05089,-1.0188 1.98458,-5.28762 4.32406,-6.51073c-0.04888,0.3979 0.00176,0.80227 0.19821,1.20359c0.51773,1.05762 3.77865,0.77175 3.08414,1.72268c-0.68311,0.93532 -1.72396,1.56173 -2.44851,2.46533l-0.12238,0.15263c0,0 -0.76439,0.95328 0.18889,1.71767c0.95328,0.76439 1.71767,-0.18889 1.71767,-0.18889l0.12238,-0.15263c0.45053,-0.56186 2.99712,-3.56563 2.96782,-4.28948c-0.07834,-1.93544 -2.40782,-1.52645 -3.27101,-2.40657c-0.16785,-0.17115 -0.17222,-0.35579 -0.07758,-0.54766c0.12512,-0.02004 0.27255,-0.05905 0.41552,-0.1335c1.69451,1.35496 3.47754,2.83121 4.87059,1.49771c0.61953,-0.59304 -1.0363,1.36706 -1.57281,2.03615c-1.05391,1.31435 -2.13634,2.82479 -2.4231,4.47658c-0.25249,0.08278 -0.50489,0.27283 -0.68368,0.66174c-0.51036,1.11021 0.59985,1.62057 0.59985,1.62057zM253.91223,175.84979c-0.28574,-0.06157 -0.55921,-0.12015 -0.82389,-0.17483l-0.00033,-0.00276c0,0 -0.02273,-0.0049 -0.0626,-0.01021c-1.69072,-0.34714 -3.0296,-0.53058 -4.93096,-0.30838c-1.14864,0.13424 -3.40204,1.64745 -2.99054,0.78056c0,0 -0.36917,-1.16479 -1.53396,-0.79562c-1.16479,0.36917 -0.79562,1.53396 -0.79562,1.53396c0.36048,0.68145 0.33558,1.84936 1.08144,2.04434c1.0316,0.26968 2.01582,-0.70462 3.04998,-0.9643c2.30377,-0.57848 4.24163,-0.19862 6.49174,0.28619l-0.15474,-1.28328z" fill="url(#color-2)"/><path d="M220.2901,154.10245c0.31279,-0.39008 0.70287,-0.0773 0.70287,-0.0773l0.32341,0.32897c0.29166,0.64677 0.63547,2.5075 1.33176,2.83295c0.09887,0.04621 1.26326,-0.40038 2.20377,-0.76223l-0.07197,-0.1115l0.60522,-0.39065c0.17683,-0.12009 0.41815,-0.11695 0.59363,0.02376c0.20775,0.16658 0.24734,0.46516 0.095,0.67944l-0.29179,0.41804c-0.20428,0.61516 -0.41083,1.22957 -0.61903,1.84341c-0.15165,0.30906 -0.30226,0.61864 -0.45494,0.92719c-2.53989,5.13258 3.14142,-1.04992 4.96044,0.49658c0.23481,0.19963 -0.08132,2.72328 0.19254,2.90613c0.44692,0.2984 0.98252,-0.44561 1.49976,-0.59137c1.01816,-0.28692 1.9393,-0.55393 2.91456,-0.71782l-0.02702,-0.0959l0.9561,-0.26943c0.15168,-0.04479 0.32209,-0.01707 0.45482,0.08937c0.21544,0.17275 0.25004,0.48743 0.0773,0.70287c-0.00292,0.00365 -0.00589,0.00724 -0.00889,0.01079l-0.55884,0.66357c-0.43678,0.51832 -0.89143,1.02213 -1.36297,1.50904c-0.39415,0.40701 -1.72194,1.44432 -1.21778,1.18579c2.9209,-1.49778 4.97808,0.88275 2.11404,3.0765c0,0 -0.39806,0.30257 -0.70063,-0.09548c-0.30257,-0.39806 0.09548,-0.70063 0.09548,-0.70063c0.23777,-0.17917 0.49469,-0.33543 0.71332,-0.53751c2.40331,-2.22133 -3.48307,0.33213 -3.18109,-1.83885c0.10943,-0.78672 1.33146,-1.84178 2.17655,-2.6367c-1.47762,0.69119 -3.89154,1.4631 -4.47158,1.09571c-0.90069,-0.5705 -0.08408,-2.71612 -0.33517,-3.01326c-0.30671,-0.36295 -0.8875,0.34056 -1.33719,0.49411c-1.56027,0.53277 -4.80825,3.0202 -4.47287,-0.27967c0.03171,-0.31199 0.05464,-0.63039 0.1524,-0.92836c0.01965,-0.05989 0.84233,-1.72281 0.89735,-1.83433c0.11716,-0.3479 0.23495,-0.69558 0.35327,-1.04308c-0.71045,0.46673 -1.7564,0.85952 -2.20027,0.69101c-1.18123,-0.44845 -1.53527,-2.39124 -1.98656,-3.3877l-0.03771,0.0394c0,0 -0.39008,-0.31279 -0.0773,-0.70287z" fill="#a2fcff"/><path d="M228.49332,202.804c-0.5,0 -0.5,-0.5 -0.5,-0.5l0.02566,-0.07333c-0.30376,-0.98172 -1.39626,-2.51799 -0.6256,-3.69063c0.32126,-0.48882 0.88381,0.02751 0.83244,-0.60081c-0.04609,-0.56376 -1.73179,-1.78733 -2.02691,-2.34638c-0.60121,-1.1389 0.15721,-2.37403 -0.0482,-3.60968c-0.10537,-0.63387 -0.66139,-1.31389 -1.2142,-1.93292l-0.0973,0.10976l-0.74639,-0.66166c-0.10436,-0.09164 -0.17023,-0.22605 -0.17023,-0.37585c0,-0.27614 0.22386,-0.5 0.5,-0.5c0.02114,0 0.04198,0.00131 0.06244,0.00386l0.98666,0.10963c2.35506,0.26798 4.60372,1.33965 6.94452,1.80781c0.22047,0.04409 0.48668,0.0666 0.75633,0.10055c-0.75227,-0.60337 -1.49281,-1.21752 -2.22734,-1.84711c0,0 -0.37963,-0.3254 -0.05423,-0.70502c0.3254,-0.37963 0.70502,-0.05423 0.70502,-0.05423c1.00916,0.86499 2.02959,1.70032 3.07688,2.51874l0.60465,0.47252c0.11923,0.09138 0.19612,0.23526 0.19612,0.39709c0,0.27614 -0.22386,0.5 -0.5,0.5h-0.69432v-0.14112c-2.72715,0.18504 -5.44885,-1.41019 -8.13508,-1.93513c1.22252,1.0452 0.82534,3.31558 0.76576,4.79722c-0.05508,1.36956 2.36347,1.88904 2.3137,3.22675c-0.01999,0.5374 -0.64716,0.86228 -1.01907,1.25071c-0.52535,0.54868 0.60012,2.3255 0.76304,2.78969l0.02566,0.38955c0,0 0,0.5 -0.5,0.5z" fill="#a2fcff"/><path d="M254.87746,159.98762c-0.12443,0 -0.21789,-0.03097 -0.2881,-0.07748c-1.50841,0.9083 -0.73172,4.22457 -2.211,5.31607c-0.11517,0.08498 -1.85255,0.11871 -2.04866,0.12458c-3.74221,0.76796 4.3731,1.84447 3.62105,4.51153c-0.54414,1.92974 -5.51748,-0.21593 -6.29479,1.24321c0,0 -0.27735,0.41603 -0.69338,0.13868c-0.41603,-0.27735 -0.13868,-0.69338 -0.13868,-0.69338c1.09316,-1.45841 2.78603,-0.80225 4.46524,-0.91583c0.58022,-0.03925 1.81141,0.4215 1.73772,-0.15536c-0.1946,-1.5233 -7.67715,-3.1473 -3.89937,-4.89411c0.33515,-0.15497 0.7227,-0.15182 1.08405,-0.22774c0.53666,-0.01805 1.19305,0.37528 1.61044,0.03748c1.75811,-1.42286 0.16423,-4.6455 2.90734,-5.61665l0.64811,0.709c0,0 0,0.5 -0.5,0.5z" fill="#a2fcff"/><path d="M265.87725,190.6099c0.35355,0.35355 0,0.70711 0,0.70711l-0.58499,0.37789c-1.11649,-0.02022 -1.87482,0.93139 -1.6515,-0.76899c0.04311,-0.32824 -0.2939,0.60711 -0.52799,0.8412c-0.29983,0.29983 -1.08949,1.3194 -1.74795,1.0318c-0.69547,-0.30376 -0.44625,-3.89467 -0.81623,-3.89466c-0.62005,0 -1.75867,0.97865 -2.68842,1.77618l0.16092,0.16092l-0.70711,0.70711c-0.09048,0.09048 -0.21548,0.14645 -0.35355,0.14645c-0.27614,0 -0.5,-0.22386 -0.5,-0.5c0,-0.06957 0.01421,-0.13583 0.03989,-0.19602l0.24664,-0.61739c0.31536,-0.78941 0.6561,-1.54296 1.01492,-2.30685c0.16694,-0.3554 -0.63439,0.46951 -0.9855,0.64531c-0.61759,0.30923 -2.82649,2.24699 -3.52389,1.9898c-0.43872,-0.16179 -0.20533,-1.91103 -0.18413,-2.18789c0.06063,-0.78815 0.22257,-1.63732 0.21155,-2.42726c-0.0052,-0.37314 -0.58728,0.46345 -0.9056,0.65823c-0.43968,0.26904 -0.78838,0.66428 -1.1837,0.99507c-0.91299,0.76395 -3.49543,3.53535 -4.81984,2.34977c-0.25854,-0.23144 0.01899,-0.70459 0.13237,-1.03254c0.55345,-1.6009 1.48614,-2.73699 1.86881,-4.459c0,0 0.10847,-0.48809 0.59656,-0.37963c0.48809,0.10847 0.37963,0.59656 0.37963,0.59656c-0.24291,1.09308 -0.42456,1.97071 -0.9618,2.96123c-0.33494,0.61755 -1.6656,2.25926 -1.20295,1.73058c1.04531,-1.1945 3.27136,-2.75126 4.6427,-3.59836c0.08414,-0.05198 1.64625,-0.89921 1.87168,-0.73041c0.90484,0.67753 0.43662,2.51576 0.36765,3.41247c-0.01726,0.22332 -0.13302,0.66829 -0.22699,0.97859c0.67561,-1.03966 4.00955,-3.02661 4.63498,-2.20518c0.27853,0.36583 0.16898,0.99939 -0.05104,1.63734c0.75027,-0.6991 1.69764,-1.2443 2.356,-1.07831c1.21896,0.30733 0.92031,1.99248 1.04226,2.87082c0.02365,0.17036 0.10214,0.4403 0.14231,0.6712c0.15164,-0.15112 0.33806,-0.30832 0.44275,-0.41301c0.22076,-0.22076 1.17899,-1.41213 1.76083,-0.98474c0.27042,0.19864 -0.14475,0.709 0.01032,1.00656c0.18188,0.349 0.72194,-0.38162 1.11545,-0.38691l-0.12211,-0.08499c0,0 0.35355,-0.35355 0.70711,0z" fill="#a2fcff"/></g></g></svg>