<svg version="1.1" xmlns="http://www.w3.org/2000/svg" xmlns:xlink="http://www.w3.org/1999/xlink" width="88.50091" height="89.69678" viewBox="0,0,88.50091,89.69678"><g transform="translate(-195.74954,-135.15161)"><g data-paper-data="{&quot;isPaintingLayer&quot;:true}" fill-rule="nonzero" stroke-linejoin="miter" stroke-miterlimit="10" stroke-dasharray="" stroke-dashoffset="0" style="mix-blend-mode: normal"><path d="M196.74955,221.85528v-70.55604l58.59739,0.39862" fill="none" stroke="#000000" stroke-width="2" stroke-linecap="round"/><path d="M201.53301,214.68009l0.39862,-58.19877l47.43598,0.39862" fill="none" stroke="#000000" stroke-width="2" stroke-linecap="round"/><path d="M206.31647,223.84839v-62.98223h59.39464v62.98223z" fill="#ffffff" stroke="#000000" stroke-width="2" stroke-linecap="butt"/><text transform="translate(209.3485,200.42936) scale(0.59647,0.66411)" font-size="40" xml:space="preserve" fill="#000000" fill-rule="nonzero" stroke="none" stroke-width="1" stroke-linecap="butt" stroke-linejoin="miter" stroke-miterlimit="10" stroke-dasharray="" stroke-dashoffset="0" font-family="Curly" font-weight="normal" text-anchor="start" style="mix-blend-mode: normal"><tspan x="0" dy="0">Sell ?</tspan></text><path d="M265.7111,155.28545c0,2.20153 -1.69546,3.98622 -3.78691,3.98622c-2.09145,0 -3.78691,-1.78469 -3.78691,-3.98622c0,-2.20153 1.69546,-3.98622 3.78691,-3.98622c2.09145,0 3.78691,1.78469 3.78691,3.98622z" fill="none" stroke="#000000" stroke-width="2" stroke-linecap="butt"/><path d="M267.70421,158.47442l5.97933,5.18208" fill="none" stroke="#000000" stroke-width="2" stroke-linecap="round"/><path d="M283.25046,150.50199l-13.55314,3.18897" fill="none" stroke="#000000" stroke-width="2" stroke-linecap="round"/><path d="M265.31248,148.50888l7.97243,-12.35727" fill="none" stroke="#000000" stroke-width="2" stroke-linecap="round"/><path d="M257.34004,136.55023l2.39173,11.56003" fill="none" stroke="#000000" stroke-width="2" stroke-linecap="round"/><path d="M256.94142,206.70765h-43.44977" fill="none" stroke="#000000" stroke-width="2" stroke-linecap="round"/><path d="M216.28201,211.09249h23.9173" fill="none" stroke="#000000" stroke-width="2" stroke-linecap="round"/><path d="M250.56348,213.28491c0,1.65115 -1.60622,2.98966 -3.5876,2.98966c-1.98137,0 -3.5876,-1.33852 -3.5876,-2.98966c0,-1.65115 1.60622,-2.98966 3.5876,-2.98966c1.98137,0 3.5876,1.33852 3.5876,2.98966z" fill="none" stroke="#000000" stroke-width="2" stroke-linecap="butt"/></g></g></svg>