<svg version="1.1" xmlns="http://www.w3.org/2000/svg" xmlns:xlink="http://www.w3.org/1999/xlink" width="192.66795" height="27.46694" viewBox="0,0,192.66795,27.46694"><defs><linearGradient x1="129.23786" y1="181.37281" x2="320.0028" y2="181.37281" gradientUnits="userSpaceOnUse" id="color-1"><stop offset="0" stop-color="#fffbc1" stop-opacity="0"/><stop offset="1" stop-color="#fffbc1"/></linearGradient><linearGradient x1="169.82488" y1="180.45325" x2="230.98229" y2="180.45325" gradientUnits="userSpaceOnUse" id="color-2"><stop offset="0" stop-color="#fffc9e"/><stop offset="1" stop-color="#fff842"/></linearGradient><linearGradient x1="228.58564" y1="180.29972" x2="275.58903" y2="180.29972" gradientUnits="userSpaceOnUse" id="color-3"><stop offset="0" stop-color="#fffc9e"/><stop offset="1" stop-color="#fff842"/></linearGradient><linearGradient x1="257.40092" y1="186.49847" x2="316.85787" y2="186.49847" gradientUnits="userSpaceOnUse" id="color-4"><stop offset="0" stop-color="#fffc9e"/><stop offset="1" stop-color="#fff842"/></linearGradient><linearGradient x1="257.54162" y1="173.51089" x2="317.11961" y2="173.51089" gradientUnits="userSpaceOnUse" id="color-5"><stop offset="0" stop-color="#fffc9e"/><stop offset="1" stop-color="#fff842"/></linearGradient><linearGradient x1="268.28662" y1="183.45529" x2="310.19323" y2="183.45529" gradientUnits="userSpaceOnUse" id="color-6"><stop offset="0" stop-color="#fffc9e"/><stop offset="1" stop-color="#fff842"/></linearGradient><linearGradient x1="267.94107" y1="176.50545" x2="311.54957" y2="176.50545" gradientUnits="userSpaceOnUse" id="color-7"><stop offset="0" stop-color="#fffc9e"/><stop offset="1" stop-color="#fff842"/></linearGradient><linearGradient x1="162.16319" y1="180.61516" x2="184.4588" y2="180.61516" gradientUnits="userSpaceOnUse" id="color-8"><stop offset="0" stop-color="#fffc9e"/><stop offset="1" stop-color="#fff842"/></linearGradient><linearGradient x1="176.78055" y1="180.71624" x2="185.19751" y2="180.71624" gradientUnits="userSpaceOnUse" id="color-9"><stop offset="0" stop-color="#fffc9e"/><stop offset="1" stop-color="#fff842"/></linearGradient><linearGradient x1="223.29122" y1="180.33106" x2="241.0141" y2="180.33106" gradientUnits="userSpaceOnUse" id="color-10"><stop offset="0" stop-color="#fffc9e"/><stop offset="1" stop-color="#fff842"/></linearGradient><linearGradient x1="266.02352" y1="180.37281" x2="305.68802" y2="180.37281" gradientUnits="userSpaceOnUse" id="color-11"><stop offset="0" stop-color="#ffd12c" stop-opacity="0"/><stop offset="1" stop-color="#ffd12c"/></linearGradient></defs><g transform="translate(-129.23786,-167.62623)"><g data-paper-data="{&quot;isPaintingLayer&quot;:true}" fill-rule="nonzero" stroke-linejoin="miter" stroke-miterlimit="10" stroke-dasharray="" stroke-dashoffset="0" style="mix-blend-mode: normal"><path d="M129.23786,180.74316c0,0 61.29629,-2.30014 100.35946,-5.31976c18.58314,-1.43646 -37.78983,-7.1851 -27.07212,-7.21442c19.18416,-0.05246 67.01244,-1.83192 94.15362,1.26169c19.89596,2.26778 23.24986,9.04814 23.32355,11.52783c0.07197,2.42334 -8.92984,8.27855 -29.72711,10.20371c-10.60268,0.98148 -26.74497,3.74008 -39.68854,3.87682c-23.08836,0.24396 -43.31012,-2.75032 -55.80776,-2.7161c0,0 59.04663,-1.30225 42.12436,-2.94839c-2.61938,-0.25483 -62.59369,-2.95361 -62.59369,-2.95361c0,0 40.98259,-4.10466 36.0262,-4.31649c-31.96701,-1.36648 -81.09783,-1.40127 -81.09783,-1.40127z" fill="url(#color-1)" stroke="none" stroke-width="0" stroke-linecap="butt"/><path d="M169.82488,179.88102l61.13268,-0.28747l0.02474,1.43195l-61.13268,0.28747z" fill="url(#color-2)" stroke="#fffed6" stroke-width="0.5" stroke-linecap="butt"/><path d="M228.58564,179.06768c0,0 17.51117,0.45467 25.66583,0.41635c7.4302,-0.03494 21.29119,-0.63714 21.29119,-0.63714l0.04639,2.68487c0,0 -14.52884,-0.46869 -21.90036,-0.43403c-8.19368,0.03853 -25.0566,0.65485 -25.0566,0.65485z" fill="url(#color-3)" stroke="#fffed6" stroke-width="0.5" stroke-linecap="butt"/><path d="M311.22122,181.06735l-0.58755,0.18177c-1.47879,0.44002 -3.51945,0.9311 -5.20274,0.94784c-3.83636,-0.41115 -8.37404,3.25431 -12.54171,3.27392c-4.37686,1.42591 -10.20476,1.66622 -15.13549,1.6894c-4.71863,0.02216 -10.20534,-0.91103 -10.26452,-4.33739c0,0 -0.00282,-0.16434 0.20805,-0.23686c-3.96631,-0.51778 -10.23122,1.48747 -10.20765,2.85411c0.00274,0.15735 0.00543,0.31469 0.00817,0.47206c1.53365,-0.53526 5.67584,-0.96033 7.45757,-0.97474l0.82605,-0.08525c0.10107,-0.01122 0.21019,-0.01759 0.32401,-0.01812c0.52932,-0.00249 0.96058,0.12208 0.96328,0.27825c0.00219,0.12719 -0.28062,0.23611 -0.67165,0.27349l-0.93584,0.09658l-0.02816,-0.0244l-0.12122,0.03594c-0.10033,0.00049 -0.20004,0.00161 -0.29915,0.00338c-1.03606,0.35463 -4.63621,0.69616 -5.54941,0.98177c-2.06394,0.64551 -0.73793,1.53027 -1.28928,2.30575c-0.26711,0.37563 1.29373,-0.74649 2.50567,-0.88753c2.09095,-0.31271 3.40431,-0.82581 5.76232,-1.02164l0.48659,-0.2193c0.16931,-0.07878 0.46549,-0.13176 0.80343,-0.13334c0.52932,-0.00249 0.96058,0.12208 0.96328,0.27825c0.00102,0.0594 -0.06016,0.11485 -0.16547,0.16085l-0.62681,0.28249l-0.14548,-0.02782l-0.06903,0.09671c-0.24917,0.029 -0.48932,0.05992 -0.72204,0.09247c-1.00595,0.37197 -3.68694,0.82306 -4.66355,1.05787c-2.22312,0.53454 -1.1063,1.1242 -1.85506,1.76944c-0.48693,0.41963 1.78632,-0.78794 3.19497,-0.94308c1.88272,-0.18841 7.83352,-1.64341 9.65414,-1.34964c1.55914,0.25157 0.32444,1.19528 0.54542,1.61892c0.40412,0.77475 2.43459,1.06245 4.55612,1.36499c0.30501,0.02829 1.95983,0.18542 2.8592,0.30435c-0.05071,-0.04076 -0.10019,-0.08679 -0.14845,-0.1353c-1.83355,-0.5406 -2.85471,-1.22551 -2.27111,-2.0778l-0.20031,0.00097l-0.0049,-0.28276c-0.00274,-0.15616 0.4242,-0.28476 0.95353,-0.28723c0.43111,-0.00205 0.7972,0.08022 0.91965,0.1952l0.31724,0.2751c0.39604,0.34341 1.96669,1.4304 2.46957,2.16523c2.01705,0.4691 8.53425,1.41512 8.14413,0.57939c-2.94291,-0.59585 -5.12287,-1.56319 -5.09957,-2.58688l-0.3503,0.00164l-0.00653,-0.37699c-0.00274,-0.15616 0.4242,-0.28476 0.95352,-0.28726c0.33792,-0.0016 0.63593,0.04862 0.80793,0.12577l0.63553,0.27614l-0.03933,0.00795l0.1034,0.02438c1.09955,0.93044 1.72047,1.4116 4.10628,2.10748c0.23158,0.13162 0.51789,0.26504 0.77408,0.39967c0.89978,0.13389 1.86864,0.22817 2.91742,0.32837c0.52191,0.04986 1.8833,0.00812 2.51959,0.06394c-0.23953,-0.1273 -0.55203,-0.31563 -0.75063,-0.40118c-0.95518,-0.41156 -1.82366,-0.80101 -2.98353,-1.16569c-0.07297,-0.60645 -1.59599,-1.38167 -2.29454,-1.9874l-0.10253,-0.08895l-0.26762,0.00125l-0.00487,-0.28276c-0.00274,-0.15616 0.42418,-0.28477 0.95349,-0.28725c0.43111,-0.00205 0.7972,0.08022 0.91965,0.1952l0.31727,0.27509c0.0028,0.00243 0.0056,0.00485 0.00844,0.00729c1.57405,-0.03497 3.93658,0.09882 4.62262,-0.26157c0.41358,-0.21727 -0.35903,-0.8759 -0.10772,-1.15637c0.96587,-1.0781 1.62985,-1.89812 4.80652,-2.63913c3.82795,-0.77401 8.35035,-1.75314 12.89704,-2.29577c-1.17556,-0.12846 -2.36054,-0.30962 -2.85211,-0.36984c-0.82103,-0.10059 -1.66751,-0.20648 -2.52422,-0.31485c-0.07353,0.06211 -0.17491,0.09344 -0.17491,0.09344zM268.37517,182.81873c0.0538,3.11468 5.13828,3.82447 9.36926,3.80458c5.0205,-0.0236 10.41734,-0.3307 14.93218,-1.67409c4.41721,-0.02077 8.53004,-3.06398 12.74506,-3.28923c1.42137,0.00279 3.41888,-0.44966 4.68493,-0.84996c-1.39331,-0.17774 -2.79333,-0.35814 -4.13585,-0.52916c-0.22565,0.04839 -0.44442,0.09852 -0.65566,0.15045c-1.85,0.45492 -5.0825,1.05513 -7.74348,0.83073c-2.40366,-0.49379 -4.73581,-0.76344 -7.11492,-0.90596c-3.97119,0.28041 -8.00706,0.25385 -12.9222,0.27697l-0.19672,0.00092c0.00618,0.1166 0.01191,0.23404 0.01397,0.35249l0.00312,0.17899c0,0 0.00253,0.14765 -0.12273,0.28869c1.41028,0.25459 2.98732,0.47716 4.64263,0.38751c2.29623,-0.12438 5.41759,-1.50751 7.84609,-0.80603c0.6729,0.19437 0.29894,1.0542 0.3037,1.3296c-0.99831,2.58807 -14.94137,2.5795 -19.9659,1.09085c-0.4413,-0.36388 -1.03837,-0.61088 -1.73372,-0.76215c0.04926,0.06369 0.05027,0.12485 0.05027,0.12485zM302.00624,177.90973c-3.76605,-1.11769 -6.74304,-2.19692 -10.49306,-3.43573c-0.48757,-0.16107 -1.34802,-0.22817 -1.87769,-0.38155c-4.74846,-1.40926 -9.89935,0.08715 -14.63336,0.15854c-0.89263,-0.09568 -1.66217,0.15616 -2.36354,0.41794c-0.52635,0.19645 -0.99717,0.34352 -1.54742,0.65699c-1.44793,0.82487 -2.87376,1.44181 -3.06198,2.48704c0.91865,-0.13991 1.70173,-0.41932 2.23629,-0.87822c4.97224,-1.53564 18.91276,-1.67535 20.00033,0.90291c0.00473,0.27542 0.40832,1.13157 -0.25772,1.33225c-2.40386,0.7242 -5.57255,-0.62937 -7.8727,-0.73211c-1.61828,-0.0723 -3.15176,0.15207 -4.52719,0.41184c-0.00587,0.09187 -0.04078,0.15755 -0.04078,0.15755c-0.12761,0.22875 -0.19345,0.45758 -0.22477,0.68792c0.10393,-0.00628 0.17551,-0.0066 0.17551,-0.0066l0.31948,-0.00149c4.78012,-0.02249 8.72712,-0.08411 12.60152,0.13605c2.26604,-0.16844 4.48974,-0.45664 6.77169,-0.95039c2.6528,-0.24939 5.90554,0.3203 7.77095,0.75777c0.29091,0.06823 0.59583,0.13292 0.91296,0.19434c1.79268,-0.24572 3.70133,-0.51185 5.56794,-0.76705c-3.19454,-0.25102 -6.416,-1.16229 -9.45636,-1.148zM267.56107,178.4369c-0.02325,0.00011 -0.04526,-0.00052 -0.06617,-0.00183c-2.04129,0.17229 -4.38808,0.0874 -6.24096,-0.33053c-2.76249,-0.6231 -5.52338,-2.01866 -5.5408,-3.02636c-0.00379,-0.21991 -0.00762,-0.43984 -0.0114,-0.65975l-0.00814,-0.47124c-0.00274,-0.15616 0.4242,-0.28476 0.95352,-0.28726c0.10603,-0.0005 0.20814,0.0041 0.30366,0.01304c-0.13506,-0.11118 -0.23551,-0.22623 -0.29698,-0.34479c-0.20622,-0.39771 -1.4219,-2.08639 0.68775,-2.20886c0.48734,-0.02831 0.93264,0.03738 1.35427,0.1455c-0.11213,-0.13996 -0.17491,-0.28686 -0.18068,-0.44134c-0.00808,-0.21578 -0.25404,-0.95623 0.37941,-1.07949c2.06119,-0.40114 3.83613,0.75278 5.35156,0.87853c0.76823,0.07367 6.28149,0.82361 7.83591,1.15907c-0.05754,-0.04754 -0.10279,-0.0956 -0.12153,-0.12774c-0.14177,-0.24285 -0.15893,-0.6951 -0.01622,-0.93883c0.56819,-0.97034 2.9336,-1.42933 5.65926,-1.84493c1.12608,-0.11694 4.33875,-0.69378 5.51148,-0.34166c0.09028,0.02712 0.1551,0.06491 0.19767,0.11176c1.09024,-0.21799 2.29904,-0.40669 3.54229,-0.56767c0.99665,-0.12907 4.96275,-0.61675 5.97587,-0.38444c0.60419,0.13854 0.9105,0.28057 1.01963,0.42433c0.2108,-0.02632 0.42326,-0.05075 0.63701,-0.07314c1.32672,-0.13902 4.71913,-0.51883 5.86882,-0.15747c1.73715,0.54595 -2.305,1.96367 -3.58629,2.30439c0.05219,0.36906 -0.67355,0.88102 -1.34242,1.3474c1.91399,-0.13275 4.44743,0.06371 5.48826,0.55936c0.71746,0.34166 -0.27727,0.92557 0.11012,1.29328c0.97891,0.92922 1.19449,1.65629 4.13273,2.26536c4.50101,0.86055 9.91571,1.98622 15.21032,2.3514l0.10968,0.03825l0.03461,-0.01562l0.94924,0.18162c0.26507,0.04912 0.44153,0.13594 0.44325,0.23564c0.00274,0.15616 -0.4242,0.28476 -0.95349,0.28725l-0.95843,0.00451l-0.00034,-0.01923c-4.08063,0.38203 -9.09567,0.68715 -12.81118,1.33208c3.70052,0.57362 8.55745,0.82658 12.53473,1.16044l-0.00034,-0.01923l0.9584,-0.00451c0.52932,-0.00249 0.96058,0.12208 0.96328,0.27825c0.00174,0.0997 -0.17168,0.18818 -0.43508,0.23977l-0.94279,0.19051l-0.03516,-0.01527l-0.10833,0.03925c-5.28111,0.41488 -10.65605,1.5913 -15.12661,2.49404c-2.91672,0.63662 -3.10712,1.3656 -4.05384,2.30386c-0.37465,0.37131 0.64013,0.94577 -0.06542,1.2941c-1.0236,0.50536 -3.54976,0.72561 -5.46807,0.61089c0.68487,0.46002 1.42821,0.9651 1.38872,1.33458c1.29287,0.32864 5.38334,1.70811 3.66532,2.27032c-1.13705,0.37209 -4.542,0.02427 -5.87331,-0.10228c-0.21445,-0.02037 -0.42774,-0.04278 -0.63941,-0.06713c-0.10414,0.14478 -0.40553,0.28966 -1.0048,0.43386c-1.00494,0.2418 -4.98723,-0.20849 -5.9882,-0.32817c-1.24864,-0.14929 -2.46371,-0.32654 -3.56134,-0.53428c-0.04091,0.04724 -0.10443,0.08565 -0.19376,0.11361c-1.16036,0.3631 -4.39238,-0.18343 -5.52237,-0.28977c-2.73961,-0.38989 -5.12049,-0.82658 -5.72208,-1.79141c-0.1511,-0.24235 -0.14956,-0.69466 -0.0162,-0.93883c0.01765,-0.03231 0.06122,-0.08078 0.11714,-0.12885c-1.54255,0.35005 -7.029,1.15166 -7.79462,1.23257c-1.51083,0.13999 -3.24561,1.3104 -5.32031,0.92872c-0.63755,-0.11729 -0.41725,-0.85993 -0.41662,-1.07574c0.0005,-0.15451 0.05812,-0.30199 0.1654,-0.44297c-0.41784,0.11204 -0.8608,0.18192 -1.34904,0.15821c-2.1135,-0.10261 -0.95635,-1.80246 -0.76391,-2.20205c0.05739,-0.11912 0.15385,-0.23514 0.28505,-0.34754c-0.09518,0.00983 -0.19712,0.0154 -0.30317,0.01588c-0.52932,0.00249 -0.96058,-0.12208 -0.96328,-0.27825c-0.00379,-0.21991 -0.01575,-0.91108 -0.01954,-1.13099c-0.01739,-1.00768 2.69479,-2.429 5.43537,-3.07798c3.67441,-0.87011 9.36797,-0.42823 10.67582,0.77991c3.57943,0.9926 7.85776,0.92099 12.3085,0.48232c1.20305,-0.11857 4.43402,-1.05605 4.11524,-1.2592c-0.00196,-0.11258 0.2646,-0.93236 0.2646,-0.93236c0,0 -1.27581,-0.08521 -1.63658,0.03715c-1.22,0.41374 -2.33093,0.80045 -4.54443,0.91939c-2.60771,0.14015 -5.01927,-0.27506 -7.08655,-0.67031c0,0 -0.80014,-0.15309 -0.27259,-0.39086c0.22915,-0.10327 0.50972,-0.13281 0.75384,-0.13317c-0.003,-0.01909 -0.00316,-0.03028 -0.00316,-0.03028l-0.00309,-0.17901c-0.01129,-0.65382 -0.06903,-1.24922 0.1168,-1.86416c-0.19773,-0.01056 -0.40593,-0.04441 -0.58509,-0.12226c-0.53569,-0.23274 0.25903,-0.39336 0.25903,-0.39336c0.22845,-0.04613 0.46116,-0.09255 0.69791,-0.13846c0.15823,-0.11527 0.42826,-0.22556 0.85371,-0.1589c1.67611,-0.29698 3.53155,-0.52708 5.5106,-0.43949c2.21725,0.09813 3.34132,0.47434 4.57541,0.87651c0.36494,0.11893 1.6376,0.02174 1.6376,0.02174c0,0 -0.29486,-0.81716 -0.29675,-0.92973c0.31169,-0.20612 -2.95108,-1.11307 -4.15806,-1.2203c-4.46515,-0.39673 -8.74529,-0.42812 -12.28984,0.59798c-0.60402,0.58224 -2.21249,0.99945 -4.13167,1.18579c-0.05512,0.01617 -0.12357,0.02632 -0.20835,0.02673zM275.14994,173.21003c4.91127,0.04904 10.57085,-1.52418 15.55557,-0.0448c4.53356,1.37217 7.32146,2.98221 11.49528,4.22095c3.39918,-0.01599 6.99913,1.18013 10.56205,1.19626l0.26034,0.2634c0.39516,-0.05324 0.78628,-0.10553 1.17176,-0.1566c0.48944,-0.06483 1.66792,-0.25711 2.83889,-0.3966c-4.56472,-0.4998 -9.12018,-1.43622 -12.97428,-2.17412c-3.20176,-0.71103 -3.89396,-1.52468 -4.89688,-2.59353c-0.26092,-0.27808 0.4888,-0.94385 0.06777,-1.1572c-0.6984,-0.35389 -3.05594,-0.19791 -4.63093,-0.21806c-0.00275,0.00244 -0.00548,0.00493 -0.00819,0.00734l-0.30767,0.27803c-0.11842,0.1161 -0.48165,0.20181 -0.91276,0.20384c-0.52932,0.00249 -0.96059,-0.12209 -0.96328,-0.27825l-0.0049,-0.28274l0.26762,-0.00125l0.09949,-0.0899c0.67749,-0.61219 2.17347,-1.40159 2.22551,-2.00865c1.14708,-0.37554 2.00198,-0.77309 2.94283,-1.19356c0.1956,-0.08741 0.50155,-0.27864 0.73662,-0.40816c-0.6343,0.06177 -1.99692,0.03285 -2.517,0.08762c-1.04514,0.11006 -2.01055,0.21339 -2.90559,0.35574c-0.25148,0.137 -0.5332,0.27313 -0.76015,0.40688c-2.36139,0.71818 -2.96564,1.20514 -4.03284,2.14576l-0.10253,0.02535l0.03959,0.00759l-0.62584,0.28208c-0.16931,0.07878 -0.46549,0.13176 -0.80345,0.13333c-0.52932,0.00249 -0.96059,-0.12206 -0.96328,-0.27825l-0.00653,-0.37699l0.35027,-0.00164c-0.05861,-1.0233 2.08751,-2.01099 5.00943,-2.63441c0.3612,-0.83924 -6.12225,0.16791 -8.12278,0.6559c-0.47741,0.73942 -2.01025,1.841 -2.39436,2.18809l-0.3077,0.27803c-0.11842,0.1161 -0.48163,0.20179 -0.91276,0.20384c-0.52932,0.00249 -0.96058,-0.12208 -0.96328,-0.27825l-0.0049,-0.28276l0.20033,-0.00095c-0.61289,-0.84667 0.38444,-1.54105 2.19899,-2.09882c0.04662,-0.04895 0.0945,-0.09541 0.14378,-0.13666c-0.89511,0.12738 -2.54424,0.30003 -2.84821,0.33119c-2.11074,0.32246 -4.13093,0.62917 -4.50821,1.40761c-0.20631,0.42564 1.06081,1.35758 -0.48939,1.62377c-1.81022,0.31086 -7.8103,-1.08799 -9.69919,-1.25865c-1.41382,-0.14187 -3.72843,-1.32785 -3.22709,-0.91287c0.77091,0.63809 -0.32537,1.23817 1.91589,1.7517c0.98458,0.22559 3.68068,0.65139 4.69934,1.01386c0.23382,0.03037 0.47495,0.05906 0.72513,0.08568l0.07239,0.09605l0.14448,-0.02918l0.63647,0.27656c0.10691,0.04501 0.16996,0.09987 0.17098,0.15927c0.00274,0.15616 -0.4242,0.28477 -0.95352,0.28726c-0.33792,0.0016 -0.63593,-0.0486 -0.80793,-0.12577l-0.49408,-0.2147c-2.36439,-0.17359 -3.6952,-0.67429 -5.79663,-0.96728c-1.21662,-0.12963 -2.81594,-1.23689 -2.53592,-0.86382c0.57805,0.77016 -0.71719,1.66729 1.36871,2.29325c0.92292,0.27697 4.53427,0.58457 5.58242,0.92942c0.09915,0.00086 0.19889,0.00106 0.29924,0.00058l0.12243,0.03482l0.02731,-0.02466l0.93902,0.08777c0.39222,0.03369 0.67877,0.13995 0.68096,0.26711c0.00274,0.15616 -0.4242,0.28476 -0.95352,0.28726c-0.11382,0.00053 -0.22311,-0.0048 -0.32457,-0.01505l-0.82886,-0.07748c-1.78194,0.00235 -5.93814,-0.38369 -7.49004,-0.90445c0.00274,0.15735 0.00546,0.31471 0.00817,0.47206c0.02205,1.27616 5.54565,3.05747 9.49145,2.8359c0.2006,-2.59062 3.98189,-4.47882 8.02853,-4.69505zM298.40495,180.7501c1.34326,0.15708 3.22301,-0.35425 4.37892,-0.50611c0.45401,-0.05965 0.92523,-0.12251 1.41005,-0.18785c-0.60016,-0.07519 -1.18119,-0.14716 -1.73652,-0.21459c-1.16095,-0.14096 -3.05807,-0.63455 -4.39568,-0.46486c-1.54637,0.29614 -3.03243,0.52065 -4.49862,0.69126c1.57548,0.15991 3.17259,0.3802 4.84186,0.68214z" fill="#fffed6" stroke="none" stroke-width="0.5" stroke-linecap="butt"/><path d="M293.47453,180.06809c1.46619,-0.17062 2.98884,-0.43884 4.5352,-0.73496c1.33761,-0.16969 3.37486,0.36206 4.53581,0.50303c0.5553,0.06743 1.13687,0.1447 1.737,0.21991c-0.48483,0.06533 -0.95633,0.13242 -1.41032,0.19207c-1.1559,0.15187 -3.15798,0.70857 -4.50127,0.55151c-1.66926,-0.30196 -3.32098,-0.57163 -4.89644,-0.73156z" data-paper-data="{&quot;noHover&quot;:false,&quot;origItem&quot;:[&quot;Path&quot;,{&quot;applyMatrix&quot;:true,&quot;segments&quot;:[[[356.75211,297.6175],[-0.57689,1.87803],[0.30429,-1.51295]],[[355.848,292.6656],[0.27268,1.30751],[-0.1071,-0.51355]],[[355.51056,291.07051],[0.11742,0.54846],[-0.14531,0.67586]],[[355.09575,293.02618],[0.13043,-0.62542],[-0.27268,1.30751]],[[354.19163,297.97807],[-0.30429,-1.51295],[0.53787,1.75098]],[[355.43947,303.06871],[-0.30487,-1.65807],[0.31157,-1.77497]]],&quot;closed&quot;:true}]}" fill="#ffd76d" stroke="none" stroke-width="0.5" stroke-linecap="butt"/><path d="M311.47887,180.95482c0.85669,0.10837 1.70468,0.21675 2.52569,0.31736c0.49158,0.06022 1.67776,0.24382 2.85334,0.37228c-4.54673,0.54265 -9.0688,1.52254 -12.89675,2.29657c-3.17667,0.74103 -3.83781,1.57471 -4.80368,2.65281c-0.2513,0.28049 0.52017,0.94753 0.10658,1.16479c-0.68604,0.3604 -3.05177,0.23457 -4.62582,0.26955c-0.00282,-0.00241 -0.17425,-0.03826 -0.17702,-0.04067l-0.31837,-0.27274c-0.12243,-0.11497 -0.31736,-0.16915 -0.74848,-0.16713c-0.52932,0.00249 -0.95974,0.13754 -0.957,0.29368l0.00214,0.2864l0.1079,-0.04804l0.26248,0.13544c0.69857,0.60573 2.21239,1.38999 2.28538,1.99644c1.15987,0.36469 1.88619,0.68978 2.84143,1.10131c0.19857,0.08555 0.65403,0.33762 0.89356,0.46494c-0.63634,-0.05579 -2.00421,-0.00936 -2.52609,-0.0592c-1.04878,-0.1002 -2.02808,-0.18869 -2.92789,-0.3226c-0.25616,-0.13463 -0.54414,-0.26731 -0.77572,-0.3989c-2.38581,-0.69588 -3.03153,-1.16932 -4.13107,-2.09974l-0.10524,-0.02402l0.04021,-0.00811l-0.64764,-0.27437c-0.17197,-0.07715 -0.49201,-0.12682 -0.82994,-0.12521c-0.52932,0.00249 -0.97751,0.1284 -0.97479,0.28456l0.05932,0.2746l0.34349,-0.00264c-0.02325,1.02367 2.17898,2.09163 5.12192,2.68747c0.39013,0.8357 -6.20779,-0.11071 -8.22492,-0.57983c-0.50286,-0.73481 -2.10805,-1.84133 -2.50409,-2.18473l-0.32047,-0.27855c-0.12243,-0.11497 -0.49174,-0.20145 -0.92286,-0.19941c-0.52932,0.00249 -0.79282,0.08979 -0.79014,0.24595l0.00321,0.28052l0.19997,-0.00138c-0.5836,0.85229 0.4137,1.51903 2.24725,2.05963c0.04834,0.04851 -0.01176,0.17875 0.03895,0.21952c-0.89935,-0.11893 -2.56868,-0.28456 -2.87371,-0.31286c-2.1215,-0.30254 -4.16658,-0.60557 -4.57072,-1.38032c-0.22096,-0.42364 1.00929,-1.37732 -0.54983,-1.62887c-1.82062,-0.29377 -7.59709,1.14235 -9.47981,1.33076c-1.40869,0.15513 -3.85523,1.38472 -3.3683,0.9651c0.74876,-0.64523 -0.36959,-1.24006 1.8535,-1.77457c0.97661,-0.23479 3.65706,-0.68892 4.66303,-1.06089c0.23276,-0.03256 0.47283,-0.06378 0.722,-0.09275l0.069,-0.09713l0.14548,0.02796l0.62669,-0.28374c0.10531,-0.04601 0.16645,-0.10217 0.16543,-0.16159c-0.00274,-0.15616 -0.434,-0.28205 -0.9633,-0.27956c-0.33792,0.0016 -0.45694,0.05424 -0.62622,0.133l-0.48661,0.21836c-2.35801,0.19581 -3.67161,0.70583 -5.76258,1.01854c-1.21197,0.14104 -2.9489,1.27443 -2.6818,0.8988c0.55135,-0.77549 -0.7754,-1.66727 1.28853,-2.31275c0.91318,-0.28562 4.51361,-0.63108 5.54967,-0.98574c0.09911,-0.00177 0.19882,-0.00299 0.29917,-0.00347l0.12122,-0.03613l0.0281,0.02449l0.93593,-0.09719c0.391,-0.03738 0.67404,-0.14763 0.67183,-0.27484c-0.00274,-0.15616 -0.43377,-0.2816 -0.9631,-0.27911c-0.11382,0.00053 -0.04721,0.02102 -0.14828,0.03224l-0.82593,0.08467c-1.78171,0.0144 -5.92334,0.43497 -7.45698,0.97023c-0.00274,-0.15735 -0.18247,-0.31989 -0.18516,-0.47725c-0.0236,-1.36665 6.24563,-3.3857 10.212,-2.8679c-0.21087,0.07253 -0.03933,0.26997 -0.03933,0.26997c0.05919,3.42635 5.54935,4.33784 10.26798,4.31567c4.93072,-0.02319 10.58605,-0.24182 14.96293,-1.66774c4.16769,-0.01961 8.8723,-3.72066 12.70862,-3.30951c1.68327,-0.01674 3.5586,-0.46944 5.03739,-0.90945l0.58764,-0.18163c0,0 0.26699,-0.06931 0.34051,-0.1314z" data-paper-data="{&quot;noHover&quot;:false,&quot;origItem&quot;:[&quot;Path&quot;,{&quot;applyMatrix&quot;:true,&quot;segments&quot;:[[357.45508,283.15922],[[357.78842,283.82588],[0,0],[0.80642,1.67755]],[[359.50787,289.71616],[-0.01643,-1.90007],[-0.79921,4.32169]],[[365.4945,303.93462],[0,-4.70403],[2.6169,4.96752]],[[368.50787,321.04949],[0,-5.56527],[0,5.32589]],[[360.3412,332.54949],[6.38084,0],[0,0]],[[359.90195,332.31006],[0.13322,0.23943],[-0.99892,4.46633]],[[365.12731,343.88603],[-2.54508,0],[0.29303,0]],[[366.00641,343.88603],[-0.29303,0],[-0.98332,-1.74131]],[[364.25665,335.45041],[0.01123,2.01112],[0,0]],[[364.10511,334.51648],[0,0],[-0.02,-0.11432]],[[364.0742,334.15045],[0,0.12847],[0,-0.59742]],[[364.60076,333.06872],[-0.29081,0],[0.23687,0]],[[365.10413,333.83204],[-0.06617,-0.44202],[0,0]],[365.27581,334.89011],[365.23013,334.9214],[[365.29603,335.05891],[0,0],[0,0.11325]],[[365.29973,335.3966],[-0.00245,-0.11188],[0.65132,1.17621]],[[367.07931,341.67882],[-0.52383,-1.0362],[1.18392,2.34197]],[[371.36163,343.17884],[-1.43921,-0.63738],[0.69715,0.30875]],[[369.73087,340.33364],[0.25203,1.37056],[-0.56401,-2.36597]],[[367.87891,333.81038],[0.34397,2.66507],[0,0]],[[367.47481,333.25693],[0,0],[-0.14517,-0.1926]],[[367.23353,332.34757],[0,0.38143],[0,-0.59742]],[[367.76009,331.26584],[-0.29081,0],[0.11065,0]],[[368.05816,331.45572],[-0.08475,-0.11977],[0,0]],[368.57872,332.16866],[368.52562,332.3323],[[368.7051,332.41212],[0,0],[0.05178,0.28178]],[[368.87099,333.22881],[-0.0586,-0.26331],[0.68386,1.14258]],[[370.80007,338.51272],[-0.4287,-1.10679],[0.97588,2.51945]],[[374.07875,340.64083],[-1.19497,-0.85762],[0.77714,0.55774]],[[372.35059,337.01657],[0.27653,1.59287],[-0.33435,-2.1285]],[[369.9219,326.09457],[-0.56297,2.04906],[0.48211,-1.75474]],[[372.9413,325.51058],[-0.7908,0.24114],[1.44623,-0.441]],[[375.52298,320.39515],[-0.58194,2.38845],[0.05538,-0.34369]],[[376.11477,317.17419],[-0.22936,1.01269],[-0.07636,0.05643]],[[375.86154,317.33915],[0.09073,-0.05359],[-1.02274,2.05879]],[[371.97253,319.86184],[1.58197,0.67524],[0,0]],[371.97253,320.08795],[[371.44597,320.08795],[0,0],[-0.29081,0]],[[370.91942,319.00622],[0,0.59742],[0,-0.48661]],[[371.29098,317.97212],[-0.21516,0.13594],[0,0]],[[371.80602,317.61943],[0,0],[0.64293,-0.44028]],[[375.85956,314.87451],[-1.37271,0.55322],[0.8912,-2.26732]],[[377.00981,305.69434],[1.55963,-0.42402],[-1.13531,3.30977]],[[372.14805,311.39931],[1.90602,0.0462],[0,0]],[372.14805,311.79469],[[371.44597,311.79469],[0,0],[-0.29081,0]],[[370.91942,310.71296],[0,0.59742],[0,-0.38143]],[[371.16069,309.80359],[-0.14517,0.1926],[0,0]],[371.68045,309.09174],[371.6949,309.13627],[[371.74119,309.02007],[0,0],[1.74223,-1.22278]],[[375.70157,304.42676],[-1.3167,2.67907],[0.24709,-0.25878]],[[376.45257,303.56092],[-0.25294,0.28651],[0.25724,-1.01291]],[[377.08959,300.27473],[-0.19576,1.18169],[0.09741,-0.58803]],[[377.23069,297.43234],[-0.10948,0.71707],[-0.23918,0.26783]],[[376.47705,298.27167],[0.16106,-0.22246],[-0.77472,1.07002]],[[374.28026,301.61618],[0.68924,-1.30193],[-1.12993,0.07054]],[[370.55938,304.16706],[1.13405,-0.77659],[0,0]],[370.39286,304.28108],[370.39286,304.58314],[[369.86631,304.58314],[0,0],[-0.29081,0]],[[369.33975,303.50141],[0,0.59742],[0,-0.48661]],[[369.71132,302.46731],[-0.21516,0.13594],[0,0]],[[370.22635,302.11461],[0,0],[0.00453,-0.0031]],[[370.23998,302.10524],[-0.00455,0.00315],[-0.05134,-1.77711]],[[369.79337,296.88304],[0.66512,0.78131],[-0.40096,-0.47101]],[[367.63911,296.98209],[0.5201,0.28907],[-1.99912,-1.11109]],[[362.76676,291.506],[1.35206,3.59964],[-1.40782,-4.33531]],[[358.60464,276.9056],[0.97066,5.14201],[-0.24951,1.32423]],[[357.89098,280.11729],[0.11646,-0.55363],[-0.1945,0.92466]],[[357.28258,282.96],[0.20928,-0.96476],[0.115,0.08421]]],&quot;closed&quot;:true}]}" fill="url(#color-4)" stroke="none" stroke-width="0.5" stroke-linecap="butt"/><path d="M257.54167,175.07356c-0.00274,-0.15735 0.17132,-0.3221 0.16858,-0.47944c1.55187,0.52077 5.70732,0.90226 7.48926,0.89989l0.8287,0.07688c0.10148,0.01028 0.03574,0.03208 0.14952,0.03155c0.52932,-0.00249 0.95601,-0.13193 0.95329,-0.28809c-0.00219,-0.12719 -0.28902,-0.23479 -0.68124,-0.26848l-0.93911,-0.08838l-0.02728,0.02476l-0.12246,-0.03499c-0.10033,0.00049 -0.20009,0.00019 -0.29921,-0.00066c-1.04815,-0.34485 -4.65994,-0.65648 -5.5829,-0.93344c-2.08594,-0.62598 -0.79023,-1.53011 -1.36826,-2.30028c-0.27996,-0.37308 1.49584,0.74326 2.71247,0.87288c2.10145,0.29299 3.43244,0.79051 5.79684,0.96411l0.49411,0.21376c0.17199,0.07716 0.29282,0.12946 0.63077,0.12787c0.52932,-0.00249 0.95615,-0.1324 0.95347,-0.28856c-0.00104,-0.05942 -0.0641,-0.11502 -0.17098,-0.16004l-0.63643,-0.2778l-0.14446,0.02934l-0.07236,-0.09647c-0.25011,-0.02663 -0.49127,-0.0556 -0.7251,-0.08596c-1.01865,-0.36245 -3.7144,-0.79135 -4.69896,-1.01694c-2.24124,-0.51351 -1.14364,-1.11879 -1.9146,-1.75689c-0.50135,-0.41499 1.98744,0.79085 3.40128,0.93272c1.88893,0.17066 7.71381,1.55308 9.52404,1.24225c1.55018,-0.26618 0.28703,-1.2082 0.49334,-1.63385c0.37729,-0.77841 2.41128,-1.1007 4.52202,-1.42314c0.304,-0.03119 1.96725,-0.21256 2.86232,-0.33994c-0.04926,0.04125 0.01661,0.17026 -0.03008,0.21919c-1.81457,0.55775 -2.78882,1.23341 -2.17588,2.08008l-0.19997,0.0005l0.00643,0.28046c0.00274,0.15616 0.26819,0.24252 0.79749,0.24005c0.43111,-0.00205 0.79725,-0.09195 0.91569,-0.20805l0.31073,-0.28155c0.38412,-0.34707 1.95091,-1.46907 2.42832,-2.20848c2.00056,-0.488 8.56591,-1.49637 8.20472,-0.65712c-2.92187,0.62343 -5.08676,1.71165 -5.02818,2.73495l-0.3433,0.00049l-0.05176,0.27551c0.00274,0.15616 0.45583,0.27762 0.98515,0.27513c0.33792,-0.0016 0.65721,-0.05422 0.82652,-0.13297l0.63835,-0.2803l-0.04053,-0.00775l0.10443,-0.02496c1.06717,-0.94063 1.69622,-1.41994 4.05758,-2.13816c0.22699,-0.13375 0.51024,-0.26914 0.76172,-0.40615c0.89502,-0.14234 1.87104,-0.23999 2.91618,-0.35003c0.52008,-0.05477 1.88926,-0.02116 2.52355,-0.08294c-0.23508,0.12956 -0.54068,0.32108 -0.73628,0.40848c-0.94083,0.42046 -1.7967,0.81725 -2.94378,1.19276c-0.05203,0.60704 -1.53829,1.40594 -2.2158,2.01813l-0.25947,0.13581l-0.10781,-0.04486l0.00762,0.2865c0.00274,0.15616 0.43742,0.28707 0.96671,0.28459c0.43111,-0.00205 0.62318,-0.06017 0.74161,-0.17627l0.30889,-0.2756c0.00271,-0.00246 0.17384,-0.03807 0.1766,-0.04053c1.57496,0.02017 3.93565,-0.12821 4.63403,0.2257c0.42102,0.21334 -0.32742,0.88756 -0.06652,1.16565c1.0029,1.06885 1.6926,1.89595 4.89437,2.60697c3.85407,0.73791 8.40929,1.67494 12.97401,2.17476c-1.17095,0.13951 -2.35063,0.33424 -2.84004,0.39906c-0.38548,0.05108 -0.77721,0.1045 -1.17237,0.15772l-0.25999,-0.26402c-3.56289,-0.01613 -7.16546,-1.208 -10.56464,-1.19201c-4.17378,-1.23872 -7.22842,-2.54371 -11.76195,-3.91589c-3.26811,-0.96992 -6.66954,-0.89255 -10.03578,-0.65127c-0.58963,0.04225 -1.03332,0.05109 -1.60098,0.11553c-1.13466,0.12884 -2.35194,0.20046 -3.64542,0.25748c-1.68699,0.07436 -3.37651,0.88789 -4.71008,1.45673c-1.35093,0.57626 -2.42369,1.3461 -2.96065,2.15816c-0.24012,0.36316 -0.32597,0.58359 -0.36281,1.05949c0,0 -3.16545,-0.02699 -5.71644,-0.62379c-2.25791,-0.52822 -3.93646,-1.59067 -3.94682,-2.18987z" data-paper-data="{&quot;noHover&quot;:false,&quot;origItem&quot;:[&quot;Path&quot;,{&quot;applyMatrix&quot;:true,&quot;segments&quot;:[[[342.50787,323.71616],[0.36723,4.57126],[0.13434,-5.54187]],[[342.56066,306.15922],[-2.79846,5.59693],[2.59487,-5.08982]],[[350.52125,293.26795],[-2.34321,4.68641],[0,-3.83661]],[[352.84135,281.37092],[-0.06121,4.02078],[0,0]],[[353.33412,281.08224],[0,0],[-0.09566,-0.44701]],[[353.05276,279.75672],[0.09173,0.43607],[-0.11646,-0.55363]],[[352.3391,276.54503],[0.24951,1.32423],[-0.97066,5.14201]],[[348.17698,291.14542],[1.40782,-4.33531],[-1.35206,3.59964]],[[343.30463,296.62152],[1.99913,-1.11108],[-0.52011,0.28907]],[[341.15037,296.52246],[0.40096,-0.47101],[-0.66512,0.78131]],[[340.70375,301.74466],[0.05134,-1.77711],[0.00455,0.00315]],[[340.71739,301.75404],[-0.00453,-0.0031],[0,0]],[[341.23242,302.10673],[0,0],[0.21516,0.13594]],[[341.60398,303.14084],[0,-0.48661],[0,0.59742]],[[341.07743,304.22257],[0.29081,0],[0,0]],[340.55087,304.22257],[340.55087,303.92051],[[340.38436,303.80648],[0,0],[-1.13405,-0.77658]],[[336.66348,301.25561],[1.12994,0.07054],[-0.68924,-1.30192]],[[334.46669,297.91108],[0.77472,1.07001],[-0.16106,-0.22246]],[[333.71305,297.07176],[0.23918,0.26783],[0.10947,0.71707]],[[333.85415,299.91415],[-0.09741,-0.58803],[0.19576,1.18169]],[[334.49117,303.20034],[-0.25724,-1.01291],[0.25293,0.2865]],[[335.24217,304.06618],[-0.24708,-0.25878],[1.3167,2.67907]],[[339.20255,308.65949],[-1.74223,-1.22278],[0,0]],[339.24884,308.77569],[339.26329,308.73117],[[339.78305,309.44302],[0,0],[0.14517,0.19261]],[[340.02432,310.35238],[0,-0.38143],[0,0.59742]],[[339.49776,311.43411],[0.29081,0],[0,0]],[338.79569,311.43411],[[338.79569,311.03874],[0,0],[-1.90603,0.04621]],[[333.93393,305.33377],[1.13531,3.30977],[-1.55963,-0.42401]],[[335.08417,314.51393],[-0.8912,-2.26732],[1.37271,0.55322]],[[339.13772,317.25885],[-0.64294,-0.44027],[0,0]],[[339.65276,317.61154],[0,0],[0.21516,0.13594]],[[340.02432,318.64565],[0,-0.48661],[0,0.59742]],[[339.49776,319.72738],[0.29081,0],[0,0]],[338.97121,319.72738],[[338.97121,319.50127],[0,0],[-1.58197,0.67523]],[[335.08219,316.97857],[1.02274,2.05879],[-0.09073,-0.05359]],[[334.82897,316.81361],[0.07636,0.05643],[0.22936,1.01269]],[[335.42076,320.03457],[-0.05538,-0.34369],[0.58194,2.38845]],[[338.00244,325.15],[-1.44622,-0.441],[0.7908,0.24114]],[[341.02184,325.734],[-0.48211,-1.75474],[0.56297,2.04906]],[[338.59315,336.65599],[0.33434,-2.1285],[-0.27653,1.59287]],[[336.86499,340.28026],[-0.77714,0.55774],[1.19497,-0.85761]],[[340.14367,338.15215],[-0.97588,2.51945],[0.4287,-1.10679]],[[342.07275,332.86824],[-0.68386,1.14258],[0.0586,-0.26331]],[[342.23864,332.05154],[-0.05178,0.28178],[0,0]],[342.41811,331.97172],[342.36501,331.80809],[[342.88558,331.09514],[0,0],[0.08475,-0.11977]],[[343.18365,330.90526],[-0.11064,0],[0.29081,0]],[[343.71021,331.98699],[0,-0.59742],[0,0.38143]],[[343.46893,332.89635],[0.14517,-0.19261],[0,0]],[[343.06483,333.44981],[0,0],[-0.34397,2.66507]],[[341.21287,339.97307],[0.56401,-2.36598],[-0.25203,1.37057]],[[339.58211,342.81827],[-0.69715,0.30874],[1.43921,-0.63737]],[[343.86443,341.31825],[-1.18392,2.34197],[0.52383,-1.0362]],[[345.64401,335.03602],[-0.65132,1.17621],[0.00245,-0.11189]],[[345.64771,334.69833],[0,0.11325],[0,0]],[345.71361,334.56082],[345.66793,334.52953],[[345.83961,333.47147],[0,0],[0.06617,-0.44202]],[[346.34298,332.70815],[-0.23687,0],[0.29081,0]],[[346.86954,333.78988],[0,-0.59742],[0,0.12847]],[[346.83863,334.1559],[0.02001,-0.11432],[0,0]],[[346.68709,335.08983],[0,0],[-0.01123,2.01112]],[[344.93733,343.52545],[0.98332,-1.7413],[0.29303,0]],[[345.81643,343.52545],[-0.29303,0],[2.37655,0]],[[351.18037,332.86869],[0.37804,4.45753],[-4.82232,-0.27692]]],&quot;closed&quot;:true}]}" fill="url(#color-5)" stroke="none" stroke-width="0.5" stroke-linecap="butt"/><path d="M268.4133,182.69716c0.69534,0.15126 1.29258,0.39507 1.73391,0.75893c5.02449,1.48864 18.91391,1.44789 19.91224,-1.14018c-0.00473,-0.27542 0.32378,-1.03262 -0.34908,-1.227c-2.4285,-0.70147 -5.45613,0.6467 -7.75234,0.77109c-1.65531,0.08965 -3.4011,-0.16556 -4.81139,-0.42017c0.12531,-0.14106 0.12373,-0.29072 0.12373,-0.29072l-0.00248,-0.18013c-0.00204,-0.11844 -0.0065,-0.23805 -0.0127,-0.35463l0.19691,-0.00122c4.91515,-0.02311 9.05375,-0.02887 13.02496,-0.30926c2.3791,0.14253 4.77203,0.44295 7.1757,0.93673c2.66098,0.22443 5.89694,-0.37029 7.74692,-0.82522c0.21124,-0.05195 0.42991,-0.10217 0.65557,-0.15057c1.34251,0.17102 2.74477,0.35649 4.13804,0.53421c-1.26601,0.40029 -3.2631,0.85406 -4.68447,0.85126c-4.21507,0.22525 -8.34277,3.30943 -12.75994,3.33019c-4.51483,1.34339 -10.06449,1.64137 -15.085,1.66497c-4.231,0.01989 -9.3234,-0.7148 -9.37717,-3.82946c0,0 0.17587,-0.05513 0.12666,-0.11884z" data-paper-data="{&quot;noHover&quot;:false,&quot;origItem&quot;:[&quot;Path&quot;,{&quot;applyMatrix&quot;:true,&quot;segments&quot;:[[[360.3412,331.54949],[0,0],[5.80038,0]],[[367.50787,321.04949],[0,4.77548],[0,-5.66665]],[[364.52125,304.16437],[2.46203,5.12162],[0,-4.98567]],[[358.50787,289.71616],[0.38252,4.76149],[0.01766,-1.60414]],[[356.96616,284.41219],[0.7343,1.43663],[-0.34315,1.56902]],[[355.9446,289.06961],[0.33022,-1.51184],[0.08814,0.25561]],[[356.21902,289.81251],[-0.09488,-0.23942],[0.83094,2.09677]],[[357.69813,298.56802],[0.44118,-2.99883],[-0.94054,2.70312]],[[355.9488,306.58024],[0.28626,-2.68229],[0.48737,4.48737]],[[356.35139,321.16968],[0,-5.54771],[0,0]],[[356.35139,321.39171],[0,0],[0.21717,-0.00471]],[[357.00787,321.38282],[-0.22058,0],[0,0]],[357.3412,321.38282],[[357.8777,321.52699],[-0.26155,-0.14416],[0.48642,-1.58669]],[[358.63993,316.29488],[0.15245,1.86991],[-0.21149,-2.59396]],[[357.20769,307.42402],[-1.3275,2.72715],[0.36783,-0.75564]],[[359.68624,307.10718],[-0.5129,0],[4.81061,1.17715]],[[361.54273,329.66198],[2.81604,-5.64163],[-0.68147,0.49098]],[[360.10832,331.60381],[0.28777,-0.78182],[0.11904,-0.05432]]],&quot;closed&quot;:true}]}" fill="url(#color-6)" stroke="none" stroke-width="0.5" stroke-linecap="butt"/><path d="M311.54957,179.06814c-1.86658,0.25518 -3.77836,0.52835 -5.57106,0.77408c-0.31713,-0.06144 -0.62201,-0.12613 -0.91294,-0.19436c-1.86539,-0.43744 -5.1237,-0.99937 -7.7765,-0.74998c-2.28197,0.49376 -4.57243,0.80996 -6.83847,0.9784c-3.87441,-0.22016 -7.91365,-0.18983 -12.6938,-0.16736l-0.31981,0.00102c0,0 -0.07175,0.00013 -0.17567,0.00637c0.0313,-0.23032 0.0948,-0.46287 0.22241,-0.69162c0,0 0.2027,-0.09987 0.20859,-0.19177c1.37541,-0.25977 2.906,-0.48875 4.5243,-0.41646c2.30017,0.10276 5.38167,1.42398 7.78557,0.69978c0.66605,-0.20065 0.28926,-0.95102 0.28453,-1.22643c-1.08757,-2.57827 -14.96048,-2.49296 -19.93272,-0.95732c-0.53458,0.45891 -1.49426,0.746 -2.41294,0.88595c0.1193,-0.66247 1.16264,-1.91422 2.67929,-2.6853c1.66817,-0.8481 3.84144,-1.19064 4.41972,-1.2917c3.74919,-0.65526 10.03563,-1.25684 14.78405,0.15242c0.24772,0.07173 8.24245,2.73107 12.26913,3.92614c3.04038,-0.01429 6.26177,0.89709 9.45632,1.14811z" data-paper-data="{&quot;noHover&quot;:false,&quot;origItem&quot;:[&quot;Path&quot;,{&quot;applyMatrix&quot;:true,&quot;segments&quot;:[[[351.4945,293.4977],[0,-3.43165],[-2.38918,4.77836]],[[343.45508,306.60643],[2.52234,-5.1695],[-2.66581,5.33163]],[[343.50787,323.71616],[-0.09146,-5.34418],[-0.69274,3.746]],[[351.0168,331.84239],[-3.66854,-0.43918],[-0.25251,-1.03951]],[[349.401,329.3014],[0.84984,0.61229],[-2.81604,-5.64163]],[[351.2575,306.74661],[-4.81061,1.17715],[0.5129,0]],[[353.73605,307.06344],[-0.36782,-0.75564],[1.3275,2.72716]],[[352.30381,315.9343],[0.21148,-2.59396],[-0.14879,1.82499]],[[353.03109,321.05173],[-0.47171,-1.55738],[0.17104,0.00842]],[[353.3241,321.10081],[0,0],[0.42486,0.14847]],[[354.6031,321.3679],[-0.42863,-0.03982],[-0.01075,-0.11743]],[354.59235,321.16968],[[354.59235,320.80911],[0,0],[0,-5.39531]],[[354.95606,306.58966],[-0.44389,4.36836],[-0.29383,-2.56074]],[[353.2456,298.9286],[0.89945,2.58505],[-0.44118,-2.99884]],[[354.72471,290.17309],[-0.83094,2.09677],[0.1296,-0.32702]],[[355.09459,289.14653],[-0.11719,0.35672],[-0.44187,-2.028]],[[353.71504,282.84761],[0.45884,2.11161],[-0.49541,3.60048]]],&quot;closed&quot;:true}]}" fill="url(#color-7)" stroke="none" stroke-width="0.5" stroke-linecap="butt"/><path d="M168.78972,179.79636c0,0 1.50234,0.45736 3.07065,0.44505c1.07807,-0.00847 2.26193,-0.42805 2.71016,-0.60955c1.13503,-0.45959 0.9284,-2.55214 0.9284,-2.55214l5.3992,2.65971c0,0 3.55533,0.64391 3.56066,0.95288c0.00593,0.34366 -3.52663,1.01602 -3.52663,1.01602l-5.45873,2.44226c0,0 0.60524,-1.92346 -0.52453,-2.32873c-0.47076,-0.16886 -1.69071,-0.47035 -2.91591,-0.45356c-1.59856,0.02188 -3.20921,0.39696 -3.20921,0.39696l-6.66056,-0.87863z" fill="url(#color-8)" stroke="#fffed6" stroke-width="0.5" stroke-linecap="butt"/><path d="M182.56721,182.32718c-1.46793,0.00692 -5.78666,-1.58385 -5.78666,-1.58385c0,0 4.26311,-1.63112 5.73106,-1.63802c1.46793,-0.00692 2.67037,0.70874 2.68577,1.59843c0.01537,0.88969 -1.16219,1.61654 -2.63014,1.62342z" fill="url(#color-9)" stroke="#fffed6" stroke-width="0.5" stroke-linecap="butt"/><path d="M226.42638,182.29996c-1.71261,0.00807 -3.11619,-0.86692 -3.13497,-1.95433c-0.01876,-1.08741 1.35433,-1.97541 3.06691,-1.98348c1.71261,-0.00807 14.65579,2.07918 14.65579,2.07918c0,0 -12.87517,1.8506 -14.58775,1.85866z" fill="url(#color-10)" stroke="#fffed6" stroke-width="0.5" stroke-linecap="butt"/><path d="M266.02352,180.21356c0,0 12.74492,-0.58179 20.86708,-1.34555c3.86387,-0.36333 -7.8574,-1.81736 -5.62893,-1.82478c3.98884,-0.01327 13.93346,-0.46336 19.57674,0.31912c4.13684,0.5736 4.8342,2.28859 4.84952,2.91579c0.01496,0.61294 -1.85672,2.09393 -6.18097,2.58087c-2.20454,0.24825 -5.5609,0.94599 -8.25217,0.98058c-4.80062,0.0617 -9.00519,-0.69565 -11.60374,-0.68699c0,0 12.27718,-0.32939 8.75865,-0.74575c-0.54464,-0.06446 -13.01469,-0.74707 -13.01469,-0.74707c0,0 8.52124,-1.03821 7.49069,-1.09179c-6.64669,-0.34563 -16.86213,-0.35443 -16.86213,-0.35443z" fill="url(#color-11)" stroke="none" stroke-width="0" stroke-linecap="butt"/><path d="M220.62418,179.82115l-2.05182,0.90468" fill="none" stroke="none" stroke-width="0" stroke-linecap="round"/><path d="M189.68754,179.89949l-1.08893,1.07916l-1.44378,-0.94047" fill="none" stroke="#fffed6" stroke-width="0.5" stroke-linecap="round"/><path d="M190.8159,181.10248l1.7511,-1.21653" fill="none" stroke="#fffed6" stroke-width="0.5" stroke-linecap="round"/><path d="M194.34127,180.01184l-0.20757,0.80652" fill="none" stroke="#fffed6" stroke-width="0.5" stroke-linecap="round"/><path d="M196.12947,180.94322l0.42443,-1.07603" fill="none" stroke="#fffed6" stroke-width="0.5" stroke-linecap="round"/><path d="M196.90785,180.41001l1.97708,0.46805" fill="none" stroke="#fffed6" stroke-width="0.5" stroke-linecap="round"/><path d="M200.44766,180.1547l-0.96998,0.83991" fill="none" stroke="#fffed6" stroke-width="0.5" stroke-linecap="round"/><path d="M201.64546,181.10376l0.96482,-1.13824l1.29831,1.06793" fill="none" stroke="#fffed6" stroke-width="0.5" stroke-linecap="round"/><path d="M206.46605,180.9021l-1.59364,-1.06654" fill="none" stroke="#fffed6" stroke-width="0.5" stroke-linecap="round"/><path d="M207.53241,179.94237l0.90247,0.95045" fill="none" stroke="#fffed6" stroke-width="0.5" stroke-linecap="round"/><path d="M209.59763,179.81333l-1.07358,0.54205" fill="none" stroke="#fffed6" stroke-width="0.5" stroke-linecap="round"/><path d="M186.38381,180.99652l1.27254,-0.42367" fill="none" stroke="#fffed6" stroke-width="0.5" stroke-linecap="round"/><path d="M214.02856,179.85217l-2.2446,1.14425l-1.00298,-1.06932" fill="none" stroke="#fffed6" stroke-width="0.5" stroke-linecap="round"/><path d="M213.64516,180.45065l0.40095,0.4158" fill="none" stroke="#fffed6" stroke-width="0.5" stroke-linecap="round"/><path d="M215.02948,180.80217l1.95233,-0.96388" fill="none" stroke="#fffed6" stroke-width="0.5" stroke-linecap="round"/><path d="M217.88433,180.78872l1.46015,-0.96156l1.29729,1.00828" fill="none" stroke="#fffed6" stroke-width="0.5" stroke-linecap="round"/><path d="M220.53402,180.29892l1.1741,-0.4232" fill="none" stroke="#fffed6" stroke-width="0.5" stroke-linecap="round"/><path d="M221.82304,180.82986l-0.40095,-0.4158" fill="none" stroke="#fffed6" stroke-width="0.5" stroke-linecap="round"/><path d="M224.73166,180.36867l10.93019,0.12761" fill="none" stroke="#fffed6" stroke-width="0.5" stroke-linecap="round"/><path d="M178.95905,180.76292l5.02058,-0.0236" fill="none" stroke="#fffed6" stroke-width="0.5" stroke-linecap="round"/><path d="M272.30483,178.926c0.36751,0.04122 0.2988,0.26171 0.2988,0.26171l-0.04242,0.00728c0.30438,0.63793 1.7335,1.74492 1.62909,2.22447c0,0 -0.06871,0.22049 -0.43623,0.17926c-0.36751,-0.04122 -0.2988,-0.26171 -0.2988,-0.26171c0.07956,-0.15031 -1.4107,-1.59472 -1.61295,-2.01855l0.02626,-0.2132c0,0 0.06871,-0.22049 0.43623,-0.17926z" fill="#fffed6" stroke="none" stroke-width="0.5" stroke-linecap="butt"/><path d="M263.87729,180.9472c0.06871,-0.22049 0.43623,-0.17926 0.43623,-0.17926l0.28126,0.03765c1.30174,-0.24924 2.51892,-0.48614 3.81357,-0.71277c-0.08033,-0.1374 -0.15002,-0.28315 -0.21265,-0.43951l-0.25051,-0.09946c0,0 -0.29798,-0.13549 -0.07215,-0.31426c0.22583,-0.17877 0.52381,-0.04328 0.52381,-0.04328l0.4158,0.2035c0.39137,0.77666 0.62176,1.2274 1.82523,1.7594c0,0 0.29798,0.13549 0.07215,0.31426c-0.22583,0.17877 -0.52381,0.04328 -0.52381,0.04328c-0.69318,-0.32181 -1.15278,-0.63729 -1.47889,-1.00859c-1.39089,0.24525 -2.64869,0.51853 -4.07736,0.7456l-0.45381,-0.0448c0,0 -0.36754,-0.04122 -0.2988,-0.26171z" fill="#fffed6" stroke="none" stroke-width="0.5" stroke-linecap="butt"/><path d="M264.69151,179.55525c-0.05614,0.1801 -0.3116,0.18558 -0.40333,0.18154c-1.13015,0.73949 -3.14271,0.56698 -4.10931,1.35397c0,0 -0.22583,0.17877 -0.52383,0.04328c-0.29795,-0.13549 -0.07215,-0.31426 -0.07215,-0.31426c1.09865,-0.85174 3.20844,-0.62995 4.25933,-1.4619l0.55045,-0.06438c0,0 0.36751,0.04123 0.2988,0.26172z" fill="#fffed6" stroke="none" stroke-width="0.5" stroke-linecap="butt"/><path d="M245.38773,180.47051c0.02288,-0.07342 0.07892,-0.11782 0.14347,-0.14439c-0.27771,-0.06904 -1.31823,0.35491 -1.71662,0.31022c0,0 -0.36751,-0.04122 -0.2988,-0.26171c0.06871,-0.22049 0.43623,-0.17926 0.43623,-0.17926c0.43232,0.0485 2.66027,-1.02643 2.35453,0.37823l-0.62,0.15865c0,0 -0.36754,-0.04122 -0.2988,-0.26171z" fill="#fffed6" stroke="none" stroke-width="0.5" stroke-linecap="butt"/><path d="M249.13795,180.21561c-0.12354,-0.16151 0.13798,-0.269 0.13798,-0.269l0.06189,0.05421c0.4916,-0.63352 1.40863,-0.2642 1.04255,0.28348c-0.41784,0.6252 -2.45163,0.69264 -2.43197,-0.09705c0,0 0.06871,-0.22049 0.43623,-0.17926c0.36751,0.04122 0.2988,0.26172 0.2988,0.26172c-0.12555,0.05159 0.12916,0.00563 0.45448,-0.05411z" fill="#fffed6" stroke="none" stroke-width="0.5" stroke-linecap="butt"/><path d="M254.40243,180.22667c-0.1694,-0.019 -0.24611,-0.07612 -0.2796,-0.13212c-0.09279,-0.00388 -0.1867,-0.00657 -0.27937,-0.01041c-0.01591,0.34026 -0.86935,0.76171 -1.94069,0.29441c0,0 -0.29798,-0.13549 -0.07216,-0.31426c0.22583,-0.17877 0.52381,-0.04328 0.52381,-0.04328c0.00688,0.00333 0.01377,0.00659 0.02065,0.00975c0.00081,-0.0102 0.0028,-0.02052 0.00602,-0.03086c0.01897,-0.06089 0.07731,-0.1114 0.15624,-0.14383v0l0.43625,-0.17926l0.07262,0.06363c0.40022,-0.17187 0.77698,-0.14926 1.52804,-0.065l0.26446,0.37195c0,0 -0.06871,0.22049 -0.43623,0.17926z" fill="#fffed6" stroke="none" stroke-width="0.5" stroke-linecap="butt"/><path d="M259.81577,180.19658c-0.30846,0.12675 -0.51975,-0.05831 -0.51975,-0.05831l0.09035,-0.03712c-0.19494,-0.02186 -0.41828,-0.01371 -0.63895,0.0049c1.332,0.46621 -2.65485,1.38926 -2.6224,0.08566c0,0 0.06871,-0.22049 0.43623,-0.17926c0.36751,0.04122 0.2988,0.26171 0.2988,0.26171c-0.01657,0.00681 0.05734,0.02354 0.17853,0.04435c0.00106,-0.00787 0.00275,-0.01579 0.00523,-0.02372c0.01155,-0.03704 0.03764,-0.07023 0.07406,-0.09785l0.24794,-0.19627l0.06571,0.02989c0.40454,-0.44805 1.01085,-0.49167 2.09229,-0.37034l0.38913,0.22459c0,0 0.21126,0.18508 -0.09719,0.31182zM257.8437,180.43021c0.37792,0.04324 0.61224,0.05397 0.11481,-0.04718z" fill="#fffed6" stroke="none" stroke-width="0.5" stroke-linecap="butt"/><path d="M257.88016,180.34648c0.49743,0.10117 0.24242,0.13087 -0.1355,0.08765z" data-paper-data="{&quot;noHover&quot;:false,&quot;origItem&quot;:[&quot;Path&quot;,{&quot;applyMatrix&quot;:true,&quot;selected&quot;:true,&quot;segments&quot;:[[[252.26591,180.05838],[0,0],[0.16748,0.02763],7],[[252.31679,180.02822],[0.22044,0.06465],[0,0],7]],&quot;closed&quot;:true,&quot;fillColor&quot;:[0,0,0,1]}]}" fill="#fffed6" stroke="none" stroke-width="0.5" stroke-linecap="butt"/><path d="M274.34274,185.20187c-0.04251,0.13641 -0.19931,0.17265 -0.3128,0.18044c-0.19659,0.2226 -0.46143,0.21303 -0.93401,0.41154c0,0 -0.30846,0.12675 -0.51975,-0.05831c-0.21127,-0.18506 0.09716,-0.31182 0.09716,-0.31182c0.24521,-0.09901 0.77984,-0.17969 0.7506,-0.32494l0.62,-0.15866c0,0 0.36751,0.04122 0.2988,0.26171z" fill="#fffed6" stroke="none" stroke-width="0.5" stroke-linecap="butt"/><path d="M277.2366,185.07009c0.36751,0.04122 0.2988,0.26171 0.2988,0.26171l-0.03434,0.11024c-0.06447,0.18448 -0.20598,0.36216 -0.39076,0.51462c0,0 -0.22586,0.17879 -0.52381,0.04328c-0.29795,-0.13549 -0.07215,-0.31426 -0.07215,-0.31426c0.12535,-0.09325 0.22181,-0.20767 0.25165,-0.3261l0.03434,-0.11024c0,0 0.06871,-0.22049 0.43623,-0.17926z" fill="#fffed6" stroke="none" stroke-width="0.5" stroke-linecap="butt"/><path d="M283.3231,185.06824c0.36751,0.04122 0.2988,0.26171 0.2988,0.26171l-0.06276,0.16872c0.03369,0.06328 0.06734,0.1266 0.10101,0.1899c0,0 0.1029,0.21565 -0.25656,0.27737c-0.35946,0.06173 -0.46236,-0.15392 -0.46236,-0.15392c-0.04303,-0.09743 -0.08602,-0.19487 -0.12907,-0.2923l0.07469,-0.27226c0,0 0.06871,-0.22049 0.43623,-0.17926z" fill="#fffed6" stroke="none" stroke-width="0.5" stroke-linecap="butt"/><path d="M281.04924,185.04137c0.36751,0.04122 0.2988,0.26172 0.2988,0.26172l-0.06871,0.22049c-0.04353,0.11691 -0.02247,0.24451 0.03825,0.35862c0,0 0.1029,0.21564 -0.25656,0.27737c-0.35946,0.06173 -0.46234,-0.15392 -0.46234,-0.15392c-0.08047,-0.18221 -0.10542,-0.37856 -0.05441,-0.56456l0.06871,-0.22049c0,0 0.06871,-0.22049 0.43623,-0.17926z" fill="#fffed6" stroke="none" stroke-width="0.5" stroke-linecap="butt"/><path d="M287.66382,185.65723c-0.22583,0.17877 -0.52381,0.04328 -0.52381,0.04328l-0.4158,-0.2035c-0.10172,-0.2019 -0.16246,-0.42147 -0.10541,-0.62958c0,0 0.06871,-0.22049 0.43623,-0.17926c0.36751,0.04122 0.2988,0.26171 0.2988,0.26171c-0.03551,0.09555 -0.05088,0.19843 -0.01275,0.2936l0.25051,0.09945c0,0 0.29798,0.1355 0.07215,0.31426z" fill="#fffed6" stroke="none" stroke-width="0.5" stroke-linecap="butt"/><path d="M289.73279,175.12879c0.21127,0.18506 -0.09716,0.31182 -0.09716,0.31182l-0.06189,-0.05421c-0.12806,0.26479 -0.56729,0.37109 -0.53933,0.50999c0,0 -0.06871,0.22049 -0.43623,0.17926c-0.36751,-0.04122 -0.2988,-0.26171 -0.2988,-0.26171c0.12806,-0.26479 0.56729,-0.37109 0.53933,-0.50999l0.37433,-0.23346c0,0 0.30846,-0.12677 0.51976,0.05831z" fill="#fffed6" stroke="none" stroke-width="0.5" stroke-linecap="butt"/><path d="M286.31007,174.51664c0.21127,0.18506 -0.09719,0.31182 -0.09719,0.31182l-0.33425,0.11668c-0.0164,0.1581 -0.069,0.31427 -0.11752,0.46999c0,0 -0.06874,0.22049 -0.43625,0.17926c-0.36751,-0.04122 -0.2988,-0.26172 -0.2988,-0.26172c0.06605,-0.21193 0.14069,-0.42301 0.22608,-0.63247l0.53822,-0.24185c0,0 0.30846,-0.12675 0.51975,0.05831z" fill="#fffed6" stroke="none" stroke-width="0.5" stroke-linecap="butt"/><path d="M281.92449,174.30016c0.36751,0.04122 0.2988,0.26171 0.2988,0.26171c-0.04581,0.147 -0.12598,0.40424 -0.17179,0.55121c0,0 -0.06874,0.22049 -0.43625,0.17926c-0.36751,-0.04122 -0.2988,-0.26172 -0.2988,-0.26172c0.04581,-0.147 0.09164,-0.29398 0.13745,-0.44098l0.03434,-0.11024c0,0 0.06874,-0.22049 0.43625,-0.17926z" fill="#fffed6" stroke="none" stroke-width="0.5" stroke-linecap="butt"/><path d="M279.43254,174.36291c0.36751,0.04122 0.2988,0.26171 0.2988,0.26171c-0.04581,0.147 -0.19472,0.62471 -0.24053,0.7717c0,0 -0.06874,0.22049 -0.43625,0.17926c-0.36751,-0.04122 -0.2988,-0.26171 -0.2988,-0.26171c0.04581,-0.147 0.09164,-0.29399 0.13745,-0.44098l0.10305,-0.33073c0,0 0.06871,-0.22049 0.43623,-0.17926z" fill="#fffed6" stroke="none" stroke-width="0.5" stroke-linecap="butt"/><path d="M272.73802,175.09524c0.06871,-0.22049 0.43623,-0.17926 0.43623,-0.17926l0.63387,0.07721c0.68993,0.35853 0.53569,0.44168 0.37755,0.94904c0,0 -0.06871,0.22049 -0.43623,0.17926c-0.36751,-0.04122 -0.2988,-0.26172 -0.2988,-0.26172c0.04163,-0.13366 0.27558,-0.41209 0.05485,-0.45635l-0.46866,-0.04648c0,0 -0.36754,-0.04122 -0.2988,-0.26171z" fill="#fffed6" stroke="none" stroke-width="0.5" stroke-linecap="butt"/></g></g></svg>