<svg version="1.1" xmlns="http://www.w3.org/2000/svg" xmlns:xlink="http://www.w3.org/1999/xlink" width="90.91738" height="92.84271" viewBox="0,0,90.91738,92.84271"><defs><radialGradient cx="256" cy="195.25" r="30.18806" gradientUnits="userSpaceOnUse" id="color-1"><stop offset="0" stop-color="#4dc7ff"/><stop offset="1" stop-color="#4dc7ff" stop-opacity="0"/></radialGradient><radialGradient cx="219.73846" cy="185.51431" r="22.86974" gradientUnits="userSpaceOnUse" id="color-2"><stop offset="0" stop-color="#4dc7ff"/><stop offset="1" stop-color="#4dc7ff" stop-opacity="0"/></radialGradient><radialGradient cx="247.16636" cy="164.83575" r="22.86974" gradientUnits="userSpaceOnUse" id="color-3"><stop offset="0" stop-color="#4dc7ff"/><stop offset="1" stop-color="#4dc7ff" stop-opacity="0"/></radialGradient><radialGradient cx="228.25" cy="165.5" r="30.18806" gradientUnits="userSpaceOnUse" id="color-4"><stop offset="0" stop-color="#4dc7ff"/><stop offset="1" stop-color="#4dc7ff" stop-opacity="0"/></radialGradient><radialGradient cx="264.91636" cy="167.08575" r="22.86974" gradientUnits="userSpaceOnUse" id="color-5"><stop offset="0" stop-color="#4dc7ff"/><stop offset="1" stop-color="#4dc7ff" stop-opacity="0"/></radialGradient><radialGradient cx="224.16636" cy="213.08575" r="22.86974" gradientUnits="userSpaceOnUse" id="color-6"><stop offset="0" stop-color="#4dc7ff"/><stop offset="1" stop-color="#4dc7ff" stop-opacity="0"/></radialGradient><radialGradient cx="241.5" cy="191.125" r="30.125" gradientUnits="userSpaceOnUse" id="color-7"><stop offset="0" stop-color="#4dc7ff"/><stop offset="1" stop-color="#4dc7ff" stop-opacity="0"/></radialGradient></defs><g transform="translate(-196.86872,-141.15724)"><g data-paper-data="{&quot;isPaintingLayer&quot;:true}" fill-rule="nonzero" stroke="none" stroke-width="0" stroke-linecap="butt" stroke-linejoin="miter" stroke-miterlimit="10" stroke-dasharray="" stroke-dashoffset="0" style="mix-blend-mode: normal"><path d="M256,219.59276c-16.6724,0 -30.18806,-10.89863 -30.18806,-24.34276c0,-13.44414 13.51565,-24.34276 30.18806,-24.34276c16.6724,0 30.18806,10.89863 30.18806,24.34276c0,13.44414 -13.51565,24.34276 -30.18806,24.34276z" fill="url(#color-1)"/><path d="M219.73846,206.42851c-12.63061,0 -22.86974,-9.36361 -22.86974,-20.9142c0,-11.55059 10.23913,-20.9142 22.86974,-20.9142c12.63061,0 22.86974,9.36361 22.86974,20.9142c0,11.55059 -10.23913,20.9142 -22.86974,20.9142z" fill="url(#color-2)"/><path d="M247.16636,185.74995c-12.63061,0 -22.86974,-9.36361 -22.86974,-20.9142c0,-11.55059 10.23913,-20.9142 22.86974,-20.9142c12.63061,0 22.86974,9.36361 22.86974,20.9142c0,11.55059 -10.23913,20.9142 -22.86974,20.9142z" fill="url(#color-3)"/><path d="M228.25,189.84276c-16.6724,0 -30.18806,-10.89863 -30.18806,-24.34276c0,-13.44414 13.51565,-24.34276 30.18806,-24.34276c16.6724,0 30.18806,10.89863 30.18806,24.34276c0,13.44414 -13.51565,24.34276 -30.18806,24.34276z" fill="url(#color-4)"/><path d="M264.91636,187.99995c-12.63061,0 -22.86974,-9.36361 -22.86974,-20.9142c0,-11.55059 10.23913,-20.9142 22.86974,-20.9142c12.63061,0 22.86974,9.36361 22.86974,20.9142c0,11.55059 -10.23913,20.9142 -22.86974,20.9142z" fill="url(#color-5)"/><path d="M224.16636,233.99995c-12.63061,0 -22.86974,-9.36361 -22.86974,-20.9142c0,-11.55059 10.23913,-20.9142 22.86974,-20.9142c12.63061,0 22.86974,9.36361 22.86974,20.9142c0,11.55059 -10.23913,20.9142 -22.86974,20.9142z" fill="url(#color-6)"/><path d="M267.125,191.125c0,16.63758 -11.4727,30.125 -25.625,30.125c-14.1523,0 -25.625,-13.48742 -25.625,-30.125c0,-16.63758 11.4727,-30.125 25.625,-30.125c14.1523,0 25.625,13.48742 25.625,30.125z" fill="url(#color-7)"/></g></g></svg>