<svg version="1.1" xmlns="http://www.w3.org/2000/svg" xmlns:xlink="http://www.w3.org/1999/xlink" width="170.70577" height="240.55834" viewBox="0,0,170.70577,240.55834"><g transform="translate(-154.64711,-72.7811)"><g data-paper-data="{&quot;isPaintingLayer&quot;:true}" fill-rule="nonzero" stroke="none" stroke-linecap="butt" stroke-linejoin="miter" stroke-miterlimit="10" stroke-dasharray="" stroke-dashoffset="0" style="mix-blend-mode: normal"><path d="M210.83659,313.33943c0,0 0,0 0.00001,0c-0.00001,0.00001 -0.00001,0.00001 -0.00001,0.00001z" fill="#eaeaea" stroke-width="0"/><path d="M259.73469,158.71807c-0.00793,-0.21215 -1.39574,-7.20744 -6.25769,-12.02769c-7.93385,-7.86579 -20.9029,-14.99889 -20.9029,-14.99889c0,0 26.38779,6.1357 31.11247,14.83397c4.78193,8.80368 9.70839,19.43471 10.17337,23.51288c0.35914,3.1498 2.05472,19.70971 -1.56877,32.89355c-1.85048,6.73286 -14.56032,34.8308 -32.70964,42.22805c-12.53033,5.10707 -34.74128,14.25014 -46.88616,13.64923c-15.37325,-0.76065 -37.949,-25.3822 -38.0404,-25.28916c-0.5944,0.6051 32.73492,-0.74898 32.73492,-0.74898l-23.80895,-19.59338c0,0 10.41486,4.36345 20.14291,5.13716c6.91511,0.54998 14.09665,-2.34983 14.18603,-2.56685c0,0 27.92537,-2.97842 36.73599,-7.38899c6.08764,-3.04745 11.62848,-7.97507 14.10928,-11.33151c0,0 5.59274,-5.60065 8.22764,-13.70606c2.91657,-8.97187 2.89759,-20.70664 2.7519,-24.60332z" data-paper-data="{&quot;index&quot;:null}" fill="#ff6666" stroke-width="0"/><path d="M272.97829,152.0528c-0.00793,-0.21215 -1.39574,-7.20744 -6.25769,-12.02769c-7.93385,-7.86579 -20.9029,-14.99889 -20.9029,-14.99889c0,0 26.38779,6.1357 31.11247,14.83397c4.78193,8.80368 9.70839,19.43471 10.17337,23.51288c0.35914,3.1498 2.05472,19.70971 -1.56877,32.89355c-1.77112,6.44414 -2.70649,20.84226 -12.00572,29.63736c-15.61543,14.76889 -42.02738,23.51731 -42.19546,23.68841c-0.5944,0.6051 -0.64961,-22.72937 -0.8108,-22.80733c-8.10986,-3.92263 -1.38156,-17.86327 -1.02815,-18.72134c0,0 9.58421,-1.95947 18.39483,-6.37004c6.08764,-3.04745 11.62847,-7.97507 14.10927,-11.33151c0,0 5.59274,-5.60065 8.22764,-13.70606c2.91657,-8.97187 2.89759,-20.70663 2.7519,-24.60332z" data-paper-data="{&quot;index&quot;:null}" fill="#ff6666" stroke-width="0"/><path d="M273.04077,144.12946c-0.00793,-0.21215 -1.39574,-7.20744 -6.25769,-12.02769c-7.93385,-7.86579 -20.9029,-14.99889 -20.9029,-14.99889c0,0 26.38779,6.1357 31.11247,14.83397c4.78193,8.80368 9.70839,19.43471 10.17337,23.51288c0.35914,3.1498 2.05472,19.70971 -1.56877,32.89355c-4.74523,17.26525 -15.21277,31.65475 -15.48095,31.92775c-0.61206,0.62307 -23.82489,2.82205 -29.41218,0.11954c-8.10986,-3.92263 -41.43539,-2.00527 -41.08198,-2.86334c0,0 18.75021,-6.01728 35.40989,-18.04726c16.76805,-12.10824 31.45605,-30.24292 34.50152,-34.36335c0,0 3.78453,-13.57012 3.50722,-20.98717z" data-paper-data="{&quot;index&quot;:null}" fill="#ff6666" stroke-width="0"/><path d="M270.33718,134.51065c-0.09418,-2.51909 0.34472,-5.72594 0.06828,-9.31136c-0.53748,-6.97127 -3.92838,-15.44834 -3.92838,-15.44834c0,0 17.52037,21.81227 17.98535,25.89044c0.28121,2.46636 2.08931,6.04898 2.54224,9.72626c0.88301,7.16913 0.42043,14.69798 0.10781,15.01621c-0.61206,0.62307 -20.01804,0.6139 -25.60533,-2.08861c-8.10986,-3.92263 -21.08133,-0.20141 -20.72792,-1.05948c0,0 8.43134,0.0229 14.50259,-8.19132c0,0 3.29717,-3.17841 6.56081,-4.71855c4.0846,-1.92755 8.6487,-5.6924 8.49455,-9.81525z" data-paper-data="{&quot;index&quot;:null}" fill="#ff6666" stroke-width="0"/><path d="M276.22985,133.01567c-0.07938,-1.73839 -0.15991,-3.47673 -0.24161,-5.21506c-0.71455,-1.54952 -1.40982,-3.12122 -2.09735,-4.69106c-0.29144,0.38438 -0.69151,0.68186 -1.15449,0.84674c1.15631,3.02311 2.32274,6.04197 3.49345,9.05938zM269.84783,140.08373c-0.00837,0.04386 -0.01725,0.08755 -0.02661,0.13108l0.02936,0.00016l-0.00986,1.84046c0.51336,0.45786 0.83661,1.12436 0.83661,1.86635c0,0.29691 -0.05176,0.58173 -0.14675,0.84593l-0.70532,2.11596c0.10768,3.93864 0.20715,9.35817 1.7734,12.99617c0.58725,1.36403 1.78203,2.37622 2.66025,3.57378c1.88611,2.57194 3.29067,5.55159 5.57861,7.77366c0.67992,0.66034 1.45366,1.28933 2.28348,1.89029c0.0665,-3.16287 -0.72455,-6.52407 0.50396,-9.41833v-4.06988c0,-1.38071 1.11929,-2.5 2.5,-2.5c0.25993,0 0.5106,0.03967 0.74628,0.11329c-0.5056,-3.10377 -1.1257,-6.19339 -1.65275,-9.29146c-0.39806,0.57358 -1.10492,1.10215 -2.34059,0.92562c-0.02017,-0.00288 -0.04015,-0.0059 -0.05995,-0.00906l0.0173,1.42902c0.00016,0.01175 0.00024,0.02352 0.00024,0.0353c0,1.38071 -1.11929,2.5 -2.5,2.5c-1.29329,0 -2.35721,-0.98203 -2.48676,-2.24109l-0.40725,-3.48556l0.11362,-0.01328c-2.68138,-5.63468 -4.93267,-11.50478 -7.09914,-17.38834c0.0228,2.64848 0.07246,5.29365 0.17912,7.95344l0.01814,0.45339c0.11536,1.15895 0.19547,1.96854 0.1946,1.97311zM284.70686,101.58595c0.25495,0.38258 0.50187,0.76977 0.74182,1.16094c0.71753,1.10748 1.42901,2.26059 2.21627,3.48516c3.14478,4.89168 7.20972,9.46677 9.98505,14.57807c1.11967,2.06209 1.37166,3.98336 2.2065,6.08675c1.72745,4.35228 4.26125,8.66268 6.58034,12.73234c0.76916,2.53866 2.07471,4.91664 2.63163,7.51014c0.22326,1.03971 -0.04169,2.12989 0.04254,3.18996c0.01905,0.23976 0.04352,0.47871 0.07261,0.71695c0.3373,1.21752 0.5954,2.45863 0.74389,3.73072c0.00532,0.04554 0.0106,0.09112 0.01586,0.13675c0.31223,1.31882 0.62962,2.63155 0.80542,3.95553c0.4922,3.70678 0.24829,7.66148 0.43536,11.4035c0.30901,6.18113 1.42128,13.33649 0.38902,19.48135c-0.62913,3.74508 -2.11456,7.53507 -3.97914,11.22094c-0.0443,0.39853 -0.09611,0.79817 -0.15734,1.19904c-0.11103,0.727 -0.71675,5.39532 -1.00542,5.98996c-1.4071,2.89853 -4.02347,4.52677 -6.77246,6.00487c-0.2328,0.35978 -0.46273,0.71583 -0.6891,1.06792c-5.35195,7.72203 -14.00008,15.27209 -22.10067,20.13441c-3.56537,2.14009 -7.52032,3.67224 -10.98473,6.08862c-12.64218,8.81777 -27.17779,16.01258 -41.43353,21.89093c-10.1847,0.12314 -20.84971,0.33317 -30.96876,-0.79266c-4.07987,-0.45392 -8.20889,-0.05818 -11.80364,-2.44395c-3.34199,-2.21803 -3.35072,-4.70678 -5.02225,-8.01487l-1.21758,-2.43516c-0.18291,-0.34741 -0.28642,-0.74312 -0.28642,-1.16302c0,-1.38071 1.11929,-2.5 2.5,-2.5c0.61475,0 1.17768,0.22189 1.61307,0.58995l2.37504,1.9792c3.05449,1.39027 4.80363,3.50897 8.36228,4.07106c7.36269,1.16294 15.05331,1.57823 22.74832,1.53515c0.19328,-0.30015 0.44906,-0.55626 0.74894,-0.74993l3.68795,-2.45863l0.02298,0.03447c0.09816,-0.07411 0.19796,-0.14633 0.29954,-0.21651c1.47253,-1.01737 3.42205,-1.05031 5.135,-1.56914c0.65318,-0.19784 1.3067,-0.39458 1.96051,-0.59033c0.099,-0.15668 0.20299,-0.31725 0.3121,-0.48181c1.13519,-1.71216 3.54648,-2.08952 5.41661,-2.93969c5.1057,-2.32108 9.79387,-3.50221 15.34865,-3.65199l4.22506,-0.08887c1.03842,-0.62949 2.09167,-1.21666 3.08267,-1.81271c2.04131,-1.22778 4.11146,-2.42784 6.18822,-3.62446c-0.075,-0.23768 -0.11545,-0.49071 -0.11545,-0.75318c0,-0.77872 0.35604,-1.47428 0.91421,-1.93278l2.40028,-2.00023c1.46738,-1.46417 3.18322,-2.82833 4.93093,-4.19487l0.11792,-0.4127l0.04403,0.01258c0.02319,-0.11822 0.04997,-0.23602 0.08072,-0.35333c0.45307,-1.72895 1.90713,-3.02341 2.86607,-4.53171c1.7884,-2.81296 3.59108,-5.61681 5.38662,-8.42522c1.84069,-2.87902 3.64198,-5.78089 5.4393,-8.68381c-0.42487,-0.44812 -0.6855,-1.05351 -0.6855,-1.71977c0,-0.0508 0.00151,-0.10124 0.0045,-0.15128c0.3507,-6.66335 0.92758,-17.6241 1.27829,-24.28745c-2.4403,-1.66393 -5.39102,-3.68586 -5.48696,-3.77904c-0.19063,-0.18515 -5.84479,-8.00825 -6.14585,-8.42934c-1.07508,-1.50373 -2.47101,-2.82987 -3.20198,-4.52772c-0.64325,-1.4941 -1.08543,-3.19236 -1.39187,-4.97132c-0.34601,0.18101 -0.73965,0.28337 -1.1572,0.28337c-1.38071,0 -2.5,-1.11929 -2.5,-2.5v-3.30686c-0.59752,-1.10576 0.21332,-2.52762 0.0265,-3.77054c-0.65931,-4.38641 -2.6347,-9.3649 -4.02925,-13.61905c-1.62448,-4.95557 -5.22955,-9.69325 -7.71818,-14.25311c-3.6009,-6.59786 -6.40889,-13.59467 -10.59186,-19.87729c-2.46125,-3.69668 -5.74668,-6.58252 -8.20704,-10.248c-0.66803,-1.44732 -2.88687,-3.01468 -2.00408,-4.34196c1.36428,-2.05121 4.43236,-2.22209 6.80669,-2.87883c2.94212,-0.81378 8.51012,-0.8832 11.60164,0.05202c2.17397,0.65765 4.05361,2.05147 6.10854,3.0189c0.58681,0.27626 1.19088,0.5522 1.80465,0.8315c0.89228,-0.55151 2.58474,-1.01448 5.4418,-1.48355c1.47994,-0.24297 2.8674,0.89103 4.25988,1.44805c5.69249,2.27711 10.34461,5.84174 14.76603,10.0177c1.2819,1.21073 2.32215,2.41094 3.25397,3.64268c0.42457,0.53174 0.83486,1.09158 1.23046,1.68521zM290.0897,152.10701c-0.00411,0.00145 -0.00821,0.00288 -0.01233,0.00431c0.09021,0.49826 0.17948,0.99664 0.26715,1.4952c-0.01131,-0.21439 -0.02285,-0.42836 -0.03472,-0.64194c-0.07225,-0.28631 -0.14564,-0.57215 -0.2201,-0.85757zM259.80239,126.87332c-0.11277,-0.784 -0.22654,-1.56827 -0.34052,-2.35313c-0.11513,-0.09377 -0.23379,-0.19639 -0.35545,-0.30687c-0.13104,0.19908 -0.28977,0.37832 -0.4707,0.53225c0.18818,0.33551 0.3754,0.67074 0.56145,1.00569c0.20814,0.37472 0.40971,0.74864 0.60522,1.12206zM183.43789,255.5152c1.49544,1.64429 4.77336,1.8758 7.49148,1.95191c-2.7263,-0.26606 -5.04508,-0.78525 -7.49148,-1.95191z" fill="#ff6666" stroke-width="0.5"/><path d="M233.61428,264.31045c-0.92848,-2.32119 1.39272,-3.24967 1.39272,-3.24967l2.38892,-0.93088c2.14909,-0.53159 4.14052,-1.62091 6.30403,-2.09037c0.94256,-0.20453 1.94909,0.19584 2.8935,0c4.30323,-0.89234 8.74541,-3.92886 12.56374,-5.96266c3.61383,-1.92488 7.45672,-3.07091 11.01214,-5.08084c14.13755,-3.21618 26.5217,-10.06969 36.2408,-20.83006c2.08811,-2.31183 5.13848,-3.96676 6.75834,-6.66609c3.3749,-5.62394 5.36923,-10.27073 5.8335,-16.9705c-0.00304,-5.3599 0.96291,-10.38711 1.24064,-15.72235c0.28977,-5.56646 -0.06885,-11.15521 -0.41069,-16.6884c-0.47909,-7.75487 -0.27441,-15.66563 -1.22443,-23.39738c-0.96931,-7.88877 -3.34277,-15.52892 -6.04736,-22.96564c-3.67989,-8.69103 -7.96294,-18.4281 -14.74768,-25.20107c-3.96302,-3.95615 -8.73689,-6.76761 -13.52896,-9.51374c-6.1365,-3.51657 -11.60134,-8.05022 -17.75988,-11.56566c0,0 -2.17061,-1.24035 -0.93026,-3.41096c1.24035,-2.17061 3.41096,-0.93026 3.41096,-0.93026c6.16523,3.52653 11.63608,8.07696 17.78882,11.58233c5.18186,2.95223 10.31158,6.05318 14.57932,10.32739c7.27255,7.28358 11.88249,17.54053 15.84074,26.88191c2.84398,7.82185 5.33538,15.8598 6.35335,24.15706c0.962,7.84105 0.75839,15.8631 1.25572,23.72532c0.36062,5.701 0.72085,11.47284 0.41603,17.20688c-0.28365,5.33565 -1.23665,10.34216 -1.2395,15.69279c-0.54607,7.44993 -2.65743,13.18126 -6.56721,19.40492c-1.90275,3.02883 -4.95633,4.77847 -7.2958,7.38805c-10.06376,11.22565 -23.38988,18.96107 -38.16346,22.15907c-2.67341,1.54541 -5.32838,2.36793 -8.11676,3.65635c-5.29788,2.44799 -10.46614,6.34603 -16.25677,7.62143c-0.94192,0.20746 -1.94983,-0.19939 -2.8935,0c-2.09702,0.44308 -4.01852,1.51877 -6.09668,2.0432l-1.74465,0.72255c0,0 -2.32119,0.92848 -3.24967,-1.39272z" fill="#ff6666" stroke-width="0.5"/></g></g></svg>