<svg version="1.1" xmlns="http://www.w3.org/2000/svg" xmlns:xlink="http://www.w3.org/1999/xlink" width="135.4951" height="131" viewBox="0,0,135.4951,131"><defs><radialGradient cx="239.94924" cy="180.00002" r="49.71413" gradientUnits="userSpaceOnUse" id="color-1"><stop offset="0" stop-color="#ff6e00"/><stop offset="1" stop-color="#ff6e00" stop-opacity="0"/></radialGradient><radialGradient cx="240" cy="180" r="67.74755" gradientUnits="userSpaceOnUse" id="color-2"><stop offset="0" stop-color="#ff8108"/><stop offset="1" stop-color="#ff8108" stop-opacity="0"/></radialGradient><radialGradient cx="240" cy="180" r="19" gradientUnits="userSpaceOnUse" id="color-3"><stop offset="0" stop-color="#ffdf08"/><stop offset="1" stop-color="#ffdf08" stop-opacity="0"/></radialGradient></defs><g transform="translate(-172.25245,-114.5)"><g data-paper-data="{&quot;isPaintingLayer&quot;:true}" fill-rule="nonzero" stroke="none" stroke-linecap="butt" stroke-linejoin="miter" stroke-miterlimit="10" stroke-dasharray="" stroke-dashoffset="0" style="mix-blend-mode: normal"><path d="M279.85978,200.1026c0,0 -20.24805,-7.5392 -30.8091,-2.98245c-11.75221,5.0707 -31.68702,27.16738 -31.68702,27.16738c0,0 1.69179,-20.40753 2.5092,-38.20463c0.3386,-7.37241 -19.73264,-26.38456 -19.73264,-26.38456c0,0 23.72053,-3.24385 40.65926,-3.65182c6.69955,-0.16137 21.73535,-20.33404 21.73535,-20.33404c0,0 -5.25917,21.65032 -1.75635,32.12262c4.12367,12.32846 19.08128,32.26753 19.08128,32.26753z" fill="url(#color-1)" stroke-width="0"/><path d="M240,245.5c-37.41594,0 -67.74755,-29.32535 -67.74755,-65.5c0,-36.17465 30.33161,-65.5 67.74755,-65.5c37.41594,0 67.74755,29.32535 67.74755,65.5c0,36.17465 -30.33161,65.5 -67.74755,65.5z" fill="url(#color-2)" stroke-width="0"/><path d="M240,198.70466c-10.4934,0 -19,-8.37437 -19,-18.70466c0,-10.3303 8.5066,-18.70466 19,-18.70466c10.4934,0 19,8.37437 19,18.70466c0,4.03641 -1.29874,7.77421 -3.50727,10.83049c-0.15271,-0.69151 -0.23462,-1.36164 -0.23462,-1.97516c0,0 0,-0.39378 -0.39378,-0.39378c-0.39378,0 -0.39378,0.39378 -0.39378,0.39378c0,0.87669 0.14759,1.81994 0.41535,2.76953c-3.48061,4.31373 -8.85513,7.0798 -14.88589,7.0798z" fill="url(#color-3)" stroke-width="0"/><path d="M224.27975,185.2457c0.1407,-0.0127 0.3104,0.0068 0.4637,0.1191c0.1866,0.0504 0.3588,0.0992 0.51,0.1408c0.1911,1.5823 0.0767,1.8294 -0.8683,2.9157c0.0372,0.1365 0.0649,0.2787 0.0831,0.4283c0.145,0.1591 0.349,0.3269 0.4161,0.4966c0.2515,0.6359 0.3108,1.4443 0.1222,2.1539c-0.0097,0 -0.0196,0 -0.0296,0.0001c-1.4264,-0.496 -2.0553,-1.7487 -2.8096,-2.656c0.3958,-0.864 0.474,-2.2875 1.0243,-2.9473c0.2029,-0.26 0.3527,-0.5221 0.4558,-0.7843c0.2152,0.0377 0.4282,0.084 0.6323,0.1331z" fill="#000000" stroke-width="0.5"/><path d="M227.62415,199.3683c-1.5879,1.8232 -3.0601,1.0595 -4.0874,-0.5265c0.3471,-1.0095 0.988,-1.6714 1.5391,-2.6904c0.7882,0.9061 1.4634,2.208 2.8843,2.6968c-0.0893,0.1894 -0.2009,0.365 -0.336,0.5201z" fill="#000000" stroke-width="0.5"/><path d="M211.95775,180.4031c-0.3182,-0.8953 -0.3952,-1.8192 0.4383,-2.4725c0.6595,-0.5168 1.092,0.2588 1.5017,0.7851c0.28,-0.0984 0.5192,-0.075 0.7236,0.0327c0.0218,-0.0801 0.0538,-0.1489 0.1156,-0.1774c0.3868,-0.1781 0.8836,-0.2035 1.3983,-0.1541c-0.0832,0.1818 -0.1946,0.3643 -0.3376,0.5471c-0.5454,0.7319 -0.6396,1.9254 -1.003,2.8533c-0.5932,-0.5587 -1.3296,-0.8432 -2.5618,-0.4325c0,0 -0.1137,0.0379 -0.1574,0.1399c-0.0126,0.0013 -0.0252,0.0025 -0.0378,0.0039c-0.0572,-0.3973 -0.0848,-0.7779 -0.0799,-1.1255z" fill="#000000" stroke-width="0.5"/><path d="M217.71085,190.7746c-0.5003,0.9915 -1.0942,1.6564 -1.4894,2.5298c-0.4511,-0.847 -0.7887,-1.8433 -0.975,-2.7865c0.1448,-0.0125 0.2913,-0.0209 0.4404,-0.0209h0.25c0,0 0.25,0 0.25,-0.25c0,-0.0109 -0.0004,-0.0213 -0.0014,-0.0313c0.6361,-0.051 1.1102,0.1837 1.5254,0.5589z" fill="#000000" stroke-width="0.5"/><path d="M255.79905,163.4585c-0.3691,0.123 -0.6105,-0.0092 -0.7575,-0.165c-0.4009,-0.0637 -0.6883,-0.3626 -0.9774,-0.6521c-0.0018,-0.0468 -0.0025,-0.095 -0.0023,-0.1444c0,-0.7499 -0.3059,-2.5737 -1.3927,-2.6244c-0.6688,-0.0312 -1.4686,1.4853 -2.494,2.1105c-0.0112,-0.0683 -0.0276,-0.1316 -0.0516,-0.1883c-0.2289,-0.5418 -0.4969,-0.9566 -0.8025,-1.2739c0.1687,-0.2585 0.2846,-0.5094 0.228,-0.728c-0.2641,-1.0199 -1.9764,-1.4209 -0.1122,-1.4209c0.8468,-0.0829 1.1421,-1.3905 1.1167,-2.533c1.9231,-0.0996 4.6846,1.583 5.909,2.6599c0.1821,0.8711 0.55,3.1053 -0.1553,4.1894c0.021,0.2269 -0.0235,0.6086 -0.5082,0.7702z" fill="#000000" stroke-width="0.5"/><path d="M247.51525,163.2455c-0.0687,-0.0288 -0.2376,0.1305 -0.4673,0.3624c-0.0582,0.1794 -0.1542,0.3107 -0.3348,0.3378c-0.5459,0.541 -1.2632,1.1668 -1.8479,0.9788c-0.5657,-0.1819 -0.5539,-0.7516 -0.5451,-1.2775c1.717,-0.7935 3.2706,-3.2584 3.3624,-0.3145c-0.0538,-0.0333 -0.1094,-0.0627 -0.1673,-0.087z" fill="#000000" stroke-width="0.5"/><path d="M231.31185,161.497c0,0 -0.6416,0 -0.7379,-0.5936c-0.2308,-0.1278 -0.3871,-0.3739 -0.3871,-0.6564c0,-0.2434 0.116,-0.4598 0.2957,-0.5968l1.1189,-0.8702l0.0099,0.0127c0.0228,-0.0225 0.046,-0.0448 0.0695,-0.0667c0.427,-0.399 2.2005,-0.8074 3.4739,-0.676c0.1461,-0.0452 0.294,-0.0862 0.4443,-0.1217c-0.0097,0.9648 -0.1679,2.0599 -0.5372,1.9437c-0.2482,0 -1.1868,-0.1338 -1.3376,0.1185c-0.3682,0.6162 0.7316,1.6909 0.9755,1.9605c0.0021,0.0024 -0.0496,0.0943 -0.1291,0.2407c-0.8529,-0.6258 -1.9467,-0.6947 -3.2588,-0.6947z" fill="#000000" stroke-width="0.5"/><path d="M246.89195,198.1041c-0.2036,-0.3047 -0.3379,-0.6611 -0.4491,-1.036c0.2071,-0.1815 0.3296,-0.4253 0.4034,-0.7004c0.0046,-0.0181 0.0092,-0.0363 0.0138,-0.0544c0.1978,-0.8175 -0.0041,-1.8854 0.2906,-2.4202c0.3777,-0.6856 0.8761,-1.2771 1.4137,-1.678c0.4666,1.6879 1.5346,3.414 2.8219,4.3386c-0.2686,0.0274 -0.5553,0.0906 -0.8644,0.1965c-1.8429,-0.0129 -2.3311,0.8302 -3.126,1.9829c-0.1742,-0.1798 -0.3414,-0.386 -0.5038,-0.629z" fill="#000000" stroke-width="0.5"/><path d="M258.20525,202.1325l-0.0929,0.0549l0.0352,0.0281l-0.4957,0.6196c-0.0699,0.0889 -0.1594,0.1616 -0.262,0.2116c-0.6073,0.6676 -1.3391,1.237 -2.122,1.6217c-0.2845,-0.1479 -0.5183,-0.254 -0.6619,-0.3033c-0.5884,-0.2859 -1.0921,-0.5308 -1.5442,-0.8836c0.6715,-0.9757 1.0163,-1.8522 2.7902,-1.8628c0.6904,-0.2246 1.2609,-0.2262 1.7671,-0.0889c0.2068,0.1276 0.4323,0.2702 0.6637,0.4237c-0.0259,0.0593 -0.0517,0.119 -0.0775,0.179z" fill="#000000" stroke-width="0.5"/><path d="M240.50245,205.8695c-0.6573,-0.0931 -1.2585,-0.2632 -1.7198,-0.4908l-0.0446,-0.0707l-0.0197,0.0246l-0.6196,-0.4956c-0.1747,-0.1374 -0.2869,-0.3506 -0.2869,-0.59c0,-0.4142 0.3358,-0.75 0.75,-0.75c0.0469,0 0.0928,0.0043 0.1373,0.0125l0.1046,0.0175c0.0011,-0.0718 0.0125,-0.1503 0.037,-0.236c0.206,-0.7212 0.9272,-0.5151 0.9272,-0.5151c0.3919,0.1125 0.7845,0.5147 1.1653,0.3907c0.0654,0.2433 0.1321,0.4643 0.2094,0.6426c0.2169,0.5003 0.5029,0.8889 0.8372,1.2109c-0.0835,0.1143 -0.1713,0.2308 -0.2649,0.349c-0.2172,0.2742 -0.5255,0.5205 -0.8309,0.7762c-0.1294,-0.0819 -0.2567,-0.1737 -0.3816,-0.2758z" fill="#000000" stroke-width="0.5"/><path d="M250.91225,207.5761c0.0895,0.0309 0.1769,0.0622 0.2622,0.0939c-0.9876,0.3529 -2.025,0.3941 -2.9759,-0.037c0.1496,-0.1223 0.2869,-0.2284 0.3877,-0.3105c0.2769,-0.2258 0.4978,-0.4622 0.6866,-0.6987c0.4918,0.3682 1.0547,0.65 1.6394,0.9523z" fill="#000000" stroke-width="0.5"/><path d="M222.10385,170.5085c-0.6422,-0.4288 -1.2321,-0.7716 -1.5283,-0.9696c-0.2081,-0.1279 -0.4096,-0.2834 -0.6028,-0.4612c0.476,-0.6231 0.8846,-1.315 1.2445,-2.0424c0.6336,0.3715 1.2546,0.762 1.8607,1.1556c-0.2602,0.742 -0.6116,1.5028 -0.9741,2.3176z" fill="#000000" stroke-width="0.5"/><path d="M267.03565,188.4627c0.0695,0.0303 0.1391,0.0627 0.2089,0.0974c0.3503,0.1732 0.6578,0.3719 0.932,0.5907c0.1623,0.8705 0.0585,1.7019 -0.1895,2.5477c-0.5885,-0.3803 -1.1906,-0.7565 -1.8041,-1.1152c0.318,-0.691 0.5971,-1.4069 0.8527,-2.1206z" fill="#000000" stroke-width="0.5"/><path d="M259.74865,195.5979c-0.7978,-0.8899 -1.4182,-2.1456 -1.7252,-3.3355c0.9853,0.3848 1.9521,0.8691 2.8928,1.4023c-0.3378,0.6893 -0.7208,1.3445 -1.1676,1.9332z" fill="#000000" stroke-width="0.5"/><path d="M259.94755,168.2134c0.002,-0.0021 0.004,-0.0041 0.0059,-0.0061l-0.3124,-0.6249l0.3287,-0.1644c0.0016,-0.0726 0.0042,-0.1453 0.0076,-0.2179c0.7293,-0.1247 1.4645,-0.1355 2.2151,0.0906c-0.2444,0.6884 -0.51,1.3797 -0.8128,2.0464c-0.8237,-0.4655 -1.667,-0.894 -2.5251,-1.2534c0.3787,-0.0841 0.7517,-0.0511 1.093,0.1297z" fill="#000000" stroke-width="0.5"/><path d="M256.83765,183.9434c0.0036,-0.0101 0.0072,-0.0203 0.0108,-0.0304c-0.028,-0.694 -0.0297,-1.3016 -0.0269,-1.6612l0.0702,-0.1032l-0.0414,-0.0138l0.2445,-0.7336c0.0943,-0.3064 0.3796,-0.5292 0.717,-0.5292c0.2994,0 0.5579,0.1754 0.6781,0.4291l0.3677,0.7355l-0.0206,0.0103c0.0291,0.0493 0.0558,0.1002 0.0798,0.1528c0.02,0.044 0.0374,0.0874 0.0523,0.13c0.1027,-0.0529 0.2192,-0.0827 0.3427,-0.0827c0.0927,0 0.1814,0.0168 0.2633,0.0475c-0.1916,0.5728 -0.386,1.1718 -0.5943,1.7779c-0.7351,-0.2198 -1.4445,-0.2286 -2.1432,-0.129z" fill="#000000" stroke-width="0.5"/><path d="M265.91005,183.5476l0.328,1.0933c-0.2971,-0.242 -0.6336,-0.4621 -1.022,-0.654c-0.0886,-0.0435 -0.1769,-0.0836 -0.2647,-0.1205c0.1856,-0.5369 0.3597,-1.0691 0.5289,-1.585c0.0361,0.0707 0.0614,0.148 0.0734,0.2295l0.1095,0.6567c0.1177,0.0969 0.2054,0.2289 0.2469,0.38z" fill="#000000" stroke-width="0.5"/><path d="M258.89985,186.4291l0.1176,0.1497c-0.0443,0.0068 -0.0884,0.014 -0.1326,0.0215c0.0049,-0.0574 0.0099,-0.1145 0.015,-0.1712z" fill="#000000" stroke-width="0.5"/><path d="M228.38535,171.8689c-0.6955,0.0827 -0.8133,-0.6236 -0.8133,-0.6236c0.0015,-0.4287 -0.4178,-3.2508 1.7656,-1.6323c0.5385,0.3992 0.2986,1.3071 0.448,1.9606l-1.3488,0.2984c0,0 -0.0192,0 -0.0515,-0.0031z" fill="#000000" stroke-width="0.5"/><path d="M256.69295,177.1744c-0.0859,-0.1126 -0.1597,-0.2668 -0.1458,-0.4568c0.0008,-0.1905 0.0861,-0.3386 0.1804,-0.4443c0.1189,-0.1583 0.2557,-0.2357 0.3884,-0.2669l0.597,-0.2985c0.1043,-0.0549 0.223,-0.0859 0.3489,-0.0859c0.4143,0 0.75,0.3358 0.75,0.75c0,0.0468 -0.0043,0.0927 -0.0125,0.1372l-0.1227,0.7361l-0.82,0.0678l-0.2093,0.1047c0,0 -0.6064,0.3032 -0.9544,-0.2434z" fill="#000000" stroke-width="0.5"/><path d="M235.01655,193.6433c0.0349,-0.0584 0.0809,-0.1175 0.14,-0.1767c0.5303,-0.5303 1.0607,0 1.0607,0l0.4382,1.616c-1.4055,1.0691 -2.2221,1.1411 -2.5936,-0.7106c0,0 0,-0.75 0.75,-0.75c0.0756,0 0.1436,0.0076 0.2047,0.0213z" fill="#000000" stroke-width="0.5"/></g></g></svg>