<svg version="1.1" xmlns="http://www.w3.org/2000/svg" xmlns:xlink="http://www.w3.org/1999/xlink" width="80.79928" height="51.14939" viewBox="0,0,80.79928,51.14939"><defs><radialGradient cx="232.47094" cy="182.46607" r="31.60098" gradientUnits="userSpaceOnUse" id="color-1"><stop offset="0" stop-color="#9eff5d"/><stop offset="1" stop-color="#9eff5d" stop-opacity="0"/></radialGradient><linearGradient x1="249.3801" y1="180.10081" x2="252.2024" y2="180.91041" gradientUnits="userSpaceOnUse" id="color-2"><stop offset="0" stop-color="#13a900" stop-opacity="0"/><stop offset="1" stop-color="#13a900"/></linearGradient><linearGradient x1="249.0078" y1="181.44511" x2="252.2817" y2="182.38431" gradientUnits="userSpaceOnUse" id="color-3"><stop offset="0" stop-color="#13a900" stop-opacity="0"/><stop offset="1" stop-color="#13a900"/></linearGradient><linearGradient x1="249.0053" y1="182.92691" x2="251.8277" y2="183.73651" gradientUnits="userSpaceOnUse" id="color-4"><stop offset="0" stop-color="#13a900" stop-opacity="0"/><stop offset="1" stop-color="#13a900"/></linearGradient><linearGradient x1="245.2426" y1="193.25801" x2="248.065" y2="194.06761" gradientUnits="userSpaceOnUse" id="color-5"><stop offset="0" stop-color="#13a900" stop-opacity="0"/><stop offset="1" stop-color="#13a900"/></linearGradient><linearGradient x1="244.8703" y1="194.60241" x2="248.1443" y2="195.54151" gradientUnits="userSpaceOnUse" id="color-6"><stop offset="0" stop-color="#13a900" stop-opacity="0"/><stop offset="1" stop-color="#13a900"/></linearGradient><linearGradient x1="244.8678" y1="196.08411" x2="247.6902" y2="196.89371" gradientUnits="userSpaceOnUse" id="color-7"><stop offset="0" stop-color="#13a900" stop-opacity="0"/><stop offset="1" stop-color="#13a900"/></linearGradient><radialGradient cx="245.59852" cy="183.75244" r="1.87961" gradientUnits="userSpaceOnUse" id="color-8"><stop offset="0" stop-color="#d7ffbc"/><stop offset="1" stop-color="#26ff00"/></radialGradient><radialGradient cx="243.03295" cy="190.92312" r="1.87961" gradientUnits="userSpaceOnUse" id="color-9"><stop offset="0" stop-color="#d7ffbc"/><stop offset="1" stop-color="#26ff00"/></radialGradient><radialGradient cx="238.2661" cy="184.80153" r="20.64482" gradientUnits="userSpaceOnUse" id="color-10"><stop offset="0" stop-color="#d7ffbc"/><stop offset="1" stop-color="#7af12b"/></radialGradient></defs><g transform="translate(-185.6242,-163.74061)"><g data-paper-data="{&quot;isPaintingLayer&quot;:true}" fill-rule="nonzero" stroke-linejoin="miter" stroke-miterlimit="10" stroke-dasharray="" stroke-dashoffset="0" style="mix-blend-mode: normal"><path d="M254.41181,183.69207c-0.67619,8.76716 -5.76417,15.99044 -23.16523,14.64834c-0.71239,-0.05495 -8.01148,2.17318 -8.01148,2.17318c0,0 1.34177,-6.47931 0.57855,-7.64812c-0.6641,-1.01701 -4.90206,1.02712 -4.90206,1.02712l-22.28986,-4.82252c0,0 11.57481,-1.16614 8.48886,-2.71829c-8.81344,-4.43294 -19.48639,-7.03261 -19.48639,-7.03261c0,0 15.00092,0.04531 19.29334,-1.82498c3.40711,-1.48456 -5.92427,-5.79636 -5.92427,-5.79636l25.93113,-3.56191c0,0 0.91713,3.56911 2.73307,3.18455c2.01686,-0.4271 4.1267,-7.57986 4.1267,-7.57986c0,0 5.56706,5.47815 7.19967,5.81492c12.47805,2.57395 16.02595,6.38377 15.42799,14.13656z" fill="url(#color-1)" stroke="#f3f3f3" stroke-width="0" stroke-linecap="butt"/><path d="M249.7311,184.97711c0,0 2.2813,1.4192 1.8386,2.2746c-0.4426,0.8553 -2.9339,1.9331 -2.9339,1.9331c0,0 1.5687,1.3644 1.3524,2.631c-0.2163,1.2666 -3.0235,0.891 -3.0235,0.891" fill="none" stroke="#009413" stroke-width="0.5" stroke-linecap="round"/><path d="M247.2685,189.97491c-0.4495,-0.129 -0.2215,-0.5886 -0.1033,-1.0007c0.1182,-0.412 0.3704,-1.2463 0.8199,-1.1173c0.4495,0.1289 0.8022,1.3646 0.8022,1.3646c0,0 -1.0693,0.8823 -1.5188,0.7534z" fill="#00ff15" stroke="#009413" stroke-width="0.5" stroke-linecap="butt"/><path d="M239.5211,175.97521l1.8552,-2.8717l1.0194,1.8397" fill="none" stroke="#009413" stroke-width="0.5" stroke-linecap="round"/><path d="M233.9574,195.73041l-2.3161,0.8828l1.5021,-3.7981" fill="none" stroke="#009413" stroke-width="0.5" stroke-linecap="round"/><path d="M233.8371,193.63291l0.7188,2.888" fill="none" stroke="#009413" stroke-width="0.5" stroke-linecap="round"/><path d="M243.2675,174.78061l-1.9482,0.6789" fill="none" stroke="#009413" stroke-width="0.5" stroke-linecap="round"/><path d="M249.5323,179.57001l2.5179,1.8711" fill="none" stroke="url(#color-2)" stroke-width="0.5" stroke-linecap="round"/><path d="M249.177,180.85541l2.9356,2.1186" fill="none" stroke="url(#color-3)" stroke-width="0.5" stroke-linecap="round"/><path d="M251.7093,184.14931l-2.5856,-1.6352" fill="none" stroke="url(#color-4)" stroke-width="0.5" stroke-linecap="round"/><path d="M245.3949,192.72731l2.5178,1.8711" fill="none" stroke="url(#color-5)" stroke-width="0.5" stroke-linecap="round"/><path d="M247.9751,196.13121l-2.9356,-2.1185" fill="none" stroke="url(#color-6)" stroke-width="0.5" stroke-linecap="round"/><path d="M244.9863,195.67141l2.5855,1.6351" fill="none" stroke="url(#color-7)" stroke-width="0.5" stroke-linecap="round"/><path d="M247.38792,183.80623c-0.15237,0.33243 -0.36359,0.99814 -0.9901,1.1366c-0.56761,0.12545 -1.53699,-0.24905 -1.98875,-0.45612c-0.48912,-0.22419 -1.447,-1.37472 -1.16705,-2.38626c0.27996,-1.01154 1.36128,-1.25441 2.08568,-0.933c0.45206,0.20057 2.17962,1.00157 2.3447,1.07725c0.95041,0.43563 0.00594,0.92793 -0.28448,1.56153z" data-paper-data="{&quot;index&quot;:null}" fill="#ffffff" stroke="#000000" stroke-width="0" stroke-linecap="butt"/><path d="M245.25262,184.50711c-0.94368,-0.43254 -1.5538,-1.12107 -1.36276,-1.53786c0.19104,-0.41679 1.1109,-0.40402 2.05458,0.02853c0.94368,0.43254 1.5538,1.12107 1.36276,1.53786c-0.19104,0.41679 -1.1109,0.40402 -2.05458,-0.02852z" fill="url(#color-8)" stroke="#000000" stroke-width="0" stroke-linecap="butt"/><path d="M246.8841,185.52461c0,0 0.2129,-1.1193 0.4726,-1.5724c0.2394,-0.4179 1.355,-1.3108 1.355,-1.3108" data-paper-data="{&quot;index&quot;:null}" fill="none" stroke="#009413" stroke-width="0.5" stroke-linecap="round"/><path d="M245.58941,183.96046c-0.66612,-0.30533 -1.16653,-0.63921 -1.1177,-0.74574c0.04884,-0.10654 0.62843,0.05461 1.29455,0.35995c0.66611,0.30532 1.16653,0.63921 1.1177,0.74574c-0.04884,0.10654 -0.62842,-0.05462 -1.29454,-0.35994z" fill="#000000" stroke="#000000" stroke-width="0" stroke-linecap="butt"/><path d="M244.59071,183.16734c-0.18307,-0.08391 -0.26617,-0.29441 -0.18562,-0.47016c0.08056,-0.17575 0.29427,-0.2502 0.47733,-0.16628c0.18307,0.08391 0.26617,0.29441 0.18562,0.47016c-0.08055,0.17575 -0.29427,0.2502 -0.47734,0.16629z" fill="#e3ffe7" stroke="none" stroke-width="0" stroke-linecap="butt"/><path d="M245.08966,183.44561c-0.0952,-0.04364 -0.13972,-0.15024 -0.09944,-0.23812c0.04028,-0.08788 0.1501,-0.12374 0.2453,-0.0801c0.0952,0.04364 0.13972,0.15023 0.09944,0.23811c-0.04028,0.08788 -0.15009,0.12374 -0.2453,0.08011z" fill="#e3ffe7" stroke="none" stroke-width="0" stroke-linecap="butt"/><path d="M244.525,192.11082c-0.18452,0.67211 0.22291,1.65617 -0.78526,1.37937c-0.17511,-0.04808 -2.01357,-0.54421 -2.48884,-0.68095c-0.76161,-0.21912 -0.98056,-0.96984 -0.54519,-1.92485c0.43538,-0.955 1.45497,-1.35134 1.97382,-1.20888c0.47923,0.13157 1.46266,0.4674 1.81703,0.92822c0.39113,0.50863 0.12527,1.15446 0.02845,1.5071z" data-paper-data="{&quot;index&quot;:null}" fill="#ffffff" stroke="#000000" stroke-width="0" stroke-linecap="butt"/><path d="M244.84549,191.42076c-0.1214,0.44213 -1.03129,0.57774 -2.03233,0.30289c-1.00103,-0.27484 -1.71414,-0.85605 -1.59274,-1.29818c0.1214,-0.44213 1.03131,-0.57774 2.03234,-0.3029c1.00103,0.27484 1.71413,0.85606 1.59274,1.29819z" data-paper-data="{&quot;index&quot;:null}" fill="url(#color-9)" stroke="#000000" stroke-width="0" stroke-linecap="butt"/><path d="M244.6745,193.77211c0,0 -0.2812,-1.401 -0.1962,-1.8751c0.0921,-0.5141 0.6481,-1.5086 0.6481,-1.5086" data-paper-data="{&quot;index&quot;:null}" fill="none" stroke="#009413" stroke-width="0.5" stroke-linecap="round"/><path d="M244.38287,191.31376c-0.03103,0.113 -0.62901,0.04735 -1.33561,-0.14666c-0.70661,-0.194 -1.25428,-0.44289 -1.22327,-0.5559c0.03103,-0.113 0.629,-0.04735 1.33562,0.14666c0.70661,0.194 1.25428,0.44289 1.22327,0.5559z" data-paper-data="{&quot;index&quot;:null}" fill="#000000" stroke="#000000" stroke-width="0" stroke-linecap="butt"/><path d="M242.14369,191.15807c-0.05118,0.18643 -0.25011,0.29434 -0.44431,0.24102c-0.19419,-0.05333 -0.31013,-0.24768 -0.25895,-0.4341c0.05118,-0.18643 0.25011,-0.29435 0.44431,-0.24102c0.19419,0.05333 0.31012,0.24769 0.25894,0.4341z" data-paper-data="{&quot;index&quot;:null}" fill="#e3ffe7" stroke="none" stroke-width="0" stroke-linecap="butt"/><path d="M242.58237,191.05029c-0.02559,0.09321 -0.1282,0.14631 -0.22918,0.11857c-0.10099,-0.02773 -0.16211,-0.12576 -0.13651,-0.21898c0.02559,-0.09321 0.12821,-0.14631 0.22919,-0.11858c0.10099,0.02773 0.1621,0.12577 0.1365,0.21899z" data-paper-data="{&quot;index&quot;:null}" fill="#e3ffe7" stroke="none" stroke-width="0" stroke-linecap="butt"/><path d="M224.307,175.08251l9.5858,1.8214" fill="none" stroke="#2bff5a" stroke-width="0.5" stroke-linecap="round"/><path d="M224.8667,186.79541l5.8815,1.7902" fill="none" stroke="#2bff5a" stroke-width="0.5" stroke-linecap="round"/><path d="M227.9475,183.96591l6.494,2.1722" fill="none" stroke="#2bff5a" stroke-width="0.5" stroke-linecap="round"/><path d="M224.1586,179.26601l7.5438,1.0293" fill="none" stroke="#2bff5a" stroke-width="0.5" stroke-linecap="round"/><path d="M222.5433,181.59051l-2.5459,-0.8334" fill="none" stroke="#2bff5a" stroke-width="0.5" stroke-linecap="round"/><path d="M239.7488,192.63931c0,0 0.913,-2.0012 1.4466,-2.5159c0.5787,-0.5582 2.1693,-1.2972 2.1693,-1.2972" data-paper-data="{&quot;index&quot;:null}" fill="none" stroke="#009413" stroke-width="0.5" stroke-linecap="round"/><path d="M244.533,185.34411c0,0 -0.957,-1.4698 -1.1518,-2.2498c-0.1797,-0.7193 0.107,-2.9003 0.107,-2.9003" data-paper-data="{&quot;index&quot;:null}" fill="none" stroke="#009413" stroke-width="0.5" stroke-linecap="round"/><path d="M251.36076,189.83407c0,0 -0.42379,1.20653 -1.27268,0.96302c-0.84888,-0.2435 -1.28419,-1.61308 -1.28419,-1.61308c0,0 0.96311,-1.05182 1.812,-0.80831c0.84889,0.24351 0.74487,1.45837 0.74487,1.45837z" fill="#009413" stroke="none" stroke-width="0" stroke-linecap="butt"/><path d="M260.34331,191.43717c-0.9516,3.2361 -2.94026,5.91905 -5.71765,8.71183c-1.26379,1.31575 -2.91273,2.65112 -4.40136,3.3102c-0.12968,0.05739 -0.74067,0.45127 -1.21813,0.66536c0.38184,0.01187 0.82368,0.01974 0.91665,-0.00888c1.0605,-0.32658 2.12675,-1.12383 3.13615,-1.65461c2.7908,-2.21524 6.63172,-6.74434 7.35077,-10.6889c-0.02482,-0.10763 -0.04687,-0.2195 -0.06641,-0.335zM260.96817,186.27783c0.08777,0.10439 0.11118,0.24604 0.11118,0.24604l0.09075,0.61983c-0.04361,1.43477 -0.08745,3.09076 0.16742,4.38932c-0.77325,4.47808 -4.76235,9.37496 -7.97666,11.88825c-1.36103,0.71568 -3.3634,2.28628 -4.76258,1.84961c-0.47447,-0.14807 -1.29245,-0.63816 -0.95759,-1.58138c0.04767,-0.13427 1.62874,-0.85179 1.85475,-0.97042c1.61477,-0.84753 3.2187,-1.88814 4.61891,-3.35716c3.92082,-3.94255 6.15847,-7.48872 5.91692,-13.0925c0,0 -0.023,-0.54073 0.44035,-0.68199c0.46336,-0.14128 0.48635,0.39945 0.48635,0.39945c0.00409,0.09752 0.00749,0.1945 0.01019,0.29095z" fill="#00ff37" stroke="#000000" stroke-width="0" stroke-linecap="butt"/><path d="M262.5838,194.26271c-0.8871,2.58 -2.3935,5.1263 -3.6424,7.2832c-2.6114,3.2908 -5.0639,6.2582 -8.4288,7.6163c0.8175,0.1136 1.8853,0.3234 2.4681,0.0502c2.6837,-1.2581 4.0953,-3.7173 6.1668,-5.9766c0.7372,-1.2631 1.7033,-2.4492 2.3715,-3.7887c0.813,-1.6294 0.9615,-3.4347 1.0648,-5.1844zM262.4831,187.08121c0.0305,-0.0233 0.0646,-0.0452 0.1027,-0.0652c0.4514,-0.2374 0.5584,0.2686 0.5584,0.2686l0.1269,0.6006c0.2749,1.1386 0.5494,1.9302 0.5093,3.2155c-0.4918,2.7459 -0.1111,5.9199 -1.4741,8.7316c-0.6944,1.4323 -1.7366,2.6975 -2.5192,4.0385c-3.1931,3.5491 -6.8199,8.5722 -10.5062,6.0322l-0.0264,0.064l-0.4769,-0.1877c-0.0871,-0.0329 -0.1603,-0.1022 -0.2046,-0.205c-0.1068,-0.2483 -0.0046,-0.5982 0.2283,-0.7816c0.0313,-0.0246 0.0634,-0.045 0.0957,-0.0612l0.5338,-0.2807l0.0033,0.0153l0.0385,-0.0349c3.6458,-1.1218 6.0869,-4.0798 8.8026,-7.4826c2.1698,-3.691 5.4026,-8.9233 3.6518,-12.9657c0,0 -0.1935,-0.4496 0.2282,-0.7816c0.131,-0.1031 0.24,-0.1308 0.328,-0.12z" fill="#2bff5a" stroke="none" stroke-width="0.5" stroke-linecap="butt"/><path d="M265.4696,195.92591c-0.9639,3.2141 -2.7465,6.5123 -4.073,8.7878c-1.8462,2.7445 -3.4381,5.3513 -5.3944,7.8114c0.8378,-0.5366 1.7149,-1.0556 2.0374,-1.3466c1.6864,-1.5216 4.0583,-4.9825 5.2876,-7.0946c2.1456,-3.1798 2.2898,-5.5479 2.1424,-8.1579zM265.2722,188.43401c0.0532,-0.0492 0.1198,-0.092 0.2029,-0.1232c0.4612,-0.1728 0.5114,0.3587 0.5114,0.3587l0.0399,0.4735c-0.0164,0.4258 0.0613,0.8307 0.1551,1.215c-0.1155,5.5373 1.4532,8.8928 -2.156,14.2741c-1.9468,3.3269 -6.2476,9.5725 -9.8314,9.9599l-0.0054,0.1885l-0.4792,0.0991c-0.1736,0.0402 -0.3389,-0.0371 -0.4162,-0.2166c-0.1068,-0.2483 -0.0046,-0.5982 0.2283,-0.7815l0.4659,-0.3669c2.6178,-2.9063 4.4723,-6.0217 6.7107,-9.3492c1.5775,-2.6996 4.325,-7.7174 4.5635,-11.5698c-0.014,-0.3953 -0.0211,-0.8023 -0.0172,-1.2236c-0.0863,-0.8582 -0.3426,-1.6261 -0.8205,-2.2547c0,0 -0.2724,-0.3757 0.1032,-0.7895c0.3755,-0.4137 0.6479,-0.0379 0.6479,-0.0379c0.0333,0.0475 0.0656,0.0956 0.0971,0.1441z" fill="#2bff5a" stroke="none" stroke-width="0.5" stroke-linecap="butt"/><path d="M254.9612,200.81241c-0.006,0.0114 -0.0096,0.0176 -0.0096,0.0176l-0.3215,0.4587c-1.7054,1.3427 -3.574,2.9913 -5.3799,3.048l-0.0199,0.0105l-0.004,0.1384l-0.4792,0.0991c-0.1736,0.0402 -0.3389,-0.0371 -0.4161,-0.2165c-0.1069,-0.2483 -0.0047,-0.5983 0.2282,-0.7816c0.0313,-0.0247 0.0634,-0.0451 0.0958,-0.0613l0.5285,-0.2779c0.6418,-0.3612 1.3838,-0.6301 2.1012,-0.9569c0.5886,-0.375 1.2146,-0.761 1.75,-1.0976c0.8595,-0.7922 1.455,-1.6224 2.2345,-2.2483c0.0726,-0.0972 0.1468,-0.1965 0.2224,-0.2973l-0.0298,-0.0692l0.2,-0.1575c0.2881,-0.3825 0.5914,-0.7784 0.8946,-1.1506c0.0253,-0.0618 0.0588,-0.1208 0.0996,-0.1738l0.4904,-0.6616c1.0482,-1.5564 2.1959,-2.6568 2.5399,-4.6344c0,0 0.0982,-0.5588 0.5516,-0.5547c0.4534,0.0042 0.3552,0.5631 0.3552,0.5631c-0.2068,1.1654 -0.6382,2.0657 -1.1707,2.909c0.0444,0.1558 0.0174,0.34 -0.0648,0.4966l-0.3558,0.7005l-0.055,-0.0309c-0.1228,0.1376 -0.2537,0.3355 -0.3899,0.5528c0.037,0.1761 -0.0113,0.3815 -0.123,0.5413l-0.3988,0.5927l-0.0294,-0.0257c-0.0879,0.1973 -0.1845,0.3899 -0.2937,0.5746l-0.0609,0.0397l0.0135,0.0186l-0.4441,0.4892c-0.0264,0.03 -0.0554,0.0577 -0.0867,0.0824c-0.1224,0.0964 -0.2567,0.1275 -0.372,0.0993c-0.6032,0.6961 -1.2347,1.3531 -1.8007,1.9637z" fill="#b9ffc8" stroke="none" stroke-width="0.5" stroke-linecap="butt"/><path d="M261.0645,197.25031c0.0327,-0.0019 0.0627,-0.0008 0.0902,0.0028c0.3478,-1.3526 0.5918,-2.7704 0.9928,-4.1887c0,0 0.1614,-0.5527 0.5964,-0.4695c0.4349,0.0831 0.2735,0.6358 0.2735,0.6358c-0.3413,1.1199 -0.1273,2.2642 -0.376,3.3805c-0.3587,1.6099 -1.4162,3.5528 -2.5968,5.1117c-0.6947,1.4559 -1.5852,3.5234 -2.282,4.1952c-0.3893,0.3753 -0.8144,0.4775 -1.2299,0.5484c-1.6879,1.8469 -3.608,3.2572 -5.2661,3.2621l-0.0397,0.226l-0.5296,-0.0049c-0.1399,0.0006 -0.2647,-0.078 -0.3287,-0.2269c-0.1069,-0.2483 -0.0047,-0.5982 0.2282,-0.7816l0.4975,-0.3917c2.1487,-1.6917 4.0763,-3.5721 6.195,-5.2965c0.7316,-1.0855 1.4866,-2.1738 2.2316,-3.2595l0.3297,-0.8944c0.045,-0.124 0.1227,-0.2387 0.2264,-0.3203c0.0856,-0.0674 0.1768,-0.1029 0.2634,-0.1085c0.0545,-0.1493 0.1069,-0.3042 0.1542,-0.47l0.0388,-0.3649c0,0 0.073,-0.5583 0.5311,-0.5851zM254.125,207.21471c0.0251,-0.0121 0.0495,-0.024 0.0734,-0.036c-0.0022,-0.0078 -0.0043,-0.0156 -0.0061,-0.0234c-0.0224,0.0198 -0.0448,0.0396 -0.0673,0.0594z" fill="#b9ffc8" stroke="none" stroke-width="0.5" stroke-linecap="butt"/><path d="M254.6101,214.17951c-0.3616,-0.2536 -0.0709,-0.7516 -0.0709,-0.7516l0.3214,-0.4587c0.2774,-0.2184 0.5811,-0.437 0.8964,-0.6597c-0.0307,-0.1594 0.0074,-0.3416 0.0983,-0.4918l0.3004,-0.5147l0.0201,0.0141l0.0217,-0.078c1.5403,-1.7046 2.4951,-3.1698 3.603,-5.3514c2.1449,-3.6328 4.273,-6.2994 5.4908,-10.4699c0,0 0.1614,-0.5527 0.5964,-0.4695c0.4349,0.0832 0.2735,0.6358 0.2735,0.6358c-0.1887,0.6465 -0.3985,1.2565 -0.6259,1.8392c0.1476,-0.0082 0.281,0.0706 0.348,0.2264c0.0641,0.1489 0.053,0.3345 -0.0165,0.4986l-0.2584,0.6254c-0.0423,0.1017 -0.0845,0.2034 -0.1267,0.305c-0.6051,2.6065 -1.9653,5.1148 -3.5773,7.3548c-1.4141,3.1415 -4.1037,5.4247 -6.6568,7.4349l0.0148,0.0668c0,0 -0.2907,0.498 -0.6523,0.2443z" fill="#b9ffc8" stroke="none" stroke-width="0.5" stroke-linecap="butt"/><path d="M252.17121,188.3811c-2.05097,7.14999 -6.65888,12.51043 -17.61871,9.3666c-0.44868,-0.12871 -5.56023,0.85402 -5.56023,0.85402c0,0 2.05808,-5.18557 1.78189,-6.23869c-0.24031,-0.91634 -3.34644,0.27304 -3.34644,0.27304c0,0 -3.10069,-2.806 -5.00681,-3.32034c-2.01585,-0.54395 -6.66635,0.87833 -6.66635,0.87833c0,0 5.87564,-3.75051 4.17414,-5.39165c-4.85945,-4.68708 -10.42055,-2.54643 -10.42055,-2.54643c0,0 8.81923,-3.74023 11.92838,-4.77989c2.4679,-0.82524 -4.7639,-2.83005 -4.7639,-2.83005c0,0 3.76868,-2.12765 6.01141,-2.42217c3.573,-0.46923 13.36229,-0.12209 13.36229,-0.12209c0,0 -0.06699,3.05035 1.17342,2.94586c1.37765,-0.11605 4.0545,-5.76702 4.0545,-5.76702c0,0 2.57602,5.16889 3.56544,5.6377c7.56217,3.58324 9.14518,7.14006 7.33151,13.46279z" fill="url(#color-10)" stroke="#f3f3f3" stroke-width="0" stroke-linecap="butt"/></g></g></svg>