<svg version="1.1" xmlns="http://www.w3.org/2000/svg" xmlns:xlink="http://www.w3.org/1999/xlink" width="86.37296" height="46.264" viewBox="0,0,86.37296,46.264"><defs><radialGradient cx="232.47094" cy="182.46607" r="31.60098" gradientUnits="userSpaceOnUse" id="color-1"><stop offset="0" stop-color="#9eff5d"/><stop offset="1" stop-color="#9eff5d" stop-opacity="0"/></radialGradient><linearGradient x1="249.3801" y1="180.10081" x2="252.2024" y2="180.91041" gradientUnits="userSpaceOnUse" id="color-2"><stop offset="0" stop-color="#13a900" stop-opacity="0"/><stop offset="1" stop-color="#13a900"/></linearGradient><linearGradient x1="249.0078" y1="181.44511" x2="252.2817" y2="182.38431" gradientUnits="userSpaceOnUse" id="color-3"><stop offset="0" stop-color="#13a900" stop-opacity="0"/><stop offset="1" stop-color="#13a900"/></linearGradient><linearGradient x1="249.0053" y1="182.92691" x2="251.8277" y2="183.73651" gradientUnits="userSpaceOnUse" id="color-4"><stop offset="0" stop-color="#13a900" stop-opacity="0"/><stop offset="1" stop-color="#13a900"/></linearGradient><linearGradient x1="245.2426" y1="193.25801" x2="248.065" y2="194.06761" gradientUnits="userSpaceOnUse" id="color-5"><stop offset="0" stop-color="#13a900" stop-opacity="0"/><stop offset="1" stop-color="#13a900"/></linearGradient><linearGradient x1="244.8703" y1="194.60241" x2="248.1443" y2="195.54151" gradientUnits="userSpaceOnUse" id="color-6"><stop offset="0" stop-color="#13a900" stop-opacity="0"/><stop offset="1" stop-color="#13a900"/></linearGradient><linearGradient x1="244.8678" y1="196.08411" x2="247.6902" y2="196.89371" gradientUnits="userSpaceOnUse" id="color-7"><stop offset="0" stop-color="#13a900" stop-opacity="0"/><stop offset="1" stop-color="#13a900"/></linearGradient><radialGradient cx="245.59852" cy="183.75244" r="1.87961" gradientUnits="userSpaceOnUse" id="color-8"><stop offset="0" stop-color="#d7ffbc"/><stop offset="1" stop-color="#26ff00"/></radialGradient><radialGradient cx="243.03295" cy="190.92312" r="1.87961" gradientUnits="userSpaceOnUse" id="color-9"><stop offset="0" stop-color="#d7ffbc"/><stop offset="1" stop-color="#26ff00"/></radialGradient><radialGradient cx="238.2661" cy="185.16809" r="20.64482" gradientUnits="userSpaceOnUse" id="color-10"><stop offset="0" stop-color="#d7ffbc"/><stop offset="1" stop-color="#7af12b"/></radialGradient></defs><g transform="translate(-185.6242,-163.74061)"><g data-paper-data="{&quot;isPaintingLayer&quot;:true}" fill-rule="nonzero" stroke-linejoin="miter" stroke-miterlimit="10" stroke-dasharray="" stroke-dashoffset="0" style="mix-blend-mode: normal"><path d="M254.41181,183.69207c-0.67619,8.76716 -5.76417,15.99044 -23.16523,14.64834c-0.71239,-0.05495 -8.01148,2.17318 -8.01148,2.17318c0,0 1.34177,-6.47931 0.57855,-7.64812c-0.6641,-1.01701 -4.90206,1.02712 -4.90206,1.02712l-22.28986,-4.82252c0,0 11.57481,-1.16614 8.48886,-2.71829c-8.81344,-4.43294 -19.48639,-7.03261 -19.48639,-7.03261c0,0 15.00092,0.04531 19.29334,-1.82498c3.40711,-1.48456 -5.92427,-5.79636 -5.92427,-5.79636l25.93113,-3.56191c0,0 0.91713,3.56911 2.73307,3.18455c2.01686,-0.4271 4.1267,-7.57986 4.1267,-7.57986c0,0 5.56706,5.47815 7.19967,5.81492c12.47805,2.57395 16.02595,6.38377 15.42799,14.13656z" fill="url(#color-1)" stroke="#f3f3f3" stroke-width="0" stroke-linecap="butt"/><path d="M249.7311,184.97711c0,0 2.2813,1.4192 1.8386,2.2746c-0.4426,0.8553 -2.9339,1.9331 -2.9339,1.9331c0,0 1.5687,1.3644 1.3524,2.631c-0.2163,1.2666 -3.0235,0.891 -3.0235,0.891" fill="none" stroke="#009413" stroke-width="0.5" stroke-linecap="round"/><path d="M247.2685,189.97491c-0.4495,-0.129 -0.2215,-0.5886 -0.1033,-1.0007c0.1182,-0.412 0.3704,-1.2463 0.8199,-1.1173c0.4495,0.1289 0.8022,1.3646 0.8022,1.3646c0,0 -1.0693,0.8823 -1.5188,0.7534z" fill="#00ff15" stroke="#009413" stroke-width="0.5" stroke-linecap="butt"/><path d="M239.5211,175.97521l1.8552,-2.8717l1.0194,1.8397" fill="none" stroke="#009413" stroke-width="0.5" stroke-linecap="round"/><path d="M233.9574,195.73041l-2.3161,0.8828l1.5021,-3.7981" fill="none" stroke="#009413" stroke-width="0.5" stroke-linecap="round"/><path d="M233.8371,193.63291l0.7188,2.888" fill="none" stroke="#009413" stroke-width="0.5" stroke-linecap="round"/><path d="M243.2675,174.78061l-1.9482,0.6789" fill="none" stroke="#009413" stroke-width="0.5" stroke-linecap="round"/><path d="M249.5323,179.57001l2.5179,1.8711" fill="none" stroke="url(#color-2)" stroke-width="0.5" stroke-linecap="round"/><path d="M249.177,180.85541l2.9356,2.1186" fill="none" stroke="url(#color-3)" stroke-width="0.5" stroke-linecap="round"/><path d="M251.7093,184.14931l-2.5856,-1.6352" fill="none" stroke="url(#color-4)" stroke-width="0.5" stroke-linecap="round"/><path d="M245.3949,192.72731l2.5178,1.8711" fill="none" stroke="url(#color-5)" stroke-width="0.5" stroke-linecap="round"/><path d="M247.9751,196.13121l-2.9356,-2.1185" fill="none" stroke="url(#color-6)" stroke-width="0.5" stroke-linecap="round"/><path d="M244.9863,195.67141l2.5855,1.6351" fill="none" stroke="url(#color-7)" stroke-width="0.5" stroke-linecap="round"/><path d="M247.38792,183.80623c-0.15237,0.33243 -0.36359,0.99814 -0.9901,1.1366c-0.56761,0.12545 -1.53699,-0.24905 -1.98875,-0.45612c-0.48912,-0.22419 -1.447,-1.37472 -1.16705,-2.38626c0.27996,-1.01154 1.36128,-1.25441 2.08568,-0.933c0.45206,0.20057 2.17962,1.00157 2.3447,1.07725c0.95041,0.43563 0.00594,0.92793 -0.28448,1.56153z" data-paper-data="{&quot;index&quot;:null}" fill="#ffffff" stroke="#000000" stroke-width="0" stroke-linecap="butt"/><path d="M245.25262,184.50711c-0.94368,-0.43254 -1.5538,-1.12107 -1.36276,-1.53786c0.19104,-0.41679 1.1109,-0.40402 2.05458,0.02853c0.94368,0.43254 1.5538,1.12107 1.36276,1.53786c-0.19104,0.41679 -1.1109,0.40402 -2.05458,-0.02852z" fill="url(#color-8)" stroke="#000000" stroke-width="0" stroke-linecap="butt"/><path d="M246.8841,185.52461c0,0 0.2129,-1.1193 0.4726,-1.5724c0.2394,-0.4179 1.355,-1.3108 1.355,-1.3108" data-paper-data="{&quot;index&quot;:null}" fill="none" stroke="#009413" stroke-width="0.5" stroke-linecap="round"/><path d="M245.58941,183.96046c-0.66612,-0.30533 -1.16653,-0.63921 -1.1177,-0.74574c0.04884,-0.10654 0.62843,0.05461 1.29455,0.35995c0.66611,0.30532 1.16653,0.63921 1.1177,0.74574c-0.04884,0.10654 -0.62842,-0.05462 -1.29454,-0.35994z" fill="#000000" stroke="#000000" stroke-width="0" stroke-linecap="butt"/><path d="M244.59071,183.16734c-0.18307,-0.08391 -0.26617,-0.29441 -0.18562,-0.47016c0.08056,-0.17575 0.29427,-0.2502 0.47733,-0.16628c0.18307,0.08391 0.26617,0.29441 0.18562,0.47016c-0.08055,0.17575 -0.29427,0.2502 -0.47734,0.16629z" fill="#e3ffe7" stroke="none" stroke-width="0" stroke-linecap="butt"/><path d="M245.08966,183.44561c-0.0952,-0.04364 -0.13972,-0.15024 -0.09944,-0.23812c0.04028,-0.08788 0.1501,-0.12374 0.2453,-0.0801c0.0952,0.04364 0.13972,0.15023 0.09944,0.23811c-0.04028,0.08788 -0.15009,0.12374 -0.2453,0.08011z" fill="#e3ffe7" stroke="none" stroke-width="0" stroke-linecap="butt"/><path d="M244.525,192.11082c-0.18452,0.67211 0.22291,1.65617 -0.78526,1.37937c-0.17511,-0.04808 -2.01357,-0.54421 -2.48884,-0.68095c-0.76161,-0.21912 -0.98056,-0.96984 -0.54519,-1.92485c0.43538,-0.955 1.45497,-1.35134 1.97382,-1.20888c0.47923,0.13157 1.46266,0.4674 1.81703,0.92822c0.39113,0.50863 0.12527,1.15446 0.02845,1.5071z" data-paper-data="{&quot;index&quot;:null}" fill="#ffffff" stroke="#000000" stroke-width="0" stroke-linecap="butt"/><path d="M244.84549,191.42076c-0.1214,0.44213 -1.03129,0.57774 -2.03233,0.30289c-1.00103,-0.27484 -1.71414,-0.85605 -1.59274,-1.29818c0.1214,-0.44213 1.03131,-0.57774 2.03234,-0.3029c1.00103,0.27484 1.71413,0.85606 1.59274,1.29819z" data-paper-data="{&quot;index&quot;:null}" fill="url(#color-9)" stroke="#000000" stroke-width="0" stroke-linecap="butt"/><path d="M244.6745,193.77211c0,0 -0.2812,-1.401 -0.1962,-1.8751c0.0921,-0.5141 0.6481,-1.5086 0.6481,-1.5086" data-paper-data="{&quot;index&quot;:null}" fill="none" stroke="#009413" stroke-width="0.5" stroke-linecap="round"/><path d="M244.38287,191.31376c-0.03103,0.113 -0.62901,0.04735 -1.33561,-0.14666c-0.70661,-0.194 -1.25428,-0.44289 -1.22327,-0.5559c0.03103,-0.113 0.629,-0.04735 1.33562,0.14666c0.70661,0.194 1.25428,0.44289 1.22327,0.5559z" data-paper-data="{&quot;index&quot;:null}" fill="#000000" stroke="#000000" stroke-width="0" stroke-linecap="butt"/><path d="M242.14369,191.15807c-0.05118,0.18643 -0.25011,0.29434 -0.44431,0.24102c-0.19419,-0.05333 -0.31013,-0.24768 -0.25895,-0.4341c0.05118,-0.18643 0.25011,-0.29435 0.44431,-0.24102c0.19419,0.05333 0.31012,0.24769 0.25894,0.4341z" data-paper-data="{&quot;index&quot;:null}" fill="#e3ffe7" stroke="none" stroke-width="0" stroke-linecap="butt"/><path d="M242.58237,191.05029c-0.02559,0.09321 -0.1282,0.14631 -0.22918,0.11857c-0.10099,-0.02773 -0.16211,-0.12576 -0.13651,-0.21898c0.02559,-0.09321 0.12821,-0.14631 0.22919,-0.11858c0.10099,0.02773 0.1621,0.12577 0.1365,0.21899z" data-paper-data="{&quot;index&quot;:null}" fill="#e3ffe7" stroke="none" stroke-width="0" stroke-linecap="butt"/><path d="M224.307,175.08251l9.5858,1.8214" fill="none" stroke="#2bff5a" stroke-width="0.5" stroke-linecap="round"/><path d="M224.8667,186.79541l5.8815,1.7902" fill="none" stroke="#2bff5a" stroke-width="0.5" stroke-linecap="round"/><path d="M227.9475,183.96591l6.494,2.1722" fill="none" stroke="#2bff5a" stroke-width="0.5" stroke-linecap="round"/><path d="M231.7024,180.29531l-7.5438,-1.0293" fill="none" stroke="#2bff5a" stroke-width="0.5" stroke-linecap="round"/><path d="M222.5433,181.59051l-2.5459,-0.8334" fill="none" stroke="#2bff5a" stroke-width="0.5" stroke-linecap="round"/><path d="M239.7488,192.63931c0,0 0.913,-2.0012 1.4466,-2.5159c0.5787,-0.5582 2.1693,-1.2972 2.1693,-1.2972" data-paper-data="{&quot;index&quot;:null}" fill="none" stroke="#009413" stroke-width="0.5" stroke-linecap="round"/><path d="M244.533,185.34411c0,0 -0.957,-1.4698 -1.1518,-2.2498c-0.1797,-0.7193 0.107,-2.9003 0.107,-2.9003" data-paper-data="{&quot;index&quot;:null}" fill="none" stroke="#009413" stroke-width="0.5" stroke-linecap="round"/><path d="M251.36076,189.83407c0,0 -0.42379,1.20653 -1.27268,0.96302c-0.84888,-0.2435 -1.28419,-1.61308 -1.28419,-1.61308c0,0 0.96311,-1.05182 1.812,-0.80831c0.84889,0.24351 0.74487,1.45837 0.74487,1.45837z" fill="#009413" stroke="none" stroke-width="0" stroke-linecap="butt"/><path d="M261.19187,182.05728c0.2508,3.86125 -0.99324,8.06648 -3.14425,13.03582c-0.95928,2.30376 -2.3762,4.94844 -3.89219,6.81844c-0.13207,0.16289 -0.70083,1.04724 -1.1859,1.64959c0.46727,-0.30831 1.00542,-0.67062 1.10553,-0.77553c1.14195,-1.1968 2.08686,-2.84419 3.07847,-4.19164c2.41754,-4.43358 5.10319,-11.93741 4.26391,-16.27499c-0.07668,-0.08116 -0.15185,-0.16866 -0.22556,-0.26169zM259.71214,176.64801c0.15147,0.02541 0.24119,0.13998 0.24119,0.13998l0.37845,0.51109c0.56904,1.39534 1.23366,3.0004 2.10489,4.01695c1.00491,4.88823 -1.70069,12.86439 -4.50161,17.93467c-1.33704,1.81683 -3.07975,4.98006 -4.96235,5.73743c-0.63841,0.25684 -1.84077,0.47723 -1.84428,-0.69631c-0.0005,-0.16706 1.60204,-2.16978 1.82416,-2.47127c1.58698,-2.15404 3.07717,-4.48189 4.13513,-7.04497c3.03656,-7.01518 4.20783,-12.24635 1.48689,-17.35145c0,0 -0.26218,-0.49287 0.23737,-1.01442c0.49955,-0.52157 0.76173,-0.02871 0.76173,-0.02871c0.04722,0.08893 0.09336,0.17794 0.13842,0.26703z" fill="#00ff37" stroke="#000000" stroke-width="0" stroke-linecap="butt"/><path d="M265.128,182.85841c0.0445,3.1858 -0.675,6.858 -1.2518,9.9459c-1.7343,5.3021 -3.4165,10.1649 -6.9002,14.2672c1.0386,-0.5766 2.4218,-1.2715 3.0087,-2.018c2.7028,-3.4375 3.3454,-6.9478 4.8733,-10.8212c0.3447,-1.8132 1,-3.7451 1.2282,-5.5728c0.2777,-2.2236 -0.3249,-4.0577 -0.9583,-5.8012zM261.8938,176.14111c0.0268,-0.0477 0.0586,-0.0969 0.0959,-0.1477c0.4435,-0.6026 0.7923,-0.2129 0.7923,-0.2129l0.4139,0.4626c0.8261,0.8482 1.5014,1.3683 2.0098,2.6191c0.595,3.0121 2.4312,5.6996 2.0002,9.5033c-0.2196,1.9376 -0.9326,4.008 -1.2986,5.933c-2.3264,6.0335 -4.5388,13.826 -10.1009,14.5053l-0.0043,0.0828l-0.6586,0.2214c-0.1196,0.0417 -0.2382,0.0374 -0.3363,-0.023c-0.2369,-0.1458 -0.2649,-0.5627 -0.0625,-0.9312c0.0272,-0.0496 0.0572,-0.0958 0.0893,-0.1382l0.5244,-0.7126l0.0106,0.0119l0.0314,-0.0653c3.9262,-4.1135 5.5986,-8.9579 7.4106,-14.4534c1.0264,-5.3116 2.6714,-12.9725 -1.1995,-15.3357c0,0 -0.429,-0.264 -0.0625,-0.9313c0.1138,-0.2073 0.2337,-0.3247 0.3448,-0.3881z" fill="#2bff5a" stroke="none" stroke-width="0.5" stroke-linecap="butt"/><path d="M269.3414,182.01841c0.2263,3.8507 -0.5016,8.4662 -1.1209,11.7313c-1.0449,4.1445 -1.8419,7.9455 -3.1433,11.9126c0.7814,-1.2093 1.618,-2.4349 1.8822,-2.9804c1.3816,-2.8524 2.7523,-8.1151 3.3246,-11.1442c1.2188,-4.8072 0.367,-7.1707 -0.9426,-9.5193zM265.8556,175.08821c0.0431,-0.0912 0.105,-0.1874 0.1922,-0.2865c0.4832,-0.5496 0.7743,-0.0882 0.7743,-0.0882l0.2535,0.415c0.1647,0.417 0.4343,0.7354 0.7143,1.0209c2.26,5.3409 5.6127,7.206 3.577,15.323c-0.9144,4.7801 -3.4127,14.2944 -7.5822,17.6607l0.0753,0.1829l-0.5371,0.4949c-0.1927,0.1834 -0.4262,0.2486 -0.5975,0.1432c-0.2369,-0.1457 -0.2649,-0.5627 -0.0625,-0.9312l0.4049,-0.7374c1.9087,-4.9432 2.803,-9.4458 4.0699,-14.4705c0.7392,-3.8769 1.8897,-10.9285 0.5088,-14.7767c-0.1883,-0.3626 -0.3733,-0.7422 -0.5511,-1.1444c-0.4764,-0.7406 -1.1194,-1.2534 -1.9702,-1.4488c0,0 -0.4925,-0.1279 -0.2173,-0.834c0.2752,-0.7061 0.7677,-0.5782 0.7677,-0.5782c0.0609,0.0172 0.1209,0.0356 0.18,0.0553z" fill="#2bff5a" stroke="none" stroke-width="0.5" stroke-linecap="butt"/><path d="M258.7412,195.44051c-0.0022,0.0158 -0.0039,0.0248 -0.0039,0.0248l-0.1903,0.7035c-1.4821,2.6988 -3.0292,5.824 -5.1901,7.389l-0.0196,0.0266l0.0552,0.1344l-0.5371,0.4949c-0.1927,0.1834 -0.4262,0.2485 -0.5975,0.1432c-0.2369,-0.1458 -0.2648,-0.5627 -0.0625,-0.9312c0.0273,-0.0496 0.0573,-0.0958 0.0894,-0.1382l0.5192,-0.7055c0.6203,-0.8793 1.4017,-1.7549 2.1283,-2.6647c0.5498,-0.8477 1.1402,-1.7372 1.6423,-2.5042c0.6969,-1.4695 1.0578,-2.7541 1.7299,-3.9993c0.0458,-0.1528 0.0925,-0.3089 0.1403,-0.4676l-0.0661,-0.0407l0.1738,-0.3165c0.183,-0.6034 0.3785,-1.2321 0.5841,-1.8384c0.0038,-0.0797 0.0188,-0.1635 0.0453,-0.2479l0.3068,-1.037c0.594,-2.3513 1.5061,-4.3539 1.0654,-6.5147c0,0 -0.1233,-0.6115 0.4272,-0.987c0.5505,-0.3755 0.6738,0.236 0.6738,0.236c0.2549,1.2769 0.123,2.4905 -0.1561,3.7349c0.1213,0.1103 0.1684,0.3074 0.1369,0.5245l-0.127,0.9611l-0.08,0.0168c-0.089,0.233 -0.1617,0.5301 -0.2323,0.8498c0.121,0.1359 0.1516,0.3709 0.0857,0.6156l-0.2257,0.8951l-0.0469,0.0003c-0.0208,0.2604 -0.0542,0.5236 -0.1063,0.79l-0.0565,0.0885l0.0244,0.0063l-0.3255,0.835c-0.0189,0.0505 -0.042,0.101 -0.0692,0.1506c-0.1064,0.1938 -0.2554,0.3356 -0.4072,0.4053c-0.4283,1.1642 -0.9079,2.3149 -1.3282,3.3668z" fill="#b9ffc8" stroke="none" stroke-width="0.5" stroke-linecap="butt"/><path d="M264.5841,186.95931c0.0387,-0.0292 0.0755,-0.0533 0.1103,-0.0728c-0.1653,-1.5722 -0.4845,-3.1191 -0.6137,-4.798c0,0 -0.0442,-0.6585 0.5182,-0.9437c0.5624,-0.2853 0.6067,0.3732 0.6067,0.3732c0.0722,1.3464 0.8271,2.251 1.0099,3.5164c0.2637,1.8248 -0.1742,4.5499 -0.9274,7.0143c-0.2098,1.9603 -0.3916,4.6637 -0.9437,5.883c-0.3085,0.6813 -0.7786,1.1338 -1.2508,1.5487c-1.2425,3.1617 -2.955,6.1042 -4.9596,7.4965l0.0499,0.2473l-0.6431,0.4386c-0.169,0.1176 -0.3541,0.1476 -0.4962,0.0602c-0.2369,-0.1458 -0.2649,-0.5627 -0.0625,-0.9312l0.4323,-0.7873c1.8674,-3.4005 3.3853,-6.7945 5.2022,-10.2008c0.415,-1.6403 0.857,-3.3027 1.2882,-4.9546l0.0114,-1.123c0.0007,-0.155 0.0451,-0.3287 0.1352,-0.4928c0.0744,-0.1354 0.1694,-0.2454 0.2717,-0.3232c0.0013,-0.1869 -0.0024,-0.3775 -0.0171,-0.5741l-0.1111,-0.3782c0,0 -0.1536,-0.5897 0.3892,-0.9985zM260.504,202.20391c0.025,-0.0324 0.0494,-0.0642 0.0732,-0.0955c-0.0061,-0.0055 -0.012,-0.0112 -0.0176,-0.0171c-0.0185,0.0375 -0.0371,0.0751 -0.0557,0.1126z" fill="#b9ffc8" stroke="none" stroke-width="0.5" stroke-linecap="butt"/><path d="M264.1095,208.39421c-0.5476,0.0624 -0.4116,-0.6525 -0.4116,-0.6525l0.1902,-0.7035c0.2411,-0.4389 0.5139,-0.9 0.799,-1.3749c-0.1063,-0.1252 -0.1391,-0.3297 -0.0942,-0.548l0.1405,-0.7389l0.0304,-0.0034l-0.0075,-0.092c1.1254,-2.9034 1.6459,-5.0902 2.0413,-8.0835c1.0214,-5.2356 2.4414,-9.542 2.1078,-14.5111c0,0 -0.0442,-0.6584 0.5183,-0.9437c0.5624,-0.2852 0.6066,0.3732 0.6066,0.3732c0.0517,0.7703 0.0623,1.5236 0.0395,2.2658c0.1751,-0.1314 0.3707,-0.1684 0.5193,-0.0769c0.1421,0.0874 0.2091,0.2725 0.1962,0.4861l-0.0418,0.8086c-0.0071,0.1316 -0.0141,0.2632 -0.0211,0.3949c0.3973,2.9749 -0.1618,6.4887 -1.142,9.9592c-0.3499,4.1587 -2.6155,8.572 -4.8343,12.6125l0.0468,0.0509c0,0 -0.1359,0.7149 -0.6834,0.7773z" fill="#b9ffc8" stroke="none" stroke-width="0.5" stroke-linecap="butt"/><path d="M252.17121,188.74766c-2.05097,7.14999 -6.65888,12.51043 -17.61871,9.3666c-0.44868,-0.12871 -5.56023,0.85402 -5.56023,0.85402c0,0 2.05808,-5.18557 1.78189,-6.23869c-0.24031,-0.91634 -3.34644,0.27304 -3.34644,0.27304c0,0 -3.10069,-2.806 -5.00681,-3.32034c-2.01585,-0.54395 -6.66635,0.87833 -6.66635,0.87833c0,0 5.87564,-3.75051 4.17414,-5.39165c-4.85945,-4.68708 -10.42055,-2.54643 -10.42055,-2.54643c0,0 8.81923,-3.74023 11.92838,-4.77989c2.4679,-0.82524 -4.7639,-2.83005 -4.7639,-2.83005c0,0 3.76868,-2.12765 6.01141,-2.42217c3.573,-0.46923 13.36229,-0.12209 13.36229,-0.12209c0,0 -0.06699,3.05035 1.17342,2.94586c1.37765,-0.11605 4.0545,-5.76702 4.0545,-5.76702c0,0 2.57602,5.16889 3.56544,5.6377c7.56217,3.58324 9.14518,7.14006 7.33151,13.46279z" fill="url(#color-10)" stroke="#f3f3f3" stroke-width="0" stroke-linecap="butt"/></g></g></svg>