<svg version="1.1" xmlns="http://www.w3.org/2000/svg" xmlns:xlink="http://www.w3.org/1999/xlink" width="92.83676" height="87.30066" viewBox="0,0,92.83676,87.30066"><defs><radialGradient cx="240" cy="179.99997" r="46.41838" gradientUnits="userSpaceOnUse" id="color-1"><stop offset="0" stop-color="#0f400e"/><stop offset="1" stop-color="#0f400e" stop-opacity="0"/></radialGradient><radialGradient cx="218.78297" cy="190.21561" r="10.73949" gradientUnits="userSpaceOnUse" id="color-2"><stop offset="0" stop-color="#0f400e"/><stop offset="1" stop-color="#0f400e" stop-opacity="0"/></radialGradient><radialGradient cx="238.69031" cy="152.75838" r="8.90591" gradientUnits="userSpaceOnUse" id="color-3"><stop offset="0" stop-color="#0f400e"/><stop offset="1" stop-color="#0f400e" stop-opacity="0"/></radialGradient><radialGradient cx="218.52103" cy="163.7598" r="4.71489" gradientUnits="userSpaceOnUse" id="color-4"><stop offset="0" stop-color="#0f400e"/><stop offset="1" stop-color="#0f400e" stop-opacity="0"/></radialGradient><radialGradient cx="250.47755" cy="203.31254" r="7.07233" gradientUnits="userSpaceOnUse" id="color-5"><stop offset="0" stop-color="#0f400e"/><stop offset="1" stop-color="#0f400e" stop-opacity="0"/></radialGradient><radialGradient cx="269.33714" cy="183.40521" r="6.0246" gradientUnits="userSpaceOnUse" id="color-6"><stop offset="0" stop-color="#0f400e"/><stop offset="1" stop-color="#0f400e" stop-opacity="0"/></radialGradient><radialGradient cx="260.9551" cy="161.92622" r="4.45296" gradientUnits="userSpaceOnUse" id="color-7"><stop offset="0" stop-color="#0f400e"/><stop offset="1" stop-color="#0f400e" stop-opacity="0"/></radialGradient><radialGradient cx="233.45154" cy="206.97968" r="6.54846" gradientUnits="userSpaceOnUse" id="color-8"><stop offset="0" stop-color="#0f400e"/><stop offset="1" stop-color="#0f400e" stop-opacity="0"/></radialGradient><radialGradient cx="240" cy="179.99997" r="28.2904" gradientUnits="userSpaceOnUse" id="color-9"><stop offset="0" stop-color="#000000"/><stop offset="1" stop-color="#000000" stop-opacity="0"/></radialGradient><radialGradient cx="240" cy="179.99999" r="28.81325" gradientUnits="userSpaceOnUse" id="color-10"><stop offset="0" stop-color="#000000"/><stop offset="1" stop-color="#000000" stop-opacity="0"/></radialGradient><radialGradient cx="198.91666" cy="174.00001" r="2.66667" gradientUnits="userSpaceOnUse" id="color-11"><stop offset="0" stop-color="#0f400e"/><stop offset="1" stop-color="#0f400e" stop-opacity="0"/></radialGradient><radialGradient cx="272.08333" cy="154.58334" r="1.91667" gradientUnits="userSpaceOnUse" id="color-12"><stop offset="0" stop-color="#0f400e"/><stop offset="1" stop-color="#0f400e" stop-opacity="0"/></radialGradient><radialGradient cx="218.91666" cy="205.08334" r="1.41667" gradientUnits="userSpaceOnUse" id="color-13"><stop offset="0" stop-color="#0f400e"/><stop offset="1" stop-color="#0f400e" stop-opacity="0"/></radialGradient><radialGradient cx="245.16666" cy="221.33334" r="2" gradientUnits="userSpaceOnUse" id="color-14"><stop offset="0" stop-color="#0f400e"/><stop offset="1" stop-color="#0f400e" stop-opacity="0"/></radialGradient><radialGradient cx="217.58333" cy="147.33334" r="1.16667" gradientUnits="userSpaceOnUse" id="color-15"><stop offset="0" stop-color="#0f400e"/><stop offset="1" stop-color="#0f400e" stop-opacity="0"/></radialGradient><radialGradient cx="256.58333" cy="144.75001" r="3.33333" gradientUnits="userSpaceOnUse" id="color-16"><stop offset="0" stop-color="#0f400e"/><stop offset="1" stop-color="#0f400e" stop-opacity="0"/></radialGradient><radialGradient cx="268.5" cy="202.25001" r="1.41667" gradientUnits="userSpaceOnUse" id="color-17"><stop offset="0" stop-color="#0f400e"/><stop offset="1" stop-color="#0f400e" stop-opacity="0"/></radialGradient><radialGradient cx="205.08333" cy="195.91667" r="2.25" gradientUnits="userSpaceOnUse" id="color-18"><stop offset="0" stop-color="#0f400e"/><stop offset="1" stop-color="#0f400e" stop-opacity="0"/></radialGradient></defs><g transform="translate(-193.58162,-136.34967)"><g data-paper-data="{&quot;isPaintingLayer&quot;:true}" fill-rule="nonzero" stroke="none" stroke-width="0" stroke-linecap="butt" stroke-linejoin="miter" stroke-miterlimit="10" stroke-dasharray="" stroke-dashoffset="0" style="mix-blend-mode: normal"><path d="M240,223.65033c-25.63618,0 -46.41838,-19.54292 -46.41838,-43.65031c0,-24.1074 20.78218,-43.65035 46.41838,-43.65035c25.63618,0 46.41838,19.54295 46.41838,43.65035c0,24.1074 -20.7822,43.65031 -46.41838,43.65031z" fill="url(#color-1)"/><path d="M228.21276,190.21561c0,5.93126 -4.22186,10.73949 -9.4298,10.73949c-5.20794,0 -9.4298,-4.80824 -9.4298,-10.73949c0,-5.93126 4.22186,-10.73949 9.4298,-10.73949c5.20794,0 9.4298,4.80824 9.4298,10.73949z" fill="url(#color-2)"/><path d="M247.59622,152.75838c0,4.0506 -3.98732,7.33428 -8.90591,7.33428c-4.9186,0 -8.90591,-3.28368 -8.90591,-7.33428c0,-4.0506 3.98732,-7.33428 8.90591,-7.33428c4.9186,0 8.90591,3.28368 8.90591,7.33428z" fill="url(#color-3)"/><path d="M222.97399,163.7598c0,2.60396 -1.99365,4.71489 -4.45296,4.71489c-2.4593,0 -4.45296,-2.11093 -4.45296,-4.71489c0,-2.60396 1.99365,-4.71489 4.45296,-4.71489c2.4593,0 4.45296,2.11093 4.45296,4.71489z" fill="url(#color-4)"/><path d="M255.97826,203.31254c0,3.90595 -2.46275,7.07233 -5.50071,7.07233c-3.03797,0 -5.50071,-3.1664 -5.50071,-7.07233c0,-3.90595 2.46275,-7.07233 5.50071,-7.07233c3.03797,0 5.50071,3.1664 5.50071,7.07233z" fill="url(#color-5)"/><path d="M274.31397,183.40521c0,3.32728 -2.2282,6.0246 -4.97684,6.0246c-2.74864,0 -4.97684,-2.6973 -4.97684,-6.0246c0,-3.32728 2.2282,-6.0246 4.97684,-6.0246c2.74864,0 4.97684,2.6973 4.97684,6.0246z" fill="url(#color-6)"/><path d="M265.40805,161.92622c0,2.4593 -1.99365,4.45296 -4.45296,4.45296c-2.4593,0 -4.45296,-1.99365 -4.45296,-4.45296c0,-2.4593 1.99365,-4.45296 4.45296,-4.45296c2.4593,0 4.45296,1.99365 4.45296,4.45296z" fill="url(#color-7)"/><path d="M239.73806,206.97968c0,3.61661 -2.81458,6.54846 -6.28653,6.54846c-3.47196,0 -6.28653,-2.93185 -6.28653,-6.54846c0,-3.61661 2.81458,-6.54846 6.28653,-6.54846c3.47196,0 6.28653,2.93185 6.28653,6.54846z" fill="url(#color-8)"/><path d="M240,206.60335c-15.62437,0 -28.2904,-11.91073 -28.2904,-26.60336c0,-14.69263 12.66602,-26.60337 28.2904,-26.60337c15.62437,0 28.2904,11.91075 28.2904,26.60337c0,14.69263 -12.66602,26.60336 -28.2904,26.60336z" fill="url(#color-9)"/><path d="M268.81325,179.99999c0,15.33446 -12.90014,27.76551 -28.81325,27.76551c-15.91313,0 -28.81325,-12.43103 -28.81325,-27.76551c0,-15.33446 12.90014,-27.76551 28.81325,-27.76551c15.91313,0 28.81325,12.43103 28.81325,27.76551z" fill="url(#color-10)"/><path d="M201.58333,174.00001c0,1.47276 -1.19391,2.66667 -2.66667,2.66667c-1.47276,0 -2.66667,-1.19391 -2.66667,-2.66667c0,-1.47276 1.19391,-2.66667 2.66667,-2.66667c1.47276,0 2.66667,1.19391 2.66667,2.66667z" fill="url(#color-11)"/><path d="M273.75,154.58334c0,1.05855 -0.74619,1.91667 -1.66667,1.91667c-0.92047,0 -1.66667,-0.85812 -1.66667,-1.91667c0,-1.05855 0.74619,-1.91667 1.66667,-1.91667c0.92047,0 1.66667,0.85812 1.66667,1.91667z" fill="url(#color-12)"/><path d="M220.25,205.08334c0,0.7824 -0.59695,1.41667 -1.33333,1.41667c-0.73638,0 -1.33333,-0.63426 -1.33333,-1.41667c0,-0.7824 0.59695,-1.41667 1.33333,-1.41667c0.73638,0 1.33333,0.63426 1.33333,1.41667z" fill="url(#color-13)"/><path d="M246.91666,221.33334c0,1.10457 -0.7835,2 -1.75,2c-0.9665,0 -1.75,-0.89543 -1.75,-2c0,-1.10457 0.7835,-2 1.75,-2c0.9665,0 1.75,0.89543 1.75,2z" fill="url(#color-14)"/><path d="M218.75,147.33334c0,0.55228 -0.52233,1 -1.16667,1c-0.64433,0 -1.16667,-0.44772 -1.16667,-1c0,-0.55228 0.52233,-1 1.16667,-1c0.64433,0 1.16667,0.44772 1.16667,1z" fill="url(#color-15)"/><path d="M259.91666,144.75001c0,1.61083 -1.49238,2.91667 -3.33333,2.91667c-1.84095,0 -3.33333,-1.30584 -3.33333,-2.91667c0,-1.61083 1.49238,-2.91667 3.33333,-2.91667c1.84095,0 3.33333,1.30584 3.33333,2.91667z" fill="url(#color-16)"/><path d="M269.75,202.25001c0,0.7824 -0.55964,1.41667 -1.25,1.41667c-0.69036,0 -1.25,-0.63426 -1.25,-1.41667c0,-0.7824 0.55964,-1.41667 1.25,-1.41667c0.69036,0 1.25,0.63426 1.25,1.41667z" fill="url(#color-17)"/><path d="M207.25,195.91667c0,1.24264 -0.97005,2.25 -2.16667,2.25c-1.19662,0 -2.16667,-1.00736 -2.16667,-2.25c0,-1.24264 0.97005,-2.25 2.16667,-2.25c1.19662,0 2.16667,1.00736 2.16667,2.25z" fill="url(#color-18)"/></g></g></svg>