<svg version="1.1" xmlns="http://www.w3.org/2000/svg" xmlns:xlink="http://www.w3.org/1999/xlink" width="463.62332" height="270.78051" viewBox="0,0,463.62332,270.78051"><defs><radialGradient cx="3" cy="293.57292" r="43.5" gradientUnits="userSpaceOnUse" id="color-1"><stop offset="0" stop-color="#000000"/><stop offset="1" stop-color="#000000" stop-opacity="0"/></radialGradient><radialGradient cx="6" cy="133.31005" r="51.77586" gradientUnits="userSpaceOnUse" id="color-2"><stop offset="0" stop-color="#000000"/><stop offset="1" stop-color="#000000" stop-opacity="0"/></radialGradient><radialGradient cx="391.98434" cy="198.20495" r="28.63929" gradientUnits="userSpaceOnUse" id="color-3"><stop offset="0" stop-color="#000000"/><stop offset="1" stop-color="#000000" stop-opacity="0"/></radialGradient><radialGradient cx="331.91664" cy="97.43333" r="34.08791" gradientUnits="userSpaceOnUse" id="color-4"><stop offset="0" stop-color="#000000"/><stop offset="1" stop-color="#000000" stop-opacity="0"/></radialGradient></defs><g transform="translate(43.5,-61.72991)"><g data-paper-data="{&quot;isPaintingLayer&quot;:true}" fill-rule="nonzero" stroke-linecap="butt" stroke-linejoin="miter" stroke-miterlimit="10" stroke-dasharray="" stroke-dashoffset="0" style="mix-blend-mode: normal"><path d="M348.461,136.72304c-0.20419,-0.39754 -0.3281,-0.86432 -0.3394,-1.42776c-0.01451,-0.72342 -0.1843,-1.71139 0.40389,-2.13281c1.66154,-1.19045 4.15924,1.61473 5.05786,2.33822c1.93599,1.55869 3.65127,0.97978 4.60453,3.98582c0.20633,0.65065 0.23916,3.54555 -0.03322,4.15336c-0.46825,1.04492 -2.11773,1.3524 -2.39382,2.46365c-0.5414,0.41593 -0.94158,1.23526 -1.62419,1.2478c-0.66026,0.01214 -1.16745,-0.67703 -1.58477,-1.18883c-1.47717,-1.81155 -0.16188,-3.45189 -1.1997,-5.08694c-0.63563,-1.00141 -1.47496,-1.05803 -2.38245,-1.60891c-3.31934,-2.01495 -4.27576,2.94759 -4.27576,5.72438c0,0 0,1 -1,1c-1,0 -1,-1 -1,-1c0,-3.06613 1.44251,-9.46099 5.76704,-8.46798zM354.07637,145.00787c0.10694,-0.2913 0.15321,-0.62242 0.26831,-0.90836l-0.12397,-0.11801l0.08948,-0.09401c-0.14145,-0.08665 -0.27989,-0.17655 -0.41461,-0.27028c0.08776,0.61421 0.16259,1.17478 0.18079,1.39066z" fill="#161512" stroke="none" stroke-width="0.5"/><path d="M46.5,293.57292c0,21.50459 -19.47562,38.9375 -43.5,38.9375c-24.02438,0 -43.5,-17.43291 -43.5,-38.9375c0,-21.50459 19.47562,-38.9375 43.5,-38.9375c24.02439,0 43.5,17.43291 43.5,38.9375z" fill="url(#color-1)" stroke="none" stroke-width="0"/><path d="M55.5,133.31005c0,27.58108 -22.1619,49.93995 -49.5,49.93995c-27.33809,0 -49.5,-22.35888 -49.5,-49.93995c0,-27.58108 22.16191,-49.93996 49.5,-49.93996c27.3381,0 49.5,22.35888 49.5,49.93996z" fill="url(#color-2)" stroke="none" stroke-width="0"/><path d="M-21.75633,271.71479v-124.22917h56c0,0 3.83565,14.56776 2.10679,30.5105c-0.42014,3.87428 1.7282,11.22766 -3.56195,15.59706c-3.88317,3.2073 -15.46377,3.52413 -16.37156,6.15682c-1.2397,3.59528 11.82672,5.08808 11.82672,7.99604c0,2.76476 5.09997,4.95453 5.27411,8.28651c1.1749,22.48096 0.72589,55.68224 0.72589,55.68224z" fill="#3a3930" stroke="#000000" stroke-width="0.5"/><path d="M-27.75633,153.04813v-50.0625c0,0 28.01485,-4.71119 38.7749,-2.68227c2.83047,0.5337 -0.75393,5.1094 1.01756,8.84923c2.02432,4.27362 9.20755,7.73929 9.20755,7.73929c0,0 5.81831,-6.35493 9.93771,-6.57315c4.82465,-0.25557 8.06229,5.83903 8.06229,9.3544c0,9.21626 2,33.375 2,33.375z" fill="#4f4d41" stroke="#000000" stroke-width="0.5"/><path d="M-29.12563,316.21479v-47.28125h72l-5,23.17708l-10.59093,-2.86073l-3.48732,-5.92705l-8.58704,-3.61084l1.99203,11.40948l3.17953,3.8313l-7.9093,4.53445l1.99979,5.14003l7.9208,-1.31576l-12.49013,11.77598z" fill="#4f4d41" stroke="#000000" stroke-width="0.5"/><path d="M377.79738,173.48012c13.41806,-7.95426 30.64729,-3.3328 38.48253,10.32235c7.83525,13.65514 3.30947,31.17303 -10.1086,39.12729c-13.41806,7.95426 -30.64728,3.33279 -38.48253,-10.32235c-7.83525,-13.65514 -3.30948,-31.17301 10.10859,-39.12729z" data-paper-data="{&quot;index&quot;:null}" fill="url(#color-3)" stroke="none" stroke-width="0"/><path d="M313.7209,65.72208c15.26883,-9.0514 35.79318,-2.19141 45.84241,15.32222c7.76842,13.53866 7.00299,29.48055 -0.79812,40.20096l-0.70782,-1.61804c0,0 -1.38217,-3.0893 -4.13759,-1.89979c-2.75542,1.18951 -1.37324,4.27882 -1.37324,4.27882l1.06659,2.3129c0.11619,0.63004 0.07968,1.31867 0.17646,1.95616c-1.69695,0.27308 -3.45095,0.81156 -4.54207,2.10571c-0.28292,0.33556 -0.49236,0.90196 -0.63482,1.59318c-15.08774,7.7662 -34.61898,0.79451 -44.34272,-16.15185c-10.04923,-17.51364 -5.81791,-39.04885 9.45093,-48.10026z" data-paper-data="{&quot;index&quot;:null}" fill="url(#color-4)" stroke="none" stroke-width="0"/><path d="M367.73041,195.44335l-4.74286,-13.86125l-9.9682,-9.32518c0,0 -3.62181,-9.39548 -5.17148,-12.41142c-1.11675,-2.17342 0.93382,-5.25245 -0.07352,-7.00804c-0.35531,-0.61925 0.16811,-1.62399 0.94533,-2.75663c0.77629,-0.55665 1.10742,-1.46882 1.14675,-1.58367c1.34654,-1.8314 2.62858,-3.69091 1.59999,-4.6528c-0.10849,-0.10145 -0.245,-0.17551 -0.40613,-0.22597c0.02486,-0.03705 0.05895,-0.06684 0.10479,-0.08757c1.56102,-0.70626 4.01928,0.32839 5.06199,-1.07839c0.88642,-1.19591 0.29671,-3.0777 0.02593,-4.77531c1.22757,0.56365 2.45513,1.12727 3.6827,1.69092l1.73814,0.49099c0,0 3.05456,0.76276 3.46978,-2.45856c0.41523,-3.22132 -2.63934,-3.98409 -2.63934,-3.98409l-0.62652,-0.0995c-0.4042,-0.18559 -0.8084,-0.37118 -1.21261,-0.55677c0.85001,-0.17068 1.56234,-0.52174 1.96502,-1.30628c0.7705,-1.50119 -1.14162,-3.47388 -1.59392,-5.23752c-0.22132,-0.86302 -0.28124,-1.74843 -0.42186,-2.62265l-1.39674,-3.19287c0,0 -1.38217,-3.0893 -4.13759,-1.89979c-2.75542,1.18951 -1.37324,4.27882 -1.37324,4.27882l1.06659,2.3129c0.11619,0.63004 0.07968,1.31867 0.17646,1.95616c-1.69695,0.27308 -3.45095,0.81156 -4.54207,2.10571c-1.11645,1.32418 -1.08863,6.24316 -0.31638,8.24135c0.16242,0.42025 1.43652,0.72636 1.04286,0.8108c-1.22675,0.26311 -2.77922,-0.87269 -3.83651,-0.21163c-1.07957,0.675 -2.39184,4.91308 -3.02306,6.97626c-1.55443,0.38844 -3.06205,0.63897 -4.19536,0.38398c-4.54665,-1.02298 -6.02598,-6.4036 -7.67224,-8.7246c-6.77437,-9.55102 -9.93989,-20.07131 -9.93989,-20.07131l31.27705,-18.54111l32.06611,55.8843c-3.476,-2.16261 -11.39275,-3.93441 -12.9024,0.59295c-2.30801,6.9216 2.56165,8.23408 6.81478,7.97184c0.7747,-0.04776 0.9941,-1.50783 1.77742,-1.46066c0.68582,0.0413 0.82452,1.49867 1.5059,1.65836c0.57517,0.13481 1.16042,0.23875 1.74733,0.30545c0.26949,0.684 0.61149,1.28659 1.19138,1.63847c0.32406,0.19665 0.6576,0.36062 0.99837,0.49959l-0.0933,0.22522l2.46589,1.37601c0.55089,0.31759 1.17861,0.47375 1.81512,0.41175c0.70848,-0.06901 1.31421,-0.39724 1.75318,-0.89107l6.12338,10.67172l-4.30329,19.95767c0,0 -7.40791,1.47226 -10.55335,0.85042c-3.17455,-0.62759 -8.40741,-4.59883 -8.40741,-4.59883z" data-paper-data="{&quot;index&quot;:null}" fill="#3a3930" stroke="#000000" stroke-width="0.5"/><path d="M319.42401,121.63564c0,0 -7.68525,-16.00267 -11.04321,-21.85488c-1.28083,-2.23221 -1.69313,-7.17416 1.09464,-8.60928c2.38028,-1.22533 7.94534,0.88358 7.94534,0.88358c0,0 2.74923,-4.57897 2.32275,-7.96289c-0.37321,-2.96128 -4.04233,-4.68002 -2.65591,-5.95605c5.27044,-4.8509 22.6338,-11.13482 22.6338,-11.13482l18.24039,31.78904z" data-paper-data="{&quot;index&quot;:null}" fill="#4f4d41" stroke="#000000" stroke-width="0.5"/><path d="M385.15817,209.22352l-5.34096,0.896l-1.62842,-5.11247c0,0 4.80751,-2.65962 4.88511,-4.44187c0.07083,-1.62682 -4.43797,-5.82796 -4.43797,-5.82796l8.70289,-2.34194l2.22162,-3.36617l5.2413,-0.49244l4.7092,-10.28944l18.38734,25.76856c0,0 -6.94006,1.63212 -16.77818,4.24907c0,0 -5.30449,-4.36907 -7.7839,-4.22016c-2.80174,0.16827 -8.17804,5.17883 -8.17804,5.17883z" data-paper-data="{&quot;index&quot;:null}" fill="#4f4d41" stroke="#000000" stroke-width="0.5"/><path d="M18.95187,142.78871v-1.1535c0,-0.608 -0.01336,-1.21994 -0.03225,-1.83376c-0.84992,0.08505 -1.89143,0.28608 -2.351,0.17631c-1.06602,-0.25462 -2.95521,-1.23485 -4.10874,-0.89685c-0.20054,0.05876 0.26805,0.34681 0.29289,0.5543c0.1414,1.18103 0,2.37893 0,3.5684c0,2.3845 0,4.769 0,7.1535c0,0 0,0.63356 -0.5043,0.8921h0.13499c1.17329,0 4.1882,0.52141 5.29362,0.07612c1.1352,-0.45729 1.30153,-4.51699 1.30153,-5.61288c0.13881,-0.27761 0.44882,-1.04767 0.74113,-1.94385c-0.76788,-0.14134 -0.76788,-0.97989 -0.76788,-0.97989zM20.68754,126.80126c0.48309,-0.04037 2.69854,-0.28706 3.2881,-0.12023c6.51862,1.8446 3.27872,9.31402 3.28323,14.21558c0.00193,2.10383 0.86407,7.08297 -1.24801,8.49228c-0.54399,0.36299 -1.23145,-0.45872 -1.87383,-0.58133c-1.00707,-0.19222 -2.31763,0.00327 -3.3764,0.02486c-0.25119,1.76887 -0.86524,3.5487 -2.31817,4.34067c-1.16729,0.63627 -4.76187,0.07612 -6.05899,0.07612h-1.2614c0,0 -1,0 -1,-1c0,-1 1,-1 1,-1h0.135c-0.5043,-0.25853 -0.5043,-0.8921 -0.5043,-0.8921c0,-2.94326 0,-5.88653 0,-8.8298c0,-0.37764 -0.09282,-3.55901 0.29289,-3.86061c1.52038,-1.18883 4.49393,-0.0275 5.98246,0.36456c0.49391,0.13009 1.15598,0.03103 1.82658,-0.05862c-0.14069,-3.90095 -0.19277,-7.79704 1.83283,-11.17138zM24.59652,146.86106c0.29753,0.09826 0.38792,0.85339 0.64896,0.68007c0.31344,-0.2081 0.02454,-0.75217 0.0263,-1.1284c0.0086,-1.83831 -0.01453,-3.67765 -0.01291,-5.51612c0.0023,-2.60653 0.63297,-5.07189 0.6307,-7.6763c-0.00093,-1.06887 0.67493,-2.29193 0.11832,-3.20444c-0.78812,-1.29207 -3.0288,-1.26156 -4.26889,-1.51331c-0.92672,3.03464 -0.92023,6.27876 -0.84892,9.52757c0.07699,0.03437 0.14992,0.07531 0.21822,0.12373c2.2449,1.59172 0.75102,6.1497 -0.18318,8.0181c0,0.20835 -0.00219,0.42749 -0.00792,0.65463c1.11754,-0.04621 2.74514,-0.27407 3.67932,0.03447z" fill="#3e3c33" stroke="none" stroke-width="0.5"/><path d="M9.15356,100.4554c0.70711,-0.7071 1.41421,0 1.41421,0l0.92359,1.33781c-0.04093,2.28172 -1.2133,3.72904 -1.75764,5.77715c-0.46002,1.73086 2.22978,1.54403 2.86969,2.52692c0.86101,1.32248 -0.13367,3.59543 0.67447,5.12412c0.47977,0.99999 1.51642,2.48091 0.44338,3.67712c-0.44298,0.49383 -1.30783,0.23298 -1.96851,0.2929c-1.78797,0.16214 -5.89263,1.52683 -7.44772,0.49086c-1.71349,-1.1415 -1.12067,-3.60899 -1.12067,-5.27506c0,-4.4149 0,-8.8298 0,-13.2447c0,0 0,-1 1,-1c1,0 1,1 1,1c0,4.4149 0,8.8298 0,13.2447c0,0.61438 -0.43107,3.30634 0.14072,3.55474c0.85201,0.37014 3.11772,-0.63586 3.74469,-0.75763c2.21416,-0.43005 3.70773,1.34881 2.41925,-1.0885c-0.44121,-0.91961 -0.72636,-1.95009 -0.73627,-2.97002c-0.00648,-0.66751 0.5359,-1.45283 0.14935,-1.99707c-0.52373,-0.73737 -1.96843,-0.39721 -2.45219,-1.1614c-0.49963,-0.78925 -0.77025,-1.78408 -0.69386,-2.71505c0.1498,-1.82548 1.78787,-3.4517 1.7353,-5.47908l-0.3378,0.07641c0,0 -0.70711,-0.70711 0,-1.41421z" fill="#3e3c33" stroke="none" stroke-width="0.5"/><path d="M7.33787,141.89661c-1,0 -1,-1 -1,-1v-0.4149c0,-3.20676 -0.72036,-5.71659 -1.24779,-8.8812c0,0 -0.1644,-0.98639 0.822,-1.15079c0.98639,-0.1644 1.15079,0.82199 1.15079,0.82199c0.54157,3.24943 1.27501,5.88641 1.27501,9.21v0.4149c0,0 0,1 -1,1z" fill="#3e3c33" stroke="none" stroke-width="0.5"/><path d="M14.27557,134.32821c-1,0 -1,-1 -1,-1c0,-1.29737 0,-4.37893 0,-5.6763c0,0 0,-1 1,-1c1,0 1,1 1,1c0,1.29737 0,2.59473 0,3.8921v1.7842c0,0 0,1 -1,1z" fill="#3e3c33" stroke="none" stroke-width="0.5"/><path d="M30.67377,130.54401c-1,0 -1,-1 -1,-1v-0.0912c0,-4.62131 0.91819,-10.33993 -0.57938,-14.72937c0,0 -0.31623,-0.94868 0.63246,-1.26492c0.94869,-0.31623 1.26491,0.63246 1.26491,0.63246c1.52743,4.67551 0.68201,10.46021 0.68201,15.36183v0.0912c0,0 0,1 -1,1z" fill="#3e3c33" stroke="none" stroke-width="0.5"/><path d="M-5.27613,126.12911c-1,0 -1,-1 -1,-1c0,-2.5228 0,-6.307 0,-8.8298c0,0 0,-1 1,-1c1,0 1,1 1,1c0,2.5228 0,5.0456 0,7.5684v1.2614c0,0 0,1 -1,1z" fill="#3e3c33" stroke="none" stroke-width="0.5"/><path d="M0.40017,153.8799c-1,0 -1,-1 -1,-1c0,-5.25583 0,-12.40376 0,-17.65959c0,-0.87733 0.58946,-1.86881 0.14935,-2.62777c-0.37926,-0.65404 -1.53668,-0.0854 -2.23821,-0.3673c-0.67389,-0.27079 -1.21897,-0.78991 -1.82797,-1.18562c-0.34117,-0.22169 -1.09234,-0.73081 -1.1745,-0.33232c-1.26948,6.15694 -0.47707,13.32644 -0.47707,19.64981c0,0 0,1 -1,1c-1,0 -1,-1 -1,-1c0,-5.53177 -0.34445,-11.15979 0.49658,-16.59768c0.05774,-0.37337 0.16437,-3.93767 0.28774,-4.11731c1.85083,-2.69494 3.67557,0.02615 5.37133,0.70087c1.0767,0.4284 2.60206,0.24656 3.2634,1.19809c0.20188,0.29046 0.14935,3.43153 0.14935,3.67923c0,5.25583 0,10.51167 0,15.7675v1.89209c0,0 0,1 -1,1z" fill="#3e3c33" stroke="none" stroke-width="0.5"/><path d="M5.0788,281.3592c-0.13977,0.27954 -0.32322,0.42804 -0.50941,0.50009c0.09854,2.59789 0.61496,5.22687 0.61498,7.8825c0,0.26043 0.06415,3.47167 -0.18876,3.73821c-1.983,2.0899 -5.66043,0.90927 -7.90912,0.40238c-0.55119,-0.12425 -1.29433,0.23146 -1.68593,-0.17585c-0.66132,-0.68787 -0.93994,-1.71659 -1.04525,-2.66496c-0.15487,-1.39459 0.60354,-2.74144 0.84985,-4.12282c0.35138,-1.97072 0.40036,-3.79586 0.4098,-5.79571c0.09805,-0.72659 -0.26323,-1.70346 0.29415,-2.17979c1.12664,-0.96282 4.29636,-0.55251 6.27026,0.01482c-0.87373,-2.75697 -0.04326,-6.75955 -0.83577,-9.08244c0,0 -0.31623,-0.94868 0.63246,-1.26491c0.94869,-0.31623 1.26491,0.63245 1.26491,0.63245c0.88094,2.69657 0.22904,5.02531 0.6691,7.72445c0.13891,0.85199 0.04686,2.04127 0.80004,2.46303c1.14152,0.63923 3.77268,0.47541 5.15057,0.48135c0.31117,0.00134 2.12734,0.09824 2.34225,-0.21541c0.60388,-0.88131 -0.18876,-2.13114 -0.18876,-3.19949c0,-1.85719 -0.02076,-3.69777 0.10653,-5.55088l-0.96452,-0.58427c0,0 -0.80255,-0.59659 -0.20595,-1.39914c0.5966,-0.80255 1.39914,-0.20595 1.39914,-0.20595l1.55828,1.29113c0.12017,2.7627 0.22601,5.57561 0.10652,8.34121c-0.03574,0.82722 0.31982,1.82341 -0.18876,2.47681c-1.71199,2.19952 -6.59072,0.92802 -8.60939,0.38854c-0.0273,-0.00729 -0.05497,-0.01327 -0.08297,-0.01809c-0.01529,0.03994 -0.03329,0.08085 -0.05424,0.12275zM2.55742,281.21655l-0.08167,-0.04083c-1.20372,-0.63635 -5.3683,-1.38592 -4.86081,-0.04723c-0.01342,2.78671 -0.19122,5.41273 -0.79737,8.14333c-0.07553,0.34025 -0.89198,2.23494 -0.24759,2.81223c0.21231,0.1902 0.5557,-0.22271 0.83687,-0.17584c0.65577,0.1093 1.24101,0.49632 1.8921,0.6307c0.83242,0.1718 3.40023,0.3513 4.07418,-0.22832c0.65094,-0.55984 -0.18876,-1.71022 -0.18875,-2.56879c0.00002,-2.89278 -0.57299,-5.69525 -0.62695,-8.52524z" fill="#3e3c33" stroke="none" stroke-width="0.5"/><path d="M13.64487,309.66279c-1,0 -1,-1 -1,-1v-0.6307c0.01238,-0.76929 0.5221,-1.94016 -0.15643,-2.30285c-0.84065,-0.44935 -4.50691,0.03397 -5.62109,0.13644c-0.41885,0.03852 -0.98351,-0.10424 -1.24104,0.22832c-0.64176,0.82873 0.63774,2.00482 0.80654,3.03931c0.01688,0.10345 0.01292,3.74632 0.01292,3.94439c0,0 0,1 -1,1c-1,0 -1,-1 -1,-1c0,-1.73471 -1.38506,-6.88012 -0.44195,-8.15311c1.26678,-1.70987 5.97339,-1.11807 7.74894,-1.04599c0.5973,0.02425 1.29949,-0.19641 1.78713,0.14935c1.41095,1.00041 1.08755,2.62237 1.10497,4.00415v0.6307c0,0 0,1 -1,1z" fill="#3e3c33" stroke="none" stroke-width="0.5"/><path d="M32.30214,285.1434c-0.44721,-0.89443 0.44721,-1.34164 0.44721,-1.34164l0.85797,-0.262c-0.53124,-3.08897 1.11205,-6.93202 1.11205,-10.19617c0,0 0,-1 1,-1c1,0 1,1 1,1c0,3.90049 -1.08132,7.39602 -1.41075,11.24763l-1.66484,0.9994c0,0 -0.89442,0.44721 -1.34164,-0.44722z" fill="#3e3c33" stroke="none" stroke-width="0.5"/><path d="M30.9375,280.09781c-0.44721,0.89443 -1.34164,0.44722 -1.34164,0.44722l-1.2614,-0.6307c0,0 -0.28751,-0.14376 -0.45501,-0.43127c0.00662,0.05247 0.01013,0.10825 0.01013,0.16755c0,1 -1,1 -1,1l-1.07791,-0.10557c-2.25101,-1.35127 -1.81419,-2.21128 -1.81419,-4.67863c0,0 0,-1 1,-1c1,0 1,1 1,1c0,1.33523 -0.73032,2.45035 0.70862,2.88977l0.18349,-0.10557c0,0 0.607,0 0.87517,0.47292c-0.01286,-0.15949 0.01864,-0.3431 0.1225,-0.55083c0.44721,-0.89443 1.34164,-0.44721 1.34164,-0.44721l1.2614,0.6307c0,0 0.89443,0.44721 0.44721,1.34164z" fill="#3e3c33" stroke="none" stroke-width="0.5"/><path d="M13.46138,303.88092c-0.89442,0.44722 -1.34164,-0.44721 -1.34164,-0.44721l-0.6307,-1.2614c-0.2365,-0.49295 -0.60994,-0.94126 -0.70952,-1.47886c-0.5605,-3.02594 1.1117,-4.75135 3.81999,-5.59643c0.37713,-0.11768 0.86781,0.12552 1.17938,-0.11738c0.89483,-0.69761 1.45993,-1.82035 2.46437,-2.34806c0,0 0.89442,-0.44722 1.34164,0.44721c0.44721,0.89443 -0.44721,1.34164 -0.44721,1.34164c-0.96609,0.44848 -1.41601,1.61482 -2.27724,2.24154c-2.09325,1.52326 -5.66952,0.66817 -3.58255,4.61592l0.6307,1.2614c0,0 0.44721,0.89443 -0.44721,1.34164z" fill="#3e3c33" stroke="none" stroke-width="0.5"/><path d="M38.29558,273.78845c0.81654,-0.57729 1.39383,0.23926 1.39383,0.23926l0.10683,0.15111c1.56694,2.31512 1.34573,3.59898 1.31127,6.33223c-1.42645,2.97317 -1.90364,5.73402 -2.5228,8.8298c-0.31618,1.5809 0.67598,2.5306 -1.07822,3.77439c-0.21496,0.15242 -2.58987,0.17182 -3.04853,0.14935c-0.59707,-0.02925 -1.27255,0.15487 -1.78713,-0.14935c-0.44621,-0.2638 -0.34534,-1.04577 -0.76017,-1.35659c-0.53204,-0.39864 -1.36536,-0.22508 -1.8921,-0.6307c-1.87034,-1.44026 -2.097,-4.93019 -5.0211,-4.80106c0,0 -1,0 -1,-1c0,-1 1,-1 1,-1c4.07723,0.11278 3.77965,3.43417 6.3315,5.29014c0.53765,0.39103 1.36045,0.23154 1.8921,0.6307c0.33837,0.25405 0.17439,0.89751 0.50123,1.16621c0.70365,0.57848 1.92939,0.42942 2.73274,0c0.74646,-0.399 0.01718,-1.70263 0.18318,-2.5326c0.60668,-3.03337 0.99456,-5.93897 2.5228,-8.8298c-0.03359,-2.08713 0.28684,-3.00367 -0.99786,-4.71815l-0.10684,-0.15111c0,0 -0.57728,-0.81654 0.23926,-1.39382z" fill="#3e3c33" stroke="none" stroke-width="0.5"/><path d="M35.98077,140.89661c0,-1 1,-1 1,-1l1.96851,0.29289c0.44892,3.91073 1.09982,6.57983 0.26615,10.39736c-0.15586,0.71368 0.25955,1.5655 -0.1226,2.18808c-0.66019,1.07556 -2.52363,1.30652 -3.60321,1.07822c-3.39789,-0.71859 -6.88233,-0.60395 -10.49214,-0.60395c0,0 -1,0 -1,-1c0,-1 1,-1 1,-1c2.73263,0 5.46662,-0.02656 8.1991,0c0.41152,0.004 3.99644,1.15626 4.19495,0.47427c0.96189,-3.30468 -0.51903,-6.93637 0.14355,-10.11976l-0.5543,0.29289c0,0 -1,0 -1,-1z" fill="#3e3c33" stroke="none" stroke-width="0.5"/><path d="M320.08864,97.9326c0.70711,-0.7071 1.41421,0 1.41421,0l0.37081,0.44338c0.42816,0.2185 0.83663,0.47579 1.22712,0.7602c0.05147,-0.24086 0.02148,-0.52606 -0.11525,-0.86024c-0.35888,-0.87719 -0.92259,-1.7245 -1.46917,-2.57182c-0.05521,-0.03912 -0.11076,-0.08595 -0.16632,-0.14151c-0.21188,-0.21188 -0.29678,-0.42376 -0.31178,-0.61661c-0.18237,-0.30001 -0.35437,-0.60113 -0.50624,-0.90468c-0.42068,-0.84082 -0.99219,-1.62198 -1.2614,-2.5228c-0.07026,-0.23511 0.25971,-0.83156 0.03397,-0.73537c-0.84976,0.36212 -1.37602,1.29576 -2.23256,1.64153c-0.20493,0.41527 -0.40985,0.83056 -0.61478,1.24583l-0.16062,0.08637c0.37029,0.85401 0.66303,1.74283 1.00809,2.60805c0.26864,0.67357 1.06646,2.99034 1.62342,3.41143c0.41994,0.3175 1.32471,0.50213 2.18698,0.45667c-0.04505,-0.02326 -0.09035,-0.046 -0.1359,-0.06819l-0.89059,-0.81802c0,0 -0.70711,-0.70711 0,-1.41422zM324.76048,100.5778c1.1624,2.67091 4.26472,1.10401 6.70602,1.31807c-0.00891,-0.00879 -0.01733,-0.01754 -0.02526,-0.02625c-0.43914,-0.48212 -0.7108,-1.11371 -0.89684,-1.73875c-0.4631,-1.55584 -1.13705,-2.51447 -1.84273,-4.26197c-0.27819,-0.68888 -0.18203,-1.75838 -0.86325,-2.05483c-1.43284,-0.62353 -3.04855,0.09471 -4.23829,1.00987c0.9178,1.73618 1.61485,3.52355 1.32237,4.67623c-0.08465,0.33361 -0.19901,0.63421 -0.33854,0.90336c0.0593,0.05778 0.11814,0.11588 0.17653,0.17427zM328.88987,92.11276c0.57169,0.30351 0.68535,1.09887 0.9994,1.66484c1.04958,1.89151 2.23451,3.94403 2.60162,5.89376c0.26464,1.40553 3.93308,1.59741 2.4002,3.90899c-0.51277,0.77325 -1.81953,0.38194 -2.74275,0.47426c-3.05966,0.30596 -7.28566,0.67808 -8.96304,-2.22346c-2.08821,1.11416 -5.29272,0.04616 -6.43748,-2.11353c-0.88503,-1.66967 -1.46351,-3.4259 -2.25331,-5.11906c-0.29041,0.01662 -0.65987,-0.07661 -0.90019,-0.55724c-0.44722,-0.89442 0.44722,-1.34164 0.44722,-1.34164l1.0015,-0.44338c0.21554,-0.42566 0.43108,-0.85131 0.64662,-1.27697c1.38421,-0.66228 2.55298,-2.34222 4.07444,-2.14267c0.72958,0.09569 0.90238,1.16535 1.29537,1.78744c0.39217,0.62077 0.96756,1.49519 1.55776,2.47299c1.79278,-1.25292 4.21352,-2.0775 6.27264,-0.98432z" fill="#3e3c33" stroke="none" stroke-width="0.5"/><path d="M330.88694,68.62751c1,0 1,1 1,1l-0.55278,-0.26373c3.3819,1.69095 4.22321,4.01375 4.94093,7.60237c0.23863,1.19312 1.56054,3.44125 0.36455,4.72106c-0.41647,0.44565 -1.21445,0.14085 -1.80832,0.27998c-1.78573,0.41836 -3.89133,0.85026 -5.33053,-0.96259c-1.87487,-2.36162 -2.39631,-5.12164 -3.34673,-7.90738c0,0 -0.31623,-0.94868 0.63245,-1.26491c0.94869,-0.31623 1.26491,0.63246 1.26491,0.63246c0.34088,1.04344 0.40608,3.243 1.12396,4.14642c0.74416,0.93649 1.15627,2.09897 1.83631,3.08301c0.90843,1.31451 2.49426,0.4428 3.49926,0.29882c0.2532,-0.03628 0.50007,0.41948 0.71447,0.27998c0.18101,-0.11778 -0.88659,-2.79606 -0.89684,-2.84734c-0.62008,-3.10039 -1.12394,-4.89056 -3.88887,-6.27302l-0.55279,-1.52513c0,0 0,-1 1,-1z" fill="#3e3c33" stroke="none" stroke-width="0.5"/><path d="M346.02031,88.69661c-0.7788,0.62727 -1.40607,-0.15154 -1.40607,-0.15154l-0.92796,-1.15911c-1.40882,-2.62282 -3.62712,-5.99971 -3.70814,-8.92865c0,0 0,-1 1,-1c1,0 1,1 1,1c-0.1014,2.29617 2.25444,5.71466 3.37619,7.82519l0.81751,1.00803c0,0 0.62727,0.7788 -0.15153,1.40607z" fill="#3e3c33" stroke="none" stroke-width="0.5"/><path d="M334.04044,92.07131c-1,0 -1,-1 -1,-1l0.10557,-0.18349c-0.42046,-0.84094 -0.84094,-1.68187 -1.2614,-2.5228c0,0 -0.44721,-0.89442 0.44721,-1.34164c0.89443,-0.44721 1.34164,0.44721 1.34164,0.44721c0.42046,0.84094 0.84094,1.68187 1.2614,2.5228l0.10557,1.07791c0,0 0,1 -1,1z" fill="#3e3c33" stroke="none" stroke-width="0.5"/><path d="M322.76425,111.96082c-0.70711,0.7071 -1.41421,0 -1.41421,0l-0.8229,-0.9005c-0.87909,-1.80782 -1.56816,-3.30024 -1.97337,-5.28679c0,0 -0.19611,-0.98059 0.78447,-1.1767c0.98058,-0.19612 1.17669,0.78447 1.17669,0.78447c0.35555,1.8188 1.00736,3.1521 1.81083,4.80441l0.43849,0.3609c0,0 0.70711,0.70711 0,1.41421z" fill="#3e3c33" stroke="none" stroke-width="0.5"/><path d="M339.40227,97.06033c0.94869,0.31623 0.63245,1.26491 0.63245,1.26491l-0.6555,1.95855c-0.43748,0.83417 -0.56973,1.82901 -0.55458,2.77081c0,0 0,1 -1,1c-1,0 -1,-1 -1,-1c0.01515,-1.20195 0.18591,-2.45287 0.70682,-3.53618l0.6059,-1.82564c0,0 0.31622,-0.94868 1.26491,-0.63245z" fill="#3e3c33" stroke="none" stroke-width="0.5"/><path d="M402.78674,186.5684c0.55228,0 1,0.44771 1,1c0,0.10291 -0.01555,0.20219 -0.04442,0.29561c0.02824,0.09689 0.04442,0.2079 0.04442,0.33508c0,1 -1,1 -1,1l-0.5543,-0.29289c0.03471,0.37967 0.3751,0.8708 0.10413,1.139c-0.47251,0.46768 -1.45322,0.13133 -1.8921,0.6307c-0.29068,0.33074 0.17117,0.86743 0.18876,1.30739c0.07867,1.96734 0.47841,2.05689 1.75365,3.24793c1.49717,0.01558 3.24025,0.95462 4.72758,2.03211c0.27586,-0.00368 0.55133,0.00083 0.82577,0.02696c0.37039,0.03526 0.83144,0.57234 1.07709,0.29289c0.18534,-0.21085 -0.46916,-2.65325 -0.6307,-3.00069l-1.00151,-0.44338c0,0 -0.89443,-0.44721 -0.44721,-1.34164c0.44722,-0.89443 1.34164,-0.44721 1.34164,-0.44721l1.5213,0.81802c0.62708,1.21576 1.90567,4.50473 0.6307,5.82911c-0.10507,0.10914 -0.48492,0.1794 -0.98415,0.22422c0.2201,0.21276 0.41204,0.40838 0.57022,0.57809l0.07612,2.27479c0,0 0,0.07036 -0.01866,0.17375c0.24514,-0.54306 0.91077,-0.54306 0.91077,-0.54306h1.8921c0,0 1,0 1,1c0,1 -1,1 -1,1h-1.8921c0,0 -1,0 -1,-1c0,-0.0719 0.00517,-0.13864 0.01477,-0.20057c-0.02837,0.06844 -0.06539,0.13867 -0.11369,0.20541c-0.25946,0.53327 -0.39504,1.1941 -0.89815,1.47652c-0.49901,0.28011 -1.1876,-0.37549 -1.71073,-0.14355c-0.2523,0.11187 0.33696,0.51729 0.26614,0.78405c-0.17306,0.65186 -0.40807,1.38392 -0.94874,1.7871c-1.08072,0.80588 -2.72884,0.53764 -4.03845,0.21779c-0.63362,-0.15475 -1.24838,-0.33205 -1.83963,-0.539c-0.3784,0.00581 -0.73736,-0.04272 -1.03813,-0.2537c-0.10615,-0.07446 -0.19037,-0.16555 -0.25888,-0.26875c-2.12031,-0.98029 -3.84374,-2.47451 -4.90912,-4.88098c-1.79132,-1.0917 -2.20604,3.59933 -2.98811,4.40209c-2.42455,2.4887 -7.79232,2.80934 -10.1342,0.74765c-0.54451,-0.47936 -1.70777,-0.66446 -1.67529,-1.38917c0.1053,-2.34969 2.46762,-1.44267 3.52638,-2.09421c0.74842,-0.46058 1.15269,-3.03026 1.81072,-3.71126c0.54667,-0.56575 1.38631,-0.91283 1.70478,-1.6322c0,0 0.44721,-0.89443 1.34164,-0.44721c0.89443,0.44721 0.44721,1.34164 0.44721,1.34164c-0.4724,0.87855 -1.35891,1.46216 -2.07942,2.15199c-0.95221,0.91168 -0.84085,3.03886 -1.97348,3.85713c-0.462,0.33378 -1.04223,0.45373 -1.61972,0.54209c0.40515,0.37489 0.72946,0.9002 0.74598,0.90749c1.10215,0.48658 5.67524,-0.82955 6.46603,-1.66252c1.49534,-1.57511 0.54866,-5.3513 3.87319,-5.3513c0.7248,0 1.31234,0.61572 1.9685,0.92359c0.41053,0.76349 0.83696,1.42247 1.29564,1.99524c-0.39008,-0.73478 -0.64427,-1.48669 -0.46703,-2.07901c0.40918,-1.3674 2.34354,-1.63099 3.48539,-2.48737c0.20101,-0.15076 0.27827,-0.41687 0.35662,-0.67883c-1.64934,-1.77961 -3.40871,-4.27767 -1.77406,-6.71882c0.36991,-0.5524 1.42415,-0.15847 1.8921,-0.6307c0.3256,-0.32857 0.06942,-0.92253 0.10413,-1.38379l0.99376,-0.14786c0.10181,-0.44431 0.49957,-0.77573 0.97476,-0.77573zM405.94024,199.2903c0,0 -0.81104,0 -0.97231,-0.7304c-0.39283,-0.17328 -0.83436,-0.37025 -1.367,-0.63657c-0.2873,-0.14365 -0.62359,-0.4745 -0.93213,-0.65729c-0.25976,0.17233 -0.5106,0.17729 -0.71657,0.12277c-0.16794,0.32385 -0.1101,0.80702 -0.40239,1.02624c-0.8281,0.62107 -2.6912,0.26996 -2.82161,1.29683c-0.12687,0.99899 1.34935,2.38532 1.75566,3.09829c0.20569,0.36092 0.06923,0.8919 0.17187,1.28286c0.27591,0.12169 0.56328,0.23506 0.86327,0.34145c0.21399,-0.07459 0.43612,-0.17747 0.637,-0.20647c0,0 0.77685,-0.00001 0.96113,0.6847c0.71819,0.20368 1.59044,0.62961 2.16787,0.19054c0.67428,-0.51272 -0.08121,-1.94346 0.5788,-2.47445c0.39753,-0.31983 1.07375,-0.3238 1.60276,-0.45343c-0.00234,-0.03243 -0.00355,-0.06604 -0.00355,-0.10086c0,-0.62131 0.38602,-0.85659 0.67839,-0.9457l0.02843,-0.56373c-0.67381,-0.60437 -1.19283,-0.98145 -1.68635,-1.27053c-0.24716,-0.00193 -0.43867,-0.00424 -0.54327,-0.00424z" fill="#3e3c33" stroke="none" stroke-width="0.5"/><path d="M383.49644,196.3982c0,-0.55229 0.44772,-1 1,-1c0.55228,0 1,0.44771 1,1c0,0.55229 -0.44772,1 -1,1c-0.55228,0 -1,-0.44771 -1,-1z" fill="#3e3c33" stroke="none" stroke-width="0.5"/><path d="M388.80298,191.94036c0.67365,-0.73906 1.4127,-0.06541 1.4127,-0.06541l0.73976,0.68971c2.06043,1.40575 3.05367,3.06105 5.34081,4.20052c0,0 0.89443,0.44721 0.44721,1.34164c-0.44722,0.89443 -1.34164,0.44721 -1.34164,0.44721c-2.36061,-1.18418 -3.46542,-2.97157 -5.55579,-4.32528l-0.97764,-0.87569c0,0 -0.73906,-0.67364 -0.06541,-1.4127z" fill="#3e3c33" stroke="none" stroke-width="0.5"/><path d="M399.63324,181.5228c1,0 1,1 1,1c0,0.66666 0,2.48684 0,3.1535c0,0 0,1 -1,1c-1,0 -1,-1 -1,-1c0,-0.66666 0,-1.33334 0,-2v-1.1535c0,0 0,-1 1,-1z" fill="#3e3c33" stroke="none" stroke-width="0.5"/><path d="M8.18692,165.59629c0.16833,0.2742 0.17253,3.48495 0.23166,3.82736c0.70462,4.07962 1.81138,7.62945 1.81138,11.83775c-0.04978,0.59571 0.17681,1.28616 -0.14935,1.78713c-1.22286,1.87828 -5.18509,2.51602 -7.15765,2.36637c-0.86938,-0.06596 -1.91236,0.24417 -2.59921,-0.29289c-0.62034,-0.48506 -0.29289,-4.30595 -0.29289,-5.01411c0,-4.87133 0,-9.74267 0,-14.614c0,0 0,-0.06337 0.01595,-0.15822c-0.45227,-0.06359 -0.93962,-0.10318 -1.53875,-0.10318h-0.6307c0,0 -0.81697,0 -0.97405,-0.73843c-2.58969,-0.12115 -5.73535,-0.47338 -6.77489,-1.56896c-0.42577,-0.44872 -0.15566,-1.22842 -0.18876,-1.84611c-0.10065,-1.8783 0,-3.79546 0,-5.6763c0,0 0,-1 1,-1c1,0 1,1 1,1c0,0.65781 -0.48784,6.09576 -0.18876,6.35299c0.71383,0.61393 3.78486,0.15373 4.44418,0.22062c0.67895,0.06888 4.30617,1.22956 4.89039,0.8081c0.7436,-0.53644 -0.37798,-2.64677 -0.411,-2.80663c-0.42372,-2.05127 -0.82968,-4.81627 -1.79944,-6.65067l0.26373,0.55279c0,0 -1,0 -1,-1c0,-1 1,-1 1,-1l1.52513,0.55279c0.49671,1.03528 0.4974,2.24245 0.70952,3.37096c0.40346,2.14648 2.91168,5.25796 1.66297,7.63329c2.17421,0.25785 4.34115,0.84091 5.15054,2.15936zM2.03087,165.71722c0,4.7969 0,9.59378 0,14.39068c0,1.0152 0.16167,2.04336 0,3.0456c-0.03328,0.2063 -0.49344,0.49553 -0.2929,0.55429c1.43849,0.4215 6.81703,-0.84534 6.49199,-2.44639c0,-4.09008 -1.11607,-7.52817 -1.78304,-11.50226c-0.17139,-1.02122 0.564,-2.21199 0.04189,-3.10623c-0.5082,-0.87041 -3.11573,-0.70127 -3.72603,-0.80262c-0.26338,-0.04373 -0.50513,-0.08855 -0.73191,-0.13307z" fill="#161512" stroke="none" stroke-width="0.5"/><path d="M15.432,234.46015c-1.42773,0.08819 -5.65449,0.74605 -6.90914,-0.14355c-0.61955,-0.43929 -0.91962,-4.52667 -0.92359,-5.12201c-0.02381,-3.57361 0,-7.14821 0,-10.7219c0,-0.76672 -0.07062,-4.0264 0.29289,-4.4913c0.47932,-0.613 3.15443,-0.4427 4.7542,-0.34222c-0.00107,-0.24339 -0.0015,-0.4883 -0.0015,-0.73488c0,-0.5581 -0.0411,-4.05909 0.14935,-4.41783c0.24605,-0.46346 0.82259,-0.61335 1.32775,-0.83098c-0.61344,-0.11553 -1.20558,-0.17936 -1.7385,-0.16608h-0.6307c0,0 -1,0 -1,-1c0,-1 1,-1 1,-1h0.6307c3.01051,0.05223 5.61674,1.62833 8.42886,2.54955c0.55513,0.18186 1.37672,-0.20247 1.73301,0.26045c0.35223,0.45764 0.32496,3.60056 0.43276,4.29752c0.45019,2.9108 1.10081,6.11593 1.12728,9.02928c0,0.45761 0.09283,3.4749 -0.29289,3.86061c-0.88062,0.88062 -5.38309,0.43044 -6.66716,0.86147c-0.21065,0.07071 -0.40992,0.19729 -0.60794,0.32342c0.20801,2.70517 0.24571,5.42978 -1.10538,7.78845zM11.12207,215.6885c-0.42047,0 -0.84629,0.06696 -1.26139,0c-0.20631,-0.03328 -0.49554,-0.49343 -0.5543,-0.29289c-0.28973,0.98876 0.2929,2.04675 0.2929,3.07709c0,3.57361 0.02689,7.14839 0,10.7219c-0.00749,0.99513 0.42933,1.94403 0.60394,2.92375c0.04842,0.27172 -0.50954,0.65394 -0.26614,0.78404c0.57343,0.30651 3.50109,-0.24655 4.44346,-0.14354c0.54254,-1.89701 0.02722,-3.97831 0.18655,-5.95833c-0.46257,-0.18489 -0.88114,-0.47022 -1.14217,-0.8644c-0.46079,-0.69584 0.04809,-3.22341 -0.1226,-4.08017c-0.41041,-2.06012 -0.5681,-4.0747 -0.62598,-6.16746c-0.51809,0 -1.03618,0 -1.55427,0zM15.86867,208.09471c0.27229,0.78748 -0.51519,1.18122 -0.51519,1.18122c-1.44962,0.44269 -0.70861,2.21827 -0.70861,3.62837c0,2.98157 0.07781,5.69826 0.60395,8.49215c0.16661,0.88471 -0.12458,1.80379 -0.16693,2.7044l0.96717,0.58059c0.1466,-0.08705 0.28744,-0.16725 0.40236,-0.20892c0.68692,-0.24912 1.40557,-0.41225 2.12604,-0.53411c0.3093,-0.05231 2.68605,-0.25011 3.26651,-0.1587c0.20643,0.0325 0.40653,0.44066 0.55429,0.29289c0.58074,-0.58074 -0.2929,-1.6251 -0.2929,-2.44639c0.03248,-2.76943 -0.68255,-5.94353 -1.10426,-8.72669c-0.15868,-1.04727 0.71689,-2.2852 0.1415,-3.17451c-0.15058,-0.23274 -0.52094,0.32803 -0.78979,0.26045c-0.70462,-0.17713 -1.29518,-0.66063 -1.96079,-0.9519c-0.73018,-0.31953 -1.61148,-0.65939 -2.52336,-0.93884z" fill="#161512" stroke="none" stroke-width="0.5"/><path d="M17.42907,252.1612c0.58805,0 0.83029,0.3458 0.93009,0.6307c0.0164,0 0.03281,0 0.04922,0c0.15921,-0.58677 -0.20432,-1.55384 -0.08721,-2.7842c0.03855,-0.40506 0.4847,-0.82616 0.29289,-1.185c-0.13011,-0.2434 -0.51233,0.31457 -0.78404,0.26614c-0.77816,-0.13869 -1.50263,-0.60395 -2.29305,-0.60395c-2.66023,0 -5.1215,-0.84224 -7.96934,-0.65745c-1.25233,0.08126 -0.34107,2.7751 -0.50406,3.60183c-0.13982,0.7092 -0.48534,1.40177 -0.95722,1.99332c0.67626,0 1.35253,0 2.0288,0c-0.26136,-0.11874 -0.53586,-0.36818 -0.53586,-0.8921c0,-1 1,-1 1,-1h0.6307c0.44744,0.00803 0.88156,0.06755 1.30705,0.16091c0.14138,-0.09634 0.33092,-0.16091 0.58504,-0.16091c0.57744,0 0.82145,0.33343 0.92455,0.61523c1.48038,0.53708 2.92185,1.23648 4.54195,1.27556l-0.15949,-0.26009c0,0 0,-1 1,-1zM25.21742,254.52756c0.74493,1.28188 0.38048,5.47464 -0.95562,6.42199c-1.07191,0.76002 -6.90139,0.30922 -8.00751,-0.05392c-1.10693,-0.36341 -1.92216,-1.36662 -3.01732,-1.76409c-0.21457,-0.07788 -0.44855,-0.12056 -0.6864,-0.15503c-0.35077,1.17396 -0.88618,2.18232 -1.53347,2.60374c-1.59465,1.03821 -6.71797,0.29485 -8.32388,-0.50811c-0.746,0.012 -4.39296,0.37241 -4.89226,-0.26614c-0.66279,-0.84764 -0.44211,-3.64363 -0.33588,-5.3834c-0.28303,0 -0.56607,0 -0.84911,0c0,0 -1,0 -1,-1c0,-1 1,-1 1,-1c0.32067,0 0.64134,0 0.96201,0c0.09979,-0.28491 0.34204,-0.6307 0.93009,-0.6307c0.58805,0 0.83029,0.34579 0.93009,0.6307c1.26544,0 2.53087,0 3.7963,0c0.15261,-0.35009 0.5027,-0.52513 0.5027,-0.52513c3.31783,-1.36267 -0.82173,-5.88988 3.37096,-7.01652c3.3673,-0.90484 8.03621,0.3212 11.18141,1.2614c0.56177,0.16793 1.39962,-0.21216 1.73876,0.26614c0.38,0.53593 0.53317,3.60193 0.39866,5.4976c1.83128,0.1901 4.22532,0.64894 4.79048,1.62147zM13.90941,257.24796c1.09913,0.34211 1.88699,1.38022 2.97705,1.7502c1.11254,0.37761 3.12595,0.10079 4.32681,0.10073c0.66755,-0.00003 1.40835,0.46403 1.99707,0.14934c0.67853,-0.36269 0.12531,-1.53409 0.15643,-2.30284c0.01853,-0.45779 0.28778,-0.92962 0.14935,-1.36637c-0.25574,-0.80685 -1.70263,-0.01718 -2.5326,-0.18318c-0.46609,-0.09322 -0.9151,-0.30014 -1.37085,-0.44585c-0.79897,0.58604 -1.91165,0.4564 -2.8143,0.4726c-1.41203,-0.01282 -2.71773,-0.54823 -4.00825,-1.04642c0.23588,0.73718 0.26459,1.76755 0.13189,2.82615c0.32606,0.0102 0.68555,-0.04832 0.9874,0.04564zM-0.56498,255.4226c-0.14794,1.33754 -0.45009,3.18341 -0.21984,3.96919c0.17239,0.58832 1.20266,-0.29773 1.81569,-0.29289c0.70732,0.0056 1.41456,0.01783 2.12185,0.02675c1.18399,0.592 5.80506,1.46914 6.81292,0.75329c0.42569,-0.30236 0.60356,-1.04044 0.68522,-1.78662c-0.45048,-0.69138 -0.59089,-1.64333 -0.61486,-2.61631c-0.89245,0.06874 -1.80018,-0.05342 -2.69813,-0.05342c-2.63428,0 -5.26857,0 -7.90285,0z" fill="#161512" stroke="none" stroke-width="0.5"/><path d="M26.88957,240.2858c-1,0 -1,-1 -1,-1c0,-4.5228 0,-9.3526 0,-13.8754c0,0 0,-1 1,-1c1,0 1,1 1,1c0,4.5228 0,9.0456 0,13.5684v0.307c0,0 0,1 -1,1z" fill="#161512" stroke="none" stroke-width="0.5"/><path d="M-6.53753,224.5183c-1,0 -1,-1 -1,-1l0.00206,-1.19734c-0.16608,-2.5874 -0.3852,-4.84366 -1.21214,-7.31623c0,0 -0.31623,-0.94868 0.63246,-1.26491c0.94869,-0.31623 1.26491,0.63245 1.26491,0.63245c0.87618,2.63679 1.13372,5.06385 1.31067,7.82057l0.00205,1.32546c0,0 0,1 -1,1z" fill="#161512" stroke="none" stroke-width="0.5"/><path d="M-2.49193,203.3359c0,-0.55229 0.44772,-1 1,-1c0.55229,0 1,0.44771 1,1c0,0.55229 -0.44771,1 -1,1c-0.55228,0 -1,-0.44771 -1,-1z" fill="#161512" stroke="none" stroke-width="0.5"/><path d="M30.57805,190.56605c0.837,-0.50724 1.69764,-1.00192 2.42919,-1.70189c0.1088,-0.16782 0.28338,-0.32059 0.56351,-0.37877c0.18337,-0.05935 0.40797,-0.07568 0.64516,0.03684c0.24729,0.08816 0.39456,0.25851 0.48225,0.43014c0.18444,0.28115 0.17342,0.5516 0.10388,0.76569l-0.08035,0.82035c-0.33313,0.55495 -0.45697,1.31169 -0.9994,1.66484c-0.51592,0.33589 -1.18263,0.39841 -1.90879,0.34111c-1.97855,1.52347 -4.06254,2.7552 -6.31412,4.08805c-1.1802,0.69863 -1.99941,1.94565 -3.23315,2.5447c-1.87597,0.9109 -3.28402,-0.38318 -5.14876,0.91467c-0.20861,0.1452 -0.70893,0.20642 -0.61963,0.44439c0.09411,0.25078 0.55979,-0.07072 0.80244,0.04272c1.59092,0.74379 2.11364,1.80829 3.91297,1.75701c1.28862,0.02312 3.73334,0.43476 4.56424,1.63567c0.4333,0.62625 0.43042,1.42076 0.44774,2.21528c0.45283,-0.0036 0.94547,-0.13845 1.27272,0.13961c0.34945,0.29692 0.69225,0.9663 1.0058,1.75582c0.06186,0.01915 0.11984,0.04504 0.17292,0.07926c0.45463,0.29309 0.42649,1.02559 0.81208,1.40494c0.35094,0.34527 1.01887,0.2854 1.30974,0.68261c0.11351,0.155 1.44676,3.96869 1.49304,4.27922c0.07529,0.5053 -0.3637,1.06901 -0.13644,1.52655c0.17865,0.35967 0.85878,0.14248 1.11785,0.44932c0.46759,0.5538 0.92359,1.24371 0.92359,1.9685c0,1.22548 -1.64259,3.31539 -3.14877,2.8586c-0.85282,-0.25865 -1.15702,-1.3578 -1.68478,-2.0759c-1.62308,-2.20844 -1.59863,-4.29934 -1.56844,-6.92951c-0.14588,-0.42917 -0.46814,-1.65897 -0.79992,-2.71615c-0.79598,-0.16899 -1.7736,-0.02827 -2.19577,-0.6694c-0.31694,-0.48131 -0.48374,-0.96695 -0.58566,-1.43314c-0.4262,-0.28173 -0.84871,-0.57322 -1.33761,-0.67525c-0.7151,-0.14923 -1.54303,0.22025 -2.18808,-0.12259c-0.91778,-0.4878 -0.93346,-2.03047 -1.85907,-2.50325c-4.99553,-2.55159 -10.68053,-4.16941 -16.12962,-5.559l-1.91752,-0.489c-0.4431,-0.10268 -0.77335,-0.49987 -0.77335,-0.9742c0,-0.52825 0.4096,-0.96084 0.92852,-0.99749l1.90581,-0.15425l0.02129,0.26311c2.51871,-0.50493 5.17143,-0.54447 7.73568,-0.26638c0.97118,0.10532 2.14891,-0.11572 2.88239,0.52948c0.03956,0.0348 -1.57288,2.27619 -0.46749,0.73192h1.8921v0c0.40967,0 0.76181,0.24634 0.91635,0.59898c1.54883,-1.20973 3.33913,-2.70162 4.03146,-4.00856c0.34728,-0.65557 0.05345,-1.59671 0.53616,-2.16007c0.4487,-0.52367 1.26176,-0.58691 1.93711,-0.72645c0.97931,-0.20236 1.95249,0.95574 2.91814,0.69591c0.41341,-0.11124 0.09876,-1.00915 0.48765,-1.18817c1.0724,-0.49367 3.17617,-0.00608 4.84491,0.0641zM28.61036,192.0137c-0.70961,-0.08683 -1.34858,-0.07473 -1.82576,0.18955c-0.44985,0.24914 -0.2736,1.21506 -0.77374,1.33463c-1.3508,0.32295 -3.47749,-1.6939 -4.13967,-0.47305c-0.28278,0.52135 0.02831,1.23968 -0.2545,1.76101c-0.46904,0.86463 -1.56273,1.84941 -2.60069,2.72011c0.79087,0.13161 1.58687,0.28436 2.48301,-0.21582c1.12247,-0.62652 1.89295,-1.76834 2.99654,-2.42754c0.93018,-0.55562 2.84028,-0.9626 3.57902,-1.7343c0.29188,-0.30489 0.28878,-0.82097 0.53579,-1.15459zM21.04808,204.33013c0.17588,0.29309 0.38752,0.5415 0.69092,0.67792c0.48668,0.21882 1.07197,-0.22264 1.59612,-0.1226c0.07374,0.01407 0.14601,0.03237 0.21703,0.05425c-0.36893,-0.40637 -1.04152,-0.63743 -2.33889,-0.60379c-0.05398,-0.00105 -0.10907,-0.00298 -0.16519,-0.00577zM29.77252,212.54661c0.01482,2.39717 0.04965,5.00952 1.78862,6.85169c0.2569,0.27214 0.63543,-0.55136 0.63543,-0.9256c0,-0.68313 -1.6987,-1.27864 -1.74275,-1.36636c-0.58302,-1.16112 -0.24553,-3.08386 -0.6813,-4.55973zM7.88793,198.0468c1.47932,0.47123 2.92272,0.98275 4.37419,1.55262c-0.01308,-0.06454 -0.01994,-0.13132 -0.01994,-0.19971c0,-0.06552 0.0063,-0.12957 0.01833,-0.19158c-0.54711,-0.02486 -1.09802,-0.04407 -1.39012,-0.44732c-0.29706,-0.41008 1.02238,-0.78656 0.8465,-1.2614c-0.14319,-0.38656 -0.71119,0.46046 -1.1176,0.52949c-0.65725,0.11163 -1.33333,0 -2,0c-0.2315,0 -0.46924,0.00704 -0.71135,0.0179zM14.93421,200.71014c-0.00831,-0.06505 -0.01339,-0.13078 -0.01512,-0.19717l-0.51848,-0.03435c0.17741,0.07619 0.35525,0.15335 0.5336,0.23152z" fill="#161512" stroke="none" stroke-width="0.5"/><path d="M26.88957,183.4149c0.15754,0 0.29027,0.02482 0.40207,0.06664c0.83475,-1.53036 1.66948,-3.06072 2.50423,-4.59109c0,0 0.47885,-0.87789 1.35675,-0.39905c0.8779,0.47885 0.39904,1.35675 0.39904,1.35675c-0.95771,1.75579 -1.9154,3.51158 -2.87311,5.26737l-0.90136,1.6525c-0.16668,0.32027 -0.50161,0.53898 -0.88762,0.53898c-0.55229,0 -1,-0.44771 -1,-1v-1.8921c0,0 0,-1 1,-1z" fill="#161512" stroke="none" stroke-width="0.5"/><path d="M30.93689,163.30516c-0.96476,0.26311 -1.22789,-0.70164 -1.22789,-0.70164c-0.52623,-1.92953 -1.36586,-5.00817 -1.8921,-6.9377c0,0 -0.26311,-0.96476 0.70165,-1.22788c0.96476,-0.26311 1.22788,0.70165 1.22788,0.70165c0.52623,1.92953 1.05247,3.85905 1.5787,5.78858l0.31339,1.14911c0,0 0.26312,0.96476 -0.70164,1.22788z" fill="#161512" stroke="none" stroke-width="0.5"/><path d="M20.89627,175.90393c-0.94952,0.3137 -1.26322,-0.63582 -1.26322,-0.63582l-0.00845,-0.02557c-1.52972,-4.65485 -1.30343,-9.32438 -1.30343,-14.16353c0,0 0,-1 1,-1c1,0 1,1 1,1c0,4.61068 -0.26974,9.10542 1.20247,13.53613l0.00845,0.02557c0,0 0.31369,0.94952 -0.63583,1.26322z" fill="#161512" stroke="none" stroke-width="0.5"/><path d="M362.92318,139.13109c-0.02241,0.01049 -0.04483,0.02099 -0.06727,0.0315c0.07421,0.00026 0.13431,0.00047 0.17636,0.00047zM357.73188,141.66468c-0.00483,-1.00829 0.11935,-2.04799 0.84803,-2.69963c0.33965,-0.30374 0.94042,0.05947 1.36233,-0.11264c1.18301,-0.48259 2.64099,-1.87962 3.86766,-2.3206c0.27087,-0.09738 0.57196,0.33168 0.83588,0.21677c0.38195,-0.1663 -0.0648,-0.84293 -0.21677,-1.23081c-0.17204,-0.43909 -0.99574,-1.28827 -1.81035,-2.08283l-0.14107,0.2116l-1.14739,-0.76493c-0.2757,-0.17805 -0.4582,-0.48804 -0.4582,-0.84065c0,-0.55228 0.44772,-1 1,-1h1.04043c0.55115,-0.16952 1.15564,-0.07129 1.73337,-0.09387c0.32823,-0.01283 -0.128,-0.70404 -0.38677,-0.90638c-0.70099,-0.54816 -1.55631,-0.96504 -2.05878,-1.69947c-1.0913,-1.59509 -1.06014,-3.36824 -2.38528,-4.75332c-0.2618,-1.61954 -1.74329,-4.03809 -2.8724,-5.24894c-0.32067,-0.34389 0.27173,1.0202 0.0096,1.41056c-0.26717,0.39786 -2.93229,1.41163 -3.05193,1.84466c-0.40438,1.46363 0.98648,4.92266 -0.21677,6.12592c-0.47387,0.47387 -2.46336,0.38937 -3.71964,0.3272c-0.59035,5.27055 -2.89489,11.45767 -5.85663,15.42312c0,0 -0.6,0.8 -1.4,0.2c-0.8,-0.6 -0.2,-1.4 -0.2,-1.4c3.11766,-4.13796 5.57098,-11.25162 5.60156,-16.42942l-0.00007,-0.37507c0,0 0,-1 1,-1c1,0 1,1 1,1l-0.00007,0.39847c-0.00059,0.03571 -0.00128,0.07149 -0.00206,0.10734c0.5741,-0.03365 1.14761,-0.06074 1.70949,0.04126c0.17697,0.03213 0.32601,0.42008 0.45319,0.29289c0.38652,-0.38652 -0.29289,-1.06687 -0.29289,-1.61349c0,-0.97588 -0.31317,-2.99488 0.07612,-3.86358c0.67558,-1.50757 2.64792,-0.99799 3.13634,-2.02301c0.41707,-0.87528 0.58999,-2.38231 1.55667,-2.45711c1.93785,-0.14994 4.72045,4.86135 4.86293,6.35405c1.15192,1.09321 0.97842,2.1371 1.56485,3.51893c0.66031,1.55588 1.61371,1.40156 2.49996,2.40481c0.62171,0.70379 1.07779,2.93238 0.38677,3.73481c-0.31975,0.3713 -0.80301,0.46067 -1.32267,0.49571c1.46046,1.21453 2.48277,3.94562 1.32267,5.30578c-0.32457,0.38054 -1.02584,0.01782 -1.48472,0.21677c-0.29006,0.12576 -0.59458,0.26267 -0.90719,0.40598c0.14771,0.04138 0.30289,0.12845 0.45808,0.28363c0.70711,0.70711 0,1.41421 0,1.41421l-1.09387,0.67966c-0.64647,0 -1.336,-0.31196 -1.93791,-0.07612c-0.45156,0.17693 -0.87768,0.79392 -1.306,1.35274c0.04859,1.08828 0.22612,3.31568 -0.3034,3.84521c-0.70101,0.70101 -3.60372,0.29289 -4.57477,0.29289c-1.83927,-0.18005 -2.7323,2.55836 -3.6412,3.87015v0.93134c0,0.55228 -0.44772,1 -1,1c-0.55228,0 -1,-0.44772 -1,-1v-1.54707h0.07002c-0.02976,-0.04703 -0.04974,-0.09987 -0.0571,-0.16018c-0.18074,-1.48078 1.45718,-6.2313 2.70069,-7.20955c1.44853,-1.13954 3.45831,-0.36358 5.08801,-0.57915c0.24721,-0.0327 0.46469,-0.10991 0.66128,-0.21866zM357.86776,143.65918c-1.59458,0.19997 -3.65234,-0.45287 -4.67118,0.39272c-0.39875,0.33094 -0.73504,0.91981 -1.02779,1.64373c0.70403,-0.63421 1.57089,-1.06009 2.74139,-1.11784c0.90245,0 1.81443,-0.13075 2.70736,0c0.17797,0.02606 0.32601,0.42008 0.45319,0.29289c0.29568,-0.29568 -0.03243,-0.76333 -0.20298,-1.21151z" fill="#161512" stroke="none" stroke-width="0.5"/><path d="M381.82353,151.37863c0.38153,0.06686 0.69973,0.14605 0.92975,0.23708c1.01737,0.40262 2.00412,1.09437 3.09821,1.08418c0,0 1,0 1,1c0,1 -1,1 -1,1c-1.94908,-0.01474 -2.35017,-0.62161 -3.86358,-1.23642c-1.57046,-0.63798 -5.9449,-0.30673 -7.74349,0c-0.55395,0.09447 -0.67122,1.03819 -0.56199,1.58942c0.20753,1.04731 0.47104,1.76087 0.63578,2.6485l0.85886,0.57257c0.2757,0.17805 0.4582,0.48804 0.4582,0.84065c0,0.55228 -0.44772,1 -1,1h-0.34759c-0.19278,0.417 -0.42371,0.82833 -0.1056,1.00026c0.19772,0.10686 0.40892,-0.18665 0.61337,-0.27998c0.78595,0.26198 1.66299,0.1586 2.4502,0.41676c0.54276,0.178 1.16783,1.41822 1.4461,0.91938c0.522,-0.93576 -0.82641,-2.12259 1.74501,-2.12259c0.96871,0 1.17356,1.55073 1.86741,2.22673c0.30016,0.29244 0.93286,0.08115 1.18691,0.41442c0.56216,0.73745 0.13047,1.98699 0.74692,2.67971c0.38454,0.43211 3.49784,0.1501 3.74527,0.28263c0.35938,0.1925 0.16149,0.82051 0.38677,1.1603c0.31564,0.47608 0.89751,-0.76028 1.4461,-0.91938c0.5156,-0.14954 1.08107,-0.12032 1.61027,-0.03c2.07684,0.35448 2.55985,1.75542 3.1475,3.53427c-0.09333,0.80478 0.30161,1.85032 -0.27998,2.41435c-2.38714,2.3151 -6.40681,-2.54899 -8.42341,-3.25808c-1.11201,-0.39101 -2.4303,0.06452 -3.51352,-0.40034c-0.79555,-0.3414 -0.93083,-1.46344 -1.46705,-2.14308c-0.42448,-0.53802 -2.94748,0.0543 -3.4809,-0.38677c-0.4728,-0.39094 -0.13322,-1.61622 -0.74298,-1.68385c-2.85564,-0.31673 -7.19761,0.88144 -7.58486,-2.77632l-0.95456,-0.95456c-0.18096,-0.18096 -0.29289,-0.43096 -0.29289,-0.70711c0,-0.55228 0.44772,-1 1,-1h1.1603v0.17581c0.63688,-0.09526 1.26646,-0.168 1.90904,-0.26833c-0.17611,-0.09756 -0.34873,-0.19338 -0.51492,-0.27089c-2.21346,-1.03232 -4.85878,-1.20319 -7.24259,-1.50425h-1.11333c-0.55228,0 -1,-0.44772 -1,-1c0,-0.42924 0.27045,-0.79532 0.65024,-0.93713l1.83533,-0.73413l0.10273,0.25682c0.6507,-0.31483 1.32737,-0.56338 2.02856,-0.70775l0.04381,-0.00893c0.09161,-0.45779 0.49579,-0.8027 0.98054,-0.8027h0.59909c0.79599,-0.48647 1.52953,-1.00312 2.44245,-1.44538c1.77575,-0.86026 3.54186,-0.27884 5.4061,-0.4803c2.00711,-0.2169 2.41854,-0.85185 4.55818,-0.36506l0.14423,-0.02986c0,0 0.99956,0 1,0.99934zM379.68896,163.87769c0.87238,-0.03274 2.01639,0.195 2.59955,0.70421c-0.0523,-0.19802 -0.13317,-0.38011 -0.26487,-0.53341c-0.25831,-0.30068 -0.85647,-0.07576 -1.13368,-0.35911c-0.13615,-0.13916 -0.29902,-0.37598 -0.43132,-0.62707c-0.16305,0.31346 -0.39058,0.60869 -0.59746,0.73121c-0.05402,0.03199 -0.11153,0.05997 -0.17222,0.08417zM389.4518,168.538c1.0675,0.75943 3.78256,2.72033 3.14794,1.17949c-0.87826,-2.59691 -1.83048,-1.65931 -3.14794,-1.17949zM379.14189,163.99595c-0.1044,0.00829 -0.21332,0.01069 -0.32595,0.00789c-0.01868,0.07154 -0.02104,0.14078 0.00734,0.20517c0.05454,0.12374 0.1828,-0.08828 0.31861,-0.21306zM372.05038,156.51082c-0.22059,-1.32781 -0.35579,-2.69482 0.12105,-3.69422c-0.9187,0.28256 -1.70754,1.31669 -2.41068,1.58166c-0.11141,0.34639 -0.4066,0.61037 -0.77074,0.67711l-0.77143,0.15729c1.36417,0.27969 2.63924,0.66456 3.8318,1.27815zM370.90679,160.6877c0.06168,0.89683 0.74265,1.20618 1.66405,1.28483c-0.07372,-0.43133 -0.09452,-1.01943 -0.09879,-1.5338c-0.52574,0.15158 -1.0833,0.28052 -1.56526,0.24897z" fill="#161512" stroke="none" stroke-width="0.5"/><path d="M389.60305,175.85927c-2.79023,-1.2556 -4.53443,-4.05655 -7.2929,-5.40753c0,0 -0.89443,-0.44721 -0.44721,-1.34164c0.44721,-0.89443 1.34164,-0.44721 1.34164,-0.44721c2.88996,1.46975 4.9404,5.15805 8.24993,5.71381l-0.59468,1.22552l0.21811,0.7387c-0.17561,-0.03657 -0.34703,-0.07931 -0.51459,-0.12773l-0.07066,0.14561c0,0 -0.62957,0 -0.88964,-0.49954z" fill="#161512" stroke="none" stroke-width="0.5"/><path d="M366.05998,177.35906c1.69266,1.69266 2.83997,2.18774 4.81356,3.3178c1.19154,0.68227 2.29024,1.94808 3.76173,1.80403c0.68507,0.04479 1.30049,-0.44244 1.93791,-0.69741c0.41646,-0.16658 1.44208,0.35811 1.34327,-0.07941c-0.19305,-0.8548 -1.19269,-1.58062 -1.71604,-2.20918c-1.87118,-2.24733 -3.629,-4.3645 -5.66974,-6.46869c-0.49176,-0.50705 -1.0326,-0.973 -1.46246,-1.53348c-0.40362,-0.52627 -0.73518,-1.10908 -1.02265,-1.70677c-0.05623,-0.11692 0.07844,-0.50193 0.01467,-0.38895c-0.50153,0.8886 -0.90637,1.28529 -1.69888,1.84232c1.37253,0.99366 2.63361,2.14072 2.69003,3.21321c0.03939,0.74857 -0.27065,1.56684 -0.79321,2.10427c-0.31764,0.32669 -0.95545,-0.09249 -1.36233,0.11264c-0.33834,0.17058 -0.65045,0.3667 -0.9499,0.57559zM364.79818,169.88556c0.56613,-0.37436 2.72636,-2.50469 3.26206,-2.48855c1.42147,0.04284 3.02041,3.32998 3.90374,4.23434c2.07288,2.12223 3.85249,4.28131 5.74734,6.55315c0.80896,0.96991 2.56708,2.46115 2.15163,3.97909c-0.25695,0.93882 -1.62067,1.10617 -2.5244,1.46766c-0.877,0.3508 -1.75946,0.81242 -2.70328,0.84965c-3.63673,-0.17941 -7.31269,-3.03082 -9.9895,-5.70762l-0.31809,-0.31809c-0.52217,0.37107 -1.08232,0.70917 -1.7527,0.94643l0.19143,0.27206c0,0 -0.44721,0.89443 -1.34164,0.44721c-0.89443,-0.44721 -0.44721,-1.34164 -0.44721,-1.34164l0.96497,-1.275c1.95789,-0.59456 3.19741,-2.35464 5.14625,-2.56992c0.34707,-0.03834 -0.34331,-0.61447 -0.5754,-0.87537c-0.4281,-0.48124 -1.15119,-0.58501 -1.68622,-0.94364c-1.56894,-1.05165 -3.14948,-3.1109 -4.50223,-4.10508c-0.11526,-0.08471 0.05596,0.30635 -0.01808,0.42873c-0.34584,0.57165 -0.7314,1.13139 -1.20865,1.59897c-1.37253,1.34472 -1.57225,1.2641 -3.09824,1.78864c0,0 -0.94868,0.31623 -1.26491,-0.63246c-0.31623,-0.94868 0.63246,-1.26491 0.63246,-1.26491c1.83513,-0.58704 3.31513,-3.86331 4.95742,-3.91898c1.205,-0.04084 1.95605,1.41042 2.9206,2.13383c0.32354,0.24265 0.80813,0.55277 1.36197,0.91121c0.10091,-0.10987 0.19069,-0.16973 0.19069,-0.16973z" fill="#161512" stroke="none" stroke-width="0.5"/><path d="M388.55886,185.6412c-1,0 -1,-1 -1,-1l0.28353,-0.07592c-1.86756,-1.91805 -3.22828,-3.6462 -4.43239,-6.0519c0,0 -0.44721,-0.89443 0.44721,-1.34164c0.89443,-0.44721 1.34164,0.44721 1.34164,0.44721c1.1125,2.22742 2.34801,3.77593 4.07647,5.55109l0.28353,1.47115c0,0 0,1 -1,1z" fill="#161512" stroke="none" stroke-width="0.5"/><path d="M336.89246,114.63648l0.08173,-0.1162c-0.20607,-0.52576 -0.48868,-1.02783 -0.96856,-1.51727l-0.49421,-0.17947c0,0 -0.89443,-0.44721 -0.44721,-1.34164c0.44721,-0.89443 1.34164,-0.44721 1.34164,-0.44721l1.05286,0.59407c0.41377,0.44909 0.78347,0.98091 1.1139,1.55914c0.76249,-0.12251 1.50763,-0.4077 2.22489,-0.69367c0.36041,-0.00482 2.62169,-0.06323 2.89239,0.05808c1.73504,0.77752 1.86547,3.27457 2.78857,4.65258c0.76602,1.14352 2.59727,1.59845 2.33011,3.48392c-0.23137,1.63288 -4.33479,3.95357 -5.88405,3.38042c-1.44242,-0.53362 -1.14638,-1.36139 -1.67593,-2.41836c-0.27184,-0.54258 -0.57924,-1.05004 -0.90569,-1.54058c-0.41422,0.1745 -1.0539,0.03109 -1.51671,0.15449c-1.57652,0.42036 -4.95126,1.72027 -6.54639,0.59769c-1.37068,-0.96462 -1.28154,-3.6556 -2.18117,-4.89774c0,0 -0.5547,-0.83205 0.27735,-1.38675c0.83205,-0.5547 1.38675,0.27735 1.38675,0.27735c0.67471,1.07015 0.86379,3.62422 1.68649,4.38465c0.77127,0.71289 4.05487,-0.87568 5.00381,-0.94697c-0.28674,-0.44586 -0.60063,-1.04418 -0.72491,-1.37574c-0.19231,-0.51304 -0.31927,-0.99872 -0.45114,-1.46347c-0.38451,-0.28853 -0.38451,-0.81731 -0.38451,-0.81731zM339.88481,116.01561c0.83482,1.26248 1.59087,2.20242 2.35346,3.53367c1.06527,1.85965 0.77144,3.00722 2.47702,1.97187c0.23637,-0.14348 2.06268,-0.49799 2.10723,-1.0683c0.07791,-0.99742 -1.49201,-1.36303 -2.04538,-2.19652c-1.50658,-2.26922 -0.71181,-3.74452 -3.60144,-3.79821c-0.55827,0.22405 -1.13592,0.42448 -1.7245,0.56809c0.11549,0.28561 0.22401,0.57325 0.32598,0.85963c0.07013,0.0735 0.10763,0.12976 0.10763,0.12976z" fill="#161512" stroke="none" stroke-width="0.5"/><path d="M334.95453,129.1023c1.42009,2.187 3.78271,6.28663 6.01089,4.2655c0.43497,-0.39455 -1.17521,-2.61971 -1.27783,-2.85101c-0.96665,-2.17885 -2.40035,-3.19243 -4.72132,-1.51144zM333.48205,127.93888l0.37481,-0.59763c3.34374,-2.10817 6.1198,-1.07709 7.6552,2.35623c0.46247,1.03413 1.52185,1.85625 1.62598,2.98429c0.2434,2.63687 -3.49813,4.27263 -5.46059,2.86523c-1.00295,-0.71928 -1.57173,-1.90374 -2.3831,-2.83376c-0.762,-0.87342 -1.75621,-2.23305 -2.45632,-3.1664c0,0 -0.6,-0.8 0.2,-1.4c0.15668,-0.11751 0.30569,-0.18132 0.44402,-0.20796z" fill="#161512" stroke="none" stroke-width="0.5"/><path d="M351.61733,115.68454c-0.27453,0.96158 -1.23611,0.68705 -1.23611,0.68705l-1.68963,-0.64332c-0.5334,-2.31108 -0.86687,-4.89408 -2.61061,-6.57294c0,0 -0.70711,-0.70711 0,-1.41421c0.70711,-0.70711 1.41421,0 1.41421,0c1.80053,1.85278 2.51567,4.092 2.68818,6.65502l0.7469,0.0523c0,0 0.96158,0.27453 0.68705,1.23611z" fill="#161512" stroke="none" stroke-width="0.5"/><path d="M355.85165,113.92146c-0.83205,0.5547 -1.38675,-0.27735 -1.38675,-0.27735l-0.80639,-1.21307c-0.36709,-0.77354 -0.89753,-1.5367 -1.62362,-1.99047c0,0 -0.83205,-0.5547 -0.27735,-1.38675c0.5547,-0.83205 1.38675,-0.27735 1.38675,-0.27735c0.95003,0.66157 1.7094,1.62389 2.24404,2.65072l0.74067,1.10753c0,0 0.5547,0.83205 -0.27735,1.38675z" fill="#161512" stroke="none" stroke-width="0.5"/><path d="M371.03348,141.38381c-0.44721,-0.89443 0.44721,-1.34164 0.44721,-1.34164l0.51364,-0.19945c1.17831,-0.75151 -2.15048,-3.90431 -2.83231,-4.92646c0,0 -0.5547,-0.83205 0.27735,-1.38675c0.83205,-0.5547 1.38675,0.27735 1.38675,0.27735c1.59812,2.39865 4.90265,4.70961 2.58242,7.45007l-1.03343,0.57409c0,0 -0.89443,0.44721 -1.34164,-0.44721z" fill="#161512" stroke="none" stroke-width="0.5"/><path d="M361.66075,152.07639c-0.08647,0.29361 -0.31974,0.68967 -0.94907,0.68967c-1,0 -1,-1 -1,-1l0.68377,-1.33545c2.80428,-0.85159 1.68728,-1.97381 -0.23847,-3.24723c0,0 -0.83205,-0.5547 -0.27735,-1.38675c0.5547,-0.83205 1.38675,-0.27735 1.38675,-0.27735c3.15078,2.11539 3.90898,4.98832 0.39437,6.55711z" fill="#161512" stroke="none" stroke-width="0.5"/><path d="M361.71168,161.82198c0,1 -1,1 -1,1l-2.01131,-0.00301c-2.14919,-0.33146 -3.5589,-0.5647 -5.46498,-1.68657c0,0 -0.85749,-0.5145 -0.343,-1.37199c0.5145,-0.85749 1.37199,-0.343 1.37199,-0.343c1.60814,0.9874 2.76413,1.11748 4.59095,1.40756l1.85635,-0.00301c0,0 1,0 1,1z" fill="#161512" stroke="none" stroke-width="0.5"/><path d="M357.29721,106.58081c0.70711,-0.70711 1.41421,0 1.41421,0l0.38677,0.38677c2.25854,2.71737 -1.8439,6.47057 -4.76359,5.77278c0.07652,2.49626 0.4959,6.76225 -1.42467,8.79149c-0.43757,0.46233 -1.56204,0.21847 -1.71706,0.83588c-0.64083,2.55236 -1.78984,4.00174 -3.09413,6.18826c-0.12645,0.21199 0.28676,1.04453 0.66165,1.75522c0.56923,-0.23706 1.05541,0.24912 1.05541,0.24912l0.91708,0.95491c0.03527,0.09966 0.07054,0.19931 0.10581,0.29897c0.21113,-0.05007 0.46792,-0.0255 0.75854,0.16824c0.83205,0.5547 0.27735,1.38675 0.27735,1.38675c-0.86241,1.28452 -2.25662,3.62851 -4.25072,3.09854c-0.53048,-0.14099 -0.57713,-0.97148 -1.02504,-1.28876c-0.75988,-0.53825 -3.41321,-0.36412 -4.29173,-0.21709c-1.17786,0.19713 -3.42082,0.6829 -4.4187,1.09709c-0.82383,0.34195 -1.67915,1.03201 -2.54627,0.8229c-1.81318,-0.43725 -3.74628,-2.38165 -5.04543,-3.6808c-1.09019,-0.77565 -2.86733,-2.93181 -3.38402,-4.25832c-0.28075,-0.72078 0.35327,-1.63244 0,-2.3206c-0.24942,-0.48587 -1.71143,-1.26496 -2.03071,-1.54317c-1.36428,-1.18882 -1.40206,-2.55548 -2.78048,-3.9339l-0.38677,-0.38677c0,0 -0.70711,-0.70711 0,-1.41421c0.70711,-0.70711 1.41421,0 1.41421,0l0.38677,0.38677c1.22765,1.22765 1.68046,1.91846 2.1506,3.41855c0.26994,0.86132 2.62738,1.76122 3.09413,2.70736c0.34222,0.69371 -0.29998,1.6076 0,2.3206c0.42834,1.0181 1.85771,2.90205 2.80424,3.47701c1.15535,1.15535 2.70362,2.69858 4.23696,3.28099c0.46954,0.17835 0.85314,-0.54246 1.3214,-0.72416c2.5684,-0.99664 8.05207,-2.29417 10.62789,-0.66707c0.32589,0.20586 0.23405,0.77562 0.52202,1.03184c0.10993,0.09781 0.58878,-0.47177 1.04346,-1.07139c-0.09494,-0.31263 -0.18988,-0.62527 -0.28482,-0.9379l-0.10129,-0.0952c-0.07792,0.05053 -0.17009,0.09512 -0.2789,0.13139c-0.94868,0.31623 -1.26491,-0.63246 -1.26491,-0.63246c-0.4885,-1.50612 -1.69827,-2.4215 -1.1355,-4.17981c0.44728,-1.39745 2.04417,-2.58051 2.73293,-3.92433c0.34856,-0.68007 0.03583,-1.57247 0.3612,-2.26393c0.3709,-0.78821 1.50338,-0.90168 2.1506,-1.48472c0.49574,-0.44658 0.31739,-1.29793 0.53196,-1.92972c0.81635,-2.4037 0.08274,-4.649 1.13751,-7.07004c0.8443,-0.09368 6.16757,-1.77365 4.5188,-2.73608l-0.38677,-0.38677c0,0 -0.70711,-0.70711 0,-1.41421z" fill="#567b2f" stroke="none" stroke-width="0.5"/><path d="M351.36286,84.92189c0.70711,0.70711 0,1.41421 0,1.41421l-1.09387,0.67966c-0.54154,-0.17759 -2.19037,3.47739 -2.8739,4.4359c-0.58562,0.16525 -0.99034,0.75631 -1.30341,1.27809c-0.44288,0.73813 -1.51814,1.00105 -1.8606,1.79078c-0.69719,1.60774 0.58872,3.31709 1.15093,4.62749c0.56743,1.32256 0.27257,2.53576 2.0226,2.9122c2.45925,0.529 2.26761,-0.60281 3.93959,-1.45549c1.33435,-0.6805 3.39075,0.28568 4.65575,0.70652c0,0 0.94868,0.31623 0.63246,1.26491c-0.31623,0.94868 -1.26491,0.63246 -1.26491,0.63246c-0.4808,-0.1606 -2.68469,-1.15605 -3.07958,-0.84054c-1.58641,1.26752 -2.89582,2.30568 -5.34281,1.63864c-2.5579,-0.69728 -2.52802,-2.03107 -3.39213,-4.04959c-0.78746,-1.83948 -2.10057,-4.01468 -1.16966,-6.20197c0.37701,-0.88584 1.51174,-1.25134 2.00706,-2.07688c0.4374,-0.72899 0.99506,-1.51659 1.79072,-1.81604c1.25666,-2.10856 1.53149,-4.56996 4.08789,-4.84649l-0.32034,-0.09387c0,0 0.70711,-0.70711 1.41421,0z" fill="#567b2f" stroke="none" stroke-width="0.5"/><path d="M337.31552,90.76442c0.01918,0.08314 0.02988,0.17587 0.02988,0.27931c0,1 -1,1 -1,1l-1.33545,-1.31623c0.25025,-0.55177 0.21199,-1.37814 0.75074,-1.65531c3.56091,-1.832 4.47882,2.52117 3.41686,4.73149c-0.46331,0.96431 -0.64114,2.32495 -1.6114,2.77567c-0.59018,0.27416 -1.29095,-0.18066 -1.92374,-0.33251c-1.74892,-0.4197 -3.15563,-1.71439 -4.0137,-3.29926c-0.29439,0.25644 -0.69803,0.25644 -0.69803,0.25644c-0.00042,0 -0.00085,-0.00001 -0.00127,-0.00001c-1.31922,-0.00896 -2.97436,0.85459 -4.24908,0.31065c-1.88538,-0.80451 -3.20795,-4.87725 -0.6206,-5.76479c0.5534,-0.18983 1.13752,0.27422 1.70628,0.41133l0.96497,1.275c0,0 0.44721,0.89443 -0.44721,1.34164c-0.89443,0.44721 -1.34164,-0.44721 -1.34164,-0.44721l0.19143,-0.27206c-1.70993,-1.00817 0.24504,1.58691 0.31214,1.60833c0.81864,0.26132 2.30323,-0.3734 3.30197,-0.45451c0.03374,-0.68686 0.03139,-1.40805 -0.28087,-1.96354c-0.70441,-1.25308 -2.84592,-1.53342 -3.21673,-3.39011c-0.11326,-0.56712 0.09444,-1.13788 0.23871,-1.71244c-0.78322,0.53471 -1.61775,0.98955 -2.58618,1.30947c-1.86057,0 -3.36744,-0.61532 -5.11761,-1.1987l-0.90452,-0.44102c0,0 -0.89443,-0.44721 -0.44721,-1.34164c0.44721,-0.89443 1.34164,-0.44721 1.34164,-0.44721l0.64255,0.33251c1.35902,0.45301 2.72623,1.1219 4.16479,1.1219c2.52659,-0.85448 4.52099,-3.33115 6.41487,-5.13475c1.52313,-1.45052 3.62014,-0.48801 4.92383,-1.81144c0.37089,-0.3765 -0.08861,-1.05446 -0.17585,-1.57571c-0.09948,-0.59444 0.03483,-1.41161 -0.46589,-1.74706c-0.40851,-0.27367 -1.03744,-0.02601 -1.44366,-0.30307c-0.72831,-0.49674 -1.05171,-1.42383 -1.67812,-2.04414c0,0 -0.70711,-0.70711 0,-1.41421c0.70711,-0.70711 1.41421,0 1.41421,0c1.70013,1.71406 6.26649,4.88757 3.9718,8.25361c-1.11149,1.63042 -3.31704,0.96428 -4.68299,1.49947c-0.89046,0.34889 -2.08787,2.31279 -2.84283,2.94359c-0.20883,0.17449 -0.4147,0.34759 -0.61926,0.51822c0.21174,0.28702 0.21174,0.64227 0.21174,0.64227c-0.00695,0.71041 -0.55325,1.39427 -0.41352,2.09085c0.28331,1.41235 2.21699,1.57709 2.97153,2.79815c0.12611,0.20408 0.22506,0.41402 0.30242,0.62844c0.2337,0.29141 0.2337,0.67082 0.2337,0.67082c-0.02026,1.56887 1.05688,3.83301 2.53348,4.51641c0.49345,0.22838 1.00831,1.11567 1.43403,0.77742c0.18482,-0.14684 -0.14822,-0.48458 -0.06434,-0.70522c0.27309,-0.71836 0.9164,-1.28873 1.07153,-2.04143c0.08982,-0.43584 -0.13378,-1.05647 -0.36339,-1.27942z" fill="#567b2f" stroke="none" stroke-width="0.5"/><path d="M359.8777,148.16426c0.89443,-0.44721 1.34164,0.44721 1.34164,0.44721l-0.50766,0.22075c3.34755,0.04322 -0.31573,-2.26316 -1.43892,-0.07521c-0.74756,1.45623 0.83193,5.73549 2.66565,3.46223c2.16098,-2.16098 6.15267,-5.13394 4.92383,-8.76411c-0.02155,-0.06366 -4.07721,-0.23905 -4.50651,-0.40115c-2.69254,-1.01667 -2.96201,-3.57378 -2.20596,-5.91452c0,0 0.31623,-0.94868 1.26491,-0.63246c0.94868,0.31623 0.63246,1.26491 0.63246,1.26491c-1.84691,5.32423 4.71807,2.00266 6.43759,4.51379c0.40305,0.5886 0.14792,1.41957 0.18876,2.13178c0.24841,4.33249 -2.50821,6.40333 -5.32086,9.21597c-3.75665,3.38832 -7.6917,-2.07315 -5.84321,-5.82016c0.26124,-0.52956 0.95176,-0.70013 1.40798,-1.07502c2.2186,-1.82306 7.30957,0.06031 4.92613,3.29188c-0.70078,0.95015 -2.16477,0.7926 -3.13184,0.80206l-1.28119,-1.32632c0,0 -0.44721,-0.89443 0.44721,-1.34164z" fill="#567b2f" stroke="none" stroke-width="0.5"/><path d="M366.96637,195.01746c-0.70711,-0.70711 0,-1.41421 0,-1.41421l0.38677,-0.38677c1.07814,-1.01339 1.28885,-2.64623 1.64843,-4.05627c0.07805,-2.92648 2.72603,-4.42652 3.96186,-6.8922c1.13476,-2.26404 0.06134,-4.54825 0.71476,-6.81223c0.08786,-0.30441 1.827,-2.80793 2.0323,-2.91249c3.08576,-1.57153 7.02635,1.42466 10.21156,0.31976c0,0 0.08405,-0.02802 0.21045,-0.04235c-0.54635,-1.66612 -1.93981,-3.80437 -2.68667,-4.31555c-0.45998,-0.31483 -2.68784,0.29062 -3.29882,0.07542c-3.52206,-1.24055 -6.68128,-7.70177 -0.87052,-7.75859c0,0 1,0 1,1c0,1 -1,1 -1,1c-0.50317,-0.0065 -1.18708,-0.41499 -1.50936,-0.02852c-0.461,0.55281 2.38336,3.70132 2.95944,3.87293c1.0786,0.3213 2.61155,-0.51737 3.66297,0.07542c1.08754,0.61316 1.84854,2.50927 2.36029,3.53645c1.12352,2.25515 3.30505,4.83231 0.01418,6.31797c-0.83945,0.83945 -0.51324,1.28946 -0.69894,2.40366c-0.82131,4.92789 1.63665,8.4457 6.97482,8.13512c1.022,-0.05946 2.5503,-3.62303 3.54441,-4.53357c0.19142,-0.85162 -0.06082,-1.81841 0.33309,-2.59735c1.4514,-2.87009 4.46601,-0.94341 5.32866,1.1603c0.27823,0.67851 -0.08224,1.56018 0.31354,2.17755c0.22449,0.35017 0.71028,0.52366 0.84676,0.91658c1.14897,3.30781 -2.31126,3.38842 -3.06092,5.70043c-0.96435,2.97415 1.56971,5.05382 3.56746,6.83352c3.18952,-0.00031 5.14729,-0.48869 6.81645,2.88004c0.63193,1.27537 1.46542,1.44253 0.7991,3.14263c-0.96989,2.47465 -5.31996,2.33314 -5.21602,-0.57151l-0.66528,-0.02279c0,0 -0.067,-0.02233 -0.15945,-0.07293c-0.02052,0.23064 -0.06727,0.45389 -0.14751,0.66723c-0.25673,0.68261 -1.37667,0.83796 -1.54707,1.54707c-0.2032,0.84566 0.47989,2.49424 -0.11264,3.29616c-0.36004,0.48728 -1.10354,0.50049 -1.65531,0.75074l-0.70299,0.05132c0,0 -1,0 -1,-1c0,-1 1,-1 1,-1l0.07054,0.05132c1.28336,-0.04397 0.1226,-1.53797 0.55265,-2.9149c0.21742,-0.69613 1.24078,-0.8852 1.54707,-1.54707c0.39629,-0.85636 -0.82175,-2.72929 -0.76089,-3.80262c-0.00827,-0.01838 -0.01605,-0.03738 -0.02331,-0.05702c-1.88688,-1.37784 -3.82052,-3.30112 -4.40635,-5.58974c-0.94591,0.84696 -1.09299,1.53242 -1.86667,3.27482c-0.20444,0.46042 -0.53,0.7343 -0.63184,0.92186c0.19671,-0.01344 0.34663,0.02404 0.34663,0.02404l1.52677,0.38169c0.44532,0.10106 0.77776,0.49931 0.77776,0.97522c0,0.55228 -0.44772,1 -1,1h-1.1603l0,-0.07281l-0.16018,0.0599c-4.67336,-1.82516 -0.71659,-7.01433 2.09184,-9.01524c0.04945,-0.2538 0.11743,-0.51069 0.20538,-0.77049c0.39468,-1.1659 3.76832,-3.09998 3.12734,-4.3555c-0.51318,-1.0052 -0.77326,-2.08465 -1.1603,-3.09413c-0.05644,-0.14722 -1.48757,-2.16695 -1.63314,-1.1603c-0.13603,0.94075 -0.19655,1.89867 -0.44045,2.81738c-1.65052,1.74094 -2.58051,4.9872 -4.96445,5.52235c-7.69129,1.72654 -12.94663,-8.71777 -7.74691,-14.11322c-2.23954,0.39792 -4.03992,-0.43294 -6.39276,-0.57256c-0.85484,-0.05072 -1.79446,-0.48754 -2.56638,-0.11676c-1.85746,0.8922 -0.96547,5.84658 -1.44557,7.52001c-0.78537,2.73747 -4.3218,4.78172 -4.22204,7.57792c-0.47815,1.94438 -0.81214,3.76098 -2.21923,5.22612l-0.38677,0.38677c0,0 -0.70711,0.70711 -1.41421,0zM406.27958,200.32347l1.65531,0.75074c0.02732,0.8454 1.0661,2.55153 1.74578,0.97556c0.1771,-0.41064 -0.87207,-2.15692 -1.08707,-2.57248c-0.62409,-1.20626 -2.42361,-0.98661 -3.801,-0.80318c0.15981,0.59118 0.3651,1.2083 0.51336,1.81574c0.40362,-0.35638 0.97362,-0.16638 0.97362,-0.16638z" fill="#567b2f" stroke="none" stroke-width="0.5"/><path d="M24.07515,196.00738c0.10438,-0.28049 0.349,-0.60918 0.92232,-0.60918c1,0 1,1 1,1l-0.10557,1.07791l-0.62101,1.24202c-0.16034,0.33825 -0.50491,0.57216 -0.90412,0.57216c-0.3992,0 -0.74377,-0.23392 -0.90412,-0.57216l-0.56947,-1.13894c-1.79456,-1.91681 -4.97279,0.55838 -6.80192,-1.10459c-0.18557,-0.16871 -1.3776,-4.45953 -1.49291,-4.77705c-1.02432,-2.82042 -1.94997,-6.05792 -1.78852,-9.13764c-0.28826,0.34603 -0.52861,0.6547 -0.66157,0.81309c-2.13817,2.50123 -1.45108,6.03148 -2.62511,8.99298c-0.26738,0.67447 -0.84322,3.04574 -1.55955,3.55086c-2.76478,1.94956 -6.86887,0.55522 -8.43758,-2.22708c-0.25139,-0.44587 -0.00211,-1.03134 -0.11044,-1.5316c-0.6249,-2.88576 -2.00246,-6.30808 -1.24798,-9.35092c0.48647,-1.96193 2.26356,-3.94864 3.49326,-5.47478c0.65165,-0.28444 1.25106,-0.95374 1.95495,-0.85332c3.79355,0.54117 3.54961,5.22718 3.46066,7.93482c-0.02652,0.80736 0.28694,1.73894 -0.14935,2.41878c-1.87845,2.92703 -4.20771,0.19608 -4.37345,-1.78713v-0.6307c0,0 0,-1 1,-1c1,0 1,1 1,1v0.6307c-0.1795,0.88417 0.60406,1.13209 0.67215,0.73567c0.19984,-1.16348 0.05239,-8.58997 -2.30213,-6.89792c-2.81181,3.67146 -3.30285,6.46262 -2.1837,10.9668c0.62689,2.52304 2.32334,6.81143 5.97216,4.50661c0.8228,-0.51973 0.59875,-1.85377 0.96325,-2.75614c1.30354,-3.2271 0.55651,-6.66513 2.94539,-9.51866c0.84325,-0.99161 1.82934,-2.38326 3.1104,-2.94076c0.11406,-0.08023 0.25551,-0.14031 0.42837,-0.15225c3.13142,-0.90152 7.34996,1.74793 10.45523,0.08717c0.52435,-0.28043 0.7093,-1.04055 1.2614,-1.2614c0.58664,-0.23466 1.30661,0.22759 1.89549,-0.0014c2.44634,-0.95126 4.34847,-4.08914 5.60412,-6.26803c0.78451,-1.36133 2.04423,-2.57519 1.97427,-4.15929c0,0 0,-1 1,-1c1,0 1,1 1,1c-0.11422,4.12911 -4.19415,8.46347 -7.26181,10.83969c-0.55875,0.43281 -0.90563,1.16624 -1.55799,1.43819c-0.5811,0.24224 -1.30417,-0.23521 -1.88871,-0.0014c-0.5521,0.22083 -0.72378,1.00733 -1.2614,1.2614c-3.2173,1.52045 -7.19964,-0.71901 -10.31086,-0.09629c-0.86551,3.24871 0.28068,7.11759 1.40629,10.18006c0.40435,1.10013 1.07915,2.11686 1.29603,3.2687c0.05107,0.27123 -0.4058,0.546 -0.26614,0.78405c0.10575,0.18024 0.3468,-0.26805 0.55429,-0.29289c0.62623,-0.07497 1.2614,0 1.8921,0c2.2002,0 2.63415,-0.09638 4.12328,1.23988z" fill="#567b2f" stroke="none" stroke-width="0.5"/></g></g></svg>