<svg version="1.1" xmlns="http://www.w3.org/2000/svg" xmlns:xlink="http://www.w3.org/1999/xlink" width="88.5009" height="89.69678" viewBox="0,0,88.5009,89.69678"><g transform="translate(-195.74955,-135.15161)"><g data-paper-data="{&quot;isPaintingLayer&quot;:true}" fill-rule="nonzero" stroke-linejoin="miter" stroke-miterlimit="10" stroke-dasharray="" stroke-dashoffset="0" style="mix-blend-mode: normal"><path d="M196.74956,221.85528v-70.55604l58.5974,0.39862" fill="none" stroke="#000000" stroke-width="2" stroke-linecap="round"/><path d="M201.53302,214.68009l0.39862,-58.19877l47.43598,0.39863" fill="none" stroke="#000000" stroke-width="2" stroke-linecap="round"/><path d="M206.31648,223.84839v-62.98223h59.39464v62.98223z" fill="#434343" stroke="#000000" stroke-width="2" stroke-linecap="butt"/><text transform="translate(218.11818,200.82798) scale(0.59647,0.66412)" font-size="40" xml:space="preserve" fill="#000000" fill-rule="nonzero" stroke="none" stroke-width="1" stroke-linecap="butt" stroke-linejoin="miter" stroke-miterlimit="10" stroke-dasharray="" stroke-dashoffset="0" font-family="Curly" font-weight="normal" text-anchor="start" style="mix-blend-mode: normal"><tspan x="0" dy="0">Sell</tspan></text><path d="M265.71112,155.28545c0,2.20153 -1.69546,3.98622 -3.78691,3.98622c-2.09145,0 -3.7869,-1.78469 -3.7869,-3.98622c0,-2.20153 1.69545,-3.98621 3.7869,-3.98621c2.09145,0 3.78691,1.78469 3.78691,3.98621z" fill="none" stroke="#000000" stroke-width="2" stroke-linecap="butt"/><path d="M273.68354,163.65651l-5.97933,-5.18208" fill="none" stroke="#000000" stroke-width="2" stroke-linecap="round"/><path d="M269.69732,153.69097l13.55314,-3.18897" fill="none" stroke="#000000" stroke-width="2" stroke-linecap="round"/><path d="M273.28493,136.15161l-7.97244,12.35727" fill="none" stroke="#000000" stroke-width="2" stroke-linecap="round"/><path d="M259.73179,148.11026l-2.39173,-11.56003" fill="none" stroke="#000000" stroke-width="2" stroke-linecap="round"/><path d="M213.49167,206.70765h43.44976" fill="none" stroke="#000000" stroke-width="2" stroke-linecap="round"/><path d="M216.28202,211.09249h23.91731" fill="none" stroke="#000000" stroke-width="2" stroke-linecap="round"/><path d="M250.56349,213.28491c0,1.65115 -1.60622,2.98967 -3.5876,2.98967c-1.98138,0 -3.58759,-1.33852 -3.58759,-2.98967c0,-1.65115 1.60622,-2.98967 3.58759,-2.98967c1.98138,0 3.5876,1.33852 3.5876,2.98967z" fill="none" stroke="#000000" stroke-width="2" stroke-linecap="butt"/></g></g></svg>