<svg version="1.1" xmlns="http://www.w3.org/2000/svg" xmlns:xlink="http://www.w3.org/1999/xlink" width="67.56965" height="36.27717" viewBox="0,0,67.56965,36.27717"><defs><radialGradient cx="232.22916" cy="184.58941" r="31.60098" gradientUnits="userSpaceOnUse" id="color-1"><stop offset="0" stop-color="#9eff5d"/><stop offset="1" stop-color="#9eff5d" stop-opacity="0"/></radialGradient><linearGradient x1="249.29353" y1="185.1564" x2="251.93543" y2="186.4376" gradientUnits="userSpaceOnUse" id="color-2"><stop offset="0" stop-color="#13a900" stop-opacity="0"/><stop offset="1" stop-color="#13a900"/></linearGradient><linearGradient x1="248.69633" y1="186.4171" x2="251.76103" y2="187.9033" gradientUnits="userSpaceOnUse" id="color-3"><stop offset="0" stop-color="#13a900" stop-opacity="0"/><stop offset="1" stop-color="#13a900"/></linearGradient><linearGradient x1="248.44003" y1="187.8765" x2="251.08193" y2="189.1578" gradientUnits="userSpaceOnUse" id="color-4"><stop offset="0" stop-color="#13a900" stop-opacity="0"/><stop offset="1" stop-color="#13a900"/></linearGradient><linearGradient x1="242.96283" y1="197.4101" x2="245.60473" y2="198.6913" gradientUnits="userSpaceOnUse" id="color-5"><stop offset="0" stop-color="#13a900" stop-opacity="0"/><stop offset="1" stop-color="#13a900"/></linearGradient><linearGradient x1="242.36563" y1="198.6708" x2="245.43033" y2="200.157" gradientUnits="userSpaceOnUse" id="color-6"><stop offset="0" stop-color="#13a900" stop-opacity="0"/><stop offset="1" stop-color="#13a900"/></linearGradient><linearGradient x1="242.10933" y1="200.1302" x2="244.75123" y2="201.4115" gradientUnits="userSpaceOnUse" id="color-7"><stop offset="0" stop-color="#13a900" stop-opacity="0"/><stop offset="1" stop-color="#13a900"/></linearGradient><radialGradient cx="244.94219" cy="188.10609" r="1.87961" gradientUnits="userSpaceOnUse" id="color-8"><stop offset="0" stop-color="#d7ffbc"/><stop offset="1" stop-color="#26ff00"/></radialGradient><radialGradient cx="241.1859" cy="194.73113" r="1.87961" gradientUnits="userSpaceOnUse" id="color-9"><stop offset="0" stop-color="#d7ffbc"/><stop offset="1" stop-color="#26ff00"/></radialGradient><radialGradient cx="237.50704" cy="188.06387" r="20.64482" gradientUnits="userSpaceOnUse" id="color-10"><stop offset="0" stop-color="#d7ffbc"/><stop offset="1" stop-color="#7af12b"/></radialGradient></defs><g transform="translate(-186.61443,-166.0232)"><g data-paper-data="{&quot;isPaintingLayer&quot;:true}" fill-rule="nonzero" stroke-linejoin="miter" stroke-miterlimit="10" stroke-dasharray="" stroke-dashoffset="0" style="mix-blend-mode: normal"><path d="M253.63548,189.55673c-2.16839,8.52164 -8.4188,14.7663 -25.33255,10.46248c-0.69244,-0.1762 -8.26536,0.76832 -8.26536,0.76832c0,0 2.43212,-6.15358 1.88046,-7.43588c-0.48002,-1.11576 -5.00556,0.17199 -5.00556,0.17199l-21.13391,-8.57044c0,0 11.60344,0.83438 8.82908,-1.22357c-7.92354,-5.87751 -17.99321,-10.26749 -17.99321,-10.26749c0,0 14.77131,2.61496 19.32071,1.50781c3.61109,-0.87882 -4.84348,-6.72573 -4.84348,-6.72573l26.15795,0.93392c0,0 0.29202,3.67347 2.147,3.60575c2.06021,-0.07521 5.36444,-6.76068 5.36444,-6.76068c0,0 4.54608,6.35102 6.09684,6.96255c11.85248,4.67393 14.69512,9.03532 12.77761,16.571z" fill="url(#color-1)" stroke="#f3f3f3" stroke-width="0" stroke-linecap="butt"/><path d="M248.80383,190.0207c0,0 2.0044,1.7892 1.4217,2.556c-0.5827,0.7669 -3.2218,1.4019 -3.2218,1.4019c0,0 1.3118,1.613 0.8816,2.8237c-0.4301,1.2108 -3.1314,0.3599 -3.1314,0.3599" fill="none" stroke="#009413" stroke-width="0.5" stroke-linecap="round"/><path d="M245.52133,194.5226c-0.4208,-0.204 -0.1174,-0.6178 0.0697,-1.0035c0.187,-0.3857 0.5784,-1.1644 0.9991,-0.9604c0.4208,0.2041 0.5566,1.4819 0.5566,1.4819c0,0 -1.2046,0.6861 -1.6254,0.482z" fill="#00ff15" stroke="#009413" stroke-width="0.5" stroke-linecap="butt"/><path d="M240.28723,179.4025l2.3198,-2.5113l0.6892,1.9871" fill="none" stroke="#009413" stroke-width="0.5" stroke-linecap="round"/><path d="M231.42093,197.9123l-2.4332,0.4729l2.1307,-3.4846" fill="none" stroke="#009413" stroke-width="0.5" stroke-linecap="round"/><path d="M231.87503,198.7936l-0.2133,-2.9684" fill="none" stroke="#009413" stroke-width="0.5" stroke-linecap="round"/><path d="M244.18293,178.8676l-2.0357,0.335" fill="none" stroke="#009413" stroke-width="0.5" stroke-linecap="round"/><path d="M249.53443,184.6596l2.1601,2.2748" fill="none" stroke="url(#color-2)" stroke-width="0.5" stroke-linecap="round"/><path d="M248.96403,185.8651l2.5293,2.5902" fill="none" stroke="url(#color-3)" stroke-width="0.5" stroke-linecap="round"/><path d="M248.62743,187.4901l2.2671,2.054" fill="none" stroke="url(#color-4)" stroke-width="0.5" stroke-linecap="round"/><path d="M243.20373,196.9133l2.1601,2.2748" fill="none" stroke="url(#color-5)" stroke-width="0.5" stroke-linecap="round"/><path d="M245.16263,200.709l-2.5293,-2.5902" fill="none" stroke="url(#color-6)" stroke-width="0.5" stroke-linecap="round"/><path d="M244.56383,201.7979l-2.2671,-2.0541" fill="none" stroke="url(#color-7)" stroke-width="0.5" stroke-linecap="round"/><path d="M244.47209,188.79034c-0.85561,-0.58784 -1.33873,-1.37073 -1.0791,-1.74862c0.25963,-0.37789 1.1637,-0.2077 2.01931,0.38015c0.85561,0.58784 1.33873,1.37073 1.0791,1.74862c-0.25963,0.37789 -1.1637,0.2077 -2.01931,-0.38014z" fill="url(#color-8)" stroke="#000000" stroke-width="0" stroke-linecap="butt"/><path d="M245.90503,190.0723c0,0 0.4016,-1.0662 0.7351,-1.4682c0.3075,-0.3706 1.5596,-1.0592 1.5596,-1.0592" data-paper-data="{&quot;index&quot;:null}" fill="none" stroke="#009413" stroke-width="0.5" stroke-linecap="round"/><path d="M244.89757,188.30948c-0.60395,-0.41495 -1.03975,-0.82964 -0.97339,-0.92622c0.06637,-0.0966 0.60978,0.16148 1.21373,0.57644c0.60394,0.41494 1.03975,0.82964 0.97339,0.92622c-0.06637,0.0966 -0.60977,-0.16149 -1.21372,-0.57643z" fill="#000000" stroke="#000000" stroke-width="0" stroke-linecap="butt"/><path d="M244.04953,187.35697c-0.16599,-0.11404 -0.21179,-0.33566 -0.10232,-0.49501c0.10948,-0.15935 0.33279,-0.19608 0.49876,-0.08203c0.16599,0.11404 0.21179,0.33566 0.10232,0.49501c-0.10947,0.15935 -0.33279,0.19608 -0.49877,0.08204z" fill="#e3ffe7" stroke="none" stroke-width="0" stroke-linecap="butt"/><path d="M244.49342,187.71661c-0.08631,-0.05931 -0.11191,-0.17196 -0.05717,-0.25164c0.05474,-0.07968 0.16908,-0.09619 0.2554,-0.03688c0.08631,0.05931 0.11191,0.17195 0.05717,0.25163c-0.05474,0.07968 -0.16907,0.09619 -0.2554,0.03689z" fill="#e3ffe7" stroke="none" stroke-width="0" stroke-linecap="butt"/><path d="M242.88637,195.53198c-0.19536,0.41479 -1.11503,0.39249 -2.05417,-0.04982c-0.93913,-0.4423 -1.54211,-1.1371 -1.34675,-1.55189c0.19536,-0.41479 1.11505,-0.39249 2.05418,0.04981c0.93913,0.4423 1.5421,1.13711 1.34675,1.5519z" data-paper-data="{&quot;index&quot;:null}" fill="url(#color-9)" stroke="#000000" stroke-width="0" stroke-linecap="butt"/><path d="M242.31503,197.8192c0,0 -0.037,-1.4284 0.1279,-1.8809c0.1789,-0.4907 0.8971,-1.3752 0.8971,-1.3752" data-paper-data="{&quot;index&quot;:null}" fill="none" stroke="#009413" stroke-width="0.5" stroke-linecap="round"/><path d="M242.44892,195.3473c-0.04993,0.10601 -0.62782,-0.06113 -1.29073,-0.37334c-0.66292,-0.3122 -1.15984,-0.65125 -1.10993,-0.75728c0.04993,-0.10601 0.62781,0.06113 1.29074,0.37334c0.66292,0.3122 1.15984,0.65125 1.10993,0.75728z" data-paper-data="{&quot;index&quot;:null}" fill="#000000" stroke="#000000" stroke-width="0" stroke-linecap="butt"/><path d="M240.26954,194.81023c-0.08237,0.1749 -0.29684,0.24713 -0.47904,0.16133c-0.18218,-0.08581 -0.2631,-0.29716 -0.18074,-0.47205c0.08237,-0.1749 0.29685,-0.24714 0.47904,-0.16133c0.18218,0.08581 0.26309,0.29716 0.18073,0.47205z" data-paper-data="{&quot;index&quot;:null}" fill="#e3ffe7" stroke="none" stroke-width="0" stroke-linecap="butt"/><path d="M240.7202,194.77922c-0.04118,0.08745 -0.15137,0.12218 -0.24611,0.07755c-0.09475,-0.04462 -0.13816,-0.15168 -0.09697,-0.23913c0.04118,-0.08745 0.15138,-0.12218 0.24612,-0.07756c0.09475,0.04462 0.13815,0.15168 0.09696,0.23914z" data-paper-data="{&quot;index&quot;:null}" fill="#e3ffe7" stroke="none" stroke-width="0" stroke-linecap="butt"/><path d="M225.45103,175.9162l9.132,3.437" fill="none" stroke="#2bff5a" stroke-width="0.5" stroke-linecap="round"/><path d="M223.99553,187.5518l5.4878,2.7715" fill="none" stroke="#2bff5a" stroke-width="0.5" stroke-linecap="round"/><path d="M233.72461,188.5448l-6.0257,-3.2528" fill="none" stroke="#2bff5a" stroke-width="0.5" stroke-linecap="round"/><path d="M231.84393,182.3191l-7.2559,-2.3067" fill="none" stroke="#2bff5a" stroke-width="0.5" stroke-linecap="round"/><path d="M220.23293,180.7685l2.3654,1.2573" fill="none" stroke="#2bff5a" stroke-width="0.5" stroke-linecap="round"/><path d="M237.65623,195.8593c0,0 1.2425,-1.8153 1.8564,-2.2309c0.6657,-0.4508 2.3594,-0.9063 2.3594,-0.9063" data-paper-data="{&quot;index&quot;:null}" fill="none" stroke="#009413" stroke-width="0.5" stroke-linecap="round"/><path d="M243.61973,189.4916c0,0 -0.6911,-1.612 -0.7493,-2.4139c-0.0538,-0.7394 0.6023,-2.839 0.6023,-2.839" data-paper-data="{&quot;index&quot;:null}" fill="none" stroke="#009413" stroke-width="0.5" stroke-linecap="round"/><path d="M250.59317,193.97307c-3.24575,6.69283 -8.70399,11.18445 -18.96306,6.20921c-0.41999,-0.20369 -5.62433,-0.11132 -5.62433,-0.11132c0,0 2.91616,-4.75624 2.8245,-5.84111c-0.07975,-0.94396 -3.34373,-0.30439 -3.34373,-0.30439c0,0 -2.57404,-3.29579 -4.36384,-4.12912c-1.89284,-0.88131 -6.71826,-0.2769 -6.71826,-0.2769c0,0 6.43137,-2.68829 5.03624,-4.5967c-3.98448,-5.4504 -9.83013,-4.29427 -9.83013,-4.29427c0,0 9.32967,-2.17379 12.57098,-2.66534c2.5728,-0.39018 -4.20853,-3.60446 -4.20853,-3.60446c0,0 4.07751,-1.45044 6.33753,-1.35633c3.60056,0.14992 13.1856,2.16927 13.1856,2.16927c0,0 -0.58866,2.99376 0.65131,3.10335c1.37716,0.12172 4.98268,-4.98702 4.98268,-4.98702c0,0 1.65226,5.53383 2.54672,6.16524c6.83637,4.82598 7.78653,8.60144 4.91631,14.5199z" fill="url(#color-10)" stroke="#f3f3f3" stroke-width="0" stroke-linecap="butt"/></g></g></svg>