<svg version="1.1" xmlns="http://www.w3.org/2000/svg" xmlns:xlink="http://www.w3.org/1999/xlink" width="314.80573" height="95.1785" viewBox="0,0,314.80573,95.1785"><defs><radialGradient cx="240.00001" cy="180.26464" r="156.40287" gradientUnits="userSpaceOnUse" id="color-1"><stop offset="0" stop-color="#d3e7ea"/><stop offset="1" stop-color="#83d4e2"/></radialGradient><radialGradient cx="120.01632" cy="143.15769" r="38.22685" gradientUnits="userSpaceOnUse" id="color-2"><stop offset="0" stop-color="#a3a3a3"/><stop offset="1" stop-color="#707173"/></radialGradient><radialGradient cx="128.3333" cy="155.55823" r="41.79527" gradientTransform="translate(-340.3148,-356.31125) scale(3.9521,2.20804)" gradientUnits="userSpaceOnUse" id="color-3"><stop offset="0" stop-color="#a0ffff"/><stop offset="1" stop-color="#ffffff"/></radialGradient></defs><g transform="translate(-82.59713,-124.33238)"><g data-paper-data="{&quot;isPaintingLayer&quot;:true}" fill-rule="nonzero" stroke-linejoin="miter" stroke-miterlimit="10" stroke-dasharray="" stroke-dashoffset="0" style="mix-blend-mode: normal"><path d="M161.02606,140.82144v-15.23906h93.61135v15.23906z" fill="#fcfcfc" stroke="#000000" stroke-width="2.5" stroke-linecap="butt"/><text transform="translate(163.63849,136.46742) scale(0.23584,0.23584)" font-size="40" xml:space="preserve" fill="#0a0a0a" fill-rule="nonzero" stroke="none" stroke-width="1" stroke-linecap="butt" stroke-linejoin="miter" stroke-miterlimit="10" stroke-dasharray="" stroke-dashoffset="0" font-family="Sans Serif" font-weight="normal" text-anchor="start" style="mix-blend-mode: normal"><tspan x="0" dy="0">TowerSize: Small</tspan></text><path d="M83.59713,218.51088v-76.49249h312.80573v76.49249z" fill="url(#color-1)" stroke="#000000" stroke-width="2" stroke-linecap="butt"/><path d="M84.66204,217.94284v-76.4537h74.68599v76.4537z" fill="url(#color-2)" stroke="#000000" stroke-width="0.5" stroke-linecap="butt"/><text transform="translate(161.79515,171.54518) scale(0.18933,0.68899)" font-size="40" xml:space="preserve" fill="#000000" fill-rule="nonzero" stroke="#000000" stroke-width="0" stroke-linecap="butt" stroke-linejoin="miter" stroke-miterlimit="10" stroke-dasharray="" stroke-dashoffset="0" font-family="Serif" font-weight="normal" text-anchor="start" style="mix-blend-mode: normal"><tspan x="0" dy="0">He has 2 attacks slowing enemies down in an area and doing Good damage,</tspan><tspan x="0" dy="48px">Good Mid-Endgame Tower!</tspan></text><text transform="translate(114.25494,207.23122) scale(0.5,0.5)" font-size="40" xml:space="preserve" fill="#000000" fill-rule="nonzero" stroke="none" stroke-width="1" stroke-linecap="butt" stroke-linejoin="miter" stroke-miterlimit="10" stroke-dasharray="" stroke-dashoffset="0" font-family="Marker" font-weight="normal" text-anchor="start" style="mix-blend-mode: normal"><tspan x="0" dy="0">335</tspan></text><g stroke="#000000" stroke-linecap="butt"><path d="M101.88069,210.27298c-6.07513,0 -11,-4.64505 -11,-10.375c0,-5.72995 4.92487,-10.375 11,-10.375c6.07513,0 11,4.64505 11,10.375c0,5.72995 -4.92487,10.375 -11,10.375z" fill="#ffd036" stroke-width="1"/><path d="M109.81819,199.77298c0,4.55635 -3.55374,8.25 -7.9375,8.25c-4.38376,0 -7.9375,-3.69365 -7.9375,-8.25c0,-4.55635 3.55374,-8.25 7.9375,-8.25c4.38376,0 7.9375,3.69365 7.9375,8.25z" fill="#e0b82f" stroke-width="1"/><text transform="translate(97.03049,205.49173) scale(0.4349,0.4349)" font-size="40" xml:space="preserve" fill="#000000" fill-rule="nonzero" stroke="#000000" stroke-width="0" stroke-linecap="butt" stroke-linejoin="miter" stroke-miterlimit="10" stroke-dasharray="" stroke-dashoffset="0" font-family="Sans Serif" font-weight="normal" text-anchor="start" style="mix-blend-mode: normal"><tspan x="0" dy="0">$</tspan></text></g><path d="M149.6256,168.88873l-59.6604,0.44193" fill="none" stroke="#000000" stroke-width="0.5" stroke-linecap="round"/><path d="M141.67087,174.6338l-45.07675,1.32579" fill="none" stroke="#000000" stroke-width="0.5" stroke-linecap="round"/><text transform="translate(86.10985,161.3698) scale(0.25303,0.45289)" font-size="40" xml:space="preserve" fill="url(#color-3)" fill-rule="nonzero" stroke="#002ea9" stroke-width="1" stroke-linecap="butt" stroke-linejoin="miter" stroke-miterlimit="10" stroke-dasharray="" stroke-dashoffset="0" font-family="Marker" font-weight="normal" text-anchor="start" style="mix-blend-mode: normal"><tspan x="0" dy="0">Absol</tspan></text><path d="M350.30547,200.13059c0.54275,-0.01177 0.41268,0.51633 0.41268,0.51633l-0.09169,0.37229c-0.32223,0.89193 0.5061,0.88358 1.04469,0.24136c0,0 0.40926,-0.44596 0.78874,-0.16285c0.37948,0.28311 -0.02984,0.72908 -0.02984,0.72908c-0.63281,0.65407 -1.33459,0.95042 -1.89342,0.91755l-0.52479,1.04877c0.12113,0.25734 0.20127,0.57448 0.23923,0.95614c0,0 0.04825,0.49727 -0.50776,0.67545c-0.55603,0.17818 -0.60428,-0.31909 -0.60428,-0.31909c-0.02184,-0.23162 -0.0593,-0.42575 -0.11544,-0.58505c-0.50056,0.48965 -1.08066,0.93493 -1.64878,1.30927c0.18223,0.22069 0.2894,0.50188 0.32206,0.80946c0.21284,-0.00828 0.42567,-0.00867 0.6384,0.00076c-0.09846,-0.09783 -0.17361,-0.27093 -0.0088,-0.55292c0.29503,-0.50474 0.76878,-0.34889 0.76878,-0.34889l0.62905,0.22297c0.24343,0.30451 0.4283,0.68517 0.5133,1.07749c0.60261,0.19745 1.19066,0.40284 1.86499,0.4449c0.12751,-0.1532 0.27542,-0.31959 0.44329,-0.50252l0.56192,-0.46252c0,0 0.47571,-0.38174 0.76754,-0.01666c0.29183,0.36506 -0.18393,0.74682 -0.18393,0.74682l-0.38668,0.29865c-0.09769,0.10647 -0.24096,0.19693 -0.38302,0.2857c0.00221,0.04988 -0.00358,0.10694 -0.01967,0.1723c-0.07033,0.28551 -0.2612,0.42009 -0.4218,0.48353c0.1306,0.18969 0.52867,0.2182 0.73266,0.3687c0,0 0.37948,0.28311 -0.0298,0.72906c-0.40927,0.44595 -0.78874,0.16279 -0.78874,0.16279c-0.64214,-0.48364 -0.92217,-0.83336 -0.86836,-1.24889c-0.48585,-0.06662 -0.92566,-0.19858 -1.36474,-0.33692c-0.2208,0.51954 -0.74512,0.92767 -1.70439,1.01901c0,0 -0.54275,0.01177 -0.41269,-0.51632c0.13007,-0.5281 0.67282,-0.53988 0.67282,-0.53988c0.32749,0.06022 0.47218,-0.05617 0.51381,-0.24083c-0.31735,-0.08181 -0.64941,-0.14706 -1.01101,-0.17638c-0.226,-0.01831 -0.45237,-0.02365 -0.67917,-0.01857c-0.174,0.43976 -0.4837,0.85958 -0.9276,1.17424c0.03071,0.03307 0.04581,0.05879 0.04581,0.05879c0.08926,0.15261 0.17392,0.3071 0.25541,0.46296c0.01409,-0.048 0.02612,-0.09521 0.03594,-0.14113c0,0 0.13007,-0.5281 0.67282,-0.53988c0.54275,-0.01177 0.41268,0.51633 0.41268,0.51633c-0.12146,0.45407 -0.32084,0.88646 -0.58788,1.26474c0.08413,0.18018 0.1683,0.36058 0.25471,0.54046c0.46506,-0.09626 1.03858,0.1493 1.76193,0.68906c0,0 0.37948,0.28311 -0.02984,0.72908c-0.40927,0.44595 -0.78873,0.16282 -0.78873,0.16282c-0.15687,-0.11706 -0.3471,-0.40697 -0.51569,-0.645c-0.01661,0.12416 -0.08775,0.27122 -0.27712,0.41858c-0.10016,0.07794 -0.19171,0.12354 -0.27395,0.14689c-0.03434,0.19425 -0.07341,0.39067 -0.12351,0.59404l-0.48806,0.56718c0,0 -0.4757,0.38175 -0.76754,0.01666c-0.29183,-0.36506 0.18393,-0.74682 0.18393,-0.74682l-0.01378,0.18661c0.1247,-0.50642 0.26262,-0.91773 0.41844,-1.23939c-0.08694,-0.17627 -0.17082,-0.35345 -0.25371,-0.53074c-0.4053,0.26336 -0.87532,0.43296 -1.39805,0.47076l-0.09924,-0.18997c-0.13977,0.12146 -0.29639,0.17164 -0.29639,0.17164c-0.20364,0.06357 -0.38951,0.13599 -0.56089,0.20933c-0.18868,0.83826 -0.44335,1.66471 -0.89481,2.45238c0,0 -0.05872,0.10047 -0.1659,0.19793c0.31181,0.2489 0.56096,0.57119 0.75983,0.99797c0,0 0.19284,0.43287 -0.33087,0.73563c-0.52372,0.30273 -0.71661,-0.13012 -0.71661,-0.13012c-0.24986,-0.59719 -0.72274,-0.8341 -1.21579,-1.23487l-0.41776,0.42474c0,0 -0.47571,0.38176 -0.76754,0.01666c-0.29183,-0.36506 0.18393,-0.74682 0.18393,-0.74682l1.00515,-0.71705c0.24909,0.05803 0.47801,0.12487 0.68821,0.20471c0.01645,-0.03747 0.02983,-0.06034 0.02983,-0.06034c0.30551,-0.50944 0.52708,-1.08257 0.7009,-1.68097c-0.36098,0.06221 -0.6689,-0.07099 -1.01982,-0.63183l0.01308,-0.23207c-0.11749,-0.0266 -0.22573,-0.06011 -0.3247,-0.10072l-0.57233,0.69269c0,0 -0.10836,0.1311 -0.27088,0.2159c-0.06384,0.56625 -0.41186,1.21453 -1.06667,1.77426c0,0 -0.4757,0.38175 -0.76754,0.01666c-0.29183,-0.36506 0.18393,-0.74682 0.18393,-0.74682c0.93573,-0.67351 0.72806,-1.77147 -0.44902,-1.34225l-0.2307,0.24841c0,0 -0.47571,0.38174 -0.76754,0.01666c-0.29183,-0.36506 0.18393,-0.74682 0.18393,-0.74682l0.7179,-0.51281c0.91445,-0.269 1.55863,-0.11366 1.90624,0.26726l0.40634,-0.49147c0.01353,-0.01511 0.02701,-0.03021 0.04032,-0.04518c-0.05169,-0.1238 -0.08605,-0.26194 -0.10319,-0.41481c-0.1791,-0.00297 -0.29711,-0.09879 -0.29711,-0.09879c-0.73985,-0.60097 -1.52301,-1.37888 -1.28119,-2.12151c-0.53565,-0.05707 -1.07355,-0.10626 -1.62347,-0.11601c-0.10287,0.09942 -0.25157,0.18219 -0.46279,0.18676c-0.08911,0.0019 -0.16013,-0.01071 -0.21653,-0.03313c-0.16991,0.20652 -0.30149,0.41532 -0.34224,0.63091c0,0 -0.13006,0.52809 -0.67281,0.53987c-0.54275,0.01177 -0.41269,-0.51632 -0.41269,-0.51632c0.13786,-0.49452 0.44229,-0.9993 0.82096,-1.42005c0.20131,-0.22366 0.93585,-0.55128 0.68479,-0.59949c-0.39822,-0.07641 -0.81195,-0.1311 -1.17166,-0.27721l0.00095,0.03754c0,0 -0.54275,0.01177 -0.41269,-0.51632c0.13007,-0.5281 0.67283,-0.53987 0.67283,-0.53987l0.38356,0.02922c0.11176,0.04546 1.57636,0.60119 1.61424,0.77314c0.0498,0.22621 -0.00907,0.442 -0.12792,0.65151c0.78289,0.0224 1.54222,0.12529 2.30756,0.20963c0.18375,-0.08916 0.3943,-0.17597 0.6341,-0.25997l0.56093,-0.03913c0,0 0.47081,-0.01024 0.43038,0.41507c0.1244,0.00156 0.24949,0.00094 0.37536,-0.00218c-0.0821,-0.27106 -0.12394,-0.55251 -0.11999,-0.83262c-0.03277,0.02516 -0.06954,0.04982 -0.11076,0.07363c-0.52372,0.30273 -0.71661,-0.13012 -0.71661,-0.13012l-0.19712,-0.47108c-0.85424,-0.66957 -0.9231,-1.37919 -0.51332,-1.91456c-0.10923,-0.20266 -0.20809,-0.40972 -0.29887,-0.61529l-0.05011,-0.47573c-0.15496,0.02203 -0.32149,0.0359 -0.49977,0.04162c0,0 -0.54275,0.01178 -0.41269,-0.51632c0.13007,-0.5281 0.67281,-0.53987 0.67281,-0.53987c0.8208,-0.00636 0.92597,0.03923 0.64957,-0.73509l-0.22307,-0.2289c0,0 -0.29183,-0.36506 0.18393,-0.74682c0.47571,-0.38176 0.76755,-0.01667 0.76755,-0.01667l0.35881,0.49901c0.18185,0.82329 0.05483,1.42986 -0.39432,1.81073l0.03665,0.42289c0.06244,0.13833 0.13193,0.2842 0.20912,0.43147c0.33805,-0.11933 0.72894,-0.19094 1.15176,-0.20009c0,0 0.54275,-0.01178 0.41268,0.51633c-0.13007,0.5281 -0.67281,0.53987 -0.67281,0.53987c-0.11266,0.00247 -0.2178,0.00641 -0.31481,0.0123c0.20294,0.23086 0.43612,0.42472 0.70371,0.54479c0.24407,-0.23032 0.55279,-0.43031 0.93261,-0.58601c-0.52231,0.00008 -0.39511,-0.51648 -0.39511,-0.51648l0.1375,-0.55841c0.54363,-1.40378 1.3438,-1.50374 2.14442,-1.11883c0.12243,-0.42559 0.2395,-0.85248 0.34838,-1.28107c-0.24253,-0.17627 -0.41709,-0.49687 -0.48738,-0.99526l1.06867,-0.71459c0,0 0.54275,-0.01178 0.41269,0.51632c-0.03471,0.14083 -0.09871,0.24495 -0.17395,0.32194c0.28651,0.11185 0.82765,-0.39164 1.21071,-0.82096c0,0 0.40927,-0.44595 0.78873,-0.16282c0.37948,0.28311 -0.02984,0.72908 -0.02984,0.72908c-0.54474,0.58142 -1.1704,1.02989 -1.73018,1.21015c-0.15363,0.61566 -0.31104,1.22474 -0.4743,1.83019c0.01704,0.01541 0.20908,0.19691 0.10828,0.46858l0.04031,0.00443c0.89413,-0.27817 1.61979,-0.36384 2.16555,-0.21031c0.02668,-0.04198 0.05228,-0.08412 0.07677,-0.12626l0.07164,-0.04628l-0.02067,-0.01538l0.48429,-0.52765c-0.17905,-0.28567 -0.24491,-0.69646 -0.14335,-1.22497l0.09169,-0.37229c0,0 0.13007,-0.5281 0.67282,-0.53988zM345.44281,210.60434c0.18703,-0.00403 0.29418,0.05599 0.35432,0.13644c0.12398,-0.04235 0.24132,-0.10809 0.35045,-0.19057c-0.15486,-0.32146 -0.31699,-0.63915 -0.49886,-0.94844c0,0 -0.07008,-0.11948 -0.05317,-0.28302c-0.30945,0.07409 -0.6065,0.09365 -0.88707,0.06768c-0.11942,0.51162 -0.21184,1.02946 -0.30762,1.54729c0.08355,-0.03987 0.16553,-0.0744 0.24388,-0.10001c0,0 0.1594,-0.05106 0.31497,-0.02219c0.10332,-0.10825 0.25755,-0.20235 0.48312,-0.20724zM342.29643,209.3465c-0.00873,0.03552 -0.0194,0.06875 -0.03159,0.09979c0.26669,-0.26919 0.56011,-0.51349 0.93746,-0.73888c-0.10317,-0.09468 -0.19904,-0.19708 -0.28708,-0.30564c-0.8667,0.08912 -1.68864,0.03883 -2.50018,-0.04187c-0.22133,0.29555 0.31201,0.6212 0.75422,0.92019l0.7145,-0.44987c0,0 0.54275,-0.01177 0.41269,0.51632zM343.14712,210.65422c0,0 0.16619,-0.00361 0.29265,0.08267c0.07897,-0.41808 0.15189,-0.83071 0.23034,-1.22573c-0.52298,0.26977 -0.86309,0.65597 -1.20746,1.09165c0.17265,0.0466 0.39857,0.06163 0.68452,0.05144zM344.76568,203.18311l-0.1375,0.55841c0,0 -0.06181,0.25103 -0.27812,0.41078c0.30209,-0.00288 0.57058,0.02025 0.83097,0.05071c0.10373,-0.32954 0.20694,-0.65937 0.30819,-0.98975c-0.37784,-0.31841 -0.83127,-0.61643 -0.72353,-0.03016zM347.00323,204.18824l-0.56093,0.03913c0,0 -0.04356,0.00096 -0.10293,-0.00967c-0.01021,0.03516 -0.02041,0.07034 -0.03066,0.10552c0.04113,0.00196 0.08286,0.00352 0.1252,0.00462l0.56641,0.63653c0.44058,-0.29235 0.88709,-0.64363 1.27761,-1.02561c-0.31705,-0.02062 -0.73426,0.06953 -1.27465,0.24947zM344.17604,205.19839c-1.09107,0.13678 -0.96013,1.22636 -0.42269,2.0585c0.17137,-0.02828 0.34225,-0.05861 0.51272,-0.09021c0.18559,-0.63914 0.38346,-1.27703 0.58423,-1.9153c-0.21019,-0.03129 -0.42604,-0.05956 -0.67423,-0.053zM345.4931,206.93018c0.3686,-0.07006 0.73576,-0.13557 1.10208,-0.18712c-0.08251,-0.27506 -0.37591,-0.4368 -0.94288,-0.29414c-0.05233,0.16022 -0.10538,0.32059 -0.1592,0.48122zM345.1177,208.01813c-0.02377,0.06699 -0.04771,0.13401 -0.07178,0.20113c-0.00027,0.00078 -0.00057,0.00163 -0.00085,0.00239c0.45524,0.03757 0.84331,-0.13903 1.12032,-0.3955c-0.348,0.05523 -0.69722,0.1223 -1.04769,0.19198z" fill="#a8f2ff" stroke="none" stroke-width="0.5" stroke-linecap="butt"/><path d="M380.77075,162.48539c0.29683,-0.25224 0.46347,0.10063 0.46347,0.10063l0.11748,0.24877c0.22437,0.64241 0.68172,0.2628 0.69084,-0.33853c0,0 0.02597,-0.43353 0.36538,-0.44769c0.33941,-0.01416 0.31342,0.41939 0.31342,0.41939c-0.05621,0.65058 -0.31275,1.13324 -0.63874,1.3679l0.18259,0.82141c0.18392,0.08843 0.3721,0.22871 0.566,0.424c0,0 0.25197,0.25499 0.02308,0.60588c-0.22888,0.35089 -0.48085,0.0959 -0.48085,0.0959c-0.11701,-0.11906 -0.22574,-0.21018 -0.3291,-0.27344c-0.05701,0.49918 -0.17839,1.00966 -0.32522,1.47524c0.20135,0.04037 0.3883,0.1484 0.54571,0.30485c0.11474,-0.10096 0.23305,-0.19752 0.35575,-0.28856c-0.09909,-0.00989 -0.21929,-0.07224 -0.25519,-0.30383c-0.06423,-0.41454 0.27005,-0.54224 0.27005,-0.54224l0.45113,-0.16062c0.27336,0.05933 0.54859,0.18756 0.77351,0.36749c0.42486,-0.16286 0.8452,-0.31471 1.23965,-0.59654c0.00164,-0.14301 0.00866,-0.3026 0.01931,-0.48042l0.10345,-0.51185c0,0 0.09203,-0.42786 0.41976,-0.35671c0.32772,0.07113 0.23567,0.49902 0.23567,0.49902l-0.08008,0.3413c-0.00619,0.1035 -0.045,0.21871 -0.08391,0.33244c0.0238,0.02677 0.04641,0.06115 0.06704,0.10482c0.09009,0.19079 0.04475,0.35211 -0.01594,0.46012c0.15857,0.04648 0.39309,-0.11784 0.57478,-0.1264c0,0 0.33941,-0.01416 0.31344,0.41936c-0.02598,0.43353 -0.36541,0.44767 -0.36541,0.44767c-0.57641,0.02143 -0.89062,-0.0465 -1.04876,-0.30219c-0.30064,0.18284 -0.60522,0.30847 -0.91228,0.43021c0.11226,0.38918 0.00511,0.85373 -0.48757,1.33882c0,0 -0.29683,0.25225 -0.46347,-0.10062c-0.16664,-0.35288 0.13018,-0.60512 0.13018,-0.60512c0.20958,-0.11472 0.23744,-0.24501 0.17703,-0.36666c-0.2137,0.09811 -0.4281,0.2121 -0.64268,0.35946c-0.1341,0.09211 -0.26254,0.19161 -0.38651,0.2971c0.1022,0.32358 0.11983,0.69749 0.01514,1.07361c0.03207,0.00451 0.05212,0.01199 0.05212,0.01199c0.11877,0.04456 0.23584,0.09223 0.35176,0.14212c-0.01389,-0.0331 -0.02856,-0.06483 -0.04388,-0.09484c0,0 -0.16664,-0.35288 0.13017,-0.60512c0.29683,-0.25224 0.46347,0.10063 0.46347,0.10063c0.13792,0.30777 0.22267,0.63873 0.24524,0.97021c0.12839,0.06222 0.25693,0.12456 0.38645,0.18558c0.21533,-0.26411 0.64577,-0.38702 1.2928,-0.41397c0,0 0.33941,-0.01416 0.31342,0.41939c-0.02598,0.43353 -0.36539,0.44768 -0.36539,0.44768c-0.14032,0.00584 -0.37746,-0.06944 -0.57906,-0.12564c0.04695,0.07664 0.07392,0.19072 0.0352,0.35848c-0.02048,0.08873 -0.0508,0.15556 -0.08602,0.20578c0.06881,0.12369 0.13597,0.25071 0.20014,0.38661l-0.01496,0.53668c0,0 -0.09202,0.42786 -0.41976,0.35671c-0.32772,-0.07113 -0.23567,-0.49902 -0.23567,-0.49902l0.07681,0.11013c-0.15981,-0.33838 -0.26923,-0.62979 -0.32809,-0.8794c-0.12819,-0.05878 -0.25509,-0.11944 -0.38149,-0.18062c-0.10642,0.33008 -0.29131,0.63726 -0.5652,0.89493l-0.14124,-0.06084c-0.02283,0.13089 -0.08731,0.22972 -0.08731,0.22972c-0.0846,0.12757 -0.15528,0.25203 -0.2175,0.37043c0.27442,0.55207 0.50675,1.12745 0.61197,1.77032c0,0 0.01279,0.08252 -0.00276,0.18529c0.28625,-0.00259 0.57085,0.06406 0.87476,0.21163c0,0 0.3033,0.15369 0.1488,0.55931c-0.15452,0.40561 -0.45784,0.25195 -0.45784,0.25195c-0.40943,-0.21936 -0.77993,-0.13719 -1.23584,-0.13711l-0.0403,0.42556c0,0 -0.09203,0.42787 -0.41976,0.35672c-0.32772,-0.07113 -0.23567,-0.49902 -0.23567,-0.49902l0.23499,-0.85419c0.16494,-0.08045 0.32264,-0.14686 0.4758,-0.19757c-0.00781,-0.02831 -0.01071,-0.0471 -0.01071,-0.0471c-0.06053,-0.42191 -0.19662,-0.84127 -0.37073,-1.25309c-0.1728,0.19804 -0.40452,0.26327 -0.85375,0.1099l-0.09777,-0.13511c-0.07745,0.03837 -0.15288,0.06871 -0.22636,0.09091l-0.00506,0.64471c0,0 -0.00098,0.12203 -0.05307,0.24281c0.22078,0.34413 0.32049,0.86258 0.20933,1.4706c0,0 -0.09202,0.42786 -0.41976,0.35671c-0.32772,-0.07113 -0.23567,-0.49902 -0.23567,-0.49902c0.21605,-0.79853 -0.39658,-1.31576 -0.85757,-0.54399l-0.01599,0.24272c0,0 -0.09203,0.42786 -0.41976,0.35671c-0.32772,-0.07113 -0.23567,-0.49902 -0.23567,-0.49902l0.16753,-0.61046c0.38731,-0.56369 0.81625,-0.76882 1.1822,-0.71412l0.00374,-0.45754c0.00069,-0.01454 0.00136,-0.02904 0.00199,-0.0434c-0.08482,-0.04552 -0.16648,-0.10687 -0.24522,-0.18422c-0.10105,0.07942 -0.21013,0.0795 -0.21013,0.0795c-0.68392,0.00034 -1.47205,-0.07822 -1.67359,-0.60111c-0.32404,0.2107 -0.64575,0.42681 -0.95632,0.67032c-0.01227,0.10192 -0.05758,0.21531 -0.1731,0.31346c-0.04874,0.0414 -0.09399,0.06652 -0.13554,0.07957c-0.0011,0.19188 0.02016,0.36769 0.09506,0.50615c0,0 0.16665,0.35287 -0.13017,0.60511c-0.29683,0.25224 -0.46347,-0.10062 -0.46347,-0.10062c-0.1471,-0.33771 -0.20612,-0.75653 -0.18578,-1.16218c0.01082,-0.21564 0.27145,-0.73053 0.10986,-0.64373c-0.25628,0.13772 -0.51136,0.29456 -0.77776,0.37605l0.01752,0.02047c0,0 -0.29683,0.25224 -0.46347,-0.10063c-0.16664,-0.35288 0.13019,-0.60512 0.13019,-0.60512l0.22676,-0.15736c0.0828,-0.02528 1.14971,-0.37888 1.24864,-0.3003c0.13012,0.10339 0.19503,0.25017 0.2237,0.4206c0.44598,-0.34192 0.91528,-0.62836 1.37953,-0.92786c0.06193,-0.13281 0.13986,-0.27645 0.23533,-0.43177l0.29456,-0.2757c0,0 0.25747,-0.21882 0.42749,0.03625c0.06996,-0.05545 0.13932,-0.11242 0.20798,-0.17113c-0.1684,-0.11373 -0.31911,-0.25148 -0.4437,-0.40921c-0.00685,0.02884 -0.01616,0.05921 -0.02833,0.09113c-0.15452,0.40561 -0.45784,0.25195 -0.45784,0.25195l-0.32298,-0.17303c-0.77865,0.01393 -1.13821,-0.34994 -1.15244,-0.83348c-0.15255,-0.06338 -0.30132,-0.13391 -0.4449,-0.20725l-0.24324,-0.24216c-0.07629,0.08241 -0.16273,0.16551 -0.25939,0.2494c0,0 -0.29682,0.25225 -0.46347,-0.10062c-0.16664,-0.35288 0.13017,-0.60511 0.13017,-0.60511c0.45407,-0.37509 0.53325,-0.39732 0.02887,-0.70327l-0.2278,-0.02645c0,0 -0.32772,-0.07113 -0.23567,-0.49902c0.09203,-0.42787 0.41976,-0.35673 0.41976,-0.35673l0.42564,0.11538c0.47392,0.37601 0.67778,0.77119 0.60014,1.18655l0.21183,0.21884c0.09738,0.04874 0.2021,0.0985 0.31173,0.14554c0.13418,-0.21946 0.31937,-0.43628 0.55062,-0.63276c0,0 0.29682,-0.25224 0.46347,0.10064c0.16664,0.35288 -0.13018,0.60511 -0.13018,0.60511c-0.0616,0.05237 -0.11835,0.10216 -0.16969,0.14935c0.21748,0.03666 0.43505,0.03903 0.63837,-0.01526c0.03161,-0.23871 0.11296,-0.48979 0.25393,-0.7484c-0.29074,0.23648 -0.45375,-0.10868 -0.45375,-0.10868l-0.17623,-0.37311c-0.3328,-1.02758 0.06741,-1.44544 0.68736,-1.59358c-0.1245,-0.29235 -0.25256,-0.583 -0.38595,-0.87089c-0.21481,0.01165 -0.45712,-0.08781 -0.72185,-0.33345l0.27146,-0.88157c0,0 0.29682,-0.25224 0.46347,0.10063c0.04443,0.09411 0.05593,0.18105 0.04889,0.25797c0.21014,-0.06743 0.28348,-0.59268 0.30239,-1.00509c0,0 0.02598,-0.43353 0.36539,-0.44768c0.33941,-0.01416 0.31342,0.41939 0.31342,0.41939c-0.04007,0.57027 -0.18537,1.10316 -0.41541,1.4569c0.19316,0.41228 0.38124,0.82262 0.56443,1.23358c0.01646,0.00087 0.20553,0.01498 0.27239,0.21185l0.02444,-0.01578c0.37185,-0.55961 0.73705,-0.93579 1.11038,-1.09736c-0.00415,-0.03545 -0.00898,-0.0705 -0.01442,-0.10504l0.01893,-0.05819l-0.01847,0.00079l0.03075,-0.51297c-0.22899,-0.07798 -0.4516,-0.27686 -0.63431,-0.61706l-0.11748,-0.24877c0,0 -0.16664,-0.35288 0.13018,-0.60512zM382.80481,170.51741c0.1023,-0.0869 0.18912,-0.10199 0.25901,-0.08443c0.04985,-0.0797 0.08542,-0.16942 0.10883,-0.26473c-0.23173,-0.10886 -0.46579,-0.21233 -0.70705,-0.30218c0,0 -0.0931,-0.03479 -0.15771,-0.13349c-0.13874,0.18133 -0.29525,0.32668 -0.4632,0.43923c0.16511,0.33888 0.34807,0.66901 0.52916,1.00064c0.02847,-0.06002 0.05847,-0.11635 0.0905,-0.16608c0,0 0.06562,-0.10058 0.1653,-0.15493c0.00852,-0.10704 0.05178,-0.22923 0.17514,-0.33407zM380.4838,171.24144c0.01122,0.02373 0.02032,0.04705 0.02759,0.06986c0.02661,-0.27058 0.07937,-0.53941 0.18742,-0.8357c-0.10029,-0.00601 -0.20002,-0.01962 -0.29817,-0.0402c-0.44215,0.44194 -0.92251,0.78602 -1.41083,1.10845c0.01057,0.26473 0.4549,0.20459 0.83642,0.17086l0.19413,-0.57388c0,0 0.29683,-0.25224 0.46347,0.10062zM381.54938,171.58437c0,0 0.09089,-0.07724 0.20035,-0.08645c-0.14529,-0.2685 -0.29147,-0.53122 -0.42662,-0.78664c-0.16903,0.38692 -0.18355,0.75588 -0.17805,1.15432c0.11721,-0.05221 0.24979,-0.14611 0.40436,-0.28123zM379.06849,166.69245l0.17623,0.37311c0,0 0.07923,0.16773 0.03112,0.35458c0.16687,-0.13835 0.32681,-0.24701 0.48556,-0.34792c-0.09142,-0.23042 -0.18327,-0.46076 -0.27646,-0.69051c-0.35448,-0.00622 -0.74182,0.03312 -0.41645,0.31073zM380.76916,166.23913l-0.29457,0.2757c0,0 -0.02382,0.02025 -0.06168,0.04121c0.01023,0.0242 0.02048,0.0484 0.03069,0.07263c0.02378,-0.01753 0.04772,-0.03555 0.07179,-0.0541l0.60347,0.09796c0.11294,-0.36219 0.2025,-0.75988 0.24699,-1.14931c-0.18584,0.13204 -0.37729,0.37109 -0.59668,0.71588zM379.65249,168.0813c-0.54549,0.57004 0.02062,1.11734 0.69651,1.33732c0.0826,-0.09332 0.164,-0.18756 0.2446,-0.28232c-0.186,-0.43983 -0.3646,-0.88452 -0.54175,-1.33073c-0.13118,0.07772 -0.26414,0.1597 -0.39934,0.2757zM381.16963,168.4492c0.17349,-0.20586 0.34824,-0.40853 0.52883,-0.60305c-0.17045,-0.11578 -0.407,-0.07301 -0.65806,0.26306c0.04339,0.11288 0.08646,0.22618 0.12921,0.33996zM381.45313,169.22481c0.01709,0.04805 0.0341,0.0962 0.05108,0.14447c0.00021,0.00055 0.00042,0.00116 0.00061,0.00171c0.27044,-0.18516 0.40655,-0.45914 0.44466,-0.72731c-0.16874,0.18828 -0.33278,0.3837 -0.49635,0.58114z" fill="#a8f2ff" stroke="none" stroke-width="0.5" stroke-linecap="butt"/><path d="M366.47796,149.30358c0.11634,-0.33118 0.40638,-0.13233 0.40638,-0.13233l0.20447,0.14018c0.46655,0.39792 0.64992,-0.10532 0.38373,-0.5774c0,0 -0.17682,-0.34915 0.08085,-0.51443c0.25768,-0.16528 0.43449,0.1839 0.43449,0.1839c0.25193,0.53179 0.27166,1.02397 0.12464,1.35472l0.5154,0.5562c0.18331,-0.01478 0.39349,0.00886 0.63313,0.0727c0,0 0.31195,0.08391 0.29332,0.46098c-0.01863,0.37707 -0.33059,0.29316 -0.33059,0.29316c-0.14516,-0.03947 -0.27118,-0.06096 -0.38037,-0.06321c0.1825,0.41435 0.32005,0.86675 0.41739,1.29576c0.17502,-0.06009 0.3696,-0.06099 0.56319,-0.01079c0.0434,-0.1307 0.09158,-0.25961 0.14568,-0.38622c-0.08161,0.03734 -0.20347,0.04345 -0.33666,-0.12045c-0.23838,-0.29338 -0.03629,-0.54467 -0.03629,-0.54467l0.27805,-0.33001c0.23968,-0.07807 0.51213,-0.10337 0.76892,-0.06558c0.25659,-0.31981 0.51467,-0.62901 0.69352,-1.02758c-0.06372,-0.11203 -0.13078,-0.2394 -0.20331,-0.38262l-0.15212,-0.44531c0,0 -0.12283,-0.37476 0.16452,-0.46835c0.28734,-0.09359 0.41018,0.28121 0.41018,0.28121l0.0928,0.30197c0.04222,0.08335 0.06438,0.19064 0.08579,0.29682c0.03069,0.01001 0.06391,0.02649 0.09981,0.0511c0.15681,0.10752 0.19484,0.25365 0.19671,0.36529c0.14452,-0.0359 0.25232,-0.27034 0.38982,-0.35957c0,0 0.25768,-0.16528 0.43449,0.18388c0.17682,0.34916 -0.08089,0.51442 -0.08089,0.51442c-0.4388,0.27864 -0.71417,0.36858 -0.95343,0.24148c-0.15084,0.27891 -0.33076,0.51509 -0.51437,0.74937c0.26423,0.25183 0.39198,0.662 0.22906,1.26339c0,0 -0.11634,0.33119 -0.40638,0.13234c-0.29005,-0.19886 -0.17371,-0.53004 -0.17371,-0.53004c0.11094,-0.18452 0.07341,-0.29856 -0.02889,-0.36577c-0.1217,0.17347 -0.23673,0.3596 -0.33673,0.57179c-0.06249,0.13262 -0.11722,0.26842 -0.16574,0.40685c0.22658,0.20535 0.41023,0.48829 0.4997,0.82855c0.027,-0.01107 0.04601,-0.01435 0.04601,-0.01435c0.11267,-0.01931 0.22543,-0.03541 0.33831,-0.04928c-0.02585,-0.01944 -0.05169,-0.03746 -0.07725,-0.05385c0,0 -0.29005,-0.19886 -0.17372,-0.53004c0.11634,-0.33118 0.40638,-0.13233 0.40638,-0.13233c0.2472,0.17681 0.46355,0.39583 0.63176,0.64351c0.12819,-0.00993 0.25654,-0.01984 0.38506,-0.03122c0.04753,-0.30338 0.32662,-0.59464 0.81785,-0.90967c0,0 0.25768,-0.16528 0.43449,0.18391c0.17682,0.34916 -0.08087,0.51442 -0.08087,0.51442c-0.10653,0.06832 -0.32528,0.11751 -0.50769,0.1654c0.07136,0.0383 0.1442,0.11481 0.19031,0.26295c0.02439,0.07835 0.03117,0.14413 0.02659,0.19922c0.10976,0.06498 0.21975,0.1333 0.33144,0.20989l0.23227,0.42442c0,0 0.12284,0.37476 -0.16451,0.46834c-0.28734,0.09359 -0.41018,-0.28121 -0.41018,-0.28121l0.10981,0.05079c-0.27814,-0.19067 -0.49572,-0.36771 -0.65496,-0.53519c-0.12647,0.01252 -0.25278,0.02299 -0.37894,0.03283c0.0672,0.30522 0.06293,0.62828 -0.03309,0.95326l-0.13756,0.01685c0.04172,0.11223 0.03646,0.21844 0.03646,0.21844c-0.00785,0.13771 -0.0063,0.26669 -0.00089,0.3871c0.46444,0.30488 0.90672,0.64702 1.28076,1.09944c0,0 0.04746,0.0584 0.08206,0.14544c0.22157,-0.13211 0.47332,-0.20959 0.77687,-0.23287c0,0 0.30586,-0.01825 0.36998,0.3676c0.06409,0.38585 -0.24176,0.40413 -0.24176,0.40413c-0.41829,0.01538 -0.66925,0.2477 -1.02398,0.45496l0.16205,0.34947c0,0 0.12285,0.37477 -0.16452,0.46835c-0.28734,0.09359 -0.41018,-0.28121 -0.41018,-0.28121l-0.20536,-0.77149c0.09179,-0.13756 0.18432,-0.26091 0.28046,-0.36997c-0.01894,-0.01848 -0.02974,-0.03179 -0.02974,-0.03179c-0.23885,-0.3008 -0.53533,-0.56527 -0.85798,-0.8066c-0.04446,0.23264 -0.19513,0.38871 -0.6144,0.47353l-0.13749,-0.06071c-0.04282,0.06506 -0.08774,0.12295 -0.13483,0.17361l0.28907,0.50398c0,0 0.0547,0.0954 0.06906,0.21306c0.3282,0.16745 0.64141,0.52556 0.83124,1.04921c0,0 0.12284,0.37476 -0.16451,0.46834c-0.28734,0.09359 -0.41018,-0.28121 -0.41018,-0.28121c-0.19479,-0.71956 -0.90657,-0.84363 -0.91454,-0.03356l0.09787,0.19614c0,0 0.12284,0.37476 -0.16451,0.46834c-0.28734,0.09359 -0.41018,-0.28121 -0.41018,-0.28121l-0.14707,-0.55116c0.0452,-0.61466 0.28576,-0.96922 0.59538,-1.09297l-0.20503,-0.35774c-0.00607,-0.01162 -0.01214,-0.02322 -0.01817,-0.03468c-0.08669,0.00313 -0.17812,-0.0075 -0.27454,-0.0319c-0.04254,0.10772 -0.12738,0.15736 -0.12738,0.15736c-0.53204,0.31109 -1.18102,0.60815 -1.57549,0.29285c-0.15639,0.31122 -0.30852,0.6256 -0.43952,0.95622c0.03677,0.08488 0.05304,0.19371 0.00776,0.32259c-0.01912,0.05436 -0.04291,0.09448 -0.06931,0.12352c0.08635,0.14982 0.18279,0.27696 0.304,0.35066c0,0 0.29004,0.19885 0.17372,0.53003c-0.11634,0.33118 -0.40638,0.13233 -0.40638,0.13233c-0.26795,-0.19593 -0.50422,-0.49501 -0.67274,-0.81991c-0.08958,-0.17272 -0.12078,-0.69183 -0.20707,-0.55085c-0.13683,0.22364 -0.26404,0.46161 -0.43431,0.64609l0.02294,0.00796c0,0 -0.11634,0.33118 -0.40638,0.13233c-0.29005,-0.19886 -0.17371,-0.53004 -0.17371,-0.53004l0.10493,-0.22551c0.05294,-0.0573 0.72246,-0.81734 0.83515,-0.80115c0.14824,0.02131 0.26546,0.10603 0.36523,0.22563c0.19165,-0.46875 0.42665,-0.90493 0.65179,-1.34897c-0.01217,-0.1315 -0.01681,-0.27868 -0.0131,-0.44293l0.10392,-0.34841c0,0 0.1009,-0.28729 0.34913,-0.16607c0.02924,-0.07494 0.05732,-0.1508 0.08406,-0.22769c-0.18273,-0.01197 -0.3626,-0.05066 -0.53125,-0.11678c0.00777,0.02556 0.01434,0.05343 0.01937,0.08379c0.06409,0.38585 -0.24177,0.40413 -0.24177,0.40413l-0.32997,0.01215c-0.59958,0.36472 -1.04474,0.24498 -1.27556,-0.12482c-0.14751,0.02001 -0.29532,0.03274 -0.44039,0.04093l-0.29933,-0.07789c-0.02191,0.09881 -0.0514,0.20275 -0.08849,0.31195c0,0 -0.11633,0.33118 -0.40638,0.13233c-0.29005,-0.19886 -0.17371,-0.53002 -0.17371,-0.53002c0.18286,-0.49824 0.23438,-0.55153 -0.29715,-0.56038l-0.18928,0.08295c0,0 -0.28734,0.09359 -0.41018,-0.28121c-0.12285,-0.37477 0.16451,-0.46835 0.16451,-0.46835l0.38365,-0.10365c0.53967,0.07721 0.8779,0.29207 1.00626,0.65056l0.26429,0.07402c0.09792,-0.00633 0.20202,-0.0152 0.30872,-0.02842c0.00468,-0.23175 0.05024,-0.48464 0.14089,-0.74263c0,0 0.11633,-0.33118 0.40639,-0.13232c0.29005,0.19886 0.17371,0.53003 0.17371,0.53003c-0.02413,0.06875 -0.04566,0.13328 -0.06417,0.19334c0.18589,-0.07032 0.35628,-0.16735 0.48982,-0.302c-0.08389,-0.20011 -0.1347,-0.43246 -0.14254,-0.69777c-0.11877,0.31615 -0.40247,0.12165 -0.40247,0.12165l-0.30671,-0.21025c-0.72598,-0.64836 -0.60446,-1.1554 -0.18937,-1.55243c-0.22974,-0.17092 -0.46149,-0.33888 -0.69613,-0.50228c-0.16186,0.10669 -0.39561,0.13942 -0.71325,0.06859l-0.18942,-0.80937c0,0 0.11633,-0.33118 0.40639,-0.13233c0.07735,0.05304 0.1258,0.11547 0.15528,0.17852c0.13288,-0.14797 -0.04877,-0.59003 -0.22148,-0.91954c0,0 -0.17682,-0.34916 0.08087,-0.51443c0.25768,-0.16528 0.43449,0.18391 0.43449,0.18391c0.22799,0.46196 0.3571,0.94267 0.33887,1.32248c0.33768,0.23303 0.67052,0.46685 0.99984,0.70339c0.0132,-0.00681 0.16675,-0.08175 0.30824,0.04105l0.01184,-0.02339c0.03503,-0.60445 0.14825,-1.06315 0.36532,-1.35855c-0.01934,-0.0257 -0.03903,-0.05077 -0.05896,-0.07518l-0.01172,-0.05389l-0.01401,0.00901l-0.2092,-0.41314c-0.21363,0.04339 -0.47724,-0.0102 -0.77403,-0.19189l-0.20447,-0.14018c0,0 -0.29004,-0.19886 -0.17372,-0.53003zM371.71112,154.62925c0.04011,-0.11412 0.10081,-0.16532 0.16318,-0.18341c0.00257,-0.08467 -0.01053,-0.17065 -0.03563,-0.25546c-0.2298,0.02061 -0.45895,0.04646 -0.68752,0.08619c0,0 -0.08825,0.01524 -0.18339,-0.03219c-0.02555,0.20415 -0.08129,0.38839 -0.16083,0.5523c0.28249,0.18866 0.5749,0.3624 0.86653,0.53816c-0.00512,-0.05964 -0.00738,-0.11711 -0.00506,-0.17036c0,0 0.00536,-0.10809 0.05822,-0.19568c-0.04202,-0.08717 -0.06389,-0.20191 -0.01554,-0.33955zM370.23407,156.24747c0.01952,0.01337 0.0372,0.02738 0.05322,0.04182c-0.10226,-0.22265 -0.18338,-0.45582 -0.23396,-0.73548c-0.08078,0.0409 -0.16456,0.07564 -0.25029,0.10423c-0.14321,0.54485 -0.36063,1.0309 -0.59408,1.50372c0.12854,0.20119 0.44696,-0.04754 0.72852,-0.24717l-0.10975,-0.53479c0,0 0.11633,-0.33118 0.40638,-0.13233zM371.21909,156.03005c0,0 0.03562,-0.10141 0.11661,-0.15832c-0.23508,-0.1429 -0.46824,-0.2809 -0.68948,-0.41824c0.04431,0.37791 0.2007,0.6716 0.38606,0.97915c0.06748,-0.0939 0.12797,-0.22722 0.18685,-0.40261zM367.06535,153.35092l0.3067,0.21025c0,0 0.13788,0.09451 0.18536,0.26177c0.06697,-0.18349 0.14205,-0.34073 0.21972,-0.49141c-0.17586,-0.13775 -0.35201,-0.27524 -0.52894,-0.41168c-0.27867,0.15626 -0.56219,0.36291 -0.18284,0.43106zM368.18271,152.22527l-0.10392,0.34841c0,0 -0.00933,0.02658 -0.02927,0.0601c0.01896,0.01418 0.03793,0.02835 0.05689,0.04256c0.01054,-0.02445 0.02098,-0.04936 0.03128,-0.07473l0.51411,-0.19803c-0.07673,-0.33316 -0.18777,-0.68332 -0.33013,-1.00658c-0.0846,0.18721 -0.12494,0.46023 -0.13896,0.82824zM368.15097,154.16624c-0.16541,0.69148 0.52385,0.86008 1.14976,0.72409c0.02186,-0.11016 0.04238,-0.22048 0.06203,-0.33085c-0.34463,-0.25772 -0.6857,-0.52258 -1.02635,-0.78929c-0.06675,0.1201 -0.13296,0.24431 -0.18545,0.39603zM369.49875,153.76303c0.04145,-0.23903 0.08532,-0.47616 0.13744,-0.7096c-0.18525,-0.01263 -0.34989,0.12815 -0.39251,0.50377c0.08507,0.06812 0.17007,0.13671 0.25505,0.20582zM370.07185,154.23772c0.03514,0.02963 0.07026,0.05936 0.1054,0.0892c0.00041,0.00034 0.00086,0.00072 0.00126,0.00106c0.12629,-0.267 0.10769,-0.54204 0.01547,-0.76805c-0.04573,0.2232 -0.08457,0.44982 -0.12213,0.67779z" fill="#a8f2ff" stroke="none" stroke-width="0.5" stroke-linecap="butt"/></g></g></svg>