<svg version="1.1" xmlns="http://www.w3.org/2000/svg" xmlns:xlink="http://www.w3.org/1999/xlink" width="315.30573" height="95.20369" viewBox="0,0,315.30573,95.20369"><defs><linearGradient x1="85.98474" y1="181.34602" x2="398.79049" y2="181.34602" gradientUnits="userSpaceOnUse" id="color-1"><stop offset="0" stop-color="#f5e995"/><stop offset="1" stop-color="#e0d319"/></linearGradient><radialGradient cx="158.94522" cy="148.96152" r="38.22685" gradientUnits="userSpaceOnUse" id="color-2"><stop offset="0" stop-color="#ffffff"/><stop offset="1" stop-color="#fcffa6"/></radialGradient><radialGradient cx="361.61762" cy="152.50962" r="3.19484" gradientUnits="userSpaceOnUse" id="color-3"><stop offset="0" stop-color="#fffbce"/><stop offset="1" stop-color="#fffbce" stop-opacity="0"/></radialGradient><radialGradient cx="390.21817" cy="181.62091" r="3.19484" gradientUnits="userSpaceOnUse" id="color-4"><stop offset="0" stop-color="#fffbce"/><stop offset="1" stop-color="#fffbce" stop-opacity="0"/></radialGradient><radialGradient cx="362.63906" cy="209.2" r="3.19485" gradientUnits="userSpaceOnUse" id="color-5"><stop offset="0" stop-color="#fffbce"/><stop offset="1" stop-color="#fffbce" stop-opacity="0"/></radialGradient><radialGradient cx="334.03851" cy="181.87626" r="3.19485" gradientUnits="userSpaceOnUse" id="color-6"><stop offset="0" stop-color="#fffbce"/><stop offset="1" stop-color="#fffbce" stop-opacity="0"/></radialGradient></defs><g transform="translate(-84.73474,-125.63858)"><g data-paper-data="{&quot;isPaintingLayer&quot;:true}" fill-rule="nonzero" stroke-linejoin="miter" stroke-miterlimit="10" stroke-dasharray="" stroke-dashoffset="0" style="mix-blend-mode: normal"><path d="M161.46147,142.12764v-15.23906h93.61135v15.23906z" fill="#fcfcfc" stroke="#000000" stroke-width="2.5" stroke-linecap="butt"/><text transform="translate(164.07388,137.77362) scale(0.23584,0.23584)" font-size="40" xml:space="preserve" fill="#0a0a0a" fill-rule="nonzero" stroke="none" stroke-width="1" stroke-linecap="butt" stroke-linejoin="miter" stroke-miterlimit="10" stroke-dasharray="" stroke-dashoffset="0" font-family="Sans Serif" font-weight="normal" text-anchor="start" style="mix-blend-mode: normal"><tspan x="0" dy="0">TowerSize: Medium</tspan></text><path d="M85.98474,219.59227v-76.49249h312.80573v76.49249z" fill="url(#color-1)" stroke="#000000" stroke-width="2.5" stroke-linecap="butt"/><path d="M87.04962,219.02424v-76.4537h74.68599v76.4537z" fill="url(#color-2)" stroke="#000000" stroke-width="0.5" stroke-linecap="butt"/><path d="M333.95651,187.6829c-3.5935,0 -6.50663,-2.72624 -6.50663,-6.08913c0,-3.3629 2.91313,-6.08901 6.50663,-6.08901c3.5935,0 6.50663,2.72611 6.50663,6.08901c0,3.3629 -2.91313,6.08913 -6.50663,6.08913z" fill="none" stroke="#efdb00" stroke-width="1.5" stroke-linecap="butt"/><path d="M361.98709,159.13684c-3.5935,0 -6.50663,-2.72621 -6.50663,-6.08912c0,-3.3629 2.91313,-6.08913 6.50663,-6.08913c3.5935,0 6.50663,2.72624 6.50663,6.08913c0,3.3629 -2.91312,6.08912 -6.50663,6.08912z" fill="none" stroke="#efdb00" stroke-width="1.5" stroke-linecap="butt"/><path d="M389.59555,187.38674c-3.5935,0 -6.50662,-2.72611 -6.50662,-6.08901c0,-3.3629 2.91312,-6.08912 6.50662,-6.08912c3.5935,0 6.50664,2.72622 6.50664,6.08912c0,3.3629 -2.91313,6.08901 -6.50664,6.08901z" fill="none" stroke="#efdb00" stroke-width="1.5" stroke-linecap="butt"/><path d="M362.75212,214.90612c-3.5935,0 -6.50662,-2.72622 -6.50662,-6.08912c0,-3.3629 2.91312,-6.08912 6.50662,-6.08912c3.59339,0 6.5065,2.72622 6.5065,6.08912c0,3.3629 -2.91312,6.08912 -6.5065,6.08912z" fill="none" stroke="#efdb00" stroke-width="1.5" stroke-linecap="butt"/><path d="M361.75825,155.56597c-1.76446,0 -3.19484,-1.27714 -3.19484,-2.85254c0,-1.5754 1.43037,-2.85253 3.19484,-2.85253c1.76446,0 3.19484,1.27713 3.19484,2.85253c0,1.5754 -1.43037,2.85254 -3.19484,2.85254z" fill="url(#color-3)" stroke="#fff600" stroke-width="1.5" stroke-linecap="butt"/><path d="M389.8501,184.23379c-1.76446,0 -3.19485,-1.27713 -3.19485,-2.85253c0,-1.5754 1.43038,-2.85254 3.19485,-2.85254c1.76446,0 3.19483,1.27713 3.19483,2.85254c0,1.5754 -1.43037,2.85253 -3.19483,2.85253z" fill="url(#color-4)" stroke="#fff600" stroke-width="1.5" stroke-linecap="butt"/><path d="M362.77139,211.85029c-1.76446,0 -3.19485,-1.27713 -3.19485,-2.85253c0,-1.5754 1.43038,-2.85253 3.19485,-2.85253c1.76446,0 3.19485,1.27713 3.19485,2.85253c0,1.5754 -1.43038,2.85253 -3.19485,2.85253z" fill="url(#color-5)" stroke="#fff600" stroke-width="1.5" stroke-linecap="butt"/><path d="M333.72917,184.56259c-1.76446,0 -3.19485,-1.27713 -3.19485,-2.85254c0,-1.5754 1.43038,-2.85253 3.19485,-2.85253c1.76446,0 3.19485,1.27713 3.19485,2.85253c0,1.5754 -1.43038,2.85254 -3.19485,2.85254z" fill="url(#color-6)" stroke="#fff600" stroke-width="1.5" stroke-linecap="butt"/><path d="M362.256,195.03305c-8.01053,0 -14.50434,-6.46215 -14.50434,-14.43359c0,-7.97145 6.49381,-14.43359 14.50434,-14.43359c8.01053,0 14.50434,6.46215 14.50434,14.43359c0,7.97145 -6.49381,14.43359 -14.50434,14.43359z" fill="none" stroke="#fff600" stroke-width="1.5" stroke-linecap="butt"/><path d="M334.39895,164.18478c0,0.34043 -0.17656,0.50429 -0.34654,0.58316c-0.02745,0.21031 -0.04005,0.4181 0.02653,0.61465c0.53619,1.58311 3.08089,-0.21926 3.40583,-1.03891c-0.0445,-2.19252 -1.74069,-3.74574 -4.05702,-2.66563c-1.5601,0.72748 -2.71249,2.86851 -2.70794,4.48782c0.0039,1.39001 0.58503,3.51566 2.17376,3.44731c1.49382,0.0155 2.51145,-0.98845 3.96387,-0.99054c3.6814,-0.00529 6.97978,4.16565 7.83776,7.38257c0.1981,0.74277 0.03367,1.96566 0.03367,2.75466c0,0 0,0.65635 -0.65635,0.65635c-0.65635,0 -0.65635,-0.65635 -0.65635,-0.65635c0,-0.6099 0.1972,-1.75873 0.03369,-2.33955c-0.75385,-2.67773 -3.44053,-6.43453 -6.59583,-6.48499c-1.34573,-0.02152 -2.50001,0.97823 -3.96046,0.99055c-1.73025,-0.04865 -1.94637,-0.41639 -2.73068,-1.96146c-1.38598,-2.73036 -0.71832,-5.88277 1.74854,-7.83433c1.80327,-1.42658 5.20119,-1.38487 6.36871,0.75777c0.55313,1.01511 0.50945,1.59515 0.49366,2.70407c-0.81378,2.02544 -4.64285,4.24065 -5.93355,1.22518c-0.04642,-0.10847 -0.037,-1.42047 -0.037,-1.63231l0.93937,-0.65635c0,0 0.65635,0 0.65635,0.65635z" fill="#efdb00" stroke="none" stroke-width="0.5" stroke-linecap="butt"/><path d="M342.07376,156.8972c-0.63676,-0.15919 -0.47757,-0.79594 -0.47757,-0.79594l0.31414,-0.87095c3.40572,-3.21744 7.3865,5.23758 1.87918,5.36564c-0.59211,-0.00158 -1.50046,0.07715 -2.09075,-0.19147c-5.65845,-2.57501 -0.66297,-11.08462 4.38854,-9.44627c1.3236,0.42928 1.70411,1.87285 2.61049,2.78124c1.07948,1.87243 2.39223,3.58091 3.44653,5.45373c0.87943,1.56218 1.16678,3.22688 3.37277,3.63954c1.13247,0.21185 2.1633,-0.43652 3.18307,-0.81909c0,0 0.61457,-0.23045 0.84502,0.3841c0.23045,0.61457 -0.3841,0.84502 -0.3841,0.84502c-1.26526,0.47427 -2.48792,1.17155 -3.89223,0.87898c-2.57452,-0.53637 -3.16868,-2.39196 -4.26854,-4.28478c-1.04835,-1.80417 -2.31199,-3.4741 -3.34574,-5.30071c-0.5717,-0.57043 -1.12248,-2.11198 -1.9177,-2.31298c-2.12657,-0.53751 -4.18912,1.02649 -5.18097,2.91563c-1.19852,2.28276 1.33571,4.15 3.2336,4.14433c3.10238,0.10966 0.56027,-4.78214 -0.95095,-3.12471l0.03114,0.2611c0,0 -0.15919,0.63675 -0.79594,0.47756z" fill="#efdb00" stroke="none" stroke-width="0.5" stroke-linecap="butt"/><path d="M344.65134,171.47916c-0.64361,-0.12871 -0.51489,-0.77233 -0.51489,-0.77233l0.13195,-0.64348c-0.00544,-2.1007 -0.82926,-4.88349 -2.98674,-5.69368c0,0 -0.60941,-0.24376 -0.36565,-0.85316c0.24376,-0.60941 0.85317,-0.36564 0.85317,-0.36564c2.72325,1.13695 3.81072,4.28805 3.80554,7.04185l-0.15106,0.77157c0,0 -0.12871,0.64361 -0.77232,0.51489z" fill="#fff600" stroke="none" stroke-width="0.5" stroke-linecap="butt"/><path d="M352.36092,164.62919c0.54612,0.36407 0.18205,0.91019 0.18205,0.91019l-0.53559,0.64749c-2.6564,1.27562 -5.14297,-0.29594 -6.39932,-2.69913c0,0 -0.29352,-0.58705 0.29352,-0.88059c0.58706,-0.29352 0.8806,0.29352 0.8806,0.29352c0.81723,1.73833 2.74116,3.11328 4.63814,2.11207l0.03042,-0.20154c0,0 0.36407,-0.54612 0.91019,-0.18205z" fill="#fff600" stroke="none" stroke-width="0.5" stroke-linecap="butt"/><path d="M391.05225,163.25518l0.93937,0.65635c0,0.21185 0.00943,1.52385 -0.037,1.63232c-1.29071,3.01547 -5.11977,0.80025 -5.93356,-1.22518c-0.01579,-1.10891 -0.05947,-1.68895 0.49366,-2.70407c1.16753,-2.14263 4.56545,-2.18434 6.36872,-0.75776c2.46687,1.95157 3.13452,5.10396 1.74854,7.83432c-0.78431,1.54507 -1.00043,1.91282 -2.73068,1.96146c-1.46046,-0.01232 -2.61471,-1.01207 -3.96046,-0.99054c-3.15529,0.05047 -5.84198,3.80725 -6.59582,6.48499c-0.16351,0.58082 0.03368,1.72965 0.03368,2.33955c0,0 0,0.65635 -0.65635,0.65635c-0.65635,0 -0.65635,-0.65635 -0.65635,-0.65635c0,-0.789 -0.16443,-2.0119 0.03368,-2.75466c0.85798,-3.21692 4.15635,-7.38786 7.83776,-7.38257c1.45243,0.00209 2.47006,1.00604 3.96387,0.99053c1.58874,0.06835 2.16985,-2.0573 2.17376,-3.44731c0.00455,-1.61931 -1.14786,-3.76033 -2.70794,-4.48782c-2.31633,-1.08012 -4.01252,0.4731 -4.05702,2.66563c0.32493,0.81966 2.86965,2.622 3.40583,1.03891c0.06657,-0.19654 0.05398,-0.40433 0.02653,-0.61465c-0.16997,-0.07887 -0.34654,-0.24274 -0.34654,-0.58316c0,-0.65635 0.65635,-0.65635 0.65635,-0.65635z" data-paper-data="{&quot;index&quot;:null}" fill="#efdb00" stroke="none" stroke-width="0.5" stroke-linecap="butt"/><path d="M381.92516,156.14639l0.03113,-0.26111c-1.51122,-1.65744 -4.05333,3.23436 -0.95094,3.12471c1.89789,0.00569 4.43212,-1.86157 3.2336,-4.14433c-0.99185,-1.88914 -3.0544,-3.45314 -5.18098,-2.91562c-0.7952,0.201 -1.34598,1.74253 -1.91769,2.31297c-1.03376,1.82661 -2.29739,3.49653 -3.34574,5.30071c-1.09986,1.89283 -1.69402,3.74841 -4.26854,4.28478c-1.4043,0.29257 -2.62698,-0.40473 -3.89224,-0.87898c0,0 -0.61457,-0.23045 -0.3841,-0.84502c0.23045,-0.61457 0.84502,-0.3841 0.84502,-0.3841c1.01976,0.38257 2.05058,1.03093 3.18307,0.81909c2.20599,-0.41266 2.49335,-2.07736 3.37277,-3.63953c1.05431,-1.87282 2.36706,-3.58132 3.44653,-5.45373c0.90639,-0.90838 1.28689,-2.35196 2.61049,-2.78124c5.05151,-1.63836 10.047,6.87126 4.38854,9.44627c-0.59028,0.26863 -1.49864,0.18989 -2.09075,0.19147c-5.50733,-0.12806 -1.52655,-8.58308 1.87918,-5.36564l0.31415,0.87095c0,0 0.15919,0.63676 -0.47757,0.79594c-0.63676,0.15919 -0.79594,-0.47757 -0.79594,-0.47757z" data-paper-data="{&quot;index&quot;:null}" fill="#efdb00" stroke="none" stroke-width="0.5" stroke-linecap="butt"/><path d="M379.37119,170.69103l-0.15106,-0.77158c-0.00518,-2.75381 1.08228,-5.9049 3.80554,-7.04185c0,0 0.6094,-0.24376 0.85317,0.36564c0.24376,0.60941 -0.36564,0.85317 -0.36564,0.85317c-2.15748,0.8102 -2.9813,3.59298 -2.98674,5.69368l0.13195,0.64348c0,0 0.12872,0.64361 -0.51488,0.77233c-0.64361,0.12871 -0.77232,-0.51488 -0.77232,-0.51488z" data-paper-data="{&quot;index&quot;:null}" fill="#fff600" stroke="none" stroke-width="0.5" stroke-linecap="butt"/><path d="M373.34413,164.53798l0.03042,0.20154c1.89698,1.00122 3.8209,-0.37374 4.63814,-2.11207c0,0 0.29353,-0.58706 0.88059,-0.29352c0.58706,0.29352 0.29354,0.88059 0.29354,0.88059c-1.25635,2.40319 -3.74291,3.97474 -6.39931,2.69913l-0.53561,-0.64749c0,0 -0.36407,-0.54612 0.18205,-0.91019c0.54612,-0.36407 0.91019,0.18205 0.91019,0.18205z" data-paper-data="{&quot;index&quot;:null}" fill="#fff600" stroke="none" stroke-width="0.5" stroke-linecap="butt"/><path d="M389.88929,198.57579c0,-0.34043 0.17656,-0.50428 0.34654,-0.58316c0.02745,-0.21031 0.04005,-0.41808 -0.02653,-0.61465c-0.53619,-1.58311 -3.0809,0.21925 -3.40583,1.03891c0.0445,2.19252 1.74069,3.74576 4.05702,2.66563c1.5601,-0.72748 2.71249,-2.86851 2.70794,-4.48782c-0.0039,-1.39001 -0.58503,-3.51566 -2.17377,-3.44731c-1.49382,-0.0155 -2.51144,0.98845 -3.96387,0.99054c-3.6814,0.00529 -6.97978,-4.16565 -7.83776,-7.38257c-0.19811,-0.74277 -0.03368,-1.96567 -0.03368,-2.75467c0,0 0,-0.65635 0.65635,-0.65635c0.65635,0 0.65635,0.65635 0.65635,0.65635c0,0.6099 -0.1972,1.75873 -0.03368,2.33955c0.75385,2.67773 3.44053,6.43453 6.59583,6.48499c1.34573,0.02152 2.5,-0.97823 3.96045,-0.99054c1.73025,0.04865 1.94637,0.41638 2.73069,1.96145c1.38597,2.73036 0.71833,5.88277 -1.74854,7.83433c-1.80326,1.42658 -5.20119,1.38487 -6.36871,-0.75777c-0.55313,-1.01511 -0.50945,-1.59515 -0.49366,-2.70407c0.81378,-2.02544 4.64285,-4.24065 5.93355,-1.22518c0.04642,0.10847 0.037,1.42047 0.037,1.63232l-0.93937,0.65635c0,0 -0.65635,0 -0.65635,-0.65635z" data-paper-data="{&quot;index&quot;:null}" fill="#efdb00" stroke="none" stroke-width="0.5" stroke-linecap="butt"/><path d="M382.21449,205.86336c0.63676,0.15919 0.47757,0.79594 0.47757,0.79594l-0.31414,0.87095c-3.40571,3.21744 -7.3865,-5.23758 -1.87917,-5.36564c0.59211,0.00158 1.50046,-0.07715 2.09075,0.19147c5.65845,2.57501 0.66297,11.08462 -4.38853,9.44627c-1.32359,-0.42928 -1.70411,-1.87285 -2.6105,-2.78124c-1.07948,-1.87243 -2.39222,-3.58092 -3.44653,-5.45373c-0.87943,-1.56218 -1.16678,-3.22687 -3.37277,-3.63954c-1.13247,-0.21185 -2.1633,0.43652 -3.18306,0.81909c0,0 -0.61457,0.23045 -0.84502,-0.38411c-0.23045,-0.61457 0.3841,-0.84502 0.3841,-0.84502c1.26526,-0.47427 2.48792,-1.17156 3.89223,-0.87898c2.57452,0.53637 3.16867,2.39196 4.26854,4.28478c1.04835,1.80417 2.31199,3.47408 3.34574,5.30071c0.5717,0.57043 1.12248,2.11198 1.91769,2.31298c2.12658,0.53751 4.18913,-1.02649 5.18098,-2.91563c1.19852,-2.28276 -1.33571,-4.15 -3.2336,-4.14433c-3.10238,-0.10966 -0.56027,4.78214 0.95095,3.12471l-0.03113,-0.26111c0,0 0.15919,-0.63675 0.79594,-0.47756z" data-paper-data="{&quot;index&quot;:null}" fill="#efdb00" stroke="none" stroke-width="0.5" stroke-linecap="butt"/><path d="M379.63693,191.28141c0.64361,0.12871 0.51488,0.77233 0.51488,0.77233l-0.13195,0.64348c0.00543,2.1007 0.82926,4.88349 2.98674,5.69367c0,0 0.60942,0.24376 0.36564,0.85317c-0.24376,0.60941 -0.85317,0.36564 -0.85317,0.36564c-2.72325,-1.13695 -3.81072,-4.28804 -3.80554,-7.04185l0.15105,-0.77157c0,0 0.12872,-0.64361 0.77233,-0.51488z" data-paper-data="{&quot;index&quot;:null}" fill="#fff600" stroke="none" stroke-width="0.5" stroke-linecap="butt"/><path d="M371.92733,198.13138c-0.54612,-0.36407 -0.18205,-0.91019 -0.18205,-0.91019l0.53559,-0.64749c2.6564,-1.27562 5.14297,0.29594 6.39932,2.69913c0,0 0.29351,0.58706 -0.29354,0.88059c-0.58706,0.29352 -0.88059,-0.29352 -0.88059,-0.29352c-0.81723,-1.73833 -2.74116,-3.11328 -4.63814,-2.11207l-0.03042,0.20154c0,0 -0.36407,0.54612 -0.91019,0.18205z" data-paper-data="{&quot;index&quot;:null}" fill="#fff600" stroke="none" stroke-width="0.5" stroke-linecap="butt"/><path d="M334.01996,198.90595l-0.93937,-0.65635c0,-0.21185 -0.00942,-1.52385 0.03701,-1.63232c1.29071,-3.01547 5.11977,-0.80025 5.93356,1.22518c0.01579,1.10891 0.05947,1.68895 -0.49366,2.70407c-1.16753,2.14263 -4.56544,2.18434 -6.36871,0.75777c-2.46686,-1.95157 -3.13453,-5.10396 -1.74854,-7.83432c0.7843,-1.54507 1.00044,-1.91282 2.73068,-1.96146c1.46045,0.01232 2.61471,1.01207 3.96046,0.99054c3.1553,-0.05047 5.84198,-3.80725 6.59583,-6.48499c0.16351,-0.58082 -0.03367,-1.72966 -0.03367,-2.33956c0,0 0,-0.65635 0.65635,-0.65635c0.65635,0 0.65635,0.65635 0.65635,0.65635c0,0.789 0.16442,2.0119 -0.03369,2.75467c-0.85798,3.21692 -4.15635,7.38786 -7.83775,7.38257c-1.45244,-0.00209 -2.47006,-1.00605 -3.96388,-0.99054c-1.58874,-0.06835 -2.16985,2.0573 -2.17376,3.44731c-0.00455,1.61931 1.14786,3.76033 2.70794,4.48782c2.31633,1.08012 4.01252,-0.4731 4.05702,-2.66563c-0.32494,-0.81966 -2.86965,-2.62202 -3.40583,-1.03891c-0.06657,0.19654 -0.05399,0.40433 -0.02653,0.61465c0.16997,0.07887 0.34654,0.24273 0.34654,0.58316c0,0.65635 -0.65635,0.65635 -0.65635,0.65635z" data-paper-data="{&quot;index&quot;:null}" fill="#efdb00" stroke="none" stroke-width="0.5" stroke-linecap="butt"/><path d="M343.14707,206.01472l-0.03113,0.26111c1.51122,1.65744 4.05333,-3.23436 0.95095,-3.12471c-1.89789,-0.00569 -4.43211,1.86156 -3.2336,4.14431c0.99185,1.88914 3.05439,3.45314 5.18097,2.91563c0.79521,-0.201 1.34598,-1.74254 1.9177,-2.31298c1.03376,-1.82661 2.29739,-3.49653 3.34574,-5.30071c1.09986,-1.89283 1.69402,-3.74841 4.26854,-4.28478c1.4043,-0.29257 2.62697,0.40473 3.89223,0.87898c0,0 0.61457,0.23045 0.3841,0.84502c-0.23045,0.61457 -0.84502,0.3841 -0.84502,0.3841c-1.01976,-0.38257 -2.05058,-1.03093 -3.18306,-0.81909c-2.20599,0.41266 -2.49335,2.07736 -3.37277,3.63954c-1.05431,1.87282 -2.36705,3.58132 -3.44653,5.45373c-0.90639,0.90838 -1.28689,2.35196 -2.61049,2.78124c-5.05152,1.63836 -10.04699,-6.87126 -4.38853,-9.44627c0.59029,-0.26863 1.49864,-0.18988 2.09075,-0.19147c5.50733,0.12806 1.52654,8.58308 -1.87917,5.36564l-0.31414,-0.87095c0,0 -0.15919,-0.63675 0.47757,-0.79594c0.63676,-0.15919 0.79594,0.47756 0.79594,0.47756z" data-paper-data="{&quot;index&quot;:null}" fill="#efdb00" stroke="none" stroke-width="0.5" stroke-linecap="butt"/><path d="M345.70102,191.4701l0.15105,0.77157c0.00518,2.75381 -1.08228,5.9049 -3.80553,7.04185c0,0 -0.6094,0.24376 -0.85317,-0.36564c-0.24376,-0.60941 0.36564,-0.85317 0.36564,-0.85317c2.15747,-0.8102 2.98131,-3.59297 2.98674,-5.69368l-0.13195,-0.64348c0,0 -0.12872,-0.64361 0.51488,-0.77233c0.64361,-0.12871 0.77233,0.51488 0.77233,0.51488z" data-paper-data="{&quot;index&quot;:null}" fill="#fff600" stroke="none" stroke-width="0.5" stroke-linecap="butt"/><path d="M351.72809,197.62313l-0.03042,-0.20154c-1.89699,-1.00122 -3.82089,0.37374 -4.63813,2.11207c0,0 -0.29353,0.58706 -0.8806,0.29352c-0.58706,-0.29352 -0.29352,-0.88059 -0.29352,-0.88059c1.25635,-2.40319 3.74293,-3.97475 6.39932,-2.69913l0.5356,0.64749c0,0 0.36407,0.54612 -0.18205,0.91019c-0.54612,0.36407 -0.91019,-0.18205 -0.91019,-0.18205z" data-paper-data="{&quot;index&quot;:null}" fill="#fff600" stroke="none" stroke-width="0.5" stroke-linecap="butt"/><path d="M362.256,188.17001c-4.1811,0 -7.57056,-3.38945 -7.57056,-7.57056c0,-4.1811 3.38945,-7.57056 7.57056,-7.57056c4.1811,0 7.57056,3.38945 7.57056,7.57056c0,4.1811 -3.38945,7.57056 -7.57056,7.57056z" fill="none" stroke="#fff600" stroke-width="1.5" stroke-linecap="butt"/><path d="M348.03468,180.59944l28.30115,0.42452" fill="none" stroke="#fff600" stroke-width="1.5" stroke-linecap="round"/><path d="M361.47772,194.18401l0.84904,-27.87664" fill="none" stroke="#fff600" stroke-width="1.5" stroke-linecap="round"/><path d="M352.98739,189.51431l2.12258,-2.4056" fill="none" stroke="#efdb00" stroke-width="1.5" stroke-linecap="round"/><path d="M371.10012,189.3728l-2.26409,-2.54711" fill="none" stroke="#efdb00" stroke-width="1.5" stroke-linecap="round"/><path d="M371.52464,172.2506l-2.83012,2.26409" fill="none" stroke="#efdb00" stroke-width="1.5" stroke-linecap="round"/><path d="M354.26093,174.51469l-2.12259,-2.12258" fill="none" stroke="#efdb00" stroke-width="1.5" stroke-linecap="round"/><path d="M352.88546,186.15777c-0.46411,0.46411 -0.92822,0 -0.92822,0l-0.59775,-0.60009c-0.36973,-0.52877 -0.56447,-1.20022 -0.58503,-1.8451c0,0 0,-0.65635 0.65635,-0.65635c0.65635,0 0.65635,0.65635 0.65635,0.65635c-0.01783,0.33946 0.0414,0.72812 0.26401,0.98501l0.53429,0.53195c0,0 0.46411,0.46411 0,0.92822z" fill="#fff600" stroke="none" stroke-width="0.5" stroke-linecap="butt"/><path d="M358.95166,190.51536c-0.29352,0.58706 -0.88059,0.29352 -0.88059,0.29352l-0.23325,-0.11915c-0.45467,-0.18477 -0.93621,-0.30816 -1.4207,-0.38651c0,0 -0.64742,-0.10791 -0.53952,-0.75533c0.10791,-0.64742 0.75533,-0.53951 0.75533,-0.53951c0.57648,0.09849 1.14843,0.24781 1.69242,0.46253l0.33278,0.16386c0,0 0.58706,0.29352 0.29352,0.88059z" fill="#fff600" stroke="none" stroke-width="0.5" stroke-linecap="butt"/><path d="M368.00802,189.36229c0.29352,0.58706 -0.29352,0.8806 -0.29352,0.8806l-0.57444,0.28715c-0.98626,0.47561 -1.90893,0.96289 -2.98651,1.18446c0,0 -0.64361,0.12872 -0.77233,-0.51488c-0.12872,-0.64361 0.51488,-0.77233 0.51488,-0.77233c0.96601,-0.18652 1.79227,-0.65448 2.67372,-1.07963l0.55761,-0.27889c0,0 0.58706,-0.29352 0.88059,0.29352z" fill="#fff600" stroke="none" stroke-width="0.5" stroke-linecap="butt"/><path d="M372.12136,186.50175c-0.52508,-0.39381 -0.13127,-0.91889 -0.13127,-0.91889l0.35042,-0.44013c0.11342,-0.664 0.24799,-1.32289 0.3801,-1.9834c0,0 0.12872,-0.64361 0.77233,-0.51488c0.64361,0.12872 0.51488,0.77233 0.51488,0.77233c-0.15108,0.75543 -0.3037,1.50927 -0.46894,2.26177l-0.49863,0.69193c0,0 -0.39381,0.52508 -0.9189,0.13127z" fill="#fff600" stroke="none" stroke-width="0.5" stroke-linecap="butt"/><path d="M371.50696,174.72698c0.63675,-0.15919 0.79595,0.47757 0.79595,0.47757l0.09182,0.43168c0.48134,0.96409 1.03431,1.89132 1.4374,2.87988c0,0 0.24376,0.60941 -0.36564,0.85317c-0.60942,0.24376 -0.85317,-0.36564 -0.85317,-0.36564c-0.37072,-0.94982 -0.93032,-1.85698 -1.39271,-2.78034l-0.1912,-0.70036c0,0 -0.15919,-0.63675 0.47757,-0.79595z" fill="#fff600" stroke="none" stroke-width="0.5" stroke-linecap="butt"/><path d="M363.08547,169.42048c0,-0.65635 0.65636,-0.65635 0.65636,-0.65635l0.55324,0.01275c1.13644,0.22728 2.03336,0.47116 3.03908,1.07133c0,0 0.56281,0.33769 0.22513,0.90051c-0.33769,0.56281 -0.90051,0.22513 -0.90051,0.22513c-0.87717,-0.52954 -1.62569,-0.71066 -2.62115,-0.90975l-0.29579,0.01275c0,0 -0.65636,0 -0.65636,-0.65635z" fill="#fff600" stroke="none" stroke-width="0.5" stroke-linecap="butt"/><path d="M354.87812,170.69404c0,-0.65635 0.65635,-0.65635 0.65635,-0.65635l-0.10226,0.04694c0.84753,-0.33795 1.71808,-0.57371 2.58331,-0.8623c0,0 0.62267,-0.20756 0.83023,0.41512c0.20756,0.62267 -0.41512,0.83023 -0.41512,0.83023c-0.84057,0.28003 -1.68861,0.50573 -2.5109,0.83577l-0.38527,0.04695c0,0 -0.65635,0 -0.65635,-0.65635z" fill="#fff600" stroke="none" stroke-width="0.5" stroke-linecap="butt"/><path d="M350.86479,178.56719c-0.65635,0 -0.65636,-0.65635 -0.65636,-0.65635l0.09354,-0.76222c0.34872,-0.57828 0.75921,-1.11956 1.19064,-1.63906c0,0 0.42019,-0.50422 0.92441,-0.08404c0.50422,0.42018 0.08404,0.92441 0.08404,0.92441c-0.38999,0.46623 -0.76204,0.95207 -1.07346,1.47406l0.09354,0.08683c0,0 0,0.65635 -0.65635,0.65635z" fill="#fff600" stroke="none" stroke-width="0.5" stroke-linecap="butt"/><path d="M362.62028,181.04501c-0.51472,0.25736 -0.80379,-0.16222 -0.86722,-0.26953c-0.21523,-0.03396 -0.42574,-0.05102 -0.59192,0.06625c-0.2521,0.17793 0.29072,0.54879 0.37969,0.84426c0.03818,0.12679 0.10691,0.91159 0.31497,1.06557c0.69506,0.51435 2.60378,-0.3021 3.05305,-0.83981c0.49019,-0.5867 0.00932,-1.63396 -0.2199,-2.20058c-0.61099,-1.627 -2.81538,-2.8259 -4.52196,-2.32379c-0.65504,0.19273 -1.03157,1.26777 -1.16453,1.81016c-0.44121,1.7998 -0.94777,3.66315 0.88798,4.9805c0,0 0.52508,0.39381 0.13127,0.9189c-0.39381,0.52508 -0.9189,0.13127 -0.9189,0.13127c-2.20685,-1.70633 -1.97865,-3.9729 -1.37611,-6.33996c0.24919,-0.97894 0.87503,-2.33493 1.94858,-2.71802c2.40456,-0.85804 5.30498,0.83187 6.23247,3.05342c0.41723,1.05329 0.86506,2.4336 0.06312,3.45965c-0.8368,1.07064 -3.58241,2.1124 -4.87126,1.14128c-0.62584,-0.47156 -1.57048,-3.03051 -1.00341,-3.7504c0.50668,-0.64322 1.40966,-0.5485 2.08902,-0.5556l0.72856,0.64583c0,0 0.29352,0.58706 -0.29352,0.88059z" fill="#efdb00" stroke="none" stroke-width="0.5" stroke-linecap="butt"/><text transform="translate(92.86732,160.30682) scale(0.47033,0.44476)" font-size="40" xml:space="preserve" fill="#020202" fill-rule="nonzero" stroke="#000000" stroke-width="0" stroke-linecap="butt" stroke-linejoin="miter" stroke-miterlimit="10" stroke-dasharray="" stroke-dashoffset="0" font-family="Marker" font-weight="normal" text-anchor="start" style="mix-blend-mode: normal"><tspan x="0" dy="0">PIKA</tspan></text><text transform="translate(115.75867,207.42875) scale(0.4841,0.5)" font-size="40" xml:space="preserve" fill="#000000" fill-rule="nonzero" stroke="none" stroke-width="1" stroke-linecap="butt" stroke-linejoin="miter" stroke-miterlimit="10" stroke-dasharray="" stroke-dashoffset="0" font-family="Marker" font-weight="normal" text-anchor="start" style="mix-blend-mode: normal"><tspan x="0" dy="0">1777</tspan></text><text transform="translate(166.83434,166.38934) scale(0.32942,0.42156)" font-size="40" xml:space="preserve" fill="#000000" fill-rule="nonzero" stroke="#000000" stroke-width="0" stroke-linecap="butt" stroke-linejoin="miter" stroke-miterlimit="10" stroke-dasharray="" stroke-dashoffset="0" font-family="Serif" font-weight="normal" text-anchor="start" style="mix-blend-mode: normal"><tspan x="0" dy="0">She shoots a spear Projectial that Explodes </tspan><tspan x="0" dy="48px">on Impact doing High damage,</tspan><tspan x="0" dy="48px">Good Endgame Tower!</tspan></text><g stroke="#000000" stroke-linecap="butt"><path d="M104.26827,211.35438c-6.07513,0 -11,-4.64505 -11,-10.375c0,-5.72995 4.92487,-10.375 11,-10.375c6.07513,0 11,4.64505 11,10.375c0,5.72995 -4.92487,10.375 -11,10.375z" fill="#ffd036" stroke-width="1"/><path d="M112.20577,200.85438c0,4.55635 -3.55374,8.25 -7.9375,8.25c-4.38376,0 -7.9375,-3.69365 -7.9375,-8.25c0,-4.55635 3.55374,-8.25 7.9375,-8.25c4.38376,0 7.9375,3.69365 7.9375,8.25z" fill="#e0b82f" stroke-width="1"/><text transform="translate(99.41807,206.57313) scale(0.4349,0.4349)" font-size="40" xml:space="preserve" fill="#000000" fill-rule="nonzero" stroke="#000000" stroke-width="0" stroke-linecap="butt" stroke-linejoin="miter" stroke-miterlimit="10" stroke-dasharray="" stroke-dashoffset="0" font-family="Sans Serif" font-weight="normal" text-anchor="start" style="mix-blend-mode: normal"><tspan x="0" dy="0">$</tspan></text></g></g></g></svg>