<svg version="1.1" xmlns="http://www.w3.org/2000/svg" xmlns:xlink="http://www.w3.org/1999/xlink" width="465.87539" height="361.11586" viewBox="0,0,465.87539,361.11586"><g transform="translate(-9.39852,18.71954)"><g data-paper-data="{&quot;isPaintingLayer&quot;:true}" fill-rule="nonzero" stroke="none" stroke-linecap="butt" stroke-linejoin="miter" stroke-miterlimit="10" stroke-dasharray="" stroke-dashoffset="0" style="mix-blend-mode: normal"><path d="M68.42687,236.80475l-44.45555,-105.06681c0,0 42.30894,51.75596 36.1883,30.72671c-10.75868,-36.96461 -38.73274,-86.08509 -38.73274,-96.65989c0,-11.20109 47,41 47,41h349c0,0 33,-39.34669 33,-32c0,9.40965 -26.27636,52.53791 -32.65072,88.0751c-2.33259,13.00426 34.87672,-32.07722 34.87672,-32.07722l-35.226,106.00212z" fill="#ffe166" stroke-width="NaN"/><text transform="translate(92.87104,192.8905) scale(1.2113,2.23348)" font-size="40" xml:space="preserve" fill="#ab9644" fill-rule="nonzero" stroke="none" stroke-width="1" stroke-linecap="butt" stroke-linejoin="miter" stroke-miterlimit="10" stroke-dasharray="" stroke-dashoffset="0" font-family="Handwriting" font-weight="normal" text-anchor="start" style="mix-blend-mode: normal"><tspan x="0" dy="0">YOU  WON!!!!</tspan></text><text transform="translate(76.97316,223.75676) scale(0.63505,0.66489)" font-size="40" xml:space="preserve" fill="#ab9644" fill-rule="nonzero" stroke="none" stroke-width="1" stroke-linecap="butt" stroke-linejoin="miter" stroke-miterlimit="10" stroke-dasharray="" stroke-dashoffset="0" font-family="Handwriting" font-weight="normal" text-anchor="start" style="mix-blend-mode: normal"><tspan x="0" dy="0">You Defeated Team Rocket!</tspan></text><path d="M46.64443,36.05796c1.696,-1.06 2.75599,0.636 2.75599,0.636l0.80688,1.291c11.63058,18.62342 26.20218,35.34189 43.77097,48.51121c0,0 1.6,1.2 0.4,2.8c-1.2,1.6 -2.8,0.4 -2.8,0.4c-17.96382,-13.48003 -32.85377,-30.55079 -44.76297,-49.59122l-0.80688,-1.291c0,0 -1.06,-1.696 0.636,-2.75599z" fill="#ffe166" stroke-width="0.5"/><path d="M11.62622,92.77843c1.75687,-0.95572 2.71259,0.80115 2.71259,0.80115l1.53024,2.81298c4.9321,9.0665 10.08608,18.66149 17.44447,25.99726c0,0 1.41421,1.41421 0,2.82843c-1.41421,1.41421 -2.82843,0 -2.82843,0c-7.6224,-7.64416 -13.00335,-17.4905 -18.12978,-26.91424l-1.53024,-2.81298c0,0 -0.95572,-1.75687 0.80115,-2.71259z" fill="#ffe166" stroke-width="0.5"/><path d="M464.15459,72.06272c1.98447,0.24878 1.73569,2.23325 1.73569,2.23325l-0.36801,2.93555c-1.02203,8.0795 -3.90526,15.11896 -7.01246,22.57595c-2.00097,4.80215 -3.76848,10.3036 -6.44248,14.766c-2.70559,4.51512 -6.75438,8.65559 -10.00149,12.80468c0,0 -1.23262,1.57501 -2.80763,0.34239c-1.57501,-1.23262 -0.34239,-2.80763 -0.34239,-2.80763c3.14351,-4.0167 7.10186,-8.02568 9.72037,-12.39548c2.57341,-4.29454 4.2553,-9.62581 6.18131,-14.24843c2.96548,-7.11741 5.77808,-13.82065 6.73583,-21.53505l0.36801,-2.93555c0,0 0.24878,-1.98447 2.23325,-1.73569z" fill="#ffe166" stroke-width="0.5"/><path d="M429.4976,31.20286c1.8681,0.71427 1.15383,2.58238 1.15383,2.58238l-0.46712,1.2217c-2.38641,6.24137 -4.56968,12.61342 -7.17712,18.76515c-4.48293,10.57655 -10.19754,20.79199 -15.2579,31.10732c0,0 -0.88085,1.79558 -2.67643,0.91473c-1.79558,-0.88085 -0.91473,-2.67643 -0.91473,-2.67643c5.03297,-10.25951 10.72888,-20.42088 15.18159,-30.94239c2.58048,-6.09755 4.74351,-12.41189 7.10838,-18.59693l0.46712,-1.2217c0,0 0.71427,-1.8681 2.58238,-1.15383z" fill="#ffe166" stroke-width="0.5"/><path d="M473.98379,173.44803c1.86898,0.71199 1.15698,2.58097 1.15698,2.58097l-0.41105,1.07902c-1.42841,3.74957 -2.63843,7.75758 -4.34716,11.38641c-5.50189,11.68432 -14.9731,21.92136 -24.45619,30.45615c0,0 -1.48659,1.33793 -2.82452,-0.14866c-1.33793,-1.48659 0.14866,-2.82452 0.14866,-2.82452c9.0976,-8.18784 18.28727,-18.02406 23.54453,-29.25206c1.64847,-3.52066 2.81239,-7.40741 4.19673,-11.0413l0.41105,-1.07902c0,0 0.71199,-1.86898 2.58097,-1.15698z" fill="#ffe166" stroke-width="0.5"/><path d="M55.50868,247.82482c1.24939,-1.56174 2.81113,-0.31235 2.81113,-0.31235l3.15168,2.55167c2.74397,4.03699 5.76578,8.35299 6.91549,13.20252c0.05057,0.21332 0.42226,7.72347 0.4291,7.85812c0.32419,6.39596 -0.76665,13.40793 0.16765,19.70814c0.62379,4.20637 4.24401,8.55332 6.74188,11.79873c1.78904,2.32444 3.81851,5.85957 6.89412,6.52836c1.70379,0.37049 3.38905,-0.64389 4.89206,-1.11983c4.45616,-1.41109 8.95884,-2.41003 13.34485,-4.05728c0,0 1.87266,-0.70225 2.57491,1.17041c0.70225,1.87266 -1.17041,2.57491 -1.17041,2.57491c-4.46699,1.67269 -9.03528,2.73117 -13.58239,4.13796c-2.52535,0.7813 -4.14601,1.82201 -6.81544,1.22167c-4.38178,-0.98545 -6.72963,-4.66792 -9.30738,-8.01629c-2.9103,-3.78034 -6.72194,-8.58885 -7.4961,-13.4621c-1.02914,-6.47839 0.09695,-13.70351 -0.23859,-20.28154c-0.12162,-2.39199 0.22184,-4.84806 -0.3354,-7.17741c-0.99569,-4.16222 -3.6805,-7.87155 -5.96275,-11.38321l-2.70207,-2.13133c0,0 -1.56174,-1.24939 -0.31235,-2.81113z" fill="#ffe166" stroke-width="0.5"/><path d="M10.51356,275.97032c1.78725,-0.89763 2.68488,0.88961 2.68488,0.88961l0.57258,1.14005c1.19527,2.37988 2.39677,4.75665 3.60446,7.13025c3.62123,7.11723 7.61501,13.97362 11.57768,20.90444c7.36431,12.88038 14.84405,26.72224 29.44541,32.50103c0,0 1.85695,0.74278 1.11417,2.59973c-0.74278,1.85695 -2.59973,1.11417 -2.59973,1.11417c-15.51317,-6.26294 -23.55302,-20.4485 -31.43356,-34.23168c-3.99451,-6.98646 -8.01866,-13.89927 -11.66905,-21.0738c-1.21084,-2.37981 -2.41547,-4.76279 -3.61388,-7.14889l-0.57258,-1.14005c0,0 -0.89763,-1.78725 0.88961,-2.68488z" fill="#ffe166" stroke-width="0.5"/><path d="M311.30149,259.63059c1.73649,-0.99228 2.72876,0.74421 2.72876,0.74421l0.35694,0.62465c2.86903,5.12628 2.97661,10.2436 3.68915,16.01533c0.09892,0.80125 1.04875,8.19999 0.93968,8.65296c-0.36711,1.52464 -1.68799,2.64345 -2.53198,3.96518c-2.95524,4.3625 -5.66271,9.57437 -9.17371,13.49648c-1.58775,1.77367 -3.76017,2.92041 -5.64808,4.37047c-4.27406,3.28282 -8.58749,6.41256 -13.03588,9.45505c-6.40584,4.38129 -16.40359,10.01893 -18.29543,18.06906c0,0 -0.48507,1.94029 -2.42536,1.45521c-1.94029,-0.48507 -1.45521,-2.42536 -1.45521,-2.42536c1.66798,-6.38224 6.1054,-9.74005 11.03547,-13.6841c4.99681,-3.99745 10.26634,-7.44985 15.43936,-11.20189c3.59356,-2.60645 8.53613,-5.46442 11.47374,-8.7814c3.35083,-3.78356 5.93453,-8.80616 8.77343,-12.99692c0.6516,-0.88606 1.69733,-1.58888 1.9548,-2.65817c0.56949,-2.36514 -0.72263,-4.81208 -1.02069,-7.22649c-0.63418,-5.13698 -0.55889,-10.0264 -3.19226,-14.52087l-0.35694,-0.62465c0,0 -0.99228,-1.73649 0.74421,-2.72876z" fill="#ffe166" stroke-width="0.5"/><path d="M438.72642,268.52023c1.62747,1.16248 0.46499,2.78994 0.46499,2.78994l-0.60192,0.84269c-11.19691,15.61527 -29.82669,24.57722 -44.8994,35.88806c0,0 -1.6,1.2 -2.8,-0.4c-1.2,-1.6 0.4,-2.8 0.4,-2.8c14.67015,-10.9967 33.20837,-19.77836 44.04446,-35.01302l0.60192,-0.84269c0,0 1.16248,-1.62747 2.78994,-0.46499z" fill="#ffe166" stroke-width="0.5"/><path d="M208.61466,279.92333c1.93187,0.51758 1.41429,2.44945 1.41429,2.44945l-0.03687,0.13763c-1.3742,5.12919 -2.8844,10.2437 -4.12815,15.40583c-0.76094,3.15823 -2.49882,5.99371 -0.26447,8.49545c0,0 1.2,1.6 -0.4,2.8c-1.6,1.2 -2.8,-0.4 -2.8,-0.4c-0.70319,-1.03748 -1.90938,-1.87521 -2.10956,-3.11245c-0.08946,-0.55292 1.46976,-7.82529 1.68531,-8.71994c1.25167,-5.19501 2.77019,-10.34221 4.15313,-15.50405l0.03687,-0.13763c0,0 0.51758,-1.93187 2.44945,-1.41429z" fill="#ffe166" stroke-width="0.5"/><path d="M135.3332,-17.91377c1.22788,1.5787 -0.35082,2.80659 -0.35082,2.80659l-2.11096,1.64186c-4.47207,3.44439 -8.04785,8.42605 -10.88168,13.31928c-1.23904,2.13947 -3.23333,3.96471 -3.79567,6.37226c-0.99617,4.2649 1.30603,8.33819 3.22537,11.85325c4.50993,8.25945 9.5224,15.60337 15.11417,23.16871c0,0 1.18878,1.60835 -0.41957,2.79713c-1.60835,1.18878 -2.79713,-0.41957 -2.79713,-0.41957c-5.69672,-7.70732 -10.81281,-15.21336 -15.40819,-23.6293c-2.40304,-4.4009 -4.84388,-9.39658 -3.6098,-14.68003c0.08723,-0.37345 3.88623,-6.876 4.23052,-7.469c3.11396,-5.36346 7.01832,-10.65147 11.88624,-14.47015l2.11096,-1.64186c0,0 1.5787,-1.22788 2.80659,0.35082z" fill="#ffe166" stroke-width="0.5"/></g></g></svg>