<svg version="1.1" xmlns="http://www.w3.org/2000/svg" xmlns:xlink="http://www.w3.org/1999/xlink" width="28.32143" height="23.97036" viewBox="0,0,28.32143,23.97036"><defs><radialGradient cx="231.81905" cy="179.88095" r="9.99047" gradientUnits="userSpaceOnUse" id="color-1"><stop offset="0" stop-color="#f4ff4f"/><stop offset="1" stop-color="#f4ff4f" stop-opacity="0"/></radialGradient><radialGradient cx="233.03973" cy="179.91663" r="4.27083" gradientUnits="userSpaceOnUse" id="color-2"><stop offset="0" stop-color="#f8ffd4"/><stop offset="1" stop-color="#fff960"/></radialGradient><radialGradient cx="240.14515" cy="185.9964" r="6.30809" gradientUnits="userSpaceOnUse" id="color-3"><stop offset="0" stop-color="#ddfdff" stop-opacity="0"/><stop offset="1" stop-color="#ddfdff"/></radialGradient><linearGradient x1="239.31739" y1="189.44356" x2="245.574" y2="180.42746" gradientUnits="userSpaceOnUse" id="color-4"><stop offset="0" stop-color="#14400e"/><stop offset="1" stop-color="#091505"/></linearGradient><radialGradient cx="240.84515" cy="174.42701" r="6.30809" gradientUnits="userSpaceOnUse" id="color-5"><stop offset="0" stop-color="#ddfdff" stop-opacity="0"/><stop offset="1" stop-color="#ddfdff"/></radialGradient><linearGradient x1="239.06739" y1="170.20511" x2="245.324" y2="179.22122" gradientUnits="userSpaceOnUse" id="color-6"><stop offset="0" stop-color="#14400e"/><stop offset="1" stop-color="#091505"/></linearGradient><radialGradient cx="233.04048" cy="179.67381" r="6.3119" gradientUnits="userSpaceOnUse" id="color-7"><stop offset="0" stop-color="#f4ff4f"/><stop offset="1" stop-color="#f4ff4f" stop-opacity="0"/></radialGradient></defs><g transform="translate(-221.82857,-167.84461)"><g data-paper-data="{&quot;isPaintingLayer&quot;:true}" fill-rule="nonzero" stroke-linejoin="miter" stroke-miterlimit="10" stroke-dasharray="" stroke-dashoffset="0" style="mix-blend-mode: normal"><path d="M249.25,179.82143c0,0.84815 -0.86345,1.53571 -1.92857,1.53571c-1.06512,0 -1.92857,-0.68756 -1.92857,-1.53571c0,-0.84815 0.86345,-1.53571 1.92857,-1.53571c1.06512,0 1.92857,0.68756 1.92857,1.53571z" fill="#2d1700" stroke="#000000" stroke-width="0.5" stroke-linecap="butt"/><path d="M243.02132,184.82408c0,0 -0.34259,-1.01332 -0.66607,-1.21389c-0.39173,-0.24289 -1.29914,-0.8055 -1.29914,-0.8055l0.97793,-1.04578" data-paper-data="{&quot;index&quot;:null}" fill="none" stroke="#000000" stroke-width="0.5" stroke-linecap="round"/><path d="M242.31975,177.75265l-0.97793,-1.04578c0,0 0.90741,-0.56262 1.29913,-0.80551c0.32349,-0.20057 0.66608,-1.21389 0.66608,-1.21389" data-paper-data="{&quot;index&quot;:null}" fill="none" stroke="#000000" stroke-width="0.5" stroke-linecap="round"/><path d="M236.06429,174.94286c0,0 0.6435,0.85444 1.01361,0.94327c0.44819,0.10756 1.48639,0.35673 1.48639,0.35673l-0.6,1.3" fill="none" stroke="#000000" stroke-width="0.5" stroke-linecap="round"/><path d="M238.17857,181.74286l0.6,1.3c0,0 -1.0382,0.24917 -1.48639,0.35673c-0.37011,0.08883 -1.01361,0.94327 -1.01361,0.94327" data-paper-data="{&quot;index&quot;:null}" fill="none" stroke="#000000" stroke-width="0.5" stroke-linecap="round"/><path d="M241.80952,179.88095c0,5.51759 -4.47289,9.99048 -9.99047,9.99048c-5.51759,0 -9.99048,-4.47289 -9.99048,-9.99048c0,-5.51759 4.47289,-9.99047 9.99048,-9.99047c5.51759,0 9.99047,4.47289 9.99047,9.99047z" fill="url(#color-1)" stroke="none" stroke-width="0" stroke-linecap="butt"/><path d="M246.275,180.125c0,0.54705 -0.71647,1.65374 -1.41342,1.96738c-0.53353,0.2401 -0.93144,-0.27432 -1.73271,-0.12203c-0.60886,0.11572 -1.27741,0.47965 -1.97887,0.47965c-0.42219,0 -0.91056,-0.34397 -1.27601,-0.35157c-0.59122,-0.01229 -1.02245,0.28976 -1.53977,0.12295c-1.30673,-0.42135 -2.30923,-1.3137 -2.30923,-2.09638c0,-0.89134 0.40564,-1.86553 2.02868,-2.25572c0.41496,-0.09976 1.09944,0.19293 1.77007,0.20437c0.48508,0.00827 0.96291,-0.27365 1.32626,-0.27365c0.80943,0 1.47504,0.33513 2.15568,0.48673c0.44982,0.10019 0.91954,-0.23811 1.29359,-0.11101c1.03914,0.35311 1.67573,1.2751 1.67573,1.94928z" fill="#221100" stroke="#000000" stroke-width="0.5" stroke-linecap="butt"/><path d="M237.65564,179.77643c0,0.99678 -1.00691,1.55774 -2.10941,2.17935c-0.83837,0.4727 -1.67289,1.13815 -2.50651,1.13815c-1.92986,0 -3.49432,-1.42253 -3.49432,-3.1773c0,-1.75477 1.56446,-3.1773 3.49432,-3.1773c0.84994,0 1.70637,0.6226 2.55561,1.05087c1.07902,0.54415 2.06031,1.00429 2.06031,1.98623z" fill="url(#color-2)" stroke="#000000" stroke-width="0.5" stroke-linecap="butt"/><path d="M245.78951,178.27992l-0.27131,-1.40584c0,0 1.06765,0.00664 1.52856,0.00951c0.38061,0.00237 1.20997,-0.67317 1.20997,-0.67317" data-paper-data="{&quot;index&quot;:null}" fill="none" stroke="#000000" stroke-width="0.5" stroke-linecap="round"/><path d="M248.34524,183.43063c0,0 -0.91817,-0.54877 -1.29445,-0.4915c-0.45567,0.06935 -1.51119,0.23 -1.51119,0.23l0.06559,-1.43028" data-paper-data="{&quot;index&quot;:null}" fill="none" stroke="#000000" stroke-width="0.5" stroke-linecap="round"/><path d="M243.025,178.8l0.05,2.55" fill="none" stroke="#000000" stroke-width="0.5" stroke-linecap="round"/><path d="M239.625,178.55v2.8" fill="none" stroke="#000000" stroke-width="0.5" stroke-linecap="round"/><path d="M240.425,180.9l0.15,-1.7" fill="none" stroke="#000000" stroke-width="0.05" stroke-linecap="round"/><path d="M242.475,179.75l0.05,1.45" fill="none" stroke="#000000" stroke-width="0.05" stroke-linecap="round"/><path d="M243.625,178.9l-0.05,1" fill="none" stroke="#000000" stroke-width="0.05" stroke-linecap="round"/><path d="M241.425,179l0.05,2.05" fill="none" stroke="#000000" stroke-width="0.05" stroke-linecap="round"/><path d="M244.225,179.4l0.05,1.5" fill="none" stroke="#000000" stroke-width="0.05" stroke-linecap="round"/><path d="M238.975,179.1v2.4" fill="none" stroke="#000000" stroke-width="0.05" stroke-linecap="round"/><path d="M244.63096,182.46831c0.81798,1.02783 -0.27876,3.2197 -3.00473,5.38912c-2.51228,1.99935 -3.63778,2.81796 -4.67609,2.14892c-0.08832,-0.05691 -1.72747,-0.6197 -1.79159,-0.70027c-0.34776,-0.43697 -3.69229,-0.73702 -3.27633,-1.58673c0.33605,-0.68645 3.00733,-0.83617 4.73298,-1.55476c1.16265,-0.48416 1.41807,-1.52724 2.04887,-2.02925c1.26176,-1.00414 2.81384,-2.03297 4.11879,-2.46141c0.90449,-0.29696 2.89613,-1.24962 2.89613,-1.24962c0,0 0.18461,0.66797 -0.0681,1.12335c-0.26758,0.48218 -1.07093,0.80632 -0.97993,0.92066z" fill="url(#color-3)" stroke="#ffffff" stroke-width="0.5" stroke-linecap="butt"/><path d="M246.38298,183.53061c-0.29127,1.24048 -2.89166,4.39944 -3.1966,5.52847c-0.38409,1.42211 -1.77533,2.4669 -1.77533,2.4669c0,0 -2.09893,-0.9552 -2.32775,-1.33103c-0.27606,-0.4534 0.78637,-1.20057 0.78637,-1.20057c0,0 2.17983,-2.27138 3.15452,-3.67955c1.10255,-1.5929 3.12462,-5.39213 3.12462,-5.39213c0,0 0.55877,2.22552 0.23417,3.60791z" data-paper-data="{&quot;index&quot;:null}" fill="url(#color-4)" stroke="#000000" stroke-width="0.5" stroke-linecap="butt"/><path d="M245.33096,177.95509c-0.08975,0.11278 0.37537,0.52419 0.46133,1.00081c0.08351,0.46301 -0.2133,0.99319 -0.2133,0.99319c0,0 -1.19164,-0.90266 -2.09614,-1.19962c-1.30495,-0.42845 -2.85703,-1.45727 -4.11879,-2.46142c-0.6308,-0.50201 -0.88622,-1.5451 -2.04888,-2.02925c-1.72565,-0.71859 -4.39693,-0.8683 -4.73297,-1.55476c-0.41596,-0.84971 2.92857,-1.14976 3.27632,-1.58673c0.06412,-0.08057 1.70328,-0.64336 1.79159,-0.70027c1.03831,-0.66904 2.16381,0.14956 4.67609,2.14892c2.72597,2.16941 3.8227,4.36129 3.00473,5.38912z" data-paper-data="{&quot;index&quot;:null}" fill="url(#color-5)" stroke="#ffffff" stroke-width="0.5" stroke-linecap="butt"/><path d="M245.89881,179.72598c0,0 -2.73701,-4.46543 -3.8913,-6.13308c-0.82935,-1.19819 -2.38784,-2.9386 -2.38784,-2.9386c0,0 -1.25948,-0.952 -0.9831,-1.40593c0.22809,-0.37462 2.52449,-1.12567 2.52449,-1.12567c0,0 1.39123,1.0448 1.77533,2.4669c0.30494,1.12903 2.90532,4.28799 3.1966,5.52847c0.32459,1.38238 -0.23417,3.6079 -0.23417,3.6079z" data-paper-data="{&quot;index&quot;:null}" fill="url(#color-6)" stroke="#000000" stroke-width="0.5" stroke-linecap="butt"/><path d="M239.35238,179.67381c0,3.48597 -2.82593,6.31191 -6.3119,6.31191c-3.48597,0 -6.31191,-2.82594 -6.31191,-6.31191c0,-3.48597 2.82594,-6.3119 6.31191,-6.3119c3.48597,0 6.3119,2.82593 6.3119,6.3119z" fill="url(#color-7)" stroke="none" stroke-width="0" stroke-linecap="butt"/><path d="M245.125,183.5l-2.65,4.85" fill="none" stroke="#000000" stroke-width="0.25" stroke-linecap="round"/><path d="M241.375,170.5l3.3,5.4" fill="none" stroke="#000000" stroke-width="0.25" stroke-linecap="round"/><path d="M248.86019,178.5335c0.12428,0.17988 0.28615,0.72165 0.11484,0.84002c-0.17131,0.11836 -0.61094,-0.23151 -0.73522,-0.41139c-0.12428,-0.17988 -0.08615,-0.42165 0.08516,-0.54002c0.17131,-0.11836 0.41094,-0.06849 0.53522,0.11139z" fill="#000000" stroke="#000000" stroke-width="0.25" stroke-linecap="butt"/><path d="M248.27497,181.23323c-0.17131,-0.11837 -0.20945,-0.36014 -0.08517,-0.54002c0.12428,-0.17988 0.56391,-0.52976 0.73523,-0.41139c0.17131,0.11837 0.00944,0.66014 -0.11483,0.84002c-0.12428,0.17988 -0.36391,0.22976 -0.53522,0.11139z" data-paper-data="{&quot;index&quot;:null}" fill="#000000" stroke="#000000" stroke-width="0.25" stroke-linecap="butt"/><path d="M249.875,176.35c0,0 -0.08257,0.9213 -0.44584,1.30681c-0.43898,0.46585 -2.00416,1.29319 -2.00416,1.29319" fill="none" stroke="#000000" stroke-width="0.15" stroke-linecap="round"/><path d="M247.475,180.85c0,0 1.56519,0.82734 2.00417,1.29319c0.36327,0.38551 0.44583,1.3068 0.44583,1.3068" data-paper-data="{&quot;index&quot;:null}" fill="none" stroke="#000000" stroke-width="0.15" stroke-linecap="round"/><path d="M248.875,182.1l0.3,-0.3" fill="none" stroke="#000000" stroke-width="0.15" stroke-linecap="round"/><path d="M249.425,182.4l0.35,-0.15" fill="none" stroke="#000000" stroke-width="0.15" stroke-linecap="round"/><path d="M249.575,183.1l0.45,-0.05" fill="none" stroke="#000000" stroke-width="0.15" stroke-linecap="round"/><path d="M248.975,177.7l0.25,0.25" fill="none" stroke="#000000" stroke-width="0.15" stroke-linecap="round"/><path d="M249.475,177.1l0.4,0.4" fill="none" stroke="#000000" stroke-width="0.15" stroke-linecap="round"/><path d="M249.625,176.5l0.45,0.25" fill="none" stroke="#000000" stroke-width="0.15" stroke-linecap="round"/><path d="M241.46788,177.99641c-0.0119,-0.0119 -0.023,-0.0238 -0.03333,-0.03568l-0.43278,-0.03329c-0.26031,-0.01746 -0.46605,-0.23413 -0.46605,-0.49887c0,-0.12244 0.04401,-0.2346 0.11708,-0.32153c-0.56752,-0.27136 -1.1275,-0.61755 -1.25182,-0.97619l-0.09076,0.04034l-0.02714,-0.06106l-0.03772,0.08467c-0.02395,-0.00532 -0.04789,-0.01064 -0.07184,-0.01596l0.00434,0.03041l-0.49149,0.07021c-0.0258,0.00411 -0.05227,0.00624 -0.07923,0.00624c-0.18486,0 -0.34629,-0.10032 -0.43281,-0.24949c-0.4374,0.07134 -0.95099,0.10615 -1.13503,-0.11124c-0.28701,-0.33902 -0.29827,-0.69345 -0.16101,-0.98224c-0.36443,0.04546 -0.73864,0.03077 -1.09023,-0.03711l0.69606,-0.93214c-0.60958,0.06704 -1.05512,0.17421 -1.59903,0.07618l-0.06449,0.21496l-0.70353,-0.21106c-0.1274,-0.03504 -0.23445,-0.11923 -0.29947,-0.2309c-0.03074,-0.02101 -0.06034,-0.04468 -0.08894,-0.07135l-0.39177,0.22387l-0.00268,0.00403c-1.19685,2.08891 -2.45664,-0.36745 -1.08063,-1.83279c0,0 0.35355,-0.35355 0.70711,0c0.35355,0.35355 0,0.70711 0,0.70711c-0.06105,0.05495 -0.13332,0.15777 -0.20593,0.27735l0.32989,-0.38487l0.05282,0.04527c0.0665,-0.08731 0.14644,-0.16081 0.24672,-0.21342c0.33753,-0.17708 0.70558,0.187 1.08291,0.3499l0.22269,-0.09897l0.02587,0.05821l0.13394,-0.09943c0.04857,0.02942 0.09715,0.05885 0.14572,0.08827l0.0188,-0.07522l0.56128,0.14032c0.07192,0.01632 0.13795,0.04814 0.19439,0.09177c0.53128,-0.10975 1.12207,-0.1023 1.57654,-0.10354l0.02419,0.0084l0.00065,-0.00654l0.71429,0.07143l-0.01771,0.1771l0.43886,0.15232c-0.044,0.06866 -0.08954,0.13754 -0.13671,0.20601c0.18121,0.07511 0.30867,0.25372 0.30867,0.46209c0,0.09139 -0.02452,0.17705 -0.06733,0.25076l-0.35273,0.63492l-0.12724,-0.07069c-0.02857,0.06281 -0.05691,0.1226 -0.08451,0.17788c0.16396,-0.02514 0.36108,-0.02341 0.49923,-0.04715l0.82054,-0.27351c0.05284,-0.019 0.1098,-0.02935 0.16919,-0.02935c0.22851,0 0.42122,0.15329 0.4809,0.36265c0.14024,0.08857 0.23339,0.24494 0.23339,0.42306c0,0.05403 -0.00857,0.10606 -0.02443,0.15481l-0.02804,0.09348c0.26304,0.41713 0.89782,0.65849 1.65637,0.85489l0.01498,0.01151l0.002,-0.00479l0.84645,0.35269c0.18635,0.07268 0.31839,0.25392 0.31839,0.46599c0,0.26376 -0.20424,0.47982 -0.46319,0.49867l-0.41589,0.03466l0.01835,0.10594c0,0 -0.35355,0.35355 -0.70711,0z" fill="#ffffff" stroke="none" stroke-width="0.5" stroke-linecap="butt"/><path d="M245.32143,179.78571c-0.5,0 -0.5,-0.5 -0.5,-0.5l0.22265,0.05888c-0.74347,-0.53023 -1.81805,-2.54139 -1.82005,-3.70012l-0.01689,0.01266l-0.0332,-0.04427c-0.2902,-0.02759 -0.51923,-0.07314 -0.58048,-0.09389l0.13012,-0.32245l-0.16863,-0.04818l0.13982,-0.48937c0.00713,-0.02728 0.0165,-0.05366 0.02791,-0.07892c-0.74629,-0.22347 -1.50869,-0.6334 -1.07815,-0.98806l0.00956,-0.08602l-0.38604,0.06517c0.06824,-0.28484 -0.1909,-0.58158 -0.5324,-0.93548l-0.47766,-0.06824c-0.24619,-0.03117 -0.43657,-0.24136 -0.43657,-0.49601c0,-0.12229 0.0439,-0.23432 0.1168,-0.32121l-0.01964,-0.01309l-0.25867,0.12933l-0.28122,-0.56243c-0.03658,-0.06948 -0.05728,-0.14862 -0.05728,-0.2326c0,-0.10669 0.03342,-0.20558 0.09036,-0.28677c-0.22954,-0.04878 -0.45091,-0.1545 -0.60284,-0.32572c-0.09632,0.05308 -0.19046,0.10984 -0.2816,0.17137c0,0 -0.41603,0.27735 -0.69338,-0.13868c-0.27735,-0.41603 0.13868,-0.69338 0.13868,-0.69338c0.22088,-0.14574 0.45494,-0.27006 0.69524,-0.38262c0.11167,-0.41531 0.36108,-0.39341 0.59978,-0.25846c0.06564,-0.02664 0.13132,-0.053 0.1969,-0.07928l0.04836,0.00874l-0.00395,-0.01976l0.63283,-0.12658c0.03484,-0.00769 0.07105,-0.01174 0.1082,-0.01174c0.27614,0 0.5,0.22386 0.5,0.5c0,0.1744 -0.08929,0.32795 -0.22465,0.41742c0.23414,0.08085 0.44712,0.1976 0.54689,0.32762c0.11942,0.15563 -0.45614,0.32241 -0.33989,0.48042c0.19778,0.26883 0.84927,0.01792 0.94231,0.33844c0.08003,0.2757 -0.17509,0.51264 -0.38395,0.75494c0.01852,0.04466 0.03061,0.08719 0.03625,0.12739c0.39451,0.27972 0.72365,0.64674 0.76923,0.95425l0.27447,0.0305c0.25304,0.02472 0.45078,0.23807 0.45078,0.49761c0,0.10824 -0.03439,0.20845 -0.09285,0.29029c0.40246,0.15791 1.64792,0.09321 2.01271,0.90248c0.33288,0.73849 -0.15093,0.99949 -0.74481,1.06641c0.49391,1.11057 0.73583,2.38571 1.6023,2.89622l0.22265,0.77317c0,0 0,0.5 -0.5,0.5zM243.7749,174.74748c0.01337,-0.01153 0.01289,-0.01662 -0.00966,-0.01288z" fill="#ffffff" stroke="none" stroke-width="0.5" stroke-linecap="butt"/><path d="M241.46069,182.14645l-0.01835,0.10594l0.4159,0.03466c0.25895,0.01884 0.46319,0.2349 0.46319,0.49866c0,0.21207 -0.13204,0.39332 -0.31839,0.46599l-0.84644,0.35269l-0.002,-0.0048l-0.01498,0.0115c-0.75854,0.1964 -1.39333,0.43777 -1.65637,0.85489l0.02804,0.09348c0.01585,0.04874 0.02443,0.10077 0.02443,0.1548c0,0.17812 -0.09314,0.3345 -0.23338,0.42306c-0.05968,0.20936 -0.25239,0.36265 -0.4809,0.36265c-0.05938,0 -0.11634,-0.01036 -0.16918,-0.02935l-0.82055,-0.27352c-0.13815,-0.02374 -0.33527,-0.02202 -0.49923,-0.04715c0.02759,0.05528 0.05595,0.11508 0.08451,0.17789l0.12724,-0.0707l0.35273,0.63492c0.04281,0.07371 0.06733,0.15938 0.06733,0.25076c0,0.20837 -0.12746,0.38697 -0.30867,0.46209c0.04717,0.06847 0.0927,0.13734 0.13671,0.20601l-0.43885,0.15232l0.01771,0.17711l-0.71428,0.07143l-0.00066,-0.00654l-0.02419,0.0084c-0.45447,-0.00124 -1.04526,0.00621 -1.57654,-0.10354c-0.05644,0.04362 -0.12247,0.07545 -0.19439,0.09177l-0.56128,0.14032l-0.01881,-0.07521c-0.04857,0.02943 -0.09714,0.05884 -0.14572,0.08827l-0.13394,-0.09942l-0.02587,0.0582l-0.22269,-0.09897c-0.37733,0.16289 -0.74538,0.52697 -1.0829,0.3499c-0.10028,-0.05261 -0.18022,-0.12611 -0.24672,-0.21342l-0.05282,0.04527l-0.32989,-0.38487c0.07261,0.11958 0.14488,0.22241 0.20593,0.27735c0,0 0.35356,0.35356 0,0.70711c-0.35356,0.35356 -0.7071,0 -0.7071,0c-1.37601,-1.46534 -0.11622,-3.92169 1.08063,-1.83279l0.00268,0.00403l0.39177,0.22387c0.0286,-0.02667 0.0582,-0.05033 0.08894,-0.07135c0.06502,-0.11166 0.17207,-0.19585 0.29947,-0.2309l0.70352,-0.21105l0.06449,0.21496c0.54391,-0.09803 0.98945,0.00914 1.59903,0.07618l-0.69607,-0.93213c0.3516,-0.06787 0.72581,-0.08257 1.09024,-0.03712c-0.13726,-0.28879 -0.12599,-0.64322 0.16101,-0.98224c0.18403,-0.21739 0.69762,-0.18258 1.13502,-0.11124c0.08652,-0.14917 0.24796,-0.24949 0.43282,-0.24949c0.02696,0 0.05342,0.00213 0.07923,0.00624l0.49148,0.07021l-0.00435,0.03042c0.02394,-0.00532 0.0479,-0.01064 0.07184,-0.01596l0.03772,0.08468l0.02714,-0.06106l0.09076,0.04033c0.12431,-0.35864 0.6843,-0.70483 1.25182,-0.97619c-0.07307,-0.08693 -0.11707,-0.19909 -0.11707,-0.32153c0,-0.26473 0.20573,-0.48141 0.46604,-0.49886l0.43278,-0.0333c0.01033,-0.01189 0.02143,-0.02378 0.03333,-0.03568c0.35356,-0.35356 0.70711,0 0.70711,0z" data-paper-data="{&quot;index&quot;:null}" fill="#ffffff" stroke="none" stroke-width="0.5" stroke-linecap="butt"/><path d="M245.87539,181.29655l-0.28868,0.75102c-0.90737,0.43366 -1.25867,1.68311 -1.84678,2.7468c0.58586,0.11803 1.04529,0.41989 0.64979,1.12683c-0.43341,0.77469 -1.66861,0.60252 -2.08321,0.72504c0.05116,0.08659 0.07676,0.18939 0.0674,0.29723c-0.02245,0.25856 -0.2379,0.45401 -0.49213,0.45676l-0.27607,0.00664c-0.072,0.30242 -0.43165,0.6396 -0.84887,0.88415c-0.0091,0.03956 -0.02481,0.08089 -0.04713,0.12378c0.18712,0.25945 0.4208,0.51757 0.31722,0.78531c-0.12042,0.31127 -0.74776,0.00495 -0.96805,0.25567c-0.12947,0.14736 0.4295,0.3633 0.29707,0.50802c-0.11065,0.1209 -0.33292,0.2188 -0.57317,0.2791c0.12712,0.10084 0.20279,0.26154 0.18771,0.43528c-0.02388,0.27511 -0.26626,0.47877 -0.54137,0.45488c-0.03701,-0.00321 -0.07273,-0.01038 -0.10677,-0.02105l-0.61951,-0.18084l0.00565,-0.01934l-0.04893,0.00452c-0.06307,-0.03185 -0.12622,-0.06379 -0.18931,-0.09601c-0.24949,0.1138 -0.49985,0.11405 -0.57519,-0.30936c-0.22966,-0.13291 -0.45209,-0.27701 -0.65954,-0.44131c0,0 -0.39048,-0.31229 -0.07819,-0.70277c0.31229,-0.39048 0.70277,-0.07819 0.70277,-0.07819c0.08548,0.06918 0.17436,0.13387 0.26572,0.19508c0.16616,-0.15744 0.39586,-0.24362 0.62875,-0.27236c-0.04971,-0.08581 -0.07445,-0.18721 -0.06522,-0.29351c0.00726,-0.08367 0.03473,-0.16072 0.07719,-0.22677l0.3288,-0.53601l0.24651,0.15122l0.0207,-0.01135c-0.06512,-0.09286 -0.09916,-0.20827 -0.08859,-0.3301c0.02202,-0.2537 0.22986,-0.44664 0.47783,-0.4564l0.48177,-0.02667c0.37083,-0.32303 0.65466,-0.59625 0.61131,-0.88593l0.37896,0.09831l-0.00208,-0.08652c-0.39826,-0.39057 0.39674,-0.73301 1.15956,-0.89111c-0.00918,-0.02615 -0.01624,-0.05324 -0.02098,-0.08104l-0.09698,-0.49963l0.17217,-0.03342l-0.10175,-0.3325c0.06281,-0.01538 0.29492,-0.04095 0.58642,-0.04334l0.03691,-0.04123l0.01573,0.01408c0.1022,-1.15422 1.34669,-3.06491 2.13323,-3.52885l-0.22691,0.0394c0,0 0.04324,-0.49813 0.54137,-0.45488c0.49813,0.04324 0.45488,0.54137 0.45488,0.54137zM243.4333,185.65279c0.02214,0.00567 0.02307,0.00065 0.01074,-0.012z" data-paper-data="{&quot;index&quot;:null}" fill="#ffffff" stroke="none" stroke-width="0.5" stroke-linecap="butt"/></g></g></svg>