<svg version="1.1" xmlns="http://www.w3.org/2000/svg" xmlns:xlink="http://www.w3.org/1999/xlink" width="45" height="45" viewBox="0,0,45,45"><defs><radialGradient cx="240" cy="180" r="22.5" gradientUnits="userSpaceOnUse" id="color-1"><stop offset="0" stop-color="#ff9b50"/><stop offset="1" stop-color="#ff9b50" stop-opacity="0"/></radialGradient><radialGradient cx="240.6067" cy="182" r="11" gradientUnits="userSpaceOnUse" id="color-2"><stop offset="0" stop-color="#ffd74f"/><stop offset="1" stop-color="#ffd74f" stop-opacity="0"/></radialGradient></defs><g transform="translate(-217.5,-157.5)"><g data-paper-data="{&quot;isPaintingLayer&quot;:true}" fill-rule="nonzero" stroke="none" stroke-width="0" stroke-linecap="butt" stroke-linejoin="miter" stroke-miterlimit="10" stroke-dasharray="" stroke-dashoffset="0" style="mix-blend-mode: normal"><path d="M262.5,180c0,12.42641 -10.07359,22.5 -22.5,22.5c-12.42641,0 -22.5,-10.07359 -22.5,-22.5c0,-12.42641 10.07359,-22.5 22.5,-22.5c12.42641,0 22.5,10.07359 22.5,22.5z" fill="url(#color-1)"/><path d="M249.6067,182c0,6.07513 -4.02944,11 -9,11c-4.97056,0 -9,-4.92487 -9,-11c0,-6.07513 4.02944,-11 9,-11c4.97056,0 9,4.92487 9,11z" fill="url(#color-2)"/></g></g></svg>