<svg xmlns="http://www.w3.org/2000/svg" xmlns:xlink="http://www.w3.org/1999/xlink" version="1.1" width="508.3519" height="283.0358" viewBox="0,0,508.3519,283.0358"><g><g data-paper-data="{&quot;isPaintingLayer&quot;:true}" fill-rule="nonzero" stroke-linecap="round" stroke-linejoin="miter" stroke-miterlimit="10" stroke-dasharray="" stroke-dashoffset="0" style="mix-blend-mode: normal"><path d="M 2.25 2.25 L 414.9134 2.267 C 414.9134 2.267 459.1925 2.0625 476.0375 4.403 C 492.5518 6.6976 504.1081 14.1381 506.1019 30.9761 C 508.3491 49.9537 498.3544 64.9479 481.332 71.3577 C 456.8329 80.5827 420.3007 76.2328 406.0364 75.8533 C 359.2861 74.6097 297.9967 75.8802 223.0228 73.9441 C 151.4964 72.097 127.3199 83.602 126.6427 120.534 C 125.9656 157.4659 177.1341 165.3839 221.2542 170.0485 C 227.4964 170.7084 244.3335 174.8535 274.0265 174.1966 C 284.8703 173.9567 299.6105 164.8034 308.188 164.9173 C 320.5612 165.0816 341.3782 172.525 341.3782 172.525 C 389.4567 173.3304 411.8403 174.4986 411.8403 174.4986 C 411.8403 174.4986 506.7741 171.9083 502.817 225.1826 C 501.3377 245.098 496.8391 252.9651 483.0102 263.8231 C 455.5091 285.4163 407.0881 280.2429 407.0881 280.2429 L 24.2325 279.7471 " data-paper-data="{&quot;index&quot;:null}" stroke-width="4.5" fill="none" stroke="#000000"/></g></g></svg>