<svg version="1.1" xmlns="http://www.w3.org/2000/svg" xmlns:xlink="http://www.w3.org/1999/xlink" width="315.30573" height="95.4285" viewBox="0,0,315.30573,95.4285"><defs><radialGradient cx="120.0163" cy="143.1577" r="38.22685" gradientUnits="userSpaceOnUse" id="color-1"><stop offset="0" stop-color="#2fb500"/><stop offset="1" stop-color="#adff77"/></radialGradient><linearGradient x1="345.78273" y1="189.79775" x2="381.34247" y2="189.79775" gradientUnits="userSpaceOnUse" id="color-2"><stop offset="0" stop-color="#2fff0b" stop-opacity="0"/><stop offset="1" stop-color="#2fff0b"/></linearGradient><linearGradient x1="349.17289" y1="181.53857" x2="360.36704" y2="181.53857" gradientUnits="userSpaceOnUse" id="color-3"><stop offset="0" stop-color="#2fff0b" stop-opacity="0"/><stop offset="1" stop-color="#2fff0b"/></linearGradient><linearGradient x1="377.66342" y1="187.97378" x2="388.85763" y2="187.97378" gradientUnits="userSpaceOnUse" id="color-4"><stop offset="0" stop-color="#2fff0b" stop-opacity="0"/><stop offset="1" stop-color="#2fff0b"/></linearGradient><linearGradient x1="357.91085" y1="208.89236" x2="369.10503" y2="208.89236" gradientUnits="userSpaceOnUse" id="color-5"><stop offset="0" stop-color="#2fff0b" stop-opacity="0"/><stop offset="1" stop-color="#2fff0b"/></linearGradient><linearGradient x1="360.35236" y1="193.6834" x2="376.42891" y2="193.6834" gradientUnits="userSpaceOnUse" id="color-6"><stop offset="0" stop-color="#2fff0b" stop-opacity="0"/><stop offset="1" stop-color="#2fff0b"/></linearGradient></defs><g transform="translate(-82.34713,-124.33238)"><g data-paper-data="{&quot;isPaintingLayer&quot;:true}" fill-rule="nonzero" stroke-linejoin="miter" stroke-miterlimit="10" stroke-dasharray="" stroke-dashoffset="0" style="mix-blend-mode: normal"><path d="M161.02606,140.82144v-15.23906h93.61135v15.23906z" fill="#fcfcfc" stroke="#000000" stroke-width="2.5" stroke-linecap="butt"/><text transform="translate(163.63849,136.46742) scale(0.23584,0.23584)" font-size="40" xml:space="preserve" fill="#0a0a0a" fill-rule="nonzero" stroke="none" stroke-width="1" stroke-linecap="butt" stroke-linejoin="miter" stroke-miterlimit="10" stroke-dasharray="" stroke-dashoffset="0" font-family="Sans Serif" font-weight="normal" text-anchor="start" style="mix-blend-mode: normal"><tspan x="0" dy="0">TowerSize: Small</tspan></text><path d="M83.59713,218.51088v-76.49249h312.80573v76.49249z" fill="#36cc00" stroke="#000000" stroke-width="2.5" stroke-linecap="butt"/><path d="M84.66202,217.94285v-76.4537h74.68599v76.4537z" fill="url(#color-1)" stroke="#000000" stroke-width="0.5" stroke-linecap="butt"/><text transform="translate(114.25493,207.23122) scale(0.5,0.5)" font-size="40" xml:space="preserve" fill="#000000" fill-rule="nonzero" stroke="none" stroke-width="1" stroke-linecap="butt" stroke-linejoin="miter" stroke-miterlimit="10" stroke-dasharray="" stroke-dashoffset="0" font-family="Marker" font-weight="normal" text-anchor="start" style="mix-blend-mode: normal"><tspan x="0" dy="0">240</tspan></text><g stroke="#000000" stroke-linecap="butt"><path d="M101.88067,210.27299c-6.07513,0 -11,-4.64505 -11,-10.375c0,-5.72995 4.92487,-10.375 11,-10.375c6.07513,0 11,4.64505 11,10.375c0,5.72995 -4.92487,10.375 -11,10.375z" fill="#ffd036" stroke-width="1"/><path d="M109.81817,199.77299c0,4.55635 -3.55374,8.25 -7.9375,8.25c-4.38376,0 -7.9375,-3.69365 -7.9375,-8.25c0,-4.55635 3.55374,-8.25 7.9375,-8.25c4.38376,0 7.9375,3.69365 7.9375,8.25z" fill="#e0b82f" stroke-width="1"/><text transform="translate(97.03047,205.49174) scale(0.4349,0.4349)" font-size="40" xml:space="preserve" fill="#000000" fill-rule="nonzero" stroke="#000000" stroke-width="0" stroke-linecap="butt" stroke-linejoin="miter" stroke-miterlimit="10" stroke-dasharray="" stroke-dashoffset="0" font-family="Sans Serif" font-weight="normal" text-anchor="start" style="mix-blend-mode: normal"><tspan x="0" dy="0">$</tspan></text></g><path d="M149.62559,168.88873l-59.6604,0.44193" fill="none" stroke="#000000" stroke-width="0.5" stroke-linecap="round"/><path d="M96.5941,175.95959l45.07675,-1.32579" fill="none" stroke="#000000" stroke-width="0.5" stroke-linecap="round"/><text transform="translate(87.03291,160.3043) scale(0.31059,0.40838)" font-size="40" xml:space="preserve" fill="#8cff00" fill-rule="nonzero" stroke="#000000" stroke-width="1" stroke-linecap="butt" stroke-linejoin="miter" stroke-miterlimit="10" stroke-dasharray="" stroke-dashoffset="0" font-family="Marker" font-weight="normal" text-anchor="start" style="mix-blend-mode: normal"><tspan x="0" dy="0">Deoxys</tspan></text><path d="M372.53833,171.01565l8.80415,37.5642c0,0 -11.36582,-4.06823 -17.2473,-5.57907c-5.97043,-1.53369 -18.31244,-3.55557 -18.31244,-3.55557z" fill="none" stroke="url(#color-2)" stroke-width="1.5" stroke-linecap="round"/><path d="M360.17144,182.86721c-0.80717,3.28146 -3.87982,5.34676 -6.86296,4.61297c-2.98314,-0.73378 -4.74713,-3.98879 -3.93997,-7.27025c0.80717,-3.28146 3.87983,-5.34676 6.86297,-4.61297c2.98314,0.73378 4.74712,3.98878 3.93996,7.27024z" fill="none" stroke="url(#color-3)" stroke-width="1.5" stroke-linecap="butt"/><path d="M388.662,189.30241c-0.80717,3.28146 -3.87981,5.34676 -6.86296,4.61297c-2.98315,-0.73379 -4.74713,-3.98878 -3.93997,-7.27025c0.80717,-3.28146 3.87982,-5.34676 6.86297,-4.61297c2.98315,0.73379 4.74712,3.98878 3.93996,7.27024z" fill="none" stroke="url(#color-4)" stroke-width="1.5" stroke-linecap="butt"/><path d="M368.90939,210.221c-0.80717,3.28146 -3.87981,5.34676 -6.86296,4.61297c-2.98315,-0.73379 -4.74712,-3.98878 -3.93996,-7.27024c0.80717,-3.28146 3.87981,-5.34677 6.86296,-4.61298c2.98315,0.73379 4.74712,3.98879 3.93996,7.27026z" fill="none" stroke="url(#color-5)" stroke-width="1.5" stroke-linecap="butt"/><path d="M360.35236,185.09417c0,0 5.33801,1.77732 8.03724,2.41145c2.65902,0.62468 8.03932,1.36546 8.03932,1.36546l-11.41278,13.40155z" data-paper-data="{&quot;index&quot;:null}" fill="none" stroke="url(#color-6)" stroke-width="1.5" stroke-linecap="round"/><text transform="translate(162.23708,161.51886) scale(0.34211,0.32858)" font-size="40" xml:space="preserve" fill="#ffffff" fill-rule="nonzero" stroke="#000000" stroke-width="0" stroke-linecap="butt" stroke-linejoin="miter" stroke-miterlimit="10" stroke-dasharray="" stroke-dashoffset="0" font-family="Serif" font-weight="normal" text-anchor="start" style="mix-blend-mode: normal"><tspan x="0" dy="0">He Shoots two ghosts that bounce and</tspan><tspan x="0" dy="48px">on impact with enemies scratch them </tspan><tspan x="0" dy="48px">doing decent damage,</tspan><tspan x="0" dy="48px">Good Starter-Midgame Tower!</tspan></text></g></g></svg>