<svg version="1.1" xmlns="http://www.w3.org/2000/svg" xmlns:xlink="http://www.w3.org/1999/xlink" width="56.54496" height="58.27209" viewBox="0,0,56.54496,58.27209"><defs><radialGradient cx="240" cy="180" r="27.41709" gradientUnits="userSpaceOnUse" id="color-1"><stop offset="0" stop-color="#f9ffa8"/><stop offset="1" stop-color="#f9ffa8" stop-opacity="0"/></radialGradient><radialGradient cx="240" cy="180" r="28.27248" gradientUnits="userSpaceOnUse" id="color-2"><stop offset="0" stop-color="#faffae"/><stop offset="1" stop-color="#faffae" stop-opacity="0"/></radialGradient><radialGradient cx="240" cy="180.00004" r="3.47476" gradientUnits="userSpaceOnUse" id="color-3"><stop offset="0" stop-color="#fff721"/><stop offset="1" stop-color="#fff721" stop-opacity="0"/></radialGradient><radialGradient cx="240.00003" cy="180.00004" r="2.69428" gradientUnits="userSpaceOnUse" id="color-4"><stop offset="0" stop-color="#fff721"/><stop offset="1" stop-color="#fff721" stop-opacity="0"/></radialGradient><linearGradient x1="236.30972" y1="200.42402" x2="243.67623" y2="200.42402" gradientUnits="userSpaceOnUse" id="color-5"><stop offset="0" stop-color="#f2ff21"/><stop offset="1" stop-color="#f2ff21" stop-opacity="0"/></linearGradient><linearGradient x1="236.22415" y1="159.43519" x2="243.59066" y2="159.43519" gradientUnits="userSpaceOnUse" id="color-6"><stop offset="0" stop-color="#f2ff21"/><stop offset="1" stop-color="#f2ff21" stop-opacity="0"/></linearGradient><linearGradient x1="259.61671" y1="180.2291" x2="263.6685" y2="180.2291" gradientUnits="userSpaceOnUse" id="color-7"><stop offset="0" stop-color="#f2ff21"/><stop offset="1" stop-color="#f2ff21" stop-opacity="0"/></linearGradient><linearGradient x1="216.57416" y1="180.40025" x2="220.62595" y2="180.40025" gradientUnits="userSpaceOnUse" id="color-8"><stop offset="0" stop-color="#f2ff21"/><stop offset="1" stop-color="#f2ff21" stop-opacity="0"/></linearGradient><linearGradient x1="221.21691" y1="167.05104" x2="227.44978" y2="167.05104" gradientUnits="userSpaceOnUse" id="color-9"><stop offset="0" stop-color="#f2ff21"/><stop offset="1" stop-color="#f2ff21" stop-opacity="0"/></linearGradient><linearGradient x1="253.13515" y1="166.87991" x2="259.36801" y2="166.87991" gradientUnits="userSpaceOnUse" id="color-10"><stop offset="0" stop-color="#f2ff21"/><stop offset="1" stop-color="#f2ff21" stop-opacity="0"/></linearGradient><linearGradient x1="252.96401" y1="193.06484" x2="259.19687" y2="193.06484" gradientUnits="userSpaceOnUse" id="color-11"><stop offset="0" stop-color="#f2ff21"/><stop offset="1" stop-color="#f2ff21" stop-opacity="0"/></linearGradient><linearGradient x1="223.89564" y1="195.09255" x2="230.1285" y2="195.09255" gradientUnits="userSpaceOnUse" id="color-12"><stop offset="0" stop-color="#f2ff21"/><stop offset="1" stop-color="#f2ff21" stop-opacity="0"/></linearGradient></defs><g transform="translate(-211.72752,-150.86396)"><g data-paper-data="{&quot;isPaintingLayer&quot;:true}" fill-rule="nonzero" stroke-linejoin="miter" stroke-miterlimit="10" stroke-dasharray="" stroke-dashoffset="0" style="mix-blend-mode: normal"><path d="M240,208.25452c-15.14205,0 -27.41709,-12.64997 -27.41709,-28.25452c0,-15.60451 12.27503,-28.25452 27.41709,-28.25452c15.14205,0 27.41709,12.64998 27.41709,28.25452c0,15.60451 -12.27504,28.25452 -27.41709,28.25452z" fill="url(#color-1)" stroke="none" stroke-width="0" stroke-linecap="butt"/><path d="M240,209.13605c-15.61447,0 -28.27248,-13.04464 -28.27248,-29.13604c0,-16.09137 12.658,-29.13605 28.27248,-29.13605c15.61447,0 28.27248,13.04465 28.27248,29.13605c0,16.09137 -12.65801,29.13604 -28.27248,29.13604z" fill="url(#color-2)" stroke="none" stroke-width="0" stroke-linecap="butt"/><path d="M240.33175,187.57426c-3.9656,0.2086 -7.3289,-3.0134 -7.5121,-7.1965c-0.1832,-4.1832 2.883,-7.7434 6.8486,-7.952c3.9656,-0.2086 7.3289,3.0134 7.5121,7.1965c0.1833,4.1832 -2.883,7.7434 -6.8486,7.952z" fill="none" stroke="#f9ff21" stroke-width="2" stroke-linecap="butt"/><path d="M240.15026,183.43072c-1.91687,0.10084 -3.53808,-1.3534 -3.62105,-3.2481c-0.08304,-1.89476 1.40365,-3.51248 3.32052,-3.61332c1.91687,-0.10077 3.53808,1.35347 3.62105,3.24816c0.08297,1.89476 -1.40365,3.51248 -3.32052,3.61325z" fill="none" stroke="url(#color-3)" stroke-width="3" stroke-linecap="butt"/><path d="M240.11655,182.66009c-1.48628,0.07818 -2.74329,-1.04938 -2.80771,-2.51848c-0.06428,-1.46916 1.0884,-2.72351 2.57468,-2.80169c1.48628,-0.07818 2.74329,1.04938 2.80764,2.51855c0.06435,1.46909 -1.08833,2.72344 -2.57461,2.80162z" fill="none" stroke="url(#color-4)" stroke-width="3" stroke-linecap="butt"/><path d="M240.22711,185.18514c-2.71474,0.1428 -5.01717,-2.06289 -5.14258,-4.92653c-0.12541,-2.86371 1.97363,-5.30093 4.68837,-5.44373c2.71474,-0.1428 5.01717,2.06289 5.14258,4.92653c0.12548,2.86371 -1.97363,5.30093 -4.68837,5.44373z" fill="none" stroke="#f9ff21" stroke-width="2" stroke-linecap="butt"/><path d="M240.27968,204.00906c-13.21165,0 -25.41342,-10.74924 -25.41342,-24.00908c0,-13.25984 12.20177,-24.00902 25.41342,-24.00902c13.21165,0 24.85405,10.74917 24.85405,24.00902c0,13.25984 -11.6424,24.00908 -24.85405,24.00908z" fill="none" stroke="#f9ff21" stroke-width="2" stroke-linecap="butt"/><path d="M243.66849,200.24688c0.13075,1.11387 -1.40885,2.09623 -3.43875,2.19406c-2.0299,0.09783 -3.78151,-0.72578 -3.91227,-1.83972c-0.13075,-1.11394 1.40885,-2.0963 3.43882,-2.19413c2.0299,-0.09783 3.78145,0.72585 3.9122,1.83979z" data-paper-data="{&quot;index&quot;:null}" fill="none" stroke="url(#color-5)" stroke-width="2.5" stroke-linecap="butt"/><path d="M239.67071,161.45211c-2.02997,-0.09783 -3.56957,-1.08019 -3.43882,-2.19413c0.13075,-1.11394 1.88237,-1.93755 3.91227,-1.83972c2.0299,0.09783 3.5695,1.08019 3.43875,2.19406c-0.13075,1.11394 -1.8823,1.93762 -3.9122,1.83979z" data-paper-data="{&quot;index&quot;:null}" fill="none" stroke="url(#color-6)" stroke-width="2.5" stroke-linecap="butt"/><path d="M259.62805,179.97302c0.11734,-2.02893 1.11446,-3.55902 2.22709,-3.41756c1.11263,0.14146 1.91936,1.90092 1.80202,3.92977c-0.11734,2.02886 -1.11446,3.55895 -2.22702,3.41749c-1.11263,-0.14146 -1.91943,-1.90085 -1.80209,-3.92971z" data-paper-data="{&quot;index&quot;:null}" fill="none" stroke="url(#color-7)" stroke-width="2.5" stroke-linecap="butt"/><path d="M218.81252,184.07388c-1.11256,0.14146 -2.10968,-1.38863 -2.22702,-3.41749c-0.11734,-2.02886 0.68939,-3.78832 1.80202,-3.92978c1.11263,-0.14146 2.10975,1.38864 2.22709,3.41757c0.11734,2.02886 -0.68946,3.78825 -1.80209,3.92971z" data-paper-data="{&quot;index&quot;:null}" fill="none" stroke="url(#color-8)" stroke-width="2.5" stroke-linecap="butt"/><path d="M221.57228,169.48359c-0.7974,-0.78864 -0.20767,-2.51713 1.31721,-3.86056c1.52488,-1.34343 3.40748,-1.79325 4.20492,-1.00455c0.79744,0.7887 0.20772,2.51718 -1.31722,3.86065c-1.52488,1.34343 -3.40746,1.79315 -4.2049,1.00445z" data-paper-data="{&quot;index&quot;:null}" fill="none" stroke="url(#color-9)" stroke-width="2.5" stroke-linecap="butt"/><path d="M254.80775,168.30799c-1.52494,-1.34347 -2.11466,-3.07195 -1.31722,-3.86064c0.79744,-0.7887 2.68004,-0.33888 4.20491,1.00455c1.52488,1.34343 2.11461,3.07191 1.31721,3.86055c-0.79744,0.7887 -2.68002,0.33897 -4.2049,-1.00445z" data-paper-data="{&quot;index&quot;:null}" fill="none" stroke="url(#color-10)" stroke-width="2.5" stroke-linecap="butt"/><path d="M258.84151,190.6323c0.7974,0.78865 0.20767,2.51712 -1.31721,3.86055c-1.52488,1.34343 -3.40747,1.79325 -4.20491,1.00455c-0.79744,-0.7887 -0.20772,-2.51718 1.31722,-3.86064c1.52488,-1.34343 3.40746,-1.79316 4.2049,-1.00445z" data-paper-data="{&quot;index&quot;:null}" fill="none" stroke="url(#color-11)" stroke-width="2.5" stroke-linecap="butt"/><path d="M228.4559,193.66447c1.52494,1.34347 2.11466,3.07195 1.31722,3.86065c-0.79744,0.7887 -2.68004,0.33888 -4.20491,-1.00455c-1.52488,-1.34343 -2.11461,-3.07191 -1.31721,-3.86055c0.79744,-0.7887 2.68002,-0.33897 4.2049,1.00445z" data-paper-data="{&quot;index&quot;:null}" fill="none" stroke="url(#color-12)" stroke-width="2.5" stroke-linecap="butt"/><path d="M226.56812,193.38753l13.7219,-13.39552" fill="none" stroke="#f2ff21" stroke-width="2.5" stroke-linecap="round"/><path d="M241.69507,180.00959l16.88192,0.93684" fill="none" stroke="#f2ff21" stroke-width="2.5" stroke-linecap="round"/></g></g></svg>