<svg version="1.1" xmlns="http://www.w3.org/2000/svg" xmlns:xlink="http://www.w3.org/1999/xlink" width="271.33436" height="261.55653" viewBox="0,0,271.33436,261.55653"><defs><radialGradient cx="240" cy="180.00001" r="135.66718" gradientUnits="userSpaceOnUse" id="color-1"><stop offset="0" stop-color="#ff8108"/><stop offset="1" stop-color="#ff8108" stop-opacity="0"/></radialGradient><radialGradient cx="239.93707" cy="180.0274" r="67.22725" gradientUnits="userSpaceOnUse" id="color-2"><stop offset="0" stop-color="#ff6300"/><stop offset="1" stop-color="#ff6300" stop-opacity="0"/></radialGradient><radialGradient cx="240.00001" cy="180.00001" r="30.09258" gradientUnits="userSpaceOnUse" id="color-3"><stop offset="0" stop-color="#ff8108"/><stop offset="1" stop-color="#ff8108" stop-opacity="0"/></radialGradient><radialGradient cx="240.00577" cy="178.752" r="19.39219" gradientUnits="userSpaceOnUse" id="color-4"><stop offset="0" stop-color="#ff8108"/><stop offset="1" stop-color="#ff8108" stop-opacity="0"/></radialGradient><radialGradient cx="240.00577" cy="178.752" r="26.91942" gradientUnits="userSpaceOnUse" id="color-5"><stop offset="0" stop-color="#ffd308"/><stop offset="1" stop-color="#ffd308" stop-opacity="0"/></radialGradient></defs><g transform="translate(-104.33282,-49.22174)"><g data-paper-data="{&quot;isPaintingLayer&quot;:true}" fill-rule="nonzero" stroke="none" stroke-linecap="butt" stroke-linejoin="miter" stroke-miterlimit="10" stroke-dasharray="" stroke-dashoffset="0" style="mix-blend-mode: normal"><path d="M375.66718,180.00001c0,72.22685 -60.74026,130.77826 -135.66718,130.77826c-74.92691,0 -135.66718,-58.55142 -135.66718,-130.77826c0,-72.22685 60.74026,-130.77827 135.66718,-130.77827c74.92691,0 135.66718,58.55142 135.66718,130.77826z" fill="url(#color-1)" stroke-width="0"/><path d="M300.27099,183.42901c0,0 -29.17508,1.57224 -39.81354,12.91919c-11.83837,12.62675 -24.64023,50.78007 -24.64023,50.78007c0,0 -8.90935,-26.21891 -17.49497,-48.72912c-3.55659,-9.3248 -38.7006,-22.07499 -38.7006,-22.07499c0,0 27.66506,-16.81674 48.44991,-26.45893c8.22076,-3.81366 15.98535,-36.93872 15.98535,-36.93872c0,0 5.15594,29.68418 15.14809,40.78105c11.7632,13.06374 41.06599,29.7215 41.06599,29.7215z" fill="url(#color-2)" stroke-width="0"/><path d="M240.00001,209.09426c-16.61967,0 -30.09258,-13.02594 -30.09258,-29.09425c0,-16.06831 13.47291,-29.09425 30.09258,-29.09425c16.61967,0 30.09258,13.02594 30.09258,29.09425c0,16.06831 -13.47291,29.09425 -30.09258,29.09425z" fill="url(#color-3)" stroke-width="0"/><path d="M240.00577,197.84276c-10.71,0 -19.39219,-8.54723 -19.39219,-19.09075c0,-10.54353 8.68219,-19.09075 19.39219,-19.09075c10.71,0 19.39219,8.54723 19.39219,19.09075c0,4.11973 -1.32555,7.93468 -3.57967,11.05405c-0.15586,-0.70578 -0.23946,-1.38975 -0.23946,-2.01593c0,0 0,-0.40191 -0.40191,-0.40191c-0.40191,0 -0.40191,0.40191 -0.40191,0.40191c0,0.89479 0.15064,1.85751 0.42392,2.8267c-3.55245,4.40277 -9.03791,7.22594 -15.19316,7.22594z" fill="url(#color-4)" stroke-width="0"/><path d="M223.96102,184.10601c0.1437,-0.013 0.3169,0.0069 0.4733,0.1215c0.1904,0.0514 0.3662,0.1013 0.5206,0.1437c0.1949,1.615 0.0782,1.8672 -0.8863,2.9759c0.0379,0.1393 0.0662,0.2845 0.0848,0.4372c0.148,0.1623 0.3562,0.3337 0.4247,0.5068c0.2567,0.6491 0.3172,1.4742 0.1247,2.1984c-0.0099,0 -0.02,0 -0.0302,0.0001c-1.4558,-0.5062 -2.0977,-1.7848 -2.8676,-2.7109c0.404,-0.8818 0.4838,-2.3347 1.0455,-3.0081c0.2071,-0.2654 0.3599,-0.5329 0.4652,-0.8004c0.2196,0.0384 0.437,0.0856 0.6453,0.1358z" fill="#000000" stroke-width="0.5"/><path d="M227.37442,198.52011c-1.6207,1.8608 -3.1232,1.0814 -4.1717,-0.5373c0.3542,-1.0304 1.0083,-1.706 1.5708,-2.7461c0.8045,0.9249 1.4937,2.2536 2.9439,2.7525c-0.0912,0.1933 -0.205,0.3726 -0.343,0.5309z" fill="#000000" stroke-width="0.5"/><path d="M211.38462,179.16341c-0.3247,-0.9137 -0.4033,-1.8568 0.4474,-2.5235c0.6731,-0.5275 1.1145,0.2641 1.5327,0.8013c0.2858,-0.1004 0.5299,-0.0765 0.7385,0.0334c0.0223,-0.0818 0.055,-0.152 0.1181,-0.1811c0.3947,-0.1818 0.9018,-0.2077 1.4271,-0.1572c-0.0849,0.1855 -0.1986,0.3718 -0.3445,0.5583c-0.5567,0.747 -0.6529,1.9651 -1.0238,2.9122c-0.6054,-0.5702 -1.357,-0.8606 -2.6147,-0.4414c0,0 -0.116,0.0386 -0.1606,0.1428c-0.0129,0.0013 -0.0257,0.0026 -0.0385,0.0039c-0.0584,-0.4054 -0.0867,-0.7939 -0.0816,-1.1487z" fill="#000000" stroke-width="0.5"/><path d="M217.25652,189.74901c-0.5106,1.0119 -1.1167,1.6906 -1.5201,2.582c-0.4604,-0.8644 -0.805,-1.8814 -0.9952,-2.844c0.1479,-0.0128 0.2973,-0.0214 0.4496,-0.0214h0.2551c0,0 0.2552,0 0.2552,-0.2551c0,-0.0111 -0.0005,-0.0218 -0.0014,-0.0319c0.6492,-0.0521 1.133,0.1875 1.5568,0.5704z" fill="#000000" stroke-width="0.5"/><path d="M256.13092,161.86901c-0.3767,0.1256 -0.6231,-0.0094 -0.7731,-0.1684c-0.4092,-0.065 -0.7026,-0.3701 -0.9976,-0.6655c-0.0018,-0.0478 -0.0026,-0.0969 -0.0023,-0.1474c0,-0.7654 -0.3123,-2.6268 -1.4215,-2.6786c-0.6827,-0.0318 -1.499,1.516 -2.5455,2.1541c-0.0114,-0.0697 -0.0282,-0.1344 -0.0527,-0.1922c-0.2336,-0.553 -0.5071,-0.9763 -0.819,-1.3002c0.1722,-0.2638 0.2905,-0.5199 0.2327,-0.743c-0.2695,-1.041 -2.0172,-1.4503 -0.1145,-1.4503c0.8642,-0.0846 1.1657,-1.4192 1.1397,-2.5852c1.9628,-0.1016 4.7813,1.6157 6.031,2.7148c0.1858,0.8891 0.5613,3.1693 -0.1585,4.2758c0.0214,0.2316 -0.024,0.6212 -0.5187,0.7861z" fill="#000000" stroke-width="0.5"/><path d="M247.67622,161.65171c-0.0702,-0.0295 -0.2425,0.1332 -0.477,0.3699c-0.0594,0.183 -0.1574,0.317 -0.3417,0.3447c-0.5572,0.5521 -1.2893,1.1909 -1.8861,0.999c-0.5773,-0.1856 -0.5653,-0.7671 -0.5563,-1.3039c1.7524,-0.8098 3.3381,-3.3256 3.4318,-0.321c-0.0549,-0.034 -0.1116,-0.0639 -0.1707,-0.0887z" fill="#000000" stroke-width="0.5"/><path d="M231.13832,159.86701c0,0 -0.6549,0 -0.7532,-0.6057c-0.2356,-0.1305 -0.395,-0.3817 -0.395,-0.6701c0,-0.2484 0.1183,-0.4692 0.3017,-0.609l1.142,-0.8882l0.0101,0.013c0.0233,-0.023 0.047,-0.0457 0.0709,-0.0681c0.4359,-0.4073 2.246,-0.8241 3.5456,-0.69c0.1492,-0.0461 0.3001,-0.0879 0.4535,-0.1242c-0.0099,0.9847 -0.1714,2.1025 -0.5482,1.9838c-0.2534,0 -1.2114,-0.1366 -1.3653,0.121c-0.3758,0.6289 0.7468,1.7258 0.9956,2.001c0.0022,0.0024 -0.0506,0.0962 -0.1317,0.2457c-0.8705,-0.6388 -1.9868,-0.7092 -3.326,-0.7092z" fill="#000000" stroke-width="0.5"/><path d="M247.04002,197.22971c-0.2078,-0.3109 -0.3449,-0.6746 -0.4584,-1.0573c0.2113,-0.1852 0.3364,-0.4341 0.4117,-0.7148c0.0047,-0.0185 0.0094,-0.0371 0.0141,-0.0556c0.2019,-0.8344 -0.0041,-1.9243 0.2966,-2.4701c0.3855,-0.6998 0.8942,-1.3035 1.4429,-1.7127c0.4762,1.7227 1.5663,3.4845 2.8802,4.4282c-0.2742,0.0279 -0.5669,0.0925 -0.8823,0.2005c-1.8809,-0.0132 -2.3792,0.8474 -3.1905,2.0239c-0.1778,-0.1836 -0.3485,-0.394 -0.5143,-0.6421z" fill="#000000" stroke-width="0.5"/><path d="M258.58682,201.34131l-0.0948,0.056l0.0359,0.0287l-0.5059,0.6324c-0.0713,0.0907 -0.1627,0.165 -0.2675,0.216c-0.6198,0.6814 -1.3667,1.2626 -2.1658,1.6551c-0.2903,-0.1509 -0.5289,-0.2592 -0.6756,-0.3095c-0.6005,-0.2918 -1.1146,-0.5418 -1.5759,-0.9018c0.6852,-0.9959 1.0372,-1.8904 2.8477,-1.9012c0.7047,-0.2293 1.2869,-0.2309 1.8035,-0.0909c0.2111,0.1303 0.4413,0.2759 0.6775,0.4325c-0.0264,0.0606 -0.0528,0.1215 -0.0791,0.1827z" fill="#000000" stroke-width="0.5"/><path d="M240.51862,205.15541c-0.6709,-0.0949 -1.2845,-0.2685 -1.7553,-0.5008l-0.0455,-0.0722l-0.0201,0.0251l-0.6324,-0.5059c-0.1783,-0.1401 -0.2928,-0.3577 -0.2928,-0.6021c0,-0.4228 0.3427,-0.7655 0.7654,-0.7655c0.0479,0 0.0947,0.0044 0.1401,0.0128l0.1068,0.0178c0.0011,-0.0732 0.0127,-0.1533 0.0377,-0.2409c0.2103,-0.736 0.9464,-0.5257 0.9464,-0.5257c0.4,0.1149 0.8006,0.5253 1.1893,0.3988c0.0668,0.2483 0.1348,0.4738 0.2137,0.6558c0.2214,0.5107 0.5133,0.9073 0.8545,1.2359c-0.0851,0.1167 -0.1748,0.2356 -0.2703,0.3562c-0.2217,0.2799 -0.5363,0.5312 -0.848,0.7923c-0.1322,-0.0837 -0.2621,-0.1774 -0.3895,-0.2816z" fill="#000000" stroke-width="0.5"/><path d="M251.14332,206.89731c0.0913,0.0315 0.1805,0.0635 0.2676,0.0959c-1.0081,0.3601 -2.0668,0.4022 -3.0374,-0.0378c0.1527,-0.1248 0.2929,-0.2332 0.3957,-0.317c0.2826,-0.2304 0.5081,-0.4717 0.7008,-0.7131c0.5019,0.3758 1.0764,0.6635 1.6733,0.972z" fill="#000000" stroke-width="0.5"/><path d="M221.74022,169.06451c-0.6555,-0.4376 -1.2575,-0.7874 -1.5598,-0.9895c-0.2124,-0.1306 -0.4181,-0.2893 -0.6153,-0.4707c0.4859,-0.636 0.9029,-1.3422 1.2702,-2.0846c0.6467,0.3791 1.2805,0.7777 1.8991,1.1794c-0.2655,0.7574 -0.6242,1.5338 -0.9942,2.3654z" fill="#000000" stroke-width="0.5"/><path d="M267.59942,187.38941c0.071,0.0309 0.142,0.064 0.2132,0.0994c0.3576,0.1767 0.6714,0.3795 0.9513,0.6029c0.1657,0.8885 0.0597,1.737 -0.1935,2.6003c-0.6006,-0.3881 -1.215,-0.7722 -1.8413,-1.1382c0.3246,-0.7053 0.6095,-1.4359 0.8703,-2.1644z" fill="#000000" stroke-width="0.5"/><path d="M260.16202,194.67191c-0.8142,-0.9083 -1.4474,-2.19 -1.7607,-3.4044c1.0055,0.3927 1.9923,0.887 2.9525,1.4312c-0.3448,0.7036 -0.7357,1.3723 -1.1918,1.9732z" fill="#000000" stroke-width="0.5"/><path d="M260.36512,166.72211c0.002,-0.0021 0.004,-0.0042 0.006,-0.0063l-0.3189,-0.6377l0.3355,-0.1678c0.0016,-0.0742 0.0043,-0.1483 0.0078,-0.2224c0.7443,-0.1273 1.4947,-0.1384 2.2608,0.0925c-0.2494,0.7025 -0.5206,1.4081 -0.8296,2.0886c-0.8407,-0.4751 -1.7015,-0.9125 -2.5772,-1.2793c0.3865,-0.0859 0.7672,-0.0522 1.1155,0.1324z" fill="#000000" stroke-width="0.5"/><path d="M257.19102,182.77681c0.0036,-0.0103 0.0073,-0.0207 0.011,-0.0311c-0.0286,-0.7083 -0.0303,-1.3284 -0.0275,-1.6954l0.0717,-0.1053l-0.0423,-0.0141l0.2496,-0.7488c0.0962,-0.3128 0.3874,-0.5401 0.7318,-0.5401c0.3056,0 0.5693,0.179 0.6921,0.438l0.3753,0.7506l-0.0211,0.0106c0.0297,0.0503 0.057,0.1022 0.0814,0.1559c0.0205,0.0449 0.0382,0.0892 0.0534,0.1327c0.1049,-0.054 0.2238,-0.0844 0.3499,-0.0844c0.0945,0 0.1851,0.0171 0.2687,0.0485c-0.1956,0.5846 -0.394,1.1959 -0.6066,1.8146c-0.7502,-0.2244 -1.4744,-0.2334 -2.1874,-0.1317z" fill="#000000" stroke-width="0.5"/><path d="M266.45072,182.37281l0.3347,1.1159c-0.3032,-0.247 -0.6467,-0.4716 -1.0431,-0.6675c-0.0905,-0.0444 -0.1805,-0.0854 -0.2702,-0.123c0.1895,-0.548 0.3671,-1.0911 0.5399,-1.6177c0.0368,0.0722 0.0626,0.151 0.0749,0.2342l0.1117,0.6703c0.1202,0.0988 0.2096,0.2336 0.2521,0.3878z" fill="#000000" stroke-width="0.5"/><path d="M259.29572,185.31381l0.12,0.1528c-0.0451,0.0069 -0.0902,0.0142 -0.1353,0.022c0.005,-0.0586 0.0101,-0.1169 0.0153,-0.1748z" fill="#000000" stroke-width="0.5"/><path d="M228.15142,170.45301c-0.71,0.0845 -0.8301,-0.6364 -0.8301,-0.6364c0.0015,-0.4376 -0.4264,-3.3179 1.802,-1.666c0.5496,0.4075 0.3048,1.3341 0.4573,2.0011l-1.3766,0.3045c0,0 -0.0197,0 -0.0526,-0.0031z" fill="#000000" stroke-width="0.5"/><path d="M257.04332,175.86811c-0.0877,-0.1149 -0.163,-0.2723 -0.1488,-0.4663c0.0007,-0.1944 0.0878,-0.3456 0.1841,-0.4534c0.1213,-0.1616 0.261,-0.2406 0.3964,-0.2724l0.6094,-0.3047c0.1063,-0.056 0.2275,-0.0877 0.3561,-0.0877c0.4227,0 0.7655,0.3427 0.7655,0.7655c0,0.0478 -0.0044,0.0946 -0.0128,0.14l-0.1252,0.7513l-0.837,0.0692l-0.2137,0.1069c0,0 -0.6188,0.3094 -0.974,-0.2484z" fill="#000000" stroke-width="0.5"/><path d="M234.91942,192.67691c0.0357,-0.0596 0.0826,-0.12 0.1429,-0.1803c0.5413,-0.5413 1.0826,0 1.0826,0l0.4472,1.6493c-1.4345,1.0912 -2.2679,1.1647 -2.647,-0.7253c0,0 0,-0.7655 0.7654,-0.7655c0.0772,0 0.1465,0.0078 0.2089,0.0218z" fill="#000000" stroke-width="0.5"/><path d="M240.00577,204.77836c-14.86718,0 -26.91942,-11.6524 -26.91942,-26.02636c0,-14.37396 12.05223,-26.02636 26.91942,-26.02636c14.86718,0 26.91942,11.6524 26.91942,26.02636c0,14.37396 -12.05223,26.02636 -26.91942,26.02636z" fill="url(#color-5)" stroke-width="0"/></g></g></svg>