<svg version="1.1" xmlns="http://www.w3.org/2000/svg" xmlns:xlink="http://www.w3.org/1999/xlink" width="433.50716" height="319.66646" viewBox="0,0,433.50716,319.66646"><defs><radialGradient cx="429.03569" cy="-9.46855" r="37.46091" gradientUnits="userSpaceOnUse" id="color-1"><stop offset="0" stop-color="#fffb79"/><stop offset="1" stop-color="#fffb79" stop-opacity="0"/></radialGradient><radialGradient cx="201.72997" cy="208.311" r="31.17888" gradientUnits="userSpaceOnUse" id="color-2"><stop offset="0" stop-color="#a9a9a9"/><stop offset="1" stop-color="#6a6a6a"/></radialGradient><radialGradient cx="384.61772" cy="184.0613" r="31.17887" gradientUnits="userSpaceOnUse" id="color-3"><stop offset="0" stop-color="#a9a9a9"/><stop offset="1" stop-color="#6a6a6a"/></radialGradient><radialGradient cx="430.88109" cy="-6.04585" r="37.46092" gradientUnits="userSpaceOnUse" id="color-4"><stop offset="0" stop-color="#fffb79"/><stop offset="1" stop-color="#fffb79" stop-opacity="0"/></radialGradient><radialGradient cx="430.36053" cy="-3.4118" r="37.46092" gradientUnits="userSpaceOnUse" id="color-5"><stop offset="0" stop-color="#fffb79"/><stop offset="1" stop-color="#fffb79" stop-opacity="0"/></radialGradient><radialGradient cx="430.62863" cy="-2.35506" r="37.46092" gradientUnits="userSpaceOnUse" id="color-6"><stop offset="0" stop-color="#fffb79"/><stop offset="1" stop-color="#fffb79" stop-opacity="0"/></radialGradient><radialGradient cx="430.89673" cy="-2.87561" r="37.46092" gradientUnits="userSpaceOnUse" id="color-7"><stop offset="0" stop-color="#fffb79"/><stop offset="1" stop-color="#fffb79" stop-opacity="0"/></radialGradient><radialGradient cx="429.58752" cy="-4.97347" r="37.46092" gradientUnits="userSpaceOnUse" id="color-8"><stop offset="0" stop-color="#fffb79"/><stop offset="1" stop-color="#fffb79" stop-opacity="0"/></radialGradient><radialGradient cx="429.85562" cy="-2.33942" r="37.46092" gradientUnits="userSpaceOnUse" id="color-9"><stop offset="0" stop-color="#fffb79"/><stop offset="1" stop-color="#fffb79" stop-opacity="0"/></radialGradient></defs><g transform="translate(-108.79546,52.18713)"><g data-paper-data="{&quot;isPaintingLayer&quot;:true}" fill-rule="nonzero" stroke-linecap="butt" stroke-linejoin="miter" stroke-miterlimit="10" stroke-dasharray="" stroke-dashoffset="0" style="mix-blend-mode: normal"><path d="M134.09472,173.0018v-225.18893h408.2079v225.18893z" fill="#00f2ff" stroke="none" stroke-width="0"/><path d="M429.0357,25.62641c-20.68909,0 -37.46091,-15.71255 -37.46091,-35.09496c0,-19.38241 16.77182,-35.09496 37.46091,-35.09496c20.68909,0 37.46091,15.71255 37.46091,35.09496c0,19.38241 -16.77182,35.09496 -37.46091,35.09496z" fill="url(#color-1)" stroke="none" stroke-width="0"/><path d="M134.82095,260.72497l-26.02548,-137.89129l20.11228,-23.9538c0,0 25.74381,18.94547 41.60579,12.84763c7.96385,-3.06155 9.12491,-10.04539 35.00972,-27.23661c9.90176,-6.57619 26.89835,-20.89379 31.52079,-23.73975c7.36166,-4.53247 27.9039,1.91384 39.05923,-1.65247c18.15982,-5.80562 12.28223,-8.36552 25.53335,1.12371c8.13697,5.82695 22.70957,9.33353 33.02061,16.08547c4.87991,3.19549 8.95769,11.22244 13.71758,14.51311c25.27745,17.47517 48.33854,30.09523 53.66542,31.76101c2.13711,0.6683 60.20524,-39.71328 60.20524,-39.71328l79.67146,38.38768v139.46859z" data-paper-data="{&quot;index&quot;:null}" fill="#456447" stroke="none" stroke-width="0"/><path d="M187.8031,232.98196c-7.75814,-3.29584 -28.33329,-13.02083 -30.66522,-19.81864c-2.20649,-6.43214 11.89302,-16.97899 11.89302,-16.97899l16.07696,-18.45376c0,0 22.79138,2.61387 30.54894,5.90945c3.51466,1.49311 5.50126,7.8012 10.00264,9.88229c4.4293,2.04776 15.15526,3.23984 15.15526,3.23984c0,0 -8.03707,6.16203 -11.05834,12.18663c-2.09955,4.18663 1.00983,7.96997 -0.68734,10.97647c-3.32799,5.89544 -14.11591,22.69588 -14.11591,22.69588c0,0 -5.11105,-5.17052 -11.27694,-7.29052c-5.49147,-1.88811 -11.83788,-0.63442 -15.87305,-2.34866z" data-paper-data="{&quot;index&quot;:null}" fill="url(#color-2)" stroke="none" stroke-width="0"/><path d="M405.96037,165.43053c2.49526,3.60484 2.55166,10.07365 5.51188,15.06948c3.32377,5.60938 9.42152,9.56849 9.42152,9.56849c0,0 -14.27006,13.96422 -19.37015,18.41627c-2.6009,2.27041 -6.93515,-0.00913 -10.61034,2.89413c-5.28865,4.17781 -9.69697,13.29548 -9.69697,13.29548c0,0 -3.33774,-10.26289 -6.23938,-14.18621c-2.94886,-3.98718 -9.52844,-4.65629 -11.70183,-7.79613c-4.7971,-6.93025 -11.96858,-28.72129 -11.96858,-28.72129l14.81898,-19.47839c0,0 16.73753,5.49838 23.48308,6.35773c7.12904,0.9082 11.55432,-2.35035 16.35179,4.58043z" data-paper-data="{&quot;index&quot;:null}" fill="url(#color-3)" stroke="none" stroke-width="0"/><path d="M133.54642,267.47933v-79.9751c0,0 -2.89661,18.04272 55.92459,15.1961c38.33082,-1.855 135.90392,-25.0371 163.99311,-25.0371c23.40365,0 104.35256,-1.5114 134.82478,0.17076c52.41543,2.89349 52.35351,9.67024 52.35351,9.67024v79.9751z" data-paper-data="{&quot;index&quot;:null}" fill="#00ca11" stroke="none" stroke-width="0"/><path d="M146.49511,72.1934c-11.43687,0 -20.70828,-10.61509 -20.70828,-23.70948c0,-13.09438 9.27141,-23.70948 20.70828,-23.70948c11.43687,0 20.70828,10.61509 20.70828,23.70948c0,13.09438 -9.27141,23.70948 -20.70828,23.70948z" fill="#ffffff" stroke="none" stroke-width="0"/><path d="M141.39306,40.38068c-7.95608,0 -14.40576,-7.79336 -14.40576,-17.40696c0,-9.6136 6.44968,-17.40696 14.40576,-17.40696c7.95608,0 14.40576,7.79336 14.40576,17.40696c0,9.6136 -6.44968,17.40696 -14.40576,17.40696z" fill="#ffffff" stroke="none" stroke-width="0"/><path d="M491.93329,57.78764c-16.90667,0 -30.61224,-7.92773 -30.61224,-17.70708c0,-9.77935 13.70556,-17.70708 30.61224,-17.70708c16.90667,0 30.61224,7.92773 30.61224,17.70708c0,9.77935 -13.70556,17.70708 -30.61224,17.70708z" fill="#ffffff" stroke="none" stroke-width="0"/><path d="M483.52993,36.17901c-12.92863,0 -23.40936,-10.48073 -23.40936,-23.40936c0,-12.92863 10.48073,-23.40936 23.40936,-23.40936c12.92863,0 23.40936,10.48073 23.40936,23.40936c0,12.92863 -10.48073,23.40936 -23.40936,23.40936z" fill="#ffffff" stroke="none" stroke-width="0"/><path d="M516.54311,42.18143c-13.92314,0 -25.21008,-12.09314 -25.21008,-27.0108c0,-14.91765 11.28694,-27.0108 25.21008,-27.0108c13.92314,0 25.21008,12.09314 25.21008,27.0108c0,14.91765 -11.28694,27.0108 -25.21008,27.0108z" fill="#ffffff" stroke="none" stroke-width="0"/><path d="M458.92008,43.38191c-8.61909,0 -15.60624,-7.12152 -15.60624,-15.90636c0,-8.78484 6.98715,-15.90636 15.60624,-15.90636c8.61909,0 15.60624,7.12152 15.60624,15.90636c0,8.78484 -6.98715,15.90636 -15.60624,15.90636z" fill="#ffffff" stroke="#000000" stroke-width="0"/><path d="M314.07642,27.87698c-8.61909,0 -15.60624,-7.12152 -15.60624,-15.90636c0,-8.78484 6.98715,-15.90636 15.60624,-15.90636c8.61909,0 15.60624,7.12152 15.60624,15.90636c0,8.78484 -6.98715,15.90636 -15.60624,15.90636z" fill="#ffffff" stroke="#000000" stroke-width="0"/><path d="M333.95437,46.69956c-12.92863,0 -23.40936,-10.48073 -23.40936,-23.40936c0,-12.92863 10.48073,-23.40936 23.40936,-23.40936c12.92863,0 23.40936,10.48073 23.40936,23.40936c0,12.92863 -10.48073,23.40936 -23.40936,23.40936z" fill="#ffffff" stroke="none" stroke-width="0"/><path d="M341.32032,29.61734c-12.92863,0 -23.40936,-10.48073 -23.40936,-23.40936c0,-12.92863 10.48073,-23.40936 23.40936,-23.40936c12.92863,0 23.40936,10.48073 23.40936,23.40936c0,12.92863 -10.48073,23.40936 -23.40936,23.40936z" fill="#ffffff" stroke="none" stroke-width="0"/><path d="M358.15008,47.23575c-12.92863,0 -23.40936,-10.48073 -23.40936,-23.40936c0,-12.92863 10.48073,-23.40936 23.40936,-23.40936c12.92863,0 23.40936,10.48073 23.40936,23.40936c0,12.92863 -10.48073,23.40936 -23.40936,23.40936z" fill="#ffffff" stroke="none" stroke-width="0"/><path d="M374.19118,30.94218c-12.92863,0 -23.40936,-10.48073 -23.40936,-23.40936c0,-12.92863 10.48073,-23.40936 23.40936,-23.40936c12.92863,0 23.40936,10.48073 23.40936,23.40936c0,12.92863 -10.48073,23.40936 -23.40936,23.40936z" fill="#ffffff" stroke="none" stroke-width="0"/><path d="M225.00996,9.91669c-10.53305,0 -19.07178,-8.53873 -19.07178,-19.07178c0,-10.53305 8.53873,-19.07178 19.07178,-19.07178c10.53305,0 19.07178,8.53873 19.07178,19.07178c0,10.53305 -8.53873,19.07178 -19.07178,19.07178z" fill="#ffffff" stroke="none" stroke-width="0"/><path d="M243.81135,0.72099c-12.92863,0 -23.40936,-10.48073 -23.40936,-23.40936c0,-12.92863 10.48073,-23.40936 23.40936,-23.40936c12.92863,0 23.40936,10.48073 23.40936,23.40936c0,12.92863 -10.48073,23.40936 -23.40936,23.40936z" fill="#ffffff" stroke="none" stroke-width="0"/><path d="M201.4923,2.56638c-12.92863,0 -23.40936,-10.48073 -23.40936,-23.40936c0,-12.92863 10.48073,-23.40936 23.40936,-23.40936c12.92863,0 23.40936,10.48073 23.40936,23.40936c0,12.92863 -10.48073,23.40936 -23.40936,23.40936z" fill="#ffffff" stroke="none" stroke-width="0"/><path d="M261.69784,-2.68607c-12.92863,0 -23.40936,-10.48073 -23.40936,-23.40936c0,-12.92863 10.48073,-23.40936 23.40936,-23.40936c12.92863,0 23.40936,10.48073 23.40936,23.40936c0,12.92863 -10.48073,23.40936 -23.40936,23.40936z" fill="#ffffff" stroke="none" stroke-width="0"/><path d="M468.34203,-6.04585c0,19.38241 -16.77183,35.09496 -37.46092,35.09496c-20.6891,0 -37.46092,-15.71255 -37.46092,-35.09496c0,-19.38241 16.77182,-35.09496 37.46091,-35.09496c20.68909,0 37.46091,15.71255 37.46091,35.09496z" fill="url(#color-4)" stroke="none" stroke-width="0"/><path d="M467.82147,-3.4118c0,19.38241 -16.77183,35.09496 -37.46092,35.09496c-20.6891,0 -37.46092,-15.71255 -37.46092,-35.09496c0,-19.38241 16.77182,-35.09496 37.46091,-35.09496c20.68909,0 37.46091,15.71255 37.46091,35.09496z" fill="url(#color-5)" stroke="none" stroke-width="0"/><path d="M468.08957,-2.35506c0,19.38241 -16.77183,35.09496 -37.46092,35.09496c-20.6891,0 -37.46092,-15.71255 -37.46092,-35.09496c0,-19.38241 16.77182,-35.09496 37.46091,-35.09496c20.68909,0 37.46091,15.71255 37.46091,35.09496z" fill="url(#color-6)" stroke="none" stroke-width="0"/><path d="M468.35766,-2.87561c0,19.38241 -16.77183,35.09496 -37.46092,35.09496c-20.6891,0 -37.46092,-15.71255 -37.46092,-35.09496c0,-19.38241 16.77182,-35.09496 37.46091,-35.09496c20.68909,0 37.46091,15.71255 37.46091,35.09496z" fill="url(#color-7)" stroke="none" stroke-width="0"/><path d="M467.04845,-4.97347c0,19.38241 -16.77183,35.09496 -37.46092,35.09496c-20.6891,0 -37.46092,-15.71255 -37.46092,-35.09496c0,-19.38241 16.77182,-35.09496 37.46091,-35.09496c20.68909,0 37.46091,15.71255 37.46091,35.09496z" fill="url(#color-8)" stroke="none" stroke-width="0"/><path d="M467.31654,-2.33942c0,19.38241 -16.77183,35.09496 -37.46092,35.09496c-20.6891,0 -37.46092,-15.71255 -37.46092,-35.09496c0,-19.38241 16.77182,-35.09496 37.46091,-35.09496c20.68909,0 37.46091,15.71255 37.46091,35.09496z" fill="url(#color-9)" stroke="none" stroke-width="0"/><path d="M291.47826,187.08896c0,1.5 -1.5,1.5 -1.5,1.5l-0.3143,-0.077c-2.8659,0.7697 -3.2296,3.1574 -6.7835,3.2316c0,0 -1.5,0 -1.5,-1.5c0,-0.1189 0.0094,-0.2284 0.0267,-0.3292c-0.0539,0.038 -0.1126,0.0728 -0.1766,0.1037c0.0761,0.3722 0.0129,0.8292 -0.4441,1.2862c-1.0606,1.0606 -2.1213,0 -2.1213,0c-2.5161,-2.5161 -4.8255,-5.057 -7.047,-7.838l-2.1882,-1.4384c0,0 -1.2481,-0.8321 -0.416,-2.0801c0.832,-1.2481 2.0801,-0.4161 2.0801,-0.4161l2.5437,1.7162c1.7472,2.1243 3.5071,4.1438 5.3757,6.1141c0.01,-3.4912 0.2567,-5.9495 3.9848,-7.9238l1.4595,-0.1584c0,0 1.5,0 1.5,1.5c0,1.5 -1.5,1.5 -1.5,1.5l-0.1179,-0.1584c-3.0328,1.3807 -2.3254,3.6155 -2.3254,6.5449c0,0 0,0.1527 -0.0487,0.3606c0.4209,-0.2833 0.9147,-0.2833 0.9147,-0.2833c0.5795,0.0189 1.6,0.2337 2.0939,-0.3493c0.4015,-0.4739 0.3646,-1.2838 0.8665,-1.6498c0.8268,-0.603 1.9163,-0.719 2.8744,-1.0785l1.263,-0.077c0,0 1.5,0 1.5,1.5z" fill="#00ca11" stroke="none" stroke-width="0.5"/><path d="M259.49285,186.81696c1.0607,1.0607 0,2.1213 0,2.1213l-0.5076,0.3988c-1.1862,2.3724 -2.9258,4.1995 -3.7684,6.6187c0.1106,0.1059 0.2215,0.2141 0.3328,0.325c0,0 1.0606,1.0607 0,2.1213c-1.0607,1.0607 -2.1213,0 -2.1213,0c-2.6561,-2.6668 -5.016,-3.6111 -8.2854,-5.2396l-0.1178,0.1584c0,0 -1.5,0 -1.5,-1.5c0,-1.5 1.5,-1.5 1.5,-1.5l1.4595,0.1584c2.401,1.2055 4.3944,2.1247 6.3324,3.4945c0.9956,-2.1146 2.3805,-3.7695 3.4849,-5.9783l1.0696,-1.1785c0,0 1.0607,-1.0607 2.1213,0z" fill="#00ca11" stroke="none" stroke-width="0.5"/><path d="M426.68686,172.62126c1.0607,1.0606 0,2.1213 0,2.1213l-0.6012,0.56c-0.8171,1.2229 -1.617,2.4655 -2.2724,3.7821c0,0 -0.2444,0.4888 -0.7332,0.7288c-0.3387,0.889 -1.3971,0.889 -1.3971,0.889c-4.6109,-0.0963 -5.6177,-3.3693 -6.9064,-7.2352l-0.7445,-1.4805c0,0 -0.6708,-1.3416 0.6709,-2.0125c1.3416,-0.6708 2.0124,0.6709 2.0124,0.6709l0.8329,1.6741c0.7664,2.2994 1.1248,5.105 3.6109,5.3658c0.7097,-1.4042 1.5589,-2.7366 2.4303,-4.0466l0.9761,-1.0172c0,0 1.0606,-1.0607 2.1213,0z" fill="#00ca11" stroke="none" stroke-width="0.5"/><path d="M382.25046,160.87926c-1.2133,0 -1.4452,-0.8235 -1.4896,-1.1383c-0.2447,-0.1027 -0.4894,-0.2054 -0.7341,-0.3081c-3.207,-1.2969 -3.9887,0.1702 -6.8955,0.7509c-0.3723,0.0744 -0.7743,-0.2656 -1.1333,-0.1543c-0.5879,0.1823 -0.0773,1.0505 -0.0773,1.5764c0,1.6383 0.3251,2.8958 -1.228,4.1991c-1.5088,1.2661 -5.6383,0.1652 -5.91,2.0463c-0.1445,1.0006 -0.7574,2.1343 -0.1839,3.0199c0.2319,0.358 1.0259,0.1394 1.362,0.4335c0.889,0.7775 1.5712,2.8777 1.9397,3.801c0,0 0.4743,1.1941 -0.9487,1.5921c-1.423,0.3981 -1.8974,-0.796 -1.8974,-0.796c-0.3745,-0.9479 -0.3537,-2.1279 -1.2149,-2.817c-0.5025,-0.4021 -1.493,-0.3645 -1.7926,-0.8901c-0.1789,-0.3138 -0.3332,-4.4112 -0.1839,-4.9218c0.4842,-1.6558 1.523,-2.5023 3.4812,-2.9212c0.6907,-0.1478 2.4425,0.3317 3.2272,-0.3268c1.1764,-0.9872 -0.0843,-2.8576 0.3894,-4.0317c0.3103,-0.7691 0.6947,-1.6085 1.46,-2.1052c0.5351,-0.3473 1.3666,-0.0109 2.0212,-0.1543c1.1376,-0.2492 1.9945,-1.1639 3.1546,-1.3236c3.2209,-0.4433 3.2755,-0.1472 5.7229,0.751c0.5339,0.2239 1.0679,0.4479 1.6018,0.6718l0.8292,1.7876c0,0 0,1.2588 -1.5,1.2588z" fill="#62b300" stroke="none" stroke-width="0.5"/><path d="M390.92556,177.54786c-1.5,0 -1.5,-1.1981 -1.5,-1.1981v-0.63c0.0478,-2.2906 -1.844,-4.928 -0.7345,-7.2484c0.3545,-0.7413 0.7687,-1.6154 1.6491,-1.9831c1.004,-0.4194 2.2799,0.0344 3.3954,-0.1239c0.1977,-0.0281 0.3879,-0.0737 0.5728,-0.1317c-1.2535,-2.6802 -0.0226,-6.0012 3.0443,-7.3332c0,0 1.3416,-0.5358 2.0124,0.5358c0.6709,1.0717 -0.6708,1.6075 -0.6708,1.6075c-1.6522,0.5642 -2.2124,2.5311 -1.6985,4.0472c0.4515,-0.0683 1.1526,-0.039 1.5807,0.6448c0.2932,0.4684 0.2019,0.8344 0.0063,1.098c0.8071,0.4123 1.7574,0.7095 2.294,1.3277c0.3409,0.3928 -0.1557,1.0029 0.1098,1.4313c1.3443,2.1686 5.1006,3.5093 2.0408,6.3453c-0.2977,0.2759 -0.7212,0.4273 -1.1552,0.5683c-0.0592,0.3243 -0.3214,1.0425 -1.4828,1.0425c-1.5,0 -1.5,-1.1982 -1.5,-1.1982l0.8292,-1.7016c3.2306,-1.1032 -0.5191,-2.5808 -1.5036,-4.1393c-0.2053,-0.325 0.35,-0.7792 0.1098,-1.0885c-0.2165,-0.2788 -0.8475,-0.0934 -1.1784,-0.2879c-0.4796,-0.2818 -0.9276,-0.6042 -1.3302,-0.9579c-0.6972,0.2743 -1.3158,0.512 -1.3913,0.5221c-0.8579,0.1143 -1.749,-0.2482 -2.6047,-0.1239c-0.6096,0.0885 -0.1864,0.9827 -0.1832,1.4776c0.014,2.1573 0.7543,3.512 0.7886,5.6695v0.63c0,0 0,1.1981 -1.5,1.1981z" fill="#62b300" stroke="none" stroke-width="0.5"/><path d="M158.79026,196.03616c-1.0607,-1.0607 0,-2.1213 0,-2.1213l2.4901,-2.0094c4.7634,2.6334 8.6594,5.9178 8.7457,11.7452c0,0 0,1.5 -1.5,1.5c-1.5,0 -1.5,-1.5 -1.5,-1.5c0.0784,-3.953 -2.8048,-6.1555 -5.4501,-8.7598l-0.6644,1.1453c0,0 -1.0607,1.0606 -2.1213,0z" fill="#00ca11" stroke="none" stroke-width="0.5"/><path d="M177.91256,194.97546c0,1.5 -1.5,1.5 -1.5,1.5l0.0434,-0.2519c-2.8204,1.7348 -2.507,2.5718 -2.4866,5.8498c0,0 0,1.5 -1.5,1.5c-1.5,0 -1.5,-1.5 -1.5,-1.5c0.0229,-4.302 0.2435,-5.825 3.8225,-8.346l1.6207,-0.2519c0,0 1.5,0 1.5,1.5z" fill="#00ca11" stroke="none" stroke-width="0.5"/><path d="M184.14476,201.59896c0.4744,1.4231 -0.9487,1.8974 -0.9487,1.8974l-2.2851,0.7591c-1.569,0.7279 -3.2462,1.2159 -4.9232,1.639c0,0 -1.4553,0.3638 -1.8191,-1.0914c-0.3638,-1.4552 1.0914,-1.819 1.0914,-1.819c1.5489,-0.3833 3.0961,-0.8378 4.5406,-1.5156l2.4468,-0.8182c0,0 1.423,-0.4743 1.8973,0.9487z" fill="#00ca11" stroke="none" stroke-width="0.5"/><path d="M358.55876,168.44336c1.2952,0.7565 0.5388,2.0518 0.5388,2.0518l-0.0866,0.1481c-1.3048,2.1568 -1.4741,4.0015 -1.7954,6.2224c0.2224,0.0734 0.4349,0.1701 0.6327,0.3018c0.9487,0.6318 1.3272,1.8535 1.9907,2.7802c0,0 0.8321,1.2481 -0.416,2.0802c-1.2481,0.832 -2.0801,-0.4161 -2.0801,-0.4161c-0.4242,-0.7112 -0.9855,-1.2599 -1.6386,-1.6998c-0.165,0.0207 -0.3515,0.0148 -0.5621,-0.0273c-0.6291,-0.1258 -0.9353,-0.4668 -1.0798,-0.8159c-1.688,-0.6703 -3.6523,-1.0124 -5.4096,-1.5979l-1.375,-1.151c0,0 -1.0607,-1.0607 0,-2.1213c1.0607,-1.0607 2.1213,0 2.1213,0l0.2024,0.4262c1.5767,0.5259 3.1007,1.208 4.688,1.6992c0.4245,-2.5708 0.6638,-4.6092 2.131,-7.1937l0.0865,-0.1481c0,0 0.7565,-1.2953 2.0517,-0.5388z" fill="#00ca11" stroke="none" stroke-width="0.5"/><path d="M207.01566,240.24286c0.4744,1.423 -0.9487,1.8974 -0.9487,1.8974l-2.2662,0.7514c-1.8184,0.7728 -1.4803,1.3183 -1.44,3.3461c0,0 0,1.5 -1.5,1.5c-1.5,0 -1.5,-1.5 -1.5,-1.5c0.0002,-0.0151 0.0004,-0.0302 0.0007,-0.0452c-0.7663,0.0503 -1.278,-0.6321 -1.278,-0.6321c-1.6974,-2.2631 -4.346,-4.7497 -5.1092,-7.5105l-0.7887,0.224c0,0 -1.5,0 -1.5,-1.5c0,-1.5 1.5,-1.5 1.5,-1.5l2.3659,0.224c1.3723,2.2204 2.9305,4.297 4.5033,6.3726c0.9128,-3.1926 2.0364,-5.842 3.6266,-8.9371l2.9113,-0.8141c0,0 1.5,0 1.5,1.5c0,1.5 -1.5,1.5 -1.5,1.5l-0.2433,-0.814c-1.0512,2.0424 -1.8753,3.8476 -2.5689,5.7719l2.3379,-0.7831c0,0 1.423,-0.4743 1.8973,0.9487z" fill="#00bb10" stroke="none" stroke-width="0.5"/><path d="M379.80716,213.11446c0,1.5 -1.5,1.5 -1.5,1.5l-2.0213,-0.0401c-1.0139,0.4945 -1.6448,1.5756 -2.2512,2.5267c0,0 -0.8086,1.213 -2.0274,0.4501c-0.9662,0.671 -1.8586,-0.2215 -1.8586,-0.2215c-3.1891,-3.2189 -5.1843,-7.5577 -7.6382,-11.391c-0.1911,-0.0077 -1.4763,-0.1109 -1.4763,-1.4994c0,-1.5 1.5,-1.5 1.5,-1.5l2.0367,0.668c1.738,2.6078 3.1994,5.607 4.9958,8.2661c1.055,-2.6769 2.3975,-5.1967 3.3808,-7.9279l0.0056,-0.0155c0,0 0.5093,-1.4109 1.9202,-0.9015c1.4109,0.5093 0.9015,1.9202 0.9015,1.9202l-0.0056,0.0155c-1.1681,3.2273 -2.8476,6.1625 -3.9255,9.4133c0,0 -0.0372,0.1117 -0.1222,0.2622c0.0733,0.0795 0.1472,0.1583 0.2218,0.2363c0.9861,-1.3061 2.2075,-2.4911 3.6533,-3.2214l2.7106,-0.0401c0,0 1.5,0 1.5,1.5z" fill="#00bb10" stroke="none" stroke-width="0.5"/><path d="M299.36476,199.70736c0,1.5 -1.5,1.5 -1.5,1.5l-1.6581,-0.1775c-0.3457,0.6252 -0.6914,1.2504 -1.0371,1.8755c0,0 -0.832,1.2481 -2.0801,0.4161c-0.1399,-0.0933 -0.2536,-0.1918 -0.3453,-0.2931c-0.2145,0.2955 -0.5768,0.545 -1.1886,0.545c-1.5,0 -1.5,-1.5 -1.5,-1.5c0.0023,-0.0836 0.0064,-0.167 0.0123,-0.2502c-2.0223,-1.0448 -3.2734,-2.6633 -5.2041,-3.82l-1.1947,0.0496c0,0 -1.5,0 -1.5,-1.5c0,-1.5 1.5,-1.5 1.5,-1.5l1.96,0.0496c2.0115,1.1054 3.3685,2.6945 5.2747,3.7718c0.2734,-0.5931 0.5889,-1.1688 0.9091,-1.7224l0.8224,-1.3707c0,0 0.7718,-1.2863 2.058,-0.5145c1.2862,0.7717 0.5145,2.0579 0.5145,2.0579l-0.8225,1.3708c-0.2456,0.3906 -0.5053,0.7987 -0.7296,1.2211c0.3784,-0.5105 0.7569,-1.021 1.1354,-1.5315l3.0737,-0.1775c0,0 1.5,0 1.5,1.5z" fill="#00bb10" stroke="none" stroke-width="0.5"/><path d="M464.08956,232.28386c0.5469,1.3967 -0.8499,1.9436 -0.8499,1.9436l-1.5781,0.6057c-2.5663,1.8139 -5.0365,2.2365 -7.6005,3.9775c0,0 -0.0129,0.0086 -0.0369,0.0228c0.0763,0.8723 -0.1041,1.7901 -0.0838,2.6724c0,0 0,1.5 -1.5,1.5c-1.5,0 -1.5,-1.5 -1.5,-1.5c0.151,-4.7523 -3.7785,-6.6181 -7.2487,-9.2245l-2.2572,-1.3082c0,0 -1.297,-0.7535 -0.5436,-2.0505c0.7535,-1.297 2.0505,-0.5436 2.0505,-0.5436l2.4066,1.401c1.2475,0.9343 2.7707,1.9076 4.2002,3.011c0.2275,-1.7839 0.6901,-3.4314 1.5233,-5.3056l2.1576,-0.8867c0,0 1.5,0 1.5,1.5c0,1.1455 -0.8747,1.4162 -1.2882,1.4802c-0.7825,1.9735 -1.0464,3.6575 -1.0753,5.848c0.1639,0.1996 0.3198,0.4035 0.4664,0.6121c2.5322,-1.5473 4.9366,-2.0652 7.4001,-3.8435l1.9139,-0.7616c0,0 1.3967,-0.5469 1.9436,0.8499z" fill="#00bb10" stroke="none" stroke-width="0.5"/></g></g></svg>