<svg version="1.1" xmlns="http://www.w3.org/2000/svg" xmlns:xlink="http://www.w3.org/1999/xlink" width="68.92023" height="37.32154" viewBox="0,0,68.92023,37.32154"><defs><radialGradient cx="232.35927" cy="179.70725" r="31.60098" gradientUnits="userSpaceOnUse" id="color-1"><stop offset="0" stop-color="#9eff5d"/><stop offset="1" stop-color="#9eff5d" stop-opacity="0"/></radialGradient><linearGradient x1="248.04974" y1="172.05163" x2="250.98594" y2="172.05163" gradientUnits="userSpaceOnUse" id="color-2"><stop offset="0" stop-color="#13a900" stop-opacity="0"/><stop offset="1" stop-color="#13a900"/></linearGradient><linearGradient x1="248.06254" y1="173.44643" x2="251.46854" y2="173.44643" gradientUnits="userSpaceOnUse" id="color-3"><stop offset="0" stop-color="#13a900" stop-opacity="0"/><stop offset="1" stop-color="#13a900"/></linearGradient><linearGradient x1="248.46874" y1="174.87153" x2="251.40494" y2="174.87153" gradientUnits="userSpaceOnUse" id="color-4"><stop offset="0" stop-color="#13a900" stop-opacity="0"/><stop offset="1" stop-color="#13a900"/></linearGradient><linearGradient x1="247.70054" y1="185.83963" x2="250.63674" y2="185.83963" gradientUnits="userSpaceOnUse" id="color-5"><stop offset="0" stop-color="#13a900" stop-opacity="0"/><stop offset="1" stop-color="#13a900"/></linearGradient><linearGradient x1="247.71334" y1="187.23443" x2="251.11934" y2="187.23443" gradientUnits="userSpaceOnUse" id="color-6"><stop offset="0" stop-color="#13a900" stop-opacity="0"/><stop offset="1" stop-color="#13a900"/></linearGradient><linearGradient x1="248.11954" y1="188.65953" x2="251.05574" y2="188.65953" gradientUnits="userSpaceOnUse" id="color-7"><stop offset="0" stop-color="#13a900" stop-opacity="0"/><stop offset="1" stop-color="#13a900"/></linearGradient><radialGradient cx="245.42165" cy="176.60436" r="1.87961" gradientUnits="userSpaceOnUse" id="color-8"><stop offset="0" stop-color="#d7ffbc"/><stop offset="1" stop-color="#26ff00"/></radialGradient><radialGradient cx="244.93271" cy="184.20447" r="1.87961" gradientUnits="userSpaceOnUse" id="color-9"><stop offset="0" stop-color="#d7ffbc"/><stop offset="1" stop-color="#26ff00"/></radialGradient><radialGradient cx="238.71327" cy="179.81073" r="20.64482" gradientUnits="userSpaceOnUse" id="color-10"><stop offset="0" stop-color="#d7ffbc"/><stop offset="1" stop-color="#7af12b"/></radialGradient></defs><g transform="translate(-185.40924,-161.09003)"><g data-paper-data="{&quot;isPaintingLayer&quot;:true}" fill-rule="nonzero" stroke-linejoin="miter" stroke-miterlimit="10" stroke-dasharray="" stroke-dashoffset="0" style="mix-blend-mode: normal"><path d="M254.32945,179.2424c0,8.7932 -4.51746,16.38635 -21.9702,16.38635c-0.71451,0 -7.82064,2.78282 -7.82064,2.78282c0,0 0.83955,-6.56331 -0.0113,-7.66996c-0.74034,-0.96293 -4.80856,1.40104 -4.80856,1.40104l-22.59471,-3.09418c0,0 11.45086,-2.05277 8.25469,-3.36303c-9.12823,-3.74207 -19.96949,-5.51331 -19.96949,-5.51331c0,0 14.95999,-1.10838 19.09587,-3.30322c3.28286,-1.74216 -6.35246,-5.32363 -6.35246,-5.32363l25.58044,-5.54544c0,0 1.18888,3.48801 2.96987,2.96495c1.97805,-0.58093 3.5316,-7.87476 3.5316,-7.87476c0,0 5.97184,5.03383 7.62551,5.24406c12.63903,1.60678 16.4694,5.13249 16.4694,12.9083z" fill="url(#color-1)" stroke="#f3f3f3" stroke-width="0" stroke-linecap="butt"/><path d="M249.73174,176.64203c0,0 2.5842,0.7352 2.3945,1.6795c-0.1897,0.9442 -2.2872,2.6672 -2.2872,2.6672c0,0 1.8842,0.8789 2.0255,2.156c0.1412,1.2771 -2.6606,1.6902 -2.6606,1.6902" fill="none" stroke="#009413" stroke-width="0.5" stroke-linecap="round"/><path d="M248.74264,182.12513c-0.4677,0 -0.3752,-0.5047 -0.3752,-0.9334c0,-0.4287 0.0123,-1.3001 0.48,-1.3001c0.4676,0 1.1473,1.0905 1.1473,1.0905c0,0 -0.7845,1.143 -1.2521,1.143z" fill="#00ff15" stroke="#009413" stroke-width="0.5" stroke-linecap="butt"/><path d="M237.43534,170.80433l0.9915,-3.2719l1.4872,1.4872" fill="none" stroke="#009413" stroke-width="0.5" stroke-linecap="round"/><path d="M237.53454,191.32773l-1.983,1.4872l0.3966,-4.065" fill="none" stroke="#009413" stroke-width="0.5" stroke-linecap="round"/><path d="M238.32774,191.92263l-1.4873,-2.5778" fill="none" stroke="#009413" stroke-width="0.5" stroke-linecap="round"/><path d="M239.02174,169.81283l1.6855,-1.1898" fill="none" stroke="#009413" stroke-width="0.5" stroke-linecap="round"/><path d="M250.98594,172.60373l-2.9362,-1.1043" fill="none" stroke="url(#color-2)" stroke-width="0.5" stroke-linecap="round"/><path d="M251.46854,174.05993l-3.406,-1.2269" fill="none" stroke="url(#color-3)" stroke-width="0.5" stroke-linecap="round"/><path d="M251.40494,175.30093l-2.9362,-0.8589" fill="none" stroke="url(#color-4)" stroke-width="0.5" stroke-linecap="round"/><path d="M250.63674,186.39173l-2.9362,-1.1043" fill="none" stroke="url(#color-5)" stroke-width="0.5" stroke-linecap="round"/><path d="M247.71334,186.62103l3.406,1.2269" fill="none" stroke="url(#color-6)" stroke-width="0.5" stroke-linecap="round"/><path d="M251.05574,189.08893l-2.9362,-0.8589" fill="none" stroke="url(#color-7)" stroke-width="0.5" stroke-linecap="round"/><path d="M247.15652,176.16267c-0.0548,0.36155 -0.07427,1.0597 -0.63832,1.36554c-0.51102,0.2771 -1.54608,0.1844 -2.03742,0.10992c-0.53197,-0.08064 -1.76996,-0.92244 -1.77977,-1.97196c-0.00981,-1.04952 0.96263,-1.58113 1.74757,-1.47192c0.48984,0.06815 2.37129,0.36176 2.55083,0.38898c1.03368,0.15669 0.26157,0.89032 0.15711,1.57944z" data-paper-data="{&quot;index&quot;:null}" fill="#ffffff" stroke="#000000" stroke-width="0" stroke-linecap="butt"/><path d="M245.29724,177.42515c-1.02636,-0.15558 -1.80268,-0.64918 -1.73397,-1.10249c0.06871,-0.45331 0.95644,-0.69467 1.9828,-0.53909c1.02636,0.15558 1.80268,0.64918 1.73397,1.10249c-0.06871,0.45331 -0.95644,0.69467 -1.9828,0.5391z" fill="url(#color-8)" stroke="#000000" stroke-width="0" stroke-linecap="butt"/><path d="M247.14604,177.95333c0,0 -0.104,-1.1345 0.0207,-1.6417c0.1149,-0.4677 0.9411,-1.6337 0.9411,-1.6337" data-paper-data="{&quot;index&quot;:null}" fill="none" stroke="#009413" stroke-width="0.5" stroke-linecap="round"/><path d="M245.47025,176.80682c-0.72449,-0.10982 -1.29756,-0.29278 -1.28,-0.40864c0.01757,-0.11587 0.61912,-0.12078 1.34361,-0.01095c0.72448,0.10982 1.29756,0.29278 1.28,0.40864c-0.01757,0.11587 -0.61912,0.12077 -1.3436,0.01095z" fill="#000000" stroke="#000000" stroke-width="0" stroke-linecap="butt"/><path d="M244.29157,176.31982c-0.19911,-0.03018 -0.33703,-0.20961 -0.30806,-0.40075c0.02898,-0.19115 0.21387,-0.32163 0.41298,-0.29145c0.19911,0.03018 0.33703,0.20961 0.30806,0.40075c-0.02897,0.19114 -0.21387,0.32164 -0.41298,0.29146z" fill="#e3ffe7" stroke="none" stroke-width="0" stroke-linecap="butt"/><path d="M244.84791,176.44973c-0.10354,-0.0157 -0.17573,-0.1059 -0.16124,-0.20147c0.01449,-0.09558 0.11017,-0.16033 0.21371,-0.14463c0.10354,0.0157 0.17573,0.10589 0.16124,0.20146c-0.01449,0.09558 -0.11016,0.16033 -0.2137,0.14464z" fill="#e3ffe7" stroke="none" stroke-width="0" stroke-linecap="butt"/><path d="M246.69441,184.93473c0.00795,0.69694 0.67093,1.53051 -0.37449,1.54242c-0.18158,0.00207 -2.08557,0.03209 -2.58012,0.03169c-0.7925,-0.00063 -1.68188,-0.66188 -1.52671,-1.69991c0.15518,-1.03803 1.49788,-1.70013 2.03589,-1.70626c0.49693,-0.00567 1.53484,0.04598 2.00253,0.39123c0.51621,0.38106 0.43873,1.07517 0.4429,1.44083z" data-paper-data="{&quot;index&quot;:null}" fill="#ffffff" stroke="#000000" stroke-width="0" stroke-linecap="butt"/><path d="M246.8122,184.18305c0.00522,0.45846 -0.83202,0.8397 -1.87003,0.85153c-1.03801,0.01183 -1.88373,-0.35023 -1.88895,-0.80869c-0.00522,-0.45846 0.83202,-0.83971 1.87003,-0.85154c1.03801,-0.01183 1.88373,0.35024 1.88895,0.8087z" data-paper-data="{&quot;index&quot;:null}" fill="url(#color-9)" stroke="#000000" stroke-width="0" stroke-linecap="butt"/><path d="M247.29614,186.49033c0,0 -0.6566,-1.2691 -0.7056,-1.7482c-0.0532,-0.5196 0.207,-1.6288 0.207,-1.6288" data-paper-data="{&quot;index&quot;:null}" fill="none" stroke="#009413" stroke-width="0.5" stroke-linecap="round"/><path d="M246.33801,184.20775c0.00133,0.11718 -0.59157,0.21895 -1.32428,0.2273c-0.73271,0.00835 -1.32778,-0.07988 -1.32912,-0.19706c-0.00133,-0.11718 0.59156,-0.21895 1.32429,-0.2273c0.73271,-0.00835 1.32778,0.07988 1.32912,0.19706z" data-paper-data="{&quot;index&quot;:null}" fill="#000000" stroke="#000000" stroke-width="0" stroke-linecap="butt"/><path d="M244.1427,184.67552c0.0022,0.19331 -0.15925,0.35189 -0.36063,0.35419c-0.20137,0.00229 -0.3664,-0.15256 -0.36861,-0.34588c-0.0022,-0.19331 0.15925,-0.3519 0.36063,-0.35419c0.20137,-0.00229 0.3664,0.15257 0.3686,0.34588z" data-paper-data="{&quot;index&quot;:null}" fill="#e3ffe7" stroke="none" stroke-width="0" stroke-linecap="butt"/><path d="M244.53466,184.45095c0.0011,0.09666 -0.08289,0.17598 -0.1876,0.17717c-0.10472,0.0012 -0.1905,-0.07619 -0.1916,-0.17285c-0.0011,-0.09666 0.0829,-0.17599 0.18761,-0.17718c0.10472,-0.0012 0.19049,0.0762 0.19159,0.17286z" data-paper-data="{&quot;index&quot;:null}" fill="#e3ffe7" stroke="none" stroke-width="0" stroke-linecap="butt"/><path d="M232.28134,173.24893l-9.7164,0.8924" fill="none" stroke="#2bff5a" stroke-width="0.5" stroke-linecap="round"/><path d="M232.47964,185.34493l-6.1471,-0.0992" fill="none" stroke="#2bff5a" stroke-width="0.5" stroke-linecap="round"/><path d="M235.35494,181.97393l-6.8412,-0.2975" fill="none" stroke="#2bff5a" stroke-width="0.5" stroke-linecap="round"/><path d="M223.57574,178.20353l7.5352,-1.0906" fill="none" stroke="#2bff5a" stroke-width="0.5" stroke-linecap="round"/><path d="M222.66404,180.88333l-2.6769,-0.0992" fill="none" stroke="#2bff5a" stroke-width="0.5" stroke-linecap="round"/><path d="M253.06634,179.41748c0,7.43833 -2.95124,13.86152 -14.35306,13.86152c-0.46678,0 -5.1092,2.35404 -5.1092,2.35404c0,0 0.54848,-5.55203 -0.00738,-6.48817c-0.48366,-0.81456 -3.14142,1.18517 -3.14142,1.18517l-14.76106,-2.61742c0,0 7.48081,-1.73648 5.39276,-2.84485c-5.96344,-3.16549 -13.046,-4.66381 -13.046,-4.66381c0,0 9.77333,-0.93761 12.47528,-2.79426c2.14469,-1.47373 -4.15004,-4.50336 -4.15004,-4.50336l16.71162,-4.69099c0,0 0.77668,2.95057 1.9402,2.50811c1.29225,-0.49142 2.30718,-6.66141 2.30718,-6.66141c0,0 3.90138,4.25823 4.98172,4.43606c8.25703,1.35921 10.7594,4.34167 10.7594,10.91938z" fill="url(#color-10)" stroke="#f3f3f3" stroke-width="0" stroke-linecap="butt"/></g></g></svg>