<svg version="1.1" xmlns="http://www.w3.org/2000/svg" xmlns:xlink="http://www.w3.org/1999/xlink" width="582.51393" height="456.80819" viewBox="0,0,582.51393,456.80819"><defs><linearGradient x1="113.36713" y1="222.08452" x2="113.36713" y2="345.83573" gradientUnits="userSpaceOnUse" id="color-1"><stop offset="0" stop-color="#000000" stop-opacity="0"/><stop offset="1" stop-color="#000000"/></linearGradient><radialGradient cx="207.70401" cy="220.92821" r="44.93664" gradientUnits="userSpaceOnUse" id="color-2"><stop offset="0" stop-color="#696969"/><stop offset="1" stop-color="#6a6a6a"/></radialGradient><radialGradient cx="201.75735" cy="230.62555" r="45.70525" gradientUnits="userSpaceOnUse" id="color-3"><stop offset="0" stop-color="#989898"/><stop offset="1" stop-color="#868686"/></radialGradient><radialGradient cx="36.40418" cy="273.87063" r="36.70346" gradientUnits="userSpaceOnUse" id="color-4"><stop offset="0" stop-color="#a9a9a9"/><stop offset="1" stop-color="#6a6a6a"/></radialGradient><radialGradient cx="53.97364" cy="304.14156" r="16.14952" gradientUnits="userSpaceOnUse" id="color-5"><stop offset="0" stop-color="#a9a9a9"/><stop offset="1" stop-color="#6a6a6a"/></radialGradient><radialGradient cx="62.81766" cy="360.12856" r="36.70346" gradientUnits="userSpaceOnUse" id="color-6"><stop offset="0" stop-color="#a9a9a9"/><stop offset="1" stop-color="#6a6a6a"/></radialGradient><radialGradient cx="165.80119" cy="350.95269" r="35.60236" gradientUnits="userSpaceOnUse" id="color-7"><stop offset="0" stop-color="#a9a9a9"/><stop offset="1" stop-color="#6a6a6a"/></radialGradient><radialGradient cx="156.09528" cy="313.7021" r="18.71877" gradientUnits="userSpaceOnUse" id="color-8"><stop offset="0" stop-color="#a9a9a9"/><stop offset="1" stop-color="#6a6a6a"/></radialGradient><radialGradient cx="175.85475" cy="314.09307" r="17.61766" gradientUnits="userSpaceOnUse" id="color-9"><stop offset="0" stop-color="#a9a9a9"/><stop offset="1" stop-color="#6a6a6a"/></radialGradient><radialGradient cx="204.54387" cy="343.43191" r="18.35173" gradientUnits="userSpaceOnUse" id="color-10"><stop offset="0" stop-color="#a9a9a9"/><stop offset="1" stop-color="#6a6a6a"/></radialGradient><radialGradient cx="74.77661" cy="350.58566" r="23.49022" gradientUnits="userSpaceOnUse" id="color-11"><stop offset="0" stop-color="#a9a9a9"/><stop offset="1" stop-color="#6a6a6a"/></radialGradient><radialGradient cx="48.71715" cy="357.55932" r="19.45284" gradientUnits="userSpaceOnUse" id="color-12"><stop offset="0" stop-color="#a9a9a9"/><stop offset="1" stop-color="#6a6a6a"/></radialGradient><radialGradient cx="78.05358" cy="323.55991" r="16.14952" gradientUnits="userSpaceOnUse" id="color-13"><stop offset="0" stop-color="#a9a9a9"/><stop offset="1" stop-color="#6a6a6a"/></radialGradient><radialGradient cx="156.99237" cy="321.22289" r="19.0858" gradientUnits="userSpaceOnUse" id="color-14"><stop offset="0" stop-color="#a9a9a9"/><stop offset="1" stop-color="#6a6a6a"/></radialGradient><radialGradient cx="157.72643" cy="349.85159" r="22.02208" gradientUnits="userSpaceOnUse" id="color-15"><stop offset="0" stop-color="#a9a9a9"/><stop offset="1" stop-color="#6a6a6a"/></radialGradient><radialGradient cx="178.64741" cy="364.90001" r="23.12319" gradientUnits="userSpaceOnUse" id="color-16"><stop offset="0" stop-color="#a9a9a9"/><stop offset="1" stop-color="#6a6a6a"/></radialGradient><radialGradient cx="210.02659" cy="350.43408" r="39.63974" gradientUnits="userSpaceOnUse" id="color-17"><stop offset="0" stop-color="#a9a9a9"/><stop offset="1" stop-color="#6a6a6a"/></radialGradient><radialGradient cx="54.25744" cy="345.71448" r="18.71877" gradientUnits="userSpaceOnUse" id="color-18"><stop offset="0" stop-color="#a9a9a9"/><stop offset="1" stop-color="#6a6a6a"/></radialGradient><radialGradient cx="33.70349" cy="307.17584" r="17.61766" gradientUnits="userSpaceOnUse" id="color-19"><stop offset="0" stop-color="#a9a9a9"/><stop offset="1" stop-color="#6a6a6a"/></radialGradient><radialGradient cx="5.80886" cy="375.44429" r="18.35173" gradientUnits="userSpaceOnUse" id="color-20"><stop offset="0" stop-color="#a9a9a9"/><stop offset="1" stop-color="#6a6a6a"/></radialGradient><radialGradient cx="24.1606" cy="341.6771" r="39.63974" gradientUnits="userSpaceOnUse" id="color-21"><stop offset="0" stop-color="#a9a9a9"/><stop offset="1" stop-color="#6a6a6a"/></radialGradient><radialGradient cx="67.01361" cy="321.94842" r="16.14952" gradientUnits="userSpaceOnUse" id="color-22"><stop offset="0" stop-color="#a9a9a9"/><stop offset="1" stop-color="#6a6a6a"/></radialGradient><radialGradient cx="7.66058" cy="298.34708" r="16.14952" gradientUnits="userSpaceOnUse" id="color-23"><stop offset="0" stop-color="#a9a9a9"/><stop offset="1" stop-color="#6a6a6a"/></radialGradient><radialGradient cx="250.36666" cy="383.1771" r="39.63974" gradientUnits="userSpaceOnUse" id="color-24"><stop offset="0" stop-color="#a9a9a9"/><stop offset="1" stop-color="#6a6a6a"/></radialGradient><radialGradient cx="-4.10022" cy="317.82439" r="16.14952" gradientUnits="userSpaceOnUse" id="color-25"><stop offset="0" stop-color="#a9a9a9"/><stop offset="1" stop-color="#6a6a6a"/></radialGradient><radialGradient cx="21.83733" cy="264.52206" r="36.70346" gradientUnits="userSpaceOnUse" id="color-26"><stop offset="0" stop-color="#a9a9a9"/><stop offset="1" stop-color="#6a6a6a"/></radialGradient><radialGradient cx="16.04699" cy="271.09209" r="23.49022" gradientUnits="userSpaceOnUse" id="color-27"><stop offset="0" stop-color="#a9a9a9"/><stop offset="1" stop-color="#6a6a6a"/></radialGradient><radialGradient cx="38.80665" cy="285.57399" r="19.45284" gradientUnits="userSpaceOnUse" id="color-28"><stop offset="0" stop-color="#a9a9a9"/><stop offset="1" stop-color="#6a6a6a"/></radialGradient><radialGradient cx="-9.82994" cy="280.8952" r="16.14952" gradientUnits="userSpaceOnUse" id="color-29"><stop offset="0" stop-color="#a9a9a9"/><stop offset="1" stop-color="#6a6a6a"/></radialGradient><radialGradient cx="26.33417" cy="289.50237" r="18.71877" gradientUnits="userSpaceOnUse" id="color-30"><stop offset="0" stop-color="#a9a9a9"/><stop offset="1" stop-color="#6a6a6a"/></radialGradient><radialGradient cx="11.84243" cy="330.70531" r="17.61766" gradientUnits="userSpaceOnUse" id="color-31"><stop offset="0" stop-color="#a9a9a9"/><stop offset="1" stop-color="#6a6a6a"/></radialGradient><radialGradient cx="79.84286" cy="309.52319" r="18.35173" gradientUnits="userSpaceOnUse" id="color-32"><stop offset="0" stop-color="#a9a9a9"/><stop offset="1" stop-color="#6a6a6a"/></radialGradient><radialGradient cx="59.10214" cy="313.73842" r="40.84488" gradientUnits="userSpaceOnUse" id="color-33"><stop offset="0" stop-color="#a9a9a9"/><stop offset="1" stop-color="#6a6a6a"/></radialGradient><radialGradient cx="0.19985" cy="296.17644" r="16.14952" gradientUnits="userSpaceOnUse" id="color-34"><stop offset="0" stop-color="#a9a9a9"/><stop offset="1" stop-color="#6a6a6a"/></radialGradient><radialGradient cx="22.94945" cy="355.86112" r="16.14952" gradientUnits="userSpaceOnUse" id="color-35"><stop offset="0" stop-color="#a9a9a9"/><stop offset="1" stop-color="#6a6a6a"/></radialGradient><radialGradient cx="176.57982" cy="288.91859" r="35.60236" gradientUnits="userSpaceOnUse" id="color-36"><stop offset="0" stop-color="#a9a9a9"/><stop offset="1" stop-color="#6a6a6a"/></radialGradient><radialGradient cx="141.32282" cy="262.03342" r="18.35173" gradientUnits="userSpaceOnUse" id="color-37"><stop offset="0" stop-color="#a9a9a9"/><stop offset="1" stop-color="#6a6a6a"/></radialGradient><radialGradient cx="181.18088" cy="295.64499" r="22.02208" gradientUnits="userSpaceOnUse" id="color-38"><stop offset="0" stop-color="#a9a9a9"/><stop offset="1" stop-color="#6a6a6a"/></radialGradient><radialGradient cx="152.00015" cy="290.03557" r="23.12319" gradientUnits="userSpaceOnUse" id="color-39"><stop offset="0" stop-color="#a9a9a9"/><stop offset="1" stop-color="#6a6a6a"/></radialGradient><radialGradient cx="-9.06981" cy="204.33129" r="16.12431" gradientUnits="userSpaceOnUse" id="color-40"><stop offset="0" stop-color="#a9a9a9"/><stop offset="1" stop-color="#6a6a6a"/></radialGradient><radialGradient cx="16.46035" cy="272.59974" r="16.79615" gradientUnits="userSpaceOnUse" id="color-41"><stop offset="0" stop-color="#a9a9a9"/><stop offset="1" stop-color="#6a6a6a"/></radialGradient><radialGradient cx="-0.33581" cy="238.83255" r="36.27969" gradientUnits="userSpaceOnUse" id="color-42"><stop offset="0" stop-color="#a9a9a9"/><stop offset="1" stop-color="#6a6a6a"/></radialGradient><radialGradient cx="14.76559" cy="195.50253" r="14.78061" gradientUnits="userSpaceOnUse" id="color-43"><stop offset="0" stop-color="#a9a9a9"/><stop offset="1" stop-color="#6a6a6a"/></radialGradient><radialGradient cx="25.52948" cy="214.97985" r="14.78061" gradientUnits="userSpaceOnUse" id="color-44"><stop offset="0" stop-color="#a9a9a9"/><stop offset="1" stop-color="#6a6a6a"/></radialGradient><radialGradient cx="1.79053" cy="161.67751" r="33.5923" gradientUnits="userSpaceOnUse" id="color-45"><stop offset="0" stop-color="#a9a9a9"/><stop offset="1" stop-color="#6a6a6a"/></radialGradient><radialGradient cx="7.09005" cy="168.24754" r="21.49908" gradientUnits="userSpaceOnUse" id="color-46"><stop offset="0" stop-color="#a9a9a9"/><stop offset="1" stop-color="#6a6a6a"/></radialGradient><radialGradient cx="30.77354" cy="178.05066" r="14.78062" gradientUnits="userSpaceOnUse" id="color-47"><stop offset="0" stop-color="#a9a9a9"/><stop offset="1" stop-color="#6a6a6a"/></radialGradient><radialGradient cx="-2.32514" cy="186.65783" r="17.13208" gradientUnits="userSpaceOnUse" id="color-48"><stop offset="0" stop-color="#a9a9a9"/><stop offset="1" stop-color="#6a6a6a"/></radialGradient><radialGradient cx="10.93822" cy="227.86076" r="16.12431" gradientUnits="userSpaceOnUse" id="color-49"><stop offset="0" stop-color="#a9a9a9"/><stop offset="1" stop-color="#6a6a6a"/></radialGradient><radialGradient cx="-25.50161" cy="212.35452" r="36.27969" gradientUnits="userSpaceOnUse" id="color-50"><stop offset="0" stop-color="#a9a9a9"/><stop offset="1" stop-color="#6a6a6a"/></radialGradient><radialGradient cx="21.59392" cy="193.33189" r="14.78061" gradientUnits="userSpaceOnUse" id="color-51"><stop offset="0" stop-color="#a9a9a9"/><stop offset="1" stop-color="#6a6a6a"/></radialGradient><radialGradient cx="0.77268" cy="253.01657" r="14.78061" gradientUnits="userSpaceOnUse" id="color-52"><stop offset="0" stop-color="#a9a9a9"/><stop offset="1" stop-color="#6a6a6a"/></radialGradient><radialGradient cx="159.57443" cy="282.47352" r="35.60236" gradientUnits="userSpaceOnUse" id="color-53"><stop offset="0" stop-color="#a9a9a9"/><stop offset="1" stop-color="#6a6a6a"/></radialGradient><radialGradient cx="138.84793" cy="250.03554" r="18.71877" gradientUnits="userSpaceOnUse" id="color-54"><stop offset="0" stop-color="#a9a9a9"/><stop offset="1" stop-color="#6a6a6a"/></radialGradient><radialGradient cx="157.76383" cy="244.31036" r="17.61766" gradientUnits="userSpaceOnUse" id="color-55"><stop offset="0" stop-color="#a9a9a9"/><stop offset="1" stop-color="#6a6a6a"/></radialGradient><radialGradient cx="179.32081" cy="263.36511" r="18.35173" gradientUnits="userSpaceOnUse" id="color-56"><stop offset="0" stop-color="#a9a9a9"/><stop offset="1" stop-color="#6a6a6a"/></radialGradient><radialGradient cx="142.02189" cy="256.91253" r="19.0858" gradientUnits="userSpaceOnUse" id="color-57"><stop offset="0" stop-color="#a9a9a9"/><stop offset="1" stop-color="#6a6a6a"/></radialGradient><radialGradient cx="151.55393" cy="283.91774" r="22.02208" gradientUnits="userSpaceOnUse" id="color-58"><stop offset="0" stop-color="#a9a9a9"/><stop offset="1" stop-color="#6a6a6a"/></radialGradient><radialGradient cx="218.87604" cy="319.64695" r="39.63974" gradientUnits="userSpaceOnUse" id="color-59"><stop offset="0" stop-color="#a9a9a9"/><stop offset="1" stop-color="#6a6a6a"/></radialGradient><radialGradient cx="149.81585" cy="233.18629" r="35.60236" gradientUnits="userSpaceOnUse" id="color-60"><stop offset="0" stop-color="#a9a9a9"/><stop offset="1" stop-color="#6a6a6a"/></radialGradient><radialGradient cx="111.04279" cy="230.33731" r="22.02208" gradientUnits="userSpaceOnUse" id="color-61"><stop offset="0" stop-color="#a9a9a9"/><stop offset="1" stop-color="#6a6a6a"/></radialGradient><radialGradient cx="125.91053" cy="247.92118" r="23.12319" gradientUnits="userSpaceOnUse" id="color-62"><stop offset="0" stop-color="#a9a9a9"/><stop offset="1" stop-color="#6a6a6a"/></radialGradient><radialGradient cx="24.29342" cy="229.22797" r="18.35173" gradientUnits="userSpaceOnUse" id="color-63"><stop offset="0" stop-color="#a9a9a9"/><stop offset="1" stop-color="#6a6a6a"/></radialGradient><radialGradient cx="265.85565" cy="356.85766" r="18.35173" gradientUnits="userSpaceOnUse" id="color-64"><stop offset="0" stop-color="#a9a9a9"/><stop offset="1" stop-color="#6a6a6a"/></radialGradient><radialGradient cx="290.85908" cy="366.20623" r="18.35173" gradientUnits="userSpaceOnUse" id="color-65"><stop offset="0" stop-color="#a9a9a9"/><stop offset="1" stop-color="#6a6a6a"/></radialGradient><radialGradient cx="273.44974" cy="352.4778" r="39.63974" gradientUnits="userSpaceOnUse" id="color-66"><stop offset="0" stop-color="#a9a9a9"/><stop offset="1" stop-color="#6a6a6a"/></radialGradient><radialGradient cx="366.72039" cy="358.1366" r="35.60236" gradientUnits="userSpaceOnUse" id="color-67"><stop offset="0" stop-color="#a9a9a9"/><stop offset="1" stop-color="#6a6a6a"/></radialGradient><radialGradient cx="352.33547" cy="369.26297" r="35.60236" gradientUnits="userSpaceOnUse" id="color-68"><stop offset="0" stop-color="#a9a9a9"/><stop offset="1" stop-color="#6a6a6a"/></radialGradient><radialGradient cx="318.85712" cy="350.85359" r="17.61766" gradientUnits="userSpaceOnUse" id="color-69"><stop offset="0" stop-color="#a9a9a9"/><stop offset="1" stop-color="#6a6a6a"/></radialGradient><radialGradient cx="346.37071" cy="342.43998" r="18.35173" gradientUnits="userSpaceOnUse" id="color-70"><stop offset="0" stop-color="#a9a9a9"/><stop offset="1" stop-color="#6a6a6a"/></radialGradient><radialGradient cx="321.36933" cy="370.8614" r="19.0858" gradientUnits="userSpaceOnUse" id="color-71"><stop offset="0" stop-color="#a9a9a9"/><stop offset="1" stop-color="#6a6a6a"/></radialGradient><radialGradient cx="305.21911" cy="351.81277" r="35.60236" gradientUnits="userSpaceOnUse" id="color-72"><stop offset="0" stop-color="#a9a9a9"/><stop offset="1" stop-color="#6a6a6a"/></radialGradient><radialGradient cx="59.09392" cy="34.05257" r="12.22826" gradientUnits="userSpaceOnUse" id="color-73"><stop offset="0" stop-color="#a9a9a9"/><stop offset="1" stop-color="#6a6a6a"/></radialGradient><radialGradient cx="119.9317" cy="5.05257" r="10.352" gradientUnits="userSpaceOnUse" id="color-74"><stop offset="0" stop-color="#a9a9a9"/><stop offset="1" stop-color="#6a6a6a"/></radialGradient><radialGradient cx="17.86432" cy="24.37823" r="42.94408" gradientUnits="userSpaceOnUse" id="color-75"><stop offset="0" stop-color="#a9a9a9"/><stop offset="1" stop-color="#6a6a6a"/></radialGradient></defs><g transform="translate(58.04592,27.67644)"><g data-paper-data="{&quot;isPaintingLayer&quot;:true}" fill-rule="nonzero" stroke-linejoin="miter" stroke-miterlimit="10" stroke-dasharray="" stroke-dashoffset="0" style="mix-blend-mode: normal"><path d="M114.04153,372.37439c0,0 13.2746,-36.0491 10.8268,-67.7995c-3.3656,-37.4324 -62.0054,-43.6056 -65.2778,-83.8276c-3.6578,-44.9592 2.3219,-72.1752 26.3521,-111.7274c8.2825,-13.6326 35.9899,-34.5427 60.9796,-32.0179c52.7896,5.33369 50.66158,37.103 65.77747,60.90183c4.9871,7.85182 11.85122,21.07411 23.18383,23.92847c15.27756,3.84801 49.02739,25.49377 79.8517,40.39558c18.84515,9.11057 58.29022,13.91273 82.71494,3.6228c8.32534,-3.5074 32.75938,-20.29129 39.67963,-40.74793c3.74009,-11.0559 9.50374,-35.80534 5.13714,-58.03924c-1.71429,-8.72884 -15.27446,-29.62843 -25.05078,-37.81549c-6.67782,-5.59227 -28.52203,-16.66341 -52.27236,-17.86051c-17.22847,-0.86838 -35.45995,4.88039 -49.63288,14.81638c-15.19941,10.65561 -26.40357,31.39241 -34.19599,48.58626c-5.35577,11.81744 -11.09986,35.09382 -13.42173,57.01337c-2.46299,23.2518 -1.24406,29.97406 4.18599,48.11453c5.43005,18.14048 9.20964,22.53812 21.40504,37.37892c12.87402,15.66661 32.59889,25.12316 52.93156,31.76215c66.39936,21.68059 154.75223,5.72137 154.75223,5.72137" fill="none" stroke="#755e15" stroke-width="45" stroke-linecap="round"/><path d="M93.11713,371.64886l-44,-102.49333c0,0 41.47036,-86.3824 62.38923,-87.86551c21.87199,-1.5507 66.11077,78.755 66.11077,78.755l-44,111.60385z" fill="url(#color-1)" stroke="none" stroke-width="0" stroke-linecap="butt"/><path d="M235.91598,194.7709c3.74551,5.52316 6.24548,20.03014 6.24548,20.03014c0,0 5.69424,4.97333 6.11169,11.96725c0.44483,7.45274 -1.85689,15.56438 -0.87013,19.3421c1.41724,5.42574 12.20096,9.66874 12.20096,9.66874c0,0 -2.47494,44.51163 -11.00875,50.4038c-4.352,3.00483 -17.18731,-14.71619 -23.31425,-10.91346c-8.81671,5.47215 -26.06584,-15.69428 -26.06584,-15.69428c0,0 -4.60578,-15.29663 -8.98123,-21.32886c-4.44665,-6.13041 -14.97954,-7.8501 -18.24188,-12.6608c-7.20067,-10.61818 -17.11593,-43.10689 -17.11593,-43.10689l25.28231,-26.63013c0,0 26.51204,9.8927 37.29773,11.90777c11.39887,2.12963 11.25863,-3.60435 18.45984,7.01462z" data-paper-data="{&quot;index&quot;:null}" fill="url(#color-2)" stroke="none" stroke-width="0" stroke-linecap="butt"/><path d="M234.15537,203.13894c3.30401,4.82851 2.95999,13.05427 6.83248,19.69652c4.34809,7.45799 0.47475,20.54014 0.47475,20.54014c0,0 4.14917,43.67101 -3.37872,48.82212c-3.83901,2.62691 -15.05735,-14.61547 -20.46207,-11.29102c-7.77745,4.78392 -22.45712,-4.94067 -22.45712,-4.94067c0,0 -1.17117,-18.67422 -5.03086,-23.94778c-3.9225,-5.35939 -16.10553,-1.56134 -18.98333,-5.767c-3.18373,-4.65275 -2.87248,-17.72356 -5.85649,-25.99907c-2.96941,-8.23502 -9.24191,-11.68626 -9.24191,-11.68626c0,0 13.08,-8.60184 16.86287,-12.55072c3.64614,-3.80615 5.43929,-10.73014 5.43929,-10.73014c0,0 23.38694,8.6485 32.90127,10.41013c10.05523,1.86179 16.54746,-1.83969 22.89983,7.44374z" data-paper-data="{&quot;index&quot;:null}" fill="url(#color-3)" stroke="none" stroke-width="0" stroke-linecap="butt"/><path d="M63.4432,249.05057c12.47405,13.58925 10.48047,35.71783 -4.45276,49.42557c-14.93323,13.70774 -37.15123,13.8038 -49.62527,0.21455c-12.47404,-13.58925 -10.48047,-35.71783 4.45276,-49.42557c14.93324,-13.70774 37.15123,-13.8038 49.62528,-0.21456z" fill="url(#color-4)" stroke="none" stroke-width="0" stroke-linecap="butt"/><path d="M53.97364,320.29107c-8.51372,0 -15.41546,-7.23039 -15.41546,-16.14952c0,-8.91913 6.90174,-16.14952 15.41546,-16.14952c8.51371,0 15.41545,7.23039 15.41545,16.14952c0,8.91913 -6.90173,16.14952 -15.41545,16.14952z" fill="url(#color-5)" stroke="none" stroke-width="0" stroke-linecap="butt"/><path d="M62.81766,396.83202c-18.44639,0 -33.40015,-16.4327 -33.40015,-36.70346c0,-20.27076 14.95376,-36.70346 33.40015,-36.70346c18.44639,0 33.40015,16.4327 33.40015,36.70346c0,20.27076 -14.95376,36.70346 -33.40015,36.70346z" fill="url(#color-6)" stroke="none" stroke-width="0" stroke-linecap="butt"/><path d="M165.80119,386.55505c-17.43286,0 -31.56498,-15.93972 -31.56498,-35.60236c0,-19.66264 14.13212,-35.60236 31.56498,-35.60236c17.43286,0 31.56498,15.93972 31.56498,35.60236c0,19.66264 -14.13212,35.60236 -31.56498,35.60236z" fill="url(#color-7)" stroke="none" stroke-width="0" stroke-linecap="butt"/><path d="M156.09528,332.42087c-8.51372,0 -15.41546,-8.38068 -15.41546,-18.71877c0,-10.33809 6.90174,-18.71877 15.41546,-18.71877c8.51372,0 15.41546,8.38068 15.41546,18.71877c0,10.3381 -6.90174,18.71877 -15.41546,18.71877z" fill="url(#color-8)" stroke="none" stroke-width="0" stroke-linecap="butt"/><path d="M175.85476,330.2426c-9.72996,0 -17.61766,-7.23039 -17.61766,-16.14953c0,-8.91914 7.8877,-16.14952 17.61766,-16.14952c9.72996,0 17.61766,7.23038 17.61766,16.14952c0,8.91914 -7.8877,16.14953 -17.61766,16.14953z" fill="url(#color-9)" stroke="none" stroke-width="0" stroke-linecap="butt"/><path d="M204.54387,361.78364c-10.13538,0 -18.35173,-8.21635 -18.35173,-18.35173c0,-10.13538 8.21635,-18.35173 18.35173,-18.35173c10.13538,0 18.35173,8.21635 18.35173,18.35173c0,10.13538 -8.21635,18.35173 -18.35173,18.35173z" fill="url(#color-10)" stroke="none" stroke-width="0" stroke-linecap="butt"/><path d="M74.7766,374.07588c-12.56788,0 -22.75615,-10.51693 -22.75615,-23.49022c0,-12.97329 10.18828,-23.49021 22.75615,-23.49021c12.56788,0 22.75615,10.51692 22.75615,23.49021c0,12.97329 -10.18827,23.49022 -22.75615,23.49022z" fill="url(#color-11)" stroke="none" stroke-width="0" stroke-linecap="butt"/><path d="M68.16999,357.55932c0,9.93267 -8.70933,17.98469 -19.45284,17.98469c-10.74351,0 -19.45284,-8.05201 -19.45284,-17.98469c0,-9.93268 8.70933,-17.9847 19.45283,-17.9847c10.74351,0 19.45284,8.05202 19.45284,17.9847z" fill="url(#color-12)" stroke="none" stroke-width="0" stroke-linecap="butt"/><path d="M78.05358,339.70943c-8.51372,0 -15.41546,-7.23039 -15.41546,-16.14952c0,-8.91913 6.90174,-16.14952 15.41546,-16.14952c8.51371,0 15.41545,7.23039 15.41545,16.14952c0,8.91913 -6.90173,16.14952 -15.41545,16.14952z" fill="url(#color-13)" stroke="none" stroke-width="0" stroke-linecap="butt"/><path d="M156.99237,339.57462c-10.54079,0 -19.0858,-8.21635 -19.0858,-18.35173c0,-10.13538 8.545,-18.35173 19.0858,-18.35173c10.54079,0 19.0858,8.21635 19.0858,18.35173c0,10.13538 -8.545,18.35173 -19.0858,18.35173z" fill="url(#color-14)" stroke="none" stroke-width="0" stroke-linecap="butt"/><path d="M179.01445,349.85159c0,12.16246 -9.53096,22.02208 -21.28801,22.02208c-11.75705,0 -21.28801,-9.85962 -21.28801,-22.02208c0,-12.16246 9.53095,-22.02208 21.288,-22.02208c11.75704,0 21.28801,9.85962 21.28801,22.02208z" fill="url(#color-15)" stroke="none" stroke-width="0" stroke-linecap="butt"/><path d="M178.6474,388.02319c-12.77058,0 -23.12318,-10.3526 -23.12318,-23.12318c0,-12.77058 10.3526,-23.12319 23.12318,-23.12319c12.77058,0 23.12319,10.35261 23.12319,23.12319c0,12.77058 -10.35261,23.12318 -23.12319,23.12318z" fill="url(#color-16)" stroke="none" stroke-width="0" stroke-linecap="butt"/><path d="M248.1982,350.43408c0,5.85073 -4.92914,12.44504 -5.48422,20.11365c-0.62325,8.61041 3.11964,18.00107 3.11964,18.00107c0,0 -26.68545,1.52501 -35.80703,1.52501c-4.65174,0 -7.7247,-6.13402 -14.0625,-6.44254c-9.12017,-0.44397 -21.071,4.88717 -21.071,4.88717c0,0 4.1988,-13.33071 3.99153,-19.86253c-0.21064,-6.63812 -7.02963,-13.12583 -7.02963,-18.22184c0,-11.24792 8.82108,-39.62744 8.82108,-39.62744l31.55273,-6.61892c0,0 14.41693,20.34448 21.27413,27.17123c7.24704,7.21486 14.69527,7.82637 14.69527,19.07513z" data-paper-data="{&quot;index&quot;:null}" fill="url(#color-17)" stroke="none" stroke-width="0" stroke-linecap="butt"/><path d="M38.84198,345.71448c0,-10.33809 6.90174,-18.71877 15.41546,-18.71877c8.51372,0 15.41546,8.38068 15.41546,18.71877c0,10.33809 -6.90174,18.71877 -15.41546,18.71877c-8.51372,0 -15.41546,-8.38067 -15.41546,-18.71877z" data-paper-data="{&quot;index&quot;:null}" fill="url(#color-18)" stroke="none" stroke-width="0" stroke-linecap="butt"/><path d="M16.08583,307.17584c0,-8.91914 7.8877,-16.14952 17.61766,-16.14952c9.72996,0 17.61766,7.23038 17.61766,16.14952c0,8.91914 -7.8877,16.14953 -17.61766,16.14953c-9.72996,0 -17.61766,-7.23039 -17.61766,-16.14953z" data-paper-data="{&quot;index&quot;:null}" fill="url(#color-19)" stroke="none" stroke-width="0" stroke-linecap="butt"/><path d="M-12.54287,375.44429c0,-10.13538 8.21635,-18.35173 18.35173,-18.35173c10.13538,0 18.35173,8.21635 18.35173,18.35173c0,10.13538 -8.21635,18.35173 -18.35173,18.35173c-10.13538,0 -18.35173,-8.21635 -18.35173,-18.35173z" data-paper-data="{&quot;index&quot;:null}" fill="url(#color-20)" stroke="none" stroke-width="0" stroke-linecap="butt"/><path d="M-14.01101,341.6771c0,-5.85073 4.92914,-12.44504 5.48422,-20.11365c0.62325,-8.61041 -3.11964,-18.00107 -3.11964,-18.00107c0,0 26.68545,-1.52501 35.80703,-1.52501c4.65174,0 7.7247,6.13402 14.0625,6.44254c9.12017,0.44397 21.071,-4.88717 21.071,-4.88717c0,0 -4.1988,13.33071 -3.99153,19.86253c0.21064,6.63812 7.02963,13.12583 7.02963,18.22184c0,11.24792 -8.82108,39.62744 -8.82108,39.62744l-31.55273,6.61892c0,0 -14.41693,-20.34448 -21.27413,-27.17123c-7.24704,-7.21486 -14.69527,-7.82637 -14.69527,-19.07513z" data-paper-data="{&quot;index&quot;:null}" fill="url(#color-21)" stroke="none" stroke-width="0" stroke-linecap="butt"/><path d="M67.01361,338.09794c-8.51372,0 -15.41546,-7.23039 -15.41546,-16.14952c0,-8.91913 6.90174,-16.14952 15.41546,-16.14952c8.51371,0 15.41545,7.23039 15.41545,16.14952c0,8.91913 -6.90173,16.14952 -15.41545,16.14952z" fill="url(#color-22)" stroke="none" stroke-width="0" stroke-linecap="butt"/><path d="M7.66058,314.4966c-8.51372,0 -15.41546,-7.23039 -15.41546,-16.14952c0,-8.91913 6.90174,-16.14952 15.41546,-16.14952c8.51371,0 15.41545,7.23039 15.41545,16.14952c0,8.91913 -6.90173,16.14952 -15.41545,16.14952z" fill="url(#color-23)" stroke="none" stroke-width="0" stroke-linecap="butt"/><path d="M270.71085,350.87872c9.51798,5.99521 6.06575,12.62335 8.30807,22.60061c2.1217,9.44056 11.65216,32.48217 11.65216,32.48217l-22.41706,23.17025c0,0 -28.71428,-7.6615 -38.23156,-13.65627c-4.31192,-2.716 -6.16711,-11.94353 -11.6716,-15.65966c-5.41634,-3.65662 -18.93376,-7.20869 -18.93376,-7.20869c0,0 10.88026,-7.27071 15.36535,-15.22424c3.11679,-5.52707 -0.43565,-11.39644 2.04358,-15.33245c4.8615,-7.7181 20.37432,-29.48485 20.37432,-29.48485c0,0 5.95094,8.1719 13.56869,12.23361c6.78453,3.61744 14.99128,2.96126 19.9418,6.07951z" data-paper-data="{&quot;index&quot;:null}" fill="url(#color-24)" stroke="none" stroke-width="0" stroke-linecap="butt"/><path d="M7.79696,306.90358c5.75725,6.27196 5.09788,16.24581 -1.47273,22.27722c-6.57062,6.03141 -16.56435,5.83639 -22.3216,-0.43557c-5.75725,-6.27195 -5.09787,-16.24581 1.47274,-22.27721c6.57062,-6.03141 16.56434,-5.8364 22.32159,0.43556z" fill="url(#color-25)" stroke="none" stroke-width="0" stroke-linecap="butt"/><path d="M48.87635,239.702c12.47405,13.58925 10.48047,35.71783 -4.45276,49.42557c-14.93323,13.70774 -37.15123,13.8038 -49.62527,0.21455c-12.47404,-13.58925 -10.48047,-35.71783 4.45276,-49.42557c14.93324,-13.70774 37.15123,-13.8038 49.62528,-0.21456z" fill="url(#color-26)" stroke="none" stroke-width="0" stroke-linecap="butt"/><path d="M33.35197,255.20726c8.4988,9.25861 7.64074,23.87608 -1.91653,32.64904c-9.55728,8.77296 -24.19461,8.37925 -32.69341,-0.87936c-8.49881,-9.25862 -7.64075,-23.87608 1.91653,-32.64903c9.55728,-8.77295 24.19462,-8.37927 32.69342,0.87935z" fill="url(#color-27)" stroke="none" stroke-width="0" stroke-linecap="butt"/><path d="M25.65201,271.24331c7.31728,-6.71679 19.13865,-5.74577 26.40375,2.16885c7.2651,7.91462 7.22281,19.77572 -0.09448,26.49252c-7.31729,6.7168 -19.13865,5.74577 -26.40375,-2.16884c-7.26511,-7.91462 -7.22281,-19.77572 0.09448,-26.49252z" fill="url(#color-28)" stroke="none" stroke-width="0" stroke-linecap="butt"/><path d="M2.06723,269.97439c5.75725,6.27196 5.09788,16.24581 -1.47274,22.27722c-6.57062,6.03141 -16.56434,5.83639 -22.32159,-0.43557c-5.75725,-6.27195 -5.09788,-16.24581 1.47274,-22.27721c6.57062,-6.03141 16.56434,-5.8364 22.32159,0.43556z" fill="url(#color-29)" stroke="none" stroke-width="0" stroke-linecap="butt"/><path d="M36.75858,300.85877c-7.61595,6.99095 -18.45708,7.5738 -24.21433,1.30184c-5.75725,-6.27196 -4.25048,-17.02368 3.36547,-24.01463c7.61596,-6.99095 18.45709,-7.5738 24.21434,-1.30184c5.75725,6.27196 4.25048,17.02367 -3.36548,24.01463z" data-paper-data="{&quot;index&quot;:null}" fill="url(#color-30)" stroke="none" stroke-width="0" stroke-linecap="butt"/><path d="M23.75607,343.68404c-6.57063,6.03141 -17.23108,5.11005 -23.81079,-2.05791c-6.57971,-7.16795 -6.5871,-17.86814 -0.01647,-23.89955c6.57063,-6.03141 17.23109,-5.11006 23.81081,2.05789c6.57971,7.16795 6.58709,17.86815 0.01646,23.89956z" data-paper-data="{&quot;index&quot;:null}" fill="url(#color-31)" stroke="none" stroke-width="0" stroke-linecap="butt"/><path d="M92.2529,323.04271c-7.46662,6.85387 -19.07567,6.35714 -25.92954,-1.10948c-6.85387,-7.46662 -6.35715,-19.07567 1.10947,-25.92954c4.4497,-4.08453 10.37058,-11.55849 15.87947,-10.50246c3.73506,0.716 7.28073,8.59502 10.05007,11.61194c6.85387,7.46662 6.35715,19.07567 -1.10948,25.92954z" data-paper-data="{&quot;index&quot;:null}" fill="url(#color-32)" stroke="none" stroke-width="0" stroke-linecap="butt"/><path d="M85.69979,339.62217c-4.4412,3.64174 -12.88143,4.40391 -19.08934,8.80078c-6.97031,4.93686 -11.49062,13.32001 -11.49062,13.32001c0,0 -19.7518,-17.14588 -26.10763,-23.33113c-3.24128,-3.1543 -0.72626,-9.0561 -4.90818,-13.54574c-6.01784,-6.46063 -18.39186,-11.24603 -18.39186,-11.24603c0,0 13.04484,-5.45043 17.85862,-9.65665c4.89214,-4.27468 5.06544,-12.93677 8.93375,-16.10874c8.53814,-7.00117 36.22707,-18.6843 36.22707,-18.6843l18.01,14.27567c0,0 3.60238,25.43921 3.19834,34.33826c-0.42702,9.40497 4.29866,14.83615 -4.24011,21.83785z" data-paper-data="{&quot;index&quot;:null}" fill="url(#color-33)" stroke="none" stroke-width="0" stroke-linecap="butt"/><path d="M12.09702,285.25561c5.75725,6.27196 5.09789,16.24581 -1.47273,22.27722c-6.57062,6.03141 -16.56434,5.83639 -22.32159,-0.43556c-5.75725,-6.27195 -5.09788,-16.24581 1.47274,-22.27722c6.57062,-6.03141 16.56434,-5.8364 22.32159,0.43556z" fill="url(#color-34)" stroke="none" stroke-width="0" stroke-linecap="butt"/><path d="M34.8466,344.94029c5.75725,6.27196 5.09788,16.24581 -1.47273,22.27722c-6.57062,6.03141 -16.56435,5.83639 -22.3216,-0.43557c-5.75724,-6.27195 -5.09787,-16.24581 1.47274,-22.27721c6.57062,-6.03141 16.56434,-5.8364 22.32159,0.43556z" fill="url(#color-35)" stroke="none" stroke-width="0" stroke-linecap="butt"/><path d="M162.4423,260.69664c17.58018,-8.80663 38.16132,-3.31042 45.96926,12.27613c7.80794,15.58655 -0.11403,35.36113 -17.69421,44.16776c-17.58018,8.80663 -38.16132,3.31042 -45.96926,-12.27613c-7.80794,-15.58655 0.11403,-35.36113 17.69421,-44.16776z" data-paper-data="{&quot;index&quot;:null}" fill="url(#color-36)" stroke="none" stroke-width="0" stroke-linecap="butt"/><path d="M133.10333,245.62531c9.06195,-4.5395 20.0881,-0.87333 24.6276,8.18862c4.5395,9.06195 0.87333,20.0881 -8.18862,24.6276c-9.06195,4.5395 -20.0881,0.87333 -24.6276,-8.18862c-4.5395,-9.06195 -0.87333,-20.0881 8.18862,-24.6276z" data-paper-data="{&quot;index&quot;:null}" fill="url(#color-37)" stroke="none" stroke-width="0" stroke-linecap="butt"/><path d="M171.64627,276.61158c10.87434,-5.4474 23.95852,-1.34184 29.22434,9.17002c5.26582,10.51187 0.71921,23.44939 -10.15513,28.89679c-10.87434,5.4474 -23.95852,1.34185 -29.22434,-9.17002c-5.26582,-10.51187 -0.71922,-23.4494 10.15512,-28.8968z" data-paper-data="{&quot;index&quot;:null}" fill="url(#color-38)" stroke="none" stroke-width="0" stroke-linecap="butt"/><path d="M141.6436,269.36136c11.41805,-5.71977 25.31102,-1.10039 31.03079,10.31766c5.71977,11.41805 1.10039,25.31101 -10.31767,31.03078c-11.41805,5.71977 -25.311,1.1004 -31.03077,-10.31766c-5.71977,-11.41805 -1.1004,-25.31101 10.31765,-31.03078z" data-paper-data="{&quot;index&quot;:null}" fill="url(#color-39)" stroke="none" stroke-width="0" stroke-linecap="butt"/><path d="M-9.0698,220.48082c-8.90521,0 -16.1243,-7.23039 -16.1243,-16.14953c0,-8.91914 7.2191,-16.14952 16.12431,-16.14952c8.90521,0 16.12431,7.23038 16.12431,16.14952c0,8.91914 -7.2191,16.14953 -16.1243,16.14953z" data-paper-data="{&quot;index&quot;:null}" fill="url(#color-40)" stroke="none" stroke-width="0" stroke-linecap="butt"/><path d="M16.46035,290.95147c-9.27626,0 -16.79615,-8.21635 -16.79615,-18.35173c0,-10.13538 7.51989,-18.35173 16.79615,-18.35173c9.27626,0 16.79616,8.21635 16.79616,18.35173c0,10.13538 -7.51989,18.35173 -16.79615,18.35173z" data-paper-data="{&quot;index&quot;:null}" fill="url(#color-41)" stroke="none" stroke-width="0" stroke-linecap="butt"/><path d="M34.6002,238.83256c0,11.24876 -6.81688,11.86027 -13.44963,19.07513c-6.27595,6.82675 -19.47083,27.17123 -19.47083,27.17123l-28.87817,-6.61892c0,0 -8.07337,-28.37952 -8.07337,-39.62744c0,-5.09601 6.24098,-11.58372 6.43377,-18.22184c0.1897,-6.53182 -3.65319,-19.86253 -3.65319,-19.86253c0,0 10.93782,5.33114 19.28492,4.88717c5.80058,-0.30852 8.61306,-6.44254 12.8705,-6.44254c8.3484,0 32.77186,1.52501 32.77186,1.52501c0,0 -3.42562,9.39066 -2.85521,18.00107c0.50803,7.66861 5.01935,14.26292 5.01935,20.11365z" data-paper-data="{&quot;index&quot;:null}" fill="url(#color-42)" stroke="none" stroke-width="0" stroke-linecap="butt"/><path d="M0.65683,195.50253c0,-8.91913 6.31672,-16.14952 14.10877,-16.14952c7.79206,0 14.10878,7.23039 14.10878,16.14952c0,8.91913 -6.31672,16.14952 -14.10878,16.14952c-7.79206,0 -14.10876,-7.23039 -14.10876,-16.14952z" data-paper-data="{&quot;index&quot;:null}" fill="url(#color-43)" stroke="none" stroke-width="0" stroke-linecap="butt"/><path d="M35.07028,203.62347c6.01366,6.0314 6.61715,16.00526 1.34791,22.27721c-5.26924,6.27196 -14.41585,6.46698 -20.42952,0.43557c-6.01365,-6.03141 -6.61713,-16.00526 -1.34789,-22.27722c5.26924,-6.27196 14.41584,-6.46697 20.42951,-0.43556z" data-paper-data="{&quot;index&quot;:null}" fill="url(#color-44)" stroke="none" stroke-width="0" stroke-linecap="butt"/><path d="M-22.95655,136.85744c11.41669,-13.58924 31.75139,-13.49318 45.41881,0.21456c13.66742,13.70774 15.49201,35.83632 4.07532,49.42557c-11.41668,13.58925 -31.75138,13.49319 -45.4188,-0.21455c-13.66742,-13.70774 -15.49201,-35.83632 -4.07532,-49.42557z" data-paper-data="{&quot;index&quot;:null}" fill="url(#color-45)" stroke="none" stroke-width="0" stroke-linecap="butt"/><path d="M-8.74808,152.36271c7.7784,-9.25862 21.17502,-9.6523 29.92218,-0.87935c8.74716,8.77295 9.53249,23.39041 1.75408,32.64903c-7.7784,9.25861 -21.175,9.65232 -29.92216,0.87936c-8.74715,-8.77296 -9.53248,-23.39043 -1.75408,-32.64904z" data-paper-data="{&quot;index&quot;:null}" fill="url(#color-46)" stroke="none" stroke-width="0" stroke-linecap="butt"/><path d="M40.31433,166.69428c6.01367,6.0314 6.61715,16.00526 1.34791,22.27721c-5.26924,6.27196 -14.41585,6.46698 -20.42951,0.43557c-6.01366,-6.03141 -6.61714,-16.00526 -1.3479,-22.27722c5.26924,-6.27196 14.41584,-6.46697 20.42951,-0.43556z" data-paper-data="{&quot;index&quot;:null}" fill="url(#color-47)" stroke="none" stroke-width="0" stroke-linecap="butt"/><path d="M-14.94614,173.99959c5.26924,-6.27196 15.19143,-5.68911 22.16183,1.30184c6.97038,6.99095 8.34944,17.74267 3.0802,24.01463c-5.26924,6.27196 -15.19142,5.68911 -22.16181,-1.30184c-6.97039,-6.99096 -8.34945,-17.74267 -3.08021,-24.01463z" data-paper-data="{&quot;index&quot;:null}" fill="url(#color-48)" stroke="none" stroke-width="0" stroke-linecap="butt"/><path d="M0.03442,240.83948c-6.01367,-6.03141 -6.00692,-16.73161 0.01507,-23.89956c6.02199,-7.16795 15.77882,-8.0893 21.7925,-2.05789c6.01367,6.03141 6.00691,16.7316 -0.01507,23.89955c-6.02199,7.16796 -15.7788,8.08932 -21.79247,2.05791z" data-paper-data="{&quot;index&quot;:null}" fill="url(#color-49)" stroke="none" stroke-width="0" stroke-linecap="butt"/><path d="M-49.1265,240.47509c-7.5844,-7.60678 -3.38691,-13.50732 -3.7662,-23.72505c-0.35888,-9.66809 -5.15322,-34.04647 -5.15322,-34.04647l23.99112,-18.76861c0,0 24.59417,12.69277 32.17801,20.29897c3.43595,3.44609 3.58989,12.85675 7.93524,17.50084c4.27575,4.56972 15.86259,10.49117 15.86259,10.49117c0,0 -10.991,5.19895 -16.33623,12.2179c-3.71452,4.87762 -1.48059,11.28945 -4.3596,14.71634c-5.64544,6.71977 -23.18961,25.34737 -23.18961,25.34737c0,0 -4.01507,-9.10761 -10.20632,-14.47111c-5.51405,-4.77684 -13.01093,-5.60488 -16.95574,-9.56133z" data-paper-data="{&quot;index&quot;:null}" fill="url(#color-50)" stroke="none" stroke-width="0" stroke-linecap="butt"/><path d="M10.7052,182.41106c5.26924,-6.27196 14.41585,-6.46697 20.42951,-0.43556c6.01367,6.03141 6.61715,16.00527 1.34791,22.27722c-5.26924,6.27195 -14.41584,6.46697 -20.42951,0.43556c-6.01366,-6.03141 -6.61714,-16.00526 -1.3479,-22.27722z" data-paper-data="{&quot;index&quot;:null}" fill="url(#color-51)" stroke="none" stroke-width="0" stroke-linecap="butt"/><path d="M10.31349,241.66018c6.01366,6.0314 6.61714,16.00526 1.34791,22.27721c-5.26924,6.27196 -14.41585,6.46698 -20.42952,0.43557c-6.01365,-6.03141 -6.61714,-16.00526 -1.3479,-22.27722c5.26924,-6.27196 14.41585,-6.46697 20.42951,-0.43556z" data-paper-data="{&quot;index&quot;:null}" fill="url(#color-52)" stroke="none" stroke-width="0" stroke-linecap="butt"/><path d="M170.56007,316.3386c-16.5822,5.37917 -34.94316,-5.42207 -41.01035,-24.12524c-6.06719,-18.70317 2.45689,-38.22576 19.03909,-43.60493c16.5822,-5.37916 34.94315,5.42208 41.01035,24.12525c6.06719,18.70317 -2.45688,38.22576 -19.03908,43.60492z" fill="url(#color-53)" stroke="none" stroke-width="0" stroke-linecap="butt"/><path d="M144.62388,267.84089c-8.09828,2.62703 -17.24922,-3.21506 -20.43919,-13.04869c-3.18997,-9.83363 0.78901,-19.93499 8.88729,-22.56203c8.09828,-2.62704 17.24922,3.21506 20.43919,13.04869c3.18998,9.83363 -0.78901,19.93499 -8.88728,22.56203z" fill="url(#color-54)" stroke="none" stroke-width="0" stroke-linecap="butt"/><path d="M162.74702,259.67184c-9.25517,3.00232 -18.98902,-1.44138 -21.74115,-9.92529c-2.75213,-8.48391 2.51963,-17.79535 11.7748,-20.79767c9.25517,-3.00232 18.98902,1.44137 21.74115,9.92529c2.75213,8.48391 -2.51963,17.79536 -11.7748,20.79767z" fill="url(#color-55)" stroke="none" stroke-width="0" stroke-linecap="butt"/><path d="M184.98351,280.82133c-9.6408,3.12742 -19.9915,-2.15272 -23.11892,-11.79353c-3.12742,-9.6408 2.15273,-19.9915 11.79353,-23.11892c9.64081,-3.12742 19.9915,2.15272 23.11892,11.79353c3.12742,9.64081 -2.15273,19.9915 -11.79353,23.11892z" fill="url(#color-56)" stroke="none" stroke-width="0" stroke-linecap="butt"/><path d="M147.68458,274.36876c-10.02643,3.25252 -20.68976,-1.92622 -23.81718,-11.56702c-3.12742,-9.6408 2.46533,-20.09291 12.49178,-23.34543c10.02643,-3.25251 20.68975,1.92622 23.81717,11.56702c3.12742,9.64081 -2.46533,20.09292 -12.49178,23.34544z" fill="url(#color-57)" stroke="none" stroke-width="0" stroke-linecap="butt"/><path d="M171.80317,277.349c3.7529,11.56898 -2.27064,23.8884 -13.45399,27.51621c-11.18335,3.62781 -23.29156,-2.80977 -27.04447,-14.37874c-3.7529,-11.56898 2.27063,-23.8884 13.45398,-27.51621c11.18334,-3.62781 23.29156,2.80978 27.04446,14.37875z" fill="url(#color-58)" stroke="none" stroke-width="0" stroke-linecap="butt"/><path d="M255.185,307.86854c1.80533,5.56523 -0.84851,13.35872 0.98976,20.82441c2.06403,8.38257 8.52191,16.16006 8.52191,16.16006c0,0 -24.91272,9.68479 -33.5892,12.49939c-4.42475,1.43536 -9.2405,-3.45113 -15.36424,-1.78897c-8.81213,2.39186 -18.5348,11.15046 -18.5348,11.15046c0,0 -0.11947,-13.97582 -2.33212,-20.12495c-2.24865,-6.24921 -10.73677,-10.31624 -12.30922,-15.16358c-3.47071,-10.69906 -3.83699,-40.41563 -3.83699,-40.41563l27.9707,-16.03199c0,0 19.99103,14.90318 28.62011,19.28091c9.11966,4.62662 16.39313,2.91003 19.8641,13.60989z" data-paper-data="{&quot;index&quot;:null}" fill="url(#color-59)" stroke="none" stroke-width="0" stroke-linecap="butt"/><path d="M127.6599,210.70381c14.00491,-13.80152 35.27769,-14.92412 47.5141,-2.5074c12.2364,12.41672 10.80273,33.67081 -3.20218,47.47233c-14.00491,13.80152 -35.2777,14.92412 -47.5141,2.50739c-12.2364,-12.41672 -10.80273,-33.67081 3.20218,-47.47233z" data-paper-data="{&quot;index&quot;:null}" fill="url(#color-60)" stroke="none" stroke-width="0" stroke-linecap="butt"/><path d="M96.1004,215.17471c8.66284,-8.53702 22.37538,-8.66911 30.62784,-0.29504c8.25246,8.37408 7.91977,22.08321 -0.74307,30.62024c-8.66284,8.53703 -22.37537,8.66913 -30.62783,0.29505c-8.25246,-8.37408 -7.91979,-22.08322 0.74305,-30.62025z" data-paper-data="{&quot;index&quot;:null}" fill="url(#color-61)" stroke="none" stroke-width="0" stroke-linecap="butt"/><path d="M109.68002,231.45147c9.09597,-8.96387 23.73639,-8.85679 32.70026,0.23918c8.96387,9.09597 8.85679,23.73637 -0.23919,32.70025c-9.09597,8.96387 -23.73636,8.85679 -32.70024,-0.23919c-8.96387,-9.09597 -8.85679,-23.73637 0.23918,-32.70024z" data-paper-data="{&quot;index&quot;:null}" fill="url(#color-62)" stroke="none" stroke-width="0" stroke-linecap="butt"/><path d="M29.95612,246.6842c-9.6408,3.12742 -19.9915,-2.15272 -23.11892,-11.79353c-3.12742,-9.6408 2.15273,-19.9915 11.79353,-23.11892c9.64081,-3.12742 19.9915,2.15273 23.11892,11.79353c3.12742,9.64081 -2.15273,19.9915 -11.79353,23.11892z" fill="url(#color-63)" stroke="none" stroke-width="0" stroke-linecap="butt"/><path d="M271.51835,374.31388c-9.6408,3.12742 -19.9915,-2.15272 -23.11892,-11.79353c-3.12742,-9.6408 2.15272,-19.9915 11.79353,-23.11892c9.64081,-3.12742 19.9915,2.15272 23.11892,11.79353c3.12742,9.64081 -2.15272,19.9915 -11.79353,23.11892z" fill="url(#color-64)" stroke="none" stroke-width="0" stroke-linecap="butt"/><path d="M296.52177,383.66245c-9.6408,3.12742 -19.9915,-2.15272 -23.11892,-11.79353c-3.12742,-9.6408 2.15272,-19.9915 11.79353,-23.11892c9.64081,-3.12742 19.9915,2.15272 23.11892,11.79353c3.12742,9.64081 -2.15272,19.9915 -11.79353,23.11892z" fill="url(#color-65)" stroke="none" stroke-width="0" stroke-linecap="butt"/><path d="M348.14617,361.5238c2.06403,8.38257 -28.8758,16.16006 -28.8758,16.16006c0,0 -24.91273,9.68479 -33.5892,12.49939c-4.42475,1.43536 -9.2405,-3.45113 -15.36424,-1.78897c-8.81213,2.39186 -18.5348,11.15046 -18.5348,11.15046c0,0 -0.11947,-13.97582 -2.33212,-20.12495c-2.24865,-6.24921 -10.73677,-10.31624 -12.30922,-15.16358c-3.47071,-10.69906 -3.83699,-40.41563 -3.83699,-40.41563c0,0 6.26537,11.93644 10.62688,9.43655c4.89937,-2.80818 17.34381,-25.46855 17.34381,-25.46855c0,0 19.99103,14.90318 28.62011,19.28091c9.11966,4.62662 16.39313,2.91003 19.8641,13.60989c0,0 36.54919,13.35873 38.38747,20.82441z" data-paper-data="{&quot;index&quot;:null}" fill="url(#color-66)" stroke="none" stroke-width="0" stroke-linecap="butt"/><path d="M335.27143,355.43271c1.68432,-19.59037 17.12991,-34.26093 34.49869,-32.76762c17.36878,1.49331 30.08355,18.58502 28.39923,38.17539c-1.68432,19.59037 -17.12991,34.26093 -34.49869,32.76761c-17.36878,-1.49331 -30.08355,-18.58501 -28.39922,-38.17539z" data-paper-data="{&quot;index&quot;:null}" fill="url(#color-67)" stroke="none" stroke-width="0" stroke-linecap="butt"/><path d="M386.94695,377.60404c-4.08425,16.94767 -22.89127,26.95205 -42.00666,22.34539c-19.11539,-4.60665 -31.30054,-22.07987 -27.2163,-39.02754c4.08425,-16.94767 22.89126,-26.95204 42.00665,-22.34539c19.11539,4.60665 31.30055,22.07987 27.21631,39.02754z" fill="url(#color-68)" stroke="none" stroke-width="0" stroke-linecap="butt"/><path d="M334.55717,354.63716c-2.27958,9.45916 -11.15669,15.43336 -19.82759,13.34375c-8.6709,-2.08961 -13.85209,-11.45175 -11.57251,-20.91091c2.27958,-9.45916 11.15668,-15.43337 19.82759,-13.34375c8.6709,2.08961 13.8521,11.45176 11.57252,20.91091z" fill="url(#color-69)" stroke="none" stroke-width="0" stroke-linecap="butt"/><path d="M364.21168,346.7395c-2.37456,9.85329 -12.28719,15.916 -22.14049,13.54144c-9.85329,-2.37456 -15.916,-12.2872 -13.54145,-22.14049c2.37456,-9.85329 12.2872,-15.916 22.14049,-13.54144c9.85329,2.37456 15.916,12.28719 13.54144,22.14049z" fill="url(#color-70)" stroke="none" stroke-width="0" stroke-linecap="butt"/><path d="M339.21031,375.16092c-2.46954,10.24742 -12.45918,16.62964 -22.31248,14.25509c-9.85329,-2.37456 -15.839,-12.6067 -13.36946,-22.85413c2.46954,-10.24742 12.45918,-16.62964 22.31247,-14.25509c9.85329,2.37456 15.83901,12.6067 13.36946,22.85413z" fill="url(#color-71)" stroke="none" stroke-width="0" stroke-linecap="butt"/><path d="M274.47042,358.94485c-4.44277,-19.15414 5.72231,-37.8748 22.70434,-41.81374c16.98203,-3.93894 34.35025,8.39542 38.79302,27.54956c4.44277,19.15414 -5.72231,37.8748 -22.70434,41.81375c-16.98203,3.93894 -34.35025,-8.39542 -38.79301,-27.54956z" data-paper-data="{&quot;index&quot;:null}" fill="url(#color-72)" stroke="none" stroke-width="0" stroke-linecap="butt"/><path d="M124.92848,202.2722c0,-1.2426 1.0074,-2.25 2.25,-2.25c1.2427,0 2.25,1.0074 2.25,2.25c0,1.2427 -1.0073,2.25 -2.25,2.25c-1.2426,0 -2.25,-1.0073 -2.25,-2.25z" fill="#00840b" stroke="none" stroke-width="0.5" stroke-linecap="butt"/><path d="M132.92848,198.2722c0,-1.2426 1.0074,-2.25 2.25,-2.25c1.2427,0 2.25,1.0074 2.25,2.25c0,1.2427 -1.0073,2.25 -2.25,2.25c-1.2426,0 -2.25,-1.0073 -2.25,-2.25z" fill="#00840b" stroke="none" stroke-width="0.5" stroke-linecap="butt"/><path d="M221.88568,274.1395c0.6597,0.1966 1.5428,0.7231 1.5428,2.1327c0,0.087 -0.0033,0.1706 -0.0098,0.251c1.0999,0.7312 2.0434,1.5978 2.6738,2.5661c0.9667,1.4848 1.392,3.3721 2.677,4.5919c2.2991,2.7375 2.7846,0.84 6.0486,0.3701c0.7625,-0.1098 1.6507,0.6536 2.2988,0.2371c0.919,-0.5905 0.8372,-2.1289 1.6959,-2.8043c0.6798,-0.5346 1.9426,0.0975 2.5404,-0.5275c0.4003,-0.4184 -0.3724,-1.1077 -0.4247,-1.6844c-0.2099,-2.3156 -0.6669,-7.7832 0.1713,-9.861c0.7485,-1.8554 3.1553,-2.5945 4.1648,-4.3219c1.2139,-2.0774 1.594,-4.7346 3.3229,-6.4081c4.6702,-4.5203 10.9251,-3.0589 15.182,1c0,0 1.591,1.591 0,3.182c-0.3958,0.3958 -0.7917,0.5947 -1.163,0.6701c0.5019,0.4127 0.822,1.0384 0.822,1.7389c0,1.2028 -0.9438,2.1852 -2.1313,2.2469c0.1313,0.4145 0.1313,0.7531 0.1313,0.7531c-0.0571,1.287 -0.1142,2.574 -0.1713,3.861l-2.4877,2.73c0,0 -1.591,1.591 -3.182,0c-1.591,-1.591 0,-3.182 0,-3.182l1.5123,-1.27c-0.0571,-0.713 -0.1142,-1.426 -0.1713,-2.139c0,0 0,-2.1685 2.1288,-2.2478c-0.0834,-0.2352 -0.1288,-0.4884 -0.1288,-0.7522c0,-1.1181 0.8156,-2.0457 1.8843,-2.2204c-0.1441,-0.1074 -0.2253,-0.1886 -0.2253,-0.1886c-0.5058,-0.5444 -0.8538,-1.2989 -1.5176,-1.633c-0.9671,-0.4869 -2.0961,-0.5605 -3.1663,-0.7249c-4.8727,-0.7481 -4.9483,3.9074 -6.8111,6.9498c-0.9249,1.5106 -3.1868,2.0298 -3.8353,3.6781c-0.2618,0.6657 0.1475,1.4241 0.1713,2.139c0.0744,2.2307 0.7662,8.541 -0.4247,10.3156c-0.6984,1.0407 -2.4856,0.6837 -3.4596,1.4725c-1.0204,0.8265 -1.1639,2.5439 -2.304,3.1957c-1.0733,0.6135 -2.4855,0.0127 -3.7013,0.2371c-3.0633,0.5656 -3.646,2.2105 -7.2214,0.8578c-1.1515,-0.4356 -1.82,-1.6585 -2.73,-2.4877c-0.7743,-0.8027 -1.7391,-1.4579 -2.323,-2.4081c-1.1865,-1.9312 -0.2561,-3.1832 -2.2689,-4.2689c-1.5981,-0.862 -3.453,-1.1248 -5.1775,-1.6931c-0.4375,-0.1441 -1.0219,-0.7434 -1.324,-0.3956c-0.6412,0.7381 -0.021,2.2178 -0.7868,2.8256c-1.2035,0.9551 -3.0897,0.5387 -4.4202,1.307c-1.3001,0.7508 -1.8852,2.4899 -3.2476,3.1208c-1.8148,0.8405 -4.1388,-0.7321 -6,0c-0.6126,0.241 -0.8214,1.0305 -1.27,1.5123c-1.1676,1.254 -2.7955,2.1226 -3.677,3.5919c-0.627,1.0449 -0.4403,2.5679 -1.323,3.4081c-2.2326,2.1249 -6.7573,1.8931 -9.4081,3.3229c-2.0302,1.0951 -2.4135,4.893 -3.0484,6.7976c-2.0221,5.8629 -1.8845,12.0776 -1.8845,18.2885c0,2 0.0666,4.0011 0,6c-0.0238,0.7149 -0.4571,1.4833 -0.1713,2.1389c0.3313,0.7599 1.5096,0.9159 1.8353,1.6782c0.6946,1.6259 1.8073,3.5694 1.0985,5.1891c-0.6414,1.4654 -2.8307,1.4983 -4.301,2.1283c-3.317,1.4213 -8.1756,3.6791 -11.3624,0.3942c-1.0698,-1.1027 -0.6428,-3.0347 -1.307,-4.4201c-1.3167,-2.746 -4.0915,-2.5102 -6.4025,-2.8877c-1.8826,-0.3075 -3.7322,-0.9919 -5.6396,-0.9709c-2.1513,0 -6.3393,-0.8065 -8.348,-0.0966c-1.0224,0.3614 -1.6865,1.3973 -2.6635,1.8678c-0.74,0.3564 -1.7701,0.0395 -2.3975,0.5698c-0.4602,0.3889 -0.3234,1.1686 -0.37,1.7694c-0.1662,2.1413 -0.4241,4.308 -1.0865,6.3511l-3.7354,-1.4582l-0.5336,0.0352c0.0245,-0.0712 0.048,-0.1431 0.0706,-0.2159l-0.1861,-0.0726c0,0 0,-0.8667 0.5379,-1.5242c0.4275,-2.767 0.2735,-6.0679 2.1211,-8.0668c0.877,-0.9488 2.4531,-0.8402 3.6025,-1.4302c1.1742,-0.6029 2.079,-1.7313 3.3365,-2.1323c2.5475,-0.8125 6.9481,-0.0965 9.652,-0.0965c4.5523,0.0393 9.8045,0.6123 13.4265,3.5099c0.9504,0.7604 1.9707,1.5512 2.5315,2.6315c0.56,1.0787 0.1244,2.5055 0.6929,3.5798c0.6675,1.2612 6.0501,-1.4968 6.6376,-1.6058c0.5584,-0.1036 1.2675,0.4976 1.6991,0.1283c0.307,-0.2628 -0.6188,-0.522 -0.9015,-0.8108c-0.7402,-0.7562 -1.7908,-1.332 -2.1648,-2.3219c-0.4553,-1.2051 -0.1391,-2.5732 -0.1713,-3.861c-0.2148,-8.6064 -0.5304,-17.5501 2.1155,-25.7115c0.7157,-2.1473 1.1604,-4.3608 2.2037,-6.2412c-4.2011,-1.9106 -3.0378,-5.6949 -4.9831,-8.8644c-0.4932,-0.8036 -1.516,-1.1909 -2,-2c-0.5786,-0.9671 -0.6065,-2.1848 -1.1073,-3.1944c-0.5865,-1.1824 -1.7165,-2.0838 -2.1322,-3.3365c-0.5798,-1.7469 0.2192,-3.911 -0.7606,-5.4691c-1.0036,-1.5963 -3.0641,-2.3631 -4,-4c-0.3956,-0.6921 0.1832,-1.8158 -0.4016,-2.3576c-0.4247,-0.3936 -1.1077,0.3724 -1.6844,0.4247c-0.9959,0.0903 -2,0.0051 -3,0c-3.9851,-0.0206 -7.5197,1.6282 -11.2885,2.8845c-0.8428,0.2598 -1.7746,0.3218 -2.5286,0.7794c-0.9046,0.5491 -1.341,1.7677 -2.3219,2.1648c-0.9917,0.4016 -2.1931,-0.2613 -3.209,0.0747c-1.0295,0.3406 -1.6943,1.3814 -2.6634,1.8678c-4.6465,2.3317 -10.8515,3.9566 -14.7767,-0.6555c-0.8413,-0.9886 -0.8976,-2.4361 -1.3464,-3.6542l-0.1155,-2.7115c0,0 0,-2.25 2.25,-2.25c2.25,0 2.25,2.25 2.25,2.25l-0.1154,1.2885c0.2178,0.7819 0.1847,1.6831 0.6535,2.3458c2.9267,4.1363 9.8242,-1.8692 12.5599,-2.7878c0.8823,-0.2962 1.9251,0.4159 2.791,0.0748c0.7712,-0.3039 0.9653,-1.4122 1.6781,-1.8353c1.0549,-0.6259 2.3143,-0.8137 3.4714,-1.2205c2.4025,-0.8009 4.6377,-1.5732 6.8884,-2.1537c-0.9443,-0.8823 -1.8483,-1.9438 -2.9169,-3.2853c-0.6663,-0.8365 -1.7486,-1.3571 -2.2179,-2.3179c-2.2794,-4.6667 -0.471,-9.0127 -1.263,-13.7482c-0.411,-2.4572 -1.6845,-6.145 -2.8003,-8.3719c-1.0322,-2.06 -2.609,-3.7996 -3.8509,-5.7404c-0.517,-0.8081 -0.7485,-1.8558 -1.4936,-2.46c-1.5823,-1.2832 -4.0656,-0.8338 -5.8172,-1.8742c-2.0687,-1.2287 -3.6398,-3.1601 -5.6052,-4.5482c-1.9465,-5.2827 -3.1337,-8.5643 -1.3464,-14.0772l1.1374,-0.4233c0.5879,-1.1152 1.9971,-1.1152 1.9971,-1.1152c0.224,0.0179 0.4526,0.0673 0.6815,0.1185l0.3185,-0.1185c0,0 0.4763,0 0.9905,0.2191c0.05,-0.0128 0.0995,-0.0286 0.1485,-0.0479c0.5736,-0.2256 0.8153,-0.9126 1.1913,-1.413c-0.0047,-0.0053 -0.0095,-0.0106 -0.0142,-0.0159l-0.5661,0.5077c0,0 0,-0.4893 0.2282,-1.0116c-0.1461,-0.2983 -0.2282,-0.6338 -0.2282,-0.9884c0,-1.2427 1.0074,-2.25 2.25,-2.25c1.2427,0 2.25,1.0073 2.25,2.25c0,0.3546 -0.082,0.6901 -0.2282,0.9884c0.2282,0.5223 0.2282,1.0116 0.2282,1.0116l-0.659,2.591c-0.91,0.8292 -1.5882,2.0271 -2.7299,2.4877c-0.9825,0.3964 -2.0898,0.218 -3.168,0.1739c-0.6729,3.0314 0.1509,4.9929 1.095,8.3816c1.5859,0.9772 2.8032,2.484 4.3948,3.4518c1.8622,1.1323 4.4754,0.7716 6.1829,2.1259c2.1806,1.7296 5.3937,7.2715 6.6554,9.7995c1.2606,2.5257 2.7376,6.8473 3.1998,9.6282c0.4917,2.9584 -0.3448,6.115 0.0122,9.0855c0.5768,4.8002 4.6414,8.4083 9.0181,9.9826c0.5714,-0.0057 1.1536,0.0077 1.7487,0.0423c1.4431,0.0837 3.1246,-0.3944 4.3156,0.4247c1.0925,0.7513 0.8951,2.5184 1.5984,3.6424c1.0002,1.5984 3.0508,2.3707 4,4c1.1154,1.9146 0.5354,4.4299 1.2395,6.5309c0.3446,1.0281 1.3791,1.6954 1.8677,2.6634c0.4423,0.8762 0.3866,1.9648 0.8928,2.8057c0.4862,0.8077 1.5217,1.1875 2,2c0.648,1.1009 1.2221,6.5827 2.9471,7.1041c0.6846,0.207 1.4259,-0.1141 2.1389,-0.1712c0,0 0.7433,0 1.3755,0.4272c1.6912,-0.5798 3.6436,-1.2351 3.913,-1.3118c0.6954,-0.1978 1.6316,0.0763 2.1205,-0.4564c0.6038,-0.6579 0.2176,-1.8262 0.677,-2.5919c0.9253,-1.5421 5.4371,-6.244 7.053,-6.8958c1.8547,-0.7483 4.2502,0.9687 6,0c1.1616,-0.6431 1.596,-2.2269 2.7524,-2.8793c1.0586,-0.5971 2.634,0.0703 3.5799,-0.6929c0.8815,-0.7113 0.2444,-2.5872 1.2131,-3.1744c1.2842,-0.7785 2.9759,-0.5505 4.4881,-0.4124c-0.3797,-0.5181 -0.7612,-1.0357 -1.0864,-1.5794c-0.5786,-0.9671 -0.602,-2.1871 -1.1073,-3.1944c-0.5389,-1.0742 -1.4775,-1.9176 -2,-3c-1.9317,-4.0013 -1.2404,-8.6835 -1.2288,-12.9885c0.0083,-3.0933 -0.2355,-5.0402 1.2921,-8.1086c2.2634,-4.5466 8.2227,-6.7348 10.9367,-10.8799c0.8674,-2.6638 2.3398,-5.6191 2.8003,-8.3719c0.3651,-2.1829 -0.0388,-4.4264 -0.0291,-6.6396c0.0068,-1.5596 0.3224,-3.3954 -0.6639,-4.8171c-1.3874,-1.9997 -3.9561,-2.8709 -5.6771,-4.5919c-0.9016,-0.9016 -1.3327,-2.185 -2.149,-3.1645c-1.0495,-1.2594 -5.3796,-5.0662 -6.1739,-6.2436c-0.5895,-0.8738 -0.4577,-2.0961 -1,-3c-0.4851,-0.8085 -1.5522,-1.1703 -2,-2c-1.2589,-2.3322 -2.2805,-5.733 0.0221,-8.0382c0.0656,-0.0657 0.2606,-0.1829 0.5513,-0.3375c-0.5519,-0.41 -0.9095,-1.0668 -0.9095,-1.8072c0,-1.2426 1.0074,-2.25 2.25,-2.25c0.2642,0 0.5177,0.0455 0.7532,0.1292c0.0628,-1.1865 1.0447,-2.1292 2.2468,-2.1292c1.2427,0 2.25,1.0074 2.25,2.25c0,0.2716 -0.0481,0.5319 -0.1363,0.773c0.4015,-0.6159 1.0964,-1.023 1.8863,-1.023c0.1784,0 0.352,0.0208 0.5184,0.06c0.27,-0.0603 0.6388,-0.1032 1.0247,-0.0294l0.7541,-0.2514c0.4126,-0.4772 1.0225,-0.7792 1.7028,-0.7792c0.1769,0 0.3489,0.0204 0.514,0.059c0.5676,-0.114 2.0506,-0.2303 2.6206,1.4795c0.7115,2.1345 -1.4231,2.846 -1.4231,2.846l-3,1c0,0 -0.5455,0.1819 -1.1769,0.0859c-2.3591,0.9979 -4.8918,1.6364 -7.0913,2.9454c-1.7189,1.023 2.4174,4.5625 2.4707,4.6513c0.5423,0.9039 0.4209,2.1193 1,3c1.5,2.2811 4.0783,3.6591 5.826,5.7564c0.7226,0.8671 1.0529,2.0374 1.851,2.8355c1.9611,1.9611 4.812,3.0824 6.323,5.4081c1.6335,2.5142 1.3252,4.446 1.336,7.1829c0.0097,2.4535 0.3732,4.9401 -0.029,7.3604c-0.5241,3.153 -2.1717,6.6021 -3.1998,9.6282c-0.81,1.2008 -1.4202,2.5641 -2.4302,3.6024c-2.3209,2.386 -7.0397,4.3524 -8.633,7.5176c-0.9486,1.8844 -0.7138,3.902 -0.708,5.8914c0.0081,2.7337 -0.4443,5.9413 -0.029,8.6396c0.4454,2.8941 1.402,2.5656 2.8002,5.3719c0.4377,0.8784 0.3866,1.9648 0.8928,2.8056c0.4862,0.8078 1.5217,1.1875 2,2c0.3726,0.6331 0.5908,1.338 0.7933,2.0502z" fill="#00840b" stroke="none" stroke-width="0.5" stroke-linecap="butt"/><path d="M177.24858,333.073c0.8778,-6.7935 2.7289,-13.4661 1.709,-20.4404c-0.1525,-1.043 -0.8317,-1.9594 -1,-3c-0.6025,-3.7239 -0.7086,-10.2722 1.307,-13.5433c2.071,-3.3612 5.7959,-3.8161 9.2024,-4.9516c0,0 2.1345,-0.7115 2.8461,1.423c0.7115,2.1345 -1.4231,2.846 -1.4231,2.846c-1.9571,0.6524 -5.64,1.0151 -6.7975,3.0484c-2.1984,3.8618 -0.2387,9.5541 0.307,13.4567c0.5313,3.8005 0.6246,9.8885 0,13.7208c-0.5962,3.658 -1.7027,7.014 -1.977,10.8036l-1.0941,-0.5269c-0.0665,0.2273 -0.1374,0.3691 -0.1374,0.3691l-0.8779,1.7053c-0.7095,1.4337 -0.7211,3.5406 -2.1284,4.301c-0.3492,0.1887 -0.7195,0.2307 -1.1029,0.188c-0.3986,0.6307 -1.102,1.0495 -1.9033,1.0495h-3c-5.7908,-0.0501 -12.6836,-1.6832 -15.9139,-7.0671c-0.0323,-0.0537 -0.0605,-0.1093 -0.0854,-0.1664c-0.7412,-0.3681 -1.2507,-1.1328 -1.2507,-2.0165c0,-0.2483 0.0402,-0.4872 0.1145,-0.7105c-0.3818,-0.0819 -0.8413,-0.0335 -1.2249,-0.0685c-3.1408,-0.2871 -5.2706,1.4999 -8.2792,2c-1.105,0.1836 -2.2498,0.1757 -3.3604,0.029c-0.514,-0.0679 -1.1112,-1.0835 -1.409,-0.659c-0.3596,0.5125 0.6856,1.1458 0.63,1.7694c-0.1043,1.1696 -0.7243,2.2341 -1.0864,3.3511c0,0 -0.7115,2.1346 -2.8461,1.423c-2.1345,-0.7115 -1.423,-2.846 -1.423,-2.846c0.3045,-0.883 0.7091,-1.7376 0.9136,-2.6489c0.3121,-1.3912 -0.4107,-3.256 0.63,-4.2306c1.5357,-1.4383 5.2796,-0.3036 7.2305,-0.63c4.5446,-0.7601 9.4919,-4.4156 13.9514,-0.37c0.3831,0.3475 0.5664,0.8257 0.6984,1.341h0.7106v0.0743c0.1711,-0.0138 0.3433,-0.019 0.517,-0.0141c1.6093,0.0449 2.8616,1.4831 4.3441,2.1111c0.8207,0.3476 1.6246,0.7411 2.429,1.1327c0.8075,0.2695 1.6147,0.5398 2.4215,0.8115c1.0086,0.3395 2.1701,0.3974 3.059,0.9603c0.5372,-0.0751 1.0789,-0.1811 1.5899,-0.0468c0.655,0.1723 0.9894,1.4184 1.6333,1.2085c0.54,-0.176 -0.0855,-1.1327 -0.1283,-1.699l1.1221,-2.2947c0,0 0.3362,-0.6725 1.0086,-1.0456c0.0225,-0.0491 0.0471,-0.0984 0.0739,-0.1474z" fill="#167210" stroke="none" stroke-width="0.5" stroke-linecap="butt"/><path d="M258.17848,269.5222c-2.25,0 -2.25,-2.25 -2.25,-2.25l0.1155,-0.2885c-0.7109,-3.3027 -0.8222,-3.1935 -2.4997,0.0766c-0.8468,0.1758 -2.0241,-0.1663 -2.5405,0.5275c-0.5091,0.684 0.5593,1.7495 0.2535,2.5455c-0.3382,0.88 -1.619,1.1376 -2,2c-0.7411,1.6773 0.4428,3.6904 0.1422,5.4993c-0.9198,5.5344 -3.8466,8.4472 -7.63,12.2306c-0.6208,0.6208 -4.2409,4.3027 -4.7299,4.4877c-5.8608,2.2174 -9.5548,-2.8443 -12.6011,-6.6522c-2.2267,-2.7834 -1.7011,-4.4614 -5.26,-4.1765c0,0 -2.25,0 -2.25,-2.25c0,-2.25 2.25,-2.25 2.25,-2.25c1.287,0.0571 2.6728,-0.3265 3.8611,0.1713c2.5077,1.0505 5.2256,5.5372 6.8789,7.6522c1.122,1.4353 2.6853,4.5673 5.399,3.3478c1.459,-0.6557 2.1389,-2.3812 3.27,-3.5123c3.1513,-3.1512 5.6037,-5.1873 6.3701,-9.7694c0.3642,-2.1779 -0.6647,-4.3226 0.1422,-6.5006c0.3275,-0.8841 1.64,-1.1286 2,-2c0.4409,-1.0672 -0.4415,-2.5325 0.2534,-3.4546c0.7543,-1.0009 2.3064,-0.9816 3.4596,-1.4725c0.8785,-1.1133 1.2523,-3.0267 2.6355,-3.3401c5.4056,-1.2248 5.5829,2.1951 6.8648,5.4167l0.1154,1.7115c0,0 0,2.25 -2.25,2.25z" fill="#167210" stroke="none" stroke-width="0.5" stroke-linecap="butt"/><path d="M224.19098,185.266c1.0062,2.0124 -1.0062,3.0187 -1.0062,3.0187l-3.0063,1.2375c-1,0 -2.004,0.0903 -3,0c-0.5766,-0.0523 -1.1521,-0.6528 -1.6844,-0.4247c-0.9348,0.4006 0.0164,2.1578 0.5984,2.9918c0.5396,0.7732 1.516,1.1909 2,2c1.0973,1.8344 1.4806,4.0954 2.8261,5.7564c0.6554,0.8092 1.6366,1.3516 2.1739,2.2436c0.5073,0.8423 0.2579,2.051 0.8741,2.8172c0.7532,0.9365 2.2515,1.0597 3,2c0.7009,0.8804 0.5447,2.2191 1.1259,3.1828c0.4869,0.8074 1.5217,1.1875 2,2c2.4538,4.1688 2.3469,8.9257 2.307,13.5433c-1.3363,4.1219 -2.6454,8.2644 -4.0864,12.3511c-0.4317,1.2243 -0.5553,2.6251 -1.3465,3.6542c-0.7324,0.9529 -2.2468,1.0635 -3,2c-0.6162,0.7662 -0.3703,1.9729 -0.8741,2.8172c-1.3649,2.2877 -3.9676,4.7779 -4.7605,7.4691c-0.5981,2.03 0.167,4.2329 0.0965,6.348c-0.0238,0.7149 -0.4571,1.4833 -0.1712,2.139c0.3312,0.7599 1.4067,0.9685 1.8352,1.6781c0.5826,0.9647 0.6023,2.1869 1.1072,3.1944c0.5513,1.0999 1.559,1.9444 2.0365,3.0783c0.4783,1.1359 0.1221,2.5728 0.7815,3.6141c0.4991,0.7881 1.606,0.9493 2.4089,1.424c0,0 1.8721,1.2481 0.6241,3.1202c-1.2481,1.8721 -3.1202,0.624 -3.1202,0.624c-1.1971,-0.8586 -2.7538,-1.3639 -3.5911,-2.576c-0.8625,-1.2484 -0.6127,-2.9947 -1.2185,-4.3858c-0.4685,-1.0759 -1.4399,-1.8717 -1.9636,-2.9217c-0.438,-0.8783 -0.3901,-1.9627 -0.8927,-2.8057c-0.542,-0.9088 -1.7908,-1.332 -2.1648,-2.3218c-0.4553,-1.2052 -0.1391,-2.5732 -0.1712,-3.8611c-0.027,-1.0813 0.0211,-7.3816 0.0965,-7.652c0.3547,-1.2713 1.5457,-2.1541 2.1322,-3.3365c0.5008,-1.0096 0.5288,-2.2273 1.1073,-3.1944c0.484,-0.8091 1.5131,-1.1926 2,-2c0.5812,-0.9636 0.425,-2.3024 1.1259,-3.1828c0.7485,-0.9403 2.2266,-1.0801 3,-2c1.2003,-1.4277 1.0637,-3.5763 1.6535,-5.3458c0.9621,-2.8863 1.9216,-5.7727 2.9136,-8.6489c-0.0379,-3.4415 0.2054,-7.3636 -1.693,-10.4567c-0.4932,-0.8035 -1.5169,-1.1903 -2,-2c-0.5038,-0.8443 -0.258,-2.051 -0.8741,-2.8171c-0.7533,-0.9366 -2.2515,-1.0597 -3,-2c-0.7009,-0.8805 -0.5486,-2.2169 -1.1259,-3.1829c-1.1324,-1.8947 -3.107,-3.2267 -4.1073,-5.1943c-0.4447,-0.8749 -0.3866,-1.9648 -0.8927,-2.8057c-0.4862,-0.8077 -1.5523,-1.1702 -2,-2c-1.4608,-2.7073 -2.3572,-6.5255 0.5984,-9.0082c0.6221,-0.5226 6.1137,-0.4247 7.3155,-0.4247l0.9938,-0.7624c0,0 2.0125,-1.0063 3.0187,1.0062z" fill="#167210" stroke="none" stroke-width="0.5" stroke-linecap="butt"/><path d="M124.47308,273.2909c-0.6877,0.2192 -1.4045,0.3773 -2.0831,0.6159c0,0 -2.1345,0.7115 -2.846,-1.4231c-0.7115,-2.1345 1.423,-2.846 1.423,-2.846c0.8429,-0.2598 1.7684,-0.3323 2.5286,-0.7794c1.0072,-0.5924 1.5082,-2.1187 2.666,-2.2759c3.723,-0.5054 4.4586,1.6322 5.9333,2.9568c4.6133,-1.7674 9.0126,-3.8581 13.5549,-5.9241c1.512,-0.6877 2.8857,-2.0857 4.546,-2.0405c0.2063,0.0056 0.3609,0.0969 0.4827,0.2423v-0.2947h3c0.2073,0 0.408,0.028 0.5986,0.0805c-1.7333,-1.8097 -2.9546,-4.1297 -4.6773,-5.9695c-0.1462,-3.2968 -0.1713,-6.5623 -0.1713,-9.861c0,-1.7632 0.8135,-3.6693 0.1155,-5.2885c-0.5074,-1.177 -1.6403,-1.9719 -2.3978,-3.0058c-2.6845,-3.6639 -4.905,-6.3017 -8.7157,-8.8336c-0.6843,-0.4546 -6.2521,-4.1294 -6.5401,-4.5064c-1.3152,-1.7222 -2.0682,-6.1714 -1.2906,-8.2267c0.3228,-0.8533 2.8618,-3.0105 3.9905,-4.18l-0.4444,-0.2517c-0.2922,0.2945 -0.5843,0.5891 -0.8764,0.8837l-0.1932,-1.4894l-2.9888,-1.6926c0.0534,-0.053 0.1068,-0.106 0.1602,-0.159h-2.5692c0,0 -2.25,0 -2.25,-2.25c0,-0.2866 0.0365,-0.5367 0.1002,-0.7549c-1.1728,-0.0771 -2.1002,-1.0528 -2.1002,-2.2451c0,-1.2426 1.0074,-2.25 2.25,-2.25c1.2427,0 2.25,1.0074 2.25,2.25c0,0.263 -0.0451,0.5154 -0.128,0.75h2.878c0,0 2.108,0 2.2432,2.0404c0.9914,-0.7449 1.9281,-1.6118 3.1048,-1.9439c2.7853,-0.786 8.1803,-0.0222 7.8418,4.6704c-0.1066,1.4788 -2.7225,1.2789 -3.824,2.2712c-0.7675,0.6914 -0.9874,1.8262 -1.6258,2.6384c-1.566,1.9926 -5.7163,4.0222 -2.9519,7.2078c1.9952,2.2991 6.2356,3.7004 8.6384,5.6257c2.7511,2.2044 4.7128,4.9842 6.7059,7.8343c0.9853,1.4089 2.3714,2.5948 3.0022,4.1942c0.454,1.1515 0.0941,2.4739 0.1154,3.7115c0.0637,3.7024 0.1243,7.4481 -0.1712,11.139c0.8871,0.8115 1.8852,1.5162 2.6612,2.4345c0.6668,0.789 0.8154,1.9978 1.6258,2.6384c0.7713,0.6098 1.9784,0.361 2.8171,0.8741c3.5781,2.1893 5.6359,6.4485 8.4081,9.323c2.6653,2.7637 6.0335,1.8146 8.323,5.4081c1.5672,2.4598 2.3207,6.6755 3.2206,9.4714c0.4046,1.2573 0.3539,3.3475 1.6498,3.6027c3.3224,0.654 7.495,-2.2712 10.058,-3.8206c0,0 1.9294,-1.1576 3.087,0.7718c1.1576,1.9293 -0.7718,3.087 -0.7718,3.087c-3.6941,2.2016 -9.285,5.7333 -13.942,4.1794c-5.3298,-1.7784 -4.9233,-10.8357 -7.1295,-14.9259c-1.2453,-2.3086 -5.7444,-2.7119 -7.6771,-4.5919c-2.5508,-2.4813 -4.3558,-6.7774 -7.5919,-8.677c-0.8311,-0.4879 -1.9309,-0.4474 -2.7796,-0.8697c0.1363,0.2901 0.2125,0.614 0.2125,0.9557c0,1.2426 -1.0073,2.25 -2.25,2.25h-2.2994c-2.3381,2.4338 -4.7651,2.3184 -7.712,3.7712c-3.4047,1.6785 -4.6368,5.2288 -8.9886,5.2288c-0.9527,0 -1.8916,-0.2716 -2.7863,-0.6529c-0.6149,0.2145 -1.2326,0.4226 -1.8533,0.6239l-3.3604,0.029c0,0 -1.8893,0 -2.2054,-1.7313z" fill="#167210" stroke="none" stroke-width="0.5" stroke-linecap="butt"/><path d="M136.92848,200.2722c0,-1.2426 1.0074,-2.25 2.25,-2.25c1.2427,0 2.25,1.0074 2.25,2.25c0,1.2427 -1.0073,2.25 -2.25,2.25c-1.2426,0 -2.25,-1.0073 -2.25,-2.25z" fill="#167210" stroke="none" stroke-width="0.5" stroke-linecap="butt"/><path d="M1.72708,188.5659c0,-0.1381 0.1119,-0.25 0.25,-0.25c0.138,0 0.25,0.1119 0.25,0.25c0,0.138 -0.112,0.25 -0.25,0.25c-0.1381,0 -0.25,-0.112 -0.25,-0.25z" fill="#00840b" stroke="none" stroke-width="0.5" stroke-linecap="butt"/><path d="M4.72708,201.5659c0,-0.1381 0.1119,-0.25 0.25,-0.25c0.138,0 0.25,0.1119 0.25,0.25c0,0.138 -0.112,0.25 -0.25,0.25c-0.1381,0 -0.25,-0.112 -0.25,-0.25z" fill="#00840b" stroke="none" stroke-width="0.5" stroke-linecap="butt"/><path d="M4.72708,210.5659c0,-0.1381 0.1119,-0.25 0.25,-0.25c0.138,0 0.25,0.1119 0.25,0.25c0,0.138 -0.112,0.25 -0.25,0.25c-0.1381,0 -0.25,-0.112 -0.25,-0.25z" fill="#00840b" stroke="none" stroke-width="0.5" stroke-linecap="butt"/><path d="M19.72708,185.5659c0,-0.1381 0.1119,-0.25 0.25,-0.25c0.138,0 0.25,0.1119 0.25,0.25c0,0.138 -0.112,0.25 -0.25,0.25c-0.1381,0 -0.25,-0.112 -0.25,-0.25z" fill="#00840b" stroke="none" stroke-width="0.5" stroke-linecap="butt"/><path d="M148.56038,217.2325c0,-0.4142 0.3358,-0.75 0.75,-0.75c0.4142,0 0.75,0.3358 0.75,0.75c0,0.4142 -0.3358,0.75 -0.75,0.75c-0.4142,0 -0.75,-0.3358 -0.75,-0.75z" fill="#00840b" stroke="none" stroke-width="0.5" stroke-linecap="butt"/><path d="M155.22708,206.2325c0,-0.4142 0.3357,-0.75 0.75,-0.75c0.4142,0 0.75,0.3358 0.75,0.75c0,0.4142 -0.3358,0.75 -0.75,0.75c-0.4143,0 -0.75,-0.3358 -0.75,-0.75z" fill="#00840b" stroke="none" stroke-width="0.5" stroke-linecap="butt"/><path d="M166.89368,209.8992c0,-0.4142 0.3358,-0.75 0.75,-0.75c0.4142,0 0.75,0.3358 0.75,0.75c0,0.4142 -0.3358,0.75 -0.75,0.75c-0.4142,0 -0.75,-0.3358 -0.75,-0.75z" fill="#00840b" stroke="none" stroke-width="0.5" stroke-linecap="butt"/><path d="M158.11338,199.3689c0.5303,-0.5304 1.0607,0 1.0607,0l0.6666,0.6667c1.1126,1.172 2.4489,0.8917 3.9232,1.1233c0.7683,0.1207 1.3592,0.7771 2.0972,1.0225c2.1889,0.7278 4.1495,0.4181 5.9796,2.1875c0.4498,0.4663 0.5419,1.2085 1,1.6667c0.6134,0.6134 2.0697,1.0709 2.864,1.559c3.9883,2.4506 8.5356,8.7688 4.4694,12.835c0,0 -0.395,0.3949 -0.8441,0.1623c0.0637,0.1624 0.0637,0.3073 0.0637,0.3073c0,2.407 -0.8926,4.6016 -3.5302,5.3838c-1.3508,0.4005 -2.306,-0.6827 -1.8031,-0.0504v1c0,0 0,0.75 -0.75,0.75c-0.75,0 -0.75,-0.75 -0.75,-0.75v-1c0.1038,-0.5362 -0.1249,-1.2802 0.3115,-1.6085c0.6824,-0.5134 1.7419,0.4948 2.5521,0.2247c2.0486,-0.6829 2.4697,-2.1192 2.4697,-3.9496c0,0 0,-0.75 0.75,-0.75c0.1175,0 0.2166,0.0184 0.3002,0.0495c-0.2171,-0.4432 0.1695,-0.8298 0.1695,-0.8298c3.2207,-3.2207 -1.0127,-8.6418 -4.1973,-10.4984c-0.8878,-0.5175 -2.4236,-1.0619 -3.136,-1.7743c-0.4581,-0.4581 -0.5301,-1.2206 -1,-1.6666c-2.6706,-2.7931 -7.8311,-1.662 -11.0551,-3.6109c0.0105,0.1771 -0.0364,0.3177 -0.0364,0.3177c-0.8572,1.6074 2.7584,1.9196 3.55,2.9728c0.7265,0.9664 0.8159,2.6415 0.8218,3.79v1c0,0 0,0.75 -0.75,0.75c-0.75,0 -0.75,-0.75 -0.75,-0.75v-1c0.0052,-0.8427 -0.01,-2.1531 -0.5116,-2.8766c-1.3762,-1.9851 -4.6381,-0.9352 -3.7832,-4.3605c0,0 0.1497,-0.4493 0.5682,-0.5148c-0.018,-0.0169 -0.0359,-0.0339 -0.0537,-0.0511l-0.6667,-0.6667c0,0 -0.5303,-0.5303 0,-1.0606z" fill="#00840b" stroke="none" stroke-width="0.5" stroke-linecap="butt"/><path d="M191.22708,237.5659c0,-0.4142 0.3357,-0.75 0.75,-0.75c0.4142,0 0.75,0.3358 0.75,0.75c0,0.4142 -0.3358,0.75 -0.75,0.75c-0.4143,0 -0.75,-0.3358 -0.75,-0.75z" fill="#00840b" stroke="none" stroke-width="0.5" stroke-linecap="butt"/><path d="M208.22708,219.5659c0,-0.4142 0.3357,-0.75 0.75,-0.75c0.4142,0 0.75,0.3358 0.75,0.75c0,0.4142 -0.3358,0.75 -0.75,0.75c-0.4143,0 -0.75,-0.3358 -0.75,-0.75z" fill="#00840b" stroke="none" stroke-width="0.5" stroke-linecap="butt"/><path d="M230.29478,255.2452c-0.6793,0.3178 -0.9971,-0.3616 -0.9971,-0.3616l-0.0875,-0.1871c-1.7083,-3.8176 -4.9675,-2.3806 -8.2331,-2.3806c0,0 -0.75,0 -0.75,-0.75c0,-0.75 0.75,-0.75 0.75,-0.75c1.4981,0 3.0229,-0.6448 4.3119,-0.6703c2.2347,-0.0441 4.429,2.1566 5.2799,3.9154l0.0875,0.1871c0,0 0.3178,0.6794 -0.3616,0.9971z" fill="#00840b" stroke="none" stroke-width="0.5" stroke-linecap="butt"/><path d="M233.22708,243.5659c0,-0.4142 0.3357,-0.75 0.75,-0.75c0.4142,0 0.75,0.3358 0.75,0.75c0,0.4142 -0.3358,0.75 -0.75,0.75c-0.4143,0 -0.75,-0.3358 -0.75,-0.75z" fill="#00840b" stroke="none" stroke-width="0.5" stroke-linecap="butt"/><path d="M284.22908,333.5102c0.0557,-0.7479 0.8036,-0.6923 0.8036,-0.6923l1.513,0.2413c1.5214,1.2732 2.1886,0.3484 3.9743,1.0115c1.0498,0.3898 1.9478,1.1416 3.0139,1.4844c-0.0413,1.018 0.0681,2.9068 -0.654,3.8344c-0.3104,0.3987 -1.0074,0.3226 -1.3457,0.698c-0.9732,1.08 -1.1961,5.1903 -0.3203,6.3427c0.7454,0.9808 3.9578,1.8753 5.1113,2.4444c3.9885,1.9676 8.2181,4.3786 12.3978,5.7939c0.676,2.0591 4.6458,3.1561 7.0235,3.1422c3.1349,-0.0182 7.1651,0.1935 10.0535,-1.0589c0.9737,-0.4222 2.207,-2.2938 2.9993,-3.0273c1.7843,-1.6519 3.7055,-2.834 5.4718,-4.4384c-0.4151,-3.0431 -2.0416,-5.0892 -3.0143,-7.7903c-0.4383,-1.2172 0.2946,-4.4489 -1.1803,-5.305c-0.4733,-0.2748 -1.2822,0.2795 -1.6361,-0.138c-1.1398,-1.345 -0.1053,-3.6352 0.8257,-4.7962c-0.1574,0.061 -0.6775,0.2094 -0.9599,-0.3553c-0.3354,-0.6708 0.3355,-1.0062 0.3355,-1.0062c0.8096,-0.4006 2.0185,-0.0953 2.591,-0.794c0.3129,-0.3818 -0.2186,-1.1182 0.1216,-1.4759c0.9773,-1.0275 3.7455,-0.7991 5.0128,-0.8062l0.0012,0.0012v-0.0012h0.0015v-0.0031l1.5,0.0002v0c0.4142,0 0.7499,0.3358 0.7499,0.75c0,0.4137 -0.335,0.7492 -0.7486,0.75h-0.0001l-1.4991,0.0029c-0.0141,0 -0.0302,-0.0001 -0.048,-0.0003c-2.053,1.53 -5.5219,1.9237 -6.62,4.5041c-0.2859,0.672 -0.7669,1.7351 -0.1898,2.1825c0.3599,0.279 0.9864,-0.3379 1.3635,-0.0827c0.1586,0.1074 1.5865,2.835 1.6635,3.1295c0.2469,0.9452 -0.2177,2.0131 0.1243,2.9282c1.1682,3.1259 2.8619,5.2242 3.0142,8.8215c-1.8053,1.9382 -3.9091,3.205 -5.8597,5.022c-0.9553,0.8899 -2.2339,2.7557 -3.4049,3.2961c-3.0214,1.3944 -7.3723,1.1901 -10.6641,1.1908c-2.6454,0.0006 -7.1485,-1.1903 -8.056,-3.55c-4.3928,-0.9914 -9.2885,-4.1868 -13.3785,-6.2045c-1.0336,-0.5099 -3.6132,-1.3189 -4.2967,-2.2183c-2.9621,-3.8976 1.2068,-7.9135 2.2856,-10.9222c-0.8342,-0.0462 -1.5453,-0.6358 -2.3218,-0.9442c-1.7871,-0.7099 -2.6163,0.087 -4.3667,-1.2346l-0.6954,0.0769c0,0 -0.7479,-0.0556 -0.6922,-0.8036z" fill="#00840b" stroke="none" stroke-width="0.5" stroke-linecap="butt"/><path d="M303.39138,340.0974c0.4685,-0.5857 1.0542,-0.1172 1.0542,-0.1172l0.1574,0.1259c0.2301,0.1841 0.4314,0.3583 0.6162,0.5199c-0.0131,-1.2999 -0.0423,-2.5808 -0.1607,-3.8814c-0.4069,-2.6055 -2.2015,-1.8454 -3.8435,-3.1901c-0.3313,-0.2713 -2.7828,-3.436 -2.9389,-3.8447c-0.4294,-1.1247 -0.3497,-5.4628 0.132,-6.5662c0.4172,-0.9555 1.5238,-1.4479 2.1052,-2.3133c0.3345,-0.498 1.1564,-2.6471 1.5695,-2.9024c0.8769,-0.542 3.8331,-0.112 4.8943,-0.112c0,0 0.75,0 0.75,0.75c0,0.75 -0.75,0.75 -0.75,0.75c-0.7041,0 -3.5554,-0.4522 -4.1057,-0.112c-0.7668,0.4738 -0.6097,1.7169 -1.1139,2.4641c-0.535,0.7932 -1.5859,1.2078 -1.977,2.081c-0.3619,0.8083 -0.4111,4.6054 -0.1019,5.4288c1.3768,3.6661 6.0066,3.3341 6.8654,7.3584c0.1408,1.5384 0.1676,3.0477 0.1797,4.5919l0.0033,0.4319c0,0 0.0003,0.0388 -0.008,0.0988c0.338,0.1178 0.7353,0.1747 1.2581,0.1571c0,0 0.75,0 0.75,0.75c0,0.75 -0.75,0.75 -0.75,0.75c-2.1269,-0.0514 -2.6984,-0.7483 -4.3112,-2.0385l-0.1574,-0.1259c0,0 -0.5856,-0.4685 -0.1171,-1.0541z" fill="#00840b" stroke="none" stroke-width="0.5" stroke-linecap="butt"/><path d="M316.62118,327.1817c0.3842,0.6441 -0.2599,1.0283 -0.2599,1.0283l-0.1062,0.0633c-1.8773,1.0564 -1.6954,2.7851 -2.6072,4.628c0,0 -0.3354,0.6708 -1.0063,0.3354c-0.6708,-0.3354 -0.3354,-1.0062 -0.3354,-1.0062c1.108,-2.1896 0.9186,-3.8378 3.1805,-5.2454l0.1062,-0.0634c0,0 0.6441,-0.3842 1.0283,0.26z" fill="#00840b" stroke="none" stroke-width="0.5" stroke-linecap="butt"/><path d="M287.22708,327.5659c0,-0.4142 0.3357,-0.75 0.75,-0.75c0.4142,0 0.75,0.3358 0.75,0.75c0,0.4142 -0.3358,0.75 -0.75,0.75c-0.4143,0 -0.75,-0.3358 -0.75,-0.75z" fill="#00840b" stroke="none" stroke-width="0.5" stroke-linecap="butt"/><path d="M316.22708,337.5659c0,-0.4142 0.3357,-0.75 0.75,-0.75c0.4142,0 0.75,0.3358 0.75,0.75c0,0.4142 -0.3358,0.75 -0.75,0.75c-0.4143,0 -0.75,-0.3358 -0.75,-0.75z" fill="#00840b" stroke="none" stroke-width="0.5" stroke-linecap="butt"/><path d="M288.22708,314.5659c0,-0.4142 0.3357,-0.75 0.75,-0.75c0.4142,0 0.75,0.3358 0.75,0.75c0,0.4142 -0.3358,0.75 -0.75,0.75c-0.4143,0 -0.75,-0.3358 -0.75,-0.75z" fill="#00840b" stroke="none" stroke-width="0.5" stroke-linecap="butt"/><path d="M292.22708,310.5659c0,-0.4142 0.3357,-0.75 0.75,-0.75c0.4142,0 0.75,0.3358 0.75,0.75c0,0.4142 -0.3358,0.75 -0.75,0.75c-0.4143,0 -0.75,-0.3358 -0.75,-0.75z" fill="#00840b" stroke="none" stroke-width="0.5" stroke-linecap="butt"/><path d="M284.22708,319.5659c0,-0.4142 0.3357,-0.75 0.75,-0.75c0.1915,0 0.3663,0.0718 0.4988,0.1899c0.1316,-0.1073 0.264,-0.1514 0.264,-0.1514c0.603,-0.201 1.2371,-0.4124 1.8825,-0.6275c-0.2354,-0.1266 -0.3953,-0.3751 -0.3953,-0.661c0,-0.4142 0.3357,-0.75 0.75,-0.75c0.4142,0 0.75,0.3358 0.75,0.75c0,0.1129 -0.025,0.2199 -0.0697,0.3159c1.0531,-0.351 2.1084,-0.7027 3.0825,-1.0274c0,0 0.7115,-0.2372 0.9487,0.4743c0.2371,0.7115 -0.4744,0.9487 -0.4744,0.9487c-0.1657,0.0552 -0.3314,0.1105 -0.4971,0.1657c0.0065,0.04 0.01,0.081 0.01,0.1228c0,0.4142 -0.3358,0.75 -0.75,0.75c-0.2895,0 -0.5407,-0.1641 -0.6657,-0.4042c-1.2631,0.421 -2.5262,0.842 -3.7893,1.263l-0.3079,0.1027c0,0 -0.4455,0.1485 -0.749,-0.1421c-0.1312,0.1125 -0.3017,0.1806 -0.4881,0.1806c-0.1156,0 -0.2251,-0.0262 -0.3229,-0.0729c0.0467,0.0978 0.0729,0.2073 0.0729,0.3229c0,0.1921 -0.0722,0.3673 -0.191,0.5c0.1188,0.1327 0.191,0.3079 0.191,0.5c0,0.4142 -0.3358,0.75 -0.75,0.75c-0.4143,0 -0.75,-0.3358 -0.75,-0.75c0,-0.1921 0.0722,-0.3673 0.1909,-0.5c-0.1187,-0.1327 -0.1909,-0.3079 -0.1909,-0.5c0,-0.4142 0.3357,-0.75 0.75,-0.75c0.1156,0 0.225,0.0261 0.3228,0.0728c-0.0467,-0.0978 -0.0728,-0.2072 -0.0728,-0.3228z" fill="#00840b" stroke="none" stroke-width="0.5" stroke-linecap="butt"/><path d="M257.22708,309.5659c0,-0.4142 0.3357,-0.75 0.75,-0.75c0.4142,0 0.75,0.3358 0.75,0.75c0,0.4142 -0.3358,0.75 -0.75,0.75c-0.4143,0 -0.75,-0.3358 -0.75,-0.75z" fill="#00840b" stroke="none" stroke-width="0.5" stroke-linecap="butt"/><path d="M255.22708,309.5659c0,-0.4142 0.3357,-0.75 0.75,-0.75c0.4142,0 0.75,0.3358 0.75,0.75c0,0.4142 -0.3358,0.75 -0.75,0.75c-0.4143,0 -0.75,-0.3358 -0.75,-0.75z" fill="#00840b" stroke="none" stroke-width="0.5" stroke-linecap="butt"/><path d="M259.31248,303.8951c0,0 0.6708,0.3354 0.3354,1.0062c-0.3354,0.6708 -1.0062,0.3354 -1.0062,0.3354c-0.2653,-0.1326 -0.5305,-0.2652 -0.7957,-0.3978c0.2099,1.6561 0.4305,2.2287 -1.5335,3.3978c0,0 -0.6708,0.3354 -1.0063,-0.3354c-0.3354,-0.6708 0.3355,-1.0062 0.3355,-1.0062c1.4735,-0.505 0.8146,-1.2479 0.6385,-2.643c-0.0927,0.041 -0.1953,0.0638 -0.3031,0.0638c-0.4142,0 -0.75,-0.3358 -0.75,-0.75c0,-0.4142 0.3358,-0.75 0.75,-0.75c0.1858,0 0.3558,0.0675 0.4868,0.1795c0.0266,-0.0241 0.0561,-0.0466 0.089,-0.067c0.1542,-0.1096 0.3241,-0.127 0.4641,-0.1131c0.1939,0.0039 0.335,0.0656 0.4376,0.1508c0.5067,0.2534 1.4526,0.7263 1.8579,0.929z" fill="#00840b" stroke="none" stroke-width="0.5" stroke-linecap="butt"/><path d="M261.39318,306.0952c0.4706,-0.5839 1.0546,-0.1132 1.0546,-0.1132l0.4656,0.3753c1.586,1.2865 3.4836,2.1389 5.3371,3.0217c0.0831,-0.3238 0.3768,-0.5631 0.7266,-0.5631c0.4142,0 0.75,0.3358 0.75,0.75c0,0.1919 -0.0721,0.3669 -0.1907,0.4996c0.1578,0.1624 0.3089,0.441 0.1115,0.8358c-0.3354,0.6708 -1.0063,0.3354 -1.0063,0.3354c-2.2802,-1.1401 -4.6765,-2.1139 -6.6696,-3.7116l-0.4656,-0.3753c0,0 -0.5839,-0.4707 -0.1133,-1.0546z" fill="#00840b" stroke="none" stroke-width="0.5" stroke-linecap="butt"/><path d="M257.08568,294.8238c0.7421,0.1087 0.6335,0.8507 0.6335,0.8507l-0.6589,1.6542c-0.9487,0.3162 -1.8974,0.6325 -2.8461,0.9487c0,0 -0.7115,0.2371 -0.9486,-0.4744c-0.2372,-0.7115 0.4743,-0.9486 0.4743,-0.9486c0.9487,-0.3163 1.8974,-0.6325 2.846,-0.9487l-0.3509,-0.4485c0,0 0.1087,-0.7421 0.8507,-0.6334z" fill="#00840b" stroke="none" stroke-width="0.5" stroke-linecap="butt"/><path d="M257.22708,293.5659c0,-0.4142 0.3357,-0.75 0.75,-0.75c0.4142,0 0.75,0.3358 0.75,0.75c0,0.4142 -0.3358,0.75 -0.75,0.75c-0.4143,0 -0.75,-0.3358 -0.75,-0.75z" fill="#00840b" stroke="none" stroke-width="0.5" stroke-linecap="butt"/><path d="M256.22708,281.5659c0,-0.5 0,-2.5 0,-3c0,0 0,-0.75 0.75,-0.75c0.75,0 0.75,0.75 0.75,0.75c0,0.5 0,1 0,1.5v1.5c0,0 0,0.2818 -0.1728,0.5c0.1728,0.2181 0.1728,0.5 0.1728,0.5c0,1 0,3 0,4c0,0 0,0.75 -0.75,0.75c-0.75,0 -0.75,-0.75 -0.75,-0.75c0,-1 0,-2 0,-3v-1c0,0 0,-0.2819 0.1728,-0.5c-0.1728,-0.2182 -0.1728,-0.5 -0.1728,-0.5z" fill="#00840b" stroke="none" stroke-width="0.5" stroke-linecap="butt"/><path d="M259.22708,307.5659c0,-0.4142 0.3357,-0.75 0.75,-0.75c0.4142,0 0.75,0.3358 0.75,0.75c0,0.4142 -0.3358,0.75 -0.75,0.75c-0.4143,0 -0.75,-0.3358 -0.75,-0.75z" fill="#00840b" stroke="none" stroke-width="0.5" stroke-linecap="butt"/><path d="M-4.27672,213.8601c0.7058,-0.2537 0.9596,0.4521 0.9596,0.4521l0.1507,0.4194c0.2158,0.6002 0.7355,3.4509 1.0916,3.7907c0.4564,0.4355 0.4591,-1.1755 0.7107,-1.754c0.9601,-2.2077 1.9504,-4.6215 2.8867,-6.7709c0.5742,-1.3183 2.2581,-2.3373 2.876,-3.4709c0.2443,-0.4481 -0.1015,-1.1001 0.1896,-1.5194c0.9247,-1.332 3.7399,-1.6788 5.6548,-1.1945c-0.364,-1.7484 -0.9714,-3.1893 -1.0052,-4.9801c0.0199,-3.2174 0.4161,-5.9038 1.002,-8.9975c0.7463,-3.9403 -1.2091,-8.544 1.4819,-12.0591c1.1075,-1.4466 3.2977,-3.5001 5.11,-3.9402c1.9575,-0.4753 2.3059,0.6135 3.793,-0.9286c3.1026,-1.8227 1.2808,-7.4735 1.6525,-10.6452c0.2321,-1.9813 1.2498,-2.6035 2.0653,-4.1813c0.6422,-1.2423 0.7125,-2.975 1.2894,-4.2079c0.4189,-0.8952 1.4372,-1.433 1.8107,-2.3481c0.9227,-2.2609 0.786,-4.5596 0.756,-6.9607c-0.1771,-0.58 -0.432,-1.0292 -0.7206,-1.4396c-0.0203,-0.0171 -0.0313,-0.0281 -0.0313,-0.0281c-0.3535,-0.3535 -0.7071,-0.7071 -1.0606,-1.0606l-0.9394,-0.9394c0,0 -0.5303,-0.5303 0,-1.0606c0.0314,-0.0314 0.0628,-0.0591 0.0941,-0.0834c-0.349,-1.0282 -0.5805,-2.1209 -1.2283,-3.0029c-1.5121,-2.0584 -3.5877,-3.4519 -5.6932,-4.7843c0.1181,0.1675 0.1903,0.4129 0.0286,0.7363c-0.3354,0.6708 -1.0063,0.3354 -1.0063,0.3354c-2.2557,-1.1278 -4.4608,-1.8859 -6.867,-2.6364l-1.0209,-0.3185c0,0 -0.716,-0.2233 -0.4926,-0.9393c0.2233,-0.7159 0.9393,-0.4926 0.9393,-0.4926l1.0208,0.3184c2.2891,0.714 4.4101,1.4413 6.5522,2.4634c-0.494,-0.3115 -0.9857,-0.6241 -1.4682,-0.9456c-0.9805,-0.6534 -2.4248,-2.0631 -3.5455,-2.4024c-0.8878,-0.2688 -1.855,0.0322 -2.7827,0.0322c0,0 -0.75,0 -0.75,-0.75c0,-0.75 0.75,-0.75 0.75,-0.75c0.2561,0 3.0801,-0.0094 3.2174,0.0321c1.2667,0.3836 2.8329,1.8496 3.9429,2.59c2.9529,1.9695 6.2298,3.6562 8.3867,6.627c0.9338,1.2861 1.0698,2.8724 1.7824,4.2436c0.3005,0.5781 0.6241,1.0341 0.9414,1.4674c0.1083,0.1083 0.1981,0.1981 0.2596,0.2595c0,0 0.1642,0.1642 0.2185,0.4013c0.367,0.5284 0.7023,1.0985 0.9533,1.8872c0.0291,1.2818 0.0787,2.5553 0.0032,3.8107c0.8285,0.5523 1.9695,1.313 2.7107,1.8071c0,0 0.624,0.4161 0.208,1.0401c-0.416,0.624 -1.0401,0.208 -1.0401,0.208c-0.6895,-0.4597 -1.3791,-0.9194 -2.0686,-1.3791c-0.1356,0.7735 -0.3456,1.538 -0.6655,2.2913c-0.3934,0.9266 -1.4163,1.4836 -1.8333,2.3998c-0.5715,1.2557 -0.6607,2.999 -1.3191,4.2685c-0.7652,1.4753 -1.7126,1.8418 -1.9067,3.6591c-0.4105,3.8425 1.4966,9.2796 -2.2242,11.6632c-1.7618,1.6021 -2.3089,0.7376 -4.3679,1.2031c-1.476,0.3336 -3.3711,2.253 -4.2674,3.3977c-1.6994,2.1704 -1.1651,5.71 -1.1751,8.2817c-0.0154,3.9909 -0.9703,7.7842 -0.9955,11.8665c-0.0799,1.9256 1.1508,2.8184 0.8129,4.9272l0.9465,0.0309c0.4043,0.0114 0.7286,0.3427 0.7286,0.7497c0,0.4128 -0.3335,0.7477 -0.7458,0.75l-1.4993,0.0098l-0.0004,-0.0582l-0.0282,-0.0009l0.0086,-0.2638c-0.163,0.0112 -0.3248,0.0192 -0.486,0.0252l-0.0347,0.0131c-0.0004,-0.0039 -0.0009,-0.0079 -0.0013,-0.0118c-1.2305,0.0436 -2.4216,-0.0273 -3.7453,0.2705c-0.7147,0.1609 -0.6247,1.3267 -0.9809,1.9669c-0.6195,1.1137 -2.2707,2.0706 -2.8125,3.3411c-0.9282,2.1766 -1.8886,4.5668 -2.8932,6.7859c-0.2301,0.5084 -0.0291,1.2302 -0.4305,1.6178c-0.5724,0.5525 -1.4386,1.1493 -2.2011,0.9226c-0.742,-0.2205 -1.6838,-3.9298 -1.953,-4.6787l-0.1508,-0.4194c0,0 -0.2537,-0.7058 0.452,-0.9595z" fill="#00840b" stroke="none" stroke-width="0.5" stroke-linecap="butt"/><path d="M6.22708,126.5659c0,-0.4142 0.3358,-0.75 0.75,-0.75c0.4142,0 0.75,0.3358 0.75,0.75c0,0.4142 -0.3358,0.75 -0.75,0.75c-0.4142,0 -0.75,-0.3358 -0.75,-0.75z" fill="#00840b" stroke="none" stroke-width="0.5" stroke-linecap="butt"/><path d="M87.97708,219.8159c0.75,0 0.75,0.75 0.75,0.75c0,0.5 0,1.5 0,2c0,0 0,0.75 -0.75,0.75c-0.75,0 -0.75,-0.75 -0.75,-0.75c0,-0.5 0,-1 0,-1.5v-0.5c0,0 0,-0.75 0.75,-0.75z" fill="#00840b" stroke="none" stroke-width="0.5" stroke-linecap="butt"/><path d="M93.72708,212.5659c0,0.75 -0.75,0.75 -0.75,0.75c-0.5,0 -1.5,0 -2,0c0,0 -0.1068,0 -0.2397,-0.0403c-0.5072,0.2175 -1.1865,-0.0062 -1.7603,0.0403c0,0 -0.75,0 -0.75,-0.75c0,-0.75 0.75,-0.75 0.75,-0.75c0.3461,0.0529 0.7624,0.3743 1.0384,0.1588c0.276,-0.2155 0.0652,-0.6973 0.0978,-1.0459l0.1362,-0.5448c0,0 0.1819,-0.7276 0.9095,-0.5457c0.1425,0.0356 0.2501,0.0921 0.331,0.1601c0.0417,-0.037 0.071,-0.0566 0.071,-0.0566c1.1065,-0.7376 2.6584,-1.7722 4.0635,-2.7089c-0.1947,-0.0899 -0.3974,-0.2771 -0.3974,-0.667c0,-0.75 0.75,-0.75 0.75,-0.75c0.5,0 1,0 1.5,0h0.4197c0.0728,-0.0118 0.1528,-0.0146 0.2354,0h0.8449c0,0 0.75,0 0.75,0.75c0,0.75 -0.75,0.75 -0.75,0.75c-0.1499,0 -0.4344,0 -0.773,0c-1.6011,1.0674 -3.2022,2.1348 -4.8033,3.2022l-1.0077,0.6718c0,0 -0.4247,0.2831 -0.8069,0.0319l-0.0177,0.0708c-0.0552,0.1633 -0.0892,0.3417 -0.1187,0.5233c0.3424,0 0.6848,0 1.0273,0h0.5c0,0 0.75,0 0.75,0.75z" fill="#00840b" stroke="none" stroke-width="0.5" stroke-linecap="butt"/><path d="M103.22708,206.5659c0,-0.4142 0.3358,-0.75 0.75,-0.75c0.4142,0 0.75,0.3358 0.75,0.75c0,0.4142 -0.3358,0.75 -0.75,0.75c-0.4142,0 -0.75,-0.3358 -0.75,-0.75z" fill="#00840b" stroke="none" stroke-width="0.5" stroke-linecap="butt"/><path d="M111.22708,204.5659c0,-0.4142 0.3358,-0.75 0.75,-0.75c0.4142,0 0.75,0.3358 0.75,0.75c0,0.4142 -0.3358,0.75 -0.75,0.75c-0.4142,0 -0.75,-0.3358 -0.75,-0.75z" fill="#00840b" stroke="none" stroke-width="0.5" stroke-linecap="butt"/><path d="M114.22708,204.5659c0,-0.4142 0.3358,-0.75 0.75,-0.75c0.4142,0 0.75,0.3358 0.75,0.75c0,0.4142 -0.3358,0.75 -0.75,0.75c-0.4142,0 -0.75,-0.3358 -0.75,-0.75z" fill="#00840b" stroke="none" stroke-width="0.5" stroke-linecap="butt"/><path d="M96.22708,209.5659c0,-0.4142 0.3358,-0.75 0.75,-0.75c0.192,0 0.3673,0.0722 0.5,0.1909c0.1327,-0.1187 0.3079,-0.1909 0.5,-0.1909c0.4142,0 0.75,0.3358 0.75,0.75c0,0.4142 -0.3358,0.75 -0.75,0.75c-0.1921,0 -0.3673,-0.0722 -0.5,-0.191c-0.1327,0.1188 -0.308,0.191 -0.5,0.191c-0.4142,0 -0.75,-0.3358 -0.75,-0.75z" fill="#00840b" stroke="none" stroke-width="0.5" stroke-linecap="butt"/><path d="M90.72708,216.5659c0,0.75 -0.75,0.75 -0.75,0.75c-0.5,0 -2.5,0 -3,0c0,0 -0.75,0 -0.75,-0.75c0,-0.75 0.75,-0.75 0.75,-0.75c0.5,0 1,0 1.5,0h1.5c0,0 0.75,0 0.75,0.75zM85.97708,216.3159c-0.75,0 -0.75,-0.75 -0.75,-0.75c0,-0.5 0,-1.5 0,-2c0,0 0,-0.75 0.75,-0.75c0.75,0 0.75,0.75 0.75,0.75c0,0.5 0,1 0,1.5v0.5c0,0 0,0.75 -0.75,0.75z" fill="#00840b" stroke="none" stroke-width="0.5" stroke-linecap="butt"/><path d="M148.22708,195.5659c0,-0.4142 0.3357,-0.75 0.75,-0.75c0.4142,0 0.75,0.3358 0.75,0.75c0,0.4142 -0.3358,0.75 -0.75,0.75c-0.4143,0 -0.75,-0.3358 -0.75,-0.75z" fill="#00840b" stroke="none" stroke-width="0.5" stroke-linecap="butt"/><path d="M151.44668,195.0355c0.4403,-0.4403 0.8806,-0.1495 1.0174,-0.038c0.3035,-0.292 0.7501,-0.1431 0.7501,-0.1431c0.9487,0.3162 1.8974,0.6324 2.8461,0.9486l0.1539,0.0514c0,0 0.0062,0.002 0.0171,0.0063c0.1473,0.0472 0.3225,0.1444 0.4202,0.3442c0.0712,0.1219 0.1098,0.2802 0.0686,0.4816c-0.0246,0.204 -0.1113,0.3419 -0.2173,0.4351c-0.1559,0.1586 -0.3528,0.1954 -0.5076,0.1937c-0.0117,0.0006 -0.0181,0.0006 -0.0181,0.0006c-1,0 -2,0 -3,0l-1.5304,-1.2197c0,0 -0.5303,-0.5303 0,-1.0607z" fill="#00840b" stroke="none" stroke-width="0.5" stroke-linecap="butt"/><path d="M-10.77292,175.5764c-0.0105,-0.7499 0.7394,-0.7605 0.7394,-0.7605l0.5288,-0.0074c2.1903,0.068 3.047,-2.2858 4.7569,-3.4634c0.1308,-0.5303 0.7262,-0.5292 0.7262,-0.5292l0.2422,0.0004c0.0501,0.0001 0.1009,-0.0001 0.1526,-0.0007c0.6859,-0.1814 1.6004,-0.1664 2.4993,-0.1145c1.3183,-0.052 2.675,-0.0267 3.6411,0.3902c3.1492,1.359 4.7206,5.329 7.7989,6.8038c0,0 0.6708,0.3354 0.3354,1.0062c-0.3354,0.6708 -1.0062,0.3354 -1.0062,0.3354c-3.0208,-1.5607 -4.7001,-5.4001 -7.7327,-6.7726c-0.193,-0.0874 -0.4121,-0.1533 -0.6505,-0.2022c-0.1516,0.054 -0.2814,0.054 -0.2814,0.054c-0.6112,0 -1.4254,-0.0965 -2.2266,-0.1451c-0.7654,0.0418 -1.519,0.113 -2.136,0.1372c-2.6774,0.8437 -2.902,3.8565 -6.0981,4.0003l-0.5288,0.0075c0,0 -0.7499,0.0106 -0.7605,-0.7394z" fill="#00840b" stroke="none" stroke-width="0.5" stroke-linecap="butt"/><path d="M-14.70092,144.2452c0.3206,-0.678 0.9986,-0.3573 0.9986,-0.3573l0.5842,0.2763c1.2902,0.6203 2.2993,2.2367 3.4733,2.7053c2.0522,0.8192 6.3903,-0.0602 8.6482,-0.0691c0.9373,-0.1759 1.767,-0.7393 2.6942,-0.9624c3.3856,-0.8144 7.5123,0.1938 10.6966,1.0178c0.7652,0.198 2.4471,-0.0559 3.1242,0.262c1.4706,0.6903 2.054,2.588 3.0096,3.7059c1.0506,1.229 3.3523,2.3606 4.7845,3.0713c0,0 0.6708,0.3355 0.3354,1.0063c-0.3354,0.6708 -1.0063,0.3354 -1.0063,0.3354c-1.6221,-0.8165 -4.0279,-2.0511 -5.2449,-3.4281c-0.7647,-0.8651 -1.3498,-2.7938 -2.5126,-3.3316c-0.8669,-0.4008 -1.9341,0.0652 -2.8604,-0.1677c-2.9463,-0.7409 -6.8381,-1.8105 -9.9667,-1.015c-0.9931,0.2525 -1.9014,0.8031 -2.9072,0.9989c-2.5106,0.0205 -7.0326,0.8981 -9.3517,-0.031c-1.3057,-0.5231 -2.1861,-2.1059 -3.5576,-2.7421l-0.5841,-0.2763c0,0 -0.678,-0.3206 -0.3573,-0.9986z" fill="#00840b" stroke="none" stroke-width="0.5" stroke-linecap="butt"/><path d="M50.08549,25.01758c4.35934,-5.1889 11.92648,-5.35024 16.90169,-0.36035c4.97522,4.98989 5.47449,13.24144 1.11515,18.43034c-4.35934,5.1889 -11.92647,5.35024 -16.90169,0.36035c-4.97521,-4.98989 -5.47447,-13.24143 -1.11514,-18.43033z" data-paper-data="{&quot;index&quot;:null}" fill="url(#color-73)" stroke="none" stroke-width="0" stroke-linecap="butt"/><path d="M112.30549,-2.59613c3.69046,-4.39274 10.09652,-4.52932 14.30835,-0.30505c4.21183,4.22426 4.6345,11.20972 0.94405,15.60246c-3.69045,4.39273 -10.09652,4.52932 -14.30836,0.30506c-4.21183,-4.22426 -4.63449,-11.20971 -0.94403,-15.60245z" data-paper-data="{&quot;index&quot;:null}" fill="url(#color-74)" stroke="none" stroke-width="0" stroke-linecap="butt"/><path d="M-25.60852,24.0566c1.21288,-12.65703 9.76143,-13.28234 18.79286,-21.33939c8.54561,-7.62363 27.15832,-30.39365 27.15832,-30.39365l35.22107,7.71339c0,0 12.15251,-4.93895 24.33894,-2.8475c17.86007,3.06517 38.08879,14.34351 39.12964,21.73849c0.21783,1.54763 5.50301,5.35721 2.47696,9.92034c-5.78082,8.71718 -23.34687,20.18439 -34.36575,23.88545c-5.51487,1.85236 -17.81817,8.46435 -22.81485,5.79402c-5.14111,-2.74753 -2.89897,-14.79394 -2.99154,-13.82795c-0.54947,5.734 -9.01498,12.97647 -9.97061,20.44387c-0.94033,7.34781 -9.59576,14.38282 -9.59576,14.38282c0,0 -1.03573,18.90075 -11.47036,19.32347c-7.25125,0.29376 -17.41236,6.16982 -22.71013,6.13063c-10.38837,-0.07683 -34.61543,-18.01758 -34.61543,-18.01758c0,0 5.27522,-10.53477 5.49382,-20.2284c0.19468,-8.63334 -4.708,-16.09474 -4.07716,-22.67794z" data-paper-data="{&quot;index&quot;:null}" fill="url(#color-75)" stroke="none" stroke-width="0" stroke-linecap="butt"/><path d="M28.97794,78.08437c0,1.25 -1.25,1.25 -1.25,1.25l-2.88388,-0.36611c-0.19026,-1.53938 -0.75457,-4.08898 -0.0124,-5.65366c0.34851,-0.73475 1.36298,-0.98879 1.74143,-1.70858c0.52351,-0.99565 -0.21334,-2.24075 -0.38002,-3.35322c-0.44552,-1.58111 -0.33505,-3.27497 -0.68156,-4.88069c-0.49263,-2.28279 -2.51933,-3.82388 -3.79307,-5.55057c-0.41683,-0.56506 -0.43356,-1.39373 -0.93038,-1.88994c-1.54229,-1.54037 -4.20899,-2.48278 -5.86957,-3.8947c-0.22663,-0.19269 -2.66881,-3.66965 -2.85012,-3.88803c-0.34969,-0.42119 -3.32066,-3.41209 -3.53561,-3.74721c-1.76551,-2.75242 -2.05207,-5.72631 -2.07545,-8.78166c-0.67947,-0.05062 -1.35291,-0.15428 -2.01655,-0.31905c-0.1924,-0.04777 -3.95665,-1.94094 -4.27182,-2.09853c-0.41581,-0.2079 -4.13019,-2.04479 -4.32486,-2.23415c-0.53428,-0.5197 -0.48182,-1.46424 -1,-2c-1.03638,-1.07152 -2.97057,-0.9218 -4,-2c-0.67184,-0.70368 -0.88846,-1.73113 -1.33268,-2.5967l-0.03343,-2.28719c0,0 0,-1.25 1.25,-1.25c1.25,0 1.25,1.25 1.25,1.25l-0.03344,1.71281c1.16023,2.43983 2.79116,1.57833 4.66732,3.4033c0.53429,0.5197 0.48182,1.46424 1,2c0.94489,0.97693 2.4595,1.15804 3.67514,1.76585c1.24775,0.62388 2.37553,1.56025 3.72818,1.90148c0.48031,0.12116 0.96652,0.20369 1.45695,0.25198c0.00334,-0.34466 0.00586,-0.68987 0.00586,-1.03542c0,0 0,-1.25 1.25,-1.25c1.25,0 1.25,1.25 1.25,1.25c0,0.33617 -0.00389,0.67307 -0.00944,1.0103c4.03223,-0.43671 8.15338,-2.61873 11.47225,-4.22686c1.33354,-0.01949 2.70943,0.33211 4.00104,-0.00024c1.56473,-0.40263 2.82677,-1.70087 4.41403,-2.00268c0.21182,-0.04028 0.41963,-0.07233 0.62383,-0.09684c0.0132,-6.27987 0.12151,-12.58347 0.97892,-18.78638c0.30878,-2.23383 1.30154,-4.75366 0.98192,-7.06892c-0.66602,-4.82442 -4.58457,-8.32674 -7.40778,-12.04372c-1.57708,-2.10515 -3.2354,-3.03167 -5.33259,-4.58239c-0.70738,-0.52306 -1.66916,-0.84638 -2.08042,-1.6241c-0.17835,-0.33725 -0.14175,-3.96883 -0.14175,-4.57816v-1c0,0 0,-1.25 1.25,-1.25c1.25,0 1.25,1.25 1.25,1.25v1c0,1.14159 -0.68072,2.4155 -0.14175,3.42184c0.62663,1.16999 2.25833,1.39782 3.34465,2.16035c1.45358,1.02033 2.76066,2.28219 3.84275,3.6904c3.11708,4.10447 7.17921,7.8691 7.89421,13.21979c0.34509,2.58249 -0.63123,5.25701 -0.98326,7.75069c-0.86113,6.09994 -0.94945,12.31391 -0.95659,18.49579c2.3765,0.37948 4.40497,1.5699 6.95023,2.02729c1.1236,0.20191 3.16353,-0.33203 4.19506,0.048c1.56899,0.57805 2.45039,2.41886 4.01618,3.00552c0.69322,0.25973 1.58846,-0.25798 2.21681,0.13342c0.27773,0.17301 3.39901,4.43901 3.50771,4.83401c0.66716,2.42424 -0.90761,4.80096 -0.88598,7.2129c0,0 0,1.25 -1.25,1.25c-1.25,0 -1.25,-1.25 -1.25,-1.25c0.01427,-1.94473 1.53505,-4.72096 0.98329,-6.5222c-0.39328,-1.28385 -1.11511,-2.65548 -2.28229,-3.31926c-0.53969,-0.30692 -1.28497,0.24979 -1.86246,0.0218c-1.54519,-0.61004 -2.4333,-2.39813 -3.98381,-2.99448c-1.18387,-0.45534 -2.55698,0.27483 -3.80495,0.048c-2.39098,-0.43458 -4.30674,-1.65391 -6.54994,-2.02096c0.0001,0.26246 0.00017,0.52484 0.00017,0.7871c0,0 0,1.25 -1.25,1.25c-1.25,0 -1.25,-1.25 -1.25,-1.25c0,-0.26353 -0.00004,-0.52714 -0.00006,-0.79082c-0.05253,0.00871 -0.10531,0.01802 -0.15835,0.02794c-1.2339,0.23075 -3.15853,1.69476 -4.30544,1.97968c-0.363,0.09017 -3.39296,0.01159 -3.99896,-0.00024c-3.4917,1.81123 -7.81749,3.88026 -12.08471,4.28537c-0.00197,2.59945 0.22416,5.15441 1.70663,7.46556c0.87253,1.36027 2.32246,2.25667 3.35478,3.50004c0.93534,1.12657 1.41434,2.65028 2.54558,3.57996c1.74435,1.43357 4.43339,2.44559 6.04331,4.0572c0.57684,0.57744 0.66914,1.50361 1.15674,2.15816c1.5189,2.03896 3.58436,3.7819 4.20692,6.44942c0.37692,1.61503 0.23019,3.3341 0.69204,4.92692c0.16306,1.09393 0.70352,3.77305 0.24637,4.83916c-0.33637,0.78445 -1.39346,1.0733 -1.7941,1.82695c-0.44608,0.83912 -0.16562,1.9129 -0.47687,2.81081l1.11612,-0.36612c0,0 1.25,0 1.25,1.25z" fill="#00840b" stroke="none" stroke-width="0.5" stroke-linecap="butt"/><path d="M9.60991,-6.47464c0.55902,-1.11803 1.67705,-0.55902 1.67705,-0.55902l2.32486,1.23415c1.177,2.22173 2.94573,4.13836 3.35276,6.70161c0.5445,3.42897 -1.53788,6.57637 -1.99872,9.85565c-0.04038,0.28735 -0.06402,0.57584 -0.07603,0.86512c1.03994,2.50057 0.05186,7.69045 -0.0322,10.39126c-0.04919,1.58055 -0.27039,3.15136 -0.4446,4.72304c-0.0433,0.39063 -0.2503,1.48686 -0.00591,1.17906c0.32145,-0.40487 0.18717,-1.01683 0.28077,-1.52524c0,0 0.69337,-1.04006 1.73344,-0.34669c1.04006,0.69337 0.34669,1.73344 0.34669,1.73344c-2.3065,2.43814 -3.00308,4.90152 -4.81852,-0.61518c-0.29333,-0.89136 0.26314,-1.85945 0.33643,-2.79497c0.19149,-2.44449 0.15707,-4.94824 0.17359,-7.39907c0.00296,-0.43986 0.0658,-0.89011 0.13698,-1.34139c-0.11855,-0.28282 -0.11855,-0.54278 -0.11855,-0.54278c0,-0.25461 -0.00088,-1.55651 0.00067,-2.72202c-0.6524,-1.25517 -2.15708,-1.91575 -3.17009,-2.92963c-2.28205,-2.28402 -4.76825,-7.0926 -7.98259,-8.16476c-0.7141,-0.23819 -1.627,0.2946 -2.25515,-0.12027c-0.69562,-0.45944 -0.63724,-1.58995 -1.22672,-2.17943c-0.58948,-0.58948 -1.45296,-0.81781 -2.17943,-1.22672c-0.06223,-0.88572 -0.12446,-1.77145 -0.18668,-2.65717l-0.63389,-0.11611c0,0 -0.88389,-0.88388 0,-1.76777c0.88389,-0.88389 1.76776,0 1.76776,0l1.36612,1.88388c-0.06223,0.44761 -0.12446,0.89523 -0.18669,1.34284c0.60685,0.25776 1.35436,0.30706 1.82057,0.77328c0.46622,0.46622 0.22685,1.45161 0.77328,1.82057c0.48317,0.32625 1.19519,-0.31458 1.74485,-0.12028c3.80612,1.34547 6.23746,6.05771 8.94634,8.76418c0.16756,0.16742 0.87532,0.86817 1.63627,1.63511c0.66373,-2.6223 2.19157,-5.35024 1.77874,-8.03341c-0.30804,-2.00214 -1.81711,-3.50361 -2.64724,-5.29839l-1.67514,-0.76585c0,0 -1.11803,-0.55902 -0.55902,-1.67705z" fill="#00840b" stroke="none" stroke-width="0.5" stroke-linecap="butt"/><path d="M97.72794,-17.16562c1.25,0 1.25,1.25 1.25,1.25l-0.18669,2.65717c-0.72647,0.40891 -1.58559,0.64164 -2.17943,1.22672c-1.12445,1.10787 -0.92972,3.27967 -2.22672,4.17943c-0.65045,0.45123 -1.60443,-0.04836 -2.36997,0.15325c-2.96891,0.78186 -5.93356,2.22497 -8.98099,2.99484c-0.71622,0.18093 -1.5319,0.017 -2.18698,0.35842c-1.34745,0.70228 -3.50603,3.28718 -3.91917,4.78002c-0.21684,0.78353 0.06607,1.69596 -0.30377,2.41994c-0.4426,0.86642 -1.3416,1.40941 -2.0124,2.11411c0,0 -0.12542,0.12542 -0.32903,0.23454c0.03064,1.26659 -0.04408,2.46051 -0.38586,3.31685c-0.35317,0.88486 -1.20238,1.47853 -1.78218,2.23452c-0.61346,0.79988 -0.94073,1.90038 -1.79699,2.4323c-0.65278,0.40553 -1.55745,-0.07335 -2.30263,0.11447c-1.4455,0.36433 -2.5512,1.64901 -4,2c-0.53039,0.12849 -1.16597,-0.44044 -1.63003,-0.15325c-1.08784,0.67324 -1.38236,3.88445 -1.40768,4.97253c-0.08711,3.74304 -0.99948,7.21994 -0.99948,10.96416c0,0 0,1.25 -1.25,1.25c-1.25,0 -1.25,-1.25 -1.25,-1.25c0,-3.13996 0.61967,-5.91251 0.88436,-9.01462c0.22196,-2.60139 -0.03543,-4.15011 1.24761,-6.5444c0.45647,-0.85182 0.66681,-1.95344 1.46087,-2.5043c0.65045,-0.45123 1.60332,0.04406 2.36997,-0.15325c1.44367,-0.37155 2.5531,-1.64128 4,-2c0.55041,-0.13646 1.21184,0.40744 1.69737,0.11446c0.56646,-0.34181 0.58787,-1.19253 0.97651,-1.72794c0.41982,-0.57836 1.15219,-0.93689 1.43443,-1.59345c0.72183,-1.67921 -0.07111,-5.70039 -0.07111,-7.5765c0,-3.6624 0.08679,-8.13223 -0.95312,-11.66087c-0.21565,-0.73174 -0.85215,-1.30633 -1.01345,-2.05194c-0.47197,-2.18165 -0.03343,-5.03746 -0.03343,-7.28719v-1c0,0 0,-1.25 1.25,-1.25c1.25,0 1.25,1.25 1.25,1.25v1c0,2.03695 -0.48398,4.74596 -0.03344,6.71281c0.16253,0.7095 0.78812,1.24775 0.98655,1.94806c1.07348,3.78856 1.04689,8.43005 1.04689,12.33913c0,0.47221 0.03269,1.02376 0.07688,1.61994c1.69866,-2.72247 2.03464,-6.34615 5.62496,-8.26082c0.81912,-0.43683 1.82934,-0.32917 2.72653,-0.56759c3.03332,-0.8061 6.04767,-2.30679 9.03444,-3.00807c0.53129,-0.12475 1.16597,0.44044 1.63003,0.15325c1.19387,-0.73887 0.78753,-2.8208 1.77328,-3.82057c0.46291,-0.4695 1.21372,-0.51552 1.82057,-0.77328l-0.18668,-1.34284c0,0 0,-1.25 1.25,-1.25z" fill="#00840b" stroke="none" stroke-width="0.5" stroke-linecap="butt"/><path d="M76.72794,98.33438c0.75,0 0.75,0.75 0.75,0.75c0,0.5 0,1.5 0,2c0,0 0,0.75 -0.75,0.75c-0.75,0 -0.75,-0.75 -0.75,-0.75c0,-0.5 0,-1 0,-1.5v-0.5c0,0 0,-0.75 0.75,-0.75z" fill="#00bf10" stroke="none" stroke-width="0.5" stroke-linecap="butt"/><path d="M79.25827,95.61471c-0.53033,0.53033 -1.06066,0 -1.06066,0c-0.35355,-0.35355 -1.64645,-1.64645 -2,-2c0,0 -0.53033,-0.53033 0,-1.06066c0.53033,-0.53033 1.06066,0 1.06066,0c0.35355,0.35355 0.70711,0.70711 1.06066,1.06066l0.93934,0.93934c0,0 0.53033,0.53033 0,1.06066z" fill="#00bf10" stroke="none" stroke-width="0.5" stroke-linecap="butt"/><path d="M111.97794,77.08438c0,-0.41421 0.33579,-0.75 0.75,-0.75c0.41421,0 0.75,0.33579 0.75,0.75c0,0.41421 -0.33579,0.75 -0.75,0.75c-0.41421,0 -0.75,-0.33579 -0.75,-0.75z" fill="#00bf10" stroke="none" stroke-width="0.5" stroke-linecap="butt"/><path d="M183.97794,101.08438c0,-0.41421 0.33579,-0.75 0.75,-0.75c0.41421,0 0.75,0.33579 0.75,0.75c0,0.41421 -0.33579,0.75 -0.75,0.75c-0.41421,0 -0.75,-0.33579 -0.75,-0.75z" fill="#00bf10" stroke="none" stroke-width="0.5" stroke-linecap="butt"/><path d="M196.97794,118.08438c0,-0.41421 0.33579,-0.75 0.75,-0.75c0.41421,0 0.75,0.33579 0.75,0.75c0,0.41421 -0.33579,0.75 -0.75,0.75c-0.41421,0 -0.75,-0.33579 -0.75,-0.75z" fill="#00bf10" stroke="none" stroke-width="0.5" stroke-linecap="butt"/><path d="M231.97794,176.08438c0,-0.41421 0.33579,-0.75 0.75,-0.75c0.41421,0 0.75,0.33579 0.75,0.75c0,0.41421 -0.33579,0.75 -0.75,0.75c-0.41421,0 -0.75,-0.33579 -0.75,-0.75z" fill="#00bf10" stroke="none" stroke-width="0.5" stroke-linecap="butt"/><path d="M243.97794,165.08438c0,-0.41421 0.33579,-0.75 0.75,-0.75c0.41421,0 0.75,0.33579 0.75,0.75c0,0.41421 -0.33579,0.75 -0.75,0.75c-0.41421,0 -0.75,-0.33579 -0.75,-0.75z" fill="#00bf10" stroke="none" stroke-width="0.5" stroke-linecap="butt"/><path d="M337.01643,47.8472c0.23717,-0.71151 0.94868,-0.47434 0.94868,-0.47434c0.94868,0.31623 2.05132,0.68377 3,1c0,0 0.71151,0.23717 0.47434,0.94868c-0.23717,0.71151 -0.94868,0.47434 -0.94868,0.47434c-0.94868,-0.31623 -1.89737,-0.63246 -2.84605,-0.94868l-0.15395,-0.05132c0,0 -0.71151,-0.23717 -0.47434,-0.94868z" fill="#00bf10" stroke="none" stroke-width="0.5" stroke-linecap="butt"/><path d="M311.97794,63.08438c0,-0.41421 0.33579,-0.75 0.75,-0.75c0.41421,0 0.75,0.33579 0.75,0.75c0,0.41421 -0.33579,0.75 -0.75,0.75c-0.41421,0 -0.75,-0.33579 -0.75,-0.75z" fill="#00bf10" stroke="none" stroke-width="0.5" stroke-linecap="butt"/><path d="M286.97794,104.08438c0,-0.41421 0.33579,-0.75 0.75,-0.75c0.41421,0 0.75,0.33579 0.75,0.75c0,0.41421 -0.33579,0.75 -0.75,0.75c-0.41421,0 -0.75,-0.33579 -0.75,-0.75z" fill="#00bf10" stroke="none" stroke-width="0.5" stroke-linecap="butt"/><path d="M326.47794,228.08438c0,0.75 -0.75,0.75 -0.75,0.75c-0.5,0 -2.5,0 -3,0c0,0 -0.75,0 -0.75,-0.75c0,-0.75 0.75,-0.75 0.75,-0.75c0.5,0 1,0 1.5,0h1.5c0,0 0.75,0 0.75,0.75z" fill="#00bf10" stroke="none" stroke-width="0.5" stroke-linecap="butt"/><path d="M339.97794,216.08438c0,-0.41421 0.33579,-0.75 0.75,-0.75c0.41421,0 0.75,0.33579 0.75,0.75c0,0.41421 -0.33579,0.75 -0.75,0.75c-0.41421,0 -0.75,-0.33579 -0.75,-0.75z" fill="#00bf10" stroke="none" stroke-width="0.5" stroke-linecap="butt"/></g></g></svg>