<svg version="1.1" xmlns="http://www.w3.org/2000/svg" xmlns:xlink="http://www.w3.org/1999/xlink" width="19.88555" height="3.70448" viewBox="0,0,19.88555,3.70448"><defs><linearGradient x1="237.024" y1="195.24711" x2="249.7204" y2="195.24711" gradientUnits="userSpaceOnUse" id="color-1"><stop offset="0" stop-color="#a6f8ff"/><stop offset="1" stop-color="#a6f8ff" stop-opacity="0"/></linearGradient><linearGradient x1="243.13226" y1="196.02991" x2="246.87624" y2="196.02991" gradientUnits="userSpaceOnUse" id="color-2"><stop offset="0" stop-color="#818181"/><stop offset="1" stop-color="#cccccc"/></linearGradient><linearGradient x1="243.05585" y1="194.26593" x2="246.79983" y2="194.26593" gradientUnits="userSpaceOnUse" id="color-3"><stop offset="0" stop-color="#818181"/><stop offset="1" stop-color="#cccccc"/></linearGradient><radialGradient cx="254.32599" cy="195.09468" r="1.9484" gradientUnits="userSpaceOnUse" id="color-4"><stop offset="0" stop-color="#49c3f5"/><stop offset="1" stop-color="#00ffff"/></radialGradient><linearGradient x1="247.29648" y1="195.16072" x2="252.95065" y2="195.16072" gradientUnits="userSpaceOnUse" id="color-5"><stop offset="0" stop-color="#818181"/><stop offset="1" stop-color="#cccccc"/></linearGradient></defs><g transform="translate(-237.024,-193.30148)"><g data-paper-data="{&quot;isPaintingLayer&quot;:true}" fill-rule="nonzero" stroke-width="0.5" stroke-linejoin="miter" stroke-miterlimit="10" stroke-dasharray="" stroke-dashoffset="0" style="mix-blend-mode: normal"><path d="M249.7204,195.24711c0,0.7285 -2.84219,1.31907 -6.3482,1.31907c-3.50602,0 -6.3482,-1.31907 -6.3482,-1.31907c0,0 2.84219,-1.31907 6.3482,-1.31907c3.50602,0 6.3482,0.59057 6.3482,1.31907z" fill="url(#color-1)" stroke="none" stroke-linecap="butt"/><path d="M246.87624,195.31547l1.68097,0.68587c0,0 -1.62958,0.63374 -2.51216,0.75463c-0.92386,0.12654 -2.91279,-0.0116 -2.91279,-0.0116c0,0 0.76408,-0.5003 0.76408,-0.74302c0,-0.2332 -0.38204,-0.68587 -0.38204,-0.68587z" data-paper-data="{&quot;index&quot;:null}" fill="url(#color-2)" stroke="#000000" stroke-linecap="butt"/><path d="M243.43788,194.98037c0,0 0.38204,-0.45267 0.38204,-0.68587c0,-0.24272 -0.76408,-0.74302 -0.76408,-0.74302c0,0 1.98894,-0.13814 2.91279,-0.0116c0.88257,0.12088 2.51216,0.75463 2.51216,0.75463l-1.68097,0.68587z" fill="url(#color-3)" stroke="#000000" stroke-linecap="butt"/><path d="M256.58002,195.09468c0,0 -1.17796,1.37173 -2.25403,1.37173c-1.07607,0 -1.48995,-0.55699 -1.48995,-1.31458c0,-0.75758 0.41388,-1.42889 1.48995,-1.42889c1.07607,0 2.25403,1.37173 2.25403,1.37173z" fill="url(#color-4)" stroke="#000000" stroke-linecap="butt"/><path d="M247.29648,196.12348l-3.51476,-0.97164l3.51476,-0.83955l5.65417,-0.28578v2.26844z" fill="url(#color-5)" stroke="#000000" stroke-linecap="butt"/><path d="M252.454,194.75175l-6.34184,0.05716" fill="none" stroke="#000000" stroke-linecap="round"/><path d="M249.32128,195.95201v-1.0288" fill="none" stroke="#000000" stroke-linecap="round"/><path d="M249.62691,195.15184c0,-0.06313 0.06842,-0.11431 0.15282,-0.11431c0.0844,0 0.15282,0.05118 0.15282,0.11431c0,0.06313 -0.06842,0.11431 -0.15282,0.11431c-0.0844,0 -0.15282,-0.05118 -0.15282,-0.11431z" fill="#000000" stroke="none" stroke-linecap="butt"/><path d="M249.85614,195.8377c0,-0.06313 0.06842,-0.11431 0.15282,-0.11431c0.0844,0 0.15282,0.05118 0.15282,0.11431c0,0.06313 -0.06842,0.11431 -0.15282,0.11431c-0.0844,0 -0.15282,-0.05118 -0.15282,-0.11431z" fill="#000000" stroke="none" stroke-linecap="butt"/></g></g></svg>