<svg version="1.1" xmlns="http://www.w3.org/2000/svg" xmlns:xlink="http://www.w3.org/1999/xlink" width="91.51206" height="86.05495" viewBox="0,0,91.51206,86.05495"><defs><radialGradient cx="240" cy="180.00001" r="45.75603" gradientUnits="userSpaceOnUse" id="color-1"><stop offset="0" stop-color="#ffee39"/><stop offset="1" stop-color="#ffee39" stop-opacity="0"/></radialGradient><radialGradient cx="240" cy="180" r="43.88371" gradientUnits="userSpaceOnUse" id="color-2"><stop offset="0" stop-color="#ffee39"/><stop offset="1" stop-color="#ffee39" stop-opacity="0"/></radialGradient><radialGradient cx="239.99998" cy="180.00002" r="40.4132" gradientUnits="userSpaceOnUse" id="color-3"><stop offset="0" stop-color="#ffffff"/><stop offset="1" stop-color="#ffffff" stop-opacity="0"/></radialGradient><radialGradient cx="239.35959" cy="151.82215" r="3.20485" gradientUnits="userSpaceOnUse" id="color-4"><stop offset="0" stop-color="#fffbce"/><stop offset="1" stop-color="#fffbce" stop-opacity="0"/></radialGradient><radialGradient cx="268.04978" cy="181.02467" r="3.20485" gradientUnits="userSpaceOnUse" id="color-5"><stop offset="0" stop-color="#fffbce"/><stop offset="1" stop-color="#fffbce" stop-opacity="0"/></radialGradient><radialGradient cx="240.38425" cy="208.6902" r="3.20486" gradientUnits="userSpaceOnUse" id="color-6"><stop offset="0" stop-color="#fffbce"/><stop offset="1" stop-color="#fffbce" stop-opacity="0"/></radialGradient><radialGradient cx="211.69405" cy="181.28082" r="3.20486" gradientUnits="userSpaceOnUse" id="color-7"><stop offset="0" stop-color="#fffbce"/><stop offset="1" stop-color="#fffbce" stop-opacity="0"/></radialGradient></defs><g transform="translate(-194.24397,-136.97253)"><g data-paper-data="{&quot;isPaintingLayer&quot;:true}" fill-rule="nonzero" stroke-linejoin="miter" stroke-miterlimit="10" stroke-dasharray="" stroke-dashoffset="0" style="mix-blend-mode: normal"><path d="M240,223.02749c-25.27037,0 -45.75603,-19.26404 -45.75603,-43.02746c0,-23.76339 20.48566,-43.02749 45.75603,-43.02749c25.27037,0 45.75603,19.26405 45.75603,43.02749c0,23.76339 -20.48567,43.02746 -45.75603,43.02746z" fill="url(#color-1)" stroke="none" stroke-width="0" stroke-linecap="butt"/><path d="M240,221.26681c-24.23631,0 -43.88371,-18.47576 -43.88371,-41.26679c0,-22.791 19.64739,-41.26681 43.88371,-41.26681c24.23631,0 43.88371,18.47577 43.88371,41.26681c0,22.791 -19.6474,41.26679 -43.88371,41.26679z" fill="url(#color-2)" stroke="none" stroke-width="0" stroke-linecap="butt"/><path d="M238.93651,220.53356c-21.68239,-0.57265 -38.78323,-19.18438 -38.19592,-41.57043c0.58743,-22.38605 18.64049,-40.06933 40.32289,-39.49666c21.68239,0.57265 38.78324,19.18437 38.19593,41.57043c-0.58743,22.38605 -18.64049,40.06922 -40.32289,39.49666z" fill="url(#color-3)" stroke="#fff600" stroke-width="4" stroke-linecap="butt"/><path d="M211.61179,187.10566c-3.60476,0 -6.52702,-2.73478 -6.52702,-6.10822c0,-3.37344 2.92226,-6.10809 6.52702,-6.10809c3.60476,0 6.52702,2.73465 6.52702,6.10809c0,3.37344 -2.92226,6.10822 -6.52702,6.10822z" fill="none" stroke="#efdb00" stroke-width="1.5" stroke-linecap="butt"/><path d="M239.73023,158.47013c-3.60476,0 -6.52702,-2.73475 -6.52702,-6.10821c0,-3.37344 2.92226,-6.10822 6.52702,-6.10822c3.60476,0 6.52702,2.73478 6.52702,6.10822c0,3.37344 -2.92225,6.10821 -6.52702,6.10821z" fill="none" stroke="#efdb00" stroke-width="1.5" stroke-linecap="butt"/><path d="M267.42521,186.80857c-3.60476,0 -6.52701,-2.73465 -6.52701,-6.10809c0,-3.37344 2.92225,-6.10821 6.52701,-6.10821c3.60476,0 6.52703,2.73476 6.52703,6.10821c0,3.37344 -2.92226,6.10809 -6.52703,6.10809z" fill="none" stroke="#efdb00" stroke-width="1.5" stroke-linecap="butt"/><path d="M240.49765,214.4142c-3.60476,0 -6.52701,-2.73476 -6.52701,-6.10821c0,-3.37344 2.92225,-6.10821 6.52701,-6.10821c3.60465,0 6.5269,2.73477 6.5269,6.10821c0,3.37344 -2.92225,6.10821 -6.5269,6.10821z" fill="none" stroke="#efdb00" stroke-width="1.5" stroke-linecap="butt"/><path d="M239.50067,154.88807c-1.76999,0 -3.20485,-1.28114 -3.20485,-2.86148c0,-1.58034 1.43486,-2.86147 3.20485,-2.86147c1.76999,0 3.20485,1.28114 3.20485,2.86147c0,1.58034 -1.43486,2.86148 -3.20485,2.86148z" fill="url(#color-4)" stroke="#fff600" stroke-width="1.5" stroke-linecap="butt"/><path d="M267.68055,183.64574c-1.76999,0 -3.20486,-1.28114 -3.20486,-2.86147c0,-1.58034 1.43486,-2.86148 3.20486,-2.86148c1.76999,0 3.20484,1.28114 3.20484,2.86148c0,1.58034 -1.43486,2.86147 -3.20484,2.86147z" fill="url(#color-5)" stroke="#fff600" stroke-width="1.5" stroke-linecap="butt"/><path d="M240.51698,211.34879c-1.76999,0 -3.20486,-1.28114 -3.20486,-2.86147c0,-1.58034 1.43486,-2.86147 3.20486,-2.86147c1.76999,0 3.20486,1.28114 3.20486,2.86147c0,1.58034 -1.43486,2.86147 -3.20486,2.86147z" fill="url(#color-6)" stroke="#fff600" stroke-width="1.5" stroke-linecap="butt"/><path d="M211.38375,183.97557c-1.76999,0 -3.20486,-1.28114 -3.20486,-2.86148c0,-1.58034 1.43486,-2.86147 3.20486,-2.86147c1.76999,0 3.20486,1.28114 3.20486,2.86147c0,1.58034 -1.43486,2.86148 -3.20486,2.86148z" fill="url(#color-7)" stroke="#fff600" stroke-width="1.5" stroke-linecap="butt"/><path d="M239.99998,194.47885c-8.03564,0 -14.54979,-6.4824 -14.54979,-14.47883c0,-7.99643 6.51416,-14.47883 14.5498,-14.47883c8.03564,0 14.5498,6.4824 14.5498,14.47883c0,7.99643 -6.51417,14.47883 -14.5498,14.47883z" fill="none" stroke="#fff600" stroke-width="1.5" stroke-linecap="butt"/><path d="M212.05562,163.53389c0,0.34149 -0.17712,0.50587 -0.34763,0.58498c-0.02754,0.21097 -0.04017,0.41941 0.02661,0.61657c0.53787,1.58807 3.09054,-0.21995 3.4165,-1.04217c-0.04464,-2.19939 -1.74614,-3.75748 -4.06974,-2.67398c-1.56499,0.72976 -2.72099,2.8775 -2.71642,4.50188c0.00392,1.39437 0.58686,3.52668 2.18057,3.45812c1.4985,0.01555 2.51932,-0.99155 3.97629,-0.99365c3.69294,-0.0053 7.00165,4.17871 7.86232,7.40571c0.19872,0.7451 0.03377,1.97182 0.03377,2.7633c0,0 0,0.65841 -0.65841,0.65841c-0.65841,0 -0.65841,-0.65841 -0.65841,-0.65841c0,-0.61182 0.19782,-1.76424 0.0338,-2.34688c-0.75621,-2.68613 -3.45131,-6.4547 -6.6165,-6.50531c-1.34995,-0.02159 -2.50784,0.9813 -3.97287,0.99365c-1.73567,-0.0488 -1.95247,-0.41769 -2.73924,-1.96761c-1.39033,-2.73892 -0.72057,-5.90121 1.75402,-7.85889c1.80893,-1.43105 5.21749,-1.38921 6.38867,0.76014c0.55487,1.01829 0.51105,1.60015 0.49521,2.71254c-0.81633,2.03179 -4.6574,4.25394 -5.95214,1.22902c-0.04657,-0.10881 -0.03711,-1.42492 -0.03711,-1.63742l0.94231,-0.65841c0,0 0.65841,0 0.65841,0.65841z" fill="#efdb00" stroke="none" stroke-width="0.5" stroke-linecap="butt"/><path d="M219.75449,156.22347c-0.63875,-0.15969 -0.47907,-0.79843 -0.47907,-0.79843l0.31513,-0.87367c3.41639,-3.22753 7.40965,5.25399 1.88507,5.38246c-0.59397,-0.00158 -1.50516,0.07739 -2.09731,-0.19207c-5.67618,-2.58308 -0.66504,-11.11936 4.4023,-9.47588c1.32775,0.43063 1.70945,1.87872 2.61867,2.78996c1.08286,1.8783 2.39973,3.59213 3.45733,5.47083c0.88219,1.56708 1.17043,3.23699 3.38335,3.65095c1.13602,0.21251 2.17008,-0.43789 3.19304,-0.82166c0,0 0.6165,-0.23118 0.84767,0.38531c0.23118,0.6165 -0.38531,0.84767 -0.38531,0.84767c-1.26922,0.47575 -2.49572,1.17522 -3.90443,0.88174c-2.58259,-0.53806 -3.17861,-2.39946 -4.28192,-4.29821c-1.05164,-1.80982 -2.31924,-3.48499 -3.35623,-5.31733c-0.5735,-0.57222 -1.126,-2.1186 -1.92371,-2.32022c-2.13323,-0.5392 -4.20225,1.0297 -5.19721,2.92477c-1.20228,2.28992 1.3399,4.16301 3.24373,4.15732c3.1121,0.11 0.56202,-4.79712 -0.95393,-3.1345l0.03124,0.26192c0,0 -0.15969,0.63874 -0.79844,0.47906z" fill="#efdb00" stroke="none" stroke-width="0.5" stroke-linecap="butt"/><path d="M222.34014,170.85114c-0.64563,-0.12912 -0.5165,-0.77475 -0.5165,-0.77475l0.13237,-0.6455c-0.00546,-2.10729 -0.83186,-4.89879 -2.9961,-5.71153c0,0 -0.61132,-0.24453 -0.3668,-0.85584c0.24453,-0.61132 0.85584,-0.36679 0.85584,-0.36679c2.73178,1.14051 3.82266,4.30148 3.81747,7.06392l-0.15153,0.77399c0,0 -0.12911,0.64563 -0.77474,0.5165z" fill="#fff600" stroke="none" stroke-width="0.5" stroke-linecap="butt"/><path d="M230.07389,163.9797c0.54783,0.36522 0.18262,0.91305 0.18262,0.91305l-0.53727,0.64952c-2.66472,1.27962 -5.15909,-0.29687 -6.41938,-2.70759c0,0 -0.29444,-0.58889 0.29444,-0.88335c0.5889,-0.29444 0.88336,0.29444 0.88336,0.29444c0.81979,1.74378 2.74975,3.12304 4.65267,2.11869l0.03052,-0.20217c0,0 0.36522,-0.54783 0.91305,-0.18262z" fill="#fff600" stroke="none" stroke-width="0.5" stroke-linecap="butt"/><path d="M268.88649,162.60137l0.94232,0.65841c0,0.21251 0.00946,1.52862 -0.03712,1.63744c-1.29475,3.02492 -5.13582,0.80276 -5.95215,-1.22902c-0.01584,-1.11238 -0.05966,-1.69424 0.49521,-2.71254c1.17119,-2.14934 4.57975,-2.19119 6.38868,-0.76013c2.4746,1.95769 3.14434,5.11996 1.75402,7.85888c-0.78677,1.54991 -1.00357,1.91881 -2.73924,1.96761c-1.46503,-0.01235 -2.62291,-1.01524 -3.97288,-0.99365c-3.16518,0.05063 -5.86029,3.81918 -6.6165,6.50531c-0.16403,0.58264 0.03378,1.73507 0.03378,2.34688c0,0 0,0.65841 -0.65841,0.65841c-0.65841,0 -0.65841,-0.65841 -0.65841,-0.65841c0,-0.79147 -0.16494,-2.0182 0.03378,-2.7633c0.86067,-3.22701 4.16938,-7.41102 7.86232,-7.4057c1.45699,0.0021 2.4778,1.00919 3.97629,0.99364c1.59372,0.06856 2.17665,-2.06375 2.18057,-3.45812c0.00456,-1.62438 -1.15145,-3.77212 -2.71642,-4.50188c-2.32359,-1.0835 -4.02509,0.47459 -4.06974,2.67398c0.32595,0.82222 2.87864,2.63022 3.4165,1.04217c0.06678,-0.19716 0.05415,-0.4056 0.02661,-0.61657c-0.17051,-0.07911 -0.34762,-0.2435 -0.34762,-0.58498c0,-0.65841 0.65841,-0.65841 0.65841,-0.65841z" data-paper-data="{&quot;index&quot;:null}" fill="#efdb00" stroke="none" stroke-width="0.5" stroke-linecap="butt"/><path d="M259.73078,155.47031l0.03123,-0.26192c-1.51595,-1.66263 -4.06603,3.2445 -0.95392,3.1345c1.90384,0.0057 4.44601,-1.8674 3.24373,-4.15732c-0.99496,-1.89506 -3.06397,-3.46396 -5.19722,-2.92476c-0.7977,0.20163 -1.35019,1.74799 -1.9237,2.32022c-1.037,1.83234 -2.30459,3.50749 -3.35622,5.31733c-1.10331,1.89876 -1.69933,3.76016 -4.28192,4.29821c-1.4087,0.29349 -2.63521,-0.406 -3.90444,-0.88174c0,0 -0.6165,-0.23118 -0.38531,-0.84767c0.23118,-0.6165 0.84767,-0.38531 0.84767,-0.38531c1.02296,0.38377 2.05701,1.03416 3.19305,0.82165c2.2129,-0.41396 2.50116,-2.08387 3.38335,-3.65094c1.05761,-1.87869 2.37448,-3.59254 3.45733,-5.47083c0.90923,-0.91123 1.29093,-2.35933 2.61867,-2.78996c5.06734,-1.6435 10.07849,6.8928 4.4023,9.47588c-0.59213,0.26947 -1.50334,0.19048 -2.09731,0.19207c-5.52459,-0.12847 -1.53133,-8.60998 1.88507,-5.38246l0.31514,0.87367c0,0 0.15969,0.63875 -0.47907,0.79844c-0.63875,0.15969 -0.79844,-0.47907 -0.79844,-0.47907z" data-paper-data="{&quot;index&quot;:null}" fill="#efdb00" stroke="none" stroke-width="0.5" stroke-linecap="butt"/><path d="M257.16882,170.06053l-0.15153,-0.774c-0.0052,-2.76244 1.08568,-5.9234 3.81747,-7.06392c0,0 0.61131,-0.24453 0.85584,0.36679c0.24453,0.61132 -0.36679,0.85584 -0.36679,0.85584c-2.16424,0.81273 -2.99065,3.60424 -2.9961,5.71153l0.13237,0.64549c0,0 0.12913,0.64563 -0.5165,0.77475c-0.64563,0.12912 -0.77474,-0.5165 -0.77474,-0.5165z" data-paper-data="{&quot;index&quot;:null}" fill="#fff600" stroke="none" stroke-width="0.5" stroke-linecap="butt"/><path d="M251.12287,163.8882l0.03052,0.20218c1.90292,1.00436 3.83287,-0.37491 4.65267,-2.11869c0,0 0.29445,-0.5889 0.88335,-0.29444c0.5889,0.29444 0.29446,0.88335 0.29446,0.88335c-1.26029,2.41072 -3.75464,3.9872 -6.41937,2.70759l-0.53729,-0.64952c0,0 -0.36522,-0.54783 0.18262,-0.91305c0.54783,-0.36522 0.91305,0.18262 0.91305,0.18262z" data-paper-data="{&quot;index&quot;:null}" fill="#fff600" stroke="none" stroke-width="0.5" stroke-linecap="butt"/><path d="M267.71988,198.03269c0,-0.34149 0.17712,-0.50586 0.34762,-0.58498c0.02754,-0.21097 0.04017,-0.41939 -0.02661,-0.61657c-0.53787,-1.58807 -3.09055,0.21994 -3.4165,1.04217c0.04464,2.19939 1.74614,3.7575 4.06974,2.67398c1.56499,-0.72976 2.72099,-2.8775 2.71642,-4.50188c-0.00392,-1.39437 -0.58686,-3.52668 -2.18058,-3.45812c-1.49851,-0.01555 -2.51931,0.99155 -3.97629,0.99365c-3.69294,0.0053 -7.00165,-4.17871 -7.86232,-7.4057c-0.19873,-0.7451 -0.03378,-1.97183 -0.03378,-2.7633c0,0 0,-0.65841 0.65841,-0.65841c0.65841,0 0.65841,0.65841 0.65841,0.65841c0,0.61182 -0.19782,1.76424 -0.03378,2.34688c0.75621,2.68613 3.45131,6.4547 6.6165,6.50531c1.34995,0.02159 2.50783,-0.9813 3.97286,-0.99365c1.73567,0.0488 1.95247,0.41769 2.73925,1.9676c1.39032,2.73892 0.72058,5.90121 -1.75402,7.85889c-1.80891,1.43105 -5.21749,1.38921 -6.38867,-0.76014c-0.55487,-1.01829 -0.51105,-1.60015 -0.49521,-2.71254c0.81633,-2.03179 4.6574,-4.25394 5.95214,-1.22902c0.04657,0.10881 0.03712,1.42492 0.03712,1.63743l-0.94231,0.65841c0,0 -0.65841,0 -0.65841,-0.65841z" data-paper-data="{&quot;index&quot;:null}" fill="#efdb00" stroke="none" stroke-width="0.5" stroke-linecap="butt"/><path d="M260.02103,205.3431c0.63875,0.15969 0.47907,0.79843 0.47907,0.79843l-0.31513,0.87367c-3.41639,3.22753 -7.40965,-5.25399 -1.88506,-5.38246c0.59397,0.00158 1.50516,-0.07739 2.09731,0.19207c5.67618,2.58308 0.66504,11.11936 -4.40229,9.47588c-1.32774,-0.43063 -1.70945,-1.87872 -2.61868,-2.78996c-1.08286,-1.8783 -2.39972,-3.59214 -3.45733,-5.47083c-0.88219,-1.56708 -1.17043,-3.23698 -3.38335,-3.65095c-1.13602,-0.21251 -2.17008,0.43789 -3.19303,0.82166c0,0 -0.6165,0.23118 -0.84767,-0.38531c-0.23118,-0.6165 0.38531,-0.84767 0.38531,-0.84767c1.26922,-0.47575 2.49572,-1.17523 3.90443,-0.88174c2.58259,0.53806 3.1786,2.39946 4.28192,4.29821c1.05164,1.80982 2.31924,3.48497 3.35623,5.31733c0.5735,0.57222 1.12599,2.1186 1.9237,2.32022c2.13324,0.5392 4.20226,-1.0297 5.19722,-2.92477c1.20228,-2.28992 -1.3399,-4.16301 -3.24373,-4.15732c-3.1121,-0.11 -0.56202,4.79712 0.95393,3.1345l-0.03123,-0.26192c0,0 0.15969,-0.63874 0.79844,-0.47906z" data-paper-data="{&quot;index&quot;:null}" fill="#efdb00" stroke="none" stroke-width="0.5" stroke-linecap="butt"/><path d="M257.43538,190.71544c0.64563,0.12912 0.5165,0.77475 0.5165,0.77475l-0.13237,0.6455c0.00545,2.10729 0.83186,4.89879 2.9961,5.71152c0,0 0.61133,0.24453 0.36679,0.85584c-0.24453,0.61132 -0.85584,0.36679 -0.85584,0.36679c-2.73178,-1.14051 -3.82266,-4.30148 -3.81747,-7.06392l0.15153,-0.77399c0,0 0.12913,-0.64563 0.77475,-0.5165z" data-paper-data="{&quot;index&quot;:null}" fill="#fff600" stroke="none" stroke-width="0.5" stroke-linecap="butt"/><path d="M249.70162,197.58689c-0.54783,-0.36522 -0.18262,-0.91305 -0.18262,-0.91305l0.53727,-0.64952c2.66472,-1.27962 5.15909,0.29687 6.41938,2.70759c0,0 0.29443,0.5889 -0.29446,0.88335c-0.5889,0.29444 -0.88335,-0.29444 -0.88335,-0.29444c-0.81979,-1.74378 -2.74975,-3.12304 -4.65267,-2.11869l-0.03052,0.20218c0,0 -0.36522,0.54783 -0.91305,0.18262z" data-paper-data="{&quot;index&quot;:null}" fill="#fff600" stroke="none" stroke-width="0.5" stroke-linecap="butt"/><path d="M211.67546,198.36388l-0.94232,-0.65841c0,-0.21251 -0.00945,-1.52862 0.03713,-1.63743c1.29475,-3.02492 5.13581,-0.80276 5.95215,1.22902c0.01584,1.11238 0.05966,1.69424 -0.49521,2.71254c-1.17119,2.14934 -4.57975,2.19119 -6.38867,0.76014c-2.47459,-1.95769 -3.14435,-5.11996 -1.75402,-7.85888c0.78676,-1.54991 1.00358,-1.91881 2.73924,-1.96761c1.46502,0.01235 2.6229,1.01525 3.97287,0.99365c3.16519,-0.05063 5.86029,-3.81918 6.6165,-6.50531c0.16403,-0.58264 -0.03377,-1.73508 -0.03377,-2.34689c0,0 0,-0.65841 0.65841,-0.65841c0.65841,0 0.65841,0.65841 0.65841,0.65841c0,0.79147 0.16493,2.01821 -0.03379,2.7633c-0.86067,3.22701 -4.16938,7.41102 -7.86231,7.40571c-1.45699,-0.0021 -2.4778,-1.0092 -3.9763,-0.99365c-1.59372,-0.06856 -2.17665,2.06375 -2.18057,3.45812c-0.00456,1.62438 1.15145,3.77212 2.71642,4.50188c2.32359,1.0835 4.02509,-0.47459 4.06974,-2.67398c-0.32596,-0.82222 -2.87864,-2.63024 -3.4165,-1.04217c-0.06678,0.19716 -0.05416,0.4056 -0.02661,0.61657c0.1705,0.07911 0.34763,0.24349 0.34763,0.58498c0,0.65841 -0.65841,0.65841 -0.65841,0.65841z" data-paper-data="{&quot;index&quot;:null}" fill="#efdb00" stroke="none" stroke-width="0.5" stroke-linecap="butt"/><path d="M220.83117,205.49494l-0.03123,0.26192c1.51595,1.66263 4.06603,-3.24449 0.95393,-3.1345c-1.90384,-0.0057 -4.446,1.86739 -3.24373,4.1573c0.99496,1.89506 3.06397,3.46396 5.19721,2.92477c0.7977,-0.20163 1.3502,-1.748 1.92371,-2.32022c1.037,-1.83234 2.30459,-3.50749 3.35622,-5.31733c1.10331,-1.89876 1.69933,-3.76016 4.28192,-4.29821c1.4087,-0.29349 2.63521,0.406 3.90443,0.88174c0,0 0.6165,0.23118 0.38531,0.84767c-0.23118,0.6165 -0.84767,0.38531 -0.84767,0.38531c-1.02296,-0.38377 -2.05701,-1.03416 -3.19303,-0.82165c-2.2129,0.41396 -2.50117,2.08387 -3.38335,3.65095c-1.05761,1.87869 -2.37447,3.59254 -3.45733,5.47083c-0.90923,0.91123 -1.29093,2.35933 -2.61867,2.78996c-5.06735,1.6435 -10.07848,-6.8928 -4.40229,-9.47588c0.59214,-0.26947 1.50334,-0.19047 2.09731,-0.19207c5.52459,0.12847 1.53133,8.60998 -1.88506,5.38246l-0.31513,-0.87367c0,0 -0.15969,-0.63874 0.47907,-0.79843c0.63875,-0.15969 0.79844,0.47906 0.79844,0.47906z" data-paper-data="{&quot;index&quot;:null}" fill="#efdb00" stroke="none" stroke-width="0.5" stroke-linecap="butt"/><path d="M223.39312,190.90473l0.15153,0.77399c0.0052,2.76244 -1.08568,5.9234 -3.81746,7.06392c0,0 -0.61131,0.24453 -0.85584,-0.36679c-0.24453,-0.61132 0.36679,-0.85584 0.36679,-0.85584c2.16424,-0.81273 2.99065,-3.60423 2.99611,-5.71153l-0.13237,-0.6455c0,0 -0.12913,-0.64562 0.5165,-0.77475c0.64563,-0.12912 0.77475,0.5165 0.77475,0.5165z" data-paper-data="{&quot;index&quot;:null}" fill="#fff600" stroke="none" stroke-width="0.5" stroke-linecap="butt"/><path d="M229.43908,197.07704l-0.03052,-0.20217c-1.90293,-1.00436 -3.83286,0.37491 -4.65267,2.11869c0,0 -0.29445,0.5889 -0.88336,0.29444c-0.5889,-0.29444 -0.29444,-0.88335 -0.29444,-0.88335c1.26029,-2.41072 3.75466,-3.9872 6.41938,-2.70759l0.53728,0.64952c0,0 0.36522,0.54783 -0.18262,0.91305c-0.54783,0.36522 -0.91305,-0.18262 -0.91305,-0.18262z" data-paper-data="{&quot;index&quot;:null}" fill="#fff600" stroke="none" stroke-width="0.5" stroke-linecap="butt"/><path d="M239.99998,187.5943c-4.1942,0 -7.59429,-3.40007 -7.59429,-7.59429c0,-4.1942 3.40007,-7.59429 7.59429,-7.59429c4.1942,0 7.59429,3.40007 7.59429,7.59429c0,4.1942 -3.40007,7.59429 -7.59429,7.59429z" fill="none" stroke="#fff600" stroke-width="1.5" stroke-linecap="butt"/><path d="M254.12394,180.42585l-28.38985,-0.42585" fill="none" stroke="#fff600" stroke-width="1.5" stroke-linecap="round"/><path d="M239.21927,193.62714l0.8517,-27.964" fill="none" stroke="#fff600" stroke-width="1.5" stroke-linecap="round"/><path d="M230.70232,188.94281l2.12924,-2.41314" fill="none" stroke="#efdb00" stroke-width="1.5" stroke-linecap="round"/><path d="M246.60063,186.24577l2.27119,2.55509" fill="none" stroke="#efdb00" stroke-width="1.5" stroke-linecap="round"/><path d="M246.45868,173.89619l2.83899,-2.27119" fill="none" stroke="#efdb00" stroke-width="1.5" stroke-linecap="round"/><path d="M229.85061,171.76694l2.12924,2.12924" fill="none" stroke="#efdb00" stroke-width="1.5" stroke-linecap="round"/><path d="M230.60008,185.57575c-0.46557,0.46557 -0.93113,0 -0.93113,0l-0.59962,-0.60197c-0.37089,-0.53043 -0.56624,-1.20398 -0.58686,-1.85089c0,0 0,-0.65841 0.65841,-0.65841c0.65841,0 0.65841,0.65841 0.65841,0.65841c-0.01789,0.34052 0.04153,0.7304 0.26484,0.9881l0.53597,0.53362c0,0 0.46557,0.46557 0,0.93113z" fill="#fff600" stroke="none" stroke-width="0.5" stroke-linecap="butt"/><path d="M236.68529,189.947c-0.29444,0.5889 -0.88335,0.29444 -0.88335,0.29444l-0.23398,-0.11952c-0.4561,-0.18535 -0.93914,-0.30912 -1.42515,-0.38772c0,0 -0.64945,-0.10824 -0.54121,-0.75769c0.10824,-0.64945 0.75769,-0.54121 0.75769,-0.54121c0.57829,0.0988 1.15203,0.24858 1.69772,0.46398l0.33382,0.16437c0,0 0.5889,0.29444 0.29444,0.88335z" fill="#fff600" stroke="none" stroke-width="0.5" stroke-linecap="butt"/><path d="M245.77003,188.79031c0.29444,0.5889 -0.29444,0.88336 -0.29444,0.88336l-0.57624,0.28805c-0.98935,0.4771 -1.91491,0.96591 -2.99587,1.18818c0,0 -0.64563,0.12913 -0.77475,-0.5165c-0.12913,-0.64563 0.5165,-0.77475 0.5165,-0.77475c0.96903,-0.1871 1.79789,-0.65653 2.6821,-1.08302l0.55935,-0.27976c0,0 0.5889,-0.29444 0.88335,0.29444z" fill="#fff600" stroke="none" stroke-width="0.5" stroke-linecap="butt"/><path d="M249.89626,185.92081c-0.52673,-0.39505 -0.13168,-0.92177 -0.13168,-0.92177l0.35151,-0.4415c0.11378,-0.66608 0.24877,-1.32704 0.38129,-1.98962c0,0 0.12913,-0.64562 0.77475,-0.5165c0.64563,0.12913 0.5165,0.77475 0.5165,0.77475c-0.15156,0.7578 -0.30465,1.514 -0.47041,2.26886l-0.50019,0.6941c0,0 -0.39505,0.52673 -0.92178,0.13168z" fill="#fff600" stroke="none" stroke-width="0.5" stroke-linecap="butt"/><path d="M249.27994,174.10914c0.63874,-0.15969 0.79845,0.47907 0.79845,0.47907l0.0921,0.43303c0.48285,0.96711 1.03755,1.89725 1.44191,2.88891c0,0 0.24453,0.61132 -0.36679,0.85584c-0.61133,0.24453 -0.85584,-0.36679 -0.85584,-0.36679c-0.37188,-0.9528 -0.93324,-1.8628 -1.39707,-2.78906l-0.1918,-0.70256c0,0 -0.15969,-0.63874 0.47907,-0.79845z" fill="#fff600" stroke="none" stroke-width="0.5" stroke-linecap="butt"/><path d="M240.83205,168.78601c0,-0.65841 0.65842,-0.65841 0.65842,-0.65841l0.55497,0.01279c1.14001,0.22799 2.03974,0.47264 3.04861,1.07469c0,0 0.56458,0.33875 0.22584,0.90333c-0.33874,0.56458 -0.90333,0.22584 -0.90333,0.22584c-0.87992,-0.5312 -1.63078,-0.71289 -2.62936,-0.9126l-0.29672,0.01279c0,0 -0.65842,0 -0.65842,-0.65841z" fill="#fff600" stroke="none" stroke-width="0.5" stroke-linecap="butt"/><path d="M232.59898,170.06355c0,-0.65841 0.65841,-0.65841 0.65841,-0.65841l-0.10258,0.04708c0.85018,-0.33901 1.72346,-0.57551 2.59141,-0.865c0,0 0.62462,-0.20821 0.83283,0.41642c0.20821,0.62462 -0.41642,0.83283 -0.41642,0.83283c-0.8432,0.28091 -1.6939,0.50732 -2.51877,0.83839l-0.38647,0.04709c0,0 -0.65841,0 -0.65841,-0.65841z" fill="#fff600" stroke="none" stroke-width="0.5" stroke-linecap="butt"/><path d="M228.57307,177.96138c-0.65841,0 -0.65842,-0.65841 -0.65842,-0.65841l0.09383,-0.76461c0.34982,-0.5801 0.76159,-1.12307 1.19437,-1.6442c0,0 0.4215,-0.5058 0.92731,-0.0843c0.5058,0.4215 0.0843,0.92731 0.0843,0.92731c-0.39121,0.46769 -0.76443,0.95506 -1.07682,1.47868l0.09383,0.0871c0,0 0,0.65841 -0.65841,0.65841z" fill="#fff600" stroke="none" stroke-width="0.5" stroke-linecap="butt"/><path d="M240.36541,180.44696c-0.51633,0.25816 -0.80631,-0.16273 -0.86994,-0.27038c-0.2159,-0.03407 -0.42708,-0.05118 -0.59377,0.06646c-0.25289,0.17849 0.29164,0.55051 0.38088,0.84691c0.0383,0.12718 0.10725,0.91445 0.31595,1.06891c0.69724,0.51597 2.61194,-0.30304 3.06262,-0.84244c0.49173,-0.58853 0.00935,-1.63908 -0.22059,-2.20748c-0.6129,-1.6321 -2.8242,-2.83475 -4.53613,-2.33108c-0.6571,0.19333 -1.03481,1.27174 -1.16818,1.81584c-0.44259,1.80544 -0.95074,3.67463 0.89076,4.99611c0,0 0.52673,0.39505 0.13168,0.92178c-0.39505,0.52673 -0.92178,0.13168 -0.92178,0.13168c-2.21377,-1.71168 -1.98485,-3.98535 -1.38042,-6.35983c0.24997,-0.98201 0.87777,-2.34225 1.95469,-2.72653c2.4121,-0.86072 5.32161,0.83447 6.25201,3.06299c0.41853,1.05659 0.86777,2.44123 0.06331,3.4705c-0.83943,1.074 -3.59364,2.11902 -4.88653,1.14486c-0.6278,-0.47304 -1.57541,-3.04001 -1.00655,-3.76216c0.50827,-0.64523 1.41408,-0.55021 2.09557,-0.55734l0.73085,0.64785c0,0 0.29444,0.5889 -0.29444,0.88335z" fill="#efdb00" stroke="none" stroke-width="0.5" stroke-linecap="butt"/></g></g></svg>