<svg version="1.1" xmlns="http://www.w3.org/2000/svg" xmlns:xlink="http://www.w3.org/1999/xlink" width="193.7109" height="97.85685" viewBox="0,0,193.7109,97.85685"><defs><linearGradient x1="143.14455" y1="180" x2="336.85545" y2="180" gradientUnits="userSpaceOnUse" id="color-1"><stop offset="0" stop-color="#f7f7f7" stop-opacity="0"/><stop offset="1" stop-color="#f7f7f7"/></linearGradient><linearGradient x1="336.85545" y1="180" x2="143.14455" y2="180" gradientUnits="userSpaceOnUse" id="color-2"><stop offset="0" stop-color="#f7f7f7" stop-opacity="0"/><stop offset="1" stop-color="#f7f7f7"/></linearGradient></defs><g transform="translate(-143.14456,-131.07158)"><g data-paper-data="{&quot;isPaintingLayer&quot;:true}" fill-rule="nonzero" stroke="none" stroke-width="0.5" stroke-linecap="butt" stroke-linejoin="miter" stroke-miterlimit="10" stroke-dasharray="" stroke-dashoffset="0" style="mix-blend-mode: normal"><path d="M281.60071,156.83474c0.60171,0.07696 1.1981,0.15568 1.78386,0.22197c2.22042,0.2513 4.24145,1.40898 6.37174,2.08373c4.67756,1.48156 6.25181,1.4614 10.25843,4.18249c1.13695,0.77216 1.9293,1.986 3.07087,2.75131c0.0813,0.0545 0.16389,0.10861 0.24775,0.16235c0.26436,0.16044 0.52893,0.32021 0.7939,0.47883c1.34458,0.76719 4.42293,-6.52351 6.03792,-5.76877c1.0246,0.47883 7.06394,7.97596 8.0677,8.51776c1.94794,0.67012 -2.52982,2.13292 -0.50938,2.53377c3.44529,0.68354 7.79357,-0.76834 10.42075,1.563c4.3945,3.89965 9.328,9.52268 8.64798,15.35848c-0.15887,1.36334 -0.75908,2.72646 -1.64718,3.96604c-0.07587,1.39695 -0.4476,2.8002 -1.14336,4.1186c-2.22118,4.20887 -7.02004,6.17947 -11.43012,4.99478l-2.11894,-0.51992l-1.72758,0.17756c-0.58537,0.06878 -1.17863,0.08616 -1.77277,0.04994c-2.8799,2.23738 -6.8675,2.79557 -10.35023,1.17611c-3.98206,3.49585 -6.39356,3.36239 -10.54772,1.70972c-1.00631,1.6189 -5.54878,7.90146 -13.29746,3.8122c-0.30725,-0.16215 -0.59818,-0.32933 -0.87358,-0.50101c-4.40208,7.12044 -10.30177,9.47788 -16.53831,9.39957c-1.15481,1.49437 -2.48815,2.80221 -3.89469,3.80401c-7.20284,5.13021 -14.79589,7.26613 -22.06135,6.57372c-3.25232,1.01276 -6.73198,1.4248 -10.15866,1.17748c-6.84113,-0.49374 -13.62249,-4.06523 -18.61502,-8.76835c-1.08388,-1.02105 -1.57347,-2.38093 -1.81796,-3.88034c-1.057,-0.56908 -2.06539,-1.19736 -3.00608,-1.8963c-1.06728,0.67446 -2.0793,1.30257 -3.06314,1.87115c-2.31898,3.35283 -5.9564,5.68344 -11.25031,6.03064c-3.5447,0.23249 -6.94629,-2.02037 -9.85122,-4.06495c-1.02071,-0.7184 -1.95545,-1.53123 -2.80196,-2.42106c-1.94148,-0.8848 -3.8494,-2.00117 -5.6139,-3.31714c-3.76312,0.30322 -7.45289,0.38386 -10.69981,0.64703c-4.97311,-1.73409 -11.01591,-1.66643 -14.91933,-5.20227c-8.62665,-7.81428 -2.96075,-19.00362 2.36631,-25.77375c4.31163,-5.47963 10.32273,-7.70291 16.71426,-8.26504c4.85541,-6.73816 13.15748,-10.80544 21.83182,-11.88933c0.088,-1.59249 0.44435,-3.15493 1.01679,-4.65453c-1.84192,-9.25641 6.10966,-21.10424 13.49568,-23.49253c6.89391,-2.22917 14.89301,0.23768 21.49631,3.21958c0.0954,0.04308 0.19115,0.08656 0.28724,0.13042c0.72533,-0.23586 1.48493,-0.42667 2.27074,-0.5756c0.93158,-1.92195 1.85277,-3.85871 3.73876,-4.41857c4.46802,-1.32633 30.38181,-3.01727 34.61687,5.93576c1.79277,3.78996 0.39781,8.7236 -1.97882,12.57157c0.01709,0.17047 0.0327,0.34045 0.04684,0.50994c0.12227,0.25054 0.24034,0.50262 0.35402,0.75615c0.45099,-0.2851 0.90899,-0.5596 1.37519,-0.82174c1.10546,-0.6216 2.49345,0.18088 3.77415,0.44259l2.45342,-0.25214c1.94026,-0.228 3.96727,0.10889 5.82565,1.08962c1.95469,1.03156 3.42662,2.6191 4.32391,4.46546z" data-paper-data="{&quot;index&quot;:null}" fill="url(#color-1)"/><path d="M281.60071,156.83474c0.60171,0.07696 1.1981,0.15568 1.78386,0.22197c2.22042,0.2513 4.24145,1.40898 6.37174,2.08373c4.67756,1.48156 6.25181,1.4614 10.25843,4.18249c1.13695,0.77216 1.9293,1.986 3.07087,2.75131c0.0813,0.0545 0.16389,0.10861 0.24775,0.16235c0.26436,0.16044 0.52893,0.32021 0.7939,0.47883c1.34458,0.76719 4.42293,-6.52351 6.03792,-5.76877c1.0246,0.47883 7.06394,7.97596 8.0677,8.51776c1.94794,0.67012 -2.52982,2.13292 -0.50938,2.53377c3.44529,0.68354 7.79357,-0.76834 10.42075,1.563c4.3945,3.89965 9.328,9.52268 8.64798,15.35848c-0.15887,1.36334 -0.75908,2.72646 -1.64718,3.96604c-0.07587,1.39695 -0.4476,2.8002 -1.14336,4.1186c-2.22118,4.20887 -7.02004,6.17947 -11.43012,4.99478l-2.11894,-0.51992l-1.72758,0.17756c-0.58537,0.06878 -1.17863,0.08616 -1.77277,0.04994c-2.8799,2.23738 -6.8675,2.79557 -10.35023,1.17611c-3.98206,3.49585 -6.39356,3.36239 -10.54772,1.70972c-1.00631,1.6189 -5.54878,7.90146 -13.29746,3.8122c-0.30725,-0.16215 -0.59818,-0.32933 -0.87358,-0.50101c-4.40208,7.12044 -10.30177,9.47788 -16.53831,9.39957c-1.15481,1.49437 -2.48815,2.80221 -3.89469,3.80401c-7.20284,5.13021 -14.79589,7.26613 -22.06135,6.57372c-3.25232,1.01276 -6.73198,1.4248 -10.15866,1.17748c-6.84113,-0.49374 -13.62249,-4.06523 -18.61502,-8.76835c-1.08388,-1.02105 -1.57347,-2.38093 -1.81796,-3.88034c-1.057,-0.56908 -2.06539,-1.19736 -3.00608,-1.8963c-1.06728,0.67446 -2.0793,1.30257 -3.06314,1.87115c-2.31898,3.35283 -5.9564,5.68344 -11.25031,6.03064c-3.5447,0.23249 -6.94629,-2.02037 -9.85122,-4.06495c-1.02071,-0.7184 -1.95545,-1.53123 -2.80196,-2.42106c-1.94148,-0.8848 -3.8494,-2.00117 -5.6139,-3.31714c-3.76312,0.30322 -7.45289,0.38386 -10.69981,0.64703c-4.97311,-1.73409 -11.01591,-1.66643 -14.91933,-5.20227c-8.62665,-7.81428 -2.96075,-19.00362 2.36631,-25.77375c4.31163,-5.47963 10.32273,-7.70291 16.71426,-8.26504c4.85541,-6.73816 13.15748,-10.80544 21.83182,-11.88933c0.088,-1.59249 0.44435,-3.15493 1.01679,-4.65453c-1.84192,-9.25641 6.10966,-21.10424 13.49568,-23.49253c6.89391,-2.22917 14.89301,0.23768 21.49631,3.21958c0.0954,0.04308 0.19115,0.08656 0.28724,0.13042c0.72533,-0.23586 1.48493,-0.42667 2.27074,-0.5756c0.93158,-1.92195 1.85277,-3.85871 3.73876,-4.41857c4.46802,-1.32633 30.38181,-3.01727 34.61687,5.93576c1.79277,3.78996 0.39781,8.7236 -1.97882,12.57157c0.01709,0.17047 0.0327,0.34045 0.04684,0.50994c0.12227,0.25054 0.24034,0.50262 0.35402,0.75615c0.45099,-0.2851 0.90899,-0.5596 1.37519,-0.82174c1.10546,-0.6216 2.49345,0.18088 3.77415,0.44259l2.45342,-0.25214c1.94026,-0.228 3.96727,0.10889 5.82565,1.08962c1.95469,1.03156 3.42662,2.6191 4.32391,4.46546z" data-paper-data="{&quot;index&quot;:null}" fill="url(#color-2)"/></g></g></svg>