<svg version="1.1" xmlns="http://www.w3.org/2000/svg" xmlns:xlink="http://www.w3.org/1999/xlink" width="315.30573" height="95.4285" viewBox="0,0,315.30573,95.4285"><defs><linearGradient x1="83.59713" y1="180.26464" x2="396.40292" y2="180.26464" gradientUnits="userSpaceOnUse" id="color-1"><stop offset="0" stop-color="#59a450"/><stop offset="1" stop-color="#a4e260"/></linearGradient></defs><g transform="translate(-82.34713,-124.33238)"><g data-paper-data="{&quot;isPaintingLayer&quot;:true}" fill-rule="nonzero" stroke-linejoin="miter" stroke-miterlimit="10" stroke-dasharray="" stroke-dashoffset="0" style="mix-blend-mode: normal"><path d="M161.02606,140.82144v-15.23906h93.61135v15.23906z" fill="#fcfcfc" stroke="#000000" stroke-width="2.5" stroke-linecap="butt"/><text transform="translate(163.63847,136.46742) scale(0.23584,0.23584)" font-size="40" xml:space="preserve" fill="#0a0a0a" fill-rule="nonzero" stroke="none" stroke-width="1" stroke-linecap="butt" stroke-linejoin="miter" stroke-miterlimit="10" stroke-dasharray="" stroke-dashoffset="0" font-family="Sans Serif" font-weight="normal" text-anchor="start" style="mix-blend-mode: normal"><tspan x="0" dy="0">TowerSize: Medium</tspan></text><path d="M83.59713,218.51088v-76.49249h312.80573v76.49249z" fill="url(#color-1)" stroke="#000000" stroke-width="2.5" stroke-linecap="butt"/><path d="M84.662,217.94284v-76.4537h74.68599v76.4537z" fill="#858585" stroke="#000000" stroke-width="0.5" stroke-linecap="butt"/><text transform="translate(94.45705,163.86567) scale(0.5,0.5)" font-size="40" xml:space="preserve" fill="#000000" fill-rule="nonzero" stroke="#000000" stroke-width="0" stroke-linecap="butt" stroke-linejoin="miter" stroke-miterlimit="10" stroke-dasharray="" stroke-dashoffset="0" font-family="Serif" font-weight="normal" text-anchor="start" style="mix-blend-mode: normal"><tspan x="0" dy="0">Haunter</tspan></text><text transform="translate(114.69683,207.23122) scale(0.5,0.5)" font-size="40" xml:space="preserve" fill="#000000" fill-rule="nonzero" stroke="none" stroke-width="1" stroke-linecap="butt" stroke-linejoin="miter" stroke-miterlimit="10" stroke-dasharray="" stroke-dashoffset="0" font-family="Marker" font-weight="normal" text-anchor="start" style="mix-blend-mode: normal"><tspan x="0" dy="0">585</tspan></text><text transform="translate(161.05366,164.90164) scale(0.32114,0.42156)" font-size="40" xml:space="preserve" fill="#333333" fill-rule="nonzero" stroke="#000000" stroke-width="0" stroke-linecap="butt" stroke-linejoin="miter" stroke-miterlimit="10" stroke-dasharray="" stroke-dashoffset="0" font-family="Serif" font-weight="normal" text-anchor="start" style="mix-blend-mode: normal"><tspan x="0" dy="0">She Fires a Rapid Burst of dark and then a</tspan><tspan x="0" dy="48px">Deadly Missle doing High damage,</tspan><tspan x="0" dy="48px">Good Mid-Endgame Tower!</tspan></text><g stroke="#000000" stroke-linecap="butt"><path d="M101.88065,210.27298c-6.07513,0 -11,-4.64505 -11,-10.375c0,-5.72995 4.92487,-10.375 11,-10.375c6.07513,0 11,4.64505 11,10.375c0,5.72995 -4.92487,10.375 -11,10.375z" fill="#ffd036" stroke-width="1"/><path d="M109.81815,199.77298c0,4.55635 -3.55374,8.25 -7.9375,8.25c-4.38376,0 -7.9375,-3.69365 -7.9375,-8.25c0,-4.55635 3.55374,-8.25 7.9375,-8.25c4.38376,0 7.9375,3.69365 7.9375,8.25z" fill="#e0b82f" stroke-width="1"/><text transform="translate(97.03045,205.49173) scale(0.4349,0.4349)" font-size="40" xml:space="preserve" fill="#000000" fill-rule="nonzero" stroke="#000000" stroke-width="0" stroke-linecap="butt" stroke-linejoin="miter" stroke-miterlimit="10" stroke-dasharray="" stroke-dashoffset="0" font-family="Sans Serif" font-weight="normal" text-anchor="start" style="mix-blend-mode: normal"><tspan x="0" dy="0">$</tspan></text></g><path d="M149.62555,168.88873l-59.6604,0.44193" fill="none" stroke="#000000" stroke-width="0.5" stroke-linecap="round"/><path d="M97.03601,172.42418l45.07674,-1.32579" fill="none" stroke="#000000" stroke-width="0.5" stroke-linecap="round"/></g></g></svg>