<svg version="1.1" xmlns="http://www.w3.org/2000/svg" xmlns:xlink="http://www.w3.org/1999/xlink" width="387.27126" height="342.62331" viewBox="0,0,387.27126,342.62331"><g transform="translate(-45.32531,12.82049)"><g data-paper-data="{&quot;isPaintingLayer&quot;:true}" fill="none" fill-rule="nonzero" stroke="#000000" stroke-width="4.5" stroke-linecap="round" stroke-linejoin="miter" stroke-miterlimit="10" stroke-dasharray="" stroke-dashoffset="0" style="mix-blend-mode: normal"><path d="M424.97284,-10.57049l0.88478,193.40552c0,0 10.24801,71.98027 -0.22423,95.36184c-0.65334,1.45873 -5.42011,26.84964 -17.25118,36.56422c-10.69498,8.78174 -30.78008,7.73457 -47.28945,8.10144c-28.74541,0.63878 -54.08585,-0.55224 -69.75468,-15.37913c-5.84026,-5.52645 -16.37298,-19.12543 -21.3281,-28.23147c-4.46417,-8.20381 -4.28536,-20.28435 -4.8134,-28.85939c-1.24901,-20.28309 8.49747,-37.86458 16.54982,-58.50076c6.95414,-17.82173 25.69417,-20.2349 39.29684,-28.70731c8.8071,-5.4855 17.71824,-14.25342 21.76869,-26.5019c5.10314,-15.43178 5.17374,-33.73645 2.05904,-49.03871c-3.17583,-15.60254 -9.49186,-22.414 -20.26501,-33.4543c-10.77315,-11.0403 -14.39097,-13.03112 -32.29778,-20.41191c-19.61861,-8.08636 -45.09592,-18.10576 -68.83101,-18.27563c-41.49858,-0.297 -76.84903,23.3047 -83.06377,38.21627c-13.01364,31.22474 -21.18093,53.19474 -9.82729,81.67232c5.70506,14.30961 11.14074,26.42294 21.34499,35.55721c10.10325,9.04386 30.95994,17.10824 39.69509,31.25695c17.55764,28.43886 18.77457,34.93482 15.68111,59.76184c-3.09346,24.82702 -6.20812,23.64703 -9.67371,36.73791c-3.9713,15.00113 -10.60024,12.05828 -20.8875,21.79592c-9.2352,8.7418 -58.16544,6.90769 -63.14823,6.86262c-11.52761,-0.10428 -15.51603,1.38021 -31.2594,-5.99582c-15.74337,-7.37603 -18.06109,-9.43516 -21.92037,-13.84773c-11.63251,-13.30024 -10.603,-35.28201 -10.603,-35.28201l-2.11934,-55.20931l-0.12045,-222.05054"/></g></g></svg>