<svg version="1.1" xmlns="http://www.w3.org/2000/svg" xmlns:xlink="http://www.w3.org/1999/xlink" width="609.10812" height="134.59361" viewBox="0,0,609.10812,134.59361"><g transform="translate(42.78229,-68.45472)"><g data-paper-data="{&quot;isPaintingLayer&quot;:true}" fill-rule="nonzero" stroke-width="0.5" stroke-linecap="butt" stroke-linejoin="miter" stroke-miterlimit="10" stroke-dasharray="" stroke-dashoffset="0" style="mix-blend-mode: normal"><path d="M-28.51599,174.00001c0,-0.13807 0.11193,-0.25 0.25,-0.25c0.13807,0 0.25,0.11193 0.25,0.25c0,0.13807 -0.11193,0.25 -0.25,0.25c-0.13807,0 -0.25,-0.11193 -0.25,-0.25z" fill="#ffffff" stroke="none"/><path d="M122.63288,202.33835c0,-0.13807 0.11193,-0.25 0.25,-0.25c0.13807,0 0.25,0.11193 0.25,0.25c0,0.13807 -0.11193,0.25 -0.25,0.25c-0.13807,0 -0.25,-0.11193 -0.25,-0.25z" fill="#000000" stroke="none"/><path d="M566.07583,197.83385c0,0.25 -0.25,0.25 -0.25,0.25h-0.22322c-1.5,0 -3,0 -4.5,0c-3.5,0 -7.00001,-0.00004 -10.50001,-0.00015c-3.5184,-0.00011 -7.03737,0.03306 -10.554,-0.09318c-3.36715,-1.45842 -6.7262,-1.1216 -9.9934,-2.71574c-2.34679,-1.18733 -7.67164,-0.22618 -10.3345,-0.17253c-1.16133,0.00764 -2.48406,1.05057 -3.5337,1.54283c-2.23776,1.04946 -3.84397,1.43883 -6.30729,1.439c-3.46589,0.00024 -6.97187,-0.13284 -10.42466,0.17282c-3.3524,1.67766 -6.55548,1.32845 -10.26266,1.32845c-3.49981,0 -6.99961,-0.00105 -10.49941,0.0071c-3.50396,0.00816 -6.78327,1.48699 -10.32346,1.52574c-3.55568,0.03893 -6.83953,0.69202 -10.32605,1.3701c-3.29574,0.63346 -7.17752,0.10005 -10.53853,0.10005c-3.5,0 -7,0 -10.5,0c-3.50002,0 -7.00004,0.00061 -10.50007,-0.00031c-3.50101,-0.00091 -7.00113,-0.01956 -10.50199,-0.05152c-3.33673,-0.04906 -6.77595,-2.43635 -10.05663,-3.09058c-3.46326,-0.69407 -6.8569,-1.37198 -10.22936,-2.42719c-3.26189,-1.02061 -7.49144,0.68418 -10.10022,-1.79702c-1.09815,-1.05045 -3.48643,-2.72573 -4.94615,-3.17049c-1.41518,-0.43119 -2.94837,-0.10163 -4.42486,-0.60737c-3.22589,-1.10496 -6.07439,-3.82403 -9.42387,-3.97272c-3.11395,-0.13823 -6.86824,-2.96045 -9.46325,-4.60812c-2.41455,-1.5331 -3.92458,-0.78638 -6.5336,-1.41199c-1.06261,-0.2548 -2.20252,-1.05032 -3.18964,-1.52564c-3.40847,-1.09496 -6.75667,-1.25725 -10.11898,-2.35561c-3.32756,-1.087 -6.76039,-1.78751 -10.1015,-2.83594c-3.33938,-1.04788 -6.80854,-1.32369 -10.27525,-1.77748c-3.44541,-0.451 -6.79518,-1.87374 -10.21978,-1.94295c-1.65082,-0.03336 -2.69712,-1.13249 -4.23824,-1.46369c-1.78866,-0.3844 -4.11035,0.00558 -5.94747,0.00558c-3.5,0 -7,0 -10.5,0c-3.5,0 -7,0 -10.5,0c-3.5,0 -7,0 -10.5,0c-3.5,0 -7,0 -10.5,0c-3.49974,0.00001 -6.99947,-0.00011 -10.49921,0.00158c-3.86636,0.02266 -6.3464,1.22756 -9.96177,2.38259c-3.28275,1.04877 -6.92661,0.75222 -10.35416,1.43842c-3.25578,0.65181 -7.00744,2.17298 -10.30755,2.18342c-3.5,0 -7,0 -10.5,0c-3.5,0 -7,-0.0001 -10.50001,-0.00018c-3.50098,-0.00008 -7.00244,0.01564 -10.50313,-0.03077c-3.50635,-0.04649 -6.90362,-1.47898 -10.35743,-1.47055c-3.5,0 -7,0 -10.5,0c-3.5,0 -7,0 -10.5,0c-3.5,0 -7,0 -10.5,0c-3.5,0 -7,0 -10.5,0c-3.49999,0 -6.99999,-0.00008 -10.49998,0.00013c-3.49967,0.00021 -6.9992,0.00043 -10.49883,0.01649c-3.59881,0.01652 -6.79368,1.48128 -10.28036,1.48914c-1.64427,0.00371 -4.35644,-0.44391 -5.86755,0.29601c-1.26013,0.61702 -2.37631,1.79243 -3.71483,2.46161c-3.21694,1.60825 -6.42803,2.58915 -9.87592,3.58885c-3.44487,0.99882 -6.44156,2.31458 -9.64952,3.91422c-2.55083,1.25491 -7.58804,1.74335 -10.44032,1.74679c-3.35366,-0.00102 -7.25726,0.49229 -10.54011,-0.18845c-3.61537,-0.75817 -6.77356,-1.36528 -10.02391,-3.1534c-1.22232,-1.20957 -2.71062,-3.41553 -4.22683,-4.20213c-0.38187,-0.19811 -1.24313,0.00982 -1.54616,-0.33019c-0.40597,-0.45552 -0.22775,-2.44916 -0.25284,-3.06609c-1.83179,-2.07911 -0.46581,-3.80134 -1.53824,-6.0042c-0.50093,-1.02895 -1.97522,-2.05788 -2.74815,-2.92147c-0.06749,-0.80137 0.14766,-2.27296 -0.17354,-2.99189c-0.50427,-1.12869 -2.28402,-1.69748 -2.81695,-2.83378c-0.28598,-0.60976 0.11705,-2.96752 -0.5635,-2.85304c-2.0316,-0.04217 -2.45157,-0.84162 -4.10164,-1.52927c-0.87122,-0.36307 -2.13133,0.14475 -2.99842,-0.2583c-0.7717,-0.35871 -1.58715,-1.56569 -2.19271,-2.17125c-1.87808,-1.87809 -6.68145,-5.30645 -6.682,-7.99977c-0.0003,-1.44613 0.61837,-5.1241 -0.2963,-6.31627c-0.64283,-0.83787 -2.52664,-1.19836 -3.37352,-2.01734c-0.68282,-0.66032 -1.65125,-1.90545 -2.54659,-2.25033c-0.8621,-0.33207 -2.06397,0.08548 -2.96899,-0.15047c-1.34671,-0.35111 -2.18645,-1.30637 -3.63408,-1.33683c-1.97424,-0.0742 -3.36562,-2.44682 -5.19404,-2.99294c-1.23843,-0.3699 -3.15795,-0.0178 -4.4618,-0.03515c-2.0815,-0.54471 -4.31619,-0.9403 -6.3348,-1.68174c-1.29158,-0.4744 -2.21778,-1.27331 -3.62309,-1.27701c-1.40585,-0.00369 -3.80243,0.43513 -5.09797,-0.1563c-1.499,-0.6843 -2.9435,-2.08265 -4.55821,-2.85611c-3.06952,-0.03884 -5.72752,-1.48907 -8.71141,-1.48907c0,0 -0.25,0 -0.25,-0.25c0,-0.25 0.25,-0.25 0.25,-0.25c3.00743,0 5.74522,1.39781 8.82525,1.50221c1.68021,0.76142 3.12146,2.18942 4.65202,2.88813c1.20599,0.55054 3.57563,0.10769 4.89165,0.11114c1.48962,0.00392 2.43664,0.80904 3.79416,1.30766c1.98796,0.73018 4.18348,1.10301 6.22952,1.65561c1.3349,0.0073 3.26451,-0.32878 4.53778,0.05154c1.70939,0.51058 3.25166,2.97338 5.06146,2.97214c1.51784,0.03193 2.35633,0.98962 3.74971,1.35289c0.93061,0.24262 2.12243,-0.17902 3.02257,0.16771c0.97248,0.37459 1.97686,1.6442 2.71445,2.35749c0.88721,0.85798 2.72594,1.16434 3.42264,2.07241c1.02254,1.33277 0.39927,5.02164 0.3996,6.62053c0.00051,2.4627 4.79078,5.90152 6.53556,7.64632c0.55662,0.55662 1.34854,1.74537 2.04992,2.0714c0.84006,0.39049 2.10986,-0.11243 2.97999,0.25019c1.64434,0.68526 1.90294,1.44905 3.91968,1.4909c1.50967,0.17509 0.5125,2.0888 1.00581,3.14062c0.52866,1.12721 2.30627,1.69054 2.82077,2.84214c0.32911,0.73662 0.15832,2.18768 0.17618,2.99791c0.80507,0.79446 2.24519,1.88715 2.73856,2.90056c0.66652,1.36909 -0.21654,3.17094 0.27647,4.50558c0.18137,0.49098 0.94537,1.11601 1.27628,1.53135c0.0444,0.49109 -0.11744,2.60595 0.16205,2.91955c0.13946,0.15648 1.17863,0.10255 1.40314,0.21903c1.54839,0.80329 3.06515,3.00218 4.2958,4.24537c3.20053,1.71794 6.27888,2.3205 9.82731,3.06463c3.23427,0.6866 7.1296,0.17681 10.43764,0.17781c2.73248,0.0053 7.78909,-0.46456 10.21704,-1.69425c3.23314,-1.61219 6.26105,-2.94019 9.73341,-3.94699c3.41986,-0.99157 6.6013,-1.9609 9.79157,-3.55585c1.34463,-0.67223 2.44608,-1.84038 3.71853,-2.46344c1.59846,-0.78269 4.34971,-0.34303 6.0863,-0.34695c3.47626,-0.00784 6.68299,-1.47263 10.2792,-1.48914c3.50039,-0.01607 7.00067,-0.01628 10.5011,-0.01649c3.50001,-0.00021 7.00001,-0.00013 10.50002,-0.00013c3.5,0 7,0 10.5,0c3.5,0 7,0 10.5,0c3.5,0 7,0 10.5,0c3.5,0 7,0 10.5,0c3.46534,0.00768 6.85061,1.42401 10.36406,1.47059c3.49848,0.04639 6.99774,0.03065 10.49651,0.03073c3.5,0.00008 7,0.00017 10.49999,0.00018c3.5,0 7,0 10.5,0c3.24727,0.01153 7.00355,-1.53188 10.20939,-2.17369c3.40725,-0.68213 7.0404,-0.38301 10.30015,-1.42443c3.64917,-1.16583 6.20256,-2.3834 10.11235,-2.4063c3.50026,-0.0017 7.00053,-0.00158 10.50079,-0.00158c3.5,0 7,0 10.5,0c3.5,0 7,0 10.5,0c3.5,0 7,0 10.5,0c3.5,0 7,0 10.5,0c1.87604,0 4.22364,-0.38747 6.05253,0.00558c1.50146,0.32268 2.5522,1.42048 4.14329,1.45264c3.44802,0.06969 6.80906,1.49345 10.27457,1.94708c3.49605,0.45763 6.992,0.73931 10.36005,1.79618c3.34297,1.049 6.77755,1.75008 10.10706,2.83772c3.36928,1.10063 6.73135,1.25991 10.14909,2.36652c3.32795,1.59308 6.76291,1.04778 9.80589,2.9799c2.51332,1.59581 6.20633,4.39705 9.21741,4.53072c3.43413,0.15244 6.27513,2.87277 9.56372,3.9992c1.47151,0.50403 2.98794,0.16924 4.40857,0.6021c1.54371,0.47036 3.98073,2.18484 5.145,3.28648c2.45845,2.33823 6.77965,0.70427 9.90494,1.68213c3.35565,1.04994 6.73218,1.72349 10.17831,2.41412c3.21324,0.64696 6.70067,3.0723 9.96294,3.08085c3.49938,0.03194 6.99802,0.05059 10.49755,0.0515c3.49998,0.00091 6.99996,0.00031 10.49993,0.00031c3.5,0 7,0 10.5,0c3.3182,0 7.19309,0.54939 10.44308,-0.09086c3.51563,-0.68375 6.82994,-1.34001 10.41603,-1.37927c3.54066,-0.03876 6.81802,-1.5176 10.32776,-1.52577c3.50019,-0.00815 7.00037,-0.0071 10.50057,-0.0071c3.70143,0 6.77239,0.30186 10.12633,-1.3095c3.48687,-0.36541 7.05669,-0.19152 10.56095,-0.19176c0.9109,-0.00006 2.06102,0.19261 2.94835,0.00519c2.34041,-0.49433 4.50278,-2.91302 6.8826,-2.98692c2.83727,-0.05717 8.01968,-0.98218 10.56382,0.22306c3.23913,1.58045 6.56046,1.1615 9.88439,2.67741c3.48203,0.05829 6.96083,0.08077 10.44377,0.08087c3.5,0.00011 6.99999,0.00015 10.49999,0.00015c1.5,0 3,0 4.5,0h0.22322c0,0 0.25,0 0.25,0.25z" fill="none" stroke="#ffffff"/><path d="M401.91216,68.70472c0,-0.13807 0.11193,-0.25 0.25,-0.25c0.13807,0 0.25,0.11193 0.25,0.25c0,0.13807 -0.11193,0.25 -0.25,0.25c-0.13807,0 -0.25,-0.11193 -0.25,-0.25z" fill="#000000" stroke="none"/></g></g></svg>