<svg version="1.1" xmlns="http://www.w3.org/2000/svg" xmlns:xlink="http://www.w3.org/1999/xlink" width="68.09384" height="65.13627" viewBox="0,0,68.09384,65.13627"><defs><radialGradient cx="240" cy="180.00002" r="27.68374" gradientUnits="userSpaceOnUse" id="color-1"><stop offset="0" stop-color="#88ff73"/><stop offset="1" stop-color="#88ff73" stop-opacity="0"/></radialGradient><linearGradient x1="268.57915" y1="180.37082" x2="261.49549" y2="180.37082" gradientUnits="userSpaceOnUse" id="color-2"><stop offset="0" stop-color="#45ff21"/><stop offset="1" stop-color="#45ff21" stop-opacity="0"/></linearGradient><linearGradient x1="210.48937" y1="180.37082" x2="217.57302" y2="180.37082" gradientUnits="userSpaceOnUse" id="color-3"><stop offset="0" stop-color="#45ff21"/><stop offset="1" stop-color="#45ff21" stop-opacity="0"/></linearGradient><linearGradient x1="240.19135" y1="151.36156" x2="240.0773" y2="158.4443" gradientUnits="userSpaceOnUse" id="color-4"><stop offset="0" stop-color="#45ff21"/><stop offset="1" stop-color="#45ff21" stop-opacity="0"/></linearGradient><linearGradient x1="240.09494" y1="209.96394" x2="240.0848" y2="202.88029" gradientUnits="userSpaceOnUse" id="color-5"><stop offset="0" stop-color="#45ff21"/><stop offset="1" stop-color="#45ff21" stop-opacity="0"/></linearGradient><linearGradient x1="259.77928" y1="199.87059" x2="256.92023" y2="196.87891" gradientUnits="userSpaceOnUse" id="color-6"><stop offset="0" stop-color="#45ff21"/><stop offset="1" stop-color="#45ff21" stop-opacity="0"/></linearGradient><linearGradient x1="220.13163" y1="160.93545" x2="222.99068" y2="163.92716" gradientUnits="userSpaceOnUse" id="color-7"><stop offset="0" stop-color="#45ff21"/><stop offset="1" stop-color="#45ff21" stop-opacity="0"/></linearGradient><linearGradient x1="260.22474" y1="160.91744" x2="257.18741" y2="163.72796" gradientUnits="userSpaceOnUse" id="color-8"><stop offset="0" stop-color="#45ff21"/><stop offset="1" stop-color="#45ff21" stop-opacity="0"/></linearGradient><linearGradient x1="220.96405" y1="200.52463" x2="223.93686" y2="197.64597" gradientUnits="userSpaceOnUse" id="color-9"><stop offset="0" stop-color="#45ff21"/><stop offset="1" stop-color="#45ff21" stop-opacity="0"/></linearGradient></defs><g transform="translate(-205.95308,-147.43188)"><g data-paper-data="{&quot;isPaintingLayer&quot;:true}" fill-rule="nonzero" stroke-linejoin="miter" stroke-miterlimit="10" stroke-dasharray="" stroke-dashoffset="0" style="mix-blend-mode: normal"><path d="M266.64086,180.00002c0,15.28931 -11.92752,27.68374 -26.64086,27.68374c-14.71334,0 -26.64086,-12.39444 -26.64086,-27.68374c0,-15.28931 11.92752,-27.68374 26.64086,-27.68374c14.71334,0 26.64086,12.39444 26.64086,27.68374z" fill="url(#color-1)" stroke="#44ff21" stroke-width="0" stroke-linecap="butt"/><path d="M240.36774,211.56816c-17.37125,0 -33.41466,-14.13356 -33.41466,-31.56818c0,-17.43462 16.04341,-31.56809 33.41466,-31.56809c17.37125,0 32.67918,14.13347 32.67918,31.56809c0,17.43462 -15.30794,31.56818 -32.67918,31.56818z" fill="none" stroke="#44ff21" stroke-width="2" stroke-linecap="butt"/><path d="M261.49882,179.95947c0.08461,-4.26903 1.73748,-7.54559 3.6917,-7.31841c1.95422,0.22719 3.46982,3.87208 3.38521,8.14111c-0.08453,4.26903 -1.73739,7.5455 -3.6916,7.31841c-1.95422,-0.22728 -3.46991,-3.87208 -3.3853,-8.1411z" data-paper-data="{&quot;index&quot;:null}" fill="none" stroke="url(#color-2)" stroke-width="3" stroke-linecap="butt"/><path d="M214.18439,188.10057c-1.95422,0.2271 -3.60709,-3.04938 -3.6916,-7.31841c-0.08461,-4.26903 1.43099,-7.91392 3.38521,-8.14111c1.95422,-0.22719 3.60709,3.04938 3.6917,7.31841c0.08461,4.26903 -1.43108,7.91383 -3.3853,8.14111z" data-paper-data="{&quot;index&quot;:null}" fill="none" stroke="url(#color-3)" stroke-width="3" stroke-linecap="butt"/><path d="M232.4031,154.93166c-0.19561,-1.95763 3.10706,-3.55753 7.3769,-3.57331c4.26984,-0.01587 7.88985,1.55822 8.08555,3.51584c0.19569,1.95763 -3.10706,3.55753 -7.3769,3.57339c-4.26984,0.01587 -7.88976,-1.5583 -8.08555,-3.51593z" data-paper-data="{&quot;index&quot;:null}" fill="none" stroke="url(#color-4)" stroke-width="3" stroke-linecap="butt"/><path d="M240.49615,202.88304c4.26914,0.0785 7.54807,1.72668 7.32369,3.68122c-0.22439,1.95454 -3.86712,3.47536 -8.13626,3.39686c-4.26914,-0.07841 -7.54799,-1.7266 -7.32368,-3.68114c0.22449,-1.95455 3.86711,-3.47545 8.13625,-3.39694z" data-paper-data="{&quot;index&quot;:null}" fill="none" stroke="url(#color-5)" stroke-width="3" stroke-linecap="butt"/><path d="M257.0953,196.71429c1.83712,-1.6873 3.88805,-2.31169 4.58085,-1.39466c0.69279,0.91703 -0.23486,3.02825 -2.07197,4.71554c-1.83708,1.68733 -3.88796,2.31171 -4.5808,1.3947c-0.69276,-0.91707 0.23481,-3.02829 2.07193,-4.71558z" data-paper-data="{&quot;index&quot;:null}" fill="none" stroke="url(#color-6)" stroke-width="1.5" stroke-linecap="butt"/><path d="M218.35843,165.61584c-0.88466,-0.73368 -0.168,-2.75417 1.60086,-4.5129c1.76881,-1.75876 3.91989,-2.58979 4.80459,-1.85615c0.88469,0.73364 0.168,2.75417 -1.60081,4.51294c-1.76881,1.75876 -3.9199,2.58972 -4.80464,1.85611z" data-paper-data="{&quot;index&quot;:null}" fill="none" stroke="url(#color-7)" stroke-width="1.5" stroke-linecap="butt"/><path d="M255.57354,159.06913c0.74783,-0.87273 2.75652,-0.12363 4.48654,1.6733c1.73006,1.7969 2.52635,3.96108 1.77856,4.83386c-0.74779,0.87277 -2.75652,0.12364 -4.48658,-1.67326c-1.73006,-1.7969 -2.52628,-3.96108 -1.77852,-4.83389z" data-paper-data="{&quot;index&quot;:null}" fill="none" stroke="url(#color-8)" stroke-width="1.5" stroke-linecap="butt"/><path d="M224.10262,197.81995c1.69934,1.82598 2.33722,3.87275 1.42476,4.57156c-0.91245,0.69881 -3.02973,-0.21494 -4.72907,-2.04091c-1.69938,-1.82593 -2.33723,-3.87268 -1.42481,-4.57153c0.9125,-0.69878 3.02977,0.2149 4.72912,2.04088z" data-paper-data="{&quot;index&quot;:null}" fill="none" stroke="url(#color-9)" stroke-width="1.5" stroke-linecap="butt"/><path d="M254.19353,195.55757c-8.95994,8.56271 -22.80627,8.61592 -30.92662,0.11884c-8.12035,-8.49707 -7.43973,-22.32676 1.52022,-30.88946c8.95994,-8.56271 22.80627,-8.61592 30.92662,-0.11884c8.12035,8.49708 7.43973,22.32676 -1.52021,30.88946z" fill="none" stroke="#44ff21" stroke-width="1.5" stroke-linecap="butt"/><path d="M240.12143,160.22928l15.9039,31.20001c0,0 -10.89974,-1.12157 -16.41118,-1.17809c-5.59479,-0.05738 -16.91128,0.83633 -16.91128,0.83633z" fill="none" stroke="#2fff0b" stroke-width="1.5" stroke-linecap="round"/><path d="M231.79081,173.35631c0,3.06725 -2.26045,5.55374 -5.04885,5.55374c-2.7884,0 -5.04886,-2.4865 -5.04886,-5.55374c0,-3.06725 2.26046,-5.55374 5.04886,-5.55374c2.7884,0 5.04885,2.48649 5.04885,5.55374z" fill="none" stroke="#2fff0b" stroke-width="1.5" stroke-linecap="butt"/><path d="M258.29731,172.85143c0,3.06725 -2.26044,5.55374 -5.04885,5.55374c-2.78841,0 -5.04886,-2.48649 -5.04886,-5.55374c0,-3.06725 2.26045,-5.55374 5.04886,-5.55374c2.78841,0 5.04885,2.48649 5.04885,5.55374z" fill="none" stroke="#2fff0b" stroke-width="1.5" stroke-linecap="butt"/><path d="M245.42273,195.5713c0,3.06725 -2.26044,5.55374 -5.04885,5.55374c-2.78841,0 -5.04885,-2.48649 -5.04885,-5.55374c0,-3.06725 2.26044,-5.55375 5.04885,-5.55375c2.78841,0 5.04885,2.4865 5.04885,5.55375z" fill="none" stroke="#2fff0b" stroke-width="1.5" stroke-linecap="butt"/><path d="M232.43308,175.27991c0,0 5.0902,0.40922 7.60676,0.38294c2.47907,-0.02589 7.38182,-0.53944 7.38182,-0.53944l-7.15364,14.28633z" data-paper-data="{&quot;index&quot;:null}" fill="none" stroke="#2fff0b" stroke-width="1.5" stroke-linecap="round"/><path d="M211.34959,165.87577l8.26785,4.24876" fill="none" stroke="#44ff21" stroke-width="2" stroke-linecap="round"/><path d="M226.62215,152.09602l3.90427,7.6937" fill="none" stroke="#44ff21" stroke-width="2" stroke-linecap="round"/><path d="M249.81808,159.90454l4.93775,-7.11954" fill="none" stroke="#44ff21" stroke-width="2" stroke-linecap="round"/><path d="M268.76524,166.44993l-8.38269,3.55977" fill="none" stroke="#44ff21" stroke-width="2" stroke-linecap="round"/><path d="M259.4639,189.30136l9.1865,4.70808" fill="none" stroke="#44ff21" stroke-width="2" stroke-linecap="round"/><path d="M250.04774,199.63618l4.01909,8.15302" fill="none" stroke="#44ff21" stroke-width="2" stroke-linecap="round"/><path d="M226.73699,208.24852l3.33011,-7.34921" fill="none" stroke="#44ff21" stroke-width="2" stroke-linecap="round"/><path d="M219.38778,191.36831l-7.11954,4.24876" fill="none" stroke="#44ff21" stroke-width="2" stroke-linecap="round"/></g></g></svg>