<svg version="1.1" xmlns="http://www.w3.org/2000/svg" xmlns:xlink="http://www.w3.org/1999/xlink" width="525.5" height="399.5" viewBox="0,0,525.5,399.5"><g transform="translate(20.00633,32.82732)"><g data-paper-data="{&quot;isPaintingLayer&quot;:true}" fill="none" fill-rule="nonzero" stroke="#ffffff" stroke-width="2.5" stroke-linecap="round" stroke-linejoin="miter" stroke-miterlimit="10" stroke-dasharray="" stroke-dashoffset="0" style="mix-blend-mode: normal"><path d="M7.24367,-31.57732c0,0 139.06003,114.65685 157.92584,126.01746c15.40943,9.27924 39.33817,23.04616 72.0864,28.84333c26.74569,4.73458 51.049,13.40302 69.55454,20.88864c20.64719,8.35193 49.97055,40.85245 56.09349,59.36295c4.13853,12.51136 -6.54675,41.48778 -15.47272,54.47055c-5.81969,8.46469 -18.10066,19.80765 -31.13191,26.39632c-13.88846,7.02207 -28.37785,9.02076 -28.37785,9.02076"/><path d="M-18.75633,217.42269c0,0 27.63607,0.58204 77.46803,13.77577c49.83196,13.19372 77.81189,27.48572 125.83855,40.05256c4.11037,1.07554 38.80249,10.5431 59.06557,13.97323c18.39724,3.11427 64.72539,8.78514 72.93461,12.52509c7.85897,3.58038 32.52912,6.80724 39.54073,10.00749c11.11684,5.07397 19.57823,13.08106 25.51196,19.32421c17.41773,18.32598 15.64055,38.34164 15.64055,38.34164"/><path d="M359.66818,202.75136c0,0 11.14692,-40.14717 28.2897,-69.27709c4.99984,-8.49599 13.44048,-20.42555 19.29497,-24.50595c28.77518,-20.05543 96.99082,-54.54564 96.99082,-54.54564"/></g></g></svg>