<svg version="1.1" xmlns="http://www.w3.org/2000/svg" xmlns:xlink="http://www.w3.org/1999/xlink" width="152.3004" height="174.10924" viewBox="0,0,152.3004,174.10924"><defs><radialGradient cx="244.79195" cy="172.19139" r="5.7181" gradientUnits="userSpaceOnUse" id="color-1"><stop offset="0" stop-color="#f9f9f9"/><stop offset="1" stop-color="#521717"/></radialGradient><radialGradient cx="244.06076" cy="165.51498" r="17.60021" gradientUnits="userSpaceOnUse" id="color-2"><stop offset="0" stop-color="#ab0000"/><stop offset="1" stop-color="#000000"/></radialGradient><radialGradient cx="244.51942" cy="187.76526" r="5.8245" gradientUnits="userSpaceOnUse" id="color-3"><stop offset="0" stop-color="#f9f9f9"/><stop offset="1" stop-color="#521717"/></radialGradient><radialGradient cx="243.19366" cy="194.47477" r="17.60021" gradientUnits="userSpaceOnUse" id="color-4"><stop offset="0" stop-color="#ab0000"/><stop offset="1" stop-color="#000000"/></radialGradient><radialGradient cx="241.98447" cy="175.95971" r="12.119" gradientUnits="userSpaceOnUse" id="color-5"><stop offset="0" stop-color="#ffffff"/><stop offset="1" stop-color="#1a1a1a"/></radialGradient><radialGradient cx="241.45427" cy="184.59861" r="12.119" gradientUnits="userSpaceOnUse" id="color-6"><stop offset="0" stop-color="#ff9c9c"/><stop offset="1" stop-color="#090d0e"/></radialGradient><linearGradient x1="204.72125" y1="180.63487" x2="227.26298" y2="180.63487" gradientUnits="userSpaceOnUse" id="color-7"><stop offset="0" stop-color="#5f5436"/><stop offset="1" stop-color="#170d0d"/></linearGradient><linearGradient x1="200.55187" y1="179.39676" x2="237.63545" y2="179.39676" gradientUnits="userSpaceOnUse" id="color-8"><stop offset="0" stop-color="#000000"/><stop offset="1" stop-color="#ab0000"/></linearGradient><radialGradient cx="228.9" cy="178" r="6.79168" gradientUnits="userSpaceOnUse" id="color-9"><stop offset="0" stop-color="#cdb30f"/><stop offset="1" stop-color="#833e00"/></radialGradient><radialGradient cx="225.1" cy="179" r="2.49901" gradientUnits="userSpaceOnUse" id="color-10"><stop offset="0" stop-color="#cdb30f"/><stop offset="1" stop-color="#833e00"/></radialGradient><radialGradient cx="235.20437" cy="183.88411" r="2.6913" gradientUnits="userSpaceOnUse" id="color-11"><stop offset="0" stop-color="#f675ff"/><stop offset="1" stop-color="#000000"/></radialGradient><radialGradient cx="235.0069" cy="183.83522" r="1.64771" gradientUnits="userSpaceOnUse" id="color-12"><stop offset="0" stop-color="#f49bfa"/><stop offset="1" stop-color="#f49bfa" stop-opacity="0"/></radialGradient><radialGradient cx="217.49675" cy="187.2436" r="3.77671" gradientUnits="userSpaceOnUse" id="color-13"><stop offset="0" stop-color="#cdb30f"/><stop offset="1" stop-color="#833e00"/></radialGradient><radialGradient cx="215.18454" cy="178.3112" r="4.68586" gradientUnits="userSpaceOnUse" id="color-14"><stop offset="0" stop-color="#cdb30f"/><stop offset="1" stop-color="#833e00"/></radialGradient><radialGradient cx="219.49675" cy="169.37711" r="3.77671" gradientUnits="userSpaceOnUse" id="color-15"><stop offset="0" stop-color="#cdb30f"/><stop offset="1" stop-color="#833e00"/></radialGradient><radialGradient cx="239.42284" cy="181.28551" r="40.94288" gradientUnits="userSpaceOnUse" id="color-16"><stop offset="0" stop-color="#ff0000"/><stop offset="1" stop-color="#ff0000" stop-opacity="0"/></radialGradient><radialGradient cx="237.57816" cy="182.20514" r="47.39585" gradientUnits="userSpaceOnUse" id="color-17"><stop offset="0" stop-color="#ff0000"/><stop offset="1" stop-color="#ff0000" stop-opacity="0"/></radialGradient><radialGradient cx="234.16581" cy="183.17609" r="38.06049" gradientUnits="userSpaceOnUse" id="color-18"><stop offset="0" stop-color="#ff0000"/><stop offset="1" stop-color="#ff0000" stop-opacity="0"/></radialGradient></defs><g transform="translate(-179.53629,-95.4985)"><g data-paper-data="{&quot;isPaintingLayer&quot;:true}" fill-rule="nonzero" stroke-linejoin="miter" stroke-miterlimit="10" stroke-dasharray="" stroke-dashoffset="0" style="mix-blend-mode: normal"><path d="M216.08746,152.2485c-0.3054,0 -0.42426,-0.18654 -0.47052,-0.33174c-2.17414,-0.60476 -2.78427,-4.0855 -3.50086,-5.90488c-0.56785,-1.44173 -1.02684,-3.17841 -1.92428,-4.45769c-2.28748,-3.26076 -7.25102,-2.10768 -10.52213,-1.56249c0,0 -0.4932,0.0822 -0.5754,-0.411c-0.0822,-0.4932 0.411,-0.5754 0.411,-0.5754c3.70082,-0.6168 8.89167,-1.67358 11.47787,1.93751c0.96631,1.34925 1.46079,3.17269 2.06338,4.7026c0.43688,1.10921 1.39909,5.5661 3.05074,5.35318l0.49022,0.7499c0,0 0,0.5 -0.5,0.5z" fill="#ff0000" stroke="none" stroke-width="0.5" stroke-linecap="butt"/><path d="M193.59717,214.59656c-0.09806,-0.49029 0.39223,-0.58835 0.39223,-0.58835l0.26942,-0.05388c5.87791,-1.17546 11.88524,-0.38851 17.79792,-1.37451c1.70022,-0.14258 2.19855,-4.9923 3.41103,-6.41796c1.93374,-2.27374 5.8395,-3.07971 8.39608,-4.36057c0,0 0.44721,-0.22361 0.67082,0.22361c0.22361,0.44721 -0.22361,0.67082 -0.22361,0.67082c-2.39862,1.19708 -6.32035,1.98634 -8.10392,4.13943c-1.65872,2.00238 -1.28343,6.14039 -3.98592,6.73105c-5.90209,0.98423 -11.90283,0.1959 -17.76629,1.36871l-0.26942,0.05388c0,0 -0.49029,0.09806 -0.58835,-0.39223z" fill="#ff0000" stroke="none" stroke-width="0.5" stroke-linecap="butt"/><path d="M231.15421,148.91377c-0.05444,-0.06433 0.00988,-0.11875 0.00988,-0.11875l0.03092,-0.0262c0.68827,-0.58257 1.2648,-1.29513 2.01859,-1.79168c1.15742,-0.76243 2.05306,-0.79502 3.41015,-0.6475c1.26034,0.42889 2.04884,0.76287 3.20826,-0.04645c0.72298,-0.94517 1.35452,-1.88588 1.95919,-2.91127c0.64243,-1.08906 1.34858,-1.94396 2.58634,-2.32951c1.00948,-0.31443 2.52806,-0.51937 3.5452,-0.19033c1.18838,0.38441 2.11752,0.88967 3.17209,1.55569c1.00645,0.63565 1.95973,1.30462 2.90856,2.02332c0.7858,0.59521 1.65417,1.12158 2.69125,1.0129c0,0 0.08382,-0.00878 0.09258,0.07502c0.00878,0.08384 -0.07504,0.09258 -0.07504,0.09258c-1.07814,0.113 -1.99181,-0.42606 -2.81053,-1.04617c-0.94508,-0.71585 -1.89433,-1.38204 -2.8968,-2.01516c-1.04406,-0.65939 -1.95783,-1.15737 -3.13396,-1.53783c-0.98356,-0.31818 -2.46768,-0.113 -3.44323,0.19088c-1.19733,0.37297 -1.87004,1.20046 -2.49127,2.25422c-0.61199,1.03781 -1.24492,1.99813 -1.98782,2.9474c-1.19869,0.8565 -2.0542,0.54338 -3.36132,0.08926c-1.3163,-0.1346 -2.15924,-0.11522 -3.28097,0.62369c-0.74738,0.49234 -1.31974,1.20172 -2.00244,1.77961l-0.03092,0.02618c0,0 -0.06433,0.05444 -0.11877,-0.00988z" fill="#ff0000" stroke="none" stroke-width="0.5" stroke-linecap="butt"/><path d="M275.55,179.41849c0.08402,-0.00661 0.0906,0.07737 0.0906,0.07737l0.00636,0.08038c0.08033,1.04658 0.37059,1.95102 0.20077,3.01911c-0.17929,1.12367 0.53432,2.29128 0.82683,3.35358c0.32554,1.18206 0.44367,2.27412 0.52888,3.49746c0.06855,0.98409 -0.05451,2.05483 -0.15612,3.03884c0,0 -0.00869,0.0838 -0.09249,0.07515c-0.0838,-0.00869 -0.07515,-0.09249 -0.07515,-0.09249c0.10098,-0.97437 0.22351,-2.03528 0.15564,-3.00978c-0.08446,-1.21297 -0.20055,-2.29278 -0.52324,-3.46443c-0.30112,-1.09336 -1.01431,-2.26688 -0.83082,-3.42478c0.16729,-1.05224 -0.11915,-1.94753 -0.20233,-2.97942l-0.00634,-0.08038c0,0 -0.00661,-0.08402 0.07737,-0.09062z" fill="#ff0000" stroke="none" stroke-width="0.5" stroke-linecap="butt"/><path d="M252.81471,136.80031c0.06433,-0.05444 0.11877,0.00988 0.11877,0.00988l0.01018,0.01202c0.22309,0.26357 0.40584,0.53485 0.60489,0.81551c0.6094,0.85931 1.36922,2.1145 2.55626,2.08922c0.41363,-0.0088 0.92923,0.06449 1.33109,-0.02662c0.31779,-0.07206 0.80778,-0.55472 1.14405,-0.40789c0.23595,0.10302 0.52526,0.51273 0.76074,0.67536c0.97176,0.67121 1.93951,1.34484 2.89393,2.04051c0.98332,0.71677 1.81623,1.45985 2.66279,2.33352c0.70395,0.72649 1.47272,1.36104 2.29493,1.95081c0,0 0.06848,0.04913 0.01938,0.11759c-0.04913,0.06848 -0.11757,0.01938 -0.11757,0.01938c-0.83039,-0.59562 -1.60681,-1.2368 -2.31775,-1.97047c-0.84033,-0.86721 -1.66505,-1.60313 -2.64107,-2.31459c-0.95326,-0.69485 -1.91987,-1.36766 -2.89044,-2.03805c-0.24501,-0.16924 -0.49802,-0.53803 -0.73608,-0.66123c-0.1634,-0.08457 -0.70882,0.27445 -0.86598,0.3446c-0.4288,0.19145 -1.06523,0.09562 -1.5344,0.10565c-1.25587,0.02677 -2.05078,-1.24859 -2.69731,-2.1602c-0.19649,-0.27707 -0.37592,-0.544 -0.59602,-0.80412l-0.0102,-0.01202c0,0 -0.05444,-0.06433 0.00988,-0.11877z" fill="#ff0000" stroke="none" stroke-width="0.5" stroke-linecap="butt"/><path d="M284.4606,206.28733c0.35779,0.22247 0.13528,0.58029 0.13528,0.58029l-0.18657,0.29999c-1.19816,1.92676 -2.39874,3.8208 -3.72724,5.6606c-2.11943,2.6333 -4.50974,4.92667 -7.68126,6.21148c-0.65844,0.26673 -1.5427,0.6609 -2.27138,0.67745c-0.85766,0.01946 -1.76463,-0.39639 -2.56811,-0.64535c0,0 -0.40245,-0.1247 -0.27777,-0.52716c0.12468,-0.40245 0.52714,-0.27775 0.52714,-0.27775c0.69213,0.21446 1.54211,0.62891 2.28323,0.60837c0.63297,-0.01755 1.42147,-0.38553 1.99024,-0.61642c3.02927,-1.22969 5.30197,-3.42629 7.32788,-5.94163c1.31215,-1.81849 2.49769,-3.69053 3.68168,-5.59461l0.18658,-0.29999c0,0 0.22247,-0.35779 0.58029,-0.13528z" fill="#ff0000" stroke="none" stroke-width="0.5" stroke-linecap="butt"/><path d="M248.25279,134.5505c-0.18036,0.38076 -0.56113,0.2004 -0.56113,0.2004l-0.73408,-0.34888c-2.27641,-0.70047 -4.37831,-1.27263 -6.76993,-1.37107c-5.65842,-0.23294 -11.56273,-0.08259 -16.96436,1.79513c-1.30335,0.45307 -2.6851,0.82246 -3.95013,1.3719c-1.6792,0.72932 -3.28503,1.73187 -4.90562,2.58694c-1.44442,0.76212 -3.0452,1.41785 -4.31127,2.4519c0,0 -0.32698,0.26568 -0.59266,-0.06131c-0.26568,-0.32699 0.06131,-0.59268 0.06131,-0.59268c1.31884,-1.06651 2.95089,-1.75247 4.4494,-2.54316c1.63958,-0.86508 3.26414,-1.87666 4.96316,-2.61458c1.2847,-0.55799 2.6857,-0.93483 4.00913,-1.3949c5.50222,-1.91269 11.51108,-2.07842 17.27568,-1.84114c2.48367,0.10225 4.67962,0.69151 7.04108,1.42781l0.789,0.37258c0,0 0.38076,0.18036 0.2004,0.56113z" fill="#ff0000" stroke="none" stroke-width="0.5" stroke-linecap="butt"/><path d="M278.6912,179.62071c-0.30419,-0.29153 -0.0127,-0.59569 -0.0127,-0.59569l0.03478,-0.03631c1.27766,-1.3332 2.57744,-2.64003 3.76296,-4.05611c0.35685,-0.42627 1.3827,-1.27017 1.54309,-1.79175c0.16038,-0.52157 -0.214,-1.79611 -0.26965,-2.34921c-0.2009,-1.99583 -0.47158,-3.7738 -1.04799,-5.69627c-0.70623,-2.35544 -1.19957,-4.96015 -2.16217,-7.22023c-1.28367,-3.01398 -3.33232,-5.86898 -5.34899,-8.41657c-1.04601,-1.32141 -2.09203,-2.6428 -3.13802,-3.96417c-0.47507,-0.60015 -0.94883,-1.42044 -1.51915,-1.92917c-0.77353,-0.69006 -1.92234,-1.18622 -2.80528,-1.73448c-1.909,-1.18533 -3.81799,-2.37067 -5.72699,-3.55598c-1.29885,-0.82622 -3.20595,-0.8095 -4.72052,-1.05176c-2.14835,-0.34357 -4.43062,-0.97044 -6.60185,-1.0594c-1.82962,-0.07502 -3.84737,0.39953 -5.67205,0.58729c-2.51466,0.25877 -5.02932,0.51753 -7.54399,0.7763c-1.0441,0.10745 -2.26761,0.06396 -3.28029,0.33104c-0.68333,0.18021 -1.42623,0.70306 -2.06084,1.01271c-1.26219,0.61581 -2.52438,1.23167 -3.78657,1.8475c-4.5439,2.21697 -9.08777,4.43397 -13.63167,6.65094c0,0 -0.37866,0.18476 -0.56339,-0.1939c-0.18475,-0.37868 0.1939,-0.56341 0.1939,-0.56341c4.5439,-2.21697 9.08775,-4.43397 13.63165,-6.65094c1.26219,-0.61581 2.52438,-1.23167 3.78657,-1.8475c0.6816,-0.33254 1.46546,-0.86933 2.19891,-1.06561c1.05973,-0.28361 2.33265,-0.24659 3.42548,-0.359c2.51466,-0.25877 5.02932,-0.51755 7.54399,-0.77632c1.86415,-0.19182 3.9115,-0.66479 5.78191,-0.59137c2.2085,0.08669 4.52692,0.72034 6.7113,1.06965c1.66415,0.26612 3.58525,0.28747 5.03197,1.16795c1.909,1.18533 3.81801,2.37067 5.72701,3.556c0.92542,0.57462 2.1103,1.09766 2.92173,1.82152c0.60653,0.54107 1.11324,1.39623 1.6189,2.03498c1.04601,1.32141 2.09203,2.6428 3.13802,3.96417c2.06223,2.60513 4.1507,5.52688 5.46357,8.60938c0.9754,2.29016 1.47858,4.92219 2.19406,7.30838c0.59122,1.9718 0.87328,3.80778 1.07925,5.85389c0.0685,0.68058 0.43454,2.03785 0.23669,2.68129c-0.03201,0.10403 -1.04272,1.29697 -1.16149,1.43885c-1.38133,1.64997 -2.85285,3.19083 -4.3416,4.74437l-0.03478,0.03631c0,0 -0.29153,0.30419 -0.59569,0.01268z" fill="#ff0000" stroke="none" stroke-width="0.5" stroke-linecap="butt"/><path d="M289.8356,175.36076c-0.42107,0.0151 -0.43617,-0.40596 -0.43617,-0.40596c-0.04026,-1.12279 -0.10219,-2.84969 -0.14247,-3.97253c-0.03372,-0.94041 0.1816,-1.34721 -0.53925,-1.97814c0,0 -0.30419,-0.29153 -0.01268,-0.59571c0.29153,-0.30419 0.59569,-0.0127 0.59569,-0.0127c0.2338,0.23829 0.56486,0.41028 0.70137,0.71493c0.04303,0.09608 0.09051,1.66139 0.09696,1.84142c0.04026,1.12279 0.08051,2.24562 0.12081,3.36843l0.02166,0.6041c0,0 0.0151,0.42107 -0.40596,0.43617z" fill="#ff0000" stroke="none" stroke-width="0.5" stroke-linecap="butt"/><path d="M222.51534,95.4985c0.7171,0 0.87445,0.55975 0.90898,0.80539c0.20485,0.10241 0.40968,0.20485 0.61452,0.30726c7.74905,3.93498 12.77673,14.0786 15.39751,21.94095c0.8879,2.66373 1.87032,4.79795 1.96928,7.2628h0.40196v1.83736c0,0.50737 -0.41131,0.91868 -0.91868,0.91868c-0.32854,0 -0.61678,-0.17245 -0.77919,-0.43178l-0.70635,-1.09031l0.02548,-0.0165l-0.07094,-0.06188c-0.47799,-1.20117 -0.88274,-2.43494 -1.19761,-3.68879c0,0 -0.16746,-0.66983 0.36867,-0.99328c-0.58983,-1.97128 -1.01569,-4.05077 -1.71291,-5.78992c-2.5508,-6.36275 -7.15654,-15.08156 -13.59891,-18.24395c-0.37089,-0.18544 -0.74178,-0.37089 -1.11265,-0.55633l-0.50783,-1.28102c0,0 0,-0.91868 0.91868,-0.91868z" fill="#ff0000" stroke="none" stroke-width="0.5" stroke-linecap="butt"/><path d="M261.74944,269.31903c-0.6496,0.6496 -1.29921,0 -1.29921,0l-0.71058,-0.92878c-0.37602,-1.88004 -0.92801,-3.77134 -0.93652,-5.69224c0,-4.49478 0.10954,-9.58608 -1.31356,-13.90148c-1.62974,-4.94196 -5.40306,-10.33905 -7.77623,-15.0854c0,0 -0.41085,-0.82168 0.41085,-1.23254c0.82168,-0.41085 1.23254,0.41085 1.23254,0.41085c2.41096,4.82192 6.12384,10.21165 7.84131,15.23099c1.54345,4.51082 1.44247,9.86485 1.44247,14.57756c-0.00965,1.78701 0.55086,3.58202 0.90084,5.3319l0.2081,-0.01011c0,0 0.6496,0.6496 0,1.29921z" fill="#ff0000" stroke="none" stroke-width="0.5" stroke-linecap="butt"/><path d="M319.42297,231.15741c-0.15381,0.90571 -1.05951,0.75192 -1.05951,0.75192c-7.84952,-1.33293 -16.49546,-2.80112 -24.34499,-4.13405c0,0 -0.90571,-0.15381 -0.75192,-1.05951c0.15381,-0.90571 1.05951,-0.75192 1.05951,-0.75192c7.84952,1.33293 15.69902,2.66588 23.54855,3.99881l0.79644,0.13525c0,0 0.90571,0.15381 0.75192,1.05951z" fill="#ff0000" stroke="none" stroke-width="0.5" stroke-linecap="butt"/><path d="M308.29911,143.79704c0.85077,0.34665 0.50412,1.19742 0.50412,1.19742l-0.51079,1.09879c-5.40038,5.85042 -10.80078,11.70084 -16.20116,17.55125c0,0 -0.62312,0.67505 -1.29817,0.05192c-0.67505,-0.62312 -0.05192,-1.29817 -0.05192,-1.29817c5.40038,-5.85042 10.80078,-11.70084 16.20116,-17.55125l0.15934,-0.54584c0,0 0.34665,-0.85077 1.19742,-0.50412z" fill="#ff0000" stroke="none" stroke-width="0.5" stroke-linecap="butt"/><path d="M331.18959,187.40699c0.87805,0.27017 0.60789,1.14822 0.60789,1.14822l-0.21633,0.70308c-1.02846,3.34248 -4.42256,13.66318 -10.07192,9.93426c-1.0187,-0.67242 -1.97753,-4.33883 -2.46197,-5.50145c0,0 -0.35334,-0.84801 0.49467,-1.20136c0.84801,-0.35334 1.20136,0.49467 1.20136,0.49467c0.29956,0.71892 1.20283,4.29497 1.7781,4.6747c3.94493,2.60388 6.66422,-6.86303 7.30364,-8.94117l0.21633,-0.70308c0,0 0.27017,-0.87805 1.14822,-0.60789z" fill="#ff0000" stroke="none" stroke-width="0.5" stroke-linecap="butt"/><path d="M242.44793,164.69668c1.21622,0.33917 3.35583,0.28248 4.04946,1.06566c0.99936,1.12831 2.27855,6.11924 1.94069,6.82379c-0.43804,0.91366 -5.44714,4.58061 -7.65354,3.98609c-1.67563,-0.45152 -1.35403,-7.79751 -3.2789,-8.75153c-0.71398,-0.35381 3.91281,-3.41116 4.94228,-3.12401z" data-paper-data="{&quot;index&quot;:null}" fill="url(#color-1)" stroke="#000000" stroke-width="1" stroke-linecap="butt"/><path d="M228.91865,163.77967c-2.61778,0.35884 -4.59384,2.9786 -4.59384,2.9786c-3.03161,0.59102 -4.17758,4.02305 -6.2164,5.38177c-2.38225,1.58755 -5.41903,1.0086 -5.52055,-0.13946c-0.09945,-1.12352 2.27135,-5.10374 6.53593,-8.12418c1.5172,-1.07456 3.36012,-4.64428 5.88365,-5.65674c3.83451,-1.53839 8.36089,-0.32405 8.76531,-0.34326c2.22441,-0.10548 3.81759,1.27011 4.66782,1.65608c0.27803,0.12611 8.63714,5.14444 8.63714,5.14444l-2.85641,6.60816l-6.19089,-0.61c0,0 -1.61729,-4.34416 -4.0248,-4.55293c-0.24843,-0.02152 -2.57359,-2.68713 -5.08697,-2.34258z" data-paper-data="{&quot;index&quot;:null}" fill="url(#color-2)" stroke="#000000" stroke-width="1" stroke-linecap="butt"/><path d="M242.02122,196.68531c-1.04848,0.20716 -5.45472,-2.79224 -4.71564,-3.09016c1.99248,-0.80343 2.26405,-8.55661 3.96947,-8.87808c1.01688,-0.19169 2.21311,1.21635 3.53974,1.6586c1.60279,0.53424 3.27499,0.18116 3.47555,0.69794c0.28274,0.72838 -1.06667,7.81209 -2.14971,8.86024c-0.75175,0.72753 -2.88072,0.50665 -4.1194,0.75146z" data-paper-data="{&quot;index&quot;:null}" fill="url(#color-3)" stroke="#000000" stroke-width="1" stroke-linecap="butt"/><path d="M233.66126,194.87032c2.39583,-0.31574 3.81813,-4.72759 3.81813,-4.72759l6.1576,-0.88499l3.14775,6.47445c0,0 -8.12742,5.38548 -8.39958,5.52394c-0.83219,0.42334 -2.36257,1.86859 -4.58945,1.86214c-0.40478,-0.00117 -4.87271,1.41345 -8.7719,0.04728c-2.56612,-0.89902 -4.56612,-4.38317 -6.12966,-5.38911c-4.39481,-2.82759 -6.94045,-6.69833 -6.89112,-7.82516c0.05034,-1.15154 3.0583,-1.86501 5.50887,-0.38508c2.09729,1.26661 3.39491,4.64422 6.44985,5.0996c0,0 2.09072,2.52919 4.72186,2.77124c2.52623,0.23232 4.73042,-2.53416 4.97764,-2.56672z" data-paper-data="{&quot;index&quot;:null}" fill="url(#color-4)" stroke="#000000" stroke-width="1" stroke-linecap="butt"/><path d="M224.58537,167.1789c2.7922,0.0443 6.7765,-1.4278 9.2029,-0.6338c4.1906,1.3714 4.0678,2.2062 4.6864,7.3214c0.0333,0.2754 0.1715,-0.1897 1.0252,0.222c0.449,0.2165 1.6558,0.0463 2.0277,-0.8578c0.5471,-1.33 0.1731,-3.6375 0.1731,-3.6375c0,0 2.1057,1.7644 2.5298,2.7791c0.3686,0.8817 -0.1281,2.9661 -0.1281,2.9661c0,0 -0.6365,2.2189 -1.4587,3.2676c-1.1074,1.4123 -3.1218,1.62 -3.1697,1.816c-0.2153,0.8821 -15.8321,-0.6354 -15.8321,-0.6354c0,0 -8.4149,-12.7563 0.9435,-12.6077z" data-paper-data="{&quot;index&quot;:null}" fill="url(#color-5)" stroke="#000000" stroke-width="1.5" stroke-linecap="butt"/><path d="M223.13497,179.42581c0,0 15.6407,0.004 15.828,0.8925c0.0416,0.1974 2.0646,-0.5562 3.1267,0.8906c0.7885,1.0743 1.3543,3.3123 1.3543,3.3123c0,0 0.4302,2.0991 0.0338,2.9687c-0.4561,1.0006 -2.6167,2.6973 -2.6167,2.6973c0,0 0.447,-2.2944 -0.0576,-3.6411c-0.343,-0.9155 -1.5437,-1.1239 -1.9994,-0.9218c-0.8664,0.3844 -0.9898,-0.0849 -1.0318,0.1894c-0.7806,5.093 -0.6843,5.9312 -4.9164,7.1689c-2.4503,0.7166 -6.386,-0.8812 -9.1781,-0.9256c-9.3585,-0.1485 -0.5429,-12.6312 -0.5429,-12.6312z" data-paper-data="{&quot;index&quot;:null}" fill="url(#color-6)" stroke="#000000" stroke-width="1.5" stroke-linecap="butt"/><path d="M210.89617,165.50891c0.4323,-0.4028 1.3417,0.3427 1.7948,-0.0134c1.0081,-0.7924 0.3415,-2.0706 1.4968,-2.4837c1.0152,-0.3629 0.9691,0.4994 2.8256,0.0866c1.1617,-0.2583 0.0372,-1.899 1.5247,-2.2501c0.9122,-0.2153 2.5856,-1.5388 3.9846,-1.3091c0.8637,0.1419 0.3534,1.375 0.9314,1.9704c0.4467,0.4602 2.059,0.3024 2.2308,0.4495c0.3102,0.2656 0.3215,1.402 0.0536,1.9921c-0.3486,0.7677 -1.0777,0.9934 -1.2913,1.0952c-1.1227,0.5349 1.361,1.3915 0.6838,2.8419c-0.2971,0.6363 0.8921,1.4525 0.3851,2.1195c-0.5509,0.7246 -1.9894,1.1475 -2.6901,1.9347c-0.5223,0.5869 -0.6858,2.4651 -1.2924,3.0303c-1.4022,1.3064 -2.0679,-0.0564 -3.6117,0.7409c-1.0871,0.5615 -1.9273,2.2814 -2.9332,3.4128c-1.0344,1.1635 -2.2316,1.7348 -3.1341,2.0066c-0.2045,0.0616 0.3194,1.6297 1.679,2.157c1.2484,0.4841 3.2588,-0.1394 4.8189,1.3616c0.9317,0.8964 0.156,2.4656 1.2645,3.2458c1.5865,1.1166 5.0489,1.4432 6.0366,2.8908c1.8045,2.6445 1.8301,6.1723 1.333,6.093c-0.145,-0.0231 -0.0068,4.0275 -2.8104,4.8647c-0.5314,0.1587 -2.7849,-1.4236 -3.4063,-1.4013c-0.4856,0.0174 -0.7331,-1.6692 -1.5678,-2.2072c-0.6348,-0.4092 -1.8776,0.3082 -2.2575,0.2501c-0.8042,-0.123 -0.3853,-1.8362 -1.0887,-2.4966c-0.4159,-0.3903 -1.9391,0.2056 -2.4018,0.0402c-0.6584,-0.2355 -0.787,-1.2307 -1.3643,-1.8388c-0.5484,-0.5776 -1.5478,-0.7662 -2.0876,-1.0958c-0.733,-0.4476 -0.3461,-2.047 -0.8302,-3.2337c-0.4522,-1.1086 -1.7835,-1.8061 -2.2205,-2.269c-0.6939,-0.7347 1.8376,-1.1721 1.461,-1.957c-1.8115,-3.7745 -2.9495,-4.8088 -3.0921,-4.9309c-0.776,-0.6645 0.255,-1.4906 0.2269,-2.6412c-0.0117,-0.4778 0.8538,-1.2388 0.6638,-1.7695c-0.3247,-0.9071 -1.7387,-1.6293 -1.4516,-2.6462c0.142,-0.503 1.106,-0.5779 1.3732,-1.0902c0.5571,-1.068 0.2647,-2.8683 0.9796,-3.995c0.4443,-0.7003 1.5093,-0.6361 2.2586,-1.1055c0.6714,-0.4205 1.0238,-1.3824 1.5254,-1.8497z" data-paper-data="{&quot;index&quot;:null}" fill="url(#color-7)" stroke="#000000" stroke-width="0.5" stroke-linecap="butt"/><path d="M234.02407,195.30481c-1.6208,0.7208 -3.645,1.8755 -5.1577,1.4078c-1.5562,-0.4812 -3.1176,-1.965 -4.3418,-2.0921c-1.8063,-0.1876 -2.1885,-0.2433 -4.1833,-0.454c-1.3448,-0.1421 -3.0844,-2.3185 -5.2291,-3.7453c-1.7576,-1.1692 -4.0437,-1.5865 -4.4422,-2.0658c-0.1066,-0.1282 -0.5647,-2.2322 -3.699,-4.2794c-4.5662,-2.9824 -6.4191,0.7357 -6.4191,0.7357c0,0 0.0197,-4.1287 2.1412,-7.7396c1.3091,-2.2281 4.2851,-3.8485 5.9608,-5.4072c1.6751,-1.5581 4.4711,-3.5701 4.627,-3.6588c2.0369,-1.1599 4.8046,-3.1369 7.7844,-4.4411c1.4936,-0.6537 2.8563,-1.6211 4.5769,-1.2625c0.9815,0.2045 2.7415,0.6104 3.8135,-0.0586c1.4388,-0.898 3.6797,0.7208 3.6797,0.7208c0,0 6.1331,0.7174 4.0794,2.614c-2.3963,2.213 -5.3793,2.5751 -6.4996,5.0445c-0.3507,0.7732 -2.2871,1.6622 -3.286,2.9153c-1.2045,1.5108 5.6203,5.6986 5.6203,5.6986c0,0 -7.5254,4.3482 -7.5007,4.721c0.0754,1.1393 -0.0054,3.1953 1.4645,3.5724c2.7396,0.7029 3.6195,2.7847 5.2099,2.9682c0,0 3.7028,1.1781 4.5608,2.4461c0.8158,1.2057 -1.3054,1.7131 -2.7599,2.36z" fill="url(#color-8)" stroke="#000000" stroke-width="1" stroke-linecap="butt"/><path d="M226.04667,185.78951c-1.2913,-0.0205 -2.4158,-1.1662 -3.0843,-2.9061c0.4878,0.6741 1.106,1.0803 1.7838,1.091c1.6311,0.0259 2.9898,-2.2479 3.0347,-5.0787c0.045,-2.8307 -1.2409,-5.1465 -2.872,-5.1724c-0.5691,-0.009 -1.105,0.2619 -1.5636,0.7387c0.726,-1.3998 1.7698,-2.2735 2.917,-2.2553c2.1205,0.0337 3.7912,3.1016 3.7317,6.8524c-0.0596,3.7507 -1.8268,6.7641 -3.9473,6.7304z" fill="url(#color-9)" stroke="#000000" stroke-width="1" stroke-linecap="butt"/><path d="M224.89377,181.41341c-1.38,-0.022 -2.4814,-1.1297 -2.46,-2.4744c0.0213,-1.3446 1.1573,-2.4168 2.5373,-2.3949c1.38,0.0219 2.4814,1.1297 2.4601,2.4743c-0.0214,1.3446 -1.1574,2.4169 -2.5374,2.395z" fill="url(#color-10)" stroke="#000000" stroke-width="1" stroke-linecap="butt"/><path d="M200.56257,184.10321c0,0 1.3089,-3.1255 3.9146,-4.9491c2.1752,-1.5222 5.5198,-1.7444 7.2537,-2.1897c1.3662,-0.3509 3.3538,0.878 5.2425,1.2405c2.7161,0.5213 5.2102,0.3457 5.2102,0.3457" fill="none" stroke="#000000" stroke-width="0.5" stroke-linecap="round"/><path d="M206.65027,180.09841l-1.1024,-3.2218" fill="none" stroke="#000000" stroke-width="0.5" stroke-linecap="round"/><path d="M213.27277,174.69211l-1.8793,5.3534" fill="none" stroke="#000000" stroke-width="0.5" stroke-linecap="round"/><path d="M217.47287,176.55321l0.7099,3.7282" fill="none" stroke="#000000" stroke-width="0.5" stroke-linecap="round"/><path d="M236.33787,175.05831c-0.0236,1.4861 -0.6027,2.682 -1.2935,2.671c-0.1854,-0.0029 -0.3599,-0.0925 -0.5157,-0.2507c0.5948,-0.5956 0.9915,-1.5757 1.0092,-2.6894c0.0148,-0.9326 -0.239,-1.7799 -0.6599,-2.3915c0.0816,-0.0342 0.1659,-0.0516 0.2518,-0.0502c0.6908,0.011 1.2317,1.2246 1.2081,2.7108z" fill="#000000" stroke="#000000" stroke-width="1.5" stroke-linecap="butt"/><path d="M233.65327,184.17991c0.0236,-1.4861 0.6027,-2.682 1.2935,-2.671c0.0859,0.0013 0.1696,0.0213 0.2501,0.0581c-0.4401,0.5979 -0.7207,1.4368 -0.7355,2.3694c-0.0177,1.1137 0.3477,2.1059 0.9234,2.7201c-0.1608,0.1532 -0.3381,0.2371 -0.5235,0.2342c-0.6908,-0.011 -1.2316,-1.2246 -1.208,-2.7108z" data-paper-data="{&quot;index&quot;:null}" fill="#000000" stroke="url(#color-11)" stroke-width="1.5" stroke-linecap="butt"/><path d="M237.61267,177.51381l-1.9211,-0.0946" fill="none" stroke="#000000" stroke-width="0.5" stroke-linecap="round"/><path d="M237.30857,176.48361l-0.7648,-0.2685l2.9452,0.1749" fill="none" stroke="#000000" stroke-width="0.5" stroke-linecap="round"/><path d="M236.95157,174.74761l0.3834,0.0702" fill="none" stroke="#000000" stroke-width="0.5" stroke-linecap="round"/><path d="M238.40997,175.73201l-1.7289,-0.0915" fill="none" stroke="#000000" stroke-width="0.5" stroke-linecap="round"/><path d="M236.98317,172.76141l-0.5746,-0.1373" fill="none" stroke="#000000" stroke-width="0.5" stroke-linecap="round"/><path d="M233.64947,180.91151c0,0 -0.7557,0.7839 -1.2147,1.7252c-0.4165,0.8541 -0.5437,1.8498 -0.4876,2.2811c0.0327,0.2509 0.4618,0.948 0.3369,1.2521c-0.2951,0.7189 -1.3621,1.0428 -1.3621,1.0428" fill="none" stroke="#000000" stroke-width="0.5" stroke-linecap="round"/><path d="M233.12977,177.58421c-0.0318,-0.2444 -0.6038,-1.5083 -0.6946,-2.708c-0.0695,-0.9175 0.2971,-1.7951 0.4776,-2.1652c0.2298,-0.4713 0.6296,-0.87 0.8465,-1.3447c0.2163,-0.4733 0.2543,-1.2795 0.2543,-1.2795" data-paper-data="{&quot;index&quot;:null}" fill="none" stroke="#000000" stroke-width="0.5" stroke-linecap="round"/><path d="M235.18165,183.83799c-0.01445,0.90989 0.55735,1.65677 -0.20089,1.64473c-0.75825,-0.01204 -1.36121,-0.75941 -1.34677,-1.6693c0.01444,-0.90989 0.64083,-1.63775 1.39907,-1.62571c0.75824,0.01204 0.16302,0.74039 0.14858,1.65028z" fill="url(#color-12)" stroke="none" stroke-width="0" stroke-linecap="butt"/><path d="M246.0324,187.81616c-0.01978,-0.00962 -0.01016,-0.0294 -0.01016,-0.0294l0.01407,-0.00523c-0.05628,-0.09453 -0.00272,-0.25289 0.01778,-0.35765c0.06072,-0.31018 0.11485,-0.59254 -0.02232,-0.8833c-0.1374,-0.29124 -0.35186,-0.46296 -0.61791,-0.64334c-0.25758,-0.17704 -0.35379,-0.52776 -0.4434,-0.80697c-0.096,-0.29911 -0.12137,-0.59947 -0.15742,-0.91101c-0.03403,-0.29411 0.01524,-0.63629 0.1006,-0.92044c0.07762,-0.25836 0.15054,-0.50359 0.27143,-0.74512c0,0 0.00984,-0.01967 0.02951,-0.00982c0.01967,0.00984 0.00982,0.02951 0.00982,0.02951c-0.11975,0.23926 -0.19173,0.48211 -0.26864,0.73809c-0.08372,0.27865 -0.13242,0.61427 -0.09904,0.90272c0.03572,0.30868 0.06051,0.60633 0.15561,0.90263c0.08542,0.26615 0.17689,0.61768 0.4262,0.784c0.27248,0.18474 0.49211,0.36231 0.63301,0.66098c0.14159,0.30014 0.08829,0.59081 0.02571,0.91052c-0.01683,0.08599 -0.07413,0.2511 -0.0237,0.32581l-0.01177,0.04788c0,0 -0.00962,0.01978 -0.0294,0.01016z" fill="#ff0000" stroke="none" stroke-width="0.5" stroke-linecap="butt"/><path d="M244.13399,175.41673c0.07303,0.08223 -0.0092,0.15526 -0.0092,0.15526l-0.02534,0.0225c-0.46526,0.41323 -0.95091,0.80694 -1.4013,1.23616c-0.90339,0.86068 -1.76052,1.76922 -2.16374,2.98131c0,0 -0.03482,0.10432 -0.13914,0.0695c-0.10432,-0.03482 -0.0695,-0.13914 -0.0695,-0.13914c0.41749,-1.24686 1.28986,-2.18412 2.22066,-3.07092c0.45239,-0.43089 0.93976,-0.82641 1.40696,-1.24136l0.02534,-0.0225c0,0 0.08223,-0.07303 0.15526,0.0092z" fill="#ff0000" stroke="none" stroke-width="0.5" stroke-linecap="butt"/><path d="M237.6873,165.46003c-0.03119,-0.02393 -0.00724,-0.05513 -0.00724,-0.05513l0.00633,-0.00824c0.29846,-0.38777 0.75055,-0.6826 1.12636,-0.99148c0.41111,-0.33787 0.97105,-0.60943 1.4964,-0.69576c0.56108,-0.09219 1.09023,-0.05029 1.6475,-0.06655c0.55754,-0.01629 1.09718,-0.01169 1.65309,0.03443c0.25679,0.02131 0.52308,0.05973 0.78069,0.05762c0.20107,-0.00164 0.45212,-0.09734 0.63661,-0.00882c0,0 0.03516,0.0176 0.01755,0.05276c-0.01759,0.03516 -0.05275,0.01755 -0.05275,0.01755c-0.15806,-0.08348 -0.42343,0.01566 -0.60076,0.01712c-0.26004,0.00215 -0.52865,-0.03638 -0.78784,-0.05788c-0.55303,-0.04589 -1.08962,-0.05039 -1.6443,-0.03419c-0.55403,0.01618 -1.07918,-0.02612 -1.63704,0.06553c-0.5124,0.08419 -1.05823,0.34937 -1.45921,0.67892c-0.37037,0.30439 -0.82074,0.5956 -1.11391,0.97861l-0.00633,0.00824c0,0 -0.02394,0.03119 -0.05513,0.00724z" fill="#ff0000" stroke="none" stroke-width="0.5" stroke-linecap="butt"/><path d="M251.85054,192.64736c0.02535,0.03007 -0.00472,0.0554 -0.00472,0.0554l-0.02876,0.02425c-0.37511,0.31494 -0.63925,0.67087 -1.09052,0.89679c-0.47492,0.23743 -0.7238,0.82547 -1.0472,1.22516c-0.35985,0.44477 -0.74194,0.78641 -1.18276,1.15126c-0.35461,0.29349 -0.79416,0.53786 -1.195,0.7668c0,0 -0.03414,0.01949 -0.05364,-0.01466c-0.01949,-0.03414 0.01466,-0.05365 0.01466,-0.05365c0.39701,-0.22654 0.83268,-0.46845 1.18384,-0.75907c0.43709,-0.36174 0.8151,-0.69928 1.17176,-1.14014c0.33283,-0.4114 0.58407,-1.00088 1.07313,-1.24601c0.44456,-0.22256 0.70627,-0.57456 1.07503,-0.88658l0.02876,-0.02426c0,0 0.03007,-0.02535 0.0554,0.00472z" fill="#ff0000" stroke="none" stroke-width="0.5" stroke-linecap="butt"/><path d="M244.08179,203.33033c0.01287,0.19618 -0.18331,0.20904 -0.18331,0.20904l-0.1645,0.01078c-1.05646,0.06929 -2.10116,0.12877 -3.16007,0.12498c-1.57485,-0.08808 -3.09439,-0.37131 -4.44377,-1.22496c-0.28014,-0.17722 -0.67,-0.40546 -0.87434,-0.67735c-0.24051,-0.32 -0.32931,-0.77704 -0.45328,-1.14945c0,0 -0.0621,-0.18654 0.12444,-0.24864c0.18653,-0.0621 0.24864,0.12443 0.24864,0.12443c0.10679,0.32081 0.18064,0.75584 0.38988,1.03135c0.17871,0.23531 0.5326,0.43434 0.77477,0.5873c1.2898,0.81468 2.74068,1.07961 4.24537,1.16429c1.04638,0.00338 2.07865,-0.05582 3.12265,-0.12431l0.1645,-0.01078c0,0 0.19617,-0.01287 0.20904,0.18332z" fill="#ff0000" stroke="none" stroke-width="0.5" stroke-linecap="butt"/><path d="M257.2726,196.96264c-0.12018,-0.1556 0.03542,-0.27577 0.03542,-0.27577c0.4149,-0.32047 1.05304,-0.81335 1.46797,-1.13383c0.34751,-0.26841 0.56033,-0.29731 0.6037,-0.74221c0,0 0.02789,-0.19462 0.22249,-0.16674c0.19461,0.02788 0.16673,0.22249 0.16673,0.22249c-0.02683,0.15345 -0.00207,0.32575 -0.08051,0.46034c-0.02474,0.04244 -0.60554,0.48592 -0.67205,0.5373c-0.4149,0.32047 -0.82983,0.64093 -1.24473,0.96142l-0.22323,0.17242c0,0 -0.1556,0.12018 -0.27578,-0.03541z" fill="#ff0000" stroke="none" stroke-width="0.5" stroke-linecap="butt"/><path d="M219.72964,183.24207l3.27033,-0.52839l-0.77033,2.60097l-6.179,3.19239z" data-paper-data="{&quot;index&quot;:null}" fill="url(#color-13)" stroke="#000000" stroke-width="1" stroke-linecap="butt"/><path d="M212.49884,177.96171l7.06753,-1.25213l2.48414,1.84798l-2.89561,1.71909z" fill="url(#color-14)" stroke="#000000" stroke-width="1" stroke-linecap="butt"/><path d="M218.05063,168.11368l6.179,3.19239l0.77033,2.60097l-3.27032,-0.52839z" data-paper-data="{&quot;index&quot;:null}" fill="url(#color-15)" stroke="#000000" stroke-width="1" stroke-linecap="butt"/><path d="M276.5157,169.07328c7.0713,21.47804 -3.80334,44.35703 -24.28918,51.10164c-20.48581,6.74463 -42.8253,-5.19913 -49.89657,-26.67714c-7.0713,-21.47804 3.80334,-44.35703 24.28918,-51.10164c20.48581,-6.74463 42.8253,5.19913 49.89657,26.67714z" fill="url(#color-16)" stroke="none" stroke-width="0" stroke-linecap="butt"/><path d="M282.59687,167.38344c7.2311,21.96347 -7.06247,46.40427 -31.92559,54.59004c-24.86315,8.18579 -50.88068,-2.98323 -58.1118,-24.94667c-7.2311,-21.96347 7.06247,-46.40426 31.9256,-54.59003c24.86315,-8.18579 50.88067,2.98322 58.11179,24.94667z" fill="url(#color-17)" stroke="#000000" stroke-width="0" stroke-linecap="butt"/><path d="M270.31736,171.27378c5.80683,17.6374 -5.67142,37.26422 -25.63734,43.83765c-19.96595,6.57346 -40.85892,-2.39563 -46.66575,-20.03303c-5.80683,-17.6374 5.67142,-37.26422 25.63734,-43.83765c19.96595,-6.57346 40.85892,2.39563 46.66575,20.03303z" fill="url(#color-18)" stroke="#000000" stroke-width="0" stroke-linecap="butt"/><path d="M225.90993,148.60037c0.30539,0.3206 -0.01524,0.62601 -0.01524,0.62601c-3.84744,3.66462 -7.75946,7.3907 -11.6069,11.05532c-1.65219,1.56639 -2.87133,3.73652 -4.19724,5.58702c-1.91233,2.66887 -3.82466,5.33775 -5.73696,8.00665c0.01637,1.59224 0.08294,3.17256 0.18716,4.72241c0.40909,6.08456 0.1267,12.14423 0.61061,18.22234c0.22183,2.78618 0.81094,5.38979 1.74645,7.87518c0.35905,0.37216 0.76985,0.70244 1.20186,1.0066c0.67316,0.47394 1.68411,0.60339 2.47468,0.83265l0.01217,0.00351c0,0 0.08504,0.02465 0.06036,0.10972v0c-0.02465,0.08504 -0.10972,0.06036 -0.10972,0.06036l-0.01217,-0.00351c-0.81173,-0.23543 -1.83545,-0.37081 -2.5273,-0.85791c-0.33291,-0.2344 -0.65313,-0.48424 -0.9478,-0.75612c0.79233,2.01524 1.81398,3.95429 3.05365,5.85201c0,0 0.24216,0.37069 -0.12853,0.61286c-0.37069,0.24216 -0.61285,-0.12854 -0.61285,-0.12854c-2.42784,-3.71652 -4.04367,-7.5993 -4.76503,-11.87534c-0.01186,-0.03628 -0.02382,-0.0726 -0.03583,-0.10884c-0.43231,-1.30359 -0.89486,-2.11258 -1.88162,-3.06585c-0.8915,-0.86127 -1.79024,-1.71202 -2.70716,-2.54617c-0.15322,-0.13938 -0.29466,-0.27473 -0.42577,-0.40842c-0.12148,2.07495 -0.24291,4.14988 -0.36439,6.22483c-0.06163,1.05306 -0.37405,2.40432 -0.21157,3.44183c0.11897,0.75991 0.65581,1.66733 0.93398,2.38652c0.63902,1.65185 1.27797,3.30369 1.91699,4.95554c1.1715,3.02839 2.34299,6.05678 3.51448,9.08517c0.72136,1.86481 1.28122,3.96208 2.21212,5.72899c0.36126,0.68572 0.97895,1.33434 1.43572,1.95991c3.13332,4.29121 6.26664,8.5824 9.39996,12.87367c0,0 0.26111,0.3576 -0.09649,0.61871c-0.3576,0.26111 -0.61871,-0.09649 -0.61871,-0.09649c-3.13332,-4.29121 -6.26664,-8.58241 -9.39995,-12.87368c-0.4803,-0.65776 -1.11636,-1.33733 -1.49773,-2.05762c-0.95271,-1.79944 -1.52564,-3.93345 -2.26086,-5.83398c-1.1715,-3.02839 -2.34299,-6.05678 -3.51448,-9.08517c-0.63902,-1.65185 -1.27797,-3.30369 -1.91699,-4.95554c-0.30157,-0.77958 -0.85416,-1.74634 -0.98301,-2.56903c-0.17293,-1.10442 0.13692,-2.51162 0.20243,-3.63058c0.138,-2.35748 0.27601,-4.71497 0.414,-7.07245c0.00256,-0.0438 0.00513,-0.08761 0.00769,-0.13141c-0.296,-0.47362 -0.51674,-0.99675 -0.71734,-1.65968c-0.11459,-1.34263 -0.11782,-2.39283 0.19357,-3.70627c0.28537,-1.20361 0.45884,-2.43287 0.66555,-3.65231c0.11355,-0.66964 0.24118,-1.33711 0.37237,-2.00384c0.0059,-0.8073 0.05779,-1.60395 0.27898,-2.2291c0.00911,-0.02573 0.12594,-0.19645 0.28016,-0.41612c0.233,-0.87016 0.52596,-1.72897 0.76729,-2.59378c0.33536,-1.20191 0.69008,-2.37901 1.11176,-3.55356c0.37133,-1.03442 1.18231,-2.05789 1.87806,-2.9401c0.1601,-3.1571 0.55507,-6.29848 1.27725,-9.28711c0.32126,-1.32955 0.50087,-2.83277 0.99546,-4.10695c0.42595,-1.0973 1.08557,-2.15773 1.61615,-3.20917c0.96954,-1.92131 1.80122,-3.75117 3.21823,-5.38057c0.29291,-0.33679 0.57525,-0.68629 0.86184,-1.0307c-1.26983,0.42476 -2.53357,0.94397 -3.76527,1.34948c-3.01094,0.99128 -6.16199,2.09872 -8.98787,3.55091c-2.57333,1.3224 -5.03837,3.07759 -7.38285,4.76184c-4.16542,2.99236 -7.45329,7.14301 -11.0828,10.74582c0,0 -0.31424,0.31195 -0.62616,-0.00231c-0.31195,-0.31424 0.00231,-0.62617 0.00231,-0.62617c3.66459,-3.6376 6.98397,-7.81503 11.19003,-10.83657c2.37977,-1.70959 4.88247,-3.48786 7.49478,-4.83026c2.86686,-1.47325 6.06141,-2.59883 9.11571,-3.60441c1.69901,-0.55938 3.45485,-1.32553 5.20756,-1.78122c0.36356,-0.34035 0.7568,-0.64504 1.20098,-0.88863c2.32419,-1.25224 4.55059,-2.65602 7.09696,-3.3734c0.68232,-0.19223 1.60087,-0.63462 2.31467,-0.64127c2.65908,-0.02473 5.50543,0.91064 7.87083,1.99221c1.33032,0.60829 2.81138,1.11737 4.06859,1.86315c0.6749,0.40036 1.31502,0.91285 1.94634,1.41855c2.35322,0.5156 4.68358,1.17212 6.92763,1.90826c1.07723,0.35878 1.99715,1.04634 2.9594,1.64271c1.20397,0.74617 2.79102,1.4254 3.83043,2.38335c0.6219,0.57316 1.13074,1.51702 1.63479,2.19919c0.86848,1.17543 1.92421,2.33919 2.65797,3.60187c0.58805,1.01192 0.98139,2.21162 1.45526,3.28273c2.47707,5.59884 5.13468,11.11251 7.43018,16.78844c0.55337,1.36827 1.10672,2.73657 1.6601,4.10485c0.29931,0.74006 0.86741,1.68198 0.98742,2.47054c0.16882,1.10924 -0.13922,2.51107 -0.20637,3.63392c-0.15853,2.65198 -0.31708,5.30393 -0.47561,7.95591c-0.09308,1.32663 -0.89126,2.68483 -1.38855,3.91493c-0.64638,1.5988 -1.13945,3.50815 -2.02181,4.98697c-0.44199,0.74079 -1.18268,1.43603 -1.73395,2.10155c-1.33434,1.61093 -2.66278,3.22702 -4.00828,4.82867c-1.7232,1.02912 -3.48165,2.32134 -5.31728,3.13062c-1.23643,0.5451 -2.62748,0.86773 -3.91328,1.29104c-1.00225,0.32999 -2.23747,0.98221 -3.28773,1.07205c-1.38697,0.11862 -3.19035,-0.266 -4.53431,-0.58651c-0.89627,-0.21989 -1.56626,-0.63483 -2.36634,-1.08755l-0.75006,-0.42444c0,0 -0.38534,-0.21806 -0.16732,-0.60343c0.21806,-0.38534 0.60344,-0.16731 0.60344,-0.16731l0.75006,0.42443c0.72481,0.41015 1.324,0.80798 2.13656,0.99707c1.25241,0.30148 2.94278,0.6701 4.23376,0.56716c0.97652,-0.07786 2.17039,-0.72494 3.10503,-1.03266c1.25582,-0.41345 2.61737,-0.72594 3.82529,-1.25679c1.76649,-0.77629 3.43443,-2.03263 5.10816,-2.99808c1.28875,-1.58227 2.59854,-3.14765 3.9003,-4.71924c0.52197,-0.63017 1.23665,-1.28855 1.65544,-1.99043c0.85757,-1.43722 1.33262,-3.31016 1.96129,-4.86514c0.44793,-1.10796 1.27072,-2.44042 1.32561,-3.63581c0.15853,-2.65198 0.31708,-5.30394 0.47561,-7.95592c0.06315,-1.05622 0.37174,-2.39599 0.2164,-3.43799c-0.10741,-0.72034 -0.66123,-1.60601 -0.93447,-2.28161c-0.55337,-1.36827 -1.10672,-2.73657 -1.6601,-4.10485c-2.29191,-5.66707 -4.94583,-11.17201 -7.41904,-16.76216c-0.46059,-1.04105 -0.83961,-2.21269 -1.41111,-3.19606c-0.71703,-1.23383 -1.75568,-2.37166 -2.60454,-3.52056c-0.47012,-0.63626 -0.94209,-1.53911 -1.52272,-2.07427c-0.99473,-0.91681 -2.54291,-1.56667 -3.69679,-2.28185c-0.89449,-0.55438 -1.76449,-1.23042 -2.76889,-1.554c-1.59917,-0.52457 -3.24266,-1.00839 -4.90693,-1.42843c1.12149,0.79974 2.2847,1.58512 3.30302,2.48678c1.32439,1.17266 2.52048,2.53747 3.76702,3.79326c4.27313,4.30968 6.95582,9.92104 9.49877,15.34924c0.72768,1.95994 1.47157,3.89542 2.03313,5.90997c0.03326,0.11928 0.48897,1.74064 0.49154,1.80812c0.00257,0.06748 -0.32852,1.7188 -0.3526,1.84028c-0.15951,0.80457 -0.20427,1.96812 -0.54993,2.70741c-0.02956,0.06319 -1.08869,1.36967 -1.16876,1.46885c-0.93766,1.16198 -1.82456,2.37467 -2.90005,3.41178c-1.27472,1.22692 -2.5305,2.47197 -3.78692,3.71759c-0.73384,0.72755 -1.50709,1.68629 -2.37205,2.24781c-0.71785,0.46604 -1.71782,0.7474 -2.50559,1.08673c-2.19733,0.94642 -4.54867,1.61563 -6.82941,2.33681c-1.97174,-0.26498 -4.05514,-0.44113 -5.94349,-1.10665c-1.39376,-0.49123 -2.7506,-1.1541 -4.11335,-1.72653c-0.98719,-0.41469 -2.27768,-0.76294 -3.15468,-1.37925c-1.14695,-0.806 -2.13289,-2.1532 -3.08922,-3.17394c-0.41677,-0.44597 -0.80239,-0.92324 -1.15085,-1.42436l-0.2798,-0.40345c0,0 -0.25232,-0.36383 0.11155,-0.61618c0.36384,-0.25232 0.61618,0.11155 0.61618,0.11155l0.27981,0.40344c0.32256,0.46653 0.681,0.91018 1.06941,1.32354c0.91182,0.97319 1.85431,2.27888 2.94421,3.04934c0.82052,0.58002 2.069,0.90329 2.9964,1.29287c1.34259,0.56398 2.6789,1.21704 4.05121,1.70313c1.78124,0.63095 3.73358,0.76391 5.58626,1.06426c2.17853,-0.75483 4.43771,-1.35461 6.5553,-2.26779c0.74144,-0.31974 1.69762,-0.57723 2.37392,-1.01625c0.81053,-0.52618 1.54278,-1.45185 2.23073,-2.13392c1.2595,-1.24869 2.51843,-2.4968 3.79633,-3.72676c1.04972,-1.00828 1.91145,-2.19777 2.82496,-3.32985c0.34857,-0.43198 0.8206,-0.78498 1.0557,-1.28782c0.31497,-0.67368 0.33834,-1.77256 0.48347,-2.50456c0.10818,-0.54559 0.3575,-1.07856 0.33633,-1.63435c-0.02118,-0.55579 -0.31033,-1.06826 -0.45968,-1.60402c-0.55168,-1.97895 -1.28365,-3.87941 -1.99684,-5.80546c-2.50046,-5.31888 -5.1141,-10.84514 -9.31057,-15.06771c-1.23127,-1.24042 -2.41228,-2.58941 -3.71946,-3.74875c-1.25018,-1.10876 -2.72785,-2.03767 -4.06695,-3.03869c-0.26249,-0.19624 -0.52426,-0.40468 -0.78731,-0.61586c-1.59839,-0.34452 -3.20657,-0.62223 -4.80421,-0.81325c-2.017,-0.24113 -4.11719,-0.1876 -6.14725,-0.28068c-2.97461,-0.13641 -5.80788,0.03951 -8.77314,0.29804c-1.13057,0.09857 -2.36777,0.07226 -3.47829,0.30029c-0.16426,0.03374 -0.32864,0.07094 -0.49316,0.11117c-0.64213,0.63759 -1.19032,1.40555 -1.77383,2.07656c-2.94692,3.38863 -4.59794,8.02261 -5.63726,12.32358c-0.62853,2.60105 -1.00437,5.32018 -1.19125,8.06377c0.52442,-0.44046 1.11856,-0.77497 1.77789,-1.04975c0,0 0.08176,-0.03407 0.1158,0.04766c0.03407,0.08176 -0.04766,0.1158 -0.04766,0.1158c-0.69848,0.29108 -1.32059,0.64891 -1.86242,1.13474c-0.07422,1.16018 -0.11497,2.32423 -0.12716,3.48503c1.67236,-2.33402 3.34474,-4.66797 5.01711,-7.00199c1.36234,-1.90134 2.61567,-4.09533 4.30632,-5.71247c3.84744,-3.66462 7.69489,-7.32923 11.54236,-10.99381l0.06454,-0.06145c0,0 0.3206,-0.30539 0.62601,0.01524zM203.38526,175.22679c-0.68772,0.95982 -1.37544,1.91963 -2.06317,2.87939c-0.31997,0.44659 -0.79083,0.81158 -0.97411,1.32951c-0.41176,1.16362 -0.16131,3.05422 -0.23416,4.29844c-0.17251,2.94685 -0.34501,5.89369 -0.51749,8.84051c-0.01185,0.20235 -0.02368,0.40466 -0.03553,0.60701c0.1589,0.16869 0.33473,0.33951 0.53089,0.518c0.91822,0.83534 1.81822,1.6873 2.71101,2.54983c0.80652,0.77917 1.27531,1.47237 1.65647,2.40119c-0.07971,-0.57929 -0.14334,-1.16587 -0.19067,-1.76032c-0.48423,-6.08204 -0.20206,-12.14514 -0.6114,-18.23319c-0.07917,-1.17754 -0.1367,-2.37219 -0.16741,-3.57624c-0.03484,0.04863 -0.06967,0.09724 -0.10451,0.14587zM199.22979,183.6824c0.02476,-0.42306 0.0177,-0.90756 0.01056,-1.41209c-0.07122,0.37698 -0.13984,0.7544 -0.20394,1.13254c-0.20738,1.22322 -0.38156,2.45621 -0.66783,3.66355c-0.30659,1.29296 -0.29713,2.31019 -0.19199,3.63206c0.16642,0.53872 0.3423,0.97906 0.56201,1.3753c0.16373,-2.79711 0.32747,-5.59425 0.4912,-8.39136zM200.60224,177.59038c0.68772,-0.95982 1.37544,-1.91963 2.06317,-2.87939c0.26684,-0.37241 0.53371,-0.74483 0.80055,-1.11724c-0.00774,-1.21389 0.01373,-2.43402 0.06972,-3.65242c-0.64704,0.82156 -1.35887,1.75454 -1.69662,2.69538c-0.42024,1.17056 -0.77361,2.3435 -1.10784,3.54134c-0.1972,0.70678 -0.42926,1.40959 -0.63454,2.11788c0.23782,-0.3337 0.46647,-0.65092 0.50557,-0.70548zM216.99405,144.86381c3.00325,-0.26183 5.87743,-0.43861 8.8906,-0.30045c2.0517,0.09406 4.17263,0.04234 6.21131,0.286c1.02866,0.12292 2.06171,0.28122 3.09374,0.46975c-0.13362,-0.08943 -0.26849,-0.17514 -0.40482,-0.25598c-1.22947,-0.72929 -2.6838,-1.22443 -3.98504,-1.81944c-2.2605,-1.03363 -4.91617,-1.8984 -7.45196,-1.91346c-0.62892,-0.00373 -1.52075,0.43925 -2.12516,0.60953c-2.32006,0.65361 -4.37114,1.90525 -6.48037,3.063c0.75405,-0.06004 1.52335,-0.0754 2.25168,-0.13889z" fill="#ff0000" stroke="none" stroke-width="0.5" stroke-linecap="butt"/><path d="M269.3967,172.15112c0.07616,-0.04519 0.12134,0.03097 0.12134,0.03097l0.02175,0.03663c0.48359,0.81498 1.12143,1.53682 1.50444,2.40468c0.58811,1.33257 0.46555,2.26645 0.07577,3.6471c-0.66447,1.23126 -1.1482,1.99012 -0.51188,3.33296c0.85331,0.91424 1.71798,1.73292 2.67507,2.53854c1.01649,0.85588 1.77919,1.7369 1.96271,3.08693c0.14965,1.10104 0.09696,2.71059 -0.42157,3.70726c-0.60581,1.16447 -1.2916,2.03916 -2.16591,3.01579c-0.83442,0.93206 -1.69412,1.8032 -2.60455,2.66107c-0.754,0.71047 -1.45107,1.51852 -1.51946,2.61224c0,0 -0.00553,0.0884 -0.09391,0.08285c-0.0884,-0.00553 -0.08285,-0.09391 -0.08285,-0.09391c0.0711,-1.13704 0.78921,-1.98982 1.57476,-2.73005c0.90685,-0.85447 1.76293,-1.72193 2.59404,-2.65029c0.8656,-0.96689 1.54118,-1.82695 2.14077,-2.9794c0.50141,-0.96376 0.54784,-2.53763 0.40321,-3.60167c-0.1775,-1.30594 -0.91767,-2.14753 -1.90127,-2.97528c-0.9687,-0.81538 -1.85343,-1.63894 -2.70752,-2.57453c-0.67839,-1.39175 -0.20456,-2.22369 0.49423,-3.49902c0.36927,-1.34063 0.49631,-2.21761 -0.07366,-3.50906c-0.37977,-0.86047 -1.01502,-1.57745 -1.49474,-2.38584l-0.02175,-0.03662c0,0 -0.04519,-0.07616 0.03098,-0.12135z" fill="#ff0000" stroke="none" stroke-width="0.5" stroke-linecap="butt"/><path d="M278.16943,196.71312c0.04519,0.07616 -0.03098,0.12135 -0.03098,0.12135l-0.01424,0.00847c-0.31208,0.18519 -0.62512,0.32721 -0.95072,0.48452c-0.99691,0.48155 -2.43033,1.04988 -2.61133,2.28446c-0.06308,0.43018 -0.22904,0.95173 -0.20476,1.38411c0.0192,0.34192 0.43387,0.93396 0.22302,1.25681c-0.14796,0.22655 -0.62306,0.45484 -0.8327,0.67049c-0.86522,0.88991 -1.73225,1.77526 -2.61981,2.64292c-0.91445,0.89393 -1.82993,1.62742 -2.8831,2.35224c-0.87574,0.60271 -1.66757,1.28866 -2.42229,2.03781c0,0 -0.06286,0.0624 -0.12523,-0.00044c-0.06239,-0.06286 0.00044,-0.12524 0.00044,-0.12524c0.76221,-0.75659 1.56221,-1.44931 2.44664,-2.05803c1.04541,-0.7195 1.95203,-1.44572 2.85969,-2.33302c0.8865,-0.86661 1.75247,-1.7509 2.61664,-2.6397c0.21816,-0.22439 0.64452,-0.42221 0.81374,-0.64742c0.11618,-0.15457 -0.1607,-0.78248 -0.20595,-0.9576c-0.12355,-0.4778 0.08685,-1.12063 0.15835,-1.6086c0.19148,-1.30617 1.65192,-1.90736 2.70951,-2.41826c0.32144,-0.15527 0.6294,-0.29463 0.93738,-0.47733l0.01423,-0.00847c0,0 0.07616,-0.04519 0.12135,0.03098z" fill="#ff0000" stroke="none" stroke-width="0.5" stroke-linecap="butt"/><path d="M281.29728,192.37815c-0.36312,-0.25338 -0.10974,-0.61649 -0.10974,-0.61649l0.48968,-0.69986c1.12329,-2.23687 2.08312,-4.31527 2.60261,-6.7766c1.22909,-5.82337 2.10388,-11.96847 1.1008,-17.89412c-0.24203,-1.42979 -0.38365,-2.92622 -0.73223,-4.33314c-0.46271,-1.86752 -1.22139,-3.70672 -1.82467,-5.53543c-0.53768,-1.62994 -0.93781,-3.40333 -1.78845,-4.8959c0,0 -0.21826,-0.38525 0.16699,-0.60351c0.38525,-0.21826 0.60351,0.16699 0.60351,0.16699c0.87506,1.55293 1.30106,3.36401 1.85892,5.055c0.61032,1.85016 1.37509,3.71031 1.84325,5.59989c0.35401,1.42877 0.5,2.94647 0.74578,4.39831c1.02176,6.03603 0.14466,12.29216 -1.10747,18.2248c-0.5395,2.55608 -1.53349,4.72896 -2.70875,7.0477l-0.52383,0.75262c0,0 -0.25336,0.36312 -0.61648,0.10974z" fill="#ff0000" stroke="none" stroke-width="0.5" stroke-linecap="butt"/><path d="M229.27623,216.05549c0.35522,-0.26436 0.61955,0.09083 0.61955,0.09083l0.03154,0.04238c1.15863,1.55679 2.28606,3.13193 3.54668,4.60772c0.37946,0.44423 1.07498,1.65465 1.58751,1.9119c0.51253,0.25725 1.89872,0.09174 2.48164,0.13061c2.10342,0.14018 3.99325,0.17003 6.08618,-0.09177c2.56431,-0.32075 5.34977,-0.37735 7.85998,-0.98043c3.34758,-0.80422 6.66392,-2.42896 9.65609,-4.07422c1.552,-0.85337 3.104,-1.70675 4.65597,-2.56009c0.70488,-0.38756 1.63767,-0.73538 2.26444,-1.23761c0.85016,-0.68119 1.56486,-1.78513 2.28716,-2.60444c1.56162,-1.77147 3.12326,-3.54293 4.68488,-5.3144c1.08296,-1.20184 1.39853,-3.18115 1.91394,-4.70846c0.73107,-2.16644 1.77908,-4.42223 2.25028,-6.65682c0.3971,-1.88303 0.25752,-4.05692 0.38143,-5.98066c0.17077,-2.6512 0.34153,-5.30241 0.5123,-7.95361c0.07089,-1.1008 0.32956,-2.36118 0.22954,-3.45728c-0.06749,-0.73961 -0.47967,-1.60079 -0.68979,-2.31249c-0.41788,-1.41554 -0.83578,-2.8311 -1.25366,-4.24664c-1.50439,-5.09599 -3.00879,-10.19195 -4.51318,-15.28794c0,0 -0.12538,-0.4247 0.29928,-0.55004c0.42469,-0.12537 0.55003,0.29929 0.55003,0.29929c1.50439,5.09599 3.00879,10.19195 4.51318,15.28794c0.41788,1.41554 0.83578,2.8311 1.25366,4.24664c0.22566,0.76442 0.64514,1.67045 0.72053,2.46482c0.10893,1.14774 -0.15163,2.46048 -0.22589,3.61262c-0.17077,2.6512 -0.34154,5.3024 -0.51231,7.9536c-0.1266,1.96536 0.00619,4.16966 -0.39638,6.09523c-0.47534,2.27362 -1.53669,4.56568 -2.28,6.76847c-0.56627,1.67817 -0.92374,3.66534 -2.08873,5.01094c-1.56162,1.77147 -3.12326,3.54293 -4.68488,5.3144c-0.75702,0.85875 -1.50591,1.99538 -2.39772,2.70995c-0.66659,0.53414 -1.64127,0.90999 -2.3915,1.32251c-1.552,0.85337 -3.104,1.70675 -4.65597,2.56009c-3.05977,1.68244 -6.45224,3.33679 -9.87591,4.15929c-2.54363,0.61108 -5.35912,0.67312 -7.95692,0.99808c-2.14664,0.26852 -4.09858,0.24038 -6.255,0.09666c-0.71726,-0.0478 -2.18774,0.09461 -2.82001,-0.22274c-0.10223,-0.05133 -1.16211,-1.30699 -1.28839,-1.45484c-1.4688,-1.71952 -2.8088,-3.51348 -4.15891,-5.32752l-0.03154,-0.04238c0,0 -0.26437,-0.35522 0.09082,-0.61956z" fill="#ff0000" stroke="none" stroke-width="0.5" stroke-linecap="butt"/></g></g></svg>