<svg version="1.1" xmlns="http://www.w3.org/2000/svg" xmlns:xlink="http://www.w3.org/1999/xlink" width="134.25628" height="113" viewBox="0,0,134.25628,113"><defs><radialGradient cx="171.42229" cy="200.76431" r="4.55357" gradientUnits="userSpaceOnUse" id="color-1"><stop offset="0" stop-color="#4dc7ff"/><stop offset="1" stop-color="#4dc7ff" stop-opacity="0"/></radialGradient><radialGradient cx="200.31757" cy="149.25" r="6.00563" gradientUnits="userSpaceOnUse" id="color-2"><stop offset="0" stop-color="#4dc7ff"/><stop offset="1" stop-color="#4dc7ff" stop-opacity="0"/></radialGradient><radialGradient cx="205.38069" cy="225.58575" r="7.83407" gradientUnits="userSpaceOnUse" id="color-3"><stop offset="0" stop-color="#4dc7ff"/><stop offset="1" stop-color="#4dc7ff" stop-opacity="0"/></radialGradient><radialGradient cx="248.625" cy="224.5" r="2.25" gradientUnits="userSpaceOnUse" id="color-4"><stop offset="0" stop-color="#4dc7ff"/><stop offset="1" stop-color="#4dc7ff" stop-opacity="0"/></radialGradient><radialGradient cx="278.375" cy="202.25" r="8" gradientUnits="userSpaceOnUse" id="color-5"><stop offset="0" stop-color="#4dc7ff"/><stop offset="1" stop-color="#4dc7ff" stop-opacity="0"/></radialGradient><radialGradient cx="281.875" cy="165.25" r="1.75" gradientUnits="userSpaceOnUse" id="color-6"><stop offset="0" stop-color="#4dc7ff"/><stop offset="1" stop-color="#4dc7ff" stop-opacity="0"/></radialGradient><radialGradient cx="242.875" cy="127.25" r="4.75" gradientUnits="userSpaceOnUse" id="color-7"><stop offset="0" stop-color="#4dc7ff"/><stop offset="1" stop-color="#4dc7ff" stop-opacity="0"/></radialGradient><radialGradient cx="185.125" cy="176.25" r="2" gradientUnits="userSpaceOnUse" id="color-8"><stop offset="0" stop-color="#4dc7ff"/><stop offset="1" stop-color="#4dc7ff" stop-opacity="0"/></radialGradient><radialGradient cx="293.375" cy="232.75" r="3" gradientUnits="userSpaceOnUse" id="color-9"><stop offset="0" stop-color="#4dc7ff"/><stop offset="1" stop-color="#4dc7ff" stop-opacity="0"/></radialGradient><radialGradient cx="299.25" cy="195.125" r="1.875" gradientUnits="userSpaceOnUse" id="color-10"><stop offset="0" stop-color="#4dc7ff"/><stop offset="1" stop-color="#4dc7ff" stop-opacity="0"/></radialGradient><radialGradient cx="171.625" cy="130.875" r="2.375" gradientUnits="userSpaceOnUse" id="color-11"><stop offset="0" stop-color="#4dc7ff"/><stop offset="1" stop-color="#4dc7ff" stop-opacity="0"/></radialGradient><radialGradient cx="195" cy="193.375" r="1.375" gradientUnits="userSpaceOnUse" id="color-12"><stop offset="0" stop-color="#4dc7ff"/><stop offset="1" stop-color="#4dc7ff" stop-opacity="0"/></radialGradient><radialGradient cx="181.75" cy="232.125" r="3.125" gradientUnits="userSpaceOnUse" id="color-13"><stop offset="0" stop-color="#4dc7ff"/><stop offset="1" stop-color="#4dc7ff" stop-opacity="0"/></radialGradient><radialGradient cx="265.125" cy="142.125" r="1.125" gradientUnits="userSpaceOnUse" id="color-14"><stop offset="0" stop-color="#4dc7ff"/><stop offset="1" stop-color="#4dc7ff" stop-opacity="0"/></radialGradient></defs><g transform="translate(-166.86872,-122.5)"><g data-paper-data="{&quot;isPaintingLayer&quot;:true}" fill-rule="nonzero" stroke="none" stroke-width="0" stroke-linecap="butt" stroke-linejoin="miter" stroke-miterlimit="10" stroke-dasharray="" stroke-dashoffset="0" style="mix-blend-mode: normal"><path d="M171.42229,204.92851c-2.51486,0 -4.55357,-1.86438 -4.55357,-4.1642c0,-2.29982 2.0387,-4.1642 4.55357,-4.1642c2.51486,0 4.55357,1.86438 4.55357,4.1642c0,2.29982 -2.0387,4.1642 -4.55357,4.1642z" fill="url(#color-1)"/><path d="M200.31757,154.09276c-3.31682,0 -6.00563,-2.16818 -6.00563,-4.84276c0,-2.67458 2.68881,-4.84276 6.00563,-4.84276c3.31682,0 6.00563,2.16818 6.00563,4.84276c0,2.67458 -2.68881,4.84276 -6.00563,4.84276z" fill="url(#color-2)"/><path d="M205.38069,232.74995c-4.32664,0 -7.83407,-3.20752 -7.83407,-7.1642c0,-3.95668 3.50743,-7.1642 7.83407,-7.1642c4.32664,0 7.83407,3.20752 7.83407,7.1642c0,3.95668 -3.50743,7.1642 -7.83407,7.1642z" fill="url(#color-3)"/><path d="M248.625,226.75c-0.69036,0 -1.25,-1.00736 -1.25,-2.25c0,-1.24264 0.55964,-2.25 1.25,-2.25c0.69036,0 1.25,1.00736 1.25,2.25c0,1.24264 -0.55964,2.25 -1.25,2.25z" fill="url(#color-4)"/><path d="M278.375,209c-4.41828,0 -8,-3.02208 -8,-6.75c0,-3.72792 3.58172,-6.75 8,-6.75c4.41828,0 8,3.02208 8,6.75c0,3.72792 -3.58172,6.75 -8,6.75z" fill="url(#color-5)"/><path d="M281.875,167c-0.9665,0 -1.75,-0.7835 -1.75,-1.75c0,-0.9665 0.7835,-1.75 1.75,-1.75c0.9665,0 1.75,0.7835 1.75,1.75c0,0.9665 -0.7835,1.75 -1.75,1.75z" fill="url(#color-6)"/><path d="M242.875,132c-1.933,0 -3.5,-2.12665 -3.5,-4.75c0,-2.62335 1.567,-4.75 3.5,-4.75c1.933,0 3.5,2.12665 3.5,4.75c0,2.62335 -1.567,4.75 -3.5,4.75z" fill="url(#color-7)"/><path d="M185.125,177.75c-1.10457,0 -2,-0.67157 -2,-1.5c0,-0.82843 0.89543,-1.5 2,-1.5c1.10457,0 2,0.67157 2,1.5c0,0.82843 -0.89543,1.5 -2,1.5z" fill="url(#color-8)"/><path d="M293.375,235.5c-1.65685,0 -3,-1.23122 -3,-2.75c0,-1.51878 1.34315,-2.75 3,-2.75c1.65685,0 3,1.23122 3,2.75c0,1.51878 -1.34315,2.75 -3,2.75z" fill="url(#color-9)"/><path d="M299.25,196c-1.03553,0 -1.875,-0.39175 -1.875,-0.875c0,-0.48325 0.83947,-0.875 1.875,-0.875c1.03553,0 1.875,0.39175 1.875,0.875c0,0.48325 -0.83947,0.875 -1.875,0.875z" fill="url(#color-10)"/><path d="M171.625,133.25c-1.10457,0 -2,-1.06332 -2,-2.375c0,-1.31168 0.89543,-2.375 2,-2.375c1.10457,0 2,1.06332 2,2.375c0,1.31168 -0.89543,2.375 -2,2.375z" fill="url(#color-11)"/><path d="M196.375,193.375c0,0.48325 -0.61561,0.875 -1.375,0.875c-0.75939,0 -1.375,-0.39175 -1.375,-0.875c0,-0.48325 0.61561,-0.875 1.375,-0.875c0.75939,0 1.375,0.39175 1.375,0.875z" fill="url(#color-12)"/><path d="M184.125,232.125c0,1.72589 -1.06332,3.125 -2.375,3.125c-1.31168,0 -2.375,-1.39911 -2.375,-3.125c0,-1.72589 1.06332,-3.125 2.375,-3.125c1.31168,0 2.375,1.39911 2.375,3.125z" fill="url(#color-13)"/><path d="M266.125,142.125c0,0.62132 -0.44772,1.125 -1,1.125c-0.55228,0 -1,-0.50368 -1,-1.125c0,-0.62132 0.44772,-1.125 1,-1.125c0.55228,0 1,0.50368 1,1.125z" fill="url(#color-14)"/></g></g></svg>