<svg version="1.1" xmlns="http://www.w3.org/2000/svg" xmlns:xlink="http://www.w3.org/1999/xlink" width="502.00396" height="495.00641" viewBox="0,0,502.00396,495.00641"><defs><radialGradient cx="249.4565" cy="189.32188" r="170.89701" gradientUnits="userSpaceOnUse" id="color-1"><stop offset="0" stop-color="#ff0000"/><stop offset="1" stop-color="#ff0000" stop-opacity="0"/></radialGradient><radialGradient cx="240.94256" cy="190.56003" r="197.83186" gradientUnits="userSpaceOnUse" id="color-2"><stop offset="0" stop-color="#ff0000"/><stop offset="1" stop-color="#ff0000" stop-opacity="0"/></radialGradient><radialGradient cx="226.14625" cy="189.95538" r="158.86572" gradientUnits="userSpaceOnUse" id="color-3"><stop offset="0" stop-color="#ff0000"/><stop offset="1" stop-color="#ff0000" stop-opacity="0"/></radialGradient><radialGradient cx="240" cy="180" r="106.60661" gradientUnits="userSpaceOnUse" id="color-4"><stop offset="0" stop-color="#e93eff"/><stop offset="1" stop-color="#e93eff" stop-opacity="0"/></radialGradient><radialGradient cx="175.4475" cy="116.67435" r="45.7958" gradientUnits="userSpaceOnUse" id="color-5"><stop offset="0" stop-color="#e93eff"/><stop offset="1" stop-color="#e93eff" stop-opacity="0"/></radialGradient><radialGradient cx="314.33639" cy="103.91158" r="27.02703" gradientUnits="userSpaceOnUse" id="color-6"><stop offset="0" stop-color="#e93eff"/><stop offset="1" stop-color="#e93eff" stop-opacity="0"/></radialGradient><radialGradient cx="161.18323" cy="249.55723" r="28.52853" gradientUnits="userSpaceOnUse" id="color-7"><stop offset="0" stop-color="#e93eff"/><stop offset="1" stop-color="#e93eff" stop-opacity="0"/></radialGradient><radialGradient cx="263.28534" cy="305.11278" r="18.01802" gradientUnits="userSpaceOnUse" id="color-8"><stop offset="0" stop-color="#e93eff"/><stop offset="1" stop-color="#e93eff" stop-opacity="0"/></radialGradient><radialGradient cx="343.61567" cy="180.48816" r="27.02703" gradientUnits="userSpaceOnUse" id="color-9"><stop offset="0" stop-color="#e93eff"/><stop offset="1" stop-color="#e93eff" stop-opacity="0"/></radialGradient><radialGradient cx="130.40245" cy="197.75543" r="18.76877" gradientUnits="userSpaceOnUse" id="color-10"><stop offset="0" stop-color="#e93eff"/><stop offset="1" stop-color="#e93eff" stop-opacity="0"/></radialGradient><radialGradient cx="300.82287" cy="271.329" r="8.25826" gradientUnits="userSpaceOnUse" id="color-11"><stop offset="0" stop-color="#e93eff"/><stop offset="1" stop-color="#e93eff" stop-opacity="0"/></radialGradient><radialGradient cx="254.27633" cy="75.38305" r="21.02102" gradientUnits="userSpaceOnUse" id="color-12"><stop offset="0" stop-color="#e93eff"/><stop offset="1" stop-color="#e93eff" stop-opacity="0"/></radialGradient></defs><g transform="translate(19.99893,56.50453)"><g data-paper-data="{&quot;isPaintingLayer&quot;:true}" fill-rule="nonzero" stroke-linecap="butt" stroke-linejoin="miter" stroke-miterlimit="10" stroke-dasharray="" stroke-dashoffset="0" style="mix-blend-mode: normal"><path d="M412.45876,189.32188c0,94.38382 -72.97863,170.89701 -163.00232,170.89701c-90.02369,0 -163.00232,-76.51317 -163.00232,-170.89701c0,-94.38382 72.97863,-170.89701 163.00232,-170.89701c90.02369,0 163.00232,76.51317 163.00232,170.89701z" fill="url(#color-1)" stroke="none" stroke-width="0"/><path d="M438.77442,190.56003c0,96.51709 -88.57234,174.75962 -197.83186,174.75962c-109.25952,0 -197.83186,-78.24257 -197.83186,-174.75962c0,-96.51709 88.57234,-174.75962 197.83186,-174.75962c109.25952,0 197.83186,78.24257 197.83186,174.75962z" fill="url(#color-2)" stroke="#000000" stroke-width="0"/><path d="M385.01198,189.95538c0,77.5065 -71.12665,140.33795 -158.86572,140.33795c-87.73909,0 -158.86572,-62.83144 -158.86572,-140.33795c0,-77.5065 71.12665,-140.33795 158.86572,-140.33795c87.73909,0 158.86572,62.83144 158.86572,140.33795z" fill="url(#color-3)" stroke="#000000" stroke-width="0"/><path d="M86.08336,384.23298c2.31513,-0.91146 4.53934,-0.9051 7.00923,-1.04064c6.99513,-0.38388 13.98427,-0.74712 20.98583,-0.98905c1.8361,-0.06344 7.06848,0.6449 7.81985,-1.79938c0.12144,-0.39505 -0.68145,-2.17337 -0.80126,-2.61238c-0.73104,-2.6787 -2.93368,-5.2909 -4.38303,-7.66168c-0.76876,-1.25751 -2.32876,-2.98468 -2.66781,-4.41115c-0.33905,-1.42647 0.27694,-3.67085 0.39767,-5.13978c0.30487,-3.70956 0.54402,-7.43188 0.9456,-11.1322c1.5041,-1.58475 3.90981,-5.07635 5.91922,-5.90868c0.74244,-0.30753 2.3752,-0.03806 3.19134,-0.03806c2.33333,0 4.66667,0 7,0c0,0 0.5,0 0.5,0.5c0,0.5 -0.5,0.5 -0.5,0.5c-2.33333,0 -4.66667,0 -7,0c-0.66709,0 -2.20302,-0.28892 -2.80866,-0.03806c-1.82601,0.75636 -3.90661,4.02326 -5.39449,5.40503c-0.16228,3.60041 -0.56117,7.20181 -0.85638,10.79388c-0.11096,1.35014 -0.73053,3.52612 -0.42141,4.82662c0.30911,1.3005 1.84151,2.96499 2.54811,4.1208c1.74912,2.86113 3.86598,5.63947 4.7596,8.8816c0.07596,0.2756 0.58139,2.03206 0.52734,2.20788c-0.96314,3.13318 -6.34289,2.42209 -8.74118,2.50495c-6.99481,0.24169 -13.97719,0.60463 -20.96557,0.98814c-2.3599,0.12951 -4.49193,0.10423 -6.69769,0.97263l-0.27857,0.10967c1.04331,3.22773 2.08661,6.45545 3.12992,9.68318c0,0 0.56845,1.75861 -1.19016,2.32704c-1.75861,0.56845 -2.32704,-1.19016 -2.32704,-1.19016c-6.82127,-21.10328 -13.64252,-42.20657 -20.46379,-63.30985c-1.04558,-3.23475 -2.68044,-6.75921 -3.2522,-10.11284c-1.42834,-8.37773 -0.91438,-17.5863 -1.34841,-26.08093c-0.69161,-13.53576 -1.38322,-27.07153 -2.07483,-40.60729c-0.37724,-7.38315 -0.75448,-14.76629 -1.13172,-22.14944c-0.17803,-3.48448 -1.10699,-8.03867 -0.54386,-11.46847c0.75599,-4.60435 3.82127,-9.77897 5.5416,-14.1299c3.62437,-9.16652 7.24872,-18.33305 10.87309,-27.49957c0.06736,-0.17036 0.13471,-0.3407 0.20207,-0.51106c-0.55536,-2.26414 -0.74756,-4.62625 -0.67765,-7.5165c1.29822,-5.47258 2.65617,-9.64064 5.60532,-14.44154c2.70247,-4.39932 4.99477,-9.04663 7.40608,-13.61142c1.32418,-2.50676 2.7015,-4.98634 4.092,-7.45856c1.07723,-3.19303 2.32275,-6.28374 4.01579,-8.47351c0.06974,-0.09021 0.75579,-0.61452 1.65394,-1.28407c2.05967,-3.14576 4.34219,-6.16834 6.42768,-9.282c2.89846,-4.32744 5.8413,-8.5312 9.0462,-12.6376c2.82247,-3.61637 7.37373,-6.6156 11.28362,-9.20503c4.75577,-12.30786 10.42211,-24.24706 17.18643,-35.15327c3.00924,-4.85185 5.68337,-10.57723 9.3075,-14.98346c3.12098,-3.79449 7.12047,-7.13777 10.59644,-10.61373c6.35186,-6.35186 12.03767,-12.52098 19.78259,-17.13149c1.60091,-0.953 3.17653,-1.97004 4.76232,-2.9615c-5.58895,0.02661 -11.27687,0.43552 -16.68962,0.43552c-13.23137,0 -27.16994,0.2775 -40.2691,2.34627c-11.92861,1.88392 -23.99275,5.62507 -35.48637,9.24224c-20.42053,6.42654 -38.87379,18.591 -57.9665,28.13736c0,0 -1.65307,0.82654 -2.47961,-0.82654c-0.82654,-1.65307 0.82654,-2.47961 0.82654,-2.47961c19.27715,-9.63857 37.89028,-21.8679 58.50995,-28.35711c11.66652,-3.67156 23.9102,-7.45504 36.01938,-9.36746c13.28922,-2.09879 27.42381,-2.39153 40.84574,-2.39153c7.46617,0 15.4276,-0.74566 22.97139,-0.26444c1.88559,-0.87476 3.84244,-1.56946 5.92145,-1.95546c10.84936,-1.93092 21.50851,-4.59037 32.54049,-4.11072c2.95606,0.12853 7.17538,-0.42646 10.01405,0.47896c10.57461,3.37287 20.63856,10.79665 28.60481,18.17239c4.4803,4.1482 9.68767,8.09975 13.69874,12.6976c2.15325,2.46826 4.02211,5.33562 5.86496,8.16469c8.65682,5.1159 17.03896,10.7607 24.97504,16.60836c3.80261,2.82859 6.55229,6.75527 9.58883,10.37576c3.79934,4.52998 9.20488,9.2944 12.07537,14.44921c1.71747,3.08424 2.50293,7.49042 3.61085,10.85299c1.90901,5.79391 4.57545,11.78576 5.83652,17.74969c1.01062,4.77949 1.00407,10.04944 1.48474,14.91454c2.51255,25.43102 5.85206,50.75989 7.54417,76.25954c0.40792,6.14712 0.81582,12.29426 1.22374,18.44138c0.22063,3.32487 1.24349,7.80077 0.69003,11.08371c-0.77856,4.61815 -3.82974,9.77391 -5.56153,14.13803c-4.09019,10.30727 -8.18037,20.61455 -12.27056,30.92182c-2.10058,5.13822 -7.03811,9.48115 -10.61539,13.70885c-4.64957,5.49495 -9.09669,12.4214 -14.52543,17.13265c-2.7194,2.36 -6.56347,4.14965 -9.61771,6.06867c-7.39309,4.64516 -14.76936,9.31836 -22.19447,13.91214c-8.17515,1.83088 -16.83371,4.65882 -25.16783,5.47129c-5.61366,0.54726 -11.54978,0.01051 -17.20021,0.01051c-4.40436,0 -10.15287,0.97361 -14.43413,-0.04115c-5.6537,-1.34007 -12.30149,-5.21908 -17.21155,-8.24402c-3.26638,-2.04169 -5.38116,-4.56134 -7.96229,-7.4006l-2.41986,-2.66184c0,0 -1.24323,-1.36756 0.12432,-2.61079c1.36756,-1.24323 2.61079,0.12432 2.61079,0.12432l2.41986,2.66184c2.33831,2.57212 4.19447,4.93154 7.16926,6.74196c4.57188,2.83004 10.79251,6.498 16.04518,7.77506c3.97313,0.96597 9.55116,-0.04115 13.65842,-0.04115c5.51863,0 11.32468,0.53837 16.80656,0.01051c8.0168,-0.77195 16.26967,-3.57574 24.16577,-5.21869c7.17494,-4.59103 14.41109,-9.08753 21.62363,-13.61924c2.89208,-1.81713 6.58492,-3.49448 9.16148,-5.73051c5.27606,-4.57876 9.60427,-11.38425 14.1264,-16.72861c3.2222,-3.80805 8.22338,-8.0168 10.00141,-12.68458c4.09019,-10.30727 8.18037,-20.61455 12.27056,-30.92182c1.62904,-4.10519 4.60141,-9.01413 5.34564,-13.34803c0.51449,-2.99606 -0.52526,-7.23037 -0.72667,-10.26556c-0.40792,-6.14712 -0.81582,-12.29426 -1.22374,-18.44138c-1.68947,-25.45982 -5.02574,-50.74945 -7.53438,-76.14086c-0.46719,-4.72874 -0.44058,-9.86865 -1.4227,-14.51328c-1.23227,-5.82771 -3.86494,-11.69459 -5.73084,-17.35765c-1.03335,-3.13627 -1.72608,-7.33189 -3.32956,-10.2114c-2.74713,-4.93327 -8.03672,-9.53059 -11.67807,-13.8722c-2.82274,-3.36558 -5.38957,-7.18153 -8.94938,-9.7753c-5.6555,-4.1672 -11.53981,-8.23064 -17.58985,-12.06829c3.40244,4.63466 6.98904,9.26668 9.8494,14.17078c3.72004,6.37804 6.68076,13.35035 9.98369,19.95619c11.31614,22.66434 14.6276,48.41335 17.6242,73.25373c0.32673,8.72047 0.74954,17.36498 0.34646,26.08511c-0.02386,0.51636 -0.33347,7.53939 -0.41136,7.81029c-0.07789,0.2709 -3.54605,6.38572 -3.80009,6.83588c-1.6827,2.98165 -3.37894,7.53633 -5.71425,10.01612c-0.1996,0.21195 -6.10417,4.00919 -6.55108,4.29804c-5.23426,3.38302 -10.3334,7.0331 -15.95119,9.74115c-6.65532,3.20035 -13.25943,6.49745 -19.86656,9.79596c-3.85921,1.92665 -8.17625,4.71844 -12.33847,5.81565c-3.45439,0.91063 -7.78623,0.72099 -11.35248,1.03796c-9.94702,0.8841 -20.14287,0.46796 -30.12664,0.35023c-7.47149,-3.62425 -15.50157,-7.04203 -22.11951,-12.14565c-4.88464,-3.76693 -9.39882,-8.16593 -14.05448,-12.2144c-3.37253,-2.93267 -8.03435,-5.99789 -10.70691,-9.58612c-3.49522,-4.69271 -5.64561,-11.32084 -8.10483,-16.616c-1.07019,-2.31216 -1.97604,-4.70763 -2.70357,-7.14938l-0.58262,-1.96475c0,0 -0.52545,-1.77193 1.24648,-2.29738c1.77193,-0.52545 2.29738,1.24648 2.29738,1.24648l0.58262,1.96475c0.66992,2.27071 1.51197,4.49747 2.51218,6.64328c2.34471,5.04862 4.37713,11.45553 7.69251,15.93272c2.49602,3.37071 7.02379,6.28192 10.19226,9.03706c4.58686,3.98851 9.03236,8.322 13.83867,12.04051c6.23856,4.82658 13.80536,7.90211 20.75859,11.51123c9.62257,-0.14899 19.36232,0.42208 28.94981,-0.4344c3.357,-0.2999 7.48403,-0.07257 10.73832,-0.93044c3.90031,-1.02817 8.0117,-3.74233 11.62965,-5.54853c6.62345,-3.30666 13.24395,-6.61177 19.91571,-9.82005c5.47796,-2.62735 10.44719,-6.21843 15.54664,-9.51433c1.94587,-1.25766 4.27814,-2.04109 5.86658,-3.72779c2.12813,-2.25979 3.65512,-6.58591 5.18608,-9.29866c1.14103,-2.02184 2.82522,-3.80947 3.46678,-6.04065c0.64157,-2.23118 0.16416,-4.64037 0.27136,-6.95949c0.39596,-8.56601 -0.02545,-17.05629 -0.33891,-25.62323c-2.97076,-24.35146 -6.11958,-49.67314 -17.24545,-71.89186c-3.26255,-6.52512 -6.18391,-13.41496 -9.85321,-19.7176c-3.50932,-6.02785 -8.15534,-11.63941 -12.15779,-17.35602c-0.78461,-1.12064 -1.55035,-2.28867 -2.31749,-3.46936c-5.88734,-3.45226 -11.90077,-6.65249 -17.98571,-9.49521c-7.68194,-3.58878 -16.07847,-6.11807 -24.0055,-9.13697c-11.61532,-4.42354 -23.07806,-7.42445 -35.17175,-10.27001c-4.6111,-1.08496 -9.48175,-2.80411 -14.18227,-3.34967c-0.69529,-0.0807 -1.39564,-0.14777 -2.10024,-0.20295c-3.37814,1.68962 -6.5539,4.01882 -9.74332,5.91746c-16.10686,9.58831 -28.70137,25.80534 -38.43605,41.50075c-5.88707,9.49184 -10.92645,19.78186 -15.24862,30.41527c2.6541,-1.06175 5.44633,-1.61248 8.419,-1.84116c0,0 0.36854,-0.02834 0.3969,0.3402c0.02834,0.36854 -0.3402,0.3969 -0.3402,0.3969c-3.14917,0.24225 -6.08266,0.84897 -8.86509,2.06779c-1.80855,4.50288 -3.48969,9.06467 -5.05324,13.651c9.67701,-7.07061 19.35402,-14.14124 29.03103,-21.21185c7.88318,-5.75995 15.71593,-12.82243 24.52976,-17.02703c20.03738,-9.5069 40.07477,-19.01382 60.11215,-28.52072l0.33613,-0.15948c0,0 1.66978,-0.79224 2.46203,0.87754l0.00006,-0.00003c0.79224,1.66978 -0.87754,2.46203 -0.87754,2.46203c-20.03738,9.5069 -40.41091,19.1733 -60.4483,28.68021c-8.59509,4.05365 -16.26121,11.06617 -23.93353,16.67204c-11.06546,8.08511 -22.13092,16.1702 -33.19637,24.25531c-2.01348,6.33417 -3.81234,12.68643 -5.42225,18.96717c-6.32031,24.65739 -15.34962,48.31334 -21.3649,73.04283c-2.75739,11.33593 -3.82028,22.42727 -3.35537,33.5023c0.93767,1.94421 2.13542,3.78989 3.45114,5.55966c2.05022,2.75773 5.88941,4.59043 8.72442,6.5314l0.04363,0.02987c0,0 0.305,0.20882 0.09618,0.51383v-0.00001c-0.20882,0.305 -0.51383,0.09618 -0.51383,0.09618l-0.04363,-0.02987c-2.91098,-1.99299 -6.79291,-3.86604 -8.90007,-6.70034c-1.01395,-1.36385 -1.95739,-2.77248 -2.7708,-4.23492c0.5108,9.02404 2.03023,18.04529 4.4681,27.1873c0,0 0.47621,1.78578 -1.30959,2.262c-1.78578,0.47621 -2.262,-1.30959 -2.262,-1.30959c-4.77437,-17.90391 -6.11236,-35.40709 -3.39086,-53.30174c0.00033,-0.1594 0.00033,-0.31882 -0.00003,-0.47827c-0.0123,-5.73262 -0.79032,-9.5437 -3.45816,-14.61126c-2.41033,-4.57839 -4.86294,-9.1245 -7.40942,-13.62846c-0.42551,-0.7526 -0.80964,-1.47387 -1.15505,-2.17506c-3.19,8.06796 -6.38001,16.13593 -9.57001,24.20389c-1.61894,4.09455 -4.62128,9.04413 -5.33149,13.36966c-0.52017,3.16813 0.42364,7.46648 0.58787,10.68096c0.37724,7.38315 0.75448,14.76629 1.13172,22.14944c0.69161,13.53576 1.38322,27.07153 2.07483,40.60729c0.42588,8.33501 -0.09203,17.38076 1.29227,25.60109c0.53723,3.1902 2.13962,6.56813 3.13398,9.64442c5.67524,17.55776 11.35047,35.11553 17.02571,52.67329zM114.48736,118.26073c-3.97944,2.90762 -7.95888,5.81526 -11.93834,8.72288c-1.85158,1.35288 -4.19475,2.18544 -5.59738,3.99961c-3.15133,4.07593 -4.62622,11.89839 -6.5391,16.73633c-4.53046,11.45815 -9.06091,22.9163 -13.59135,34.37446c-0.31106,0.78672 -0.62213,1.57345 -0.93319,2.36017c0.4098,0.87615 0.88385,1.78296 1.42873,2.7467c2.55012,4.51039 5.00628,9.06301 7.42006,13.64794c2.18056,4.14195 3.13437,7.50209 3.43316,11.6822c0.44008,-2.40072 0.95354,-4.80943 1.54184,-7.22801c6.01915,-24.74541 15.052,-48.41544 21.37593,-73.08699c1.22313,-4.7718 2.55438,-9.58348 4.00444,-14.39721c-0.2016,0.14729 -0.40319,0.2946 -0.60479,0.4419zM86.97508,146.36043c0.6504,-1.64497 1.25476,-3.57513 1.88504,-5.5847c-0.77445,1.40169 -1.53915,2.80847 -2.28685,4.22394c-2.41881,4.57898 -4.71894,9.24004 -7.42984,13.65307c-2.90317,4.72602 -4.1936,8.77126 -5.50206,14.14936c-0.0434,2.35311 0.07918,4.32856 0.43294,6.18623c4.30026,-10.87597 8.60052,-21.75194 12.90078,-32.6279zM100.36829,123.99903c3.97944,-2.90762 7.95888,-5.81526 11.93834,-8.72288c1.5441,-1.12821 3.08821,-2.25644 4.63231,-3.38465c1.55384,-4.82283 3.23159,-9.63211 5.04397,-14.38968c-3.63772,2.41269 -7.67774,5.18238 -10.24495,8.47171c-3.19399,4.0924 -6.12613,8.2814 -9.01475,12.59416c-1.70437,2.54465 -3.54183,5.02821 -5.28023,7.56855c1.3784,-1.01251 2.69897,-1.9718 2.92531,-2.13716zM208.07497,15.64492c12.24874,2.88206 23.87473,5.93288 35.64068,10.41379c8.0116,3.05112 16.48799,5.61447 24.25258,9.24149c3.91791,1.83014 7.80685,3.80611 11.65252,5.90071c-0.41303,-0.52903 -0.83587,-1.04478 -1.2708,-1.54333c-3.9225,-4.49633 -9.04218,-8.35764 -13.4246,-12.41521c-7.61299,-7.04867 -17.01307,-13.94359 -27.04702,-17.31342c-2.48862,-0.83578 -6.60271,-0.2435 -9.22113,-0.35735c-10.05141,-0.43702 -19.81712,1.84796 -29.69079,3.68493c3.06796,0.74627 6.13809,1.68947 9.10855,2.3884z" fill="#ff0000" stroke="none" stroke-width="0.5"/><path d="M380.21666,192.2321c0.36093,-0.07977 0.4407,0.28116 0.4407,0.28116l0.03837,0.17363c0.85353,3.86228 2.44012,7.5569 2.82581,11.49763c0.59224,6.05094 -1.11255,9.59343 -4.46015,14.5584c-4.24156,4.01419 -7.14994,6.39147 -6.38005,12.54603c2.18975,4.73843 4.54932,9.113 7.29229,13.55635c2.91292,4.72004 4.78678,9.20865 3.75216,14.80057c-0.84381,4.56066 -3.15374,10.8731 -6.51058,14.14779c-3.9219,3.82594 -7.78246,6.39874 -12.52366,9.12953c-4.52475,2.60613 -9.07039,4.93781 -13.79965,7.15059c-3.91671,1.8326 -7.73519,4.12629 -9.43397,8.37322c0,0 -0.13728,0.3432 -0.48049,0.20592c-0.3432,-0.13728 -0.20592,-0.48049 -0.20592,-0.48049c1.76607,-4.41519 5.72637,-6.85894 9.80706,-8.76828c4.71063,-2.20407 9.23708,-4.52575 13.74398,-7.12159c4.69384,-2.70351 8.49496,-5.23163 12.37639,-9.01809c3.24593,-3.1665 5.48442,-9.34573 6.29987,-13.75311c1.00083,-5.40937 -0.83503,-9.71217 -3.65429,-14.27774c-2.77624,-4.49725 -5.20886,-8.91711 -7.37398,-13.74134c-0.87289,-6.40336 2.09164,-9.08327 6.52685,-13.22738c3.21404,-4.83315 4.86229,-8.14431 4.28834,-14.00839c-0.38243,-3.9073 -1.96527,-7.57897 -2.81192,-11.41013l-0.03837,-0.17363c0,0 -0.07977,-0.36093 0.28116,-0.4407z" fill="#ff0000" stroke="none" stroke-width="0.5"/><path d="M340.01248,68.694c0.07004,-0.36294 0.43298,-0.2929 0.43298,-0.2929l0.09588,0.01851c4.51555,0.87748 8.89638,3.43742 13.0742,5.29719c4.5702,2.03445 9.20906,5.59896 12.14521,9.65222c3.13582,4.32891 5.00991,8.95369 7.49144,13.56996c2.48276,4.61855 4.71477,9.17439 6.66604,14.04187c0.90133,2.24836 1.69876,4.64858 2.8005,6.80539c0.85991,1.68341 2.72064,3.39135 2.75264,5.31471c0,0 0,0.36964 -0.36964,0.36964c-0.36964,0 -0.36964,-0.36964 -0.36964,-0.36964c0.03676,-1.6801 -1.91328,-3.49369 -2.67172,-4.97841c-1.11212,-2.17713 -1.9186,-4.59724 -2.82834,-6.86662c-1.94117,-4.8423 -4.16101,-9.37212 -6.63099,-13.96691c-2.46713,-4.58949 -4.32111,-9.18217 -7.43898,-13.4863c-2.86375,-3.95333 -7.38957,-7.42622 -11.84714,-9.41053c-4.11739,-1.83288 -8.46038,-4.39376 -12.91363,-5.24668l-0.09588,-0.01851c0,0 -0.36294,-0.07004 -0.2929,-0.43298z" fill="#ff0000" stroke="none" stroke-width="0.5"/><path d="M171.05077,302.15221c-0.1461,0.33955 -0.48563,0.19345 -0.48563,0.19345l-0.32494,-0.13981c-4.22592,-1.82825 -8.32944,-2.55122 -12.12741,-5.39435c-3.99427,-2.99335 -9.98485,-2.61166 -14.70561,-3.64845c-5.25311,-1.15376 -9.73277,-2.92831 -14.65476,-5.09911c-3.95927,-1.74622 -7.86309,-4.41319 -11.47421,-6.81967c0,0 -0.30755,-0.20505 -0.10252,-0.5126c0.20505,-0.30755 0.5126,-0.10252 0.5126,-0.10252c3.57497,2.38426 7.44164,5.02914 11.36246,6.75839c4.88018,2.15236 9.30811,3.90998 14.51502,5.05345c4.85889,1.06712 10.87158,0.69884 14.99007,3.7787c3.74142,2.8008 7.80171,3.51991 11.97656,5.30708l0.32494,0.13981c0,0 0.33955,0.1461 0.19345,0.48563z" fill="#ff0000" stroke="none" stroke-width="0.5"/><path d="M52.48845,109.92131c-0.00414,-0.36961 0.36547,-0.37376 0.36547,-0.37376l0.18448,0.1721c0.99721,-1.55671 3.77991,-1.94307 5.50853,-2.42286c5.11809,-1.42054 9.7685,-2.73089 13.10625,-6.97922c3.34329,-4.2554 4.31068,-8.76987 5.02039,-14.1248c0.72304,-5.20249 5.27016,-9.28623 8.79202,-12.73293c3.77292,-3.69241 8.09581,-6.33283 12.50649,-9.2179c4.16385,-2.72362 9.67673,-4.55692 14.58887,-5.4112c4.46645,-0.77677 8.70008,-1.52548 13.23915,-1.52548c0,0 0.36964,0 0.36964,0.36964c0,0.36964 -0.36964,0.36964 -0.36964,0.36964c-4.49632,0 -8.68718,0.74494 -13.11248,1.51456c-4.81725,0.83778 -10.22712,2.63032 -14.31086,5.30154c-4.37011,2.85854 -8.65672,5.46994 -12.39411,9.12758c-3.35722,3.28559 -7.95183,7.30421 -8.57624,12.30171c-0.72686,5.48429 -1.74335,10.12044 -5.17194,14.48438c-3.44539,4.38534 -8.21457,5.77068 -13.48986,7.23485c-1.41885,0.39381 -4.331,0.77466 -5.07446,2.09442l-0.80799,0.18322c0,0 -0.36961,0.00414 -0.37376,-0.36547z" fill="#ff0000" stroke="none" stroke-width="0.5"/><path d="M382.93679,301.06389c0.07974,0.36093 -0.28119,0.44068 -0.28119,0.44068l-0.06748,0.0149c-1.47904,0.32678 -2.90548,0.4814 -4.4017,0.67999c-4.58105,0.608 -11.00598,0.99017 -13.33502,5.64861c-0.81155,1.62323 -2.15028,3.47432 -2.61834,5.22033c-0.37013,1.38069 0.50104,4.26919 -0.75638,5.27392c-0.88231,0.70499 -3.06397,0.99008 -4.17653,1.57132c-4.59186,2.39887 -9.18511,4.77729 -13.83657,7.05867c-4.79235,2.35049 -9.3793,4.06357 -14.50099,5.56261c-4.25871,1.24645 -8.29347,2.93243 -12.26357,4.91748c0,0 -0.33062,0.1653 -0.49592,-0.1653c-0.1653,-0.33062 0.1653,-0.49592 0.1653,-0.49592c4.0095,-2.00476 8.08539,-3.7069 12.38651,-4.96577c5.08388,-1.48796 9.62634,-3.1838 14.3831,-5.51684c4.64584,-2.27863 9.23349,-4.65421 13.8198,-7.05018c1.15789,-0.60489 3.10655,-0.8326 4.07131,-1.50449c0.66232,-0.46125 0.38438,-3.31204 0.43345,-4.06552c0.13388,-2.05562 1.80699,-4.32958 2.72758,-6.17091c2.46412,-4.92863 9.0391,-5.40586 13.89898,-6.05087c1.47711,-0.19604 2.87997,-0.34654 4.33947,-0.669l0.06748,-0.0149c0,0 0.36093,-0.07974 0.44068,0.28119z" fill="#ff0000" stroke="none" stroke-width="0.5"/><path d="M48.55506,281.79249c-1.59507,0.93359 -2.52865,-0.66148 -2.52865,-0.66148l-0.78281,-1.33744c-5.02759,-8.58974 -9.92328,-17.12193 -14.34683,-26.03983c-5.88583,-13.6098 -9.89845,-27.57578 -8.39972,-42.51139c0.31113,-3.10059 0.58953,-7.33844 2.01543,-10.20024c1.67823,-3.36822 5.14669,-6.03787 7.75586,-8.64705c0,0 1.30687,-1.30687 2.61375,0c1.30687,1.30687 0,2.61375 0,2.61375c-2.24754,2.24754 -5.59404,4.69889 -7.02969,7.61706c-1.22621,2.49244 -1.41033,6.30487 -1.67729,8.98429c-1.42184,14.27081 2.45566,27.58252 8.07488,40.58814c4.37428,8.81084 9.21546,17.23963 14.18376,25.72807l0.78281,1.33744c0,0 0.93359,1.59507 -0.66148,2.52865z" fill="#ff0000" stroke="none" stroke-width="0.5"/><path d="M400.99616,287.95984c-1.10892,-1.47856 0.36964,-2.58747 0.36964,-2.58747l2.85509,-2.13551c7.37324,-7.40221 13.89162,-14.38958 19.16403,-23.46983c12.47424,-21.48342 23.96377,-44.70493 27.72176,-69.50763c0.90675,-5.98454 2.29861,-12.10225 2.75305,-18.13534c0.60324,-8.00811 -0.00402,-16.29023 -0.00874,-24.32803c-0.0042,-7.16397 0.7243,-14.71733 -0.69987,-21.74517c0,0 -0.36247,-1.81231 1.44984,-2.17476c1.81231,-0.36247 2.17476,1.44984 2.17476,1.44984c1.44232,7.29908 0.7673,15.03556 0.77166,22.46792c0.00478,8.13198 0.60865,16.50511 -0.00172,24.60786c-0.4615,6.12667 -1.86359,12.33455 -2.78433,18.41143c-3.82799,25.26475 -15.47148,48.92336 -28.17983,70.80997c-5.47534,9.42975 -12.25255,16.74709 -19.93875,24.4062l-3.05913,2.30016c0,0 -1.47856,1.10892 -2.58747,-0.36964z" fill="#ff0000" stroke="none" stroke-width="0.5"/><path d="M163.84289,313.92941c1.75334,-0.58444 2.3378,1.1689 2.3378,1.1689l0.06971,0.20916c2.56152,7.68455 4.97526,15.4011 8.04693,22.8977c0.92457,2.25648 2.10209,7.96331 3.7983,9.65229c1.69621,1.68898 7.40802,2.84212 9.66842,3.75704c8.15649,3.30142 15.61002,5.88662 24.24956,7.58058c10.58533,2.07549 21.70272,5.48701 32.44218,6.37268c14.32188,1.18108 29.59089,-0.93165 43.60148,-3.54889c7.26707,-1.35752 14.53414,-2.71504 21.80121,-4.07256c3.30056,-0.61656 7.45269,-0.7779 10.59333,-1.95089c4.25976,-1.59098 8.53428,-5.03475 12.46744,-7.34041c8.50364,-4.98489 17.00729,-9.96979 25.51093,-14.95468c5.86231,-3.35123 9.69715,-10.78671 13.73414,-16.16938c5.72633,-7.6351 12.82579,-15.21052 17.61088,-23.45496c4.03221,-6.94727 6.31657,-15.74822 9.31892,-23.21354c4.13769,-10.2883 8.27537,-20.57659 12.41306,-30.8649c1.71799,-4.27177 4.3886,-8.93123 5.42278,-13.40741c0.69785,-3.0205 0.18775,-6.97278 0.28375,-10.06872c0.19094,-6.15769 0.38187,-12.31537 0.57281,-18.47307c0.68737,-22.16767 1.37475,-44.33535 2.06211,-66.50302c0,0 0.05728,-1.84731 1.90459,-1.79003c1.84731,0.05728 1.79003,1.90459 1.79003,1.90459c-0.68737,22.16767 -1.37475,44.33535 -2.06211,66.50302c-0.19094,6.15769 -0.38187,12.31537 -0.57281,18.47307c-0.10311,3.3252 0.37731,7.46493 -0.36065,10.71274c-1.06623,4.69261 -3.81291,9.55703 -5.61106,14.02806c-4.13769,10.2883 -8.27537,20.57659 -12.41306,30.8649c-3.06731,7.62683 -5.41817,16.53953 -9.52768,23.64828c-4.85235,8.39376 -12.05213,16.09573 -17.87445,23.85881c-4.4357,5.91425 -8.44669,13.32622 -14.82192,17.1404c-8.50364,4.98489 -17.00729,9.96979 -25.51093,14.95468c-4.12232,2.41654 -8.57512,5.94539 -13.04349,7.61428c-3.34,1.24746 -7.69499,1.46546 -11.20788,2.12168c-7.26707,1.35752 -14.53414,2.71504 -21.80121,4.07256c-14.32716,2.67638 -29.93674,4.80717 -44.58404,3.59923c-10.88224,-0.89742 -22.12587,-4.32661 -32.84959,-6.42923c-8.8612,-1.73744 -16.56332,-4.39699 -24.9252,-7.78155c-2.78127,-1.12574 -8.79726,-2.48054 -10.88972,-4.56408c-0.33838,-0.33693 -2.90134,-6.69867 -3.20907,-7.44973c-3.57892,-8.73458 -6.54988,-17.59621 -9.53471,-26.55068l-0.06971,-0.20916c0,0 -0.58444,-1.75334 1.1689,-2.3378z" fill="#ff0000" stroke="none" stroke-width="0.5"/><path d="M224.54627,-11.87009c-0.6864,1.71601 -2.4024,1.02961 -2.4024,1.02961l-0.52876,-0.21151c-9.70938,-3.88375 -19.27887,-8.22068 -29.1167,-11.7608c-19.72903,-7.10245 -39.8293,-13.14959 -61.07719,-10.09243c0,0 -1.82962,0.26138 -2.09099,-1.56824c-0.26138,-1.82962 1.56824,-2.09099 1.56824,-2.09099c21.87778,-3.10436 42.52436,2.95582 62.85198,10.27377c9.87793,3.55754 19.48767,7.90675 29.23747,11.80666l0.52876,0.21151c0,0 1.71601,0.6864 1.02961,2.4024z" fill="#ff0000" stroke="none" stroke-width="0.5"/><path d="M157.58745,365.89055c0.80237,-1.66494 2.46731,-0.86257 2.46731,-0.86257c4.43985,2.13963 11.26839,5.43042 15.70824,7.57005c3.7187,1.7921 4.85711,3.45954 8.77966,1.95214c0,0 1.75334,-0.58444 2.3378,1.1689c0.58444,1.75334 -1.1689,2.3378 -1.1689,2.3378c-1.40291,0.42 -2.74727,1.35317 -4.20874,1.26c-0.46084,-0.02938 -6.63286,-3.04599 -7.34455,-3.38895c-4.43985,-2.13963 -8.8797,-4.27926 -13.31955,-6.41891l-2.38869,-1.15116c0,0 -1.66494,-0.80237 -0.86257,-2.46731z" fill="#ff0000" stroke="none" stroke-width="0.5"/><path d="M481.98276,101.13016c-0.13016,0.48276 -0.61292,0.3526 -0.61292,0.3526l-0.91148,-0.24576c-1.6231,-0.43763 -3.26652,-0.81897 -4.8434,-1.40324c-6.59151,-2.44616 -13.50613,-3.64979 -20.08867,-6.01188c-3.6837,-1.32407 -9.15843,-2.22448 -12.35121,-4.45813c-1.97997,-1.38518 -3.66652,-4.37061 -5.22019,-6.23422c-2.2293,-2.67402 -5.42531,-5.48442 -7.09795,-8.52834c-1.52206,-2.76988 -2.12202,-6.59479 -3.08833,-9.61168c-2.15435,-6.72601 -4.63259,-13.07009 -7.50483,-19.52168c-1.05298,-2.36518 -1.91454,-5.02991 -3.22769,-7.25792c-2.14029,-3.63143 -5.25625,-6.96234 -7.79743,-10.33093c-1.48996,-1.97509 -3.39076,-2.10694 -5.75346,-2.77282c-4.49169,-1.2659 -8.98338,-2.53179 -13.47507,-3.79769c-6.33829,-1.78632 -14.12638,-0.16298 -20.69652,0.20167c-6.99057,0.38798 -13.9803,0.81816 -20.97458,1.13239c-2.33098,0.10472 -4.66196,0.20945 -6.99295,0.31417c-0.30465,0.01369 -2.1244,0.11972 -2.29413,0.0087c-0.16973,-0.11102 -0.80172,-1.82079 -0.91125,-2.10541c-1.06368,-2.76397 -0.83598,-4.14039 -0.12577,-6.98125c0,0 0.12127,-0.48507 0.60634,-0.3638c0.48507,0.12127 0.3638,0.60634 0.3638,0.60634c-0.67521,2.70085 -0.91272,3.77684 0.0889,6.37955c0.20477,0.53209 0.04826,1.3156 0.52538,1.6277c0.2757,0.18034 2.31281,-0.19828 2.70083,-0.21571c1.99798,-0.08976 3.99597,-0.17953 5.99395,-0.26929c6.99077,-0.31407 13.97699,-0.74407 20.96405,-1.13186c6.69299,-0.37147 14.56237,-1.98657 21.0232,-0.16571c4.49169,1.2659 8.98338,2.53179 13.47507,3.79769c2.58288,0.72794 4.62101,0.93324 6.28052,3.1331c2.56474,3.39983 5.70009,6.75967 7.86061,10.42541c1.33325,2.26211 2.21092,4.95819 3.27974,7.35896c2.88659,6.48381 5.37848,12.86368 7.54362,19.62335c0.94512,2.95072 1.52535,6.72897 3.01239,9.43513c1.63753,2.98002 4.80492,5.74903 6.98964,8.36958c1.48931,1.78641 3.13432,4.73223 5.02534,6.05518c3.10169,2.16993 8.52878,3.04699 12.11622,4.33647c6.58092,2.36958 13.5047,3.56846 20.09834,6.01541c1.54689,0.57501 3.16292,0.94576 4.75581,1.37524l0.91148,0.24576c0,0 0.48276,0.13016 0.3526,0.61292z" fill="#ff0000" stroke="none" stroke-width="0.5"/><path d="M283,410.00017c-0.00017,-0.5 0.49983,-0.50017 0.49983,-0.50017c2.33333,-0.00081 4.88457,-0.00169 7.21791,-0.0025c7,-0.00243 14,-0.00485 21,-0.00728c6.97719,-0.00242 13.98492,-0.57706 20.95429,-0.9119c1.33113,-0.06395 3.61364,0.27781 4.83418,-0.20541c1.22054,-0.48322 2.65052,-2.29479 3.66468,-3.15936c2.79034,-2.37875 5.58067,-4.7575 8.37101,-7.13626c5.20451,-4.39082 7.00823,-12.37764 11.49161,-17.4272c4.65794,-5.22528 9.31588,-10.45057 13.97382,-15.67585c4.52453,-5.05897 11.01188,-9.08389 16.30457,-13.34441c5.50788,-4.43374 11.33591,-8.15818 17.28851,-11.96795c5.89778,-3.77468 11.80047,-7.46252 17.40338,-11.66496c5.46503,-4.09903 11.76021,-7.90437 16.5438,-12.77805c4.16686,-4.24533 8.83695,-8.106 11.50519,-13.44249c0,0 0.22361,-0.44721 0.67082,-0.22361c0.44721,0.22361 0.22361,0.67082 0.22361,0.67082c-2.7202,5.4404 -7.44097,9.37083 -11.68595,13.69575c-4.82051,4.91129 -11.15065,8.7472 -16.65744,12.87755c-5.6228,4.21736 -11.54571,7.91921 -17.46434,11.70724c-5.92235,3.79041 -11.72087,7.49364 -17.20052,11.90466c-5.23894,4.21725 -11.72439,8.20886 -16.18516,13.23086c-4.65794,5.22528 -9.31588,10.45057 -13.97382,15.67585c-4.56368,5.09725 -6.34731,13.01328 -11.58933,17.52278c-2.79034,2.37875 -5.58067,4.7575 -8.37101,7.13626c-1.10966,0.94598 -2.59716,2.79439 -3.94533,3.32814c-1.34817,0.53375 -3.69782,0.2045 -5.1543,0.27447c-6.9853,0.3356 -14.00878,0.91063 -21.00193,0.91305c-7,0.00243 -14,0.00485 -21,0.00728c-2.33333,0.00081 -4.66667,0.00162 -7,0.00243l-0.21791,0.00008c0,0 -0.5,0.00017 -0.50017,-0.49983z" fill="#ff0000" stroke="none" stroke-width="0.5"/><path d="M-19.54871,189.50238c0.49762,-0.04871 0.54633,0.44891 0.54633,0.44891c0.48711,4.97622 1.03467,10.57006 1.52178,15.54627c0.68116,6.95867 1.2175,13.92358 2.39793,20.81646c1.18158,6.89956 2.36315,13.79911 3.54473,20.69867c1.1818,6.90084 2.33887,13.80503 3.47763,20.71311c1.15562,7.01036 2.21588,13.61909 4.62512,20.3118c2.37116,6.5869 4.76688,13.16559 7.10388,19.76468c2.33916,6.60521 4.05213,13.32643 8.27093,18.94809c4.19835,5.59442 8.71285,10.93294 13.15939,16.33152c3.8141,4.63074 7.78923,9.10226 11.7747,13.58592c0,0 0.33218,0.3737 -0.04152,0.70589c-0.3737,0.33218 -0.70589,-0.04152 -0.70589,-0.04152c-3.99381,-4.49303 -7.9771,-8.9741 -11.79918,-13.61452c-4.45613,-5.41024 -8.97991,-10.76055 -13.18733,-16.36705c-4.28573,-5.71085 -6.03893,-12.5086 -8.41374,-19.2145c-2.33642,-6.59747 -4.73156,-13.17453 -7.10214,-19.7598c-2.42996,-6.75026 -3.50559,-13.41865 -4.67091,-20.48785c-1.13842,-6.90602 -2.29515,-13.80816 -3.4766,-20.70696c-1.18158,-6.89956 -2.36315,-13.79911 -3.54473,-20.69867c-1.18451,-6.9167 -1.72401,-13.90518 -2.40752,-20.88783c-0.48711,-4.97622 -0.97421,-9.95243 -1.46132,-14.92865l-0.06046,-0.61762c0,0 -0.04871,-0.49762 0.44891,-0.54633z" fill="#ff0000" stroke="none" stroke-width="0.5"/><path d="M26.62511,39.51591c0.48409,0.12511 0.35898,0.60921 0.35898,0.60921c-0.33363,1.29092 -0.74618,2.88718 -1.07982,4.17809c-1.79093,6.92959 -3.6125,13.42815 -6.47107,19.99624c-2.80847,6.45298 -5.13804,12.92125 -7.35327,19.60001c-1.88685,5.68871 -3.45274,11.47537 -5.09918,17.2379c0,0 -0.13736,0.48076 -0.61812,0.3434c-0.48076,-0.13736 -0.3434,-0.61812 -0.3434,-0.61812c1.65028,-5.77599 3.22029,-11.57597 5.11155,-17.27799c2.22453,-6.70682 4.56518,-13.20405 7.3855,-19.68426c2.83794,-6.5207 4.64158,-12.96696 6.4198,-19.84741c0.33363,-1.29092 0.66727,-2.58183 1.0009,-3.87275l0.07892,-0.30534c0,0 0.12511,-0.48409 0.60921,-0.35898z" fill="#ff0000" stroke="none" stroke-width="0.5"/><path d="M144.5704,438.49502c-0.49502,0.0704 -0.56542,-0.42461 -0.56542,-0.42461l-0.01435,-0.10088c-0.90867,-6.38898 -0.97544,-12.5516 -0.99762,-18.99893c-0.00534,-1.55224 0.55582,-4.40098 0.0123,-5.82319c-0.35028,-0.91655 -1.89921,-2.08794 -2.56411,-2.83595c-1.77164,-1.99309 -3.54327,-3.98618 -5.31491,-5.97927c0,0 -0.33218,-0.3737 0.04152,-0.70589c0.3737,-0.33218 0.70589,0.04152 0.70589,0.04152c1.99309,2.24223 3.98618,4.48446 5.97927,6.72668c0.55765,0.62736 1.79064,1.62192 2.08644,2.39592c0.60154,1.574 0.04775,4.48042 0.05359,6.17674c0.02203,6.40245 0.08541,12.51773 0.98766,18.86156l0.01435,0.10088c0,0 0.0704,0.49502 -0.42461,0.56542z" fill="#ff0000" stroke="none" stroke-width="0.5"/><path d="M282.50042,-42.5c0.5,0.00042 0.49958,0.50042 0.49958,0.50042l-0.00047,0.55849c-0.00449,5.33685 -0.00346,10.67141 -0.09634,16.00752c-0.04641,2.66626 -0.09281,5.33253 -0.13922,7.99879c-0.0101,0.58023 -0.34209,2.26988 -0.10085,2.77556c0.24124,0.50568 1.76337,1.31081 2.2207,1.66805c1.85778,1.45123 3.73256,2.61667 5.7824,3.77926c4.31591,2.44781 10.72971,7.76277 15.83378,7.71191c0,0 0.5,0 0.5,0.5c0,0.5 -0.5,0.5 -0.5,0.5c-5.40919,-0.04458 -11.74642,-5.24409 -16.32711,-7.84207c-2.09099,-1.18592 -4.00917,-2.38036 -5.90466,-3.86103c-0.60356,-0.47147 -2.18492,-1.34903 -2.50766,-2.02554c-0.32273,-0.67651 -0.00977,-2.45777 0.00356,-3.22353c0.04641,-2.66626 0.09281,-5.33253 0.13922,-7.99879c0.09278,-5.33059 0.0917,-10.65963 0.09619,-15.99096l0.00047,-0.55849c0,0 0.00042,-0.5 0.50042,-0.49958z" fill="#ff0000" stroke="none" stroke-width="0.5"/><path d="M335.37873,-56.48507c0.48507,-0.12127 0.60634,0.3638 0.60634,0.3638c1.6169,6.46762 3.41295,13.65181 5.02986,20.11943c1.46961,5.87846 0.98507,11.95591 0.98507,18.00184c0,0 0,0.5 -0.5,0.5c-0.5,0 -0.5,-0.5 -0.5,-0.5c0,-5.96043 0.49312,-11.96597 -0.95521,-17.7593c-1.6169,-6.46762 -3.23381,-12.93523 -4.85071,-19.40285l-0.17914,-0.71658c0,0 -0.12127,-0.48507 0.3638,-0.60634z" fill="#ff0000" stroke="none" stroke-width="0.5"/><path d="M346.60661,180c0,47.68224 -47.7294,86.33634 -106.60661,86.33634c-58.8772,0 -106.60661,-38.65409 -106.60661,-86.33634c0,-47.68224 47.7294,-86.33634 106.60661,-86.33634c58.8772,0 106.60661,38.65409 106.60661,86.33634z" fill="url(#color-4)" stroke="none" stroke-width="0"/><path d="M221.24329,116.67435c0,20.31678 -20.50348,36.78679 -45.7958,36.78679c-25.29232,0 -45.7958,-16.47001 -45.7958,-36.78679c0,-20.31678 20.50348,-36.78679 45.7958,-36.78679c25.29232,0 45.7958,16.47001 45.7958,36.78679z" fill="url(#color-5)" stroke="none" stroke-width="0"/><path d="M341.36341,103.91158c0,14.09736 -12.10041,25.52553 -27.02703,25.52553c-14.92661,0 -27.02703,-11.42817 -27.02703,-25.52553c0,-14.09736 12.10041,-25.52553 27.02703,-25.52553c14.92661,0 27.02703,11.42817 27.02703,25.52553z" fill="url(#color-6)" stroke="none" stroke-width="0"/><path d="M189.71176,249.55723c0,14.09736 -12.77266,25.52553 -28.52853,25.52553c-15.75587,0 -28.52853,-11.42817 -28.52853,-25.52553c0,-14.09736 12.77266,-25.52553 28.52853,-25.52553c15.75587,0 28.52853,11.42817 28.52853,25.52553z" fill="url(#color-7)" stroke="none" stroke-width="0"/><path d="M278.30035,305.11278c0,9.95108 -6.72245,18.01802 -15.01502,18.01802c-8.29256,0 -15.01502,-8.06694 -15.01502,-18.01802c0,-9.95108 6.72245,-18.01802 15.01502,-18.01802c8.29256,0 15.01502,8.06694 15.01502,18.01802z" fill="url(#color-8)" stroke="none" stroke-width="0"/><path d="M360.88293,180.48816c0,14.92661 -7.73082,27.02703 -17.26727,27.02703c-9.53645,0 -17.26727,-12.10041 -17.26727,-27.02703c0,-14.92661 7.73082,-27.02703 17.26727,-27.02703c9.53645,0 17.26727,12.10041 17.26727,27.02703z" fill="url(#color-9)" stroke="none" stroke-width="0"/><path d="M149.17122,197.75543c0,7.87794 -8.40306,14.26426 -18.76877,14.26426c-10.3657,0 -18.76877,-6.38633 -18.76877,-14.26426c0,-7.87794 8.40306,-14.26426 18.76877,-14.26426c10.3657,0 18.76877,6.38633 18.76877,14.26426z" fill="url(#color-10)" stroke="none" stroke-width="0"/><path d="M308.33038,271.329c0,4.56091 -3.36123,8.25826 -7.50751,8.25826c-4.14628,0 -7.50751,-3.69735 -7.50751,-8.25826c0,-4.56091 3.36123,-8.25826 7.50751,-8.25826c4.14628,0 7.50751,3.69735 7.50751,8.25826z" fill="url(#color-11)" stroke="none" stroke-width="0"/><path d="M275.29735,75.38305c0,7.46331 -9.41143,13.51351 -21.02102,13.51351c-11.60959,0 -21.02102,-6.05021 -21.02102,-13.51351c0,-7.46331 9.41143,-13.51351 21.02102,-13.51351c11.60959,0 21.02102,6.05021 21.02102,13.51351z" fill="url(#color-12)" stroke="none" stroke-width="0"/></g></g></svg>