<svg version="1.1" xmlns="http://www.w3.org/2000/svg" xmlns:xlink="http://www.w3.org/1999/xlink" width="112.9234" height="106.65522" viewBox="0,0,112.9234,106.65522"><defs><radialGradient cx="240" cy="179.99745" r="56.4617" gradientUnits="userSpaceOnUse" id="color-1"><stop offset="0" stop-color="#64dbe8"/><stop offset="1" stop-color="#64dbe8" stop-opacity="0"/></radialGradient><radialGradient cx="244.25249" cy="186.61027" r="23.48046" gradientUnits="userSpaceOnUse" id="color-2"><stop offset="0" stop-color="#bcfbff"/><stop offset="1" stop-color="#27e9ff"/></radialGradient></defs><g transform="translate(-183.53829,-126.70647)"><g data-paper-data="{&quot;isPaintingLayer&quot;:true}" fill-rule="nonzero" stroke-linejoin="miter" stroke-miterlimit="10" stroke-dasharray="" stroke-dashoffset="0" style="mix-blend-mode: normal"><path d="M284.37264,155.20568c13.43686,24.45842 5.94684,57.97974 -18.60083,71.46562c-24.54765,13.48587 -56.8571,1.82944 -70.29396,-22.62898c-13.43686,-24.45842 -5.37804,-56.94412 19.1696,-70.43001c24.54765,-13.48587 56.28833,-2.86503 69.72518,21.59337z" fill="none" stroke="#27e9ff" stroke-width="2" stroke-linecap="butt"/><path d="M257.79425,145.6411c-3.79671,-1.28149 -6.26226,-3.68618 -5.507,-5.37098c0.75527,-1.68478 4.4454,-2.01171 8.24209,-0.73023c3.79674,1.2814 6.26224,3.68605 5.50702,5.37087c-0.75536,1.68475 -4.44541,2.01181 -8.24213,0.73032z" data-paper-data="{&quot;index&quot;:null}" fill="none" stroke="#27e9ff" stroke-width="1.5" stroke-linecap="butt"/><path d="M228.3848,219.8055c-0.34871,1.8131 -3.74786,2.36692 -7.59237,1.2368c-3.8445,-1.13004 -6.67846,-3.51591 -6.32984,-5.32903c0.34864,-1.81309 3.74787,-2.36693 7.59239,-1.2369c3.8445,1.13004 6.67836,3.51598 6.32981,5.32914z" data-paper-data="{&quot;index&quot;:null}" fill="none" stroke="#27e9ff" stroke-width="1.5" stroke-linecap="butt"/><path d="M195.02644,181.50818c-1.80724,-0.37786 -2.30628,-3.78551 -1.11442,-7.61129c1.19178,-3.82583 3.62296,-6.62101 5.43025,-6.24322c1.80728,0.37779 2.30628,3.7855 1.1145,7.61131c-1.19178,3.82583 -3.62302,6.62089 -5.43033,6.2432z" data-paper-data="{&quot;index&quot;:null}" fill="none" stroke="#27e9ff" stroke-width="1.5" stroke-linecap="butt"/><path d="M279.90521,182.10733c1.25648,-3.80506 3.6449,-6.28639 5.33461,-5.54219c1.68972,0.74418 2.04088,4.43207 0.78441,8.23713c-1.25638,3.80508 -3.64479,6.28634 -5.33453,5.54223c-1.6897,-0.74428 -2.04099,-4.43209 -0.7845,-8.23717z" data-paper-data="{&quot;index&quot;:null}" fill="none" stroke="#27e9ff" stroke-width="1.5" stroke-linecap="butt"/><path d="M251.13562,148.12358c18.98677,5.99209 29.77197,25.44632 24.08942,43.45223c-5.68254,18.0059 -25.68097,27.74503 -44.66773,21.75291c-18.98676,-5.99208 -29.77197,-25.44632 -24.08942,-43.45223c5.68256,-18.00591 25.68098,-27.74501 44.66772,-21.75293z" fill="none" stroke="#27e9ff" stroke-width="1.5" stroke-linecap="butt"/><path d="M212.27891,195.2637l31.62723,-46.52599c0,0 6.85193,16.2142 11.03551,24.01793c4.24685,7.92176 14.25861,23.16388 14.25861,23.16388z" fill="none" stroke="#27e9ff" stroke-width="1.5" stroke-linecap="round"/><path d="M242.07135,216.47887l0.41309,14.92746" fill="none" stroke="#27e9ff" stroke-width="2" stroke-linecap="round"/><path d="M210.37737,159.17112l-11.4962,-9.04916" fill="none" stroke="#27e9ff" stroke-width="2" stroke-linecap="round"/><path d="M238.25028,145.54224l-0.47697,-16.5762" fill="none" stroke="#27e9ff" stroke-width="2" stroke-linecap="round"/><path d="M272.15985,200.36992l11.48924,6.73772" fill="none" stroke="#27e9ff" stroke-width="2" stroke-linecap="round"/><path d="M197.7574,204.43855l11.09414,-6.3022" fill="none" stroke="#27e9ff" stroke-width="2" stroke-linecap="round"/><path d="M271.79363,162.56226l10.90481,-5.66139" fill="none" stroke="#27e9ff" stroke-width="2" stroke-linecap="round"/><path d="M266.47321,214.73581c1.13745,1.45436 -0.67893,4.3804 -4.05725,6.53549c-3.37825,2.15513 -7.03898,2.72329 -8.1765,1.26899c-1.13749,-1.45429 0.67893,-4.38041 4.05719,-6.53556c3.37825,-2.15513 7.03896,-2.72317 8.17656,-1.26889z" data-paper-data="{&quot;index&quot;:null}" fill="none" stroke="#27e9ff" stroke-width="1.5" stroke-linecap="butt"/><path d="M225.47696,140.83462c0.60242,1.74532 -1.86403,4.50939 -5.50917,6.17375c-3.64516,1.66437 -7.08859,1.59869 -7.69107,-0.14656c-0.60249,-1.74528 1.86407,-4.50929 5.50921,-6.17365c3.64514,-1.66445 7.08848,-1.59878 7.69106,0.14646z" data-paper-data="{&quot;index&quot;:null}" fill="none" stroke="#27e9ff" stroke-width="1.5" stroke-linecap="butt"/><path d="M296.4617,179.99745c0,26.74687 -25.27877,48.4295 -56.4617,48.4295c-31.18294,0 -56.4617,-21.68263 -56.4617,-48.4295c0,-26.74687 25.27877,-48.4295 56.4617,-48.4295c31.18294,0 56.4617,21.68263 56.4617,48.4295z" fill="url(#color-1)" stroke="none" stroke-width="0" stroke-linecap="butt"/><path d="M239.19253,129.28729c27.90608,-0.11925 53.77609,22.47548 53.89578,50.48338c0.11968,28.00788 -25.55625,50.82278 -53.46233,50.94203c-27.90608,0.11925 -52.59457,-22.4804 -52.71427,-50.48828c-0.11968,-28.00788 24.37476,-50.81786 52.28083,-50.93711z" fill="none" stroke="#27e9ff" stroke-width="2" stroke-linecap="butt"/><path d="M218.09227,148.06686c-2.93966,2.72317 -6.23009,3.7403 -7.34935,2.2719c-1.11924,-1.46841 0.35651,-4.86636 3.29615,-7.58951c2.93959,-2.72323 6.22996,-3.74035 7.34926,-2.27198c1.11918,1.46847 -0.35643,4.86642 -3.29608,7.58959z" data-paper-data="{&quot;index&quot;:null}" fill="none" stroke="#27e9ff" stroke-width="1.5" stroke-linecap="butt"/><path d="M269.19511,209.33492c1.42621,1.17254 0.28879,4.42328 -2.54072,7.26075c-2.82944,2.8375 -6.27934,4.18729 -7.70561,3.01481c-1.42624,-1.17248 -0.28879,-4.42329 2.54064,-7.26081c2.82944,-2.8375 6.27936,-4.18716 7.70569,-3.01473z" data-paper-data="{&quot;index&quot;:null}" fill="none" stroke="#27e9ff" stroke-width="1.5" stroke-linecap="butt"/><path d="M219.61413,220.34362c-1.19536,1.40714 -4.42737,0.21753 -7.2189,-2.65727c-2.79161,-2.87476 -4.08566,-6.34593 -2.89036,-7.75315c1.19531,-1.4072 4.42737,-0.21755 7.21896,2.65721c2.79161,2.87476 4.08553,6.34593 2.89029,7.75321z" data-paper-data="{&quot;index&quot;:null}" fill="none" stroke="#27e9ff" stroke-width="1.5" stroke-linecap="butt"/><path d="M260.69121,146.06416c-2.74245,-2.92168 -3.78122,-6.20535 -2.32019,-7.33421c1.46102,-1.12888 4.86859,0.32451 7.61104,3.24617c2.74251,2.9216 3.78124,6.20524 2.32027,7.33416c-1.4611,1.12882 -4.86865,-0.32443 -7.61112,-3.24612z" data-paper-data="{&quot;index&quot;:null}" fill="none" stroke="#27e9ff" stroke-width="1.5" stroke-linecap="butt"/><path d="M217.09197,155.10245c14.33494,-13.81709 36.57803,-13.99763 49.68132,-0.40322c13.10329,13.59439 12.10486,35.81579 -2.2301,49.63287c-14.33492,13.81709 -36.57803,13.99763 -49.68132,0.40322c-13.10329,-13.5944 -12.10484,-35.81579 2.23008,-49.63287z" fill="none" stroke="#27e9ff" stroke-width="1.5" stroke-linecap="butt"/><path d="M239.94066,211.75906l-25.76305,-50.01214c0,0 17.51762,1.72692 26.37187,1.77988c8.98817,0.05377 27.16142,-1.45962 27.16142,-1.45962z" fill="none" stroke="#27e9ff" stroke-width="1.5" stroke-linecap="round"/><path d="M286.12248,202.49071l-13.31107,-6.76867" fill="none" stroke="#27e9ff" stroke-width="2" stroke-linecap="round"/><path d="M193.88304,201.96252l13.44195,-5.77615" fill="none" stroke="#27e9ff" stroke-width="2" stroke-linecap="round"/><path d="M208.66832,165.18894l-14.79,-7.50024" fill="none" stroke="#27e9ff" stroke-width="2" stroke-linecap="round"/><path d="M284.44254,154.71905l-11.40804,6.87431" fill="none" stroke="#27e9ff" stroke-width="2" stroke-linecap="round"/><path d="M230.01145,164.62598c-0.19422,-0.10349 -0.38247,-0.3041 -0.38247,-0.69295c0,-0.80323 0.80323,-0.80323 0.80323,-0.80323l1.06795,0.08481c1.03214,0.52842 2.07654,0.61809 3.19529,0.89912c2.66577,1.07174 5.19525,1.32053 7.86483,2.38822c5.02329,2.00905 8.97845,5.65745 13.42277,8.62199c0.58376,0.58162 2.83255,2.02418 2.89233,2.76963c0.05266,0.65658 -3.31787,3.00099 -3.8373,3.43379c-3.06899,2.55713 -7.02187,6.15625 -9.30319,9.29241c-2.37179,3.56056 -3.0732,8.00441 -4.37553,12.28963c-0.91652,3.01576 1.2773,4.88454 -1.79288,7.18132c-2.98779,-3.03399 -4.08441,-7.89289 -5.76522,-11.60218c-0.65696,-1.44982 -2.32785,-2.99645 -2.5041,-4.63718c-0.16134,-1.50192 1.46044,-3.08463 3.06244,-3.48512c2.10733,-1.38415 2.76417,-4.60895 4.21137,-6.41178c1.24943,-1.55646 2.84182,-3.09491 4.271,-4.509c0.56042,-0.5545 1.55092,-1.42654 2.46348,-1.71894c-2.61281,-2.06691 -5.24198,-4.66396 -7.97204,-6.25921c-2.85848,-1.67031 -5.82161,-2.91699 -7.38339,-5.99386c0,0 -0.23829,-0.47656 0.06143,-0.84748z" fill="url(#color-2)" stroke="none" stroke-width="0.5" stroke-linecap="butt"/><path d="M233.40521,181.5034c-0.73539,-0.18757 -1.40437,-0.41612 -2.00004,-0.70384c-0.01791,0.00112 -0.028,0.00112 -0.028,0.00112c-4.14647,-0.14256 -5.78543,-4.75339 -6.2877,-8.62878c-0.21197,-0.74699 -0.28463,-1.52476 -0.17951,-2.32738c-0.00394,-0.164 -0.00583,-0.32353 -0.00583,-0.47792v-0.1134l-0.22065,-0.04413l0.23332,-1.16662c0.06742,-0.37542 0.39572,-0.66029 0.79056,-0.66029c0.44361,0 0.80323,0.35962 0.80323,0.80323v1.1812c0,0.70188 0.05435,1.73505 0.20953,2.87119c0.08307,0.2347 0.19388,0.46204 0.34759,0.67526c1.45782,2.0223 3.08297,3.47411 5.23013,4.76417l0.02453,0.03626l0.00921,-0.01227l0.93749,0.70312c0.19935,0.14616 0.32878,0.38207 0.32878,0.64819c0,0.0508 -0.00472,0.10048 -0.01374,0.14868c0.10281,0.09155 0.20462,0.18513 0.30557,0.28118l0.0956,-0.12747l0.93749,0.70312c0.19935,0.14616 0.32878,0.38207 0.32878,0.64819c0,0.44361 -0.35962,0.80323 -0.80323,0.80323h-0.94497v-0.03555z" fill="#27e9ff" stroke="none" stroke-width="0.5" stroke-linecap="butt"/><path d="M240.82685,216.14241l0.23625,12.75703" fill="none" stroke="#27e9ff" stroke-width="2" stroke-linecap="round"/><path d="M239.64565,143.85252l0.23625,-12.28456" fill="none" stroke="#27e9ff" stroke-width="2" stroke-linecap="round"/><path d="M282.93809,173.45235c1.82106,-0.30443 3.5238,2.68916 3.80305,6.6866c0.27932,3.99739 -0.97047,7.48477 -2.79151,7.78929c-1.82103,0.30449 -3.52382,-2.68918 -3.80315,-6.68658c-0.27932,-3.99739 0.97056,-7.48469 2.79162,-7.78929z" data-paper-data="{&quot;index&quot;:null}" fill="none" stroke="#27e9ff" stroke-width="1.5" stroke-linecap="butt"/><path d="M198.43024,174.1612c1.82106,0.3046 3.07095,3.7919 2.79162,7.78929c-0.27933,3.9974 -1.98212,6.99107 -3.80315,6.68656c-1.82106,-0.30452 -3.07084,-3.79189 -2.79151,-7.78928c0.27925,-3.99744 1.98199,-6.99102 3.80305,-6.6866z" data-paper-data="{&quot;index&quot;:null}" fill="none" stroke="#27e9ff" stroke-width="1.5" stroke-linecap="butt"/></g></g></svg>