<svg version="1.1" xmlns="http://www.w3.org/2000/svg" xmlns:xlink="http://www.w3.org/1999/xlink" width="683.02853" height="382.65131" viewBox="0,0,683.02853,382.65131"><defs><radialGradient cx="179.99454" cy="37.21007" r="30.7135" gradientUnits="userSpaceOnUse" id="color-1"><stop offset="0" stop-color="#fffb79"/><stop offset="1" stop-color="#fffb79" stop-opacity="0"/></radialGradient><radialGradient cx="181.50755" cy="40.01628" r="30.7135" gradientUnits="userSpaceOnUse" id="color-2"><stop offset="0" stop-color="#fffb79"/><stop offset="1" stop-color="#fffb79" stop-opacity="0"/></radialGradient><radialGradient cx="181.08076" cy="42.17589" r="30.7135" gradientUnits="userSpaceOnUse" id="color-3"><stop offset="0" stop-color="#fffb79"/><stop offset="1" stop-color="#fffb79" stop-opacity="0"/></radialGradient><radialGradient cx="181.30057" cy="43.0423" r="30.7135" gradientUnits="userSpaceOnUse" id="color-4"><stop offset="0" stop-color="#fffb79"/><stop offset="1" stop-color="#fffb79" stop-opacity="0"/></radialGradient><radialGradient cx="181.52038" cy="42.6155" r="30.7135" gradientUnits="userSpaceOnUse" id="color-5"><stop offset="0" stop-color="#fffb79"/><stop offset="1" stop-color="#fffb79" stop-opacity="0"/></radialGradient><radialGradient cx="180.44698" cy="40.8955" r="30.71351" gradientUnits="userSpaceOnUse" id="color-6"><stop offset="0" stop-color="#fffb79"/><stop offset="1" stop-color="#fffb79" stop-opacity="0"/></radialGradient><radialGradient cx="180.66679" cy="43.05511" r="30.71351" gradientUnits="userSpaceOnUse" id="color-7"><stop offset="0" stop-color="#fffb79"/><stop offset="1" stop-color="#fffb79" stop-opacity="0"/></radialGradient><radialGradient cx="244.78938" cy="202.21259" r="33.38523" gradientUnits="userSpaceOnUse" id="color-8"><stop offset="0" stop-color="#352d1e"/><stop offset="1" stop-color="#352d1e" stop-opacity="0"/></radialGradient><linearGradient x1="394.98483" y1="171.15668" x2="394.98483" y2="241.47068" gradientUnits="userSpaceOnUse" id="color-9"><stop offset="0" stop-color="#7e671c"/><stop offset="1" stop-color="#bd9c2a"/></linearGradient><radialGradient cx="308.55791" cy="172.33381" r="30.8353" gradientUnits="userSpaceOnUse" id="color-10"><stop offset="0" stop-color="#e4e4e4"/><stop offset="1" stop-color="#e4e4e4" stop-opacity="0"/></radialGradient><radialGradient cx="436.06553" cy="205.90068" r="6.5864" gradientUnits="userSpaceOnUse" id="color-11"><stop offset="0" stop-color="#f1ddb3"/><stop offset="1" stop-color="#c9c4b4"/></radialGradient><radialGradient cx="438.06262" cy="202.82368" r="6.6593" gradientUnits="userSpaceOnUse" id="color-12"><stop offset="0" stop-color="#f1ddb3"/><stop offset="1" stop-color="#c9c4b4"/></radialGradient><radialGradient cx="448.93562" cy="208.20968" r="6.6304" gradientUnits="userSpaceOnUse" id="color-13"><stop offset="0" stop-color="#f1ddb3"/><stop offset="1" stop-color="#c9c4b4"/></radialGradient><radialGradient cx="449.02151" cy="205.46398" r="6.6006" gradientUnits="userSpaceOnUse" id="color-14"><stop offset="0" stop-color="#f1ddb3"/><stop offset="1" stop-color="#c9c4b4"/></radialGradient><radialGradient cx="446.10313" cy="194.98538" r="4.1056" gradientUnits="userSpaceOnUse" id="color-15"><stop offset="0" stop-color="#b0a283"/><stop offset="1" stop-color="#9e9b8e"/></radialGradient><radialGradient cx="445.05292" cy="186.79668" r="7.9885" gradientUnits="userSpaceOnUse" id="color-16"><stop offset="0" stop-color="#b0a283"/><stop offset="1" stop-color="#9e9b8e"/></radialGradient><radialGradient cx="445.59673" cy="180.32088" r="9.2581" gradientUnits="userSpaceOnUse" id="color-17"><stop offset="0" stop-color="#f1ddb3"/><stop offset="1" stop-color="#c9c4b4"/></radialGradient><radialGradient cx="445.76442" cy="183.51308" r="7.6801" gradientUnits="userSpaceOnUse" id="color-18"><stop offset="0" stop-color="#f1ddb3"/><stop offset="1" stop-color="#c9c4b4"/></radialGradient><radialGradient cx="445.62233" cy="186.56648" r="6.8429" gradientUnits="userSpaceOnUse" id="color-19"><stop offset="0" stop-color="#f1ddb3"/><stop offset="1" stop-color="#c9c4b4"/></radialGradient><radialGradient cx="444.63643" cy="180.45968" r="9.2581" gradientUnits="userSpaceOnUse" id="color-20"><stop offset="0" stop-color="#f1ddb3"/><stop offset="1" stop-color="#c9c4b4"/></radialGradient><radialGradient cx="444.97793" cy="183.65178" r="7.6801" gradientUnits="userSpaceOnUse" id="color-21"><stop offset="0" stop-color="#f1ddb3"/><stop offset="1" stop-color="#c9c4b4"/></radialGradient><radialGradient cx="444.92911" cy="186.70528" r="6.8429" gradientUnits="userSpaceOnUse" id="color-22"><stop offset="0" stop-color="#f1ddb3"/><stop offset="1" stop-color="#c9c4b4"/></radialGradient><radialGradient cx="445.02103" cy="183.39628" r="4.1693" gradientUnits="userSpaceOnUse" id="color-23"><stop offset="0" stop-color="#f1ddb3"/><stop offset="1" stop-color="#c9c4b4"/></radialGradient><radialGradient cx="444.70282" cy="176.37578" r="8.9274" gradientUnits="userSpaceOnUse" id="color-24"><stop offset="0" stop-color="#f1ddb3"/><stop offset="1" stop-color="#c9c4b4"/></radialGradient><radialGradient cx="466.09863" cy="177.06318" r="6.3182" gradientUnits="userSpaceOnUse" id="color-25"><stop offset="0" stop-color="#f1ddb3"/><stop offset="1" stop-color="#c9c4b4"/></radialGradient><radialGradient cx="432.85333" cy="186.89048" r="6.6347" gradientUnits="userSpaceOnUse" id="color-26"><stop offset="0" stop-color="#f1ddb3"/><stop offset="1" stop-color="#c9c4b4"/></radialGradient><radialGradient cx="463.69791" cy="176.67368" r="6.3182" gradientUnits="userSpaceOnUse" id="color-27"><stop offset="0" stop-color="#f1ddb3"/><stop offset="1" stop-color="#c9c4b4"/></radialGradient><radialGradient cx="446.44133" cy="165.86218" r="12.9044" gradientUnits="userSpaceOnUse" id="color-28"><stop offset="0" stop-color="#f1ddb3"/><stop offset="1" stop-color="#c9c4b4"/></radialGradient><radialGradient cx="449.72117" cy="167.83939" r="1.65446" gradientUnits="userSpaceOnUse" id="color-29"><stop offset="0" stop-color="#ffffff"/><stop offset="1" stop-color="#ffffff" stop-opacity="0"/></radialGradient><radialGradient cx="439.23674" cy="166.05026" r="1.65446" gradientUnits="userSpaceOnUse" id="color-30"><stop offset="0" stop-color="#ffffff"/><stop offset="1" stop-color="#ffffff" stop-opacity="0"/></radialGradient><radialGradient cx="446.32593" cy="195.85278" r="6.0812" gradientUnits="userSpaceOnUse" id="color-31"><stop offset="0" stop-color="#f1ddb3"/><stop offset="1" stop-color="#c9c4b4"/></radialGradient><radialGradient cx="432.80573" cy="189.63738" r="6.6347" gradientUnits="userSpaceOnUse" id="color-32"><stop offset="0" stop-color="#f1ddb3"/><stop offset="1" stop-color="#c9c4b4"/></radialGradient><radialGradient cx="394.31091" cy="220.74858" r="7.3717" gradientUnits="userSpaceOnUse" id="color-33"><stop offset="0" stop-color="#f1ddb3"/><stop offset="1" stop-color="#c9c4b4"/></radialGradient><radialGradient cx="396.28663" cy="217.14408" r="7.4373" gradientUnits="userSpaceOnUse" id="color-34"><stop offset="0" stop-color="#f1ddb3"/><stop offset="1" stop-color="#c9c4b4"/></radialGradient><radialGradient cx="409.81503" cy="222.50198" r="7.1211" gradientUnits="userSpaceOnUse" id="color-35"><stop offset="0" stop-color="#f1ddb3"/><stop offset="1" stop-color="#c9c4b4"/></radialGradient><radialGradient cx="408.66633" cy="219.05068" r="7.3156" gradientUnits="userSpaceOnUse" id="color-36"><stop offset="0" stop-color="#f1ddb3"/><stop offset="1" stop-color="#c9c4b4"/></radialGradient><radialGradient cx="404.59963" cy="207.68568" r="4.5761" gradientUnits="userSpaceOnUse" id="color-37"><stop offset="0" stop-color="#b0a283"/><stop offset="1" stop-color="#9e9b8e"/></radialGradient><radialGradient cx="402.78823" cy="198.68908" r="8.904" gradientUnits="userSpaceOnUse" id="color-38"><stop offset="0" stop-color="#b0a283"/><stop offset="1" stop-color="#9e9b8e"/></radialGradient><radialGradient cx="402.88233" cy="191.44568" r="10.3492" gradientUnits="userSpaceOnUse" id="color-39"><stop offset="0" stop-color="#f1ddb3"/><stop offset="1" stop-color="#c9c4b4"/></radialGradient><radialGradient cx="403.31993" cy="194.97548" r="8.5898" gradientUnits="userSpaceOnUse" id="color-40"><stop offset="0" stop-color="#f1ddb3"/><stop offset="1" stop-color="#c9c4b4"/></radialGradient><radialGradient cx="403.40252" cy="198.38008" r="7.6563" gradientUnits="userSpaceOnUse" id="color-41"><stop offset="0" stop-color="#f1ddb3"/><stop offset="1" stop-color="#c9c4b4"/></radialGradient><radialGradient cx="401.82663" cy="191.68978" r="10.2878" gradientUnits="userSpaceOnUse" id="color-42"><stop offset="0" stop-color="#f1ddb3"/><stop offset="1" stop-color="#c9c4b4"/></radialGradient><radialGradient cx="402.45732" cy="195.20318" r="8.5292" gradientUnits="userSpaceOnUse" id="color-43"><stop offset="0" stop-color="#f1ddb3"/><stop offset="1" stop-color="#c9c4b4"/></radialGradient><radialGradient cx="402.64363" cy="198.59908" r="7.5964" gradientUnits="userSpaceOnUse" id="color-44"><stop offset="0" stop-color="#f1ddb3"/><stop offset="1" stop-color="#c9c4b4"/></radialGradient><radialGradient cx="402.48513" cy="194.91538" r="4.6471" gradientUnits="userSpaceOnUse" id="color-45"><stop offset="0" stop-color="#f1ddb3"/><stop offset="1" stop-color="#c9c4b4"/></radialGradient><radialGradient cx="401.57863" cy="187.14778" r="9.9505" gradientUnits="userSpaceOnUse" id="color-46"><stop offset="0" stop-color="#f1ddb3"/><stop offset="1" stop-color="#c9c4b4"/></radialGradient><radialGradient cx="425.39633" cy="185.90828" r="6.9948" gradientUnits="userSpaceOnUse" id="color-47"><stop offset="0" stop-color="#f1ddb3"/><stop offset="1" stop-color="#c9c4b4"/></radialGradient><radialGradient cx="385.30693" cy="197.65398" r="7.4326" gradientUnits="userSpaceOnUse" id="color-48"><stop offset="0" stop-color="#f1ddb3"/><stop offset="1" stop-color="#c9c4b4"/></radialGradient><radialGradient cx="422.69933" cy="185.70048" r="6.9949" gradientUnits="userSpaceOnUse" id="color-49"><stop offset="0" stop-color="#f1ddb3"/><stop offset="1" stop-color="#c9c4b4"/></radialGradient><radialGradient cx="406.12999" cy="176.81524" r="1.84402" gradientUnits="userSpaceOnUse" id="color-50"><stop offset="0" stop-color="#ffffff"/><stop offset="1" stop-color="#ffffff" stop-opacity="0"/></radialGradient><radialGradient cx="393.64423" cy="174.66459" r="1.84402" gradientUnits="userSpaceOnUse" id="color-51"><stop offset="0" stop-color="#ffffff"/><stop offset="1" stop-color="#ffffff" stop-opacity="0"/></radialGradient><radialGradient cx="404.91543" cy="208.62828" r="6.7781" gradientUnits="userSpaceOnUse" id="color-52"><stop offset="0" stop-color="#f1ddb3"/><stop offset="1" stop-color="#c9c4b4"/></radialGradient><radialGradient cx="382.91193" cy="198.51108" r="6.8686" gradientUnits="userSpaceOnUse" id="color-53"><stop offset="0" stop-color="#f1ddb3"/><stop offset="1" stop-color="#c9c4b4"/></radialGradient><radialGradient cx="236.66014" cy="155.65741" r="4.905" gradientUnits="userSpaceOnUse" id="color-54"><stop offset="0" stop-color="#9e9e9e"/><stop offset="1" stop-color="#757575"/></radialGradient><linearGradient x1="232.26205" y1="166.21899" x2="226.1033" y2="181.37189" gradientUnits="userSpaceOnUse" id="color-55"><stop offset="0" stop-color="#828282"/><stop offset="1" stop-color="#5e1300"/></linearGradient><linearGradient x1="250.26358" y1="186.48924" x2="250.26358" y2="204.72587" gradientUnits="userSpaceOnUse" id="color-56"><stop offset="0" stop-color="#a4a4a4"/><stop offset="1" stop-color="#404040"/></linearGradient><linearGradient x1="256.70581" y1="195.39724" x2="256.70581" y2="199.68575" gradientUnits="userSpaceOnUse" id="color-57"><stop offset="0" stop-color="#a4a4a4"/><stop offset="1" stop-color="#404040"/></linearGradient><linearGradient x1="242.81153" y1="195.05857" x2="242.81153" y2="199.51866" gradientUnits="userSpaceOnUse" id="color-58"><stop offset="0" stop-color="#a4a4a4"/><stop offset="1" stop-color="#404040"/></linearGradient><radialGradient cx="252.70535" cy="179.6852" r="4.33496" gradientUnits="userSpaceOnUse" id="color-59"><stop offset="0" stop-color="#ff8800"/><stop offset="1" stop-color="#f6bd00"/></radialGradient><linearGradient x1="267.21187" y1="170.48041" x2="264.36895" y2="183.18467" gradientUnits="userSpaceOnUse" id="color-60"><stop offset="0" stop-color="#a4a4a4"/><stop offset="1" stop-color="#404040"/></linearGradient><radialGradient cx="261.55037" cy="179.69598" r="0.56042" gradientUnits="userSpaceOnUse" id="color-61"><stop offset="0" stop-color="#a2a2a2"/><stop offset="1" stop-color="#575757"/></radialGradient><radialGradient cx="259.73816" cy="178.1697" r="0.56042" gradientUnits="userSpaceOnUse" id="color-62"><stop offset="0" stop-color="#a2a2a2"/><stop offset="1" stop-color="#575757"/></radialGradient><radialGradient cx="263.87967" cy="189.21207" r="4.70394" gradientUnits="userSpaceOnUse" id="color-63"><stop offset="0" stop-color="#a4a4a4"/><stop offset="1" stop-color="#404040"/></radialGradient><radialGradient cx="259.27547" cy="176.05706" r="0.56041" gradientUnits="userSpaceOnUse" id="color-64"><stop offset="0" stop-color="#a2a2a2"/><stop offset="1" stop-color="#575757"/></radialGradient><linearGradient x1="240.99928" y1="167.49185" x2="240.99928" y2="180.51032" gradientUnits="userSpaceOnUse" id="color-65"><stop offset="0" stop-color="#a4a4a4"/><stop offset="1" stop-color="#404040"/></linearGradient><linearGradient x1="257.28817" y1="148.84904" x2="257.28817" y2="175.10779" gradientUnits="userSpaceOnUse" id="color-66"><stop offset="0" stop-color="#515151"/><stop offset="1" stop-color="#b8b8b8"/></linearGradient><linearGradient x1="257.57" y1="145.95428" x2="257.57" y2="149.54208" gradientUnits="userSpaceOnUse" id="color-67"><stop offset="0" stop-color="#a4a4a4"/><stop offset="1" stop-color="#404040"/></linearGradient><linearGradient x1="240.70787" y1="200.55119" x2="240.70787" y2="205.48528" gradientUnits="userSpaceOnUse" id="color-68"><stop offset="0" stop-color="#a4a4a4"/><stop offset="1" stop-color="#404040"/></linearGradient><linearGradient x1="260.099" y1="200.6421" x2="260.099" y2="205.57877" gradientUnits="userSpaceOnUse" id="color-69"><stop offset="0" stop-color="#a4a4a4"/><stop offset="1" stop-color="#404040"/></linearGradient><radialGradient cx="230.29382" cy="170.63787" r="6.89963" gradientUnits="userSpaceOnUse" id="color-70"><stop offset="0" stop-color="#9e9e9e"/><stop offset="1" stop-color="#757575"/></radialGradient><linearGradient x1="245.95011" y1="201.57257" x2="245.95011" y2="204.79529" gradientUnits="userSpaceOnUse" id="color-71"><stop offset="0" stop-color="#a4a4a4"/><stop offset="1" stop-color="#404040"/></linearGradient><linearGradient x1="255.58842" y1="201.87057" x2="255.58842" y2="205.0932" gradientUnits="userSpaceOnUse" id="color-72"><stop offset="0" stop-color="#a4a4a4"/><stop offset="1" stop-color="#404040"/></linearGradient><radialGradient cx="244.76417" cy="178.11942" r="0.56042" gradientUnits="userSpaceOnUse" id="color-73"><stop offset="0" stop-color="#a2a2a2"/><stop offset="1" stop-color="#575757"/></radialGradient><radialGradient cx="246.86593" cy="177.02572" r="0.56042" gradientUnits="userSpaceOnUse" id="color-74"><stop offset="0" stop-color="#a2a2a2"/><stop offset="1" stop-color="#575757"/></radialGradient><radialGradient cx="248.29889" cy="175.41182" r="0.56041" gradientUnits="userSpaceOnUse" id="color-75"><stop offset="0" stop-color="#a2a2a2"/><stop offset="1" stop-color="#575757"/></radialGradient><radialGradient cx="238.27697" cy="178.80267" r="2.47228" gradientUnits="userSpaceOnUse" id="color-76"><stop offset="0" stop-color="#a2a2a2"/><stop offset="1" stop-color="#575757"/></radialGradient><radialGradient cx="226.01363" cy="181.43659" r="1.64487" gradientUnits="userSpaceOnUse" id="color-77"><stop offset="0" stop-color="#9e9e9e"/><stop offset="1" stop-color="#757575"/></radialGradient><radialGradient cx="238.40837" cy="179.24855" r="1.44911" gradientUnits="userSpaceOnUse" id="color-78"><stop offset="0" stop-color="#a2a2a2"/><stop offset="1" stop-color="#575757"/></radialGradient><radialGradient cx="224.61428" cy="184.09152" r="2.51264" gradientUnits="userSpaceOnUse" id="color-79"><stop offset="0" stop-color="#9e9e9e"/><stop offset="1" stop-color="#757575"/></radialGradient><radialGradient cx="224.61154" cy="184.17283" r="1.52743" gradientUnits="userSpaceOnUse" id="color-80"><stop offset="0" stop-color="#9e9e9e"/><stop offset="1" stop-color="#757575"/></radialGradient><radialGradient cx="227.50399" cy="174.1382" r="4.70394" gradientUnits="userSpaceOnUse" id="color-81"><stop offset="0" stop-color="#a4a4a4"/><stop offset="1" stop-color="#404040"/></radialGradient><radialGradient cx="271.10168" cy="180.3259" r="2.47228" gradientUnits="userSpaceOnUse" id="color-82"><stop offset="0" stop-color="#a2a2a2"/><stop offset="1" stop-color="#575757"/></radialGradient><radialGradient cx="271.78391" cy="180.27615" r="1.44911" gradientUnits="userSpaceOnUse" id="color-83"><stop offset="0" stop-color="#a2a2a2"/><stop offset="1" stop-color="#575757"/></radialGradient><radialGradient cx="249.30903" cy="189.29722" r="1.42877" gradientUnits="userSpaceOnUse" id="color-84"><stop offset="0" stop-color="#919191"/><stop offset="1" stop-color="#c1c0b9"/></radialGradient><radialGradient cx="250.67325" cy="189.3526" r="0.84321" gradientUnits="userSpaceOnUse" id="color-85"><stop offset="0" stop-color="#919191"/><stop offset="1" stop-color="#c1c0b9"/></radialGradient><linearGradient x1="257.6237" y1="162.47714" x2="256.78774" y2="173.60675" gradientUnits="userSpaceOnUse" id="color-86"><stop offset="0" stop-color="#c0c0c0"/><stop offset="1" stop-color="#585858"/></linearGradient><linearGradient x1="213.33891" y1="-34.83832" x2="213.33891" y2="347.81299" gradientUnits="userSpaceOnUse" id="color-87"><stop offset="0" stop-color="#23d2f5"/><stop offset="1" stop-color="#8feeff"/></linearGradient></defs><g transform="translate(117.45747,34.83832)"><g data-paper-data="{&quot;isPaintingLayer&quot;:true}" fill-rule="nonzero" stroke-linejoin="miter" stroke-miterlimit="10" stroke-dasharray="" stroke-dashoffset="0" style="mix-blend-mode: normal"><path d="M114.36376,249.34373l21.64312,-79.64901l60.25948,-19.9547c0,0 78.996,-1.14176 81.2201,-1.38039c5.54371,-0.59481 -7.95707,-0.45159 20.12878,-11.92857c5.28873,-2.16118 29.12842,-27.00051 34.51738,-29.05509c11.38664,-4.34122 27.67685,-20.89315 36.75534,-24.76994c14.7844,-6.31339 27.37926,21.53979 44.14298,29.89712c10.29772,5.13379 31.68033,2.81967 38.0709,8.17798c4.01269,3.36451 18.05082,19.21996 26.5572,26.86101c22.23707,19.97492 22.07937,26.48891 29.33512,30.62015c14.45161,8.22837 45.88111,11.16631 45.88111,11.16631l12.69579,9.43772l-51.20993,120.23833z" data-paper-data="{&quot;index&quot;:null}" fill="#456447" stroke="none" stroke-width="0" stroke-linecap="butt"/><path d="M179.99456,65.98377c-16.9626,0 -30.71349,-12.88242 -30.71349,-28.7737c0,-15.89128 13.75091,-28.7737 30.7135,-28.7737c16.9626,0 30.7135,12.88242 30.7135,28.7737c0,15.89128 -13.7509,28.7737 -30.7135,28.7737z" fill="url(#color-1)" stroke="none" stroke-width="0" stroke-linecap="butt"/><path d="M212.22106,40.01628c0,15.89128 -13.75091,28.7737 -30.71351,28.7737c-16.96261,0 -30.71351,-12.88242 -30.71351,-28.7737c0,-15.89128 13.75091,-28.7737 30.7135,-28.7737c16.9626,0 30.7135,12.88243 30.7135,28.7737z" fill="url(#color-2)" stroke="none" stroke-width="0" stroke-linecap="butt"/><path d="M211.79428,42.17589c0,15.89128 -13.75091,28.7737 -30.71351,28.7737c-16.96261,0 -30.71351,-12.88242 -30.71351,-28.7737c0,-15.89127 13.75091,-28.7737 30.7135,-28.7737c16.9626,0 30.7135,12.88243 30.7135,28.7737z" fill="url(#color-3)" stroke="none" stroke-width="0" stroke-linecap="butt"/><path d="M212.01407,43.0423c0,15.89128 -13.75091,28.7737 -30.7135,28.7737c-16.96261,0 -30.71351,-12.88242 -30.71351,-28.7737c0,-15.89127 13.7509,-28.7737 30.7135,-28.7737c16.9626,0 30.7135,12.88242 30.7135,28.7737z" fill="url(#color-4)" stroke="none" stroke-width="0" stroke-linecap="butt"/><path d="M212.23388,42.6155c0,15.89128 -13.75091,28.7737 -30.71351,28.7737c-16.96261,0 -30.7135,-12.88242 -30.7135,-28.7737c0,-15.89127 13.7509,-28.77369 30.7135,-28.77369c16.9626,0 30.7135,12.88242 30.7135,28.7737z" fill="url(#color-5)" stroke="none" stroke-width="0" stroke-linecap="butt"/><path d="M211.16048,40.8955c0,15.89128 -13.75091,28.7737 -30.7135,28.7737c-16.96261,0 -30.71351,-12.88242 -30.71351,-28.7737c0,-15.89127 13.7509,-28.77369 30.7135,-28.77369c16.9626,0 30.7135,12.88242 30.7135,28.7737z" fill="url(#color-6)" stroke="none" stroke-width="0" stroke-linecap="butt"/><path d="M145.4262,183.98298c38.33082,-2.15835 135.90392,-29.13139 163.99311,-29.13139c23.40365,0 103.69667,-14.78133 134.16889,-12.82409c52.41543,3.36666 75.65583,36.41856 75.65583,36.41856l-22.64643,80.90913c0,0 -409.9926,-72.0601 -351.1714,-75.37222z" data-paper-data="{&quot;index&quot;:null}" fill="#00980d" stroke="none" stroke-width="0" stroke-linecap="butt"/><path d="M211.38029,43.05511c0,15.89128 -13.75091,28.7737 -30.71351,28.7737c-16.96261,0 -30.7135,-12.88242 -30.7135,-28.7737c0,-15.89127 13.7509,-28.7737 30.7135,-28.7737c16.9626,0 30.71349,12.88243 30.71349,28.7737z" fill="url(#color-7)" stroke="none" stroke-width="0" stroke-linecap="butt"/><path d="M135.88912,286.40693l-8.67516,-127.75397c0,0 12.55649,-3.46569 64.97192,-6.83235c30.47222,-1.95724 107.47788,30.08271 130.88153,30.08271c28.08919,0 125.66229,26.97304 163.99311,29.13139c58.8212,3.31212 55.92459,-17.6811 55.92459,-17.6811v93.05333z" fill="#00ca11" stroke="none" stroke-width="0" stroke-linecap="butt"/><path d="M277.86217,206.76919c-0.1484,1.07714 4.41678,3.20698 2.50872,3.54587c-3.06146,0.54375 -13.68981,-1.09308 -18.79828,-0.81863c-1.40294,0.07538 4.93332,3.44048 3.57494,3.65055c-4.12238,0.63752 -15.96211,-1.61935 -21.53575,-2.38725c-3.01386,-0.41523 -8.33264,0.46446 -11.24193,0.0716c-2.94533,-0.39772 -3.47307,-2.07106 -5.18505,-2.99738c-3.19493,-1.72872 -2.92823,-5.02728 -5.60847,-6.57555c-3.06256,-1.76914 -10.09147,-1.92089 -9.85981,-3.60237c0.13474,-0.97796 10.29805,0.69291 12.3098,0.01944c2.18904,-0.73282 -3.60762,-3.75796 0.61977,-3.48559c2.14935,0.13848 10.4435,3.88147 11.95668,3.75545c5.97746,-0.49781 1.09396,-5.41925 9.36414,-4.27983c4.40458,0.60684 9.52552,3.4508 14.22017,4.26971c5.87819,1.02537 11.16324,0.09397 14.39655,1.55206c4.89309,2.20658 3.57568,5.12503 3.27851,7.28192z" fill="url(#color-8)" stroke="none" stroke-width="0" stroke-linecap="butt"/><path d="M346.59412,198.81318c0,0 25.9069,8.4675 40.0401,12.8496c8.0496,2.4959 24.3163,2.1193 29.1736,1.9775c3.114,-0.091 9.8362,4.1177 13.4488,3.3793c11.1455,-2.278 19.5645,-11.3362 19.5645,-11.3362c0,0 28.7471,0.8233 39.075,1.2161c9.7054,0.3691 21.141,1.0739 21.141,1.0739l-14.7039,16.7938c0,0 -33.7519,13.2198 -69.542,15.3231c-5.7873,0.3401 -14.2522,0.618 -26.3259,2.273c-5.4011,0.7404 -13.4169,4.9105 -18.9753,4.0467c-11.2976,-1.7558 -20.7848,-13.7463 -31.5099,-17.1976c-4.6557,-1.4981 -9.0988,2.9617 -13.1915,0.6893c-12.4301,-6.9016 -13.9401,-17.3966 -23.8607,-24.8778c-8.2913,-6.2526 -17.3681,-13.2943 -22.2703,-20.249c-4.6181,-6.5516 -5.2652,-13.2036 -6.4823,-13.4313c-10.3711,-1.9408 47.5775,11.8718 47.5775,11.8718z" fill="url(#color-9)" stroke="#715d19" stroke-width="1" stroke-linecap="butt"/><path d="M336.28941,182.43672c0,0 -18.11529,-5.11643 -22.95522,0.82274c-4.6089,5.6557 -9.8445,22.69762 -9.8445,22.69762c0,0 0.14997,-13.32358 -2.4236,-16.5285c-4.99584,-6.22143 -22.98568,-4.98064 -22.98568,-4.98064c0,0 16.61305,-8.82938 17.51332,-13.29435c1.38238,-6.85622 -5.3355,-28.60241 -5.3355,-28.60241c0,0 14.76771,16.23223 22.77461,15.45314c3.83798,-0.37345 11.802,-18.06001 11.802,-18.06001c0,0 -5.43533,26.01966 -3.06277,29.9672c4.12069,6.8561 14.70482,12.46829 14.70482,12.46829" fill="url(#color-10)" stroke="#ff9400" stroke-width="0" stroke-linecap="round"/><path d="M321.58878,178.70928c0,0 -8.65793,-2.44532 -10.9711,0.39322c-2.20275,2.70305 -4.70503,10.84798 -4.70503,10.84798c0,0 0.07168,-6.36781 -1.15832,-7.89955c-2.38769,-2.97344 -10.98566,-2.38042 -10.98566,-2.38042c0,0 7.93996,-4.21986 8.37023,-6.35383c0.66069,-3.27683 -2.55002,-13.67009 -2.55002,-13.67009c0,0 7.05801,7.75795 10.88478,7.38559c1.8343,-0.17848 5.64059,-8.63151 5.64059,-8.63151c0,0 -2.59774,12.43571 -1.46381,14.32237c1.96942,3.27677 7.02795,5.95903 7.02795,5.95903" fill="#ffffff" stroke="#000000" stroke-width="0" stroke-linecap="round"/><path d="M438.95131,203.01598c0.2583,1.2313 -0.7145,3.9436 -0.8688,6.8271c-0.2407,4.499 1.0137,7.6332 -0.2778,7.363c-0.5728,-0.1198 -4.1639,-1.7184 -4.4401,-2.7782c-0.1798,-0.6899 2.6796,0.7548 3.4482,-0.0231c0.7123,-0.7209 -0.6707,-3.6408 -0.6063,-4.8449c0.113,-2.1115 -1.1477,-4.1223 -1.0987,-5.3738c0.0555,-1.4152 1.3758,-0.1129 2.0611,0.0305c0.4638,0.097 1.7824,-1.2006 1.7824,-1.2006z" data-paper-data="{&quot;index&quot;:null}" fill="url(#color-11)" stroke="#000000" stroke-width="1" stroke-linecap="butt"/><path d="M437.49763,206.38018c-0.524,0.4176 -0.2157,-1.9223 -0.6242,-2.1804c-0.6038,-0.3815 -2.3838,-0.3415 -1.5749,-1.4498c0.7155,-0.9803 2.8765,-1.5979 4.0608,-3.2733c2.5232,-3.5697 4.6663,-5.3512 5.8041,-4.6323c1.1378,0.7189 -1.6939,2.1894 -4.2172,5.7591c-1.6171,2.2879 -2.5132,5.0314 -3.4486,5.7767z" data-paper-data="{&quot;index&quot;:null}" fill="url(#color-12)" stroke="#000000" stroke-width="1" stroke-linecap="butt"/><path d="M449.00753,203.94198c0.9963,0.6446 2.1284,3.2824 3.9384,5.3917c2.824,3.291 5.7715,4.4603 4.7018,5.2942c-0.4745,0.37 -4.0119,2.1047 -4.9066,1.5925c-0.5824,-0.3335 2.3485,-1.5964 2.3613,-2.7397c0.0118,-1.0595 -2.8819,-1.9795 -3.6377,-2.8603c-1.3254,-1.5446 -3.5307,-1.9347 -4.3287,-2.836c-0.9022,-1.0192 0.8732,-1.1645 1.4409,-1.607c0.3841,-0.2995 0.4306,-2.2354 0.4306,-2.2354z" data-paper-data="{&quot;index&quot;:null}" fill="url(#color-13)" stroke="#000000" stroke-width="1" stroke-linecap="butt"/><path d="M450.63673,208.61478c-0.1659,0.6842 -1.2778,-1.3453 -1.7443,-1.2654c-0.6893,0.1181 -2.0491,1.3711 -2.0608,-0.0452c-0.0103,-1.2527 1.3119,-3.216 1.2643,-5.3305c-0.1015,-4.5053 0.5346,-7.3605 1.8337,-7.583c1.2991,-0.2226 -0.0515,2.8637 0.0499,7.369c0.065,2.8875 0.9534,5.634 0.6572,6.8551z" data-paper-data="{&quot;index&quot;:null}" fill="url(#color-14)" stroke="#000000" stroke-width="1" stroke-linecap="butt"/><path d="M441.99753,196.82438l-0.9548,-3.1922c0,0 3.7965,-0.7823 5.5288,-0.7236c1.6823,0.057 4.7194,1.0705 4.7194,1.0705l-1.0821,2.8453z" fill="url(#color-15)" stroke="#000000" stroke-width="1" stroke-linecap="butt"/><path d="M443.65252,195.29768c-0.2953,-1.2342 0.7002,-6.5834 0.7002,-9.3684c0,-3.0045 -0.8912,-7.8418 -0.8912,-7.8418h3.1827c0,0 0.7002,5.1764 0.7002,8.0499c0,2.9314 0.6539,6.0088 -0.7002,9.3685c-1.3541,3.3596 -2.6964,1.0259 -2.9917,-0.2082z" fill="url(#color-16)" stroke="#000000" stroke-width="1" stroke-linecap="butt"/><path d="M446.27713,181.59048c-0.3264,-0.1434 -0.652,-0.2874 -0.9791,-0.4302c0.3331,-0.3903 0.8938,-0.8701 1.0916,-1.2922c4.5707,-1.1325 8.0749,-2.3904 8.2166,-1.6782c0.1462,0.7345 -3.5493,2.2361 -8.3291,3.4006z" data-paper-data="{&quot;index&quot;:null}" fill="url(#color-17)" stroke="#000000" stroke-width="1" stroke-linecap="butt"/><path d="M446.32173,184.78268c-0.2674,-0.1434 -0.534,-0.2874 -0.8019,-0.4302c0.2728,-0.3903 0.732,-0.87 0.894,-1.2922c3.7432,-1.1325 6.6131,-2.3904 6.7292,-1.6782c0.1197,0.7346 -2.9068,2.2362 -6.8213,3.4006z" data-paper-data="{&quot;index&quot;:null}" fill="url(#color-18)" stroke="#000000" stroke-width="1" stroke-linecap="butt"/><path d="M446.11343,187.83608c-0.2356,-0.1434 -0.4707,-0.2874 -0.7067,-0.4302c0.2404,-0.3903 0.6451,-0.8701 0.7878,-1.2922c3.2989,-1.1325 5.8282,-2.3904 5.9305,-1.6782c0.1055,0.7345 -2.5618,2.2361 -6.0116,3.4006z" data-paper-data="{&quot;index&quot;:null}" fill="url(#color-19)" stroke="#000000" stroke-width="1" stroke-linecap="butt"/><path d="M435.62693,178.32868c0.1417,-0.7122 3.646,0.5457 8.2166,1.6782c0.1978,0.4221 0.7585,0.9019 1.0917,1.2922c-0.3272,0.1428 -0.6528,0.2868 -0.9792,0.4302c-4.7798,-1.1645 -8.4753,-2.6661 -8.3291,-3.4006z" fill="url(#color-20)" stroke="#000000" stroke-width="1" stroke-linecap="butt"/><path d="M437.59943,181.52088c0.1161,-0.7122 2.986,0.5457 6.7292,1.6782c0.162,0.4222 0.6212,0.9019 0.894,1.2922c-0.2679,0.1428 -0.5345,0.2868 -0.8019,0.4302c-3.9145,-1.1645 -6.941,-2.666 -6.8213,-3.4006z" fill="url(#color-21)" stroke="#000000" stroke-width="1" stroke-linecap="butt"/><path d="M438.42653,184.57428c0.1023,-0.7122 2.6315,0.5457 5.9304,1.6782c0.1427,0.4221 0.5474,0.9019 0.7879,1.2922c-0.2361,0.1428 -0.4711,0.2868 -0.7067,0.4302c-3.4499,-1.1645 -6.1171,-2.6661 -6.0116,-3.4006z" fill="url(#color-22)" stroke="#000000" stroke-width="1" stroke-linecap="butt"/><path d="M443.65252,187.94168l0.7002,-9.1602l1.464,-0.0694l0.5729,9.2296l-1.2731,2.4983z" fill="url(#color-23)" stroke="#000000" stroke-width="1" stroke-linecap="butt"/><path d="M453.63013,176.37578c0,0.9837 -3.9969,1.7811 -8.9273,1.7811c-4.9305,0 -8.9274,-0.7974 -8.9274,-1.7811c0,-0.9837 3.9969,-1.7812 8.9274,-1.7812c4.9304,0 8.9273,0.7975 8.9273,1.7812z" fill="url(#color-24)" stroke="#000000" stroke-width="1" stroke-linecap="butt"/><path d="M464.37843,176.18768c0.5322,-0.4921 1.0948,-2.3336 1.7811,-1.131c0.607,1.0637 0.4156,3.4903 1.466,5.2687c2.238,3.7891 3.0584,6.5878 2.0555,7.5152c-1.0029,0.9273 -1.3235,-2.4743 -3.5615,-6.2634c-1.4344,-2.4284 -3.5044,-4.2692 -3.8346,-5.4799c0,0 1.7334,0.4234 2.0935,0.0904z" data-paper-data="{&quot;index&quot;:null}" fill="url(#color-25)" stroke="#000000" stroke-width="1" stroke-linecap="butt"/><path d="M432.72203,188.43288c-0.6964,0.0484 -2.1562,1.1596 -2.0483,-0.2519c0.0955,-1.2484 1.5778,-3.0706 1.7089,-5.1809c0.2794,-4.4964 1.1538,-7.2756 2.4662,-7.3669c1.3124,-0.0912 -0.2931,2.8464 -0.5724,7.3428c-0.1791,2.8817 0.4737,5.7058 0.0756,6.892c0,0 -1.1588,-1.4679 -1.63,-1.4351z" data-paper-data="{&quot;index&quot;:null}" fill="url(#color-26)" stroke="#000000" stroke-width="1" stroke-linecap="butt"/><path d="M460.18813,177.08688c-4.058,-0.859 -7.0742,0.0791 -6.6567,-1.2804c0.4176,-1.3595 3.1058,-1.568 7.1638,-0.7089c1.9045,0.4032 3.9003,-0.6914 5.0316,-0.4717c1.2791,0.2483 -0.0806,1.5014 -0.3021,2.2229c-0.15,0.4882 1.5005,2.0212 0.8541,2.0857c-1.1537,0.1152 -3.49,-1.297 -6.0907,-1.8476z" fill="url(#color-27)" stroke="#000000" stroke-width="1" stroke-linecap="butt"/><path d="M445.70503,152.71158c6.3704,0.5737 8.7574,5.7631 8.2312,12.7083c-0.157,2.0721 2.4169,5.167 1.7657,6.9303c-1.1249,3.0454 -3.4398,2.8507 -6.9536,3.057c-0.4352,0.0256 -0.9643,2.4535 -1.6463,2.8812c-1.309,0.821 -2.9225,-0.1144 -3.7029,-0.1847c-0.6667,-0.06 -2.352,0.3789 -3.1843,-0.6002c-0.7028,-0.8269 -0.5465,-3.0804 -1.2037,-3.2742c-3.0779,-0.9073 -5.3331,-0.9609 -6.0528,-3.4577c-0.6837,-2.3716 2.8022,-4.795 3.009,-7.5252c0.5263,-6.9451 3.3673,-11.1084 9.7377,-10.5347z" fill="url(#color-28)" stroke="#000000" stroke-width="1.5" stroke-linecap="butt"/><path d="M447.65264,166.86571c0.10499,-1.38569 4.56221,-1.40337 4.56221,-1.40337c0,0 0.31928,1.21118 0.21429,2.59687c-0.10499,1.38569 -1.25936,2.41273 -2.57835,2.29395c-1.319,-0.11878 -2.30314,-2.10175 -2.19815,-3.48745z" fill="#000000" stroke="none" stroke-width="0" stroke-linecap="butt"/><path d="M436.70228,165.45984c0.14669,-1.93603 1.38511,-2.6961 1.38511,-2.6961c0,0 5.43508,1.36105 5.28839,3.29708c-0.14669,1.93603 -1.75952,3.37095 -3.60235,3.205c-1.84283,-0.16596 -3.21784,-1.86995 -3.07115,-3.80598z" fill="#000000" stroke="none" stroke-width="0" stroke-linecap="butt"/><path d="M445.77473,174.05398l-0.4163,3.5307" fill="none" stroke="#000000" stroke-width="1.5" stroke-linecap="round"/><path d="M442.13552,177.43788l0.4738,-4.1989" fill="none" stroke="#000000" stroke-width="1.5" stroke-linecap="round"/><path d="M448.20794,167.70309c0.06199,-0.81815 0.78974,-1.42039 1.62547,-1.34513c0.83573,0.07526 1.46297,0.79952 1.40098,1.61767c-0.06199,0.81815 -0.78973,1.42039 -1.62547,1.34513c-0.83573,-0.07526 -1.46297,-0.79952 -1.40098,-1.61767z" fill="url(#color-29)" stroke="#000000" stroke-width="0" stroke-linecap="butt"/><path d="M437.72351,165.91398c0.06199,-0.81815 0.78974,-1.42038 1.62547,-1.34512c0.83573,0.07526 1.46297,0.79952 1.40098,1.61767c-0.06199,0.81815 -0.78973,1.42039 -1.62547,1.34513c-0.83573,-0.07526 -1.46297,-0.79952 -1.40098,-1.61768z" fill="url(#color-30)" stroke="#000000" stroke-width="0" stroke-linecap="butt"/><path d="M450.28573,162.43618l-1.2355,0.0633l-0.4665,-1.5445l-1.7157,-0.4243l-0.7873,-2.7764l2.2087,-1.052l-1.4859,-3.7329" fill="none" stroke="#000000" stroke-width="0.5" stroke-linecap="round"/><path d="M446.79583,160.30677l-2.0415,1.4438l-1.1707,-0.7756" fill="none" stroke="#000000" stroke-width="0.5" stroke-linecap="round"/><path d="M443.88563,157.88068l1.2132,-0.9439l0.9819,0.9501" fill="none" stroke="#000000" stroke-width="0.5" stroke-linecap="round"/><path d="M443.21903,171.60478l1.6408,-3.2442l0.5765,3.5623l-0.8865,-0.8333z" fill="#000000" stroke="#000000" stroke-width="0.5" stroke-linecap="butt"/><path d="M442.25213,198.00408c-1.0923,-1.0221 -3.4265,-4.8722 -1.7186,-5.7599c1.7079,-0.8876 3.187,2.4289 5.1559,2.4289c1.8418,0 2.8744,-3.3056 5.1559,-2.2207c2.2815,1.0849 1.0535,4.0765 -0.7002,5.7599c-1.7537,1.6833 -2.6326,-1.0642 -4.2801,-0.9792c-1.4732,0.076 -2.5206,1.7931 -3.6129,0.771zM448.83113,197.11148l0.6008,-0.1682c0.5178,-0.413 2.2474,-2.251 0.942,-2.9937c-0.6154,-0.3501 -1.7898,1.2859 -2.2527,1.6455c0,0 -0.4273,0.3328 -0.1221,0.7987c0.07,0.1067 0.1464,0.1716 0.2226,0.2081c0.0013,0.0127 0.003,0.0257 0.005,0.039c0.0864,0.5647 0.6044,0.4706 0.6044,0.4706zM441.56253,194.19888c-0.1613,0.1758 -0.1824,0.3517 -0.1548,0.4943c-0.05,0.2656 0.1274,0.4913 0.1274,0.4913c0.1019,0.128 0.2664,0.3568 0.453,0.566c0.0604,0.4667 0.5186,0.4667 0.5186,0.4667l0.0521,-0.0225c0.0425,0.0126 0.0841,0.0184 0.1245,0.0161c0.0427,-0.0024 0.0841,-0.0055 0.1242,-0.0092c0.135,0.0921 0.3892,0.1944 0.6434,-0.0827c0.0379,-0.0413 0.0681,-0.0826 0.0917,-0.1235c0.6981,-0.4342 0.0231,-1.3828 -0.7232,-1.7217l-0.3233,-0.3524c-0.095,-0.1036 -0.2263,-0.1677 -0.3713,-0.1677c-0.2282,0 -0.4223,0.1587 -0.4948,0.3803c-0.0224,0.0189 -0.045,0.0404 -0.0675,0.065z" fill="url(#color-31)" stroke="#000000" stroke-width="1" stroke-linecap="butt"/><path d="M436.31611,191.02608c2.7851,3.3303 5.7186,4.5407 4.6392,5.3596c-1.0794,0.8189 -3.3502,-0.7635 -6.1354,-4.0937c-1.3071,-1.563 -3.5076,-1.9839 -4.2949,-2.8963c-0.8902,-1.0317 0.8868,-1.1522 1.4596,-1.5868c0.3876,-0.294 -0.097,-2.5981 0.4569,-2.2292c0.9887,0.6585 2.0896,3.312 3.8746,5.4464z" data-paper-data="{&quot;index&quot;:null}" fill="url(#color-32)" stroke="#000000" stroke-width="1" stroke-linecap="butt"/><path d="M397.28893,217.27448c0.3838,1.3433 -0.4831,4.4469 -0.4273,7.6639c0.087,5.0195 1.7271,8.383 0.2714,8.2039c-0.6458,-0.0795 -4.7601,-1.5189 -5.1503,-2.67c-0.2541,-0.7494 3.0355,0.5874 3.8279,-0.3485c0.7344,-0.8673 -1.0316,-3.9809 -1.0549,-5.3243c-0.0408,-2.3557 -1.5994,-4.471 -1.6435,-5.8657c-0.0499,-1.5769 1.5191,-0.2541 2.2915,-0.159c0.5228,0.0643 1.8852,-1.5003 1.8852,-1.5003z" data-paper-data="{&quot;index&quot;:null}" fill="url(#color-33)" stroke="#000000" stroke-width="1" stroke-linecap="butt"/><path d="M395.93933,221.14708c-0.5492,0.5128 -0.391,-2.1149 -0.8651,-2.3633c-0.7007,-0.3672 -2.6745,-0.1561 -1.8634,-1.4629c0.7175,-1.1557 3.069,-2.0439 4.2524,-4.0156c2.5213,-4.2009 4.7613,-6.3802 6.0816,-5.6883c1.3204,0.6919 -1.7089,2.5903 -4.2303,6.7912c-1.6159,2.6925 -2.3951,5.8235 -3.3752,6.7389z" data-paper-data="{&quot;index&quot;:null}" fill="url(#color-34)" stroke="#000000" stroke-width="1" stroke-linecap="butt"/><path d="M407.83523,218.26508c1.2892,0.0648 3.6695,2.0118 6.4624,3.0519c4.3577,1.6229 7.8173,1.0893 7.1663,2.5201c-0.2887,0.6346 -2.9331,4.3602 -4.0588,4.3675c-0.7329,0.0048 1.5419,-2.9105 1.0052,-4.0419c-0.4974,-1.0484 -3.7844,-0.3005 -4.9507,-0.7349c-2.0452,-0.7616 -4.4007,0.1142 -5.6183,-0.3163c-1.3767,-0.4868 0.299,-1.6435 0.6445,-2.4027c0.2338,-0.5138 -0.6507,-2.4437 -0.6507,-2.4437z" data-paper-data="{&quot;index&quot;:null}" fill="url(#color-35)" stroke="#000000" stroke-width="1" stroke-linecap="butt"/><path d="M410.70843,222.39898c-0.1305,0.7754 -1.5252,-1.3746 -2.037,-1.2421c-0.7564,0.1957 -2.168,1.7146 -2.2925,0.1426c-0.1101,-1.3903 1.2038,-3.6946 0.9844,-6.0387c-0.4675,-4.9944 0.014,-8.2251 1.4394,-8.5938c1.4253,-0.3688 0.1683,3.1854 0.6358,8.1798c0.2996,3.201 1.5026,6.1683 1.2698,7.5522z" data-paper-data="{&quot;index&quot;:null}" fill="url(#color-36)" stroke="#000000" stroke-width="1" stroke-linecap="butt"/><path d="M400.18453,210.11248l-1.3119,-3.4561c0,0 4.155,-1.2241 6.0837,-1.3212c1.8729,-0.0942 5.3259,0.7473 5.3259,0.7473l-0.9778,3.2614z" fill="url(#color-37)" stroke="#000000" stroke-width="1" stroke-linecap="butt"/><path d="M401.90243,208.26188c-0.4252,-1.3431 0.2592,-7.3775 0.0398,-10.4707c-0.2366,-3.3369 -1.6073,-8.626 -1.6073,-8.626l3.5348,-0.298c0,0 1.1854,5.6836 1.4117,8.8752c0.2308,3.2558 1.1994,6.6125 -0.0399,10.4707c-1.2393,3.8582 -2.9139,1.3919 -3.3391,0.0488z" fill="url(#color-38)" stroke="#000000" stroke-width="1" stroke-linecap="butt"/><path d="M403.73803,192.79218c-0.3739,-0.1288 -0.7469,-0.2582 -1.1215,-0.3862c0.3393,-0.4646 0.9243,-1.05 1.1107,-1.5374c4.9872,-1.6857 8.7803,-3.4108 8.9937,-2.633c0.2202,0.8021 -3.766,2.8158 -8.983,4.5566z" data-paper-data="{&quot;index&quot;:null}" fill="url(#color-39)" stroke="#000000" stroke-width="1" stroke-linecap="butt"/><path d="M404.03883,196.33348c-0.3082,-0.1343 -0.6157,-0.2692 -0.9245,-0.4028c0.2723,-0.459 0.7445,-1.0348 0.8912,-1.5189c4.0682,-1.6082 7.1567,-3.2739 7.3417,-2.4938c0.1908,0.8046 -3.0524,2.7557 -7.3084,4.4155z" data-paper-data="{&quot;index&quot;:null}" fill="url(#color-40)" stroke="#000000" stroke-width="1" stroke-linecap="butt"/><path d="M404.04793,199.74428c-0.273,-0.1373 -0.5453,-0.2751 -0.8188,-0.4117c0.2363,-0.4559 0.648,-1.0267 0.7733,-1.5089c3.5748,-1.5667 6.2849,-3.2005 6.4546,-2.4191c0.175,0.806 -2.6692,2.7234 -6.4091,4.3397z" data-paper-data="{&quot;index&quot;:null}" fill="url(#color-41)" stroke="#000000" stroke-width="1" stroke-linecap="butt"/><path d="M391.65223,190.16638c0.1013,-0.8043 4.0925,0.2647 9.2581,1.0947c0.2529,0.4504 0.9135,0.9308 1.3142,1.333c-0.3521,0.1893 -0.7024,0.3796 -1.0536,0.5695c-5.4004,-0.8459 -9.6232,-2.1677 -9.5187,-2.9973z" fill="url(#color-42)" stroke="#000000" stroke-width="1" stroke-linecap="butt"/><path d="M394.09443,193.52718c0.0728,-0.8019 3.3594,0.3265 7.606,1.234c0.2132,0.4537 0.761,0.9436 1.0948,1.3515c-0.2863,0.1837 -0.5712,0.3685 -0.8568,0.5529c-4.4394,-0.9269 -7.9191,-2.3114 -7.844,-3.1384z" fill="url(#color-43)" stroke="#000000" stroke-width="1" stroke-linecap="butt"/><path d="M395.25352,196.84098c0.0575,-0.8005 2.9657,0.3598 6.7188,1.3088c0.1919,0.4555 0.6791,0.9505 0.9769,1.3615c-0.251,0.1807 -0.5007,0.3626 -0.751,0.544c-3.9234,-0.9705 -7.004,-2.3885 -6.9447,-3.2143z" fill="url(#color-44)" stroke="#000000" stroke-width="1" stroke-linecap="butt"/><path d="M401.32313,200.09188l0.0562,-10.2394l1.6205,-0.2142l1.3632,10.1974l-1.2172,2.8939z" fill="url(#color-45)" stroke="#000000" stroke-width="1" stroke-linecap="butt"/><path d="M411.49393,186.31208c0.0775,1.0925 -4.2989,2.3524 -9.775,2.8139c-5.476,0.4616 -9.9781,-0.05 -10.0556,-1.1426c-0.0774,-1.0925 4.299,-2.3524 9.7751,-2.8139c5.476,-0.4615 9.9781,0.05 10.0555,1.1426z" fill="url(#color-46)" stroke="#000000" stroke-width="1" stroke-linecap="butt"/><path d="M423.41682,185.09708c0.5524,-0.5964 1.0322,-2.6944 1.8892,-1.4229c0.7579,1.1245 0.7365,3.8377 2.0432,5.7145c2.7841,3.9989 3.9156,7.0305 2.8748,8.1544c-1.0409,1.1239 -1.6649,-2.6242 -4.4489,-6.6231c-1.7844,-2.5629 -4.2285,-4.4136 -4.6906,-5.7273c0,0 1.9586,0.3079 2.3323,-0.0956z" data-paper-data="{&quot;index&quot;:null}" fill="url(#color-47)" stroke="#000000" stroke-width="1" stroke-linecap="butt"/><path d="M384.37933,199.05208c-0.6931,-0.3838 -2.6707,-0.2198 -1.8335,-1.5069c0.7404,-1.1383 3.1092,-1.9703 4.3318,-3.9133c2.605,-4.1398 4.8882,-6.2651 6.1943,-5.5419c1.3062,0.7232 -1.7605,2.5489 -4.3655,6.6887c-1.6695,2.6533 -2.5113,5.765 -3.5096,6.6568c0,0 -0.3485,-2.1237 -0.8175,-2.3834z" data-paper-data="{&quot;index&quot;:null}" fill="url(#color-48)" stroke="#000000" stroke-width="1" stroke-linecap="butt"/><path d="M418.83363,186.48798c-4.5747,-0.5743 -7.8508,0.75 -7.4941,-0.799c0.3567,-1.549 3.326,-2.0322 7.9007,-1.458c2.147,0.2695 4.2775,-1.1329 5.5512,-0.9949c1.4402,0.1561 0.0288,1.6752 -0.1604,2.4972c-0.1281,0.5563 1.8257,2.1045 1.1129,2.2366c-1.2724,0.2359 -3.9783,-1.1139 -6.9103,-1.4819z" fill="url(#color-49)" stroke="#000000" stroke-width="1" stroke-linecap="butt"/><path d="M404.10596,176.30914c0.00748,-1.54886 4.95656,-1.98574 4.95656,-1.98574c0,0 0.45,1.31532 0.44252,2.86419c-0.00748,1.54886 -1.20871,2.79762 -2.68302,2.78916c-1.47432,-0.00846 -2.72354,-2.11875 -2.71607,-3.66761z" fill="#000000" stroke="none" stroke-width="0" stroke-linecap="butt"/><path d="M391.83308,175.77275c0.01044,-2.16401 1.32605,-3.12411 1.32605,-3.12411c0,0 6.14374,1.0029 6.1333,3.1669c-0.01044,2.16401 -1.68874,3.9087 -3.74858,3.89689c-2.05984,-0.01182 -3.72121,-1.77567 -3.71076,-3.93968z" fill="#000000" stroke="none" stroke-width="0" stroke-linecap="butt"/><path d="M402.40203,188.42908l0.1843,-3.9605" fill="none" stroke="#000000" stroke-width="1.5" stroke-linecap="round"/><path d="M398.81092,188.56768l0.1956,-4.7078" fill="none" stroke="#000000" stroke-width="1.5" stroke-linecap="round"/><path d="M404.43857,176.80556c0.00441,-0.9145 0.76527,-1.6515 1.69941,-1.64614c0.93414,0.00536 1.68784,0.75105 1.68342,1.66555c-0.00441,0.9145 -0.76526,1.6515 -1.69941,1.64614c-0.93414,-0.00536 -1.68784,-0.75105 -1.68343,-1.66555z" fill="url(#color-50)" stroke="#000000" stroke-width="0" stroke-linecap="butt"/><path d="M391.95281,174.65484c0.00441,-0.9145 0.76527,-1.65149 1.69941,-1.64613c0.93414,0.00536 1.68784,0.75105 1.68342,1.66554c-0.00441,0.9145 -0.76525,1.6515 -1.69941,1.64614c-0.93414,-0.00536 -1.68784,-0.75105 -1.68343,-1.66555z" fill="url(#color-51)" stroke="#000000" stroke-width="0" stroke-linecap="butt"/><path d="M406.68163,171.14288l-1.3673,0.186l-0.6398,-1.6717l-1.939,-0.3106l-1.0931,-3.0099l2.3703,-1.3753l-1.9443,-4.0069" fill="none" stroke="#000000" stroke-width="0.5" stroke-linecap="round"/><path d="M402.63783,169.10458l-2.1537,1.7947l-1.3614,-0.7519" fill="none" stroke="#000000" stroke-width="0.5" stroke-linecap="round"/><path d="M399.21443,166.68238l1.2731,-1.1619l1.1654,0.9633" fill="none" stroke="#000000" stroke-width="0.5" stroke-linecap="round"/><path d="M399.55501,181.98768l1.5668,-3.7569l0.9208,3.9026l-1.0501,-0.8425z" fill="#000000" stroke="#000000" stroke-width="0.5" stroke-linecap="butt"/><path d="M400.56023,211.39898c-1.2937,-1.033 -4.1894,-5.0906 -2.3625,-6.2364c1.827,-1.1458 3.731,2.3993 5.9178,2.215c2.0456,-0.1724 2.9321,-3.9404 5.5516,-2.949c2.6195,0.9914 1.4911,4.4289 -0.324,6.4627c-1.8152,2.0338 -3.0078,-0.9354 -4.831,-0.6868c-1.6302,0.2222 -2.6582,2.2274 -3.9519,1.1945zM407.79693,209.79178l0.6541,-0.2432c0.5426,-0.5071 2.3188,-2.7104 0.8104,-3.4131c-0.7111,-0.3313 -1.8866,1.5957 -2.3723,2.0385c0,0 -0.4484,0.4096 -0.0727,0.8985c0.0861,0.112 0.176,0.1768 0.2635,0.2103c0.0025,0.014 0.0055,0.0283 0.0088,0.0428c0.1403,0.6192 0.7082,0.4661 0.7082,0.4661zM399.49463,207.23718c-0.1653,0.2104 -0.175,0.4076 -0.133,0.5635c-0.0347,0.2996 0.1802,0.5337 0.1802,0.5337c0.1232,0.1326 0.324,0.3714 0.5477,0.5862c0.1038,0.5127 0.6128,0.4698 0.6128,0.4698l0.056,-0.0298c0.0482,0.01 0.0949,0.0125 0.1395,0.0062c0.0473,-0.0067 0.093,-0.014 0.1372,-0.0218c0.1573,0.0896 0.4477,0.1795 0.7082,-0.1521c0.0388,-0.0494 0.0691,-0.0981 0.0921,-0.1457c0.7411,-0.5476 -0.0833,-1.5381 -0.9389,-1.8446l-0.3867,-0.3611c-0.1137,-0.1062 -0.2646,-0.1651 -0.4257,-0.1515c-0.2534,0.0214 -0.4565,0.2157 -0.5196,0.4687c-0.0234,0.023 -0.0467,0.0491 -0.0698,0.0785z" fill="url(#color-52)" stroke="#000000" stroke-width="1" stroke-linecap="butt"/><path d="M379.64843,201.32338c-4.526,0.9255 -7.2967,3.2464 -7.3759,1.6516c-0.0792,-1.5947 2.6264,-3.0132 7.1524,-3.9388c2.1242,-0.4344 3.7792,-2.4607 5.0335,-2.7393c1.4181,-0.315 0.4816,1.5911 0.5237,2.4374c0.0284,0.5726 2.3147,1.4221 1.6696,1.778c-1.1516,0.6354 -4.1026,0.2178 -7.0034,0.8111z" data-paper-data="{&quot;index&quot;:null}" fill="url(#color-53)" stroke="#000000" stroke-width="1" stroke-linecap="butt"/><path d="M212.55519,94.25054c0,0 2.33201,-4.2414 5.11713,-7.02098c1.87629,-1.87256 4.62671,-2.24607 4.48032,-3.37235c-0.11845,-0.91131 0.45569,-2.90791 -0.31613,-4.67638c-1.31419,-3.01122 -4.20596,-5.94219 -4.20596,-5.94219c0,0 6.1016,-0.57512 9.45922,0.38323c4.4375,1.26657 14.8413,6.55274 14.8413,6.55274l-1.5511,13.87194c0,0 -15.05021,-1.72565 -20.17597,-1.68807c-3.15601,0.02314 -7.64881,1.89207 -7.64881,1.89207z" fill="#9f2d00" stroke="none" stroke-width="0" stroke-linecap="butt"/><path d="M430.86263,92.97833c-5.12576,-0.03758 -20.17597,1.68807 -20.17597,1.68807l-1.5511,-13.87194c0,0 10.4038,-5.28617 14.8413,-6.55275c3.35762,-0.95834 9.45922,-0.38322 9.45922,-0.38322c0,0 -2.89177,2.93098 -4.20596,5.94219c-0.77182,1.76847 -0.19769,3.76508 -0.31614,4.67639c-0.14639,1.12628 2.60404,1.49979 4.48033,3.37235c2.78512,2.77958 5.11713,7.02098 5.11713,7.02098c0,0 -4.4928,-1.86893 -7.6488,-1.89207z" data-paper-data="{&quot;index&quot;:null}" fill="#9f2d00" stroke="none" stroke-width="0" stroke-linecap="butt"/><path d="M187.39801,149.00648c-0.2622,-0.0349 -0.886,-0.2008 -0.886,-0.9907c0,-1 1,-1 1,-1l1.0131,0.2929c1.0164,1.0201 1.5675,1.6541 1.8539,2.5534c0.3656,-0.9402 0.7313,-1.8805 1.0969,-2.8207l0.5309,-0.6507c0,0 0.7071,-0.7071 1.4143,0c0.7071,0.7071 0,1.4142 0,1.4142l-0.0811,-0.0386c-0.405,1.0414 -0.81,2.0828 -1.215,3.1242c1.0615,-0.7535 1.8288,-1.1301 3.5774,-1.5367l1.1367,-0.1833c0,0 0.9873,-0.1588 1.1461,0.8285c0.1588,0.9873 -0.8285,1.1461 -0.8285,1.1461l-1.0785,0.173c-1.9244,0.4024 -2.2318,0.7478 -3.6611,1.8399c0.1115,0.2781 0.214,0.8069 -0.3725,1.1978c-0.832,0.5547 -1.3867,-0.2773 -1.3867,-0.2773c-0.0386,-0.0633 -0.0782,-0.1234 -0.1187,-0.1808c-0.1729,0.0475 -0.3834,0.0442 -0.6357,-0.0539c-0.5402,-0.2101 -0.6455,-0.6115 -0.6386,-0.9119c-0.1107,-0.0395 -0.2013,-0.0955 -0.2755,-0.1606c-0.3787,-0.1506 -0.7919,-0.2833 -1.2368,-0.461l-0.5466,0.0715c0,0 -1,0 -1,-1c0,-1 1,-1 1,-1l1.2894,0.0715c0.0092,0.0037 0.0184,0.0074 0.0276,0.0111c-0.172,-0.5252 -0.5198,-0.8632 -1.125,-1.4579z" fill="#00ca11" stroke="none" stroke-width="0.5" stroke-linecap="butt"/><path d="M352.52732,183.40988c0,1 -1,1 -1,1h-1.224c-1.6696,-0.0374 -2.9797,0.6355 -4.4839,1.0605l0.09,0.45l-0.7328,0.1466l-0.0562,0.1406c-0.1418,0.3798 -0.5079,0.6503 -0.9371,0.6503c-0.4759,0 -0.8742,-0.3325 -0.9752,-0.7778l-0.301,-1.2037l0.0421,-0.0105l-0.0644,-0.1099c-0.0063,-1.1284 -0.2975,-2.4634 -0.4853,-3.7256c-0.2632,-0.5859 -0.5471,-1.1615 -0.9171,-1.7086l-0.0086,-0.0652l-0.021,0.0105l-0.6119,-1.224l0.4451,-0.2226l-0.1354,-1.0359c0.316,0.1768 0.6054,0.3515 0.8703,0.5256l0.4215,-0.4214l1.224,1.224l-0.29,0.29c0.8753,0.9025 1.2443,1.8713 1.3958,3.1005c0.0657,0.1395 0.1335,0.2787 0.2043,0.4175c0.716,-0.9098 1.748,-1.6852 2.589,-2.222l0.2897,0.086v-0.1289h1.53c0.5523,0 1,0.4477 1,1c0,0.4759 -0.3324,0.8741 -0.7777,0.9752l-1.1042,0.276c-0.4597,0.3503 -0.8916,0.7036 -1.3042,1.0968c1.0258,-0.4011 2.1848,-0.5795 3.1041,-0.5941h1.224c0,0 1,0 1,1z" fill="#00ca11" stroke="none" stroke-width="0.5" stroke-linecap="butt"/><path d="M465.43613,236.93578c-0.2479,0.4245 -0.532,0.7781 -0.9809,0.8209c-0.1115,0.0107 -0.2186,0.0176 -0.3214,0.021c-0.7052,0.3911 -1.5265,0.1159 -2.2359,-0.3779c-0.0231,0.0271 -0.0481,0.0542 -0.0753,0.0813c-0.7071,0.7071 -1.4142,0 -1.4142,0c-1.8843,-1.8884 -3.4511,-3.9697 -4.913,-6.1988l-1.2024,-0.7477c-0.2915,-0.1747 -0.4867,-0.4938 -0.4867,-0.8584c0,-0.5523 0.4477,-1 1,-1c0.1188,0 0.2327,0.0207 0.3384,0.0587l1.8752,0.625l-0.067,0.2011c1.1782,0.2127 2.3094,0.5482 3.3489,1.0625c0.171,0.0211 0.3287,0.0854 0.4618,0.1816l1.1547,0.8127c0.3205,-2.8491 1.2343,-5.3832 2.9273,-7.5684c0.0013,-0.005 0.0026,-0.01 0.004,-0.015l0.0118,-0.0053c0.017,-0.0219 0.0342,-0.0439 0.0514,-0.0657l-0.0281,-0.0133l0.0486,-0.1033l-0.2387,-0.1591l1.1008,-1.6512c0.1781,-0.2757 0.4881,-0.4582 0.8407,-0.4582c0.5523,0 1,0.4477 1,1c0,0.1599 -0.0375,0.3111 -0.1043,0.4451l-0.8084,1.7165c-0.7268,2.7951 -0.9929,5.6776 -1.5413,8.4654c1.018,-1.458 2.61,-3.4798 3.8287,-3.6745c0.1193,-0.019 0.2383,-0.0287 0.3572,-0.0305v-0.0355h2c0.5523,0 1,0.4477 1,1c0,0.3992 -0.2339,0.7438 -0.5722,0.9041l-1.5481,0.7741c-1.7504,0.931 -2.7743,2.0945 -4.0824,3.5855c-0.0276,0.0315 -0.0545,0.0644 -0.0808,0.0984l-0.0471,0.3644c0,0 -0.1182,0.5619 -0.6013,0.7445zM458.42673,232.02868c0.5646,0.7714 1.1465,1.526 1.7624,2.2558c0.0099,-0.1961 0.0172,-0.3914 0.0056,-0.5808l-0.7096,-1.2763c-0.3688,-0.1619 -0.7218,-0.2841 -1.0584,-0.3987z" fill="#00ca11" stroke="none" stroke-width="0.5" stroke-linecap="butt"/><path d="M206.77882,220.36498c0.636,0.3975 0.2385,1.0335 0.2385,1.0335c-1.0473,1.6756 -2.8396,4.5433 -3.9048,6.2476c-0.0636,0.1464 -0.181,0.3009 -0.3975,0.3728c-0.1311,0.0594 -0.2948,0.085 -0.4857,0.0191c-0.1968,-0.0452 -0.322,-0.1538 -0.4017,-0.2736c-0.1354,-0.1635 -0.1601,-0.3421 -0.1439,-0.4934c-0.0112,0.0004 -0.0227,0.0006 -0.0343,0.0006c-0.75,0 -0.75,-0.75 -0.75,-0.75c0.0527,-2.6042 -1.7708,-5.2791 -4.4094,-5.5183l-1.1772,-0.0414c0,0 -0.7495,-0.0274 -0.7221,-0.7769c0.0274,-0.7495 0.7769,-0.7221 0.7769,-0.7221l1.2752,0.0481c2.6149,0.2927 4.5261,2.1852 5.3331,4.5596c0.5173,-2.9248 1.6549,-5.4952 2.7732,-8.4768l1.3506,-0.8085c0,0 0.6951,-0.2816 0.9767,0.4135c0.2816,0.6952 -0.4135,0.9768 -0.4135,0.9768l-0.5093,-0.055c-1.0814,2.883 -2.2019,5.3335 -2.6998,8.1493c0.5094,-0.8151 1.0188,-1.6301 1.5282,-2.4452l0.7633,-1.2212c0,0 0.3975,-0.636 1.0335,-0.2385z" fill="#00a50e" stroke="none" stroke-width="0.5" stroke-linecap="butt"/><path d="M297.03711,235.95998c0.0254,0.7496 -0.7242,0.7749 -0.7242,0.7749l-0.0082,0.0003c-1.9996,0.0676 -3.5693,-0.1426 -5.0074,1.3578c0,0 -0.4372,0.4371 -0.9146,0.1208c-0.1018,0.06 -0.2337,0.0989 -0.4044,0.0989c-0.75,0 -0.75,-0.75 -0.75,-0.75c0.0287,-3.3313 -1.6813,-6.4322 -4.0797,-8.5496l-0.3986,-0.352c0,0 -0.5622,-0.4964 -0.0659,-1.0586c0.4964,-0.5623 1.0587,-0.0659 1.0587,-0.0659l0.3986,0.352c2.0587,1.8176 3.5973,4.2386 4.2471,6.9265c1.0679,-2.9901 2.1358,-5.9802 3.2037,-8.9703l0.4117,-1.1528c0,0 0.2522,-0.7063 0.9585,-0.4541c0.7063,0.2523 0.4541,0.9586 0.4541,0.9586c-1.1549,3.2338 -2.7062,7.5773 -3.8761,10.8531c1.3951,-0.7715 2.8438,-0.7501 4.7135,-0.8135l0.0082,-0.0003c0,0 0.7496,-0.0254 0.775,0.7242z" fill="#00a50e" stroke="none" stroke-width="0.5" stroke-linecap="butt"/><path d="M183.42271,167.89458c0.2668,0.7009 -0.4341,0.9677 -0.4341,0.9677l-0.9613,0.2875c-2.0264,2.1269 -2.091,3.3084 -2.5063,6.2155c0,0 -0.0093,0.0652 -0.0418,0.1543c0.2806,0.6676 0.5326,1.3178 0.7588,1.7702c0,0 0.3354,0.6708 -0.3354,1.0062c-0.6708,0.3354 -1.0062,-0.3354 -1.0062,-0.3354c-0.4565,-0.9128 -1.0885,-3.1352 -1.8413,-3.801c-1.1163,-0.9872 -3.9218,-1.5148 -5.3434,-2.0339l-0.8926,-0.0633c0,0 -0.7465,-0.0729 -0.6735,-0.8193c0.0729,-0.7465 0.8194,-0.6735 0.8194,-0.6735l1.2611,0.1471c1.6019,0.5849 4.5631,1.1864 5.8283,2.3242c0.0892,0.0803 0.1766,0.1748 0.262,0.2811c0.3571,-2.0186 0.8694,-3.3643 2.6249,-5.2069l1.5137,-0.6546c0,0 0.7009,-0.2669 0.9677,0.4341z" fill="#00a50e" stroke="none" stroke-width="0.5" stroke-linecap="butt"/><path d="M185.02362,172.69958c0.1937,0.7246 -0.5309,0.9183 -0.5309,0.9183l-0.2824,0.0755c-1.8082,0.3346 -1.7949,2.4908 -2.3543,4.169c0,0 -0.2372,0.7115 -0.9487,0.4743c-0.7115,-0.2372 -0.4743,-0.9487 -0.4743,-0.9487c0.8077,-2.4231 0.7915,-4.313 3.39,-5.1438l0.2824,-0.0755c0,0 0.7246,-0.1936 0.9182,0.5309z" fill="#00a50e" stroke="none" stroke-width="0.5" stroke-linecap="butt"/><path d="M378.92533,260.00878c0.4248,0.6182 -0.1934,1.0429 -0.1934,1.0429l-0.8096,0.5563c-1.8541,1.1915 -2.1594,4.0983 -2.8469,6.1606c0,0 -0.2371,0.7115 -0.9486,0.4743c-0.0564,-0.0188 -0.1069,-0.0406 -0.152,-0.0647c-0.4174,0.2894 -0.86,-0.0548 -0.86,-0.0548c-3.3903,-2.6369 -5.6138,-4.7625 -9.951,-5.2818l-0.7188,-0.0861c0,0 -0.7447,-0.0891 -0.6555,-0.8338c0.0892,-0.7447 0.8338,-0.6555 0.8338,-0.6555l0.7189,0.086c4.3183,0.5171 6.7449,2.4877 9.9646,5.0169c-1.7783,-3.8158 -0.2235,-9.3586 1.6546,-12.8032l1.4168,-0.8926c0,0 0.6624,-0.3517 1.0141,0.3107c0.3517,0.6624 -0.3107,1.0141 -0.3107,1.0141l-0.8032,0.2859c-1.4641,2.6852 -3.0462,7.4702 -1.9447,10.7339c0.5361,-1.8037 1.1723,-3.5172 2.7391,-4.6462l0.8096,-0.5563c0,0 0.6182,-0.4248 1.0429,0.1934z" fill="#00a50e" stroke="none" stroke-width="0.5" stroke-linecap="butt"/><path d="M445.46113,266.40587c0.3368,-0.6701 1.0069,-0.3332 1.0069,-0.3332l0.6155,0.3094c1.6674,0.8381 4.0993,1.5855 5.5119,2.7951c1.4125,1.2096 2.5252,3.4976 3.6099,5.0161c0,0 0.4359,0.6103 -0.1744,1.0463c-0.6103,0.4359 -1.0462,-0.1744 -1.0462,-0.1744c-1.01,-1.414 -2.0533,-3.6254 -3.365,-4.7487c-1.3117,-1.1232 -3.6573,-1.8138 -5.2099,-2.5942l-0.6155,-0.3094c0,0 -0.6701,-0.3369 -0.3333,-1.007z" fill="#00a50e" stroke="none" stroke-width="0.5" stroke-linecap="butt"/><g><path d="M245.73594,147.06987l-0.1495,-0.43482v0c-0.08032,-0.23363 0.06459,-0.48174 0.32368,-0.55417c0.14383,-0.04021 0.2926,-0.01783 0.41025,0.05002c0.07979,-0.35155 0.25578,-0.69166 0.55141,-1.03535c0,0 0.07198,-0.07991 0.18926,-0.13138c0.02626,-0.03476 0.05371,-0.06924 0.08238,-0.10343l0.55726,-0.23367c0,0 0.46911,-0.13115 0.61455,0.29187c0.00396,0.01152 0.00747,0.02282 0.01054,0.03391c0.15028,-0.00168 0.36913,0.04549 0.46043,0.31104c0.05768,0.16777 0.0187,0.28963 -0.04934,0.3756c0.04127,0.17752 -0.04267,0.35701 -0.20372,0.45616l-0.318,0.20575c-0.03729,0.1533 -0.06008,0.30974 -0.07235,0.46676c0.36149,0.02356 0.62818,0.12751 0.62818,0.12751l-0.21728,0.69172c2.13662,-1.06692 0.65037,-2.39443 0.45212,-4.2617c-0.04394,-0.41392 -0.05525,-0.8279 -0.02928,-1.23318c-0.21987,-0.07273 -0.29604,-0.29426 -0.29604,-0.29426l-0.16261,-0.64995c0.68958,-0.87693 0.67295,-1.44403 1.47577,-1.85993c0.03437,-0.04194 0.06968,-0.08328 0.10594,-0.124l-0.20508,0.05733c0,0 -0.46911,0.13115 -0.61455,-0.29187c-0.14544,-0.42302 0.32368,-0.55417 0.32368,-0.55417l0.4822,-0.13481c0.88128,-0.24637 1.42709,-0.44443 2.04627,-0.33053c0.2351,-0.07121 0.48512,-0.12991 0.75069,-0.17496c0.00767,-0.0013 0.01533,-0.00259 0.02299,-0.00387c0.1944,-0.06845 0.39452,-0.13307 0.59906,-0.19535c-0.02515,-0.47593 0.52663,-0.63019 0.52663,-0.63019l0.88294,-0.04312c0.44749,0.21312 0.88193,0.44831 1.30156,0.70355c0.58642,-0.1541 0.82926,0.27398 0.88879,0.40552c0.28628,0.23466 0.54204,0.4929 0.77091,0.76981c0.94621,0.77455 1.78271,1.65866 2.48146,2.61967c0,0 0.40308,0.55608 -0.21359,0.91955c-0.0662,0.03902 -0.12994,0.06744 -0.19099,0.08709l0.07426,0.02661c0.00133,0.00898 0.00267,0.01794 0.004,0.02689c0.06844,-0.0465 0.15424,-0.08663 0.26145,-0.1166c0.70367,-0.19672 0.92183,0.43781 0.92183,0.43781l0.04255,1.02114c-0.43546,0.51018 -0.70204,0.9995 -1.00763,1.47946c-0.08787,0.59956 -0.32308,1.20205 -0.81468,1.87639c0,0 -0.27221,0.36234 -0.70089,0.29959c-0.16761,0.42506 -0.64882,1.20167 -1.89503,1.01683c-1.05016,-0.15576 -1.3432,-0.80137 -1.41408,-1.27058c-0.30628,-0.525 -0.57692,-1.03915 -0.78355,-1.63193l-0.1495,-0.43482c0,0 -0.14322,-0.41657 0.17673,-0.6793l-0.09781,-0.15959c0,0 -0.35192,-0.58363 0.2953,-0.90098c0.00684,-0.00335 0.01365,-0.00661 0.02043,-0.00976l-0.23217,-0.3836c0,0 -0.25379,-0.42089 0.06604,-0.74217c-0.01611,-0.01647 -0.03225,-0.03289 -0.04844,-0.04925c-0.11113,0.039 -0.21178,0.03707 -0.21178,0.03707c-0.7359,-0.01491 -1.45741,-0.12916 -2.18506,-0.19833c-0.32626,2.49485 2.01327,4.28947 0.08229,6.89358c-0.43385,0.58509 -1.25626,0.83559 -1.88439,1.25338l-3.06554,-0.41848c0,0 -1.20743,-0.47063 -1.0533,-1.54096c-0.32974,-0.29642 -0.41472,-0.54039 -0.61762,-1.13057z" fill="#d82222" stroke="#000000" stroke-width="0.5" stroke-linecap="butt"/><path d="M226.9405,170.88826l12.65499,-28.41249l6.3162,-11.30965l-2.87547,12.16742l-10.05154,30.1117z" fill="url(#color-54)" stroke="#000000" stroke-width="1" stroke-linecap="butt"/><path d="M245.48145,131.98299l-11.05146,28.74229" fill="none" stroke="#000000" stroke-width="0.5" stroke-linecap="round"/><path d="M232.98236,191.00006c1.92965,-3.39383 5.3898,-6.74822 6.53856,-9.17705c2.81074,-5.94255 6.41731,-16.8123 6.41731,-16.8123l19.7908,5.05467c0,0 -1.1967,1.73414 -1.181,7.0536c0.00851,2.84825 1.56772,9.05101 1.15622,11.36738c-0.71142,4.00448 -9.06182,17.10562 -9.06182,17.10562c0,0 1.70773,-3.20837 -2.13244,-4.53397c-1.8175,-0.6274 -5.83949,1.19469 -7.82244,0.72941c-1.93702,-0.45457 -5.81699,0.24192 -8.07853,-0.87823c-1.59749,-0.79133 -1.52734,-3.52263 -3.17813,-3.66005c-2.15224,-0.17915 -5.94418,2.54375 -5.94418,2.54375c0,0 0.94808,-4.31226 3.49565,-8.79283z" fill="#8c0000" stroke="#000000" stroke-width="0.5" stroke-linecap="butt"/><path d="M248.11708,174.75869c0,0 -4.84537,9.47189 -7.65028,13.24488c-2.05482,2.76385 -7.64053,7.3228 -7.64053,7.3228" fill="none" stroke="#000000" stroke-width="0.5" stroke-linecap="round"/><path d="M223.73873,183.27497l5.54117,-13.97329l9.18019,-19.39176l-6.03212,20.60247l-6.23911,13.54358z" fill="url(#color-55)" stroke="#000000" stroke-width="0.5" stroke-linecap="butt"/><path d="M223.688,174.44078c0.30423,-1.78123 4.24325,-2.14277 8.79789,-0.8076c4.55455,1.33517 8.31194,2.17952 8.00762,3.96075c-0.30432,1.78113 -4.55504,3.82465 -9.10968,2.48947c-4.55464,-1.33517 -8.00015,-3.86149 -7.69583,-5.64262z" data-paper-data="{&quot;index&quot;:null}" fill="#3c3c3c" stroke="#000000" stroke-width="1" stroke-linecap="butt"/><path d="M233.75274,174.85046l-1.28953,4.62891l-2.46738,-2.49733" fill="none" stroke="#000000" stroke-width="1" stroke-linecap="round"/><path d="M234.38712,180.01346l-4.33569,-5.95002" fill="none" stroke="#000000" stroke-width="1" stroke-linecap="round"/><path d="M230.72159,179.42654l1.51748,-5.50695l1.80008,2.53245" fill="none" stroke="#000000" stroke-width="1" stroke-linecap="round"/><path d="M239.77585,204.40418l3.99092,-17.91493h13.67618l3.30846,16.93327c0,0 -3.44359,1.2364 -6.40439,-0.10203c-0.17057,-0.0771 -0.86002,-1.80466 -0.91002,-3.18647c-0.0421,-1.16364 0.87353,-2.1567 0.87353,-2.1567c0,0 -1.86996,-0.95442 -2.49437,-2.14394c-1.05543,-2.01059 -1.46483,-4.22952 -1.72779,-4.11011c-0.34575,0.15698 -0.97113,2.81135 -1.99301,4.46676c-0.4694,0.7604 -1.85272,1.31005 -1.85272,1.31005c0,0 0.98944,1.33784 1.06897,2.9407c0.08812,1.776 -0.74118,3.83743 -0.93201,3.897c-2.66634,0.83267 -6.60382,0.06641 -6.60382,0.06641z" fill="url(#color-56)" stroke="#000000" stroke-width="1" stroke-linecap="butt"/><path d="M257.9335,199.86114c-2.30747,0 -3.82731,-0.96004 -3.82731,-2.1443c0,-1.18417 1.34436,-2.49497 3.65193,-2.49497c2.30747,0 3.12578,1.13541 3.12578,2.31959c0,1.18426 -0.64292,2.31968 -2.95039,2.31968z" fill="url(#color-57)" stroke="#000000" stroke-width="1" stroke-linecap="butt"/><path d="M242.81153,199.51866c-1.87033,0 -3.38643,-0.9984 -3.38643,-2.23003c0,-1.23163 1.5161,-2.23005 3.38643,-2.23005c1.87025,0 3.38643,0.99842 3.38643,2.23005c0,1.23163 -1.51617,2.23003 -3.38643,2.23003z" fill="url(#color-58)" stroke="#000000" stroke-width="1" stroke-linecap="butt"/><path d="M238.04793,197.23838c0,0 4.8148,-6.3487 5.34712,-8.79428c0.25942,-1.19151 -1.99605,-3.19033 -1.75376,-5.32794c0.79205,-6.98816 2.70587,-15.55163 2.70587,-15.55163l18.91901,2.17375c0,0 -0.32336,7.98002 -1.39996,14.91816c-0.36521,2.35396 -3.03763,4.56468 -3.14037,5.8708c-0.20996,2.66923 3.10257,7.97131 3.10257,7.97131c0,0 -4.61709,-0.42695 -6.96211,-2.36116c-1.60476,-1.32362 -2.88854,-3.60378 -4.20976,-3.77964c-1.32193,-0.17595 -3.33466,2.61151 -5.21182,3.53847c-2.53776,1.25337 -7.3968,1.34215 -7.3968,1.34215z" fill="#8c0000" stroke="#000000" stroke-width="1" stroke-linecap="butt"/><path d="M242.92107,182.13383c0.70186,-6.04531 2.39782,-13.45332 2.39782,-13.45332l16.76501,1.88035c0,0 -0.28657,6.90343 -1.24055,12.90551c-0.32366,2.03626 -3.50289,5.67252 -3.59399,6.80237c-0.18605,2.3091 1.9656,6.02287 1.9656,6.02287c0,0 -2.56418,-0.85763 -4.64228,-2.53084c-1.42204,-1.14514 -2.49185,-3.48016 -3.66279,-3.63233c-1.17134,-0.15217 -2.95495,1.92176 -4.61838,2.72369c-2.24875,1.08419 -4.69682,2.06097 -4.69682,2.06097c0,0 3.43909,-3.66604 3.91091,-5.78157c0,0 -2.79926,-5.14853 -2.58453,-6.9977z" fill="#8c0000" stroke="#d0a000" stroke-width="1" stroke-linecap="butt"/><path d="M252.70535,183.84733c-2.39416,0 -4.33494,-1.86344 -4.33494,-4.16213c0,-2.29869 1.94078,-4.16211 4.33494,-4.16211c2.39407,0 4.33496,1.86343 4.33496,4.16211c0,2.29869 -1.94089,4.16213 -4.33496,4.16213z" fill="url(#color-59)" stroke="#e4ae00" stroke-width="1" stroke-linecap="butt"/><path d="M265.16078,184.3713c2.85307,-3.79297 4.9661,-7.01259 6.52618,-6.1007c1.55998,0.91186 1.97628,5.60987 -0.87683,9.40292c-2.8531,3.79305 -6.43064,6.12865 -7.99063,5.21679c0,0 -0.51182,-4.72596 2.34128,-8.51901z" data-paper-data="{&quot;index&quot;:null}" fill="#3c3c3c" stroke="#000000" stroke-width="1" stroke-linecap="butt"/><path d="M266.74611,183.61407c0,0 1.97766,0.5374 2.22362,0.71728c0.63002,0.46074 1.65501,2.11925 1.65501,2.11925l-3.20607,1.43028" data-paper-data="{&quot;index&quot;:null}" fill="none" stroke="#000000" stroke-width="1" stroke-linecap="round"/><path d="M271.8019,184.95191l-7.09546,1.96352" data-paper-data="{&quot;index&quot;:null}" fill="none" stroke="#000000" stroke-width="1" stroke-linecap="round"/><path d="M269.96218,188.06211l-4.62022,-3.35899l3.00403,-0.79334" data-paper-data="{&quot;index&quot;:null}" fill="none" stroke="#000000" stroke-width="1" stroke-linecap="round"/><path d="M263.84245,179.81873c0,0 2.37284,-2.2707 3.14952,-2.91723c0.67972,-0.56581 2.53019,-1.44446 2.14326,-1.75717c-0.28533,-0.2306 -7.35954,6.03802 -7.67979,5.97004c-1.7248,-0.36618 -1.40716,-0.99064 -1.40716,-0.99064l3.50564,-3.36469c-0.23042,-0.40221 -4.07815,3.15656 -4.07815,3.15656c0,0 -1.42143,-0.64398 -0.90275,-1.61193c0.43142,-0.80512 2.81962,-1.84928 2.81558,-2.796c-0.0035,-0.82053 -2.39503,2.95365 -2.91055,2.3703c-0.17573,-0.19884 -0.7146,-1.42441 -0.7146,-1.42441c0,0 1.78116,-2.42175 2.28786,-3.64451c0.18435,-0.44486 -0.07622,-1.01907 -0.07209,-1.03325c0.25964,-0.89184 2.53406,-2.53412 3.59271,-2.35317c2.20608,0.37708 4.07772,4.60378 4.07772,4.60378c0,0 1.7191,0.28259 1.98119,0.74005c0.1302,0.22729 0.53309,0.7045 0.87648,1.27361c0.76562,1.26887 1.68837,2.9946 1.84266,3.42599c0.45275,1.26583 0.32193,5.77596 0.32193,5.77596l-2.56482,-1.29617c0,0 -2.16142,0.09139 -4.23857,-1.07069l1.33454,-1.38367c0,0 -1.6124,-0.06258 -2.15585,-0.33308c-0.57498,-0.2862 -1.20477,-1.33968 -1.20477,-1.33968z" data-paper-data="{&quot;index&quot;:null}" fill="url(#color-60)" stroke="#000000" stroke-width="1" stroke-linecap="butt"/><path d="M262.09729,179.81837c-0.07707,0.34439 -0.3844,0.56879 -0.68644,0.5012c-0.30204,-0.06759 -0.48442,-0.40158 -0.40735,-0.74597c0.07707,-0.34439 0.3844,-0.56879 0.68644,-0.5012c0.30204,0.06759 0.48442,0.40158 0.40735,0.74597z" data-paper-data="{&quot;index&quot;:null}" fill="url(#color-61)" stroke="#000000" stroke-width="0.5" stroke-linecap="butt"/><path d="M260.28506,178.29208c-0.07707,0.34439 -0.3844,0.56879 -0.68644,0.5012c-0.30204,-0.06759 -0.48442,-0.40157 -0.40735,-0.74597c0.07707,-0.34439 0.3844,-0.5688 0.68644,-0.50121c0.30204,0.06759 0.48442,0.40158 0.40735,0.74598z" data-paper-data="{&quot;index&quot;:null}" fill="url(#color-62)" stroke="#000000" stroke-width="0.5" stroke-linecap="butt"/><path d="M269.29799,181.14323l-1.50541,0.1784" data-paper-data="{&quot;index&quot;:null}" fill="none" stroke="#000000" stroke-width="1" stroke-linecap="round"/><path d="M263.72445,185.48064l4.51299,-0.20432l1.72681,4.18726c0,0 -1.01997,0.7607 -1.52462,1.16821c-0.07211,0.05825 -0.61341,1.05592 -1.91896,1.76276c-1.44208,0.78084 -3.5234,1.30704 -3.89085,0.74157c0,0 -0.55519,-1.43746 -0.52626,-2.9092c0.0231,-1.17488 0.69765,-2.3269 1.22995,-2.75672z" data-paper-data="{&quot;index&quot;:null}" fill="url(#color-63)" stroke="#000000" stroke-width="1" stroke-linecap="butt"/><path d="M259.82232,176.17945c-0.07707,0.34439 -0.38439,0.5688 -0.68643,0.50121c-0.30204,-0.06759 -0.48442,-0.40158 -0.40735,-0.74597c0.07707,-0.34439 0.3844,-0.5688 0.68644,-0.50121c0.30204,0.06759 0.48441,0.40158 0.40734,0.74598z" data-paper-data="{&quot;index&quot;:null}" fill="url(#color-64)" stroke="#000000" stroke-width="0.5" stroke-linecap="butt"/><path d="M251.71026,176.75341c-6.11137,-2.62902 -7.1718,-7.06768 -7.1718,-7.06768l21.36561,-1.39919c0,0 1.68705,1.08934 2.04946,2.40996c0.15245,0.55524 0.18201,1.4969 -0.42567,1.85941c-2.05301,1.22465 -9.70616,6.82642 -15.81762,4.1975z" fill="#8c0000" stroke="#000000" stroke-width="0.5" stroke-linecap="butt"/><path d="M238.53882,180.46061c-2.28079,0.68043 -4.70396,0.04453 -4.70396,0.04453l0.70089,-2.73916l0.11025,-3.23038l2.20646,-1.11729c0,0 0.27962,-1.6476 0.85025,-2.2721c0.35566,-0.38918 2.09498,-0.28954 2.09498,-0.28954c0,0 2.74948,-3.71597 4.98466,-3.60219c1.07261,0.0546 2.9335,2.15393 2.99212,3.08094c0.00093,0.01474 -0.37874,0.51819 -0.29599,0.99257c0.22745,1.3039 1.43677,4.05616 1.43677,4.05616c0,0 -0.7935,1.07831 -1.00841,1.23398c-0.63046,0.45669 -2.14008,-3.74865 -2.32268,-2.94869c-0.21068,0.92298 1.89186,2.46347 2.13705,3.34337c0.29478,1.05786 -1.23297,1.37589 -1.23297,1.37589c0,0 -2.97771,-4.31313 -3.2904,-3.97095l2.68626,4.04903c0,0 0.17361,0.67875 -1.58953,0.65944c-0.32737,-0.00359 -5.86192,-7.66576 -6.19072,-7.50303c-0.44588,0.22067 1.16805,1.48221 1.70781,2.1828c0.61675,0.80053 2.43645,3.5346 2.43645,3.5346c0,0 -2.95376,2.89461 -3.70929,3.12001z" data-paper-data="{&quot;index&quot;:null}" fill="url(#color-65)" stroke="#000000" stroke-width="1" stroke-linecap="butt"/><path d="M270.31505,160.96929c0,0 -0.66778,3.83146 -1.42073,5.24549c-2.71839,5.10577 -9.92062,8.89302 -9.92062,8.89302c0,0 -8.35347,-3.03774 -12.81404,-7.20443c-2.0666,-1.93052 -2.23704,-8.50764 -2.23704,-8.50764c0,0 1.54946,-1.69076 2.58368,-3.55173c0.89928,-1.61816 1.21428,-3.36501 2.23387,-4.24091c1.83695,-1.57808 10.53841,-3.43829 10.53841,-3.43829c0,0 7.35279,3.50963 7.51627,3.65348c0.95938,0.84422 1.01587,3.01238 1.64284,5.02636c0.66937,2.15019 1.87736,4.12465 1.87736,4.12465z" fill="url(#color-66)" stroke="#000000" stroke-width="1.5" stroke-linecap="butt"/><path d="M261.18102,162.36694l-1.27458,2.20927l-1.01866,-2.66446l1.82071,-5.49229c0,0 -0.64969,-4.76853 -0.7889,-5.37405c-0.30317,-1.319 -1.7796,-3.33966 -1.7796,-3.33966" fill="none" stroke="#000000" stroke-width="1" stroke-linecap="round"/><path d="M255.9225,146.43677l2.03014,0.79879l1.90554,-0.94483l1.91635,2.23072l-2.17033,1.73635l-5.21601,-1.32122z" fill="url(#color-67)" stroke="#000000" stroke-width="1" stroke-linecap="butt"/><path d="M233.96594,204.7135c0,0 3.99807,-4.16232 6.35262,-4.16232c0.99469,0 2.06086,1.15603 3.36857,1.5971c1.78793,0.60309 3.83825,-0.76979 3.83825,-0.13465c0,0.52088 0.15809,2.06745 -0.79314,2.77199c0,0 -3.29057,0.69965 -4.52976,0.69965c-1.23919,0 -8.23654,-0.77177 -8.23654,-0.77177z" fill="url(#color-68)" stroke="#000000" stroke-width="1" stroke-linecap="butt"/><path d="M253.7399,202.10456c0,-0.63514 2.05024,0.73764 3.83816,0.13465c1.30781,-0.44107 2.37388,-1.5971 3.36856,-1.5971c2.35455,0 6.41987,4.17661 6.41987,4.17661c0,0 -5.94904,0.75747 -8.30369,0.75747c-1.23929,0 -3.47268,0.08317 -4.52976,-0.69965c-0.95134,-0.70453 -0.79315,-2.25111 -0.79315,-2.77199z" data-paper-data="{&quot;index&quot;:null}" fill="url(#color-69)" stroke="#000000" stroke-width="1" stroke-linecap="butt"/><path d="M223.49888,168.94191c0,0 -1.52083,-1.39948 -1.38379,-1.73673c0.15101,-0.3715 2.25205,-0.39954 2.25205,-0.39954c0,0 0.61172,1.80888 1.92113,2.57474c0.89608,0.52411 2.47542,0.06063 2.99465,0.17484c0.74984,0.16493 2.05294,-1.21678 2.05294,-1.21678c0,0 -0.20609,1.66368 0.20322,1.94793c0.39454,0.274 0.98835,1.73803 2.0296,2.10515c1.51132,0.53285 3.52006,-0.05779 3.52006,-0.05779c0,0 1.18072,1.2635 1.03306,1.62696c-0.14144,0.34796 -1.90133,0.50931 -1.90133,0.50931c0,0 -2.99156,-0.42232 -5.30075,-1.29231c-0.54624,-0.20575 -1.12891,-0.96817 -1.53926,-1.14646c-0.47246,-0.20537 -1.43539,-0.07306 -2.01724,-0.3679c-1.9974,-1.01239 -3.86436,-2.72142 -3.86436,-2.72142z" fill="url(#color-70)" stroke="#000000" stroke-width="1" stroke-linecap="butt"/><path d="M264.89637,171.96038c0,0 -5.88791,3.76695 -7.30826,3.90466c-1.46504,0.14201 -4.59963,-0.40681 -4.59963,-0.40681" fill="none" stroke="#000000" stroke-width="0.5" stroke-linecap="round"/><path d="M245.95011,204.79529c-0.91124,0 -1.65002,-0.72147 -1.65002,-1.61136c0,-0.88989 0.73879,-1.61137 1.65002,-1.61137c0.91133,0 1.65002,0.72147 1.65002,1.61137c0,0.88989 -0.7387,1.61136 -1.65002,1.61136z" fill="url(#color-71)" stroke="#000000" stroke-width="1" stroke-linecap="butt"/><path d="M255.58842,205.0932c-0.91124,0 -1.65002,-0.72136 -1.65002,-1.61127c0,-0.88999 0.73879,-1.61137 1.65002,-1.61137c0.91124,0 1.65002,0.72137 1.65002,1.61137c0,0.88989 -0.73879,1.61127 -1.65002,1.61127z" fill="url(#color-72)" stroke="#000000" stroke-width="1" stroke-linecap="butt"/><path d="M218.20623,168.47277" fill="none" stroke="#000000" stroke-width="1" stroke-linecap="round"/><path d="M244.76417,177.48041c0.30951,0 0.56042,0.2861 0.56042,0.63901c0,0.35291 -0.25091,0.63901 -0.56042,0.63901c-0.30951,0 -0.56042,-0.2861 -0.56042,-0.63901c0,-0.35291 0.25091,-0.63901 0.56042,-0.63901z" fill="url(#color-73)" stroke="#000000" stroke-width="0.5" stroke-linecap="butt"/><path d="M246.86593,176.3867c0.30951,0 0.56042,0.28611 0.56042,0.63902c0,0.35292 -0.25091,0.63901 -0.56042,0.63901c-0.30951,0 -0.56042,-0.2861 -0.56042,-0.63901c0,-0.35292 0.25091,-0.63902 0.56042,-0.63902z" fill="url(#color-74)" stroke="#000000" stroke-width="0.5" stroke-linecap="butt"/><path d="M248.29888,174.7728c0.30951,0 0.56042,0.28611 0.56042,0.63902c0,0.35291 -0.25091,0.63901 -0.56042,0.63901c-0.30951,0 -0.56041,-0.2861 -0.56041,-0.63901c0,-0.35292 0.2509,-0.63902 0.56041,-0.63902z" fill="url(#color-75)" stroke="#000000" stroke-width="0.5" stroke-linecap="butt"/><path d="M240.74924,178.80267c0,1.2723 -1.10687,2.30372 -2.47228,2.30372c-1.36541,0 -2.47228,-1.03141 -2.47228,-2.30372c0,-1.2723 1.10688,-2.30371 2.47228,-2.30371c1.36541,0 2.47228,1.03141 2.47228,2.30371z" fill="url(#color-76)" stroke="#000000" stroke-width="1" stroke-linecap="butt"/><path d="M223.9348,181.92979l1.18202,-2.30539l2.65451,1.15843l-0.8609,2.46596z" fill="url(#color-77)" stroke="#000000" stroke-width="0.5" stroke-linecap="butt"/><path d="M237.17624,174.98286l0.45185,1.21884" fill="none" stroke="#000000" stroke-width="1" stroke-linecap="round"/><path d="M239.85749,179.24855c0,0.7798 -0.64879,1.41196 -1.44911,1.41196c-0.80032,0 -1.44911,-0.63216 -1.44911,-1.41196c0,-0.7798 0.64879,-1.41196 1.44911,-1.41196c0.80032,0 1.44911,0.63216 1.44911,1.41196z" fill="url(#color-78)" stroke="#000000" stroke-width="0.5" stroke-linecap="butt"/><path d="M222.33732,182.99873c0.56099,-1.24427 3.73511,-2.21719 3.73511,-2.21719c0,0 1.3798,3.15847 0.8188,4.40274c-0.56099,1.24427 -2.03518,1.76361 -3.29271,1.16017c-1.25753,-0.60344 -1.82219,-2.10144 -1.2612,-3.34572z" fill="url(#color-79)" stroke="#000000" stroke-width="1" stroke-linecap="butt"/><path d="M223.98537,185.53843c-0.76216,-0.37174 -1.09957,-1.28447 -0.75375,-2.03868c0.34582,-0.75421 2.27908,-1.33336 2.27908,-1.33336c0,0 0.82656,1.92531 0.48073,2.67952c-0.34582,0.75421 -1.24396,1.0642 -2.00606,0.69253z" fill="url(#color-80)" stroke="#000000" stroke-width="0.5" stroke-linecap="butt"/><path d="M228.9421,173.0138c0.26515,0.15598 1.99982,-0.33448 1.99982,-0.33448l1.77998,4.15217l-3.31132,3.09034c0,0 -1.07107,-0.68688 -1.63015,-1.01577c-0.07991,-0.04699 -1.20427,-0.20242 -2.32546,-1.17557c-1.23852,-1.07488 -2.46374,-2.83773 -2.06382,-3.38072c0,0 1.15,-1.02569 2.53771,-1.51672c1.1078,-0.39198 2.42355,-0.16616 3.01324,0.18075z" data-paper-data="{&quot;index&quot;:null}" fill="url(#color-81)" stroke="#000000" stroke-width="1" stroke-linecap="butt"/><path d="M271.60474,178.07779c1.33245,0.29817 2.18738,1.5464 1.90954,2.788c-0.27784,1.2416 -1.58323,2.0064 -2.91569,1.70823c-1.33246,-0.29817 -2.18737,-1.54641 -1.90953,-2.78801c0.27784,-1.24159 1.58323,-2.0064 2.91569,-1.70822z" data-paper-data="{&quot;index&quot;:null}" fill="url(#color-82)" stroke="#000000" stroke-width="1" stroke-linecap="butt"/><path d="M272.09227,178.89827c0.781,0.17477 1.27609,0.93335 1.1058,1.69433c-0.17029,0.76098 -0.94147,1.2362 -1.72247,1.06143c-0.781,-0.17477 -1.27609,-0.93335 -1.1058,-1.69433c0.17029,-0.76098 0.94147,-1.2362 1.72247,-1.06143z" data-paper-data="{&quot;index&quot;:null}" fill="url(#color-83)" stroke="#000000" stroke-width="0.5" stroke-linecap="butt"/><path d="M253.5544,191.01298c-2.06021,-0.25844 -4.25159,-0.73351 -5.53683,-0.81582c-2.31819,-0.1485 -5.44321,-0.18727 -5.44321,-0.18727c0,0 0.28207,-0.59356 0.33954,-1.0642c0.06951,-0.56922 -0.01526,-1.94745 -0.01526,-1.94745c0,0 2.59468,1.05888 4.81246,1.3314c2.88756,0.35486 10.7496,0.97968 10.7496,0.97968c0,0 0.07587,0.20439 0.13751,0.5588c0.06954,0.3998 0.18636,1.64847 0.18636,1.64847c0,0 -2.3999,-0.14853 -5.23015,-0.5036z" data-paper-data="{&quot;index&quot;:null}" fill="#562718" stroke="#000000" stroke-width="1" stroke-linecap="butt"/><path d="M247.88349,189.22754c0.01101,-0.41693 0.65813,-0.72375 1.44541,-0.68528c0.78727,0.03847 1.4166,0.4077 1.40559,0.82463c-0.01101,0.41693 -0.65813,0.72375 -1.44541,0.68528c-0.78725,-0.03857 -1.41652,-0.40768 -1.40559,-0.82463z" data-paper-data="{&quot;index&quot;:null}" fill="none" stroke="url(#color-84)" stroke-width="0.5" stroke-linecap="butt"/><path d="M251.51303,189.45075l-1.67954,-0.1963" data-paper-data="{&quot;index&quot;:null}" fill="none" stroke="url(#color-85)" stroke-width="0.5" stroke-linecap="round"/><path d="M257.70892,190.69018c-0.10622,-0.02621 -0.1701,-0.15664 -0.14271,-0.2914c0.02738,-0.13467 0.13567,-0.22272 0.24189,-0.19651c0.10622,0.02621 0.17008,0.15673 0.14271,0.2914c-0.0274,0.13476 -0.13567,0.22272 -0.24189,0.19651z" data-paper-data="{&quot;index&quot;:null}" fill="#000000" stroke="none" stroke-width="0.5" stroke-linecap="butt"/><path d="M256.64464,190.42761c-0.10622,-0.02621 -0.1701,-0.15664 -0.1427,-0.2914c0.02738,-0.13467 0.13566,-0.22272 0.24189,-0.19651c0.10622,0.02621 0.17009,0.15673 0.14271,0.2914c-0.0274,0.13476 -0.13567,0.22272 -0.24189,0.19652z" data-paper-data="{&quot;index&quot;:null}" fill="#000000" stroke="none" stroke-width="0.5" stroke-linecap="butt"/><path d="M255.21069,190.29201c-0.10622,-0.02621 -0.17008,-0.15673 -0.14271,-0.2914c0.0274,-0.13476 0.13567,-0.22272 0.24189,-0.19651c0.10622,0.02621 0.1701,0.15664 0.14271,0.2914c-0.02738,0.13467 -0.13567,0.22272 -0.24189,0.19651z" data-paper-data="{&quot;index&quot;:null}" fill="#000000" stroke="none" stroke-width="0.5" stroke-linecap="butt"/><path d="M253.94052,190.19671c-0.10622,-0.02621 -0.1701,-0.15664 -0.14271,-0.2914c0.02738,-0.13467 0.13566,-0.22272 0.24189,-0.19652c0.10622,0.02621 0.17009,0.15673 0.14271,0.2914c-0.0274,0.13476 -0.13567,0.22272 -0.24189,0.19652z" data-paper-data="{&quot;index&quot;:null}" fill="#000000" stroke="none" stroke-width="0.5" stroke-linecap="butt"/><path d="M252.30719,190.02974c-0.10615,-0.02619 -0.1701,-0.15664 -0.14271,-0.2914c0.0274,-0.13476 0.13574,-0.2227 0.24189,-0.19651c0.10622,0.02621 0.1701,0.15664 0.14271,0.2914c-0.0274,0.13476 -0.13567,0.22272 -0.24189,0.19652z" data-paper-data="{&quot;index&quot;:null}" fill="#000000" stroke="none" stroke-width="0.5" stroke-linecap="butt"/><path d="M246.62826,189.37428c-0.10622,-0.02621 -0.17011,-0.15664 -0.14271,-0.2914c0.0274,-0.13476 0.13567,-0.22272 0.24189,-0.19652c0.10615,0.02619 0.1701,0.15664 0.14271,0.2914c-0.0274,0.13476 -0.13574,0.22271 -0.24189,0.19652z" data-paper-data="{&quot;index&quot;:null}" fill="#000000" stroke="none" stroke-width="0.5" stroke-linecap="butt"/><path d="M245.00683,189.22845c-0.10622,-0.02621 -0.1701,-0.15664 -0.14271,-0.2914c0.02738,-0.13467 0.13567,-0.22272 0.24189,-0.19652c0.10615,0.02619 0.17008,0.15673 0.14271,0.2914c-0.0274,0.13476 -0.13574,0.22271 -0.24189,0.19652z" data-paper-data="{&quot;index&quot;:null}" fill="#000000" stroke="none" stroke-width="0.5" stroke-linecap="butt"/><path d="M243.65735,189.18659c-0.10615,-0.02619 -0.17011,-0.15664 -0.14271,-0.2914c0.02738,-0.13467 0.13574,-0.2227 0.24189,-0.19651c0.10622,0.02621 0.17008,0.15673 0.14271,0.2914c-0.0274,0.13476 -0.13566,0.22272 -0.24189,0.19651z" data-paper-data="{&quot;index&quot;:null}" fill="#000000" stroke="none" stroke-width="0.5" stroke-linecap="butt"/><path d="M260.01401,165.42273l10.48258,-2.88395c0,0 -1.12489,7.12881 -2.92702,8.60773c-3.08746,2.53349 -8.22205,3.4693 -8.22205,3.4693c0,0 -5.14399,-0.90018 -9.40915,-3.28576c-3.63421,-2.03263 -4.94583,-10.03444 -4.94583,-10.03444z" fill="url(#color-86)" stroke="#000000" stroke-width="1" stroke-linecap="butt"/><path d="M249.95673,167.46136c-0.28191,-1.25381 -0.3323,-2.29631 -0.11253,-2.3286c0.21983,-0.03222 0.62655,0.95799 0.90847,2.2118c0.28196,1.25379 0.3323,2.29631 0.11253,2.3286c0,0 -0.76327,-0.92258 -0.90847,-2.2118z" fill="#000000" stroke="#000000" stroke-width="1" stroke-linecap="butt"/><path d="M246.17356,164.19214c-0.71223,0.01205 -1.29814,-0.55951 -1.30861,-1.27676c-0.01047,-0.71725 0.55847,-1.30852 1.27078,-1.32057c0.71223,-0.01205 1.29823,0.55952 1.3087,1.27676c0.01047,0.71725 -0.55855,1.30852 -1.27086,1.32057z" fill="#626262" stroke="#000000" stroke-width="0.5" stroke-linecap="butt"/><path d="M253.2461,168.92602c-0.28191,-1.25381 -0.3323,-2.29631 -0.11253,-2.3286c0.21983,-0.03222 0.62655,0.95799 0.90847,2.2118c0.28196,1.25379 0.3323,2.29631 0.11253,2.3286c0,0 -0.76327,-0.92258 -0.90847,-2.2118z" fill="#000000" stroke="#000000" stroke-width="1" stroke-linecap="butt"/><path d="M256.07928,170.50472c-0.28191,-1.25381 -0.3323,-2.29631 -0.11253,-2.3286c0.21983,-0.03222 0.62655,0.95799 0.90847,2.2118c0.28196,1.25379 0.3323,2.29631 0.11253,2.3286c0,0 -0.76327,-0.92258 -0.90846,-2.2118z" fill="#000000" stroke="#000000" stroke-width="1" stroke-linecap="butt"/><path d="M261.42294,172.69862c-0.21977,-0.03229 -0.16943,-1.0748 0.11253,-2.3286c0.28191,-1.25381 0.68863,-2.24401 0.90847,-2.2118c0.21977,0.03229 0.16939,1.07479 -0.11253,2.3286c-0.14519,1.28922 -0.90847,2.2118 -0.90847,2.2118z" data-paper-data="{&quot;index&quot;:null}" fill="#000000" stroke="#000000" stroke-width="1" stroke-linecap="butt"/><path d="M263.91398,171.54029c-0.21977,-0.03229 -0.16943,-1.0748 0.11253,-2.3286c0.28191,-1.25381 0.68863,-2.24402 0.90847,-2.2118c0.21977,0.03229 0.16938,1.07479 -0.11253,2.3286c-0.14519,1.28922 -0.90846,2.2118 -0.90846,2.2118z" data-paper-data="{&quot;index&quot;:null}" fill="#000000" stroke="#000000" stroke-width="1" stroke-linecap="butt"/><path d="M266.65101,170.05773c-0.21977,-0.03229 -0.16942,-1.0748 0.11253,-2.3286c0.28191,-1.25381 0.68863,-2.24401 0.90846,-2.2118c0.21977,0.03229 0.16939,1.07479 -0.11253,2.3286c-0.14519,1.28922 -0.90847,2.2118 -0.90847,2.2118z" data-paper-data="{&quot;index&quot;:null}" fill="#000000" stroke="#000000" stroke-width="1" stroke-linecap="butt"/><path d="M260.01061,165.66524l-0.45617,8.32515" fill="none" stroke="#000000" stroke-width="1" stroke-linecap="round"/><path d="M250.12562,161.92959l-0.94244,-3.73884l9.65024,3.91137l0.37222,2.37033z" fill="#000000" stroke="none" stroke-width="0" stroke-linecap="butt"/><path d="M260.79591,164.39023l0.17212,-2.06085l7.43929,-3.03455l-0.24515,3.014z" data-paper-data="{&quot;index&quot;:null}" fill="#000000" stroke="none" stroke-width="0" stroke-linecap="butt"/><path d="M260.84112,156.33395l0.33989,5.77809" fill="none" stroke="#000000" stroke-width="1" stroke-linecap="round"/><path d="M246.65085,156.92876h3.22893l9.00701,3.65379" fill="none" stroke="#000000" stroke-width="0.5" stroke-linecap="round"/><path d="M261.52092,160.32763l5.26825,-2.20927l2.29424,0.42486" fill="none" stroke="#000000" stroke-width="0.5" stroke-linecap="round"/><path d="M255.74285,151.23564l1.52949,5.77809" fill="none" stroke="#000000" stroke-width="0.5" stroke-linecap="round"/><path d="M262.79551,157.60852l0.33989,-5.94803" fill="none" stroke="#000000" stroke-width="0.5" stroke-linecap="round"/><path d="M251.71187,151.98801l0.8,3" fill="none" stroke="#000000" stroke-width="0.5" stroke-linecap="round"/><path d="M265.71187,152.98801l0.2,3" fill="none" stroke="#000000" stroke-width="0.5" stroke-linecap="round"/></g><path d="M462.48033,270.20588c0.4802,0.5761 -0.096,1.0563 -0.096,1.0563c-1.5364,1.2803 -3.1955,2.6628 -4.7319,3.9432c0,0 -0.5761,0.4802 -1.0563,-0.096c-0.4801,-0.5762 0.096,-1.0563 0.096,-1.0563c0.1054,-0.0878 0.2108,-0.1756 0.3161,-0.2634c-0.0544,-0.0151 -0.1115,-0.037 -0.1713,-0.0669c-0.6709,-0.3354 -0.3354,-1.0063 -0.3354,-1.0063c2.0124,-4.0249 4.0249,-8.0498 6.0373,-12.0747l0.2719,-0.5437c0,0 0.3354,-0.6708 1.0062,-0.3354c0.6708,0.3354 0.3354,1.0063 0.3354,1.0063c-1.9291,3.8581 -4.1079,8.2158 -6.0577,12.1154c1.0689,-0.8908 2.1379,-1.7816 3.2069,-2.6724l0.1225,-0.1022c0,0 0.5762,-0.4801 1.0563,0.0961z" fill="#00a50e" stroke="none" stroke-width="0.5" stroke-linecap="butt"/><path d="M215.89563,250.04808c0.133,-0.7381 0.8712,-0.6051 0.8712,-0.6051l0.3606,0.0649c2.7695,0.5789 5.2128,4.1302 6.4864,6.647c0,0 0.3354,0.6708 -0.3354,1.0062c-0.6708,0.3354 -1.0062,-0.3354 -1.0062,-0.3354c-0.9575,-1.9419 -3.257,-5.5413 -5.4108,-5.8415l-0.3606,-0.065c0,0 -0.7381,-0.133 -0.6051,-0.8711z" fill="#00a50e" stroke="none" stroke-width="0.5" stroke-linecap="butt"/><path d="M229.02722,260.72748c0.4947,0.5637 -0.069,1.0584 -0.069,1.0584l-0.1954,0.1715c-0.6869,0.6028 -1.654,0.9708 -2.0908,1.7736c-1.2462,2.2901 -0.2294,6.0405 0.1654,8.409c0,0 0.1233,0.7398 -0.6165,0.8631c-0.7398,0.1233 -0.8631,-0.6165 -0.8631,-0.6165c-0.4571,-2.7426 -1.4418,-6.7291 -0.0034,-9.3726c0.0819,-0.1505 2.195,-1.9875 2.419,-2.184l0.1954,-0.1715c0,0 0.5637,-0.4947 1.0584,0.069z" fill="#00a50e" stroke="none" stroke-width="0.5" stroke-linecap="butt"/><text transform="translate(145.83085,243.52843) scale(0.22821,0.20355)" font-size="40" xml:space="preserve" fill="#ffffff" fill-rule="nonzero" stroke="none" stroke-width="1" stroke-linecap="butt" stroke-linejoin="miter" stroke-miterlimit="10" stroke-dasharray="" stroke-dashoffset="0" font-family="Sans Serif" font-weight="normal" text-anchor="start" style="mix-blend-mode: normal"><tspan x="0" dy="0">By sprinGDev45</tspan></text><path d="M-117.45747,329.27899v-364.11731h660.04827l1.5445,382.65131z" fill="url(#color-87)" stroke="none" stroke-width="0" stroke-linecap="butt"/></g></g></svg>