<svg version="1.1" xmlns="http://www.w3.org/2000/svg" xmlns:xlink="http://www.w3.org/1999/xlink" width="75.0811" height="71.81374" viewBox="0,0,75.0811,71.81374"><defs><radialGradient cx="240" cy="180" r="22.91667" gradientUnits="userSpaceOnUse" id="color-1"><stop offset="0" stop-color="#000000" stop-opacity="0"/><stop offset="1" stop-color="#000000" stop-opacity="0"/></radialGradient><radialGradient cx="240" cy="180" r="37.54055" gradientUnits="userSpaceOnUse" id="color-2"><stop offset="0" stop-color="#eb8585"/><stop offset="1" stop-color="#eb8585" stop-opacity="0"/></radialGradient><radialGradient cx="240.00001" cy="180.00002" r="31.8073" gradientUnits="userSpaceOnUse" id="color-3"><stop offset="0" stop-color="#eb8585"/><stop offset="1" stop-color="#eb8585" stop-opacity="0"/></radialGradient><radialGradient cx="218.40279" cy="171.91459" r="2.43016" gradientUnits="userSpaceOnUse" id="color-4"><stop offset="0" stop-color="#eb8585"/><stop offset="1" stop-color="#eb8585" stop-opacity="0"/></radialGradient><radialGradient cx="240.96163" cy="157.17389" r="2.43016" gradientUnits="userSpaceOnUse" id="color-5"><stop offset="0" stop-color="#eb8585"/><stop offset="1" stop-color="#eb8585" stop-opacity="0"/></radialGradient><radialGradient cx="261.95822" cy="173.49067" r="2.43016" gradientUnits="userSpaceOnUse" id="color-6"><stop offset="0" stop-color="#eb8585"/><stop offset="1" stop-color="#eb8585" stop-opacity="0"/></radialGradient><radialGradient cx="254.147" cy="197.61866" r="2.43016" gradientUnits="userSpaceOnUse" id="color-7"><stop offset="0" stop-color="#eb8585"/><stop offset="1" stop-color="#eb8585" stop-opacity="0"/></radialGradient><radialGradient cx="226.37377" cy="197.09792" r="2.43016" gradientUnits="userSpaceOnUse" id="color-8"><stop offset="0" stop-color="#eb8585"/><stop offset="1" stop-color="#eb8585" stop-opacity="0"/></radialGradient></defs><g transform="translate(-202.45944,-144.09313)"><g data-paper-data="{&quot;isPaintingLayer&quot;:true}" fill-rule="nonzero" stroke="#cc0000" stroke-linejoin="miter" stroke-miterlimit="10" stroke-dasharray="" stroke-dashoffset="0" style="mix-blend-mode: normal"><path d="M260.83333,180c0,12.65653 -9.3274,22.91667 -20.83333,22.91667c-11.50593,0 -20.83333,-10.26014 -20.83333,-22.91667c0,-12.65653 9.3274,-22.91667 20.83333,-22.91667c11.50593,0 20.83333,10.26014 20.83333,22.91667z" fill="url(#color-1)" stroke-width="1" stroke-linecap="butt"/><path d="M240,215.90687c-20.73307,0 -37.54055,-16.07606 -37.54055,-35.90687c0,-19.83082 16.80748,-35.90687 37.54055,-35.90687c20.73307,0 37.54055,16.07606 37.54055,35.90687c0,19.83082 -16.80748,35.90687 -37.54055,35.90687z" fill="url(#color-2)" stroke-width="0" stroke-linecap="butt"/><path d="M239.16299,212.34395c-17.06518,-0.45696 -30.52443,-15.30826 -30.06218,-33.17131c0.46234,-17.86305 14.67104,-31.9735 31.73622,-31.51655c17.06518,0.45696 30.52443,15.30826 30.06218,33.17131c-0.46234,17.86305 -14.67104,31.97342 -31.73622,31.51655z" fill="url(#color-3)" stroke-width="4" stroke-linecap="butt"/><path d="M266.64652,188.57908l-53.35282,-1.27878l45.4358,-29.97947l-18.79502,52.35854l-17.10276,-52.90445z" fill="none" stroke-width="2.5" stroke-linecap="round"/><path d="M226.43903,201.7488c-2.73341,0 -4.94928,-2.07371 -4.94928,-4.63171c0,-2.558 2.21587,-4.63162 4.94928,-4.63162c2.73341,0 4.94928,2.07362 4.94928,4.63162c0,2.558 -2.21587,4.63171 -4.94928,4.63171z" fill="none" stroke-width="1.5" stroke-linecap="butt"/><path d="M218.52019,176.37518c-2.73341,0 -4.94928,-2.07362 -4.94928,-4.63162c0,-2.558 2.21587,-4.63171 4.94928,-4.63171c2.73341,0 4.94928,2.07371 4.94928,4.63171c0,2.558 -2.21587,4.63162 -4.94928,4.63162z" fill="none" stroke-width="1.5" stroke-linecap="butt"/><path d="M240.97945,162.16752c-2.73341,0 -4.94928,-2.07371 -4.94928,-4.63171c0,-2.558 2.21587,-4.63171 4.94928,-4.63171c2.73341,0 4.94928,2.07371 4.94928,4.63171c0,2.558 -2.21587,4.63171 -4.94928,4.63171z" fill="none" stroke-width="1.5" stroke-linecap="butt"/><path d="M261.65697,178.16638c-2.73341,0 -4.94928,-2.07362 -4.94928,-4.63162c0,-2.558 2.21587,-4.63171 4.94928,-4.63171c2.73341,0 4.94928,2.07371 4.94928,4.63171c0,2.558 -2.21587,4.63162 -4.94928,4.63162z" fill="none" stroke-width="1.5" stroke-linecap="butt"/><path d="M254.02471,202.22052c-2.73341,0 -4.94928,-2.07371 -4.94928,-4.63171c0,-2.558 2.21587,-4.63171 4.94928,-4.63171c2.73332,0 4.94919,2.07371 4.94919,4.63171c0,2.558 -2.21587,4.63171 -4.94919,4.63171z" fill="none" stroke-width="1.5" stroke-linecap="butt"/><path d="M218.40279,174.08437c-1.34214,0 -2.43016,-0.97146 -2.43016,-2.16978c0,-1.19833 1.08802,-2.16978 2.43016,-2.16978c1.34214,0 2.43016,0.97146 2.43016,2.16978c0,1.19833 -1.08802,2.16978 -2.43016,2.16978z" fill="url(#color-4)" stroke-width="1.5" stroke-linecap="butt"/><path d="M240.96163,159.34367c-1.34214,0 -2.43016,-0.97146 -2.43016,-2.16978c0,-1.19833 1.08802,-2.16978 2.43016,-2.16978c1.34214,0 2.43016,0.97146 2.43016,2.16978c0,1.19833 -1.08802,2.16978 -2.43016,2.16978z" fill="url(#color-5)" stroke-width="1.5" stroke-linecap="butt"/><path d="M261.95822,175.66045c-1.34214,0 -2.43016,-0.97146 -2.43016,-2.16978c0,-1.19833 1.08802,-2.16978 2.43016,-2.16978c1.34214,0 2.43016,0.97146 2.43016,2.16978c0,1.19833 -1.08802,2.16978 -2.43016,2.16978z" fill="url(#color-6)" stroke-width="1.5" stroke-linecap="butt"/><path d="M254.147,199.78845c-1.34214,0 -2.43016,-0.97146 -2.43016,-2.16978c0,-1.19833 1.08802,-2.16978 2.43016,-2.16978c1.34214,0 2.43016,0.97146 2.43016,2.16978c0,1.19833 -1.08802,2.16978 -2.43016,2.16978z" fill="url(#color-7)" stroke-width="1.5" stroke-linecap="butt"/><path d="M226.37377,199.2677c-1.34214,0 -2.43016,-0.97146 -2.43016,-2.16978c0,-1.19833 1.08802,-2.16978 2.43016,-2.16978c1.34214,0 2.43016,0.97146 2.43016,2.16978c0,1.19833 -1.08802,2.16978 -2.43016,2.16978z" fill="url(#color-8)" stroke-width="1.5" stroke-linecap="butt"/><path d="M230.58333,205.33334l3,-4.66667" fill="none" stroke-width="1.5" stroke-linecap="round"/><path d="M233.58333,202.66668l-3.33333,0.83333" fill="none" stroke-width="1.5" stroke-linecap="round"/><path d="M219.91666,192.00001l-2.66667,1.83333l-1.66667,-2.16667l3.16667,-1.83333" fill="none" stroke-width="1.5" stroke-linecap="round"/><path d="M217.41666,195.83334v-1.5" fill="none" stroke-width="1.5" stroke-linecap="round"/><path d="M213.58333,178.33334l2.5,1.66667v1.83333" fill="none" stroke-width="1.5" stroke-linecap="round"/><path d="M213.41666,181.33334l2.66667,-3.5" fill="none" stroke-width="1.5" stroke-linecap="round"/><path d="M218.08333,163.00001l1.83333,-1.5" fill="none" stroke-width="1.5" stroke-linecap="round"/><path d="M220.58333,164.33334l0.33333,-3.33333" fill="none" stroke-width="1.5" stroke-linecap="round"/><path d="M222.25,163.00001l-4.66667,1.83333" fill="none" stroke-width="1.5" stroke-linecap="round"/><path d="M228.25,153.50001l1.5,4.16667" fill="none" stroke-width="1.5" stroke-linecap="round"/><path d="M229.58333,152.33334l-3.16667,2" fill="none" stroke-width="1.5" stroke-linecap="round"/><path d="M228.58333,155.66667l3.16667,-1.33333l-0.16667,3.16667" fill="none" stroke-width="1.5" stroke-linecap="round"/><path d="M249.41666,156.16667l2.5,-0.83333l2.5,0.5" fill="none" stroke-width="1.5" stroke-linecap="round"/><path d="M251.25,157.50001l-3.16667,-3.66667" fill="none" stroke-width="1.5" stroke-linecap="round"/><path d="M250.58333,153.83334l1.33333,1" fill="none" stroke-width="1.5" stroke-linecap="round"/><path d="M259.58333,164.83334l2,-2.5l1.33333,3.33333l-1.66667,0.83333" fill="none" stroke-width="1.5" stroke-linecap="round"/><path d="M262.75,165.83334l2,1.16667" fill="none" stroke-width="1.5" stroke-linecap="round"/><path d="M265.41666,183.33334l-2.5,-2.83333" fill="none" stroke-width="1.5" stroke-linecap="round"/><path d="M264.58333,181.33334l3,-2.5" fill="none" stroke-width="1.5" stroke-linecap="round"/><path d="M266.58333,180.66667l0.5,2.16667" fill="none" stroke-width="1.5" stroke-linecap="round"/><path d="M263.08333,193.83334l-3.16667,0.16667" fill="none" stroke-width="1.5" stroke-linecap="round"/><path d="M261.91666,194.83334l0.83333,-3.5l2.83333,0.83333" fill="none" stroke-width="1.5" stroke-linecap="round"/><path d="M243.41666,208.50001l1,-4.16667" fill="none" stroke-width="1.5" stroke-linecap="round"/><path d="M244.08333,205.66667l4,0.16667" fill="none" stroke-width="1.5" stroke-linecap="round"/><path d="M247.08333,205.50001l0.5,2.33333" fill="none" stroke-width="1.5" stroke-linecap="round"/><path d="M249.58333,204.33334l-3.66667,2" fill="none" stroke-width="1.5" stroke-linecap="round"/><path d="M233.08333,207.00001l-0.66667,-2.66667l2.16667,0.5" fill="none" stroke-width="1.5" stroke-linecap="round"/></g></g></svg>