<svg version="1.1" xmlns="http://www.w3.org/2000/svg" xmlns:xlink="http://www.w3.org/1999/xlink" width="101.35264" height="95.30871" viewBox="0,0,101.35264,95.30871"><defs><radialGradient cx="240" cy="179.99999" r="50.67632" gradientUnits="userSpaceOnUse" id="color-1"><stop offset="0" stop-color="#a4e9ff"/><stop offset="1" stop-color="#a4e9ff" stop-opacity="0"/></radialGradient><radialGradient cx="240" cy="180" r="36.59598" gradientUnits="userSpaceOnUse" id="color-2"><stop offset="0" stop-color="#c4f0ff"/><stop offset="1" stop-color="#c4f0ff" stop-opacity="0"/></radialGradient><radialGradient cx="240" cy="180" r="29.49459" gradientUnits="userSpaceOnUse" id="color-3"><stop offset="0" stop-color="#e3f8ff"/><stop offset="1" stop-color="#e3f8ff" stop-opacity="0"/></radialGradient></defs><g transform="translate(-189.32367,-132.34565)"><g data-paper-data="{&quot;isPaintingLayer&quot;:true}" fill-rule="nonzero" stroke="none" stroke-width="0" stroke-linecap="butt" stroke-linejoin="miter" stroke-miterlimit="10" stroke-dasharray="" stroke-dashoffset="0" style="mix-blend-mode: normal"><path d="M240,227.65437c-27.98778,0 -50.67632,-21.33558 -50.67632,-47.65434c0,-26.31875 22.68852,-47.65437 50.67632,-47.65437c27.98778,0 50.67632,21.3356 50.67632,47.65437c0,26.31875 -22.68854,47.65434 -50.67632,47.65434z" fill="url(#color-1)"/><path d="M240,214.41367c-20.2114,0 -36.59598,-15.40751 -36.59598,-34.41364c0,-19.00612 16.38455,-34.41368 36.59598,-34.41368c20.2114,0 36.59598,15.40752 36.59598,34.41368c0,19.00612 -16.38456,34.41364 -36.59598,34.41364z" fill="url(#color-2)"/><path d="M240,207.73576c-16.28941,0 -29.49459,-12.41771 -29.49459,-27.73574c0,-15.31801 13.20515,-27.73575 29.49459,-27.73575c16.28941,0 29.49459,12.41773 29.49459,27.73575c0,15.31801 -13.20516,27.73574 -29.49459,27.73574z" fill="url(#color-3)"/></g></g></svg>