<svg version="1.1" xmlns="http://www.w3.org/2000/svg" xmlns:xlink="http://www.w3.org/1999/xlink" width="27.32143" height="26.92429" viewBox="0,0,27.32143,26.92429"><defs><radialGradient cx="232.81905" cy="179.80952" r="9.99047" gradientUnits="userSpaceOnUse" id="color-1"><stop offset="0" stop-color="#f4ff4f"/><stop offset="1" stop-color="#f4ff4f" stop-opacity="0"/></radialGradient><radialGradient cx="233.03973" cy="179.91663" r="4.27083" gradientUnits="userSpaceOnUse" id="color-2"><stop offset="0" stop-color="#f8ffd4"/><stop offset="1" stop-color="#fff960"/></radialGradient><linearGradient x1="239.31739" y1="189.44356" x2="245.574" y2="180.42746" gradientUnits="userSpaceOnUse" id="color-3"><stop offset="0" stop-color="#14400e"/><stop offset="1" stop-color="#091505"/></linearGradient><linearGradient x1="239.06739" y1="170.20511" x2="245.324" y2="179.22122" gradientUnits="userSpaceOnUse" id="color-4"><stop offset="0" stop-color="#14400e"/><stop offset="1" stop-color="#091505"/></linearGradient><radialGradient cx="233.18333" cy="179.95952" r="6.3119" gradientUnits="userSpaceOnUse" id="color-5"><stop offset="0" stop-color="#f4ff4f"/><stop offset="1" stop-color="#f4ff4f" stop-opacity="0"/></radialGradient><radialGradient cx="242.16956" cy="187.32341" r="6.30809" gradientUnits="userSpaceOnUse" id="color-6"><stop offset="0" stop-color="#ddfdff" stop-opacity="0"/><stop offset="1" stop-color="#ddfdff"/></radialGradient><radialGradient cx="244.14142" cy="172.45398" r="6.30809" gradientUnits="userSpaceOnUse" id="color-7"><stop offset="0" stop-color="#ddfdff" stop-opacity="0"/><stop offset="1" stop-color="#ddfdff"/></radialGradient></defs><g transform="translate(-222.82857,-165.78695)"><g data-paper-data="{&quot;isPaintingLayer&quot;:true}" fill-rule="nonzero" stroke-linejoin="miter" stroke-miterlimit="10" stroke-dasharray="" stroke-dashoffset="0" style="mix-blend-mode: normal"><path d="M249.25,179.82143c0,0.84815 -0.86345,1.53571 -1.92857,1.53571c-1.06512,0 -1.92857,-0.68756 -1.92857,-1.53571c0,-0.84815 0.86345,-1.53571 1.92857,-1.53571c1.06512,0 1.92857,0.68756 1.92857,1.53571z" fill="#2d1700" stroke="#000000" stroke-width="0.5" stroke-linecap="butt"/><path d="M243.02132,184.82408c0,0 -0.34259,-1.01332 -0.66607,-1.21389c-0.39173,-0.24289 -1.29914,-0.8055 -1.29914,-0.8055l0.97793,-1.04578" data-paper-data="{&quot;index&quot;:null}" fill="none" stroke="#000000" stroke-width="0.5" stroke-linecap="round"/><path d="M242.31975,177.75265l-0.97793,-1.04578c0,0 0.90741,-0.56262 1.29913,-0.80551c0.32349,-0.20057 0.66608,-1.21389 0.66608,-1.21389" data-paper-data="{&quot;index&quot;:null}" fill="none" stroke="#000000" stroke-width="0.5" stroke-linecap="round"/><path d="M236.06429,174.94286c0,0 0.6435,0.85444 1.01361,0.94327c0.44819,0.10756 1.48639,0.35673 1.48639,0.35673l-0.6,1.3" fill="none" stroke="#000000" stroke-width="0.5" stroke-linecap="round"/><path d="M238.17857,181.74286l0.6,1.3c0,0 -1.0382,0.24917 -1.48639,0.35673c-0.37011,0.08883 -1.01361,0.94327 -1.01361,0.94327" data-paper-data="{&quot;index&quot;:null}" fill="none" stroke="#000000" stroke-width="0.5" stroke-linecap="round"/><path d="M242.80952,179.80952c0,5.51759 -4.47289,9.99048 -9.99047,9.99048c-5.51759,0 -9.99048,-4.47289 -9.99048,-9.99048c0,-5.51759 4.47289,-9.99047 9.99048,-9.99047c5.51759,0 9.99047,4.47289 9.99047,9.99047z" fill="url(#color-1)" stroke="none" stroke-width="0" stroke-linecap="butt"/><path d="M246.275,180.125c0,0.54705 -0.71647,1.65374 -1.41342,1.96738c-0.53353,0.2401 -0.93144,-0.27432 -1.73271,-0.12203c-0.60886,0.11572 -1.27741,0.47965 -1.97887,0.47965c-0.42219,0 -0.91056,-0.34397 -1.27601,-0.35157c-0.59122,-0.01229 -1.02245,0.28976 -1.53977,0.12295c-1.30673,-0.42135 -2.30923,-1.3137 -2.30923,-2.09638c0,-0.89134 0.40564,-1.86553 2.02868,-2.25572c0.41496,-0.09976 1.09944,0.19293 1.77007,0.20437c0.48508,0.00827 0.96291,-0.27365 1.32626,-0.27365c0.80943,0 1.47504,0.33513 2.15568,0.48673c0.44982,0.10019 0.91954,-0.23811 1.29359,-0.11101c1.03914,0.35311 1.67573,1.2751 1.67573,1.94928z" fill="#221100" stroke="#000000" stroke-width="0.5" stroke-linecap="butt"/><path d="M237.65564,179.77643c0,0.99678 -1.00691,1.55774 -2.10941,2.17935c-0.83837,0.4727 -1.67289,1.13815 -2.50651,1.13815c-1.92986,0 -3.49432,-1.42253 -3.49432,-3.1773c0,-1.75477 1.56446,-3.1773 3.49432,-3.1773c0.84994,0 1.70637,0.6226 2.55561,1.05087c1.07902,0.54415 2.06031,1.00429 2.06031,1.98623z" fill="url(#color-2)" stroke="#000000" stroke-width="0.5" stroke-linecap="butt"/><path d="M245.78951,178.27992l-0.27131,-1.40584c0,0 1.06765,0.00664 1.52856,0.00951c0.38061,0.00237 1.20997,-0.67317 1.20997,-0.67317" data-paper-data="{&quot;index&quot;:null}" fill="none" stroke="#000000" stroke-width="0.5" stroke-linecap="round"/><path d="M248.34524,183.43063c0,0 -0.91817,-0.54877 -1.29445,-0.4915c-0.45567,0.06935 -1.51119,0.23 -1.51119,0.23l0.06559,-1.43028" data-paper-data="{&quot;index&quot;:null}" fill="none" stroke="#000000" stroke-width="0.5" stroke-linecap="round"/><path d="M243.075,181.35l-0.05,-2.55" fill="none" stroke="#000000" stroke-width="0.5" stroke-linecap="round"/><path d="M239.625,178.55v2.8" fill="none" stroke="#000000" stroke-width="0.5" stroke-linecap="round"/><path d="M240.575,179.2l-0.15,1.7" fill="none" stroke="#000000" stroke-width="0.05" stroke-linecap="round"/><path d="M242.525,181.2l-0.05,-1.45" fill="none" stroke="#000000" stroke-width="0.05" stroke-linecap="round"/><path d="M243.625,178.9l-0.05,1" fill="none" stroke="#000000" stroke-width="0.05" stroke-linecap="round"/><path d="M241.425,179l0.05,2.05" fill="none" stroke="#000000" stroke-width="0.05" stroke-linecap="round"/><path d="M244.225,179.4l0.05,1.5" fill="none" stroke="#000000" stroke-width="0.05" stroke-linecap="round"/><path d="M238.975,179.1v2.4" fill="none" stroke="#000000" stroke-width="0.05" stroke-linecap="round"/><path d="M246.38298,183.53061c-0.29127,1.24048 -2.89166,4.39944 -3.1966,5.52847c-0.38409,1.42211 -1.77533,2.4669 -1.77533,2.4669c0,0 -2.09893,-0.9552 -2.32775,-1.33103c-0.27606,-0.4534 0.78637,-1.20057 0.78637,-1.20057c0,0 2.17983,-2.27138 3.15452,-3.67955c1.10255,-1.5929 3.12462,-5.39213 3.12462,-5.39213c0,0 0.55877,2.22552 0.23417,3.60791z" data-paper-data="{&quot;index&quot;:null}" fill="url(#color-3)" stroke="#000000" stroke-width="0.5" stroke-linecap="butt"/><path d="M245.89881,179.72598c0,0 -2.73701,-4.46543 -3.8913,-6.13308c-0.82935,-1.19819 -2.38784,-2.9386 -2.38784,-2.9386c0,0 -1.25948,-0.952 -0.9831,-1.40593c0.22809,-0.37462 2.52449,-1.12567 2.52449,-1.12567c0,0 1.39123,1.0448 1.77533,2.4669c0.30494,1.12903 2.90532,4.28799 3.1966,5.52847c0.32459,1.38238 -0.23417,3.6079 -0.23417,3.6079z" data-paper-data="{&quot;index&quot;:null}" fill="url(#color-4)" stroke="#000000" stroke-width="0.5" stroke-linecap="butt"/><path d="M239.49523,179.95952c0,3.48597 -2.82593,6.31191 -6.3119,6.31191c-3.48597,0 -6.31191,-2.82594 -6.31191,-6.31191c0,-3.48597 2.82594,-6.3119 6.31191,-6.3119c3.48597,0 6.3119,2.82593 6.3119,6.3119z" fill="url(#color-5)" stroke="none" stroke-width="0" stroke-linecap="butt"/><path d="M242.475,188.35l2.65,-4.85" fill="none" stroke="#000000" stroke-width="0.25" stroke-linecap="round"/><path d="M244.675,175.9l-3.3,-5.4" fill="none" stroke="#000000" stroke-width="0.25" stroke-linecap="round"/><path d="M248.86019,178.5335c0.12428,0.17988 0.28615,0.72165 0.11484,0.84002c-0.17131,0.11836 -0.61094,-0.23151 -0.73522,-0.41139c-0.12428,-0.17988 -0.08615,-0.42165 0.08516,-0.54002c0.17131,-0.11836 0.41094,-0.06849 0.53522,0.11139z" fill="#000000" stroke="#000000" stroke-width="0.25" stroke-linecap="butt"/><path d="M248.27497,181.23323c-0.17131,-0.11837 -0.20945,-0.36014 -0.08517,-0.54002c0.12428,-0.17988 0.56391,-0.52976 0.73523,-0.41139c0.17131,0.11837 0.00944,0.66014 -0.11483,0.84002c-0.12428,0.17988 -0.36391,0.22976 -0.53522,0.11139z" data-paper-data="{&quot;index&quot;:null}" fill="#000000" stroke="#000000" stroke-width="0.25" stroke-linecap="butt"/><path d="M249.875,176.35c0,0 -0.08257,0.9213 -0.44584,1.30681c-0.43898,0.46585 -2.00416,1.29319 -2.00416,1.29319" fill="none" stroke="#000000" stroke-width="0.15" stroke-linecap="round"/><path d="M247.475,180.85c0,0 1.56519,0.82734 2.00417,1.29319c0.36327,0.38551 0.44583,1.3068 0.44583,1.3068" data-paper-data="{&quot;index&quot;:null}" fill="none" stroke="#000000" stroke-width="0.15" stroke-linecap="round"/><path d="M248.875,182.1l0.3,-0.3" fill="none" stroke="#000000" stroke-width="0.15" stroke-linecap="round"/><path d="M249.425,182.4l0.35,-0.15" fill="none" stroke="#000000" stroke-width="0.15" stroke-linecap="round"/><path d="M249.575,183.1l0.45,-0.05" fill="none" stroke="#000000" stroke-width="0.15" stroke-linecap="round"/><path d="M248.975,177.7l0.25,0.25" fill="none" stroke="#000000" stroke-width="0.15" stroke-linecap="round"/><path d="M249.475,177.1l0.4,0.4" fill="none" stroke="#000000" stroke-width="0.15" stroke-linecap="round"/><path d="M250.075,176.75l-0.45,-0.25" fill="none" stroke="#000000" stroke-width="0.15" stroke-linecap="round"/><path d="M244.98844,182.36116c1.14587,0.64226 0.95928,3.08609 -0.74409,6.12514c-1.56985,2.80081 -2.30229,3.98419 -3.51648,3.7574c-0.10328,-0.01929 -1.83354,0.07945 -1.92336,0.0291c-0.48716,-0.27305 -3.69686,0.71372 -3.63305,-0.23019c0.05156,-0.76255 2.46794,-1.91115 3.7938,-3.22885c0.89329,-0.88781 0.73537,-1.95003 1.12953,-2.65328c0.78844,-1.40666 1.83631,-2.94595 2.8824,-3.83598c0.72507,-0.6169 2.20867,-2.25186 2.20867,-2.25186c0,0 0.42346,0.54859 0.36169,1.06571c-0.06541,0.54756 -0.68657,1.15138 -0.55909,1.22282z" fill="url(#color-6)" stroke="#ffffff" stroke-width="0.5" stroke-linecap="butt"/><path d="M241.93181,183.26185l0.02307,0.10501l0.39813,-0.12516c0.24685,-0.08047 0.51762,0.04233 0.61735,0.28651c0.08018,0.19633 0.02647,0.41405 -0.11857,0.55178l-0.65026,0.64654l-0.00367,-0.00369l-0.00952,0.01631c-0.62797,0.46862 -1.12438,0.93208 -1.21019,1.41769l0.0613,0.07594c0.0331,0.03913 0.06072,0.08405 0.08115,0.13407c0.06735,0.1649 0.04025,0.34488 -0.0561,0.47989c0.02391,0.21638 -0.09654,0.43116 -0.30809,0.51755c-0.05497,0.02245 -0.11162,0.0344 -0.16772,0.03679l-0.86305,0.05703c-0.13687,0.03026 -0.31871,0.10638 -0.48,0.14511c0.04644,0.04074 0.09531,0.08538 0.1455,0.13273l0.09106,-0.11356l0.5666,0.45442c0.0675,0.05205 0.12259,0.12209 0.15714,0.20669c0.07878,0.1929 0.02831,0.40644 -0.11104,0.54449c0.06956,0.04555 0.13775,0.0921 0.20445,0.13903l-0.34868,0.30694l0.08336,0.15727l-0.63425,0.33619l-0.00308,-0.0058l-0.01922,0.01692c-0.4212,0.17068 -0.96532,0.40095 -1.49866,0.50022c-0.03576,0.06172 -0.08485,0.11615 -0.14526,0.15846l-0.46656,0.34212l-0.04585,-0.06252c-0.03384,0.04561 -0.06768,0.0912 -0.10153,0.13681l-0.16159,-0.0414l-0.00194,0.06366l-0.24358,-0.00743c-0.28773,0.29346 -0.49081,0.76967 -0.87022,0.73336c-0.11273,-0.01079 -0.21452,-0.04861 -0.3091,-0.10429l-0.03178,0.06188l-0.45092,-0.23157c0.11243,0.08325 0.21822,0.15112 0.29551,0.1789c0,0 0.46099,0.19364 0.26735,0.65462c-0.19364,0.46099 -0.65461,0.26735 -0.65461,0.26735c-1.8279,-0.83631 -1.59036,-3.58663 0.30745,-2.10532l0.004,0.00272l0.44733,0.05913c0.01639,-0.0355 0.03485,-0.0686 0.05536,-0.09968c0.01798,-0.12795 0.08525,-0.24637 0.18994,-0.32699l0.5715,-0.46138l0.14098,0.17462c0.46647,-0.2964 0.91946,-0.36564 1.50913,-0.53406l-0.99683,-0.59976c0.29984,-0.19577 0.64071,-0.35086 0.99527,-0.44658c-0.23626,-0.21546 -0.35983,-0.54784 -0.22232,-0.9702c0.08818,-0.27083 0.5768,-0.43279 1.00871,-0.53213c0.0237,-0.17081 0.13522,-0.32472 0.30636,-0.39462c0.02496,-0.01019 0.05026,-0.01823 0.07571,-0.02418l0.48154,-0.12083l0.00747,0.02981c0.02015,-0.01398 0.04032,-0.02796 0.06047,-0.04194l0.06694,0.06413l0.00204,-0.06679l0.09927,0.00302c-0.02052,-0.37902 0.36701,-0.91124 0.7898,-1.37703c-0.10051,-0.05285 -0.18365,-0.14005 -0.22995,-0.2534c-0.10009,-0.24508 0.00844,-0.52346 0.24283,-0.63803l0.38806,-0.19446c0.00507,-0.01491 0.01085,-0.03012 0.01737,-0.04563c0.19364,-0.46099 0.65462,-0.26735 0.65462,-0.26735z" data-paper-data="{&quot;index&quot;:null}" fill="#ffffff" stroke="none" stroke-width="0.5" stroke-linecap="butt"/><path d="M245.69746,180.80588l0.0167,0.80442c-0.67605,0.74454 -0.52886,2.03406 -0.67114,3.24115c0.587,-0.11224 1.12645,-0.0065 1.0276,0.7975c-0.10833,0.88105 -1.31694,1.18868 -1.65444,1.45887c0.0801,0.06082 0.14267,0.14631 0.17478,0.24968c0.07698,0.24785 -0.04858,0.51026 -0.2829,0.60892l-0.25307,0.11053c0.04769,0.30719 -0.15778,0.75532 -0.45157,1.13947c0.00653,0.04006 0.00762,0.08427 0.00317,0.13241c0.27133,0.16944 0.58525,0.32005 0.59059,0.60708c0.00621,0.33369 -0.69038,0.28731 -0.79952,0.6027c-0.06414,0.18537 0.53498,0.17394 0.4671,0.35799c-0.05672,0.15376 -0.22548,0.32843 -0.4251,0.47509c0.15581,0.04529 0.28662,0.16545 0.33835,0.332c0.08191,0.26372 -0.06548,0.5439 -0.3292,0.6258c-0.03548,0.01102 -0.07126,0.01789 -0.1068,0.02088l-0.6419,0.06682l-0.00208,-0.02004l-0.04359,0.02268c-0.07043,-0.00564 -0.14097,-0.01133 -0.21156,-0.01731c-0.18794,0.19968 -0.41962,0.29457 -0.64946,-0.06892c-0.26286,-0.03621 -0.52327,-0.08551 -0.77744,-0.15918c0,0 -0.47957,-0.14147 -0.3381,-0.62104c0.14147,-0.47957 0.62104,-0.3381 0.62104,-0.3381c0.10529,0.03173 0.21203,0.05801 0.31975,0.08013c0.0943,-0.20858 0.27436,-0.37521 0.4791,-0.48987c-0.07846,-0.06065 -0.13971,-0.14516 -0.17135,-0.24706c-0.02491,-0.0802 -0.02862,-0.16192 -0.01428,-0.23912l0.10173,-0.62054l0.28539,0.04679l0.01487,-0.01833c-0.0954,-0.06135 -0.17054,-0.15532 -0.20682,-0.2721c-0.07554,-0.24319 0.04393,-0.50039 0.2698,-0.60318l0.43592,-0.20684c0.22117,-0.43926 0.38063,-0.79951 0.23097,-1.0513l0.388,-0.05227l-0.03464,-0.07931c-0.51637,-0.211 0.09014,-0.8286 0.73656,-1.26338c-0.01839,-0.02074 -0.03516,-0.04315 -0.05006,-0.06709l-0.27869,-0.42587l0.14675,-0.09604l-0.21991,-0.26935c0.05233,-0.03799 0.25754,-0.14942 0.5265,-0.26184l0.01858,-0.05212l0.01989,0.00709c-0.34179,-1.10718 0.0879,-3.34657 0.64064,-4.07345l-0.19517,0.12227c0,0 -0.14831,-0.4775 0.3292,-0.6258c0.4775,-0.14831 0.6258,0.3292 0.6258,0.3292zM245.08371,185.76208c0.02264,-0.00312 0.0216,-0.00812 0.00541,-0.01517z" data-paper-data="{&quot;index&quot;:null}" fill="#ffffff" stroke="none" stroke-width="0.5" stroke-linecap="butt"/><path d="M245.92086,177.87648c-0.1372,0.04416 0.02204,0.64435 -0.17049,1.08875c-0.18702,0.43171 -0.72787,0.70861 -0.72787,0.70861c0,0 -0.49185,-1.41169 -1.08028,-2.16007c-0.84893,-1.07971 -1.57093,-2.79615 -2.06492,-4.33118c-0.24697,-0.76742 0.11836,-1.77728 -0.58125,-2.82452c-1.03839,-1.55435 -3.17918,-3.15907 -3.07857,-3.91672c0.12453,-0.93783 3.07499,0.66552 3.60659,0.49444c0.09802,-0.03154 1.77439,0.40818 1.87944,0.40973c1.23506,0.01835 1.71843,1.32342 2.70201,4.37982c1.06725,3.31636 0.76576,5.7487 -0.48467,6.15111z" data-paper-data="{&quot;index&quot;:null}" fill="url(#color-7)" stroke="#ffffff" stroke-width="0.5" stroke-linecap="butt"/><path d="M242.68209,175.77042c-0.00331,-0.0165 -0.00596,-0.03256 -0.00798,-0.04817l-0.34183,-0.26751c-0.20702,-0.15877 -0.25824,-0.45313 -0.11156,-0.67352c0.06784,-0.10193 0.16662,-0.17091 0.27562,-0.20279c-0.32209,-0.54035 -0.59643,-1.13881 -0.50121,-1.50625l-0.09791,-0.01671l0.01124,-0.06587l-0.07831,0.04958c-0.01699,-0.0177 -0.03397,-0.03539 -0.05096,-0.05309l-0.01324,0.02772l-0.44805,-0.21388c-0.02375,-0.01087 -0.04697,-0.02377 -0.06941,-0.03871c-0.15389,-0.10243 -0.23269,-0.27538 -0.22206,-0.4475c-0.40365,-0.18297 -0.85048,-0.43856 -0.88324,-0.7215c-0.05108,-0.44125 0.13593,-0.74254 0.4102,-0.90689c-0.32856,-0.16408 -0.63194,-0.38365 -0.88702,-0.63497l1.09592,-0.3903c-0.5446,-0.28195 -0.97488,-0.4396 -1.37334,-0.82257l-0.17279,0.14321l-0.46872,-0.56551c-0.08664,-0.09976 -0.12911,-0.22916 -0.12136,-0.35815c-0.01395,-0.03452 -0.02547,-0.07063 -0.03451,-0.10868l-0.45018,-0.03071l-0.00446,0.00187c-2.15376,1.07579 -1.84147,-1.66706 0.11592,-2.12449c0,0 0.49021,-0.09842 0.58864,0.39179c0.09842,0.49021 -0.39179,0.58864 -0.39179,0.58864c-0.08127,0.01192 -0.1984,0.05747 -0.3251,0.11678l0.48787,-0.13761l0.01889,0.06695c0.10374,-0.03584 0.21101,-0.05273 0.32364,-0.04096c0.3791,0.03961 0.48376,0.54662 0.70761,0.8913l0.24022,0.041l-0.01072,0.06279l0.16659,-0.00856c0.02413,0.0514 0.04827,0.10282 0.0724,0.15422l0.05733,-0.0522l0.3895,0.4278c0.05083,0.05344 0.08817,0.11651 0.11097,0.1841c0.50308,0.20301 0.99077,0.53655 1.36978,0.78733l0.01548,0.0204l0.00416,-0.00508l0.55504,0.45524l-0.11287,0.13762l0.28094,0.36996c-0.07467,0.03278 -0.15075,0.06488 -0.22795,0.09575c0.10923,0.16293 0.11638,0.38224 0.00092,0.5557c-0.05064,0.07608 -0.11851,0.1338 -0.19499,0.17144l-0.64543,0.33311l-0.06675,-0.12935c-0.05859,0.03646 -0.11531,0.07053 -0.16891,0.10125c0.15042,0.06992 0.31356,0.18058 0.44172,0.23736l0.83462,0.22696c0.05451,0.01346 0.10767,0.03641 0.15711,0.06931c0.19023,0.12661 0.26572,0.361 0.1994,0.56835c0.06767,0.15144 0.05857,0.33322 -0.04012,0.4815c-0.02994,0.04498 -0.0659,0.08354 -0.10611,0.11534l-0.07514,0.06228c-0.01215,0.49299 0.38255,1.04563 0.90519,1.62942l0.00609,0.01788l0.00432,-0.00288l0.50922,0.7626c0.11486,0.16376 0.12436,0.38779 0.00685,0.56433c-0.14614,0.21957 -0.43588,0.28627 -0.66189,0.15848l-0.36542,-0.20158l-0.04342,0.09836c0,0 -0.49021,0.09842 -0.58864,-0.39179z" fill="#ffffff" stroke="none" stroke-width="0.5" stroke-linecap="butt"/><path d="M244.89862,179.39512c-0.41623,-0.27704 -0.13919,-0.69327 -0.13919,-0.69327l0.15272,0.17238c-0.32512,-0.85334 -0.10533,-3.12296 0.53503,-4.08867l-0.02107,0.00118l-0.00311,-0.05525c-0.22629,-0.18376 -0.39172,-0.34858 -0.43121,-0.39979l0.28698,-0.19633l-0.11368,-0.13354l0.38754,-0.32991c0.02105,-0.01876 0.04347,-0.03553 0.06696,-0.05023c-0.49744,-0.59953 -0.90498,-1.36322 -0.35006,-1.4199l0.05562,-0.06631l-0.35747,-0.15964c0.21463,-0.19931 0.16332,-0.58992 0.07513,-1.07375l-0.35982,-0.32147c-0.18767,-0.16236 -0.2297,-0.44282 -0.0886,-0.6548c0.06776,-0.1018 0.16638,-0.17074 0.27521,-0.20268l-0.0091,-0.02178l-0.28699,-0.03566l0.07753,-0.62402c0.00805,-0.07811 0.03466,-0.15546 0.0812,-0.22537c0.05911,-0.08882 0.14173,-0.15262 0.23411,-0.18866c-0.16406,-0.16779 -0.28976,-0.37846 -0.32137,-0.60517c-0.10959,-0.00918 -0.21941,-0.01409 -0.32937,-0.01337c0,0 -0.5,0.00037 -0.50037,-0.49963c-0.00037,-0.5 0.49963,-0.50037 0.49963,-0.50037c0.26463,0.00106 0.52836,0.02726 0.79076,0.0667c0.32308,-0.28386 0.51857,-0.12743 0.6425,0.11717c0.0694,0.01419 0.13869,0.02864 0.20784,0.0431l0.03542,0.03407l0.00766,-0.01864l0.59694,0.24526c0.03326,0.0129 0.06565,0.02959 0.09658,0.05018c0.22988,0.153 0.2922,0.46339 0.13919,0.69327c-0.09663,0.14518 -0.25604,0.22353 -0.4183,0.22301c0.15012,0.19704 0.26273,0.41223 0.27374,0.57575c0.01318,0.19572 -0.55836,0.01566 -0.54914,0.21161c0.01569,0.33338 0.69706,0.48548 0.59692,0.80385c-0.08614,0.27385 -0.4298,0.32974 -0.73792,0.41572c-0.00933,0.04744 -0.02283,0.08954 -0.04041,0.12613c0.17343,0.45145 0.24407,0.93935 0.11163,1.22059l0.21159,0.17747c0.19695,0.16078 0.24335,0.44795 0.09954,0.66401c-0.05997,0.09011 -0.14413,0.15447 -0.23814,0.19021c0.24754,0.35445 1.32019,0.99067 1.17546,1.86648c-0.13207,0.79921 -0.67944,0.74841 -1.2109,0.47506c-0.20418,1.19817 -0.70932,2.39373 -0.27088,3.2988l-0.24305,0.767c0,0 -0.27704,0.41623 -0.69327,0.13919zM246.40277,174.34408c0.01752,-0.00219 0.01994,-0.00669 -0.00091,-0.01607z" fill="#ffffff" stroke="none" stroke-width="0.5" stroke-linecap="butt"/></g></g></svg>