<svg version="1.1" xmlns="http://www.w3.org/2000/svg" xmlns:xlink="http://www.w3.org/1999/xlink" width="586.84704" height="474.51659" viewBox="0,0,586.84704,474.51659"><defs><linearGradient x1="235.62612" y1="329.66313" x2="235.91194" y2="276.84101" gradientUnits="userSpaceOnUse" id="color-1"><stop offset="0" stop-color="#b19e40"/><stop offset="1" stop-color="#84762f"/></linearGradient><linearGradient x1="250.12676" y1="68.64508" x2="250.61028" y2="-17.6449" gradientUnits="userSpaceOnUse" id="color-2"><stop offset="0" stop-color="#84762f"/><stop offset="1" stop-color="#b19e40"/></linearGradient><radialGradient cx="37.69906" cy="260.34892" r="11.97674" gradientUnits="userSpaceOnUse" id="color-3"><stop offset="0" stop-color="#7aca00"/><stop offset="1" stop-color="#52a535"/></radialGradient><radialGradient cx="37.17664" cy="258.92472" r="3.64075" gradientUnits="userSpaceOnUse" id="color-4"><stop offset="0" stop-color="#c9b065"/><stop offset="1" stop-color="#dec36f"/></radialGradient><radialGradient cx="426.93127" cy="88.04778" r="11.97674" gradientUnits="userSpaceOnUse" id="color-5"><stop offset="0" stop-color="#7aca00"/><stop offset="1" stop-color="#52a535"/></radialGradient><radialGradient cx="427.51643" cy="86.64817" r="3.64075" gradientUnits="userSpaceOnUse" id="color-6"><stop offset="0" stop-color="#c9b065"/><stop offset="1" stop-color="#dec36f"/></radialGradient><radialGradient cx="405.29925" cy="71.76014" r="10.46895" gradientUnits="userSpaceOnUse" id="color-7"><stop offset="0" stop-color="#7aca00"/><stop offset="1" stop-color="#52a535"/></radialGradient><radialGradient cx="404.81823" cy="70.52444" r="3.1824" gradientUnits="userSpaceOnUse" id="color-8"><stop offset="0" stop-color="#c9b065"/><stop offset="1" stop-color="#dec36f"/></radialGradient><radialGradient cx="312.88541" cy="321.06692" r="15.17454" gradientUnits="userSpaceOnUse" id="color-9"><stop offset="0" stop-color="#7aca00"/><stop offset="1" stop-color="#52a535"/></radialGradient><radialGradient cx="312.35396" cy="319.21979" r="4.61283" gradientUnits="userSpaceOnUse" id="color-10"><stop offset="0" stop-color="#c9b065"/><stop offset="1" stop-color="#dec36f"/></radialGradient><radialGradient cx="27.98012" cy="66.70484" r="15.17454" gradientUnits="userSpaceOnUse" id="color-11"><stop offset="0" stop-color="#7aca00"/><stop offset="1" stop-color="#52a535"/></radialGradient><radialGradient cx="26.23101" cy="65.90801" r="4.61283" gradientUnits="userSpaceOnUse" id="color-12"><stop offset="0" stop-color="#c9b065"/><stop offset="1" stop-color="#dec36f"/></radialGradient></defs><g transform="translate(48.24703,70.25944)"><g data-paper-data="{&quot;isPaintingLayer&quot;:true}" fill-rule="nonzero" stroke-linejoin="miter" stroke-miterlimit="10" stroke-dasharray="" stroke-dashoffset="0" style="mix-blend-mode: normal"><path d="M-25.49703,187.53907l231.66772,-0.34825l108.09104,2.16748l184.70687,4.62747" data-paper-data="{&quot;index&quot;:null}" fill="none" stroke="#333333" stroke-width="45.5" stroke-linecap="round"/><path d="M-23.47234,148.81801l231.66771,-0.34815l108.09104,2.16738l187.71105,3.6401" data-paper-data="{&quot;index&quot;:null}" fill="none" stroke="#333333" stroke-width="45.5" stroke-linecap="round"/><path d="M-19.35475,169.96023l231.66772,-0.34824l108.09104,2.16748l194.71519,2.66955" data-paper-data="{&quot;index&quot;:null}" fill="none" stroke="#ffe400" stroke-width="10" stroke-linecap="round"/><path d="M67.79981,190.05592l-0.12211,-38.01222l31.3601,-0.10073l0.1221,38.01222z" data-paper-data="{&quot;index&quot;:null}" fill="#333333" stroke="none" stroke-width="0" stroke-linecap="butt"/><path d="M155.09344,188.05871l-0.12516,-38.96253l24.70796,-0.07936l0.12515,38.96253z" data-paper-data="{&quot;index&quot;:null}" fill="#333333" stroke="none" stroke-width="0" stroke-linecap="butt"/><path d="M237.58161,188.66473l-0.11904,-37.06193l38.01222,-0.1221l0.11905,37.06193z" data-paper-data="{&quot;index&quot;:null}" fill="#333333" stroke="none" stroke-width="0" stroke-linecap="butt"/><path d="M333.39783,191.8734l-0.00298,-40.86335l25.65839,-0.00187l0.00297,40.86334z" data-paper-data="{&quot;index&quot;:null}" fill="#333333" stroke="none" stroke-width="0" stroke-linecap="butt"/><path d="M415.36012,195.23358l-0.56969,-40.85938l25.65589,-0.3577l0.56969,40.85938z" data-paper-data="{&quot;index&quot;:null}" fill="#333333" stroke="none" stroke-width="0" stroke-linecap="butt"/><path d="M-16.498,191.47052l-0.15568,-48.4656l34.21101,-0.10989l0.15568,48.4656z" data-paper-data="{&quot;index&quot;:null}" fill="#333333" stroke="none" stroke-width="0" stroke-linecap="butt"/><path d="M227.96572,299.28459l70.70726,-15.6644l56.96002,2.19299l-8.29833,5.40211l34.36731,8.86044l22.13429,-8.57606l57.58538,0.49934l46.07522,9.9923l-7.34548,25.356c0,0 -14.92763,0.08818 -38.39966,0.22077c-1.27883,-0.92585 -2.67022,-1.72073 -4.04,-2.43305c-4.22421,-2.19671 -11.3523,-1.77958 -15.82683,-1.7612c-3.86748,0.01589 -7.74582,-0.16905 -11.60182,0.12913c-1.05096,0.08127 -1.95399,0.86973 -3,1c-1.45023,0.18061 -2.93015,-0.23339 -4.38355,-0.08046c-0.86185,0.09068 -2.26885,0.34932 -3.89356,0.68958c-3.34044,-0.40554 -6.69338,-0.7288 -10.12106,-0.73824c-5.06556,0.061 -10.0801,1.16084 -15.03629,2.20952c-3.33778,0.70624 -5.01832,0.77924 -7.14034,1.20584c-0.37573,-0.12778 -0.75018,-0.25958 -1.12374,-0.39424c-0.29731,0.19906 -0.59495,0.39774 -0.89365,0.59439c-11.78886,0.06214 -23.94246,0.12503 -36.18369,0.18677c-0.12901,-0.56856 -0.20889,-1.16354 -0.50986,-1.64938c-0.4965,-0.80148 -1.46044,-1.22685 -2,-2c-0.42244,-0.60534 -0.75233,-1.27704 -1.07083,-1.95529c-0.44416,-0.02586 -0.88879,-0.04864 -1.33459,-0.06863c-0.70711,-1.60739 -1.41527,-3.2156 -2.38119,-4.668c-4.59155,-6.90405 -7.42687,-9.21353 -14.51297,-11.26706c-3.719,-7.55334 -12.09805,-4.63889 -12.09805,-4.63889c-2.76841,0.96293 -6.33133,2.2022 -9.99011,3.47482c-3.80019,0.78115 -7.58821,1.98343 -11.57415,3.38471c-0.1627,0.0572 -0.327,0.11102 -0.49264,0.16202c-4.9161,-4.32002 -11.46944,-1.17669 -16.64327,-0.52792c-5.74059,0.71984 -11.9505,1.55183 -17.48409,3.57248c-1.7886,0.65313 -3.24033,2.2937 -5.13236,2.50798c-1.22494,0.13872 -2.52281,-0.24113 -3.69571,0.13838c-2.52266,0.81626 -7.93721,4.11876 -11.30429,4.86162c-5.3565,1.18176 -11.78295,0.88355 -17.39818,0.87087c-6.75529,0 -7.05476,-0.41895 -13.83772,-2.48683c-1.27431,-0.38849 -2.70193,-0.365 -3.87061,-1.00075c-0.06557,-0.04155 -0.13159,-0.08227 -0.19803,-0.12221c-0.45332,-0.32072 -0.74849,-0.82903 -1.072,-1.30984c0.06418,-1.24552 0.21918,-2.50898 -0.15076,-3.68219c-0.66195,-2.09929 -1.21071,-4.41119 -2.25742,-6.3515c-0.87386,-0.63668 -1.77901,-1.22859 -2.71421,-1.76432c-3.7794,-2.16504 -9.00924,-2.22856 -12.50971,-4.70571c-1.09977,-0.77827 -2.22895,-1.57014 -3.38585,-2.35354c-1.56735,-0.47919 -3.17627,-0.83883 -4.78185,-1.14819c-0.15409,-0.02969 -0.30891,-0.05147 -0.46433,-0.06668c-4.69561,-3.61467 -9.472,-6.12284 -15.33215,-7.70967c0,0 -4.16441,-1.0411 -7.71849,0.96934c-0.45081,-0.26139 -0.91496,-0.49875 -1.3968,-0.7042c-1.94252,-0.82826 -4.20149,-0.44843 -6.31007,-0.56372c-5.0911,-0.27836 -9.63097,-0.08917 -14.39351,2.01685c-1.09918,0.48606 -1.90403,1.50676 -3,2c-1.73939,0.78281 -3.52525,1.42081 -5.34144,1.96373c-4.51059,0.02686 -8.62915,0.38282 -13.09188,2.78063c-0.11929,0.06409 -0.24012,0.12677 -0.36225,0.18826c-3.61738,0.72341 -7.20235,1.54038 -10.63775,2.81174c-1.25185,0.46328 -2.14924,1.62352 -3.3705,2.16232c-1.32688,0.5854 -2.79312,0.78209 -4.18968,1.17313c-0.79467,-0.00724 -1.58934,-0.0141 -2.38402,-0.02059c-0.00238,-0.00038 -0.00476,-0.00076 -0.00713,-0.00114c-1.35709,-0.21727 -2.63723,-0.82183 -4,-1c-0.52936,-0.06921 -1.06843,-0.09833 -1.61345,-0.10236c-0.65174,0.04259 -1.40917,0.07245 -2.37195,0.09335c-0.19389,0.01298 -0.38786,0.02639 -0.58173,0.03961c-2.1516,0.52849 -4.37459,0.82906 -6.59289,0.88594c-2.39508,-0.00784 -4.79019,-0.0134 -7.18531,-0.01716c-0.09089,-0.0394 -0.18372,-0.08492 -0.27306,-0.12611c-0.3435,-1.07889 -0.73889,-2.1558 -1.53237,-2.91925c-0.00667,-0.00641 -0.01335,-0.0128 -0.02006,-0.01916c-3.30085,-0.14884 -6.79664,0.09023 -10.05101,0.09023c-1,0 -2.00943,-0.13701 -3,0c-0.14564,0.02014 0.0247,0.5034 -0.10216,0.42908c-0.69913,-0.40963 -1.09652,-1.28204 -1.85231,-1.57422c-2.19253,-0.84763 -4.50549,-1.39064 -6.8237,-1.77993c-3.35094,-0.56272 -7.80708,-0.33944 -11.22183,-0.07492c-2.28287,0.17684 -4.70703,-0.10437 -6.82683,0.7612c-2.48335,1.01402 -4.09441,3.44566 -6.14114,5.19877c-0.13285,0.00381 -0.26645,0.00838 -0.40072,0.01375c-5.35926,-0.08045 -13.31571,-0.15253 -16.70237,2.9552c-2.51847,2.31105 -1.9093,6.56424 -2.85401,9.84924c-1.17101,4.07192 -1.84593,8.31208 -2.07391,12.60973l-31.97596,1.01296l40.52142,-51.23814l43.24686,-1.31104l37.01701,7.42018l83.97488,-13.51244z" fill="url(#color-1)" stroke="none" stroke-width="0" stroke-linecap="butt"/><path d="M169.82697,282.60123c25.35269,3.73702 45.73135,37.12264 45.73135,37.12264c0,0 52.53807,-18.72607 74.60214,-21.52539c22.06407,-2.79932 56.94572,4.8356 56.94572,4.8356l-7.91643,11.91853c-4.18243,-5.5764 -7.53906,-7.24659 -16.03268,-9.31723c-11.07686,-2.70041 -19.95551,-0.42097 -30.12165,3.15301c-0.1627,0.0572 -0.327,0.11102 -0.49264,0.16202c-4.9161,-4.32002 -11.46944,-1.17669 -16.64327,-0.52792c-5.74059,0.71984 -11.9505,1.55183 -17.48409,3.57248c-1.7886,0.65313 -3.24033,2.2937 -5.13236,2.50798c-1.22494,0.13872 -2.52281,-0.24113 -3.69571,0.13838c-2.52266,0.81626 -7.93721,4.11876 -11.30429,4.86162c-5.3565,1.18176 -11.78295,0.88355 -17.39818,0.87087c-6.75529,0 -7.05476,-0.41895 -13.83772,-2.48683c-1.28683,-0.39231 -2.72999,-0.3645 -3.90497,-1.01968c-0.85553,-0.47705 -1.1685,-1.59554 -1.91742,-2.22691c-0.67249,-0.56694 -7.31763,-4.92781 -7.94637,-5.24973c-2.55517,-1.30827 -4.72443,-1.90714 -7.05363,-3.75027c-3.21946,-2.54761 -5.61957,-6.18731 -8.78787,-8.82112c-5.28956,-4.39721 -10.51922,-7.3577 -17.12666,-9.14689c0,0 -4.16441,-1.0411 -7.71849,0.96934c-0.45081,-0.26139 -0.91496,-0.49875 -1.3968,-0.7042c-1.94252,-0.82826 -4.20149,-0.44843 -6.31007,-0.56372c-5.0911,-0.27836 -9.63097,-0.08917 -14.39351,2.01685c-1.09918,0.48606 -1.90403,1.50676 -3,2c-9.30517,4.18778 -19.94026,4.2312 -29.43332,7.74436c-1.25185,0.46328 -2.14924,1.62352 -3.3705,2.16232c-1.32688,0.5854 -2.79312,0.78209 -4.18968,1.17313c-23.53571,-0.21435 -47.07623,-0.09666 -70.61299,-0.09666c-5.03141,0 -15.13601,-0.68202 -19.07107,2.92893c-2.51847,2.31105 -1.9093,6.56424 -2.85401,9.84924c-4.35283,15.13591 -1.85102,32.59638 4.9808,46.69397c0,0 2.11801,4.23602 6.35403,5.42013c0.54015,1.24965 1.09968,2.44922 1.64597,3.57987c0,0 4.47214,8.94427 13.41641,4.47214c3.62351,-1.81176 5.04508,-4.35749 5.45412,-6.74516c0.30563,-0.06698 0.60913,-0.1352 0.90969,-0.20349c0.10646,0.00437 0.16406,0.00437 0.16406,0.00437h3c16.1771,0 32.10361,2.06975 48.29111,1.97484c6.75082,0.96672 13.1817,3.54628 19.87454,4.85548c10.46458,2.047 11.2336,0.74333 20.47789,1.16333c21.02531,0.95524 42.32363,2.06058 63.35506,-0.04363c16.77146,-1.678 31.67521,-6.65024 48.05743,-10.00593c0.94623,-0.19382 1.9278,0.13084 2.89327,0.15884c6.66386,0.19327 13.32906,0.33772 19.99362,0.50494c13.08062,0.32821 26.15752,1.13408 39.18059,2.40288c6.79651,0.66216 13.58345,1.43311 20.39042,1.97743c8.03845,0.6428 16.13058,-0.18732 24.19234,0.00751c11.34961,0.27428 22.66653,1.33574 34,2c26.53642,0.02667 55.70826,0.09488 79.29235,-14.33463c3.81431,-2.33372 7.94975,-4.68425 10.48535,-8.36744c2.15965,-3.13709 3.74941,-15.02897 1.33278,-19.01219c-1.78307,-2.93897 -4.94008,-4.93422 -7.98991,-6.52022c-4.22421,-2.19671 -11.3523,-1.77958 -15.82683,-1.7612c-3.86748,0.01589 -7.74582,-0.16905 -11.60182,0.12913c-1.05096,0.08127 -1.95399,0.86973 -3,1c-1.45023,0.18061 -2.93015,-0.23339 -4.38355,-0.08046c-3.09225,0.32537 -13.20222,2.81283 -15.2071,3.47462c-8.15677,2.69245 -16.16428,6.68899 -24.89869,7.53642c-5.50134,0.53375 -11.05481,-0.04451 -16.5815,0.02877c-1.26921,-0.35721 -3.19648,-0.86693 -5.31512,-1.45901c-1.37864,-0.5991 -2.76322,-1.17434 -4.22796,-1.469c-0.45209,-0.09095 -0.90735,-0.15401 -1.36494,-0.19634c-1.83607,-0.59537 -3.5121,-1.20752 -4.71738,-1.78976c-1.5201,-0.73432 -3.21459,-1.44667 -4.21659,-2.80532c-2.21015,-2.99681 -3.09748,-6.80749 -5.15953,-9.90807c-0.43284,-0.65084 -0.85007,-1.26084 -1.25673,-1.83365l31.23735,10.94996l24.07873,-10.94966c0,0 37.12849,-3.80277 57.58316,0.90894c7.70531,1.77491 25.84028,-3.50769 33.35362,0.40861c12.43168,6.47998 12.65148,22.54386 12.65148,22.54386l-7.52633,58.77823c0,0 -268.19081,4.825 -318.4906,4.66053c-50.29978,-0.16447 -103.25962,-7.9402 -103.25962,-7.9402l-114.51389,8.89572l31.11596,-97.8974c0,0 36.62293,-21.02532 52.99623,-18.20701c16.37331,2.8183 36.9975,11.02625 36.9975,11.02625c0,0 68.29672,-20.31475 93.64941,-16.57773z" fill="#e1c648" stroke="none" stroke-width="0" stroke-linecap="butt"/><path d="" fill="#e1c648" stroke="none" stroke-width="0" stroke-linecap="butt"/><path d="" fill="#e1c648" stroke="none" stroke-width="0" stroke-linecap="butt"/><path d="M416.64632,351.07195c-0.00467,0.00096 -0.00934,0.00191 -0.014,0.00287c0.02822,-0.07232 0.07231,-0.12281 0.15041,-0.13006c0.21753,-0.02019 0.4341,-0.0323 0.64979,-0.03727c-0.26183,0.05594 -0.52389,0.11078 -0.78619,0.16447z" fill="#e1c648" stroke="none" stroke-width="0" stroke-linecap="butt"/><path d="M446.91896,338.54903c-0.232,-0.35196 0.43048,0.56122 0.54102,1.15347c-0.14916,-0.40163 -0.30695,-0.79837 -0.54102,-1.15347z" fill="#e1c648" stroke="none" stroke-width="0" stroke-linecap="butt"/><path d="" fill="#e1c648" stroke="none" stroke-width="0" stroke-linecap="butt"/><path d="" fill="#e1c648" stroke="none" stroke-width="0" stroke-linecap="butt"/><path d="" fill="#e1c648" stroke="none" stroke-width="0" stroke-linecap="butt"/><path d="M262.3755,42.59547l-77.21359,15.10528l-58.97424,-3.46442l8.61209,-8.84199l-35.55585,-14.40307l-22.95047,14.05554l-59.62781,-0.6964l-47.67538,-16.22781l7.69625,-41.43637c0,0 277.69871,-3.14342 329.78349,-2.97894c52.08478,0.16447 106.93658,5.69808 106.93658,5.69808l118.56234,-6.1618l-42.14177,83.78573l-44.78672,2.23128l-38.30473,-12.04479l-96.94486,11.59839zM167.87027,-9.57751c-1.11567,-0.09762 -2.23724,-0.1737 -3.36342,-0.23188c-3.50175,-0.71914 -6.84268,-2.3247 -10.40012,-2.74186c-4.70841,-0.55214 -9.48122,-0.04995 -14.22183,-0.07492c-27.66667,0 -55.33333,0 -83,0c-12.02041,0 -23.90255,-0.17735 -35.82481,1.03407c-1.5845,0.161 -3.20398,-0.15412 -4.77702,0.09505c-3.07858,0.48766 -7.86798,2.80598 -10.46811,3.92381l-2.70969,3.44248c-2.59024,1.15866 -4.84686,3.17794 -6.45917,6.67775c-3.15501,6.84854 2.0404,13.88005 6.98148,17.33334c4.27081,2.98484 11.12646,3.80106 16.03548,4.41857c3.31209,0.41663 6.7688,2.12278 10.02795,2.8313c4.6874,1.01901 8.50059,1.24362 13.19388,1.24362c9.33333,0 18.66667,0 28,0c3.91012,0 8.38626,0.53136 12.22183,-0.07492c5.27928,-0.83449 10.58443,-1.85296 15.605,-3.68628c1.12894,-0.41224 1.87835,-1.56832 3,-2c1.8855,-0.72565 4.08603,-0.51593 5.89174,-1.42205c1.25415,-0.62934 2.14728,-1.79229 3.10088,-2.84358c0.3594,0.11196 0.79463,0.0176 1.18054,0.02683c3.99537,0.09557 8.00322,0 12,0c7.67588,-0.08429 15.38924,2.4028 22.80769,4.61276c3.6229,5.26345 9.50838,8.3478 15.4784,10.672c2.26087,0.88018 4.44287,2.06359 6.82283,2.5348c3.69146,0.73088 7.55193,-0.38863 11.28925,0.05131c1.04686,0.12323 1.95735,0.84513 3,1c1.08322,0.16089 7.28257,0.13402 8.60182,0.12913c9.19712,-0.0341 18.70533,-0.98495 27.17857,-4.91487c5.34931,-2.48103 8.80596,-6.10498 13.37345,-9.53059c0.67694,-0.67694 1.36977,-1.33902 2.06237,-2.00133c2.65277,0.14794 5.29813,0.29797 7.93247,0.43652c10.61276,0.55815 20.53745,0.99441 31.06008,2.91277c4.57589,0.45574 9.40522,0.95414 14.24685,1.21808c1.22879,3.59936 1.73144,7.58783 3.97206,10.63991c2.62503,3.5757 7.5341,5.57649 11.34732,7.47831c2.74167,0.87736 5.3803,2.19146 8.22501,2.63208c5.57113,0.86291 12.7917,0.12913 18.60182,0.12913c6.99866,0 14.00179,0.06644 21,0c2.53419,-0.02406 5.10077,0.28005 7.60182,-0.12913c5.16389,-0.84481 10.11511,-2.7378 15.02341,-4.55113c0.97185,-0.35904 1.66438,-1.34749 2.6723,-1.58726c1.29714,-0.30857 2.75496,0.47712 4,0c3.7882,-1.45169 7.5618,-3.183 10.77354,-5.66142c1.40987,-1.08796 1.44385,-3.31461 2.60645,-4.66359c1.00657,-1.16794 2.73451,-1.54854 3.74845,-2.71008c0.43781,-0.50155 0.81414,-1.04792 1.16138,-1.61577c1.47167,-0.04406 2.94303,-0.08162 4.41265,-0.08162c0.6166,0 1.23328,-0.00333 1.85001,-0.009c7.20878,7.33823 15.31162,12.25396 25.07329,15.52394c8.08013,2.70669 15.74556,2.68234 24.07669,2.48507c2.43346,-0.05762 4.93812,0.33101 7.29753,-0.26751c2.68185,-0.68032 5.03852,-2.28906 7.52931,-3.49369c2.1011,-1.01617 4.56563,-1.54615 6.24423,-3.16773c1.3682,-1.32172 1.80933,-3.32421 2.61096,-5.07107h2.31797c5.52285,0 10,-4.47715 10,-10c0,-2.28764 -0.76816,-4.39586 -2.06061,-6.08081l-2.93939,-3.91919l-0.20489,0.15367c-0.34352,-0.57775 -0.73249,-1.12982 -1.17709,-1.65045c-1.76469,-2.06646 -3.98205,-3.6216 -6.3912,-4.93849c-0.50179,-1.38327 -1.06386,-2.72273 -2.15576,-3.6358c-2.48514,-2.07813 -5.94546,-2.57484 -8.91818,-3.86225c-1.93579,0.14632 -3.876,0.24926 -5.81489,0.36511c-8.99855,-2.3789 -19.23491,-2.11758 -28.1628,-1.39771c-2.02103,0.16296 -3.97752,0.85612 -6,1c-6.81504,0.48483 -11.7222,-0.53451 -18.72205,-1.0238c-6.75992,-0.47252 -13.68254,-0.01027 -20.45314,-0.01027c-1.5475,0 -7.24946,-0.00661 -8.68052,0.03373c-4.24907,-0.04095 -14.30218,-0.03373 -17.31948,-0.03373c-0.85118,0 -20.52231,-0.04466 -21.60182,0.12913c-2.02786,0.32645 -3.94396,1.10168 -5.87018,1.84734c-1.17607,0.00468 -2.35208,0.0122 -3.52799,0.02353c-2.46632,0.02377 -4.97958,0.61254 -7.39818,0.12913c-3.9879,-0.79708 -7.57597,-3.07397 -11.55435,-3.91727c-4.12551,-0.87449 -8.38777,-0.90255 -12.59433,-1.20158c-4.72395,-0.33581 -9.54698,0.05212 -14.34547,0.26905c-3.85123,-1.21618 -7.91126,-1.61002 -12.93532,-2.21037c-5.16339,-0.61699 -9.78983,-1.53588 -14.82692,-1.1059c-4.8097,-0.55837 -20.19355,-1.88462 -21.92986,-1.95442c-9.9053,-0.39821 -21.13019,-0.87423 -31.07786,0.01332c-11.0468,0.98561 -22.26584,3.0088 -33.46437,2.36301c-0.62381,-0.15026 -1.25046,-0.28051 -1.88798,-0.33629z" data-paper-data="{&quot;index&quot;:null}" fill="url(#color-2)" stroke="none" stroke-width="0" stroke-linecap="butt"/><path d="M197.57327,43.49409c0,0 -28.06639,8.05086 -46.02414,3.31503c-17.61805,-4.64624 -6.75846,-19.83104 -10.07414,-25.373c1.75235,0.50794 3.49295,1.03669 5.2176,1.55047c3.6229,5.26345 9.50838,8.3478 15.4784,10.672c2.26087,0.88018 4.44287,2.06359 6.82283,2.5348c3.69146,0.73088 7.55193,-0.38863 11.28925,0.05131c1.04686,0.12323 1.95735,0.84513 3,1c1.08322,0.16089 7.28257,0.13402 8.60182,0.12913c9.19712,-0.0341 18.70533,-0.98495 27.17857,-4.91487c5.34931,-2.48103 8.80596,-6.10498 13.37345,-9.53059c0.67694,-0.67694 1.36977,-1.33902 2.06237,-2.00133c2.65277,0.14794 5.29813,0.29797 7.93247,0.43652c10.61276,0.55815 20.53745,0.99441 31.06008,2.91277c4.57589,0.45574 9.40522,0.95414 14.24685,1.21808c1.22879,3.59936 1.73144,7.58783 3.97206,10.63991c2.62503,3.5757 7.5341,5.57649 11.34732,7.47831c2.74167,0.87736 5.3803,2.19146 8.22501,2.63208c5.57113,0.86291 12.7917,0.12913 18.60182,0.12913c6.99866,0 14.00179,0.06644 21,0c2.53419,-0.02406 5.10077,0.28005 7.60182,-0.12913c5.16389,-0.84481 10.11511,-2.7378 15.02341,-4.55113c0.97185,-0.35904 1.66438,-1.34749 2.6723,-1.58726c1.29714,-0.30857 2.75496,0.47712 4,0c3.7882,-1.45169 7.5618,-3.183 10.77354,-5.66142c1.40987,-1.08796 1.44385,-3.31461 2.60645,-4.66359c1.00657,-1.16794 2.73451,-1.54854 3.74845,-2.71008c0.43781,-0.50155 0.81414,-1.04792 1.16138,-1.61577c1.47167,-0.04406 2.94303,-0.08162 4.41265,-0.08162c0.6166,0 1.23328,-0.00333 1.85001,-0.009c7.20878,7.33823 15.31162,12.25396 25.07329,15.52394c8.08013,2.70669 15.74556,2.68234 24.07669,2.48507c2.43346,-0.05762 4.93812,0.33101 7.29753,-0.26751c2.68185,-0.68032 5.03852,-2.28906 7.52931,-3.49369c2.1011,-1.01617 4.56563,-1.54615 6.24423,-3.16773c1.3682,-1.32172 1.80933,-3.32421 2.61096,-5.07107h2.31797c5.52285,0 10,-4.47715 10,-10c0,-2.28764 -0.76816,-4.39586 -2.06061,-6.08081l-2.93939,-3.91919l-0.20489,0.15367c-0.34352,-0.57775 -0.73249,-1.12982 -1.17709,-1.65045c-1.76469,-2.06646 -3.98205,-3.6216 -6.3912,-4.93849c-0.50179,-1.38327 -1.06386,-2.72273 -2.15576,-3.6358c-2.48514,-2.07813 -5.94546,-2.57484 -8.91818,-3.86225c-1.93579,0.14632 -3.876,0.24926 -5.81489,0.36511c-8.99855,-2.3789 -19.23491,-2.11758 -28.1628,-1.39771c-2.02103,0.16296 -3.97752,0.85612 -6,1c-6.81504,0.48483 -11.7222,-0.53451 -18.72205,-1.0238c-6.75992,-0.47252 -13.68254,-0.01027 -20.45314,-0.01027c-1.5475,0 -7.24946,-0.00661 -8.68052,0.03373c-4.24907,-0.04095 -14.30218,-0.03373 -17.31948,-0.03373c-0.85118,0 -20.52231,-0.04466 -21.60182,0.12913c-2.02786,0.32645 -3.94396,1.10168 -5.87018,1.84734c-1.17607,0.00468 -2.35208,0.0122 -3.52799,0.02353c-2.46632,0.02377 -4.97958,0.61254 -7.39818,0.12913c-3.9879,-0.79708 -7.57597,-3.07397 -11.55435,-3.91727c-4.12551,-0.87449 -8.38777,-0.90255 -12.59433,-1.20158c-4.72395,-0.33581 -9.54698,0.05212 -14.34547,0.26905c-3.85123,-1.21618 -7.91126,-1.61002 -12.93532,-2.21037c-5.16339,-0.61699 -9.78983,-1.53588 -14.82692,-1.1059c-4.8097,-0.55837 -20.19355,-1.88462 -21.92986,-1.95442c-9.9053,-0.39821 -21.13019,-0.87423 -31.07786,0.01332c-11.0468,0.98561 -22.26584,3.0088 -33.46437,2.36301c-0.62381,-0.15026 -1.25046,-0.28051 -1.88798,-0.33629c-1.11567,-0.09762 -2.23724,-0.1737 -3.36342,-0.23188c-3.50175,-0.71914 -6.84268,-2.3247 -10.40012,-2.74186c-4.70841,-0.55214 -9.48122,-0.04995 -14.22183,-0.07492c-27.66667,0 -55.33333,0 -83,0c-12.02041,0 -23.90255,-0.17735 -35.82481,1.03407c-1.5845,0.161 -3.20398,-0.15412 -4.77702,0.09505c-3.07858,0.48766 -7.86798,2.80598 -10.46811,3.92381l-2.70969,3.44248c-2.59024,1.15866 -4.84686,3.17794 -6.45917,6.67775c-3.15501,6.84854 2.0404,13.88005 6.98148,17.33334c4.27081,2.98484 11.12646,3.80106 16.03548,4.41857c3.31209,0.41663 6.7688,2.12278 10.02795,2.8313c4.6874,1.01901 8.50059,1.24362 13.19388,1.24362c9.33333,0 18.66667,0 28,0c3.31163,0 7.02927,0.38115 10.41991,0.1295c-7.43967,1.59339 -42.52007,8.55657 -64.23727,3.18336c-24.39498,-6.03572 -41.59762,-30.02995 -41.59762,-30.02995l7.83087,-65.46245c0,0 277.71176,-5.47315 329.79654,-5.30868c52.08478,0.16447 106.91916,8.80438 106.91916,8.80438l118.58356,-9.94947l-44.35546,121.89918c0,0 -31.76305,5.23774 -48.78621,2.09213c-17.02317,-3.14562 -24.97247,-16.03379 -43.01725,-15.96653c-18.0448,0.06727 -38.32316,25.43492 -76.12676,19.45492c-18.14321,-2.87 -26.19184,2.89066 -35.81863,-4.41668c-10.43181,-7.91839 -21.68451,-28.82388 -21.68451,-28.82388z" data-paper-data="{&quot;index&quot;:null}" fill="#e1c648" stroke="none" stroke-width="0" stroke-linecap="butt"/><path d="M109.61824,23.37051c-3.5732,-0.02699 -6.774,0.13891 -9.61209,0.42367c0.54066,-0.44742 1.06181,-0.93381 1.70557,-1.18157c1.8855,-0.72565 4.08603,-0.51593 5.89174,-1.42205c1.25415,-0.62934 2.14728,-1.79229 3.10088,-2.84358c0.3594,0.11196 0.79463,0.0176 1.18054,0.02683c3.99537,0.09557 8.00322,0 12,0c3.4707,-0.03811 6.94907,0.44949 10.40437,1.19947c-5.31115,0.95635 -13.23954,3.88356 -24.67102,3.79722z" data-paper-data="{&quot;index&quot;:null}" fill="#e1c648" stroke="none" stroke-width="0" stroke-linecap="butt"/><g stroke-linecap="butt"><path d="M27.18977,263.78076c-2.05331,-6.2878 0.98732,-12.92156 6.79144,-14.81693c5.80412,-1.89537 12.17384,1.66541 14.22715,7.9532c2.05331,6.2878 -0.98732,12.92156 -6.79144,14.81694c-5.80412,1.89537 -12.17384,-1.66541 -14.22715,-7.95321z" fill="url(#color-3)" stroke="none" stroke-width="0"/><path d="M44.7356,253.89494c0.95432,-0.31162 1.98059,0.20934 2.29221,1.16366c0.31162,0.95432 -0.20938,1.98053 -1.16367,2.29221c-0.95432,0.31162 -1.98059,-0.20934 -2.29221,-1.16366c-0.31162,-0.95432 0.20934,-1.98059 1.16367,-2.29221z" fill="#c1c6ad" stroke="none" stroke-width="0.5"/><path d="M43.98824,263.31758c0.95426,-0.3116 1.98053,0.20937 2.29216,1.16369c0.31168,0.95429 -0.20934,1.98058 -1.16366,2.29221c-0.95432,0.31162 -1.98053,-0.20937 -2.29221,-1.16366c-0.31162,-0.95432 0.2094,-1.98061 1.16366,-2.29221z" fill="#c1c6ad" stroke="none" stroke-width="0.5"/><path d="M31.36347,259.79139c0.95432,-0.31162 1.98062,0.2094 2.29225,1.16372c0.3116,0.95427 -0.20938,1.98053 -1.1637,2.29215c-0.95429,0.31168 -1.98058,-0.20934 -2.29221,-1.16366c-0.31162,-0.95432 0.20937,-1.98053 1.16366,-2.29221z" fill="#c1c6ad" stroke="none" stroke-width="0.5"/><path d="M36.05181,268.50064c0.95429,-0.31168 1.98058,0.20934 2.29221,1.16366c0.31162,0.95432 -0.20937,1.98054 -1.16369,2.29216c-0.95429,0.31168 -1.98059,-0.20935 -2.29222,-1.16367c-0.31162,-0.95432 0.20938,-1.98053 1.1637,-2.29215z" fill="#c1c6ad" stroke="none" stroke-width="0.5"/><path d="M38.02217,251.70346c0.95432,-0.31162 1.98053,0.20938 2.29221,1.16367c0.31162,0.95432 -0.20934,1.98059 -1.16367,2.29221c-0.95432,0.31162 -1.98059,-0.20935 -2.29221,-1.16367c-0.31162,-0.95432 0.20938,-1.98054 1.16367,-2.29221z" fill="#c1c6ad" stroke="none" stroke-width="0.5"/><path d="M35.6984,262.01166c1.17721,-0.38448 2.2785,-0.24584 2.45991,0.30956c0.18133,0.55537 -0.62598,1.31723 -1.80314,1.70168c-1.17719,0.38439 -2.27858,0.24581 -2.4599,-0.30955c-0.18136,-0.55543 0.62595,-1.31729 1.80313,-1.70168z" fill="#c1c6ad" stroke="none" stroke-width="0.5"/><path d="M43.68633,268.59844c0.18136,0.55543 -0.62589,1.31726 -1.80313,1.70168c-1.17716,0.38445 -2.2785,0.24585 -2.45991,-0.30955c-0.18133,-0.55537 0.62595,-1.31729 1.80313,-1.70168c1.17724,-0.38442 2.27858,-0.24581 2.45991,0.30956z" fill="#c1c6ad" stroke="none" stroke-width="0.5"/><path d="M34.85801,256.58429c0.18138,0.55534 -0.62589,1.31726 -1.80307,1.70165c-1.17724,0.38442 -2.27856,0.24587 -2.45997,-0.30953c-0.18133,-0.55537 0.62595,-1.31729 1.80314,-1.70168c1.17724,-0.38442 2.27855,-0.24587 2.4599,0.30956z" fill="#c1c6ad" stroke="none" stroke-width="0.5"/><path d="M30.50007,250.64845c0.63386,-0.47904 1.53606,-0.3535 2.01504,0.28038c0.47899,0.63388 0.35348,1.536 -0.28038,2.01504c-0.63388,0.47898 -1.53608,0.35345 -2.01507,-0.28044c-0.47904,-0.63386 -0.35348,-1.536 0.28038,-2.01504z" fill="#c1c6ad" stroke="none" stroke-width="0.5"/><path d="M39.85665,260.16675c0.63394,-0.47901 1.53609,-0.35345 2.01507,0.28044c0.47904,0.63386 0.35348,1.536 -0.28038,2.01504c-0.63388,0.47899 -1.53608,0.35345 -2.01507,-0.28044c-0.47904,-0.63386 -0.35342,-1.53603 0.28038,-2.01504z" fill="#c1c6ad" stroke="none" stroke-width="0.5"/><path d="M38.38782,264.84254c0.63386,-0.47904 1.536,-0.35348 2.01504,0.28038c0.47899,0.63389 0.35345,1.53608 -0.28044,2.01507c-0.63388,0.47899 -1.53603,0.35342 -2.01507,-0.28044c-0.47899,-0.63389 -0.35342,-1.53602 0.28044,-2.01506z" fill="#c1c6ad" stroke="none" stroke-width="0.5"/><path d="M33.30882,254.86976c0.23709,-0.16459 0.40169,0.0725 0.40169,0.0725c0.09751,0.14044 0.34131,0.49166 0.43885,0.63215c0,0 0.16456,0.23704 -0.07253,0.40163c-0.23704,0.16457 -0.40161,-0.07247 -0.40161,-0.07247c-0.09754,-0.14049 -0.19507,-0.28098 -0.29258,-0.42142l-0.14626,-0.21072c0,0 -0.16459,-0.2371 0.07245,-0.40167z" fill="#c9c9c9" stroke="none" stroke-width="0.5"/><path d="M35.72601,254.21505c0.73918,0.80638 0.93137,2.40864 0.93137,2.40864c0,0 -0.36222,2.17601 -1.00843,2.7683c-0.49474,0.45354 -2.53711,0.48174 -2.53711,0.48174c0,0 -1.46377,-0.51374 -2.16457,-1.27817c-1.02988,-1.12351 -4.64326,-8.65122 -4.04007,-9.20417c0.5775,-0.52937 7.79301,3.70466 8.8188,4.82366z" fill="#b965c9" stroke="#904e9d" stroke-width="0.5"/><path d="M40.65868,255.91663c-0.07737,1.09109 -1.10869,2.33227 -1.10869,2.33227c0,0 -1.82913,1.23307 -2.70356,1.17109c-0.66945,-0.04743 -2.09417,-1.5111 -2.09417,-1.5111c0,0 -0.63337,-1.41618 -0.56006,-2.45058c0.10777,-1.52029 3.08965,-9.31979 3.9059,-9.26195c0.78149,0.05543 2.66788,8.20602 2.56056,9.72021z" fill="#b965c9" stroke="#904e9d" stroke-width="0.5"/><path d="M40.7457,261.67328c-1.03739,0.34702 -2.57923,-0.12943 -2.57923,-0.12943c0,0 -1.84022,-1.21639 -2.1183,-2.04772c-0.21294,-0.6365 0.59239,-2.51357 0.59239,-2.51357c0,0 1.06497,-1.12804 2.04843,-1.45708c1.44538,-0.48353 9.79205,-0.72077 10.05164,0.0552c0.24857,0.743 -6.55536,5.61099 -7.99493,6.09259z" fill="#b965c9" stroke="#a459b3" stroke-width="0.5"/><path d="M35.73828,263.98414c-0.72317,-0.8207 -0.88379,-2.4265 -0.88379,-2.4265c0,0 0.40502,-2.16841 1.06267,-2.74793c0.50361,-0.44366 2.5461,-0.43169 2.5461,-0.43169c0,0 1.45341,0.54241 2.13898,1.32049c1.00759,1.14357 4.47215,8.74093 3.85818,9.28188c-0.5878,0.51791 -7.71859,-3.85729 -8.72213,-4.99626z" fill="#b965c9" stroke="#a95bb8" stroke-width="0.5"/><path d="M31.88333,260.13742c0.52302,-1.05797 2.05999,-1.87606 2.05999,-1.87606c0,0 2.33028,-0.48396 3.17807,-0.06483c0.64914,0.32085 1.4738,2.36447 1.4738,2.36447c0,0 0.05392,1.6729 -0.44189,2.67592c-0.72874,1.47409 -6.89279,8.04416 -7.68424,7.65293c-0.75773,-0.3746 0.68846,-9.2842 1.41427,-10.75243z" fill="#b965c9" stroke="#904e9d" stroke-width="0.5"/><path d="M33.87671,260.0023c-0.62418,-1.9114 0.34726,-3.94335 2.16976,-4.5385c1.82249,-0.59515 3.80591,0.47189 4.4301,2.38329c0.62418,1.9114 -0.34726,3.94335 -2.16976,4.5385c-1.82249,0.59515 -3.80591,-0.47189 -4.4301,-2.38329z" fill="url(#color-4)" stroke="none" stroke-width="0"/><path d="M35.17996,255.43013c-0.10357,0.01752 -0.33928,0.02349 -0.43035,-0.25538c-0.1183,-0.36221 0.24394,-0.48045 0.24394,-0.48045l0.80239,0.13872c0.25042,0.76687 0.33257,1.35007 0.32765,2.15744c0,0 -0.00231,0.38101 -0.38332,0.37869c-0.38103,-0.00237 -0.37864,-0.38335 -0.37864,-0.38335c0.00368,-0.60264 -0.04034,-1.0353 -0.18167,-1.55568z" fill="#c9b065" stroke="none" stroke-width="0.5"/><path d="M41.03737,258.46672c-0.0562,0.37681 -0.43307,0.32064 -0.43307,0.32064l-0.32066,-0.05167c-0.67084,-0.00411 -1.33055,-0.08711 -1.96872,0.12905c0,0 -0.3622,0.11829 -0.4805,-0.24392c-0.11827,-0.36215 0.24394,-0.48044 0.24394,-0.48044c0.73506,-0.23305 1.44409,-0.17138 2.20999,-0.16667l0.42831,0.05998c0,0 0.37687,0.05617 0.3207,0.43303z" fill="#c9b065" stroke="none" stroke-width="0.5"/><path d="M38.89718,255.60175c0.11827,0.36215 -0.24394,0.48045 -0.24394,0.48045l0.06053,-0.13714c-0.26358,0.49687 -0.63175,0.68433 -0.86398,1.1728c0,0 -0.17247,0.33976 -0.51224,0.1673c-0.33971,-0.1725 -0.16727,-0.51218 -0.16727,-0.51218c0.26358,-0.49687 0.63175,-0.68433 0.86395,-1.17286l0.38245,-0.24228c0,0 0.3622,-0.1183 0.4805,0.24391z" fill="#c9b065" stroke="none" stroke-width="0.5"/><path d="M38.99176,262.02832c-0.36221,0.11829 -0.48047,-0.24386 -0.48047,-0.24386l0.00342,-0.05251c-0.47033,-0.63515 -1.0692,-1.09562 -1.33066,-1.82991c0,0 -0.11826,-0.36215 0.24395,-0.48044c0.36215,-0.11827 0.48045,0.24394 0.48045,0.24394c0.1666,0.59162 0.83205,1.09078 1.21871,1.61293l0.10856,0.26941c0,0 0.11827,0.36215 -0.24394,0.48045z" fill="#c9b065" stroke="none" stroke-width="0.5"/><path d="M34.55763,257.73024c0.0562,-0.37681 0.43306,-0.32064 0.43306,-0.32064l0.49077,0.09294c0.56947,0.28906 1.13888,0.57816 1.70829,0.86725c0,0 0.33977,0.17246 0.1673,0.51223c-0.1725,0.33971 -0.51221,0.16722 -0.51221,0.16722c-0.56941,-0.28909 -1.13888,-0.57816 -1.70829,-0.86725l-0.25822,-0.01872c0,0 -0.37687,-0.05617 -0.3207,-0.43303z" fill="#c9b065" stroke="none" stroke-width="0.5"/><path d="M33.90894,261.81087c-0.22675,-0.30625 0.07943,-0.53298 0.07943,-0.53298l0.44224,-0.32713c0.33657,-0.20101 0.62204,-0.51622 0.79165,-0.86965c0,0 0.1725,-0.33972 0.51221,-0.16721c0.33969,0.17244 0.16728,0.51218 0.16728,0.51218c-0.24233,0.45805 -0.60748,0.87101 -1.04151,1.15406l-0.41839,0.3102c0,0 -0.30619,0.22673 -0.53291,-0.07946z" fill="#c9b065" stroke="none" stroke-width="0.5"/></g><path d="M280.67008,191.87031c-0.41429,-0.00174 -0.74858,-0.33895 -0.74684,-0.75314c0.00174,-0.4142 0.33886,-0.74859 0.75315,-0.74684c0.4142,0.00174 0.74857,0.33895 0.74683,0.75315c-0.00174,0.4142 -0.33895,0.74858 -0.75314,0.74684z" fill="#ffc400" stroke="none" stroke-width="0.5" stroke-linecap="butt"/><path d="M252.67032,191.75255c-0.4143,-0.00174 -0.74858,-0.33895 -0.74684,-0.75315c0.00174,-0.4142 0.33885,-0.74858 0.75315,-0.74684c0.4142,0.00174 0.74858,0.33895 0.74684,0.75315c-0.00174,0.4142 -0.33895,0.74858 -0.75315,0.74684z" fill="#ffc400" stroke="none" stroke-width="0.5" stroke-linecap="butt"/><path d="M258.61136,205.77767c-0.41429,-0.00174 -0.74858,-0.33895 -0.74684,-0.75315c0.00174,-0.4142 0.33886,-0.74858 0.75315,-0.74684c0.4142,0.00174 0.74858,0.33895 0.74684,0.75315c-0.00174,0.4142 -0.33895,0.74858 -0.75315,0.74684z" fill="#ffc400" stroke="none" stroke-width="0.5" stroke-linecap="butt"/><path d="M215.69588,185.59694c-0.4143,-0.00174 -0.74858,-0.33895 -0.74684,-0.75314c0.00174,-0.4142 0.33885,-0.74858 0.75315,-0.74684c0.4142,0.00174 0.74858,0.33895 0.74684,0.75314c-0.00174,0.4142 -0.33895,0.74858 -0.75315,0.74684z" fill="#ffc400" stroke="none" stroke-width="0.5" stroke-linecap="butt"/><path d="M164.72158,179.38249c-0.4142,-0.00174 -0.74858,-0.33895 -0.74684,-0.75315c0.00174,-0.4142 0.33895,-0.74858 0.75315,-0.74684c0.4142,0.00174 0.74858,0.33895 0.74684,0.75315c-0.00174,0.4142 -0.33895,0.74858 -0.75315,0.74684z" fill="#ffc400" stroke="none" stroke-width="0.5" stroke-linecap="butt"/><path d="M170.78461,164.40786c-0.4142,-0.00174 -0.74858,-0.33895 -0.74684,-0.75315c0.00174,-0.4142 0.33895,-0.74858 0.75315,-0.74684c0.4142,0.00174 0.74858,0.33895 0.74684,0.75315c-0.00174,0.4142 -0.33895,0.74858 -0.75315,0.74684z" fill="#ffc400" stroke="none" stroke-width="0.5" stroke-linecap="butt"/><path d="M354.82505,155.18191c-0.41429,-0.00174 -0.74857,-0.33895 -0.74683,-0.75315c0.00174,-0.4142 0.33885,-0.74858 0.75314,-0.74684c0.4142,0.00174 0.74858,0.33895 0.74684,0.75315c-0.00174,0.4142 -0.33895,0.74858 -0.75315,0.74684z" fill="#ffc400" stroke="none" stroke-width="0.5" stroke-linecap="butt"/><path d="M341.79573,162.12715c-0.41429,-0.00174 -0.74858,-0.33895 -0.74684,-0.75315c0.00174,-0.4142 0.33885,-0.74858 0.75315,-0.74684c0.4142,0.00174 0.74858,0.33895 0.74684,0.75315c-0.00174,0.4142 -0.33895,0.74858 -0.75314,0.74684z" fill="#ffc400" stroke="none" stroke-width="0.5" stroke-linecap="butt"/><path d="M345.87561,143.14415c-0.41429,-0.00174 -0.74858,-0.33895 -0.74684,-0.75314c0.00174,-0.4142 0.33885,-0.74859 0.75315,-0.74684c0.4142,0.00174 0.74858,0.33895 0.74684,0.75315c-0.00174,0.4142 -0.33895,0.74858 -0.75315,0.74684z" fill="#ffc400" stroke="none" stroke-width="0.5" stroke-linecap="butt"/><path d="M276.84254,150.85385c-0.41429,-0.00174 -0.74857,-0.33895 -0.74683,-0.75315c0.00174,-0.4142 0.33885,-0.74858 0.75314,-0.74684c0.4142,0.00174 0.74858,0.33895 0.74684,0.75315c-0.00174,0.4142 -0.33895,0.74858 -0.75315,0.74684z" fill="#ffc400" stroke="none" stroke-width="0.5" stroke-linecap="butt"/><path d="M369.66929,192.24468c-0.41429,-0.00174 -0.74858,-0.33895 -0.74684,-0.75315c0.00174,-0.4142 0.33885,-0.74858 0.75315,-0.74683c0.4142,0.00174 0.74858,0.33895 0.74684,0.75314c-0.00174,0.4142 -0.33895,0.74858 -0.75315,0.74684z" fill="#ffc400" stroke="none" stroke-width="0.5" stroke-linecap="butt"/><path d="M330.68645,188.08067c-0.41429,-0.00174 -0.74857,-0.33895 -0.74683,-0.75315c0.00174,-0.4142 0.33885,-0.74858 0.75315,-0.74684c0.4142,0.00174 0.74858,0.33895 0.74684,0.75315c-0.00174,0.4142 -0.33895,0.74858 -0.75315,0.74684z" fill="#ffc400" stroke="none" stroke-width="0.5" stroke-linecap="butt"/><path d="M297.70358,183.94191c-0.4142,-0.00174 -0.74858,-0.33895 -0.74684,-0.75315c0.00174,-0.4142 0.33895,-0.74858 0.75315,-0.74684c0.4142,0.00174 0.74857,0.33895 0.74683,0.75315c-0.00174,0.4142 -0.33895,0.74858 -0.75314,0.74684z" fill="#e2c645" stroke="none" stroke-width="0.5" stroke-linecap="butt"/><path d="M246.78815,163.72754c-0.4142,-0.00174 -0.74858,-0.33895 -0.74684,-0.75315c0.00174,-0.4142 0.33895,-0.74858 0.75315,-0.74684c0.4142,0.00174 0.74858,0.33895 0.74684,0.75315c-0.00174,0.4142 -0.33895,0.74858 -0.75315,0.74684z" fill="#e2c645" stroke="none" stroke-width="0.5" stroke-linecap="butt"/><path d="M302.63203,200.96279c-0.4142,-0.00174 -0.74858,-0.33895 -0.74684,-0.75315c0.00174,-0.4142 0.33895,-0.74858 0.75315,-0.74684c0.4142,0.00174 0.74858,0.33895 0.74684,0.75314c-0.00174,0.4142 -0.33895,0.74858 -0.75314,0.74684z" fill="#e2c645" stroke="none" stroke-width="0.5" stroke-linecap="butt"/><path d="M185.83706,151.97106c-0.25,-0.00105 -0.24894,-0.25105 -0.24894,-0.25105c0.0007,-0.1667 0.0035,-0.83329 0.0042,-0.99999c0,0 0.00105,-0.25 0.25105,-0.24895c0.25,0.00105 0.24895,0.25105 0.24895,0.25105c-0.0007,0.1667 -0.00141,0.33329 -0.00211,0.49999l-0.00211,0.5c0,0 -0.00105,0.24999 -0.25105,0.24894z" fill="#e2c645" stroke="none" stroke-width="0.5" stroke-linecap="butt"/><path d="M150.83524,152.32384c0.25,0.00105 0.24894,0.25105 0.24894,0.25105c-0.0007,0.1667 -0.0035,0.83329 -0.0042,0.99999c0,0 -0.00105,0.24999 -0.25105,0.24894c-0.25,-0.00105 -0.24895,-0.25105 -0.24895,-0.25105c0.0007,-0.1667 0.0014,-0.3333 0.0021,-0.5l0.00211,-0.5c0,0 0.00105,-0.24999 0.25105,-0.24894z" fill="#e2c645" stroke="none" stroke-width="0.5" stroke-linecap="butt"/><path d="M159.9046,135.86184c-0.1381,-0.00058 -0.24953,-0.11294 -0.24895,-0.25105c0.00058,-0.1381 0.11295,-0.24953 0.25105,-0.24895c0.138,0.00058 0.24953,0.11295 0.24894,0.25105c-0.00058,0.1381 -0.11304,0.24953 -0.25105,0.24895z" fill="#e2c645" stroke="none" stroke-width="0.5" stroke-linecap="butt"/><path d="M189.6049,147.73689c0.00105,-0.25 0.25105,-0.24894 0.25105,-0.24894c0.1666,0.0007 0.83329,0.0035 0.99999,0.0042c0,0 0.25,0.00105 0.24895,0.25105c-0.00105,0.25 -0.25105,0.24895 -0.25105,0.24895c-0.1667,-0.0007 -0.33339,-0.0014 -0.49999,-0.0021l-0.5,-0.00211c0,0 -0.25,-0.00105 -0.24895,-0.25105z" fill="#e2c645" stroke="none" stroke-width="0.5" stroke-linecap="butt"/><path d="M120.66939,191.69731c-0.1381,-0.00058 -0.24952,-0.11294 -0.24894,-0.25104c0.00058,-0.1381 0.11295,-0.24953 0.25105,-0.24895c0.138,0.00058 0.24953,0.11295 0.24895,0.25105c-0.00058,0.1381 -0.11305,0.24953 -0.25105,0.24894z" fill="#e2c645" stroke="none" stroke-width="0.5" stroke-linecap="butt"/><path d="M285.60902,206.39123c-0.1381,-0.00058 -0.24953,-0.11295 -0.24894,-0.25105c0.00058,-0.1381 0.11294,-0.24953 0.25104,-0.24894c0.138,0.00058 0.24953,0.11295 0.24895,0.25105c-0.00058,0.1381 -0.11305,0.24953 -0.25105,0.24894z" fill="#e2c645" stroke="none" stroke-width="0.5" stroke-linecap="butt"/><path d="M263.6681,192.29882c-0.1381,-0.00058 -0.24953,-0.11295 -0.24894,-0.25105c0.00058,-0.1381 0.11295,-0.24953 0.25105,-0.24895c0.138,0.00058 0.24953,0.11295 0.24895,0.25105c-0.00058,0.1381 -0.11305,0.24953 -0.25105,0.24895z" fill="#e2c645" stroke="none" stroke-width="0.5" stroke-linecap="butt"/><path d="M282.60906,206.37861c-0.1381,-0.00058 -0.24953,-0.11295 -0.24894,-0.25105c0.00058,-0.1381 0.11295,-0.24953 0.25105,-0.24894c0.138,0.00058 0.24953,0.11295 0.24895,0.25105c-0.00058,0.1381 -0.11305,0.24953 -0.25105,0.24894z" fill="#e2c645" stroke="none" stroke-width="0.5" stroke-linecap="butt"/><path d="M270.57552,214.32805c-0.1381,-0.00058 -0.24953,-0.11295 -0.24894,-0.25105c0.00058,-0.1381 0.11295,-0.24953 0.25105,-0.24894c0.138,0.00058 0.24953,0.11295 0.24895,0.25105c-0.00058,0.1381 -0.11305,0.24953 -0.25105,0.24894z" fill="#e2c645" stroke="none" stroke-width="0.5" stroke-linecap="butt"/><path d="M268.59236,210.31969c-0.1381,-0.00058 -0.24953,-0.11294 -0.24894,-0.25105c0.00058,-0.1381 0.11294,-0.24953 0.25104,-0.24895c0.138,0.00058 0.24953,0.11295 0.24895,0.25105c-0.00058,0.1381 -0.11305,0.24953 -0.25105,0.24895z" fill="#e2c645" stroke="none" stroke-width="0.5" stroke-linecap="butt"/><path d="M265.34763,209.05601c0.00105,-0.25 0.25105,-0.24895 0.25105,-0.24895c0.1666,0.0007 0.83329,0.00351 0.99999,0.00421c0,0 0.25,0.00105 0.24894,0.25105c-0.00105,0.25 -0.25104,0.24895 -0.25104,0.24895c-0.1667,-0.0007 -0.3334,-0.00141 -0.5,-0.00211l-0.5,-0.00211c0,0 -0.25,-0.00105 -0.24894,-0.25105z" fill="#e2c645" stroke="none" stroke-width="0.5" stroke-linecap="butt"/><path d="M232.35634,206.91723c0.00105,-0.25 0.25105,-0.24895 0.25105,-0.24895c0.1666,0.0007 0.83329,0.00351 0.99999,0.00421c0,0 0.25,0.00105 0.24895,0.25105c-0.00105,0.25 -0.25105,0.24895 -0.25105,0.24895c-0.1667,-0.0007 -0.33339,-0.00141 -0.49999,-0.00211l-0.5,-0.00211c0,0 -0.24999,-0.00105 -0.24894,-0.25105z" fill="#e2c645" stroke="none" stroke-width="0.5" stroke-linecap="butt"/><path d="M223.60116,208.13042c-0.1381,-0.00058 -0.24953,-0.11294 -0.24894,-0.25105c0.00058,-0.1381 0.11295,-0.24953 0.25105,-0.24895c0.138,0.00058 0.24953,0.11295 0.24894,0.25105c-0.00058,0.1381 -0.11305,0.24953 -0.25105,0.24894z" fill="#e2c645" stroke="none" stroke-width="0.5" stroke-linecap="butt"/><path d="M282.59641,209.37858c-0.1381,-0.00058 -0.24953,-0.11295 -0.24894,-0.25105c0.00058,-0.1381 0.11295,-0.24953 0.25105,-0.24895c0.138,0.00058 0.24953,0.11294 0.24894,0.25105c-0.00058,0.1381 -0.11305,0.24953 -0.25105,0.24895z" fill="#e2c645" stroke="none" stroke-width="0.5" stroke-linecap="butt"/><path d="M312.8524,207.21472c0.04006,0.24677 -0.2067,0.28683 -0.2067,0.28683c-1.97417,0.3205 -4.02999,0.65425 -6.00416,0.97475c0,0 -0.24678,0.04006 -0.28683,-0.2067c-0.04006,-0.24677 0.20671,-0.28683 0.20671,-0.28683c1.97417,-0.3205 3.94823,-0.641 5.92239,-0.9615l0.08176,-0.01325c0,0 0.24677,-0.04006 0.28683,0.20671z" fill="#e2c645" stroke="none" stroke-width="0.5" stroke-linecap="butt"/><path d="M335.64646,197.6016c-0.1381,-0.00058 -0.24953,-0.11294 -0.24895,-0.25105c0.00058,-0.1381 0.11295,-0.24953 0.25105,-0.24895c0.138,0.00058 0.24953,0.11295 0.24894,0.25105c-0.00058,0.1381 -0.11304,0.24953 -0.25104,0.24895z" fill="#e2c645" stroke="none" stroke-width="0.5" stroke-linecap="butt"/><path d="M408.82668,154.90903c-0.1381,-0.00058 -0.24953,-0.11295 -0.24894,-0.25105c0.00058,-0.1381 0.11295,-0.24953 0.25105,-0.24894c0.138,0.00058 0.24953,0.11295 0.24894,0.25105c-0.00058,0.1381 -0.11305,0.24953 -0.25105,0.24894z" fill="#e2c645" stroke="none" stroke-width="0.5" stroke-linecap="butt"/><path d="M393.86888,144.84604c-0.1381,-0.00058 -0.24953,-0.11295 -0.24895,-0.25105c0.00058,-0.1381 0.11295,-0.24953 0.25105,-0.24894c0.138,0.00058 0.24953,0.11295 0.24894,0.25105c-0.00058,0.1381 -0.11304,0.24953 -0.25104,0.24894z" fill="#e2c645" stroke="none" stroke-width="0.5" stroke-linecap="butt"/><path d="M390.61575,145.58235c0.00105,-0.25 0.25105,-0.24895 0.25105,-0.24895c0.5,0.00211 1.49999,0.00631 1.99999,0.00841c0,0 0.25,0.00105 0.24894,0.25105c-0.00105,0.25 -0.25105,0.24895 -0.25105,0.24895c-0.5,-0.00211 -0.99999,-0.00421 -1.49998,-0.00631l-0.5,-0.0021c0,0 -0.25,-0.00105 -0.24895,-0.25105z" fill="#e2c645" stroke="none" stroke-width="0.5" stroke-linecap="butt"/><path d="M376.62773,144.46291c0.06172,-0.24235 0.30397,-0.18062 0.30397,-0.18062c1.29213,0.32884 2.70362,0.68797 3.99575,1.01681c0,0 0.24225,0.06162 0.18063,0.30396c-0.06162,0.24224 -0.30396,0.18052 -0.30396,0.18052c-1.29213,-0.32874 -2.58425,-0.65757 -3.87638,-0.98641l-0.11937,-0.0304c0,0 -0.24225,-0.06162 -0.18063,-0.30387z" fill="#e2c645" stroke="none" stroke-width="0.5" stroke-linecap="butt"/><path d="M369.89643,138.24513c0.25,0.00105 0.24894,0.25105 0.24894,0.25105c-0.0021,0.5 -0.0063,1.49999 -0.00841,1.99998c0,0 -0.00105,0.25 -0.25105,0.24895c-0.25,-0.00105 -0.24894,-0.25105 -0.24894,-0.25105c0.0021,-0.5 0.00421,-0.99999 0.00631,-1.49998l0.0021,-0.5c0,0 0.00105,-0.25 0.25105,-0.24895z" fill="#e2c645" stroke="none" stroke-width="0.5" stroke-linecap="butt"/><path d="M87.6865,187.55853c-0.25,-0.00105 -0.24895,-0.25105 -0.24895,-0.25105c0.0007,-0.1667 0.00351,-0.83329 0.00421,-0.99999c0,0 0.00105,-0.25 0.25105,-0.24895c0.25,0.00105 0.24895,0.25105 0.24895,0.25105c-0.0007,0.1667 -0.00141,0.33329 -0.00211,0.49999l-0.0021,0.5c0,0 -0.00105,0.24999 -0.25105,0.24894z" fill="#e2c645" stroke="none" stroke-width="0.5" stroke-linecap="butt"/><path d="M109.92054,191.40209c-0.00105,0.25 -0.25105,0.24895 -0.25105,0.24895c-0.83339,-0.0035 -2.16668,-0.00912 -2.99998,-0.01262c0,0 -0.24999,-0.00105 -0.24894,-0.25105c0.00105,-0.25 0.25105,-0.24894 0.25105,-0.24894c0.8333,0.0035 1.66658,0.00701 2.49998,0.01051l0.49999,0.0021c0,0 0.25,0.00105 0.24895,0.25105z" fill="#e2c645" stroke="none" stroke-width="0.5" stroke-linecap="butt"/><path d="M109.4724,187.52879c-0.1277,-0.21484 0.08714,-0.34264 0.08714,-0.34264c1.57605,-0.93658 3.43662,-2.04226 5.01257,-2.97894c0,0 0.21494,-0.1277 0.34264,0.08724c0.1278,0.21494 -0.08714,0.34264 -0.08714,0.34264c-1.57605,0.93658 -3.15201,1.87326 -4.72806,2.80983l-0.28451,0.16911c0,0 -0.21494,0.1277 -0.34264,-0.08724z" fill="#e2c645" stroke="none" stroke-width="0.5" stroke-linecap="butt"/><path d="M87.84107,150.80884c-0.2762,-0.00116 -0.49905,-0.226 -0.49789,-0.5021c0.00116,-0.2761 0.2259,-0.49905 0.5021,-0.49789c0.2761,0.00116 0.49905,0.226 0.49789,0.5021c-0.00116,0.2761 -0.226,0.49905 -0.5021,0.49789z" fill="#e2c645" stroke="none" stroke-width="0.5" stroke-linecap="butt"/><path d="M104.85776,146.88037c-0.2762,-0.00116 -0.49905,-0.22599 -0.49789,-0.50209c0.00116,-0.2761 0.2259,-0.49905 0.5021,-0.49789c0.2761,0.00116 0.49905,0.226 0.49789,0.5021c-0.00116,0.2761 -0.22599,0.49905 -0.50209,0.49789z" fill="#e2c645" stroke="none" stroke-width="0.5" stroke-linecap="butt"/><path d="M106.87455,142.88884c0.49999,0.00211 0.49789,0.5021 0.49789,0.5021l-0.00421,0.99999c0,0 -0.0021,0.5 -0.50209,0.49789c-0.49999,-0.00211 -0.49789,-0.5021 -0.49789,-0.5021l0.0042,-0.99999c0,0 0.00211,-0.5 0.5021,-0.49789z" fill="#e2c645" stroke="none" stroke-width="0.5" stroke-linecap="butt"/><path d="M96.76725,148.8396c-0.49285,-0.08427 -0.40857,-0.57712 -0.40857,-0.57712c0.3371,-1.9714 0.68814,-4.02434 1.02523,-5.99574c0,0 0.08427,-0.49285 0.57712,-0.40857c0.49285,0.08427 0.40857,0.57712 0.40857,0.57712c-0.3371,1.9714 -0.67419,3.9428 -1.01129,5.9142l-0.01394,0.08155c0,0 -0.08428,0.49285 -0.57713,0.40858z" fill="#e2c645" stroke="none" stroke-width="0.5" stroke-linecap="butt"/><path d="M100.27176,161.20314c0.1561,0.47496 -0.31886,0.63116 -0.31886,0.63116c-0.95002,0.31221 -2.05416,0.67506 -3.00418,0.98737c0,0 -0.47506,0.15611 -0.63117,-0.31895c-0.1561,-0.47496 0.31896,-0.63107 0.31896,-0.63107c0.94992,-0.31231 1.89995,-0.62452 2.84996,-0.93672l0.15422,-0.05065c0,0 0.47496,-0.1561 0.63106,0.31886z" fill="#e2c645" stroke="none" stroke-width="0.5" stroke-linecap="butt"/><g stroke-linecap="butt"><path d="M416.8913,83.41934c2.76921,-6.00699 9.50914,-8.80442 15.05407,-6.24823c5.54492,2.55619 7.79508,9.49804 5.02587,15.50503c-2.76921,6.00699 -9.50914,8.80442 -15.05407,6.24823c-5.54492,-2.55619 -7.79508,-9.49804 -5.02587,-15.50503z" fill="url(#color-5)" stroke="none" stroke-width="0"/><path d="M436.47926,88.09891c0.9117,0.4203 1.31008,1.50008 0.88978,2.41177c-0.4203,0.91169 -1.50006,1.31002 -2.41177,0.88978c-0.9117,-0.4203 -1.31009,-1.50007 -0.88979,-2.41177c0.4203,-0.91169 1.50008,-1.31009 2.41177,-0.88979z" fill="#c1c6ad" stroke="none" stroke-width="0.5"/><path d="M429.52493,94.50061c0.91163,0.42029 1.31002,1.50006 0.88972,2.41175c-0.42024,0.91171 -1.50008,1.31008 -2.41177,0.88978c-0.9117,-0.4203 -1.31002,-1.50006 -0.88978,-2.41177c0.4203,-0.91169 1.50014,-1.31007 2.41177,-0.88978z" fill="#c1c6ad" stroke="none" stroke-width="0.5"/><path d="M422.66427,83.33147c0.9117,0.4203 1.31007,1.50014 0.88977,2.41183c-0.42028,0.91164 -1.50006,1.31002 -2.41176,0.88972c-0.91171,-0.42024 -1.31008,-1.50008 -0.88978,-2.41178c0.4203,-0.91169 1.50006,-1.31002 2.41177,-0.88978z" fill="#c1c6ad" stroke="none" stroke-width="0.5"/><path d="M420.18108,92.90567c0.91171,0.42024 1.31009,1.50008 0.88979,2.41177c-0.4203,0.91169 -1.50006,1.31002 -2.41176,0.88972c-0.91171,-0.42024 -1.31008,-1.50008 -0.88978,-2.41178c0.4203,-0.91169 1.50006,-1.31001 2.41175,-0.88971z" fill="#c1c6ad" stroke="none" stroke-width="0.5"/><path d="M433.04608,81.92745c0.9117,0.4203 1.31002,1.50006 0.88978,2.41177c-0.4203,0.91169 -1.50008,1.31008 -2.41178,0.88978c-0.9117,-0.4203 -1.31008,-1.50008 -0.88978,-2.41177c0.4203,-0.91169 1.50006,-1.31002 2.41177,-0.88978z" fill="#c1c6ad" stroke="none" stroke-width="0.5"/><path d="M424.33365,87.90686c1.12468,0.51842 1.83802,1.36883 1.59345,1.89946c-0.24462,0.53055 -1.3546,0.54036 -2.47922,0.02196c-1.12459,-0.51847 -1.83806,-1.3689 -1.59345,-1.89944c0.24463,-0.5306 1.35462,-0.54044 2.47922,-0.02197z" fill="#c1c6ad" stroke="none" stroke-width="0.5"/><path d="M425.71317,98.16794c-0.24463,0.5306 -1.35456,0.54044 -2.47922,0.02196c-1.12462,-0.5184 -1.83802,-1.36882 -1.59344,-1.89944c0.24462,-0.53055 1.35462,-0.54044 2.47921,-0.02197c1.12466,0.51848 1.83806,1.3689 1.59345,1.89945z" fill="#c1c6ad" stroke="none" stroke-width="0.5"/><path d="M427.40736,83.35547c-0.24456,0.53056 -1.35456,0.54045 -2.47915,0.02199c-1.12466,-0.51848 -1.83808,-1.36884 -1.59351,-1.89947c0.24462,-0.53055 1.35463,-0.54043 2.47922,-0.02196c1.12466,0.51848 1.83807,1.36884 1.59344,1.89945z" fill="#c1c6ad" stroke="none" stroke-width="0.5"/><path d="M428.24724,76.03969c0.79052,0.07966 1.36677,0.78511 1.28706,1.5756c-0.07972,0.7905 -0.78508,1.36671 -1.5756,1.28705c-0.7905,-0.07971 -1.36675,-0.78516 -1.28704,-1.57565c0.07966,-0.79051 0.78508,-1.36671 1.5756,-1.28705z" fill="#c1c6ad" stroke="none" stroke-width="0.5"/><path d="M428.63732,89.38107c0.79055,0.07973 1.36675,0.78516 1.28704,1.57566c-0.07966,0.79051 -0.78508,1.36671 -1.5756,1.28705c-0.7905,-0.07971 -1.36675,-0.78516 -1.28703,-1.57566c0.07966,-0.79051 0.78515,-1.36669 1.5756,-1.28705z" fill="#c1c6ad" stroke="none" stroke-width="0.5"/><path d="M424.38122,91.81131c0.79052,0.07966 1.36671,0.78508 1.28706,1.5756c-0.07972,0.79049 -0.78517,1.36675 -1.57566,1.28704c-0.7905,-0.07971 -1.36669,-0.78514 -1.28703,-1.57566c0.07972,-0.79049 0.78514,-1.36669 1.57565,-1.28702z" fill="#c1c6ad" stroke="none" stroke-width="0.5"/><path d="M427.43697,81.04488c0.28577,0.0405 0.24527,0.32626 0.24527,0.32626c-0.02398,0.16929 -0.08398,0.5926 -0.10797,0.76194c0,0 -0.04048,0.28571 -0.32625,0.24522c-0.28571,-0.04048 -0.24523,-0.32619 -0.24523,-0.32619c0.024,-0.16934 0.04798,-0.33867 0.07196,-0.50796l0.03601,-0.25397c0,0 0.0405,-0.28578 0.32621,-0.24529z" fill="#c9c9c9" stroke="none" stroke-width="0.5"/><path d="M429.65469,82.2082c-0.00619,1.09389 -0.95459,2.39952 -0.95459,2.39952c0,0 -1.74505,1.34945 -2.62162,1.34445c-0.67115,-0.00378 -2.18805,-1.37165 -2.18805,-1.37165c0,0 -0.72413,-1.37192 -0.71832,-2.40895c0.00862,-1.5241 2.47678,-9.501 3.29506,-9.4964c0.78341,0.00443 3.19607,8.01502 3.18752,9.53303z" fill="#b965c9" stroke="#904e9d" stroke-width="0.5"/><path d="M432.11506,86.80962c-0.79854,0.74752 -2.39869,0.95653 -2.39869,0.95653c0,0 -2.17968,-0.33935 -2.77878,-0.97931c-0.45868,-0.48993 -0.50834,-2.53191 -0.50834,-2.53191c0,0 0.49837,-1.46913 1.2554,-2.17784c1.11264,-1.0416 8.60206,-4.73382 9.1613,-4.13646c0.53541,0.57197 -3.62269,7.8315 -4.73087,8.86893z" fill="#b965c9" stroke="#904e9d" stroke-width="0.5"/><path d="M428.26501,91.0903c-0.99667,-0.45082 -1.8034,-1.84847 -1.8034,-1.84847c0,0 -0.52248,-2.14315 -0.1612,-2.94184c0.27659,-0.61154 2.14334,-1.4405 2.14334,-1.4405c0,0 1.54789,-0.10316 2.4928,0.32418c1.38867,0.6281 7.67077,6.12886 7.33357,6.87438c-0.32287,0.71385 -8.62201,-0.34219 -10.00511,-0.96775z" fill="#b965c9" stroke="#a459b3" stroke-width="0.5"/><path d="M423.02185,89.38044c0.02767,-1.09351 1.00162,-2.38029 1.00162,-2.38029c0,0 1.77127,-1.31478 2.64754,-1.29263c0.67095,0.01705 2.1606,1.41447 2.1606,1.41447c0,0 0.69705,1.38591 0.67079,2.4226c-0.03861,1.52365 -2.66325,9.45045 -3.48127,9.42973c-0.78316,-0.01984 -3.03773,-8.07636 -2.99928,-9.59388z" fill="#b965c9" stroke="#a95bb8" stroke-width="0.5"/><path d="M422.81024,83.93866c1.10284,-0.42024 2.78613,0.02479 2.78613,0.02479c0,0 2.03789,1.22941 2.37463,2.11316c0.2579,0.67663 -0.52678,2.73593 -0.52678,2.73593c0,0 -1.09783,1.26343 -2.14336,1.66187c-1.53661,0.58553 -10.52371,1.21269 -10.8381,0.38771c-0.30098,-0.78987 6.81702,-6.34025 8.34749,-6.92347z" fill="#b965c9" stroke="#904e9d" stroke-width="0.5"/><path d="M424.36389,85.19483c0.8418,-1.82604 2.93566,-2.65566 4.67676,-1.85301c1.74111,0.80264 2.47014,2.93361 1.62834,4.75965c-0.8418,1.82604 -2.93567,2.65566 -4.67677,1.85301c-1.74111,-0.80264 -2.47013,-2.93361 -1.62833,-4.75965z" fill="url(#color-6)" stroke="none" stroke-width="0"/><path d="M428.42813,82.72803c-0.08786,-0.05756 -0.26477,-0.21344 -0.14196,-0.47987c0.15951,-0.34605 0.50553,-0.18648 0.50553,-0.18648l0.4941,0.64726c-0.33774,0.73262 -0.674,1.21614 -1.22653,1.80486c0,0 -0.26073,0.27783 -0.53856,0.01709c-0.27781,-0.2608 -0.01704,-0.53854 -0.01704,-0.53854c0.41242,-0.43943 0.6743,-0.78664 0.92445,-1.26433z" fill="#c9b065" stroke="none" stroke-width="0.5"/><path d="M430.65901,88.93713c-0.29739,0.23812 -0.53557,-0.0593 -0.53557,-0.0593l-0.20002,-0.25589c-0.48915,-0.45911 -0.9165,-0.96849 -1.53144,-1.24385c0,0 -0.34604,-0.1595 -0.18653,-0.50555c0.15949,-0.34598 0.50554,-0.18648 0.50554,-0.18648c0.69748,0.32885 1.1755,0.85613 1.73395,1.3803l0.27332,0.33519c0,0 0.23818,0.29742 -0.05924,0.53559z" fill="#c9b065" stroke="none" stroke-width="0.5"/><path d="M431.03738,85.38109c-0.15949,0.34598 -0.50553,0.18647 -0.50553,0.18647l0.13763,-0.05942c-0.5311,0.18516 -0.92854,0.07232 -1.43094,0.27264c0,0 -0.35748,0.1319 -0.48938,-0.22558c-0.13184,-0.35746 0.22556,-0.48931 0.22556,-0.48931c0.5311,-0.18516 0.92854,-0.07232 1.43095,-0.2727l0.44518,0.08235c0,0 0.34604,0.1595 0.18653,0.50555z" fill="#c9b065" stroke="none" stroke-width="0.5"/><path d="M426.73744,90.15815c-0.34605,-0.15951 -0.18655,-0.50549 -0.18655,-0.50549l0.03821,-0.03619c0.08693,-0.78554 -0.03918,-1.53037 0.26832,-2.24661c0,0 0.15949,-0.34598 0.50553,-0.18647c0.34598,0.15949 0.18647,0.50554 0.18647,0.50554c-0.28006,0.54712 -0.13144,1.36559 -0.2029,2.01138l-0.10356,0.27137c0,0 -0.15949,0.34598 -0.50553,0.18648z" fill="#c9b065" stroke="none" stroke-width="0.5"/><path d="M426.40795,83.99159c0.29739,-0.23812 0.53557,0.0593 0.53557,0.0593l0.2967,0.40181c0.22107,0.59915 0.44209,1.19828 0.66311,1.79741c0,0 0.13191,0.35748 -0.22557,0.48938c-0.35746,0.13184 -0.48931,-0.22562 -0.48931,-0.22562c-0.22102,-0.59913 -0.44208,-1.19828 -0.6631,-1.79741l-0.17663,-0.18928c0,0 -0.23818,-0.29742 0.05924,-0.53559z" fill="#c9b065" stroke="none" stroke-width="0.5"/><path d="M423.15792,86.54299c0.04193,-0.37874 0.42061,-0.33684 0.42061,-0.33684l0.54672,0.06078c0.38347,0.08142 0.80713,0.04436 1.17179,-0.09951c0,0 0.35746,-0.13184 0.4893,0.22562c0.13186,0.3574 -0.22555,0.48932 -0.22555,0.48932c-0.48912,0.17114 -1.03766,0.22572 -1.54838,0.13819l-0.51771,-0.05697c0,0 -0.37869,-0.0419 -0.33677,-0.42059z" fill="#c9b065" stroke="none" stroke-width="0.5"/></g><g stroke-linecap="butt"><path d="M396.17359,74.93954c-1.90226,-5.45995 0.64133,-11.30958 5.68129,-13.06553c5.03996,-1.75594 10.66774,1.24676 12.57,6.70671c1.90226,5.45995 -0.64133,11.30958 -5.68129,13.06553c-5.03996,1.75594 -10.66774,-1.24676 -12.57,-6.7067z" fill="url(#color-7)" stroke="none" stroke-width="0"/><path d="M411.33809,65.99911c0.82867,-0.2887 1.7345,0.149 2.02321,0.97768c0.2887,0.82868 -0.14903,1.73445 -0.97768,2.0232c-0.82867,0.2887 -1.7345,-0.14899 -2.0232,-0.97767c-0.2887,-0.82868 0.149,-1.7345 0.97767,-2.02321z" fill="#c1c6ad" stroke="none" stroke-width="0.5"/><path d="M410.84647,74.24671c0.82863,-0.28867 1.73445,0.14902 2.02316,0.9777c0.28875,0.82865 -0.149,1.73449 -0.97768,2.0232c-0.82867,0.2887 -1.73445,-0.14902 -2.0232,-0.97767c-0.2887,-0.82868 0.14904,-1.73453 0.97767,-2.02321z" fill="#c1c6ad" stroke="none" stroke-width="0.5"/><path d="M399.75275,71.38152c0.82867,-0.2887 1.73453,0.14905 2.02323,0.97772c0.28868,0.82863 -0.14903,1.73445 -0.9777,2.02316c-0.82865,0.28875 -1.7345,-0.149 -2.0232,-0.97768c-0.2887,-0.82868 0.14902,-1.73445 0.97767,-2.0232z" fill="#c1c6ad" stroke="none" stroke-width="0.5"/><path d="M403.99937,78.9125c0.82865,-0.28875 1.7345,0.14899 2.02321,0.97767c0.2887,0.82868 -0.14902,1.73445 -0.9777,2.02316c-0.82865,0.28875 -1.7345,-0.14899 -2.02321,-0.97767c-0.2887,-0.82868 0.14902,-1.73445 0.9777,-2.02315z" fill="#c1c6ad" stroke="none" stroke-width="0.5"/><path d="M405.43337,64.19899c0.82867,-0.28871 1.73445,0.14902 2.0232,0.97767c0.2887,0.82868 -0.149,1.7345 -0.97768,2.0232c-0.82867,0.2887 -1.73449,-0.14899 -2.0232,-0.97767c-0.2887,-0.82868 0.14902,-1.73446 0.97767,-2.02321z" fill="#c1c6ad" stroke="none" stroke-width="0.5"/><path d="M403.57926,73.24756c1.02222,-0.35619 1.98706,-0.25391 2.15512,0.22837c0.16799,0.48225 -0.52449,1.1619 -1.54666,1.51807c-1.0222,0.35612 -1.98712,0.25389 -2.15511,-0.22836c-0.16802,-0.48229 0.52445,-1.16196 1.54665,-1.51808z" fill="#c1c6ad" stroke="none" stroke-width="0.5"/><path d="M410.67316,78.86706c0.16802,0.48229 -0.5244,1.16193 -1.54665,1.51807c-1.02218,0.35617 -1.98705,0.25391 -2.15512,-0.22836c-0.16799,-0.48225 0.52445,-1.16196 1.54665,-1.51808c1.02225,-0.35614 1.98713,-0.25388 2.15512,0.22837z" fill="#c1c6ad" stroke="none" stroke-width="0.5"/><path d="M402.75178,68.51879c0.16803,0.48223 -0.52441,1.16193 -1.5466,1.51805c-1.02225,0.35614 -1.9871,0.25394 -2.15516,-0.22834c-0.16799,-0.48225 0.52445,-1.16196 1.54665,-1.51807c1.02225,-0.35614 1.9871,-0.25393 2.15511,0.22836z" fill="#c1c6ad" stroke="none" stroke-width="0.5"/><path d="M398.84145,63.40596c0.54575,-0.42952 1.33637,-0.33528 1.76583,0.21049c0.42947,0.54577 0.33526,1.3363 -0.21049,1.76582c-0.54577,0.42947 -1.33639,0.33523 -1.76586,-0.21053c-0.42952,-0.54574 -0.33525,-1.33631 0.21049,-1.76583z" fill="#c1c6ad" stroke="none" stroke-width="0.5"/><path d="M407.18171,71.56395c0.54581,-0.42949 1.33639,-0.33523 1.76586,0.21054c0.42952,0.54574 0.33525,1.33631 -0.2105,1.76583c-0.54577,0.42947 -1.33638,0.33522 -1.76585,-0.21054c-0.42952,-0.54574 -0.3352,-1.33634 0.21049,-1.76583z" fill="#c1c6ad" stroke="none" stroke-width="0.5"/><path d="M405.9782,75.67549c0.54575,-0.42952 1.33631,-0.33525 1.76583,0.21049c0.42947,0.54577 0.33522,1.33638 -0.21054,1.76585c-0.54577,0.42947 -1.33633,0.33521 -1.76585,-0.21054c-0.42947,-0.54577 -0.3352,-1.33633 0.21055,-1.76585z" fill="#c1c6ad" stroke="none" stroke-width="0.5"/><path d="M401.3685,67.04695c0.20439,-0.14791 0.35229,0.05647 0.35229,0.05647c0.08763,0.12107 0.30671,0.42383 0.39436,0.54494c0,0 0.14789,0.20434 -0.05649,0.35224c-0.20434,0.14788 -0.35223,-0.05645 -0.35223,-0.05645c-0.08765,-0.12111 -0.1753,-0.24222 -0.26292,-0.36328l-0.13144,-0.18165c0,0 -0.1479,-0.20439 0.05643,-0.35227z" fill="#c9c9c9" stroke="none" stroke-width="0.5"/><path d="M403.46976,66.43336c0.65982,0.69205 0.85525,2.08904 0.85525,2.08904c0,0 -0.27925,1.9079 -0.83384,2.43661c-0.4246,0.40484 -2.20901,0.46451 -2.20901,0.46451c0,0 -1.28805,-0.42388 -1.91361,-1.07993c-0.91931,-0.96422 -4.20625,-7.48103 -3.68857,-7.97462c0.49563,-0.47254 6.87413,3.10404 7.78979,4.06439z" fill="#b965c9" stroke="#904e9d" stroke-width="0.5"/><path d="M407.80977,67.83585c-0.0489,0.95487 -0.92894,2.05727 -0.92894,2.05727c0,0 -1.5774,1.10898 -2.34267,1.06981c-0.58587,-0.02997 -1.85609,-1.2847 -1.85609,-1.2847c0,0 -0.5778,-1.22679 -0.53146,-2.13206c0.06811,-1.33048 2.54039,-8.19789 3.25473,-8.16134c0.68393,0.03504 2.47225,7.12582 2.40441,8.45097z" fill="#b965c9" stroke="#904e9d" stroke-width="0.5"/><path d="M407.9845,72.86533c-0.90067,0.32106 -2.2563,-0.0689 -2.2563,-0.0689c0,0 -1.6291,-1.0315 -1.88637,-1.75326c-0.19701,-0.55261 0.47462,-2.20686 0.47462,-2.20686c0,0 0.91138,-1.00409 1.76522,-1.30851c1.25489,-0.44736 8.54529,-0.79779 8.78546,-0.12409c0.22997,0.64508 -5.63279,5.01605 -6.88263,5.46162z" fill="#b965c9" stroke="#a459b3" stroke-width="0.5"/><path d="M403.64793,74.97072c-0.64607,-0.70485 -0.81398,-2.10546 -0.81398,-2.10546c0,0 0.31678,-1.902 0.8816,-2.41974c0.43252,-0.39637 2.21773,-0.42091 2.21773,-0.42091c0,0 1.27949,0.44912 1.89198,1.11736c0.90017,0.98214 4.05823,7.56237 3.53094,8.04566c-0.50482,0.4627 -6.81171,-3.23871 -7.70826,-4.2169z" fill="#b965c9" stroke="#a95bb8" stroke-width="0.5"/><path d="M400.21301,71.67503c0.43895,-0.93357 1.76814,-1.67487 1.76814,-1.67487c0,0 2.02823,-0.46291 2.77633,-0.11114c0.57281,0.26927 1.32855,2.04113 1.32855,2.04113c0,0 0.0758,1.46108 -0.34032,2.34616c-0.6116,1.30076 -5.88597,7.14827 -6.58435,6.81993c-0.66863,-0.31439 0.44251,-8.12563 1.05165,-9.42121z" fill="#b965c9" stroke="#904e9d" stroke-width="0.5"/><path d="M401.95279,71.52275c-0.57826,-1.65975 0.23588,-3.4522 1.81842,-4.00357c1.58254,-0.55137 3.33423,0.34716 3.91249,2.0069c0.57826,1.65975 -0.23588,3.4522 -1.81842,4.00357c-1.58254,0.55137 -3.33423,-0.34716 -3.91249,-2.0069z" fill="url(#color-8)" stroke="none" stroke-width="0"/><path d="M403.01337,67.50459c-0.09021,0.01708 -0.2961,0.02635 -0.38048,-0.2158c-0.1096,-0.31452 0.20495,-0.42406 0.20495,-0.42406l0.70362,0.10747c0.232,0.66591 0.31379,1.17417 0.32333,1.87985c0,0 0.00451,0.33302 -0.32851,0.33753c-0.33304,0.00446 -0.33748,-0.32853 -0.33748,-0.32853c-0.00712,-0.52674 -0.053,-0.9041 -0.18544,-1.35646z" fill="#c9b065" stroke="none" stroke-width="0.5"/><path d="M408.18445,70.05798c-0.04265,0.33028 -0.37297,0.28764 -0.37297,0.28764l-0.28112,-0.03965c-0.58635,0.0079 -1.16431,-0.05332 -1.71832,0.14653c0,0 -0.31451,0.10959 -0.42411,-0.20493c-0.10956,-0.31447 0.20495,-0.42406 0.20495,-0.42406c0.6384,-0.21627 1.2591,-0.17453 1.92853,-0.18355l0.37535,0.04507c0,0 0.33032,0.04263 0.28769,0.37295z" fill="#c9b065" stroke="none" stroke-width="0.5"/><path d="M406.26492,67.59087c0.10956,0.31447 -0.20495,0.42406 -0.20495,0.42406l0.05054,-0.12089c-0.22183,0.43876 -0.54037,0.60889 -0.73495,1.03977c0,0 -0.14491,0.29989 -0.4448,0.15499c-0.29985,-0.14493 -0.15497,-0.44475 -0.15497,-0.44475c0.22183,-0.43876 0.54038,-0.60889 0.73494,-1.03981l0.33008,-0.21829c0,0 0.31451,-0.10959 0.42411,0.20493z" fill="#c9b065" stroke="none" stroke-width="0.5"/><path d="M406.45775,73.20566c-0.31452,0.10959 -0.42409,-0.20488 -0.42409,-0.20488l0.00209,-0.04596c-0.42192,-0.54703 -0.9532,-0.93917 -1.19429,-1.57642c0,0 -0.10957,-0.31446 0.20495,-0.42406c0.31447,-0.10957 0.42406,0.20495 0.42406,0.20495c0.15574,0.51418 0.74586,0.93901 1.09273,1.38871l0.09949,0.23359c0,0 0.10957,0.31447 -0.20495,0.42406z" fill="#c9b065" stroke="none" stroke-width="0.5"/><path d="M402.5089,69.52541c0.04265,-0.33028 0.37297,-0.28764 0.37297,-0.28764l0.43049,0.07281c0.50263,0.24286 1.00522,0.48575 1.50781,0.72863c0,0 0.2999,0.1449 0.155,0.44479c-0.14493,0.29985 -0.44478,0.15492 -0.44478,0.15492c-0.50259,-0.24289 -1.00522,-0.48575 -1.5078,-0.72864l-0.22599,-0.01193c0,0 -0.33032,-0.04263 -0.28769,-0.37295z" fill="#c9b065" stroke="none" stroke-width="0.5"/><path d="M402.01196,73.10278c-0.20342,-0.26376 0.06028,-0.46715 0.06028,-0.46715l0.38089,-0.29348c0.29069,-0.18144 0.53478,-0.46182 0.67694,-0.7736c0,0 0.14493,-0.29985 0.44477,-0.15492c0.29982,0.14488 0.15497,0.44475 0.15497,0.44475c-0.20393,0.40446 -0.51596,0.77163 -0.89043,1.02643l-0.36033,0.27827c0,0 -0.26371,0.2034 -0.4671,-0.06031z" fill="#c9b065" stroke="none" stroke-width="0.5"/></g><path d="M34.22024,138.78563c-0.05796,0.24319 -0.30115,0.18523 -0.30115,0.18523l-0.07427,-0.0177c-1.22706,-0.29244 -2.00889,-2.01305 -3.04455,-3.04871c0,0 -0.17678,-0.17678 0,-0.35355c0.17678,-0.17678 0.35355,0 0.35355,0c0.9684,0.9684 1.75022,2.66405 2.80691,2.91589l0.07427,0.0177c0,0 0.24319,0.05796 0.18523,0.30115z" fill="#e2c645" stroke="none" stroke-width="0.5" stroke-linecap="butt"/><path d="M48.22705,148.72768c0,0.25 -0.25,0.25 -0.25,0.25c-0.16667,0 -0.83333,0 -1,0c0,0 -0.25,0 -0.25,-0.25c0,-0.25 0.25,-0.25 0.25,-0.25c0.16667,0 0.33333,0 0.5,0h0.5c0,0 0.25,0 0.25,0.25z" fill="#e2c645" stroke="none" stroke-width="0.5" stroke-linecap="butt"/><path d="M58.02608,146.97284c-0.24515,0.04903 -0.29417,-0.19612 -0.29417,-0.19612c-0.32686,-1.6343 -0.67314,-3.3657 -1,-5c0,0 -0.04903,-0.24515 0.19612,-0.29417c0.24515,-0.04903 0.29417,0.19612 0.29417,0.19612c0.32686,1.6343 0.65372,3.2686 0.98058,4.9029l0.01942,0.0971c0,0 0.04903,0.24515 -0.19612,0.29417z" fill="#e2c645" stroke="none" stroke-width="0.5" stroke-linecap="butt"/><path d="M45.08885,187.9513c-0.22361,0.1118 -0.33541,-0.1118 -0.33541,-0.1118l-0.10557,-0.21115c-0.70718,-1.41436 -0.92082,-2.31936 -0.92082,-3.90066c0,0 0,-0.25 0.25,-0.25c0.25,0 0.25,0.25 0.25,0.25c0,1.52373 0.1866,2.31419 0.86803,3.67705l0.10557,0.21115c0,0 0.1118,0.22361 -0.1118,0.33541z" fill="#e2c645" stroke="none" stroke-width="0.5" stroke-linecap="butt"/><path d="M76.22706,192.72768c0,0.25 -0.25,0.25 -0.25,0.25c-2.16667,0 -4.83333,0 -7,0c-3,0 -6,0 -9,0c0,0 -0.25,0 -0.25,-0.25c0,-0.25 0.25,-0.25 0.25,-0.25c3,0 6,0 9,0c2.16667,0 4.33333,0 6.5,0h0.5c0,0 0.25,0 0.25,0.25z" fill="#e2c645" stroke="none" stroke-width="0.5" stroke-linecap="butt"/><path d="M458.97707,145.97768c-0.25,0 -0.25,-0.25 -0.25,-0.25v-0.5c0,-1.25261 0.5182,-2.25 -0.75,-2.25c0,0 -0.25,0 -0.25,-0.25c0,-0.25 0.25,-0.25 0.25,-0.25c1.74776,0 1.25,1.31426 1.25,2.75v0.5c0,0 0,0.25 -0.25,0.25z" fill="#e2c645" stroke="none" stroke-width="0.5" stroke-linecap="butt"/><path d="M444.15385,191.90447c-0.17678,0.17678 -0.35355,0 -0.35355,0c-0.2357,-0.2357 -0.7643,-0.7643 -1,-1c0,0 -0.17678,-0.17678 0,-0.35355c0.17678,-0.17678 0.35355,0 0.35355,0c0.2357,0.2357 0.4714,0.4714 0.70711,0.70711l0.29289,0.29289c0,0 0.17678,0.17678 0,0.35355z" fill="#e2c645" stroke="none" stroke-width="0.5" stroke-linecap="butt"/><path d="M463.15385,205.90447c-0.17678,0.17678 -0.35355,0 -0.35355,0c-1.29636,-1.29636 -2.70364,-2.70364 -4,-4c0,0 -0.17678,-0.17678 0,-0.35355c0.17678,-0.17678 0.35355,0 0.35355,0c1.29636,1.29636 2.59272,2.59272 3.88909,3.88909l0.11091,0.11091c0,0 0.17678,0.17678 0,0.35355z" fill="#e2c645" stroke="none" stroke-width="0.5" stroke-linecap="butt"/><path d="M421.72707,179.72768c0,-0.13807 0.11193,-0.25 0.25,-0.25c0.13807,0 0.25,0.11193 0.25,0.25c0,0.13807 -0.11193,0.25 -0.25,0.25c-0.13807,0 -0.25,-0.11193 -0.25,-0.25z" fill="#e2c645" stroke="none" stroke-width="0.5" stroke-linecap="butt"/><path d="M431.72707,155.72768c0,-0.13807 0.11193,-0.25 0.25,-0.25c0.13807,0 0.25,0.11193 0.25,0.25c0,0.13807 -0.11193,0.25 -0.25,0.25c-0.13807,0 -0.25,-0.11193 -0.25,-0.25z" fill="#e2c645" stroke="none" stroke-width="0.5" stroke-linecap="butt"/><path d="" fill="#ad9737" stroke="none" stroke-width="0.5" stroke-linecap="butt"/><path d="" fill="#ad9737" stroke="none" stroke-width="0.5" stroke-linecap="butt"/><path d="M337.77361,-5.06582c-3.39742,-0.84942 -6.78112,-1.74366 -10.16485,-2.64599c-2.89871,-0.77299 -5.79741,-1.54597 -8.69612,-2.31896c0,0 -0.24156,-0.06442 -0.17714,-0.30598c0.06441,-0.24156 0.30597,-0.17714 0.30597,-0.17714c2.89871,0.77299 5.79741,1.54597 8.69612,2.31896c3.38121,0.90166 6.7624,1.79526 10.1573,2.64405c2.58686,0.64677 5.17371,1.29353 7.76056,1.94029c-0.70357,0.00392 -1.37716,0.00853 -2.00563,0.01394c-1.95873,-0.48972 -3.91747,-0.97945 -5.87621,-1.46917z" fill="#ad9737" stroke="none" stroke-width="0.5" stroke-linecap="butt"/><path d="M393.20667,-4.37123c0.09889,0.22961 -0.13072,0.3285 -0.13072,0.3285c-0.26088,0.11236 -0.52945,0.22803 -0.80244,0.34561c-0.44249,0.00951 -0.8847,0.01862 -1.32653,0.02696c0.58721,-0.25291 1.17443,-0.50582 1.76164,-0.75873l0.16956,-0.07302c0,0 0.22961,-0.09889 0.3285,0.13072z" fill="#ad9737" stroke="none" stroke-width="0.5" stroke-linecap="butt"/><path d="" fill="#ad9737" stroke="none" stroke-width="0.5" stroke-linecap="butt"/><path d="M134.212,-20.18691c-0.08542,0.23495 -0.32038,0.14954 -0.32038,0.14954c-0.93982,-0.34168 -2.04485,-0.74342 -2.98466,-1.0851c-1.47964,-0.53794 -3.54114,-1.77059 -5.09864,-1.86464c-1.41305,-0.08533 -3.40728,0.80151 -4.79891,1.12454c-3.40292,0.7899 -6.83221,1.50248 -10.1876,2.47563c-3.36147,0.97492 -6.72295,1.94984 -10.08443,2.92477c-2.79216,0.80981 -5.34384,2.36835 -7.88241,3.836c-0.33483,0 -0.66966,0 -1.00449,0c2.82606,-1.603 5.63789,-3.41429 8.74763,-4.3162c3.36147,-0.97492 6.72295,-1.94984 10.08443,-2.92477c3.3641,-0.97568 6.80207,-1.69053 10.21381,-2.48247c1.4464,-0.33574 3.46746,-1.22563 4.9421,-1.13658c1.61939,0.09778 3.70669,1.33661 5.23935,1.89382c0.93982,0.34168 1.87963,0.68336 2.81945,1.02504l0.16521,0.06006c0,0 0.23496,0.08542 0.14954,0.32038z" fill="#ad9737" stroke="none" stroke-width="0.5" stroke-linecap="butt"/><path d="" fill="#ad9737" stroke="none" stroke-width="0.5" stroke-linecap="butt"/><path d="" fill="#ad9737" stroke="none" stroke-width="0.5" stroke-linecap="butt"/><path d="" fill="#ad9737" stroke="none" stroke-width="0.5" stroke-linecap="butt"/><path d="" fill="#ad9737" stroke="none" stroke-width="0.5" stroke-linecap="butt"/><g stroke-linecap="butt"><path d="M299.2937,324.45349c-2.02621,-8.13202 2.41642,-16.24056 9.92292,-18.11093c7.50649,-1.87036 15.23429,3.20574 17.2605,11.33776c2.02621,8.13202 -2.41641,16.24057 -9.92291,18.11093c-7.50649,1.87036 -15.2343,-3.20574 -17.26051,-11.33777z" fill="url(#color-9)" stroke="none" stroke-width="0"/><path d="M322.36168,313.54697c1.23423,-0.30752 2.48407,0.44369 2.79158,1.67791c0.30751,1.23422 -0.44373,2.48399 -1.67792,2.79158c-1.23423,0.30752 -2.48407,-0.44368 -2.79159,-1.67791c-0.30751,-1.23422 0.44369,-2.48408 1.67791,-2.79159z" fill="#c1c6ad" stroke="none" stroke-width="0.5"/><path d="M320.56494,325.38741c1.23415,-0.30747 2.484,0.44372 2.79151,1.67794c0.30759,1.23419 -0.4437,2.48407 -1.67792,2.79158c-1.23423,0.30752 -2.48399,-0.44373 -2.79157,-1.67792c-0.30751,-1.23422 0.44376,-2.4841 1.67791,-2.79157z" fill="#c1c6ad" stroke="none" stroke-width="0.5"/><path d="M304.92909,319.78932c1.23423,-0.30752 2.48411,0.44377 2.79162,1.67799c0.30749,1.23415 -0.44372,2.48399 -1.67795,2.79151c-1.23419,0.30759 -2.48407,-0.4437 -2.79158,-1.67793c-0.30751,-1.23422 0.44372,-2.48399 1.67791,-2.79157z" fill="#c1c6ad" stroke="none" stroke-width="0.5"/><path d="M310.06636,331.21984c1.23419,-0.30759 2.48408,0.44369 2.79158,1.67791c0.30751,1.23422 -0.44372,2.48399 -1.67795,2.79151c-1.23419,0.30759 -2.48407,-0.4437 -2.79158,-1.67793c-0.30751,-1.23422 0.44374,-2.48398 1.67795,-2.79149z" fill="#c1c6ad" stroke="none" stroke-width="0.5"/><path d="M314.07561,310.17024c1.23423,-0.30752 2.48399,0.44372 2.79158,1.67791c0.30751,1.23422 -0.4437,2.48407 -1.67793,2.79158c-1.23423,0.30752 -2.48406,-0.44369 -2.79157,-1.67791c-0.30751,-1.23422 0.44372,-2.48399 1.67791,-2.79158z" fill="#c1c6ad" stroke="none" stroke-width="0.5"/><path d="M310.2066,322.98726c1.52251,-0.37942 2.90174,-0.1046 3.08077,0.6137c0.17892,0.71826 -0.91023,1.60805 -2.43266,1.98744c-1.52245,0.3793 -2.90183,0.10457 -3.08076,-0.61368c-0.17895,-0.71832 0.91019,-1.60814 2.43265,-1.98745z" fill="#c1c6ad" stroke="none" stroke-width="0.5"/><path d="M319.70579,332.0339c0.17895,0.71832 -0.91013,1.6081 -2.43266,1.98745c-1.52243,0.37939 -2.90172,0.10461 -3.08074,-0.61369c-0.17892,-0.71826 0.91018,-1.60814 2.43264,-1.98744c1.52253,-0.37935 2.90184,-0.10457 3.08076,0.61369z" fill="#c1c6ad" stroke="none" stroke-width="0.5"/><path d="M309.63545,316.05232c0.17899,0.71823 -0.91012,1.60811 -2.43257,1.98741c-1.52253,0.37935 -2.9018,0.10465 -3.08083,-0.61366c-0.17892,-0.71826 0.9102,-1.60814 2.43266,-1.98744c1.52253,-0.37935 2.90179,-0.10464 3.08075,0.6137z" fill="#c1c6ad" stroke="none" stroke-width="0.5"/><path d="M304.66488,308.15664c0.84438,-0.54807 1.9732,-0.30782 2.5212,0.53658c0.548,0.84442 0.30779,1.97312 -0.53659,2.52119c-0.8444,0.548 -1.97322,0.30775 -2.52122,-0.53665c-0.54806,-0.84438 -0.30779,-1.97312 0.53659,-2.52119z" fill="#c1c6ad" stroke="none" stroke-width="0.5"/><path d="M315.62856,321.03184c0.84447,-0.54802 1.97323,-0.30775 2.52123,0.53666c0.54806,0.84438 0.30779,1.97312 -0.53659,2.52119c-0.8444,0.548 -1.97322,0.30775 -2.52121,-0.53666c-0.54806,-0.84438 -0.30771,-1.97315 0.53659,-2.52119z" fill="#c1c6ad" stroke="none" stroke-width="0.5"/><path d="M313.34941,326.80809c0.84438,-0.54807 1.97312,-0.3078 2.5212,0.53658c0.54798,0.8444 0.30774,1.97323 -0.53666,2.52123c-0.8444,0.548 -1.97314,0.30772 -2.52121,-0.53667c-0.54798,-0.8444 -0.30773,-1.97315 0.53666,-2.5212z" fill="#c1c6ad" stroke="none" stroke-width="0.5"/><path d="M307.8327,313.74541c0.31452,-0.18656 0.50107,0.12795 0.50107,0.12795c0.11053,0.18631 0.38687,0.65222 0.49743,0.83859c0,0 0.18653,0.31444 -0.12798,0.50101c-0.31444,0.18653 -0.50098,-0.12791 -0.50098,-0.12791c-0.11055,-0.18638 -0.22111,-0.37273 -0.33164,-0.55905l-0.16578,-0.27954c0,0 -0.18657,-0.31453 0.12788,-0.50105z" fill="#c9c9c9" stroke="none" stroke-width="0.5"/><path d="M310.94671,313.13667c0.86122,1.08594 0.95918,3.12818 0.95918,3.12818c0,0 -0.65458,2.71721 -1.5248,3.40729c-0.66625,0.52841 -3.24989,0.37935 -3.24989,0.37935c0,0 -1.80339,-0.78163 -2.61989,-1.81108c-1.19992,-1.51301 -5.08556,-11.35309 -4.27326,-11.99735c0.77771,-0.61678 9.51349,5.38666 10.70865,6.8936z" fill="#b965c9" stroke="#904e9d" stroke-width="0.5"/><path d="M317.02653,315.73317c-0.19645,1.37188 -1.61206,2.84717 -1.61206,2.84717c0,0 -2.42312,1.39288 -3.52259,1.23546c-0.84175,-0.12049 -2.50988,-2.09908 -2.50988,-2.09908c0,0 -0.67234,-1.84701 -0.48614,-3.14763c0.27369,-1.91155 4.74753,-11.49862 5.77383,-11.3517c0.98262,0.14072 2.6294,10.6118 2.35681,12.51569z" fill="#b965c9" stroke="#904e9d" stroke-width="0.5"/><path d="M316.61584,323.01616c-1.3424,0.34472 -3.24782,-0.39684 -3.24782,-0.39684c0,0 -2.21561,-1.70368 -2.49185,-2.77943c-0.21155,-0.82365 0.97598,-3.12299 0.97598,-3.12299c0,0 1.4479,-1.32925 2.72053,-1.65614c1.87036,-0.48034 12.44007,-0.02526 12.69795,0.97886c0.24693,0.96146 -8.79195,6.49811 -10.65479,6.97655z" fill="#b965c9" stroke="#a459b3" stroke-width="0.5"/><path d="M310.07863,325.48366c-0.83968,-1.10259 -0.89746,-3.14647 -0.89746,-3.14647c0,0 0.70797,-2.70373 1.5915,-3.37663c0.67658,-0.51514 3.25671,-0.31527 3.25671,-0.31527c0,0 1.78773,0.81694 2.58375,1.86226c1.16992,1.53634 4.8612,11.45098 4.03637,12.0791c-0.78968,0.60135 -9.40564,-5.57281 -10.57087,-7.10298z" fill="#b965c9" stroke="#a95bb8" stroke-width="0.5"/><path d="M305.55478,320.27363c0.75667,-1.28972 2.77303,-2.18458 2.77303,-2.18458c0,0 2.98871,-0.40086 4.0222,0.2055c0.79136,0.46419 1.64869,3.12144 1.64869,3.12144c0,0 -0.08316,2.11903 -0.80048,3.34177c-1.05428,1.79701 -9.43844,9.54255 -10.40325,8.97654c-0.92372,-0.54194 1.70976,-11.67082 2.75981,-13.46067z" fill="#b965c9" stroke="#904e9d" stroke-width="0.5"/><path d="M308.08617,320.28318c-0.61594,-2.47202 0.7955,-4.95208 3.15254,-5.53936c2.35704,-0.5873 4.76711,0.94058 5.38306,3.4126c0.61594,2.47202 -0.79551,4.95208 -3.15255,5.53937c-2.35704,0.5873 -4.7671,-0.94058 -5.38304,-3.4126z" fill="url(#color-10)" stroke="none" stroke-width="0"/><path d="M310.14671,314.62288c-0.13247,0.01278 -0.43088,-0.001 -0.52077,-0.36167c-0.11674,-0.46846 0.35172,-0.58511 0.35172,-0.58511l1.00149,0.24788c0.24712,0.9918 0.29819,1.73625 0.21894,2.75614c0,0 -0.03738,0.48129 -0.51868,0.4439c-0.48133,-0.03746 -0.44384,-0.5187 -0.44384,-0.5187c0.05915,-0.76126 0.04265,-1.31203 -0.08889,-1.98245z" fill="#c9b065" stroke="none" stroke-width="0.5"/><path d="M317.2745,318.99016c-0.10509,0.47111 -0.57629,0.36605 -0.57629,0.36605l-0.40056,-0.09429c-0.84742,-0.06587 -1.67363,-0.23042 -2.49966,-0.01497c0,0 -0.46844,0.11675 -0.58519,-0.3517c-0.11671,-0.46837 0.35174,-0.58513 0.35174,-0.58513c0.95002,-0.22804 1.84049,-0.08598 2.80798,-0.01076l0.53587,0.11453c0,0 0.4712,0.10508 0.36612,0.57627z" fill="#c9b065" stroke="none" stroke-width="0.5"/><path d="M314.82889,315.17593c0.11671,0.46837 -0.35173,0.5851 -0.35173,0.5851l0.08889,-0.16784c-0.37804,0.60408 -0.86028,0.80769 -1.19794,1.404c0,0 -0.24869,0.41379 -0.66249,0.1651c-0.41372,-0.24872 -0.16506,-0.6624 -0.16506,-0.6624c0.37804,-0.60408 0.86028,-0.80769 1.1979,-1.40407l0.50524,-0.2716c0,0 0.46843,-0.11674 0.58518,0.35171z" fill="#c9b065" stroke="none" stroke-width="0.5"/><path d="M314.36717,323.30618c-0.46846,0.11674 -0.58515,-0.35163 -0.58515,-0.35163l0.00906,-0.06606c-0.53694,-0.84523 -1.25213,-1.48131 -1.51614,-2.43294c0,0 -0.1167,-0.46837 0.35174,-0.5851c0.46837,-0.11671 0.58511,0.35174 0.58511,0.35174c0.15704,0.76274 0.95287,1.45375 1.39429,2.14861l0.11282,0.35029c0,0 0.11671,0.46838 -0.35172,0.58512z" fill="#c9b065" stroke="none" stroke-width="0.5"/><path d="M309.15218,317.47339c0.10509,-0.47111 0.57629,-0.36605 0.57629,-0.36605l0.6118,0.16183c0.69353,0.41682 1.38699,0.83367 2.08045,1.25051c0,0 0.4138,0.24868 0.16511,0.66247c-0.24872,0.41372 -0.66245,0.165 -0.66245,0.165c-0.69347,-0.41684 -1.38698,-0.83367 -2.08044,-1.25051l-0.32463,-0.047c0,0 -0.4712,-0.10508 -0.36612,-0.57627z" fill="#c9b065" stroke="none" stroke-width="0.5"/><path d="M307.96333,322.57169c-0.25886,-0.40753 0.14859,-0.66638 0.14859,-0.66638l0.58848,-0.37342c0.44352,-0.22359 0.83281,-0.59612 1.07911,-1.02743c0,0 0.24872,-0.41372 0.66244,-0.165c0.41368,0.24865 0.16508,0.66241 0.16508,0.66241c-0.34767,0.55694 -0.84649,1.04581 -1.4206,1.36425l-0.5568,0.35419c0,0 -0.40746,0.25885 -0.66629,-0.14862z" fill="#c9b065" stroke="none" stroke-width="0.5"/></g><g stroke-linecap="butt"><path d="M21.71857,79.23467c-7.49669,-3.74634 -10.77059,-12.39312 -7.31244,-19.31317c3.45814,-6.92003 12.33882,-9.49283 19.83552,-5.7465c7.4967,3.74634 10.77059,12.39312 7.31244,19.31316c-3.45815,6.92003 -12.33882,9.49283 -19.83552,5.7465z" fill="url(#color-11)" stroke="none" stroke-width="0"/><path d="M28.42551,54.61555c0.5686,-1.1378 1.95189,-1.59924 3.08968,-1.03064c1.13778,0.5686 1.59917,1.95186 1.03064,3.08968c-0.5686,1.1378 -1.95188,1.59926 -3.08967,1.03066c-1.13779,-0.5686 -1.59925,-1.95189 -1.03065,-3.08968z" fill="#c1c6ad" stroke="none" stroke-width="0.5"/><path d="M36.25522,63.67755c0.56858,-1.1377 1.95186,-1.59917 3.08964,-1.03057c1.13781,0.56853 1.59925,1.9519 1.03064,3.08968c-0.5686,1.1378 -1.95186,1.59918 -3.08968,1.03065c-1.13779,-0.5686 -1.59924,-1.95197 -1.03064,-3.08968z" fill="#c1c6ad" stroke="none" stroke-width="0.5"/><path d="M21.83741,71.92042c0.5686,-1.1378 1.95196,-1.59923 3.08975,-1.03063c1.13772,0.56857 1.59917,1.95185 1.03057,3.08965c-0.56853,1.13781 -1.95189,1.59925 -3.08969,1.03065c-1.13779,-0.5686 -1.59917,-1.95185 -1.03064,-3.08967z" fill="#c1c6ad" stroke="none" stroke-width="0.5"/><path d="M33.86292,75.44677c0.56853,-1.13781 1.95189,-1.59926 3.08968,-1.03066c1.13779,0.5686 1.59917,1.95185 1.03057,3.08965c-0.56853,1.13781 -1.95189,1.59925 -3.08969,1.03065c-1.13779,-0.5686 -1.59916,-1.95186 -1.03055,-3.08964z" fill="#c1c6ad" stroke="none" stroke-width="0.5"/><path d="M20.4733,58.71721c0.5686,-1.1378 1.95186,-1.59918 3.08968,-1.03064c1.13779,0.5686 1.59924,1.95189 1.03064,3.08969c-0.5686,1.1378 -1.95189,1.59925 -3.08968,1.03064c-1.13779,-0.5686 -1.59918,-1.95186 -1.03065,-3.08967z" fill="#c1c6ad" stroke="none" stroke-width="0.5"/><path d="M27.69811,69.98878c0.70134,-1.40359 1.80672,-2.27305 2.46895,-1.94218c0.66212,0.33093 0.6303,1.73698 -0.07103,3.1405c-0.70141,1.40348 -1.80682,2.2731 -2.46893,1.94218c-0.66218,-0.33094 -0.6304,-1.737 0.07102,-3.1405z" fill="#c1c6ad" stroke="none" stroke-width="0.5"/><path d="M40.74747,68.65086c0.66218,0.33094 0.6304,1.73692 -0.07104,3.1405c-0.70132,1.40352 -1.80671,2.27305 -2.46892,1.94216c-0.66213,-0.33093 -0.6304,-1.73699 0.07102,-3.14047c0.70143,-1.40357 1.80682,-2.2731 2.46894,-1.94218z" fill="#c1c6ad" stroke="none" stroke-width="0.5"/><path d="M22.0569,65.91487c0.66214,0.33085 0.63041,1.73693 -0.07098,3.14041c-0.70143,1.40357 -1.80674,2.27312 -2.46897,1.94226c-0.66212,-0.33093 -0.63039,-1.73701 0.07103,-3.1405c0.70143,-1.40357 1.80674,-2.27311 2.46894,-1.94216z" fill="#c1c6ad" stroke="none" stroke-width="0.5"/><path d="M12.82589,64.55961c0.1324,-0.99792 1.04872,-1.69954 2.04661,-1.56709c0.99789,0.13247 1.69947,1.04869 1.56707,2.04661c-0.13246,0.99789 -1.04879,1.69951 -2.04668,1.56705c-0.9979,-0.1324 -1.69947,-1.04869 -1.56707,-2.04661z" fill="#c1c6ad" stroke="none" stroke-width="0.5"/><path d="M29.73659,64.5975c0.13248,-0.99795 1.04879,-1.69951 2.04669,-1.56706c0.99791,0.1324 1.69947,1.04869 1.56707,2.04661c-0.13247,0.99789 -1.04879,1.69951 -2.04668,1.56705c-0.9979,-0.1324 -1.69943,-1.04878 -1.56707,-2.04661z" fill="#c1c6ad" stroke="none" stroke-width="0.5"/><path d="M32.64449,70.08419c0.1324,-0.99792 1.04869,-1.69947 2.04661,-1.56708c0.99788,0.13246 1.69951,1.04881 1.56706,2.04669c-0.13247,0.99789 -1.04877,1.69944 -2.04668,1.56705c-0.99788,-0.13246 -1.69944,-1.04877 -1.56703,-2.04667z" fill="#c1c6ad" stroke="none" stroke-width="0.5"/><path d="M19.13202,65.78524c0.06268,-0.36028 0.42295,-0.2976 0.42295,-0.2976c0.21343,0.03712 0.7471,0.12998 0.96059,0.16711c0,0 0.3602,0.06265 0.29753,0.42293c-0.06265,0.3602 -0.42285,0.29756 -0.42285,0.29756c-0.2135,-0.03714 -0.42697,-0.07426 -0.6404,-0.11138l-0.32018,-0.05573c0,0 -0.36029,-0.06267 -0.29762,-0.42288z" fill="#c9c9c9" stroke="none" stroke-width="0.5"/><path d="M20.69364,63.02317c1.38502,0.05145 3.00063,1.30453 3.00063,1.30453c0,0 1.63934,2.26368 1.59806,3.37355c-0.03155,0.84978 -1.82426,2.7162 -1.82426,2.7162c0,0 -1.76623,0.86232 -3.07926,0.81363c-1.92974,-0.07167 -11.93307,-3.5153 -11.89463,-4.55136c0.03684,-0.99192 10.27742,-3.72789 12.19945,-3.65655z" fill="#b965c9" stroke="#904e9d" stroke-width="0.5"/><path d="M26.61881,60.09087c0.91481,1.04105 1.1157,3.07576 1.1157,3.07576c0,0 -0.51664,2.74676 -1.35095,3.47993c-0.63873,0.56133 -3.22661,0.54281 -3.22661,0.54281c0,0 -1.8406,-0.6897 -2.70791,-1.67663c-1.2747,-1.45055 -5.65185,-11.08214 -4.87307,-11.76653c0.74567,-0.65523 9.77318,4.8999 11.04278,6.34462z" fill="#b965c9" stroke="#904e9d" stroke-width="0.5"/><path d="M31.88626,65.13711c-0.61064,1.24419 -2.41274,2.21009 -2.41274,2.21009c0,0 -2.73485,0.57622 -3.73189,0.08686c-0.7634,-0.37465 -1.73877,-2.7717 -1.73877,-2.7717c0,0 -0.06893,-1.96431 0.50992,-3.14389c0.85077,-1.73353 8.06723,-9.46973 8.9979,-9.01298c0.89113,0.43733 -0.77708,10.90505 -1.6244,12.63163z" fill="#b965c9" stroke="#a459b3" stroke-width="0.5"/><path d="M29.51195,71.70875c-1.38368,-0.07864 -2.97441,-1.36331 -2.97441,-1.36331c0,0 -1.59439,-2.2955 -1.5314,-3.4043c0.04834,-0.849 1.87739,-2.67974 1.87739,-2.67974c0,0 1.78287,-0.82747 3.09465,-0.75289c1.92798,0.10963 11.86162,3.74943 11.80277,4.78451c-0.05635,0.99098 -10.34879,3.52492 -12.269,3.41573z" fill="#b965c9" stroke="#a95bb8" stroke-width="0.5"/><path d="M22.61216,71.75979c-0.48822,-1.41336 0.14246,-3.52729 0.14246,-3.52729c0,0 1.63813,-2.53172 2.77071,-2.92292c0.86715,-0.29963 3.44372,0.77617 3.44372,0.77617c0,0 1.55621,1.44063 2.0191,2.78054c0.68024,1.96926 1.11618,13.37529 0.05891,13.74054c-1.01227,0.34967 -7.75735,-8.88565 -8.4349,-10.84705z" fill="#b965c9" stroke="#904e9d" stroke-width="0.5"/><path d="M24.26489,69.84237c-2.27889,-1.13883 -3.24602,-3.82351 -2.16015,-5.99639c1.08585,-2.17289 3.81352,-3.01118 6.09241,-1.87235c2.27889,1.13883 3.24602,3.82353 2.16015,5.99641c-1.08585,2.17289 -3.81352,3.01116 -6.09241,1.87233z" fill="url(#color-12)" stroke="none" stroke-width="0"/><path d="M21.303,64.59717c-0.0764,0.10897 -0.28086,0.32679 -0.61336,0.16064c-0.43186,-0.21579 -0.216,-0.64763 -0.216,-0.64763l0.83936,-0.59991c0.91431,0.45691 1.51322,0.90202 2.23673,1.6252c0,0 0.34144,0.34126 0.00017,0.6827c-0.34135,0.34141 -0.68267,0.00011 -0.68267,0.00011c-0.54004,-0.53979 -0.96929,-0.88527 -1.56426,-1.22111z" fill="#c9b065" stroke="none" stroke-width="0.5"/><path d="M29.255,62.01959c0.28969,0.3861 -0.09645,0.67586 -0.09645,0.67586l-0.33203,0.2431c-0.60091,0.60115 -1.263,1.12203 -1.63623,1.88978c0,0 -0.21578,0.43186 -0.64765,0.21606c-0.43179,-0.21577 -0.21599,-0.64764 -0.21599,-0.64764c0.44425,-0.87016 1.13104,-1.45449 1.8171,-2.1408l0.43537,-0.33276c0,0 0.38614,-0.28977 0.6759,0.09637z" fill="#c9b065" stroke="none" stroke-width="0.5"/><path d="M24.76682,61.39867c0.43179,0.21576 0.21599,0.64763 0.21599,0.64763l-0.06977,-0.17666c0.21331,0.67995 0.05457,1.17876 0.28823,1.82297c0,0 0.15279,0.45795 -0.30518,0.61075c-0.45793,0.15272 -0.61066,-0.30514 -0.61066,-0.30514c-0.21331,-0.67995 -0.05457,-1.17877 -0.28829,-1.82299l0.12203,-0.56048c0,0 0.21579,-0.43186 0.64766,-0.21606z" fill="#c9b065" stroke="none" stroke-width="0.5"/><path d="M30.64493,67.03443c-0.21579,0.43187 -0.64757,0.21609 -0.64757,0.21609l-0.04431,-0.04984c-0.99132,-0.1414 -1.93959,-0.01139 -2.83435,-0.42936c0,0 -0.43178,-0.21577 -0.21598,-0.64763c0.21577,-0.43179 0.64764,-0.21598 0.64764,-0.21598c0.6817,0.37647 1.7241,0.2209 2.53907,0.33714l0.33953,0.14196c0,0 0.43178,0.21577 0.216,0.64763z" fill="#c9b065" stroke="none" stroke-width="0.5"/><path d="M22.82264,67.20586c-0.28969,-0.3861 0.09645,-0.67587 0.09645,-0.67587l0.52068,-0.35971c0.76756,-0.25607 1.53509,-0.51208 2.30262,-0.7681c0,0 0.45797,-0.15279 0.61075,0.30517c0.15272,0.45794 -0.30523,0.61065 -0.30523,0.61065c-0.76753,0.25601 -1.5351,0.51206 -2.30263,0.76808l-0.24675,0.21614c0,0 -0.38613,0.28977 -0.67589,-0.09637z" fill="#c9b065" stroke="none" stroke-width="0.5"/><path d="M25.9241,71.42332c-0.47795,-0.0682 -0.4098,-0.54608 -0.4098,-0.54608l0.09877,-0.68993c0.11839,-0.48238 0.08835,-1.02035 -0.07931,-1.48789c0,0 -0.15271,-0.45794 0.30523,-0.61065c0.45786,-0.15274 0.61067,0.30514 0.61067,0.30514c0.19722,0.62623 0.24447,1.32306 0.11328,1.96634l-0.09278,0.65334c0,0 -0.06816,0.47789 -0.54605,0.40971z" fill="#c9b065" stroke="none" stroke-width="0.5"/></g></g></g></svg>