<svg version="1.1" xmlns="http://www.w3.org/2000/svg" xmlns:xlink="http://www.w3.org/1999/xlink" width="315.30573" height="116.65169" viewBox="0,0,315.30573,116.65169"><defs><linearGradient x1="135.81971" y1="155.59664" x2="165.99355" y2="121.51574" gradientUnits="userSpaceOnUse" id="color-1"><stop offset="0" stop-color="#494aff" stop-opacity="0"/><stop offset="1" stop-color="#494aff"/></linearGradient><linearGradient x1="133.56699" y1="163.27199" x2="146.73599" y2="120.78678" gradientUnits="userSpaceOnUse" id="color-2"><stop offset="0" stop-color="#494aff" stop-opacity="0"/><stop offset="1" stop-color="#494aff"/></linearGradient><linearGradient x1="128.94113" y1="149.82926" x2="143.03317" y2="107.80024" gradientUnits="userSpaceOnUse" id="color-3"><stop offset="0" stop-color="#494aff" stop-opacity="0"/><stop offset="1" stop-color="#494aff"/></linearGradient><linearGradient x1="130.58488" y1="155.57309" x2="152.46556" y2="117.95188" gradientUnits="userSpaceOnUse" id="color-4"><stop offset="0" stop-color="#b396e0" stop-opacity="0"/><stop offset="1" stop-color="#b396e0"/></linearGradient><radialGradient cx="158.64151" cy="111.66758" r="13.81753" gradientUnits="userSpaceOnUse" id="color-5"><stop offset="0" stop-color="#d22aff"/><stop offset="1" stop-color="#2b32d8"/></radialGradient><radialGradient cx="163.18311" cy="112.72346" r="3.02627" gradientUnits="userSpaceOnUse" id="color-6"><stop offset="0" stop-color="#ff00f7"/><stop offset="1" stop-color="#ff00f7" stop-opacity="0"/></radialGradient><radialGradient cx="153.9791" cy="108.78761" r="3.02628" gradientUnits="userSpaceOnUse" id="color-7"><stop offset="0" stop-color="#ff00f7"/><stop offset="1" stop-color="#ff00f7" stop-opacity="0"/></radialGradient><radialGradient cx="163.04653" cy="113.11598" r="3.88549" gradientUnits="userSpaceOnUse" id="color-8"><stop offset="0" stop-color="#ff00f7"/><stop offset="1" stop-color="#ff00f7" stop-opacity="0"/></radialGradient><radialGradient cx="153.94946" cy="108.68094" r="3.88549" gradientUnits="userSpaceOnUse" id="color-9"><stop offset="0" stop-color="#ff00f7"/><stop offset="1" stop-color="#ff00f7" stop-opacity="0"/></radialGradient><radialGradient cx="155.54262" cy="115.32066" r="3.02628" gradientUnits="userSpaceOnUse" id="color-10"><stop offset="0" stop-color="#ff00f7"/><stop offset="1" stop-color="#ff00f7" stop-opacity="0"/></radialGradient><radialGradient cx="155.42472" cy="115.30307" r="3.8855" gradientUnits="userSpaceOnUse" id="color-11"><stop offset="0" stop-color="#ff00f7"/><stop offset="1" stop-color="#ff00f7" stop-opacity="0"/></radialGradient><linearGradient x1="133.93325" y1="136.58926" x2="127.51019" y2="133.41479" gradientUnits="userSpaceOnUse" id="color-12"><stop offset="0" stop-color="#252ab8" stop-opacity="0"/><stop offset="1" stop-color="#252ab8"/></linearGradient><linearGradient x1="148.49895" y1="140.93607" x2="154.43083" y2="143.86779" gradientUnits="userSpaceOnUse" id="color-13"><stop offset="0" stop-color="#252ab8" stop-opacity="0"/><stop offset="1" stop-color="#252ab8"/></linearGradient><linearGradient x1="126.96281" y1="177.1724" x2="91.35402" y2="133.54225" gradientUnits="userSpaceOnUse" id="color-14"><stop offset="0" stop-color="#494aff" stop-opacity="0"/><stop offset="1" stop-color="#494aff"/></linearGradient><linearGradient x1="129.62129" y1="186.99834" x2="114.08026" y2="132.60903" gradientUnits="userSpaceOnUse" id="color-15"><stop offset="0" stop-color="#494aff" stop-opacity="0"/><stop offset="1" stop-color="#494aff"/></linearGradient><linearGradient x1="133.68384" y1="177.76996" x2="107.862" y2="129.60751" gradientUnits="userSpaceOnUse" id="color-16"><stop offset="0" stop-color="#b396e0" stop-opacity="0"/><stop offset="1" stop-color="#b396e0"/></linearGradient><radialGradient cx="100.03033" cy="120.9347" r="17.35001" gradientUnits="userSpaceOnUse" id="color-17"><stop offset="0" stop-color="#d22aff"/><stop offset="1" stop-color="#2b32d8"/></radialGradient><radialGradient cx="94.67068" cy="122.28642" r="3.79994" gradientUnits="userSpaceOnUse" id="color-18"><stop offset="0" stop-color="#ff00f7"/><stop offset="1" stop-color="#ff00f7" stop-opacity="0"/></radialGradient><radialGradient cx="105.53253" cy="117.24777" r="3.79995" gradientUnits="userSpaceOnUse" id="color-19"><stop offset="0" stop-color="#ff00f7"/><stop offset="1" stop-color="#ff00f7" stop-opacity="0"/></radialGradient><radialGradient cx="94.83187" cy="122.78892" r="4.87883" gradientUnits="userSpaceOnUse" id="color-20"><stop offset="0" stop-color="#ff00f7"/><stop offset="1" stop-color="#ff00f7" stop-opacity="0"/></radialGradient><radialGradient cx="105.56752" cy="117.11122" r="4.87883" gradientUnits="userSpaceOnUse" id="color-21"><stop offset="0" stop-color="#ff00f7"/><stop offset="1" stop-color="#ff00f7" stop-opacity="0"/></radialGradient><radialGradient cx="103.68738" cy="125.61134" r="3.79995" gradientUnits="userSpaceOnUse" id="color-22"><stop offset="0" stop-color="#ff00f7"/><stop offset="1" stop-color="#ff00f7" stop-opacity="0"/></radialGradient><radialGradient cx="103.82652" cy="125.58882" r="4.87883" gradientUnits="userSpaceOnUse" id="color-23"><stop offset="0" stop-color="#ff00f7"/><stop offset="1" stop-color="#ff00f7" stop-opacity="0"/></radialGradient><linearGradient x1="129.18904" y1="152.83928" x2="136.76903" y2="148.77534" gradientUnits="userSpaceOnUse" id="color-24"><stop offset="0" stop-color="#252ab8" stop-opacity="0"/><stop offset="1" stop-color="#252ab8"/></linearGradient><linearGradient x1="111.99977" y1="158.40403" x2="104.99943" y2="162.1572" gradientUnits="userSpaceOnUse" id="color-25"><stop offset="0" stop-color="#252ab8" stop-opacity="0"/><stop offset="1" stop-color="#252ab8"/></linearGradient><linearGradient x1="83.59713" y1="180.26463" x2="396.40297" y2="180.26463" gradientUnits="userSpaceOnUse" id="color-26"><stop offset="0" stop-color="#b464cc"/><stop offset="1" stop-color="#7c30dd"/></linearGradient><radialGradient cx="122.00501" cy="179.716" r="38.22685" gradientUnits="userSpaceOnUse" id="color-27"><stop offset="0" stop-color="#ab1abd"/><stop offset="1" stop-color="#541bbc"/></radialGradient></defs><g transform="translate(-82.34713,-103.10919)"><g data-paper-data="{&quot;isPaintingLayer&quot;:true}" fill-rule="nonzero" stroke-linecap="butt" stroke-linejoin="miter" stroke-miterlimit="10" stroke-dasharray="" stroke-dashoffset="0" style="mix-blend-mode: normal"><path d="M165.81548,140.82144v-15.23906h93.61135v15.23906z" fill="#fcfcfc" stroke="#000000" stroke-width="2.5"/><text transform="translate(168.42791,136.46742) scale(0.23584,0.23584)" font-size="40" xml:space="preserve" fill="#0a0a0a" fill-rule="nonzero" stroke="none" stroke-width="1" stroke-linecap="butt" stroke-linejoin="miter" stroke-miterlimit="10" stroke-dasharray="" stroke-dashoffset="0" font-family="Sans Serif" font-weight="normal" text-anchor="start" style="mix-blend-mode: normal"><tspan x="0" dy="0">TowerSize: Large</tspan></text><path d="M149.66569,155.16775c0,0 2.05589,-3.87197 2.90805,-6.77158c0.20759,-0.70642 -0.21565,-3.40626 -4.84407,1.65409c-1.92832,2.10825 -8.05078,8.65974 -8.05078,8.65974c0,0 3.48796,-5.80217 4.48666,-8.70318c0.41174,-1.19601 -2.87398,1.44318 -2.87398,1.44318c0,0 4.95435,-8.7835 4.62619,-8.84204c-2.47612,-0.4416 -9.64818,11.81037 -9.64818,11.81037l2.88893,-8.27672c0,0 4.83312,-6.35821 6.67219,-9.9588c1.98334,-3.88309 4.82779,-12.55631 4.82779,-12.55631c0,0 8.00444,-5.07098 11.29947,-4.48333c3.60383,0.64272 2.41964,15.61739 2.41964,15.61739c0,0 -0.76878,-2.39519 -4.77878,2.73145c-1.27678,1.63235 -3.85881,9.46149 -3.85881,9.46149z" data-paper-data="{&quot;index&quot;:null}" fill="url(#color-1)" stroke="none" stroke-width="0"/><path d="M129.023,142.53789c0,0 5.82035,-6.22866 6.55935,-8.12681c2.32085,-5.96147 -0.46145,-5.32133 -0.46145,-5.32133c0,0 13.54521,-8.86548 16.47514,-6.27902c2.67886,2.36484 2.97812,11.53975 2.97812,11.53975c0,0 -6.45811,6.88722 -8.89332,10.547c-2.25802,3.39352 -5.22651,10.6733 -5.22651,10.6733l-6.05073,6.71406c0,0 7.09608,-12.28952 5.08298,-14.06663c-0.26679,-0.23552 -5.47441,8.42282 -5.47441,8.42282c0,0 0.40989,-4.06052 -0.46813,-3.09496c-2.12971,2.34202 -5.43141,8.23625 -5.43141,8.23625c0,0 2.32456,-8.42853 3.09952,-11.1068c1.86012,-6.42853 -0.99119,-5.34707 -1.53267,-4.80567c-2.22256,2.22232 -4.60051,5.93511 -4.60051,5.93511z" data-paper-data="{&quot;index&quot;:null}" fill="url(#color-2)" stroke="none" stroke-width="0"/><path d="M125.72508,129.75147c0,0 5.64458,-6.31553 6.41276,-8.19925c2.41255,-5.91616 -0.17701,-5.18075 -0.17701,-5.18075c0,0 12.87424,-9.1971 15.44951,-6.78591c2.35461,2.20458 2.20314,11.15673 2.20314,11.15673c0,0 -6.26197,6.98417 -8.67264,10.65606c-2.23528,3.40475 -5.30499,10.63451 -5.30499,10.63451l-5.87911,6.79888c0,0 7.1002,-12.28748 5.33078,-13.94416c-0.23451,-0.21955 -5.42837,8.44558 -5.42837,8.44558c0,0 0.566,-3.98337 -0.28672,-3.0053c-2.06832,2.37236 -5.38014,8.26159 -5.38014,8.26159c0,0 2.53072,-8.32665 3.36828,-10.97398c2.01038,-6.35427 -0.66319,-5.18496 -1.18654,-4.6346c-2.14817,2.25908 -4.50864,5.98052 -4.50864,5.98052z" data-paper-data="{&quot;index&quot;:null}" fill="url(#color-3)" stroke="none" stroke-width="0"/><path d="M130.72191,136.52271c0,0 7.2595,-7.25159 8.01035,-9.31267c0.25481,-0.69944 -1.84168,-2.94547 -1.59076,-4.06292c0.43018,-1.91573 3.10421,-2.81531 2.70173,-3.54988c-1.53556,-2.80247 -6.83538,-0.62755 -6.83538,-0.62755c0,0 3.48528,-8.07292 8.46615,-9.57078c3.51577,-1.05729 6.16784,-2.94572 10.24684,-3.31462c4.19322,-0.37924 8.65256,0.95953 10.13096,1.49452c2.19778,0.79531 7.51959,7.85287 7.62004,11.82942c0.10457,4.13817 -6.26644,16.41179 -6.26644,16.41179c0,0 -5.71784,-3.38173 -8.59257,0.73749c-2.6656,3.81954 -5.73505,11.74356 -5.73505,11.74356l-7.51002,7.7846c0,0 8.1262,-13.67686 5.00879,-15.21758c-0.41314,-0.20419 -6.43236,9.46153 -6.43236,9.46153c0,0 -0.04753,-4.24071 -1.13865,-3.12008c-2.64661,2.71819 -6.40045,9.2632 -6.40045,9.2632c0,0 1.98277,-9.01448 2.66409,-11.88416c1.63536,-6.88796 -2.22489,-5.36425 -2.90609,-4.72881c-2.79619,2.60827 -5.58189,6.77388 -5.58189,6.77388z" data-paper-data="{&quot;index&quot;:null}" fill="url(#color-4)" stroke="none" stroke-width="0"/><path d="M151.52374,128.68994c-0.90701,-0.20356 -4.28027,3.75991 -4.28027,3.75991c-0.18921,-0.09351 1.84302,-4.04724 2.07157,-4.92496c0.16387,-0.62935 -7.0131,9.39801 -7.23265,8.89272c-0.24758,-0.56979 6.43591,-11.63677 6.21275,-11.67806c-1.00707,-0.18635 -4.52267,3.91954 -4.97965,3.49854c-0.789,-0.72685 1.44947,-3.72827 1.15444,-4.63378c-0.27634,-0.84813 -5.27231,6.86855 -5.48504,6.12843c-0.58008,-2.01812 4.04726,-12.36044 5.83049,-15.42649c1.50159,-2.5818 -3.41494,-0.46068 -1.27535,-2.19648c1.24744,-1.01198 5.53782,-7.42378 6.99416,-7.10819c1.17364,0.25432 2.4904,0.75282 4.07164,1.19426c0.33742,0.09421 1.29891,-1.62675 2.0704,-2.35937c0.95835,-0.91005 2.07396,-0.70823 2.07396,-0.70823c0,0 -0.81711,0.85704 -1.09541,2.05772c-0.22932,0.98936 0.09552,2.08072 0.09552,2.08072l1.86199,-1.87597c0,0 -1.05216,3.38407 -0.73081,3.33495c0.4457,-0.06813 2.3187,-2.54122 2.3187,-2.54122c0,0 -0.86426,2.53356 -0.7086,3.10971c0.05799,0.21462 2.3688,-2.27651 2.3688,-2.27651l-0.99837,3.05034c0,0 0.97555,-0.39358 1.83427,-1.25235c0.84716,-0.84722 1.20778,-2.6109 1.20778,-2.6109c0,0 0.98519,1.66462 0.7061,2.84266c-0.23937,1.01046 -1.0364,1.67475 -0.84936,1.80331c3.27103,2.24875 1.632,7.74422 0.8221,11.14898c-0.46893,1.97125 -0.88821,-1.0626 -2.02788,0.89692c-1.58044,2.71737 -10.41922,12.07824 -12.27934,12.99805c-1.1202,0.55393 2.05548,-2.9625 2.45286,-5.20998c0.30499,-1.72499 -1.01525,-1.72773 -2.20483,-1.99471z" data-paper-data="{&quot;index&quot;:null}" fill="url(#color-5)" stroke="none" stroke-width="0"/><path d="M164.57634,112.58643c1.14224,1.17512 1.51345,2.63512 0.82914,3.26101c-0.68431,0.62591 -2.16502,0.18066 -3.30726,-0.99447c-1.14224,-1.17512 -1.51345,-2.63512 -0.82914,-3.26101c0.68431,-0.6259 2.16503,-0.18065 3.30728,0.99448z" data-paper-data="{&quot;index&quot;:null}" fill="url(#color-6)" stroke="none" stroke-width="0"/><path d="M150.91202,108.37734c0.18674,-0.8718 1.7113,-1.39485 3.40522,-1.16826c1.69389,0.2266 2.91569,1.11702 2.72895,1.98881c-0.18675,0.8718 -1.7113,1.39486 -3.40522,1.16826c-1.69389,-0.2266 -2.9157,-1.11701 -2.72895,-1.98881z" data-paper-data="{&quot;index&quot;:null}" fill="url(#color-7)" stroke="none" stroke-width="0"/><path d="M166.3941,114.77044c-0.7575,1.30243 -2.87032,1.61753 -4.71913,0.70379c-1.8488,-0.91373 -2.73348,-2.71029 -1.97598,-4.01272c0.7575,-1.30243 2.87032,-1.61753 4.71913,-0.70379c1.8488,0.91373 2.73348,2.71029 1.97598,4.01272z" data-paper-data="{&quot;index&quot;:null}" fill="url(#color-8)" stroke="none" stroke-width="0"/><path d="M157.29699,110.33543c-0.7575,1.30243 -2.87032,1.61753 -4.71913,0.70379c-1.8488,-0.91373 -2.73349,-2.7103 -1.97599,-4.01272c0.7575,-1.30243 2.87033,-1.61753 4.71914,-0.70379c1.8488,0.91373 2.73348,2.7103 1.97598,4.01272z" data-paper-data="{&quot;index&quot;:null}" fill="url(#color-9)" stroke="none" stroke-width="0"/><path d="M153.90813,117.74799c-0.79213,-0.50643 -0.7025,-2.00372 0.20023,-3.34429c0.90272,-1.34056 2.27665,-2.01677 3.06877,-1.51035c0.79214,0.50644 0.7025,2.00372 -0.20022,3.34429c-0.90272,1.34056 -2.27666,2.01678 -3.06878,1.51035z" data-paper-data="{&quot;index&quot;:null}" fill="url(#color-10)" stroke="none" stroke-width="0"/><path d="M158.40846,113.13636c0.99203,1.16088 0.46038,3.07203 -1.1875,4.26867c-1.64787,1.19664 -3.78794,1.22564 -4.77997,0.06476c-0.99203,-1.16088 -0.46038,-3.07203 1.1875,-4.26867c1.64787,-1.19664 3.78794,-1.22564 4.77997,-0.06476z" data-paper-data="{&quot;index&quot;:null}" fill="url(#color-11)" stroke="none" stroke-width="0"/><path d="M129.84657,128.39879c-1.16963,-0.77716 2.41206,-4.54144 5.30779,-8.24482c2.89573,-3.70338 6.19135,-6.07556 7.36099,-5.2984c1.16963,0.77716 -1.72929,3.57646 -4.62502,7.27984c-1.10901,1.41831 -2.01357,5.12777 -2.82655,6.20421c-0.24057,0.31853 -0.02429,-1.68224 -1.27694,-1.69013c-1.42306,-0.00897 -3.707,1.90429 -3.94025,1.7493z" data-paper-data="{&quot;index&quot;:null}" fill="#2b32d8" stroke="none" stroke-width="0"/><path d="M162.107,132.92432c-1.95275,3.45027 -3.69342,7.40552 -4.7831,6.88145c-0.2173,-0.10452 0.49012,-2.44032 -0.06168,-3.43626c-0.48571,-0.87667 -2.05643,0.0406 -1.88523,-0.25018c0.57857,-0.98271 3.29806,-3.03698 4.04591,-4.35836c1.95277,-3.45026 3.15716,-6.5569 4.24684,-6.03283c1.08969,0.52408 0.39003,3.74592 -1.56272,7.19617z" data-paper-data="{&quot;index&quot;:null}" fill="#2b32d8" stroke="none" stroke-width="0"/><path d="M128.78959,142.64767c0,0 -0.54786,-1.2565 -0.94387,-2.37673c-0.17634,-0.49882 -0.02597,-1.04346 -0.29234,-1.3132c-0.62178,-0.62965 -1.38197,1.89674 -1.38197,1.89674c0,0 -0.45948,-1.01637 -0.12707,-2.4123c0.39897,-1.67545 1.61272,-3.81764 1.76665,-4.33365c0.5708,-1.9135 1.74668,-4.45878 2.55724,-5.49448c0.36331,-0.46422 0.84482,-0.14508 1.58475,-0.21819c0.63829,-0.06307 1.54796,-0.55403 1.80398,-0.48227c1.21499,0.34053 -1.17538,3.17223 -2.22272,6.68324c-0.06832,0.22908 -0.92124,1.7096 -1.16465,2.72174c-0.31265,1.30002 0.65322,4.27482 0.65322,4.27482c0,0 -1.53215,-3.08229 -1.82625,-2.54807c-0.25454,0.46237 -0.54008,0.11619 -0.64396,0.6485c-0.27225,1.39502 0.23701,2.95385 0.23701,2.95385z" data-paper-data="{&quot;index&quot;:null}" fill="url(#color-12)" stroke="none" stroke-width="0"/><path d="M148.53847,147.13428c-1.13715,0.2918 -2.46562,0.54559 -2.46562,0.54559c0,0 1.56099,-0.43569 2.58586,-1.34177c0.39107,-0.34574 -0.04374,-0.37126 0.21196,-0.78807c0.29542,-0.48159 -3.05962,0.0075 -3.05962,0.0075c0,0 2.97591,-0.83567 3.90084,-1.72185c0.72012,-0.68994 1.51952,-2.05145 1.67574,-2.217c2.39428,-2.53724 3.53527,-5.67952 4.44045,-4.9921c0.19074,0.14486 0.24605,1.04082 0.51967,1.52564c0.3172,0.56203 0.82964,0.74032 0.62798,1.2352c-0.44989,1.10412 -1.97265,3.23888 -3.27755,4.62168c-0.35188,0.3729 -1.51895,2.32848 -2.71304,3.46775c-0.99487,0.94921 -2.07779,1.14291 -2.07779,1.14291c0,0 1.71949,-1.83035 0.87628,-1.94939c-0.36122,-0.05099 -0.73882,0.334 -1.24517,0.46395z" data-paper-data="{&quot;index&quot;:null}" fill="url(#color-13)" stroke="none" stroke-width="0"/><path d="M103.45446,166.10752c0,0 -3.0471,-10.02282 -4.55386,-12.11254c-4.73229,-6.56309 -5.63954,-3.49678 -5.63954,-3.49678c0,0 -1.39748,-19.17049 2.85547,-19.99329c3.88852,-0.7523 13.33474,5.73954 13.33474,5.73954c0,0 3.35678,11.1034 5.69737,16.0745c2.17031,4.60945 7.87398,12.7492 7.87398,12.7492l3.40929,10.5958c0,0 -8.46389,-15.68488 -11.38601,-15.11955c-0.38726,0.07494 5.45947,11.31952 5.45947,11.31952c0,0 -3.87755,-3.37869 -3.39164,-1.84755c1.17858,3.71385 5.29479,11.14175 5.29479,11.14175c0,0 -7.22525,-8.38717 -9.50089,-11.08615c-5.46209,-6.47823 -5.96157,-3.02192 -5.71659,-2.11756c1.00565,3.71206 3.43185,8.66894 3.43185,8.66894z" data-paper-data="{&quot;index&quot;:null}" fill="url(#color-14)" stroke="none" stroke-width="0"/><path d="M139.63817,172.31833c0,0 -2.80627,-4.7531 -5.42916,-7.5981c-0.63901,-0.69309 -4.00389,-2.07758 -1.80873,6.15219c0.91454,3.4287 3.65781,14.21886 3.65781,14.21886c0,0 -3.89641,-7.54576 -6.40972,-10.544c-1.03618,-1.23611 -0.55246,3.96215 -0.55246,3.96215c0,0 -6.14561,-11.08435 -6.46046,-10.78284c-2.3757,2.27504 5.99853,18.008 5.99853,18.008l-7.14059,-8.59529c0,0 -3.50318,-9.31953 -6.16792,-13.66389c-2.87384,-4.68522 -10.49518,-13.5022 -10.49518,-13.5022c0,0 0.35317,-11.74567 3.51455,-14.77312c3.45767,-3.31117 19.44265,8.03836 19.44265,8.03836c0,0 -3.28346,-0.81951 -0.54457,6.81233c0.8721,2.42999 7.74082,10.40389 7.74082,10.40389z" data-paper-data="{&quot;index&quot;:null}" fill="url(#color-15)" stroke="none" stroke-width="0"/><path d="M138.40864,166.32572c0,0 -3.28747,-5.33278 -6.58731,-8.67188c-0.80389,-0.81348 -5.35946,-2.76413 -3.42954,6.05379c0.80404,3.67375 3.14395,15.21403 3.14395,15.21403c0,0 -4.42998,-8.37888 -7.5533,-11.85869c-1.28765,-1.43462 -1.34375,3.99431 -1.34375,3.99431c0,0 -7.1034,-12.37399 -7.59096,-12.11259c-3.67892,1.97242 5.91098,19.48144 5.91098,19.48144l-8.86273,-9.96579c0,0 -3.62232,-10.14428 -6.76805,-15.03403c-3.39253,-5.27339 -10.14026,-0.94413 -10.14026,-0.94413c0,0 -7.51855,-15.71261 -7.39515,-21.01027c0.11855,-5.09075 6.39892,-14.1258 8.99257,-15.14395c1.74469,-0.68489 7.00726,-2.39877 11.95576,-1.91328c4.81371,0.47227 7.94348,2.88983 12.09251,4.24335c5.87802,1.91755 9.99107,12.25245 9.99107,12.25245c0,0 -6.25443,-2.78431 -8.06657,0.80339c-0.47498,0.9404 2.6807,2.09203 3.18837,4.54453c0.29613,1.43055 -2.17799,4.30591 -1.87728,5.20133c0.88609,2.63859 9.45317,11.92202 9.45317,11.92202z" fill="url(#color-16)" stroke="none" stroke-width="0"/><path d="M108.43014,142.7266c-1.40385,0.34178 -2.96189,0.3453 -2.60196,2.55362c0.46895,2.87721 4.21665,7.37892 2.89467,6.66979c-2.19516,-1.17753 -12.626,-13.16126 -14.4911,-16.64002c-1.34494,-2.50856 -1.83975,1.37535 -2.39315,-1.14823c-0.95579,-4.35875 -2.89004,-11.39402 0.97017,-14.27285c0.22073,-0.16458 -0.71985,-1.01501 -1.00234,-2.30858c-0.32936,-1.50811 0.83328,-3.63915 0.83328,-3.63915c0,0 0.42558,2.25784 1.42533,3.34245c1.0134,1.0994 2.16466,1.60326 2.16466,1.60326l-1.1782,-3.90502c0,0 2.72704,3.18913 2.79547,2.91438c0.1837,-0.73759 -0.83623,-3.98103 -0.83623,-3.98103c0,0 2.21038,3.16604 2.73635,3.25326c0.37923,0.06289 -0.86244,-4.26938 -0.86244,-4.26938l2.19738,2.4016c0,0 0.38336,-1.39715 0.11273,-2.66373c-0.32842,-1.53711 -1.29271,-2.63429 -1.29271,-2.63429c0,0 1.31655,-0.25837 2.44752,0.90668c0.91046,0.93789 2.04512,3.14106 2.44332,3.02046c1.86605,-0.56513 3.41999,-1.20332 4.80502,-1.52889c1.71867,-0.40401 6.78183,7.80434 8.25396,9.09986c2.52498,2.22216 -3.27712,-0.49328 -1.50506,2.81192c2.10443,3.92514 7.56525,17.1653 6.88068,19.7489c-0.25105,0.9475 -6.14688,-8.93135 -6.473,-7.84558c-0.34818,1.15923 2.29349,5.00162 1.36237,5.93213c-0.5393,0.53895 -4.68813,-4.71738 -5.87659,-4.47881c-0.26335,0.05287 7.62397,14.22074 7.33179,14.95018c-0.25909,0.64687 -8.72878,-12.19009 -8.53539,-11.3844c0.26972,1.12365 2.66798,6.18519 2.4447,6.3049c0,0 -3.98085,-5.07401 -5.05123,-4.81341z" fill="url(#color-17)" stroke="none" stroke-width="0"/><path d="M93.02649,122.111c1.34799,-1.50439 3.09541,-2.0744 3.90299,-1.27312c0.80758,0.80126 0.36951,2.67035 -0.97848,4.17473c-1.34799,1.50439 -3.0954,2.07439 -3.90297,1.27311c-0.80758,-0.80126 -0.36951,-2.67035 0.97848,-4.17473z" fill="url(#color-18)" stroke="none" stroke-width="0"/><path d="M109.15206,116.72255c0.22039,1.11608 -1.22149,2.25597 -3.22049,2.54606c-1.99903,0.29008 -3.79819,-0.37953 -4.01857,-1.4956c-0.22038,-1.11606 1.22149,-2.25597 3.22049,-2.54606c1.99903,-0.29008 3.79819,0.37953 4.01857,1.49559z" data-paper-data="{&quot;index&quot;:null}" fill="url(#color-19)" stroke="none" stroke-width="0"/><path d="M93.21325,119.76989c2.18182,-1.16976 4.67521,-0.76637 5.56915,0.90099c0.89394,1.66736 -0.1501,3.96731 -2.3319,5.13706c-2.18182,1.16976 -4.67521,0.76637 -5.56915,-0.90099c-0.89394,-1.66736 0.1501,-3.96731 2.3319,-5.13706z" fill="url(#color-20)" stroke="none" stroke-width="0"/><path d="M103.94891,114.09222c2.18182,-1.16976 4.67521,-0.76637 5.56915,0.90099c0.89394,1.66736 -0.1501,3.96731 -2.3319,5.13706c-2.18182,1.16976 -4.67521,0.76637 -5.56915,-0.90099c-0.89394,-1.66736 0.1501,-3.96731 2.3319,-5.13706z" fill="url(#color-21)" stroke="none" stroke-width="0"/><path d="M105.61627,128.71879c-0.9348,0.64832 -2.55621,-0.21736 -3.62152,-1.93354c-1.06532,-1.71619 -1.1711,-3.63301 -0.23629,-4.28135c0.9348,-0.64832 2.55621,0.21736 3.62152,1.93354c1.06532,1.71619 1.1711,3.63301 0.23629,4.28134z" data-paper-data="{&quot;index&quot;:null}" fill="url(#color-22)" stroke="none" stroke-width="0"/><path d="M105.94629,122.89792c1.94469,1.53194 2.57211,3.97858 1.40139,5.46473c-1.17072,1.48615 -3.69626,1.44902 -5.64094,-0.08291c-1.94469,-1.53194 -2.57211,-3.97858 -1.40139,-5.46473c1.17072,-1.48615 3.69626,-1.44902 5.64094,0.08291z" fill="url(#color-23)" stroke="none" stroke-width="0"/><path d="M134.01183,142.35389c-0.27526,0.19841 -2.9706,-2.25092 -4.64998,-2.23944c-1.47828,0.01011 -1.22304,2.57148 -1.50694,2.1637c-0.95941,-1.37805 -2.02691,-6.12688 -3.33567,-7.94259c-3.41731,-4.74105 -6.8384,-8.32469 -5.45809,-9.31961c1.38031,-0.99492 5.26954,2.04193 8.68685,6.78298c3.41731,4.74105 7.64414,9.56004 6.26383,10.55496z" data-paper-data="{&quot;index&quot;:null}" fill="#2b32d8" stroke="none" stroke-width="0"/><path d="M95.94061,148.14744c-2.30448,-4.417 -3.13017,-8.54158 -1.8442,-9.2125c1.28595,-0.67092 2.70728,3.30619 5.01178,7.72319c0.88256,1.69161 4.09189,4.32148 4.77467,5.57954c0.20203,0.37226 -1.6516,-0.80202 -2.2248,0.32029c-0.65119,1.27499 0.18364,4.26527 -0.0728,4.39907c-1.28595,0.67092 -3.34015,-4.39257 -5.64463,-8.80959z" data-paper-data="{&quot;index&quot;:null}" fill="#2b32d8" stroke="none" stroke-width="0"/><path d="M135.25917,160.5952c0,0 0.60098,-1.9956 0.2797,-3.78149c-0.12259,-0.68146 -0.45956,-0.23829 -0.75995,-0.83021c-0.34707,-0.68391 -2.1552,3.26203 -2.1552,3.26203c0,0 1.13985,-3.80832 0.77088,-5.4726c-0.28726,-1.29573 -1.29381,-3.19109 -1.37443,-3.48436c-1.23599,-4.49477 -4.0569,-8.11989 -2.62308,-8.55584c0.30214,-0.09187 1.37566,0.53666 2.12891,0.6174c0.87321,0.09359 1.44145,-0.31497 1.8702,0.27932c0.95656,1.32591 2.34423,4.58435 3.01785,7.03401c0.18166,0.6606 1.61402,3.40301 2.08486,5.54791c0.39228,1.78705 -0.14996,3.0882 -0.14996,3.0882c0,0 -0.89711,-3.23427 -1.63089,-2.42819c-0.31435,0.34532 -0.13689,1.04256 -0.345,1.68115c-0.46733,1.43412 -1.11388,3.04268 -1.11388,3.04268z" data-paper-data="{&quot;index&quot;:null}" fill="url(#color-24)" stroke="none" stroke-width="0"/><path d="M111.95312,166.33897c-0.59756,-0.16635 -1.04317,-0.65922 -1.46945,-0.59394c-0.99508,0.1524 1.03412,2.49559 1.03412,2.49559c0,0 -1.27798,-0.24798 -2.45205,-1.46315c-1.40917,-1.45849 -2.78645,-3.96201 -3.20171,-4.43939c-1.53993,-1.77025 -3.33698,-4.50315 -3.8679,-5.91664c-0.23797,-0.63355 0.36676,-0.86179 0.74109,-1.5813c0.3229,-0.62066 0.38818,-1.76766 0.61327,-1.95311c1.06822,-0.88003 2.41473,3.14269 5.24026,6.39086c0.18436,0.21193 1.12776,1.95492 1.97758,2.83818c1.09154,1.13448 4.60346,2.2043 4.60346,2.2043c0,0 -3.95934,-0.62612 -3.61071,-0.0096c0.30176,0.5336 -0.21137,0.56627 0.25014,1.00889c1.20946,1.15996 3.05163,1.71773 3.05163,1.71773c0,0 -1.56776,-0.3249 -2.90973,-0.69846z" data-paper-data="{&quot;index&quot;:null}" fill="url(#color-25)" stroke="none" stroke-width="0"/><path d="M83.59713,218.51088v-76.49249h312.80573v76.49249z" fill="url(#color-26)" stroke="#000000" stroke-width="2.5"/><path d="M84.66202,217.94285v-76.4537h74.68599v76.4537z" fill="url(#color-27)" stroke="#000000" stroke-width="0.5"/><text transform="translate(113.06493,207.23388) scale(0.43729,0.5)" font-size="40" xml:space="preserve" fill="#000000" fill-rule="nonzero" stroke="none" stroke-width="1" stroke-linecap="butt" stroke-linejoin="miter" stroke-miterlimit="10" stroke-dasharray="" stroke-dashoffset="0" font-family="Marker" font-weight="normal" text-anchor="start" style="mix-blend-mode: normal"><tspan x="0" dy="0">1850</tspan></text><g stroke="#000000"><path d="M101.88067,210.27299c-6.07513,0 -11,-4.64505 -11,-10.375c0,-5.72995 4.92487,-10.375 11,-10.375c6.07513,0 11,4.64505 11,10.375c0,5.72995 -4.92487,10.375 -11,10.375z" fill="#ffd036" stroke-width="1"/><path d="M109.81817,199.77299c0,4.55635 -3.55374,8.25 -7.9375,8.25c-4.38376,0 -7.9375,-3.69365 -7.9375,-8.25c0,-4.55635 3.55374,-8.25 7.9375,-8.25c4.38376,0 7.9375,3.69365 7.9375,8.25z" fill="#e0b82f" stroke-width="1"/><text transform="translate(97.03047,205.49174) scale(0.4349,0.4349)" font-size="40" xml:space="preserve" fill="#000000" fill-rule="nonzero" stroke="#000000" stroke-width="0" stroke-linecap="butt" stroke-linejoin="miter" stroke-miterlimit="10" stroke-dasharray="" stroke-dashoffset="0" font-family="Sans Serif" font-weight="normal" text-anchor="start" style="mix-blend-mode: normal"><tspan x="0" dy="0">$</tspan></text></g><text transform="translate(160.87251,154.41806) scale(0.2155,0.2827)" font-size="40" xml:space="preserve" fill="#ffffff" fill-rule="nonzero" stroke="none" stroke-width="1" stroke-linecap="butt" stroke-linejoin="miter" stroke-miterlimit="10" stroke-dasharray="" stroke-dashoffset="0" font-family="Sans Serif" font-weight="normal" text-anchor="start" style="mix-blend-mode: normal"><tspan x="0" dy="0">When Charged aim With the mouse then</tspan><tspan x="0" dy="48px">Press Q Too fire a Portal Orb</tspan><tspan x="0" dy="48px">When the Portal orb collides it Will Errupt into </tspan><tspan x="0" dy="48px">a Portal Releasing Void Lurkers doing Very High Damage</tspan></text><text transform="translate(86.57722,160.43963) scale(0.27632,0.46273)" font-size="40" xml:space="preserve" fill="#e4a7ff" fill-rule="nonzero" stroke="#ffffff" stroke-width="0" stroke-linecap="butt" stroke-linejoin="miter" stroke-miterlimit="10" stroke-dasharray="" stroke-dashoffset="0" font-family="Curly" font-weight="normal" text-anchor="start" style="mix-blend-mode: normal"><tspan x="0" dy="0">Empress of The</tspan><tspan x="0" dy="48px">  Void Lurkers</tspan></text><text transform="translate(159.87644,210.76812) scale(0.44261,0.39873)" font-size="40" xml:space="preserve" fill="#ffffff" fill-rule="nonzero" stroke="none" stroke-width="1" stroke-linecap="butt" stroke-linejoin="miter" stroke-miterlimit="10" stroke-dasharray="" stroke-dashoffset="0" font-family="Sans Serif" font-weight="normal" text-anchor="start" style="mix-blend-mode: normal"><tspan x="0" dy="0">Good Endgame Tower!</tspan></text></g></g></svg>