<svg version="1.1" xmlns="http://www.w3.org/2000/svg" xmlns:xlink="http://www.w3.org/1999/xlink" width="321.99587" height="111.78251" viewBox="0,0,321.99587,111.78251"><defs><linearGradient x1="122.005" y1="141.48914" x2="122.005" y2="217.94284" gradientUnits="userSpaceOnUse" id="color-1"><stop offset="0" stop-color="#223515"/><stop offset="1" stop-color="#151f16"/></linearGradient><linearGradient x1="114.89513" y1="144.98182" x2="114.89513" y2="168.98183" gradientTransform="translate(-188.03027,-325.96363) scale(2,2)" gradientUnits="userSpaceOnUse" id="color-2"><stop offset="0" stop-color="#ffffff"/><stop offset="1" stop-color="#7c7c7c"/></linearGradient><linearGradient x1="125.4587" y1="189.64084" x2="125.4587" y2="213.64084" gradientTransform="translate(-225.29741,-415.28167) scale(2,2)" gradientUnits="userSpaceOnUse" id="color-3"><stop offset="0" stop-color="#ffffff"/><stop offset="1" stop-color="#6c6c6c"/></linearGradient><linearGradient x1="119.79536" y1="168.41777" x2="119.79536" y2="168.91777" gradientUnits="userSpaceOnUse" id="color-4"><stop offset="0" stop-color="#ffffff"/><stop offset="1" stop-color="#1a1a1a"/></linearGradient></defs><g transform="translate(-82.34713,-107.97837)"><g data-paper-data="{&quot;isPaintingLayer&quot;:true}" fill-rule="nonzero" stroke-linejoin="miter" stroke-miterlimit="10" stroke-dasharray="" stroke-dashoffset="0" style="mix-blend-mode: normal"><path d="M161.02606,140.82144v-15.23906h93.61135v15.23906z" fill="#fcfcfc" stroke="#000000" stroke-width="2.5" stroke-linecap="butt"/><text transform="translate(163.6385,136.46742) scale(0.23584,0.23584)" font-size="40" xml:space="preserve" fill="#0a0a0a" fill-rule="nonzero" stroke="none" stroke-width="1" stroke-linecap="butt" stroke-linejoin="miter" stroke-miterlimit="10" stroke-dasharray="" stroke-dashoffset="0" font-family="Sans Serif" font-weight="normal" text-anchor="start" style="mix-blend-mode: normal"><tspan x="0" dy="0">TowerSize: Small</tspan></text><path d="M83.59713,218.51088v-76.49249h288.32853c0.37838,1.71158 2.47986,3.46486 3.92566,4.26878c1.5041,0.83102 5.44893,0.8267 6.34267,2.45211c0.19239,0.34991 0.10483,0.95451 -0.06518,1.56196c-0.34073,0.29703 -0.69905,0.58821 -1.08252,0.87581c0,0 -0.2,0.15 -0.05,0.35c0.15,0.2 0.35,0.05 0.35,0.05c0.14504,-0.10878 0.3055,-0.22958 0.47807,-0.36095c-0.10549,0.28271 -0.20547,0.53059 -0.27193,0.70792c-1.35488,3.6152 -0.86312,3.72778 0.46819,0.17547c0.13335,-0.35581 0.34233,-0.87649 0.50855,-1.4285c1.95432,-1.538 4.67941,-3.92486 4.96375,-5.73898c0.13667,-1.02341 0.08243,-1.98281 -0.06972,-2.91363h8.97966v76.49249h-38.51416c-0.06005,-0.82582 -0.14274,-1.65253 -0.25244,-2.48787c-0.06644,-0.50591 -0.0215,-1.7613 -0.43014,-2.1227c-0.30861,-0.27293 -1.57986,-0.43532 -2.01446,-0.57404c-3.09907,-0.85978 -5.69167,-1.21303 -8.90776,-1.21303c0,0 -0.25,0 -0.25,0.25c0,0.25 0.25,0.25 0.25,0.25c3.1741,0 5.70619,0.34422 8.76489,1.19218c0.40735,0.1301 1.54763,0.25221 1.83388,0.47617c0.23798,0.18619 0.21841,1.50625 0.25785,1.80652c0.10688,0.81378 0.18575,1.61889 0.24331,2.42277h-13.79747c-1.8712,-0.69512 -3.59591,-1.62081 -4.49385,-3.39735c-0.11035,-2.61766 -0.66011,-2.68629 -0.48382,0.12615c0.77256,1.60951 2.13927,2.56712 3.70209,3.2712h-160.36327c-1.12497,-1.37636 -2.28958,-2.7258 -3.40257,-4.09564c0,0 -0.15765,-0.19403 -0.35168,-0.03638c-0.19403,0.15765 -0.03638,0.35168 -0.03638,0.35168c0.98514,1.21248 1.9369,2.51758 2.92943,3.78034h-7.68003c0.20894,-0.30761 0.3243,-0.64268 0.31928,-1.00976c-0.14359,-1.59194 -2.77429,-4.91981 -1.18963,-6.27358c0.14581,-0.12456 1.57779,0.05992 1.83761,0.05992c0,0 0.25,0 0.25,-0.25c0,-0.25 -0.25,-0.25 -0.25,-0.25c-0.4195,0 -1.84766,-0.20896 -2.16239,0.05992c-1.93181,1.65034 0.84673,4.82868 1.01507,6.67964c0.00458,0.35411 -0.16198,0.68089 -0.45308,0.98386z" fill="#d3d7b2" stroke="#000000" stroke-width="2.5" stroke-linecap="butt"/><path d="M382.63349,148.50078c-0.99225,-1.84307 -4.88216,-1.72272 -6.53913,-2.6506c-1.16204,-0.64614 -3.2814,-2.28289 -3.70109,-3.83179h14.53569c0.14887,0.91231 0.20153,1.85065 0.06842,2.84745c-0.08603,0.84578 -1.2019,1.51909 -1.74837,2.16214c-0.84022,0.9887 -1.62286,1.87672 -2.50169,2.71046c0.07079,-0.47485 0.05892,-0.91679 -0.11381,-1.23765z" fill="#d3d7b2" stroke="#000000" stroke-width="2.5" stroke-linecap="butt"/><path d="M84.66201,217.94284v-76.4537c0,0 0.79028,-16.13568 7.78145,-16.13568c1.75154,0 5.9757,10.77915 12.59653,12.29729c1.98977,0.45625 3.23737,-16.38352 5.45205,-15.86236c2.55142,0.6004 6.10846,18.40687 8.98905,16.20459c2.18752,-1.67241 4.48987,-19.30948 6.78065,-22.30916c2.81831,-3.69047 5.65929,13.90677 8.16692,13.43681c2.44623,-0.45845 5.04284,11.36334 7.05429,8.33352c2.51535,-3.78884 4.35502,-22.42353 6.59057,-21.11209c2.41957,1.41939 2.9209,18.94022 4.72195,23.28606c2.96876,7.16346 6.55253,1.86102 6.55253,1.86102v76.4537z" fill="url(#color-1)" stroke="#000000" stroke-width="0.5" stroke-linecap="butt"/><text transform="translate(94.01513,162.98182) scale(0.5,0.5)" font-size="40" xml:space="preserve" fill="url(#color-2)" fill-rule="nonzero" stroke="#000000" stroke-width="0" stroke-linecap="butt" stroke-linejoin="miter" stroke-miterlimit="10" stroke-dasharray="" stroke-dashoffset="0" font-family="Handwriting" font-weight="normal" text-anchor="start" style="mix-blend-mode: normal"><tspan x="0" dy="0">rattata</tspan></text><text transform="translate(112.6487,207.64084) scale(0.5,0.5)" font-size="40" xml:space="preserve" fill="url(#color-3)" fill-rule="nonzero" stroke="none" stroke-width="1" stroke-linecap="butt" stroke-linejoin="miter" stroke-miterlimit="10" stroke-dasharray="" stroke-dashoffset="0" font-family="Marker" font-weight="normal" text-anchor="start" style="mix-blend-mode: normal"><tspan x="0" dy="0">485</tspan></text><text transform="translate(161.3532,164.0514) scale(0.28777,0.42156)" font-size="40" xml:space="preserve" fill="#333333" fill-rule="nonzero" stroke="#000000" stroke-width="1" stroke-linecap="butt" stroke-linejoin="miter" stroke-miterlimit="10" stroke-dasharray="" stroke-dashoffset="0" font-family="Serif" font-weight="normal" text-anchor="start" style="mix-blend-mode: normal"><tspan x="0" dy="0">Inflicting the Plague</tspan><tspan x="0" dy="48px">on enemies doing a quick burst of damage and </tspan><tspan x="0" dy="48px">slowing them down,   Good Mid-Endgame Tower!</tspan></text><g stroke="#000000" stroke-linecap="butt"><path d="M101.88066,210.27299c-6.07513,0 -11,-4.64505 -11,-10.375c0,-5.72995 4.92487,-10.375 11,-10.375c6.07513,0 11,4.64505 11,10.375c0,5.72995 -4.92487,10.375 -11,10.375z" fill="#ffd036" stroke-width="1"/><path d="M109.81816,199.77299c0,4.55635 -3.55374,8.25 -7.9375,8.25c-4.38376,0 -7.9375,-3.69365 -7.9375,-8.25c0,-4.55635 3.55374,-8.25 7.9375,-8.25c4.38376,0 7.9375,3.69365 7.9375,8.25z" fill="#e0b82f" stroke-width="1"/><text transform="translate(97.03046,205.49174) scale(0.4349,0.4349)" font-size="40" xml:space="preserve" fill="#000000" fill-rule="nonzero" stroke="#000000" stroke-width="0" stroke-linecap="butt" stroke-linejoin="miter" stroke-miterlimit="10" stroke-dasharray="" stroke-dashoffset="0" font-family="Sans Serif" font-weight="normal" text-anchor="start" style="mix-blend-mode: normal"><tspan x="0" dy="0">$</tspan></text></g><path d="M149.62557,168.44681l-59.6604,0.44193" fill="none" stroke="url(#color-4)" stroke-width="0.5" stroke-linecap="round"/><path d="M288.09853,127.17506c1.34164,0.67082 0.67082,2.01246 0.67082,2.01246l-1.47209,1.6493c-1.05313,0.20742 -4.59054,0.50381 -4.65661,2.31245c-0.02777,0.76026 0.76231,1.31955 1.0774,2.012c0.02856,0.06277 0.05634,0.1259 0.08334,0.18935c3.82742,-0.05231 3.54259,1.14151 5.43777,4.36212l0.58046,-0.26879c0,0 0.36585,0.18292 0.72759,0.54877l0.58924,-0.39283l0.07222,0.10833c0.18732,-0.15134 0.38341,-0.29236 0.59007,-0.42093c1.04675,-0.65123 2.46421,-0.0861 3.69682,-0.10727c0.42185,-0.00725 5.29607,-0.00091 5.49593,0.03228c2.92181,0.48525 3.91283,1.87447 6.83176,1.2756l-0.81988,-0.19464c0,0 1.38675,-2.08013 3.46688,-0.69338c2.08013,1.38675 0.69338,3.46688 0.69338,3.46688l-2.51837,2.3531c-3.6059,0.51555 -5.09464,-0.70942 -8.45467,-1.27214c-0.06113,-0.01024 -0.12237,-0.01945 -0.18371,-0.0277c-0.31594,1.01865 -1.26567,1.75847 -2.38819,1.75847h-3.82161c-0.44936,-0.00312 -0.90835,0.04972 -1.36577,0.09339c-0.16987,0.89245 -0.81415,1.61675 -1.66049,1.90055c0.00409,0.05844 0.00616,0.11743 0.00616,0.17691c0,1.38071 -1.11929,2.5 -2.5,2.5c-0.41989,0 -0.81561,-0.10352 -1.16302,-0.28642l-2.50276,-1.25138l0.03612,-0.07225c-0.12764,-0.0413 -0.2543,-0.08639 -0.37986,-0.13572c-1.08724,-0.42709 -1.66628,-1.6301 -2.47853,-2.47704l-2.22477,-1.11238c-0.30125,-0.14281 -0.56939,-0.34406 -0.78979,-0.58912c-0.40602,-0.18355 -0.80924,-0.37762 -1.20846,-0.59083v0.14579h-0.27308c-0.42876,0.7604 -1.24401,1.27387 -2.17918,1.27387h-3.0379c-1.28815,0.4349 -2.57877,1.4576 -3.86354,1.08357c-0.91219,-0.26557 -0.24728,-2.15231 -1.05888,-2.64619c-0.52274,-0.3181 -0.86579,0.96469 -1.45926,1.11383c-1.47071,0.3696 -5.29359,-0.25806 -6.60156,-0.41976c0,0 -2.48069,-0.31009 -2.17061,-2.79078c0.31009,-2.48069 2.79078,-2.17061 2.79078,-2.17061c1.66198,0.21024 3.56562,0.57856 5.28788,0.42948c0.15936,-0.01379 0.31945,-0.03704 0.48,-0.06697c0.39236,-1.11687 1.62393,-1.52739 1.62393,-1.52739c2.47931,-0.7877 2.6204,-0.57708 4.81591,-2.62715c1.13299,-1.05794 1.57392,-3.4672 3.12388,-3.44491c1.62461,0.02336 2.07513,2.53435 3.35283,3.53804c0.57131,0.44879 1.33827,0.80158 2.05941,0.71351c0.06453,-0.00788 0.12746,-0.02105 0.18903,-0.03872c-0.56536,-1.46541 -1.12474,-2.88546 -0.98525,-3.7934c0.57154,-3.7201 4.2169,-4.3374 7.04861,-4.91138l-0.62284,-0.0492c0,0 0.67082,-1.34164 2.01246,-0.67082z" fill="#223515" stroke="none" stroke-width="0.5" stroke-linecap="butt"/><path d="M402.97589,160.5251c1.13377,0.98212 0.15165,2.11589 0.15165,2.11589l-0.08414,0.09714c-1.22487,1.39411 -2.67161,2.62251 -4.2491,3.61122c0.06789,0.63226 0.12137,1.26601 0.17085,1.89729c0.29014,3.70169 -1.31911,6.82104 -1.26535,10.39716v2.97236c0,1.38071 -1.11929,2.5 -2.5,2.5c-0.79812,0 -1.50888,-0.374 -1.9666,-0.9563l-1.68407,-2.10508l0.06046,-0.04837c-0.11464,-0.11713 -0.22479,-0.2391 -0.32978,-0.36664c-0.83267,-1.01151 -0.91937,-2.4752 -1.10359,-3.77233c-0.19954,-1.40497 0.10165,-5.70831 -0.01565,-7.35915c-0.13263,-1.86664 -0.76477,-3.67975 -0.85148,-5.54908c-0.02618,-0.56439 0.473,-1.17393 0.22243,-1.68032c-0.87942,-1.77723 -6.70376,-2.63161 -6.81716,-3.02434c-0.47278,-1.63728 1.42887,-4.25639 3.24084,-6.36563c0.36593,-1.18538 0.89672,-2.26315 1.51059,-3.00695c0.10195,-0.12353 0.20939,-0.24077 0.32166,-0.35248l-0.05993,-0.04794l0.51231,-0.64039c0.20932,-0.88437 0.54386,-1.76481 0.713,-2.65045l1.93146,-2.4353c0,0 0.84975,-0.84975 1.9601,-0.78181c0.02154,-0.04991 0.04079,-0.09462 0.05754,-0.13372c0,0 0.50231,-1.17206 1.62651,-1.48329c-0.98934,-3.60395 -5.39538,-5.51403 -4.6413,-10.00966c0.15244,-0.90881 0.79244,-1.66396 1.18866,-2.49594l1.95012,-1.51275c0,0 1.2,-0.9 2.1,0.3c0.9,1.2 -0.3,2.1 -0.3,2.1l-1.44687,1.03499c-2.12827,3.76139 3.32282,6.72304 4.10562,10.06903c0.9304,3.9769 0.11897,7.15439 -1.45763,10.22189c0.12473,0.15766 0.22952,0.32347 0.28516,0.50757c0.60434,1.99952 0.17323,4.17752 0.11372,6.26552c-0.00708,0.24855 -0.00175,0.46671 0.01429,0.66138c0.48924,0.02732 0.97114,0.02933 1.38716,-0.19533c2.80018,-1.51214 0.47748,-7.3956 1.01268,-9.74694l1.87984,-1.1362c0,0 1.5,0 1.5,1.5c0,0.67941 -0.30773,1.05109 -0.64443,1.25442c-0.4302,3.67724 2.34096,7.79697 -2.20034,10.69864c-0.49634,0.31714 -1.076,0.41577 -1.67783,0.4563c0.10679,0.24364 0.21245,0.52473 0.31341,0.85779c0.09242,0.30491 0.17533,0.61242 0.25006,0.92203c0.92581,-0.67966 1.77612,-1.46784 2.51509,-2.33547l0.08414,-0.09714c0,0 0.98212,-1.13377 2.11589,-0.15165z" fill="#223515" stroke="none" stroke-width="0.5" stroke-linecap="butt"/><path d="M103.45787,117.51526c0.83205,1.24808 -0.41603,2.08013 -0.41603,2.08013l-0.78341,0.30896c0.24936,2.585 -0.34886,5.55005 0.79728,7.95718c0.62547,1.31361 2.9455,4.19264 3.18245,5.53194c0.57261,3.23653 -3.61797,6.58699 -5.40481,8.82053c0,0 -0.93704,1.1713 -2.10835,0.23426c-1.1713,-0.93704 -0.23426,-2.10835 -0.23426,-2.10835c0.06885,-0.08606 3.41235,-4.26663 3.4506,-4.30957c0.50441,-0.56637 1.67658,-1.07956 1.33555,-2.15633c-0.56536,-1.78514 -2.18312,-3.07151 -2.95517,-4.77746c-1.47487,-3.25892 -0.89647,-7.1567 -0.70832,-10.60779l1.76433,-1.38953c0,0 1.24808,-0.83205 2.08013,0.41603z" fill="#223515" stroke="none" stroke-width="0.5" stroke-linecap="butt"/><path d="M292.95311,132.2489c0.40976,-0.68294 0.99872,-0.64911 1.35547,-0.54499c0.16417,-0.68457 0.48053,-1.2444 1.0801,-1.37525c0.94311,-0.20581 1.60785,1.06867 2.41177,1.603l-0.02445,0.34019l0.1458,-0.03645l0.3371,1.34841c0.02794,0.10222 0.04285,0.20981 0.04285,0.32089c0,0.67056 -0.54359,1.21416 -1.21416,1.21416c-0.20553,0 -0.39913,-0.05107 -0.56882,-0.14121c-0.10703,0.35555 -0.39184,0.82862 -1.14972,0.82862c-1.21416,0 -1.21416,-1.21416 -1.21416,-1.21416c0.00045,-0.09098 -0.00163,-0.20102 -0.0044,-0.3259l-0.78095,-0.35151c0,0 -1.04113,-0.62467 -0.41646,-1.66581z" fill="#223515" stroke="none" stroke-width="0.5" stroke-linecap="butt"/><path d="M145.67459,111.81387c-0.33426,0.31088 -0.9889,0.70206 -1.83453,0.1383c-0.76258,-0.50839 -0.74859,-1.17209 -0.62232,-1.61151c-0.07158,-0.22995 -0.08573,-0.51007 -0.00084,-0.84961c0.19918,-0.79671 0.72549,-1.04818 1.16104,-1.11263c0.20466,-0.25286 0.44323,-0.42105 0.75842,-0.39793c0.16451,0.01207 9.67384,3.36928 1.99029,5.49459c-0.71854,0.19875 -1.03031,-0.90763 -1.45205,-1.6612z" fill="#223515" stroke="none" stroke-width="0.5" stroke-linecap="butt"/><path d="M137.87813,113.0257c1.5,0 1.5,1.5 1.5,1.5l-0.04492,0.90955c1.01267,4.04457 2.1535,7.15342 1.28307,11.3053c0,0 -0.3254,1.46428 -1.78968,1.13888c-1.46428,-0.3254 -1.13888,-1.78968 -1.13888,-1.78968c0.84577,-3.55127 -0.38786,-6.42392 -1.26467,-9.92586l-0.04492,-1.63819c0,0 0,-1.5 1.5,-1.5z" fill="#223515" stroke="none" stroke-width="0.5" stroke-linecap="butt"/><path d="M401.56913,132.98299c0.26826,0 0.48854,0.04797 0.66943,0.12676c0.18491,-0.08151 0.38939,-0.12676 0.60444,-0.12676c0.82843,0 1.5,0.67157 1.5,1.5v1.69849c0,0 0,1.2153 -1.09391,1.45809l-0.41898,0.62847c-0.26708,0.41355 -0.73206,0.68731 -1.26098,0.68731c-0.82843,0 -1.5,-0.67157 -1.5,-1.5v-2.97236c0,0 0,-1.5 1.5,-1.5z" fill="#223515" stroke="none" stroke-width="0.5" stroke-linecap="butt"/></g></g></svg>