<svg version="1.1" xmlns="http://www.w3.org/2000/svg" xmlns:xlink="http://www.w3.org/1999/xlink" width="88.32491" height="37.36223" viewBox="0,0,88.32491,37.36223"><defs><radialGradient cx="232.62115" cy="181.39797" r="31.60098" gradientUnits="userSpaceOnUse" id="color-1"><stop offset="0" stop-color="#9eff5d"/><stop offset="1" stop-color="#9eff5d" stop-opacity="0"/></radialGradient><linearGradient x1="248.7115" y1="175.10923" x2="251.6308" y2="175.42323" gradientUnits="userSpaceOnUse" id="color-2"><stop offset="0" stop-color="#13a900" stop-opacity="0"/><stop offset="1" stop-color="#13a900"/></linearGradient><linearGradient x1="248.575" y1="176.49753" x2="251.9615" y2="176.86173" gradientUnits="userSpaceOnUse" id="color-3"><stop offset="0" stop-color="#13a900" stop-opacity="0"/><stop offset="1" stop-color="#13a900"/></linearGradient><linearGradient x1="248.8265" y1="177.95783" x2="251.7459" y2="178.27183" gradientUnits="userSpaceOnUse" id="color-4"><stop offset="0" stop-color="#13a900" stop-opacity="0"/><stop offset="1" stop-color="#13a900"/></linearGradient><linearGradient x1="246.8898" y1="188.78083" x2="249.8092" y2="189.09483" gradientUnits="userSpaceOnUse" id="color-5"><stop offset="0" stop-color="#13a900" stop-opacity="0"/><stop offset="1" stop-color="#13a900"/></linearGradient><linearGradient x1="246.7534" y1="190.16913" x2="250.1398" y2="190.53333" gradientUnits="userSpaceOnUse" id="color-6"><stop offset="0" stop-color="#13a900" stop-opacity="0"/><stop offset="1" stop-color="#13a900"/></linearGradient><linearGradient x1="247.0049" y1="191.62943" x2="249.9242" y2="191.94343" gradientUnits="userSpaceOnUse" id="color-7"><stop offset="0" stop-color="#13a900" stop-opacity="0"/><stop offset="1" stop-color="#13a900"/></linearGradient><radialGradient cx="245.6116" cy="179.35489" r="1.87961" gradientUnits="userSpaceOnUse" id="color-8"><stop offset="0" stop-color="#d7ffbc"/><stop offset="1" stop-color="#26ff00"/></radialGradient><radialGradient cx="244.31273" cy="186.85914" r="1.87961" gradientUnits="userSpaceOnUse" id="color-9"><stop offset="0" stop-color="#d7ffbc"/><stop offset="1" stop-color="#26ff00"/></radialGradient><radialGradient cx="238.59881" cy="181.8255" r="20.64482" gradientUnits="userSpaceOnUse" id="color-10"><stop offset="0" stop-color="#d7ffbc"/><stop offset="1" stop-color="#7af12b"/></radialGradient></defs><g transform="translate(-185.6758,-162.79683)"><g data-paper-data="{&quot;isPaintingLayer&quot;:true}" fill-rule="nonzero" stroke-linejoin="miter" stroke-miterlimit="10" stroke-dasharray="" stroke-dashoffset="0" style="mix-blend-mode: normal"><path d="M254.58734,180.77223c0.0644,8.79296 -4.39733,16.41899 -21.8496,16.54681c-0.71449,0.00523 -7.80005,2.84002 -7.80005,2.84002c0,0 0.79146,-6.56928 -0.06747,-7.66967c-0.74737,-0.95748 -4.79817,1.43622 -4.79817,1.43622l-22.61676,-2.92862c0,0 11.43552,-2.13658 8.22984,-3.42339c-9.15539,-3.67512 -20.00933,-5.36691 -20.00933,-5.36691c0,0 14.95147,-1.21791 19.07117,-3.44298c3.27001,-1.76616 -6.39128,-5.27696 -6.39128,-5.27696l25.53914,-5.73263c0,0 1.21439,3.47921 2.9915,2.94312c1.97374,-0.5954 3.47383,-7.90041 3.47383,-7.90041c0,0 6.00855,4.98996 7.66371,5.18807c12.65046,1.51417 16.50655,5.01174 16.56349,12.78734z" fill="url(#color-1)" stroke="#f3f3f3" stroke-width="0" stroke-linecap="butt"/><path d="M249.8929,179.85333c0,0 2.4908,1.0073 2.2012,1.9258c-0.2895,0.9186 -2.5593,2.4074 -2.5593,2.4074c0,0 1.7794,1.0753 1.7833,2.3602c0.0039,1.2849 -2.8261,1.396 -2.8261,1.396" fill="none" stroke="#009413" stroke-width="0.5" stroke-linecap="round"/><path d="M248.3231,185.19913c-0.4649,-0.05 -0.319,-0.5419 -0.2732,-0.9681c0.0459,-0.4263 0.1513,-1.2914 0.6163,-1.2414c0.4649,0.05 1.0241,1.207 1.0241,1.207c0,0 -0.9022,1.0525 -1.3672,1.0025z" fill="#00ff15" stroke="#009413" stroke-width="0.5" stroke-linecap="butt"/><path d="M238.2913,172.73413l1.3357,-3.1471l1.3197,1.6377" fill="none" stroke="#009413" stroke-width="0.5" stroke-linecap="round"/><path d="M236.1952,193.15043l-2.1306,1.2666l0.829,-3.9993" fill="none" stroke="#009413" stroke-width="0.5" stroke-linecap="round"/><path d="M235.7172,191.10463l1.203,2.7221" fill="none" stroke="#009413" stroke-width="0.5" stroke-linecap="round"/><path d="M239.9746,171.91793l1.8031,-1.0027" fill="none" stroke="#009413" stroke-width="0.5" stroke-linecap="round"/><path d="M251.5718,175.97223l-2.8013,-1.4119" fill="none" stroke="url(#color-2)" stroke-width="0.5" stroke-linecap="round"/><path d="M248.6407,175.88753l3.2552,1.5842" fill="none" stroke="url(#color-3)" stroke-width="0.5" stroke-linecap="round"/><path d="M248.8724,177.53083l2.8276,1.1679" fill="none" stroke="url(#color-4)" stroke-width="0.5" stroke-linecap="round"/><path d="M246.9489,188.23183l2.8012,1.412" fill="none" stroke="url(#color-5)" stroke-width="0.5" stroke-linecap="round"/><path d="M250.0742,191.14333l-3.2552,-1.5842" fill="none" stroke="url(#color-6)" stroke-width="0.5" stroke-linecap="round"/><path d="M247.0508,191.20243l2.8275,1.1679" fill="none" stroke="url(#color-7)" stroke-width="0.5" stroke-linecap="round"/><path d="M247.38375,179.10126c-0.09315,0.35362 -0.18717,1.04568 -0.78069,1.28945c-0.53772,0.22086 -1.55693,0.01801 -2.03749,-0.10859c-0.5203,-0.13706 -1.66117,-1.10643 -1.55869,-2.15098c0.10248,-1.04455 1.12619,-1.46912 1.89495,-1.2766c0.47974,0.12014 2.31901,0.61326 2.49461,0.65953c1.011,0.26633 0.16486,0.91319 -0.01269,1.58718z" data-paper-data="{&quot;index&quot;:null}" fill="#ffffff" stroke="#000000" stroke-width="0" stroke-linecap="butt"/><path d="M245.40013,180.15767c-1.00384,-0.26444 -1.72292,-0.83823 -1.60613,-1.28159c0.11679,-0.44336 1.02524,-0.58841 2.02908,-0.32396c1.00384,0.26444 1.72292,0.83823 1.60613,1.28159c-0.11679,0.44336 -1.02524,0.58841 -2.02908,0.32397z" fill="url(#color-8)" stroke="#000000" stroke-width="0" stroke-linecap="butt"/><path d="M247.1818,180.88063c0,0 0.018,-1.1392 0.1962,-1.6302c0.1643,-0.4527 1.1104,-1.5236 1.1104,-1.5236" data-paper-data="{&quot;index&quot;:null}" fill="none" stroke="#009413" stroke-width="0.5" stroke-linecap="round"/><path d="M245.63827,179.56139c-0.70859,-0.18667 -1.25881,-0.42986 -1.22896,-0.54318c0.02986,-0.11333 0.62849,-0.05388 1.33708,0.13279c0.70858,0.18666 1.25881,0.42986 1.22896,0.54318c-0.02986,0.11333 -0.62848,0.05387 -1.33707,-0.13279z" fill="#000000" stroke="#000000" stroke-width="0" stroke-linecap="butt"/><path d="M244.51843,178.95114c-0.19474,-0.0513 -0.31268,-0.24445 -0.26344,-0.4314c0.04925,-0.18695 0.24704,-0.29692 0.44178,-0.24562c0.19474,0.0513 0.31268,0.24445 0.26344,0.4314c-0.04924,0.18695 -0.24704,0.29692 -0.44178,0.24563z" fill="#e3ffe7" stroke="none" stroke-width="0" stroke-linecap="butt"/><path d="M245.05768,179.1398c-0.10127,-0.02668 -0.1634,-0.12408 -0.13877,-0.21756c0.02463,-0.09348 0.12668,-0.14763 0.22795,-0.12095c0.10127,0.02668 0.1634,0.12407 0.13877,0.21755c-0.02463,0.09348 -0.12667,0.14763 -0.22794,0.12096z" fill="#e3ffe7" stroke="none" stroke-width="0" stroke-linecap="butt"/><path d="M245.98623,187.7736c-0.06662,0.69379 0.50341,1.59348 -0.53728,1.49353c-0.18076,-0.01736 -2.07704,-0.19112 -2.56871,-0.2444c-0.78789,-0.08537 -1.13225,-0.78747 -0.86696,-1.80296c0.26529,-1.01548 1.20189,-1.58067 1.73747,-1.52923c0.49469,0.0475 1.52112,0.20985 1.94921,0.60313c0.4725,0.43408 0.32124,1.11592 0.28628,1.47993z" data-paper-data="{&quot;index&quot;:null}" fill="#ffffff" stroke="#000000" stroke-width="0" stroke-linecap="butt"/><path d="M246.18373,187.03883c-0.04384,0.45639 -0.91704,0.74591 -1.95037,0.64667c-1.03332,-0.09924 -1.83548,-0.54966 -1.79164,-1.00605c0.04384,-0.45639 0.91705,-0.74592 1.95037,-0.64668c1.03332,0.09924 1.83547,0.54967 1.79164,1.00606z" data-paper-data="{&quot;index&quot;:null}" fill="url(#color-9)" stroke="#000000" stroke-width="0" stroke-linecap="butt"/><path d="M246.4182,189.38473c0,0 -0.5171,-1.3322 -0.5147,-1.8138c0.0027,-0.5222 0.3801,-1.5973 0.3801,-1.5973" data-paper-data="{&quot;index&quot;:null}" fill="none" stroke="#009413" stroke-width="0.5" stroke-linecap="round"/><path d="M245.70962,187.01268c-0.01121,0.11665 -0.61159,0.15443 -1.34099,0.08438c-0.7294,-0.07005 -1.31162,-0.22141 -1.30043,-0.33806c0.01121,-0.11665 0.61158,-0.15443 1.341,-0.08438c0.7294,0.07005 1.31162,0.22141 1.30043,0.33806z" data-paper-data="{&quot;index&quot;:null}" fill="#000000" stroke="#000000" stroke-width="0" stroke-linecap="butt"/><path d="M243.47688,187.243c-0.01848,0.19244 -0.19597,0.33284 -0.39644,0.31359c-0.20046,-0.01926 -0.34798,-0.19087 -0.32951,-0.38331c0.01848,-0.19244 0.19597,-0.33285 0.39644,-0.31359c0.20046,0.01926 0.34798,0.19088 0.3295,0.38331z" data-paper-data="{&quot;index&quot;:null}" fill="#e3ffe7" stroke="none" stroke-width="0" stroke-linecap="butt"/><path d="M243.8906,187.06164c-0.00924,0.09622 -0.10123,0.16611 -0.20547,0.15609c-0.10425,-0.01001 -0.18126,-0.09612 -0.17202,-0.19235c0.00924,-0.09622 0.10124,-0.16612 0.20548,-0.1561c0.10425,0.01001 0.18125,0.09613 0.17201,0.19236z" data-paper-data="{&quot;index&quot;:null}" fill="#e3ffe7" stroke="none" stroke-width="0" stroke-linecap="butt"/><path d="M223.1493,174.46173l9.7562,0.1518" fill="none" stroke="#2bff5a" stroke-width="0.5" stroke-linecap="round"/><path d="M225.7078,185.90543l6.1013,0.7559" fill="none" stroke="#2bff5a" stroke-width="0.5" stroke-linecap="round"/><path d="M228.2583,182.58983l6.7701,1.0273" fill="none" stroke="#2bff5a" stroke-width="0.5" stroke-linecap="round"/><path d="M223.72,178.60873l7.6086,-0.2786" fill="none" stroke="#2bff5a" stroke-width="0.5" stroke-linecap="round"/><path d="M222.5269,181.17563l-2.651,-0.3848" fill="none" stroke="#2bff5a" stroke-width="0.5" stroke-linecap="round"/><path d="M241.3712,189.11273c0,0 0.5566,-2.1281 0.9941,-2.7266c0.4745,-0.6491 1.915,-1.6497 1.915,-1.6497" data-paper-data="{&quot;index&quot;:null}" fill="none" stroke="#009413" stroke-width="0.5" stroke-linecap="round"/><path d="M244.8346,181.10563c0,0 -1.1947,-1.2841 -1.5203,-2.0192c-0.3003,-0.6779 -0.3916,-2.8757 -0.3916,-2.8757" data-paper-data="{&quot;index&quot;:null}" fill="none" stroke="#009413" stroke-width="0.5" stroke-linecap="round"/><path d="M252.33074,184.35916c0,0 -0.21077,1.2613 -1.08883,1.16686c-0.87805,-0.09444 -1.54161,-1.36916 -1.54161,-1.36916c0,0 0.76863,-1.2013 1.64669,-1.10686c0.87806,0.09444 0.98376,1.30916 0.98376,1.30916z" fill="#009413" stroke="none" stroke-width="0" stroke-linecap="butt"/><path d="M258.00692,170.14685c2.06592,2.07614 2.994,4.86001 3.49748,8.38434c0.26644,1.6208 0.29728,3.59022 -0.12885,5.15991c-0.03713,0.13674 -0.10956,0.82801 -0.24399,1.3325c0.25961,-0.33368 0.55513,-0.72203 0.59215,-0.81528c0.42233,-1.06377 0.4574,-2.312 0.67667,-3.40834c-0.01493,-3.31611 -1.2652,-8.44415 -4.07173,-10.58429c-0.10564,-0.01903 -0.21299,-0.04214 -0.32172,-0.06884zM254.12964,167.62717c0.14412,-0.03796 0.27711,-0.00471 0.27711,-0.00471l0.57426,0.15584c1.16338,0.58541 2.51037,1.25534 3.7558,1.52448c3.21429,2.39147 4.67318,7.79092 4.6587,11.59573c-0.29565,1.47825 -0.30057,3.85035 -1.57844,4.92321c-0.43334,0.36382 -1.37546,0.90155 -1.93999,0.2455c-0.08036,-0.09339 0.35767,-1.76723 0.40695,-2.01263c0.35208,-1.75323 0.53667,-3.57045 0.23213,-5.37049c-0.71076,-4.97527 -2.19311,-8.30866 -7.00627,-10.23031c0,0 -0.46424,-0.1857 -0.27854,-0.64993c0.1857,-0.46424 0.64993,-0.27855 0.64993,-0.27855c0.08369,0.03354 0.16647,0.06749 0.24836,0.10186z" fill="#00ff37" stroke="#000000" stroke-width="0" stroke-linecap="butt"/><path d="M261.8195,169.23923c1.5631,1.7689 2.6932,4.0736 3.668,6.0017c1.0258,3.5672 1.8868,6.8703 0.8142,10.3682c0.6291,-0.6808 1.5018,-1.5466 1.656,-2.1669c0.7101,-2.8565 -0.4095,-5.044 -0.9315,-7.7398c-0.5672,-1.1343 -0.9206,-2.442 -1.5962,-3.5443c-0.822,-1.3411 -2.2245,-2.1606 -3.6105,-2.9189zM255.7879,166.59153c0.0006,-0.0359 0.0047,-0.0745 0.0129,-0.1158c0.0981,-0.4903 0.5884,-0.3922 0.5884,-0.3922l0.582,0.1164c1.1255,0.1905 1.9627,0.2491 3.0042,0.7744c1.9594,1.482 4.8451,2.3545 6.2894,4.6333c0.7358,1.1608 1.1051,2.5661 1.7072,3.7703c0.8598,4.1808 2.6606,9.3075 -1.8605,11.6044l0.0359,0.0479l-0.4679,0.3509c-0.0842,0.0646 -0.1896,0.103 -0.304,0.103c-0.2761,0 -0.5,-0.2239 -0.5,-0.5c0,-0.0371 0.004,-0.0733 0.0117,-0.1082l0.116,-0.5797l0.0149,0.0029l-0.0039,-0.0474c1.4526,-3.6567 0.592,-6.9461 -0.4586,-10.6483c-1.647,-3.3285 -3.8792,-8.1859 -8.3825,-8.1757c0,0 -0.5,0 -0.5,-0.5c0,-0.1553 0.0483,-0.2624 0.1148,-0.3362z" fill="#2bff5a" stroke="none" stroke-width="0.5" stroke-linecap="butt"/><path d="M265.0887,167.31703c2.0395,2.0786 3.6136,4.9145 4.6362,6.9565c1.0725,2.6812 2.1968,5.0847 2.961,7.755c0.1021,-0.9466 0.2447,-1.9213 0.2139,-2.3178c-0.1611,-2.0736 -1.4848,-5.4934 -2.4354,-7.3871c-1.2381,-3.1123 -3.1111,-4.1425 -5.3757,-5.0066zM258.7359,164.63673c-0.0061,-0.0659 0.0018,-0.1412 0.0304,-0.2267c0.1581,-0.4743 0.6324,-0.3162 0.6324,-0.3162l0.4194,0.1451c0.343,0.1768 0.7302,0.2622 1.1108,0.3257c4.5244,2.2125 8.3379,2.1018 10.4477,7.3494c1.4904,2.9922 3.8658,9.1817 1.8437,12.5037l0.1531,0.0765l-0.2312,0.4622c-0.0801,0.1692 -0.2524,0.2861 -0.452,0.2861c-0.2762,0 -0.5,-0.2238 -0.5,-0.5v-0.5525c-0.7022,-3.4262 -2.0772,-6.2561 -3.3775,-9.5068c-1.2108,-2.426 -3.5822,-6.7719 -6.6265,-8.4513c-0.3376,-0.1382 -0.6803,-0.287 -1.0277,-0.451c-0.7694,-0.2506 -1.575,-0.3163 -2.4097,-0.1326c0,0 -0.4903,0.0981 -0.5884,-0.3922c-0.0981,-0.4903 0.3922,-0.5883 0.3922,-0.5883c0.0613,-0.0114 0.1224,-0.0218 0.1833,-0.0311z" fill="#2bff5a" stroke="none" stroke-width="0.5" stroke-linecap="butt"/><path d="M262.2749,178.48683c0.0056,0.0096 0.0084,0.0152 0.0084,0.0152l0.1708,0.4595c0,2.0223 0.1473,4.3056 -0.9867,5.9267l-0.0043,0.0217l0.1124,0.0562l-0.2311,0.4623c-0.0802,0.1691 -0.2525,0.286 -0.4521,0.286c-0.2761,0 -0.5,-0.2238 -0.5,-0.5c0,-0.0371 0.004,-0.0733 0.0117,-0.1081l0.1148,-0.5741c0.1198,-0.7061 0.3817,-1.4658 0.5794,-2.2257c0.0735,-0.6643 0.1623,-1.3659 0.2328,-1.9684c-0.0959,-1.0632 -0.3961,-1.907 -0.4062,-2.836c-0.0333,-0.1013 -0.0672,-0.2049 -0.1016,-0.3102h-0.077v-0.2372c-0.1293,-0.401 -0.2597,-0.8205 -0.3707,-1.2309c-0.0348,-0.0459 -0.0618,-0.098 -0.0792,-0.1544l-0.2288,-0.6865c-0.6074,-1.5216 -0.7709,-2.9575 -2.1887,-4.0158c0,0 -0.4,-0.3 -0.1,-0.7c0.3,-0.4 0.7,-0.1 0.7,-0.1c0.8329,0.6273 1.2987,1.3525 1.6509,2.1456c0.1585,0.02 0.2938,0.1141 0.3702,0.2466l0.3492,0.5821l-0.0616,0.0369c0.0339,0.1612 0.1127,0.3526 0.2041,0.556c0.1705,0.0344 0.3096,0.1555 0.3693,0.3153l0.2316,0.5791l-0.0407,0.0162c0.1064,0.1531 0.2032,0.312 0.2853,0.4791l-0.0069,0.0691l0.0243,-0.0049l0.1159,0.5798c0.0077,0.0348 0.0118,0.071 0.0118,0.1082c0,0.1452 -0.062,0.276 -0.1608,0.3673c0.1837,0.7996 0.3165,1.6093 0.4535,2.3433z" fill="#b9ffc8" stroke="none" stroke-width="0.5" stroke-linecap="butt"/><path d="M263.3078,171.72343c0.0197,-0.0296 0.0402,-0.0558 0.0612,-0.0788c-0.8962,-0.8235 -1.9144,-1.5799 -2.8303,-2.4757c0,0 -0.3535,-0.3535 0,-0.7071c0.3536,-0.3535 0.7071,0 0.7071,0c0.7071,0.7292 1.7977,0.9757 2.5624,1.6214c1.1028,0.9312 2.0251,2.6083 2.548,4.2481c0.755,1.1702 1.8901,2.7469 1.9924,3.62c0.0572,0.4879 -0.1359,0.9033 -0.3488,1.2984c0.4303,2.1989 0.346,4.4369 -0.7343,5.9074l0.1617,0.1213l-0.3505,0.4673c-0.0909,0.1241 -0.2378,0.2047 -0.4035,0.2047c-0.2761,0 -0.5,-0.2239 -0.5,-0.5v-0.5899c0,-2.548 -0.3013,-4.9719 -0.3481,-7.5057c-0.4232,-1.0616 -0.8335,-2.145 -1.2481,-3.2187l-0.5274,-0.6329c-0.0736,-0.0871 -0.118,-0.1997 -0.118,-0.3226c0,-0.1014 0.0302,-0.1958 0.0821,-0.2746c-0.0883,-0.1052 -0.1827,-0.2107 -0.2895,-0.3157l-0.2778,-0.1735c0,0 -0.416,-0.2773 -0.1387,-0.6934zM267.0466,181.66733c0.0064,-0.0267 0.0124,-0.053 0.0181,-0.0787c-0.0079,-0.001 -0.0158,-0.0022 -0.0234,-0.0035c0.0018,0.0274 0.0036,0.0548 0.0053,0.0822z" fill="#b9ffc8" stroke="none" stroke-width="0.5" stroke-linecap="butt"/><path d="M273.1497,183.89203c-0.4472,0.2236 -0.6708,-0.2237 -0.6708,-0.2237l-0.1707,-0.4595c0,-0.3289 0.017,-0.6812 0.0382,-1.0454c-0.1525,-0.0335 -0.2789,-0.1367 -0.3442,-0.2744l-0.2312,-0.4622l0.0249,-0.0125l-0.0506,-0.0489c-0.4086,-2.0139 -1.0013,-3.418 -2.089,-5.2307c-1.615,-3.2842 -2.4382,-6.1854 -5.1063,-8.8534c0,0 -0.3535,-0.3536 0,-0.7071c0.3536,-0.3536 0.7071,0 0.7071,0c0.4136,0.4135 0.7832,0.8318 1.1185,1.2553c0.0897,-0.1339 0.2424,-0.222 0.4156,-0.222c0.1657,0 0.3125,0.0806 0.4035,0.2047l0.3505,0.4672c0.0568,0.0762 0.1137,0.1523 0.1705,0.2285c1.7695,1.5292 2.9636,3.6898 3.77,5.9713c1.6849,2.4497 1.8225,5.7021 1.8225,8.7296l0.0652,0.0124c0,0 0.2236,0.4472 -0.2237,0.6708z" fill="#b9ffc8" stroke="none" stroke-width="0.5" stroke-linecap="butt"/><path d="M252.91163,182.96938c-0.79543,7.39568 -4.41663,13.46644 -15.75307,12.24716c-0.4641,-0.04992 -5.33164,1.79418 -5.33164,1.79418c0,0 1.13905,-5.46154 0.68649,-6.45175c-0.39378,-0.86161 -3.25015,0.84244 -3.25015,0.84244c0,0 -3.53566,-2.23317 -5.50172,-2.41327c-2.07924,-0.19047 -6.41724,2.00767 -6.41724,2.00767c0,0 5.14605,-4.70187 3.1885,-6.02717c-5.59074,-3.78505 -10.70277,-0.72312 -10.70277,-0.72312c0,0 8.04787,-5.19615 10.93287,-6.75321c2.28999,-1.23593 -5.17839,-1.97186 -5.17839,-1.97186c0,0 3.34835,-2.74197 5.50744,-3.41645c3.43975,-1.07455 13.14372,-2.41002 13.14372,-2.41002c0,0 0.4567,3.01671 1.66086,2.70121c1.33739,-0.35041 3.0063,-6.37649 3.0063,-6.37649c0,0 3.42365,4.65101 4.47877,4.94335c8.06433,2.2344 10.23342,5.46735 9.53002,12.00735z" fill="url(#color-10)" stroke="#f3f3f3" stroke-width="0" stroke-linecap="butt"/></g></g></svg>