<svg version="1.1" xmlns="http://www.w3.org/2000/svg" xmlns:xlink="http://www.w3.org/1999/xlink" width="64.71489" height="56.48398" viewBox="0,0,64.71489,56.48398"><g transform="translate(-207.64255,-151.75798)"><g data-paper-data="{&quot;isPaintingLayer&quot;:true}" fill-rule="nonzero" stroke="none" stroke-width="0.5" stroke-linecap="butt" stroke-linejoin="miter" stroke-miterlimit="10" stroke-dasharray="" stroke-dashoffset="0" style="mix-blend-mode: normal"><path d="M272.33058,185.66918c0.35337,2.16745 -2.88341,5.91682 -3.65138,7.86135c-1.08159,2.73858 -1.25762,7.00078 -2.90678,9.57506c-1.63061,2.54531 -3.89673,1.13737 -6.11038,1.66338c-2.49117,0.59193 -3.64475,3.90382 -7.30587,3.42603c-2.16925,-0.2831 -9.62032,-3.6507 -9.88927,-3.58729c-0.97286,0.22937 -2.00123,1.4621 -3.12369,1.4395c-1.57783,-0.03176 -12.27436,-4.14246 -13.01761,-4.98584c-0.23926,-0.27151 -0.45885,-0.56051 -0.64682,-0.8603l-0.04141,-0.00599l-0.2152,-0.25643l-0.32031,-0.17837l-0.04718,-0.25952l-0.63299,-0.7543l-0.40962,-0.92248l-1.3938,-0.18144l-0.48097,-0.16294l-0.51809,-0.06604l-0.77782,-0.26109l-0.55139,-0.32786l-0.61456,-0.25143l-0.39906,-0.27758l-0.13318,-0.15292l-0.06966,-0.04141l-0.00333,-0.02367l-0.21981,-0.12372l-0.48531,-0.4492l-0.26491,-0.05601l-0.02143,-0.00932l-0.07668,0.0149l-0.90814,-0.44395l-0.93597,-0.40775l-0.01961,-0.05936l-0.02078,-0.01015l-0.20105,-0.16317l-0.07946,-0.05294l-0.18001,-0.07366l-0.0596,0.00003l-0.06066,-0.04924l-0.21036,-0.08605l-0.39906,-0.27758l-0.24831,-0.28509l-0.09385,-0.06253l-0.00338,-0.04909l-0.04354,-0.04999l-0.48009,-0.38964l-0.42735,-0.5826l-0.97341,-0.81936l-1.16803,-0.7209l-0.25879,-0.26238l-0.0193,-0.00249l-0.13487,-0.15381l-0.08452,-0.08571l-0.56562,-0.45906l-0.16773,-0.22867l-0.0316,-0.08784l-0.09141,-0.09268l0.0194,-0.09702l-0.19681,-0.22444l-0.23229,-0.49067l-1.08094,-1.47363l-0.1158,-0.32201l-0.23057,-0.28215l-0.27183,-0.63707l-0.06371,-0.66066l-0.1829,-0.21362l0.12168,-0.42135l-0.04149,-0.4303l0.22105,-0.1915l0.18682,-0.64695l0.18165,-0.28103l-0.22295,-0.7537l-0.2854,-0.90968l0.00138,-0.17485l-0.08384,-0.16209l-0.10707,-0.60473l-0.02466,-0.09676l-0.03426,-0.02667l0.00289,-0.09645l-0.02339,-0.09177l0.04934,-0.7709l0.02217,-0.73838l-0.07067,-0.17819l-0.02788,-0.02711l0.01238,-0.07138l-0.01532,-0.22215l0.1208,-0.4839l-0.00803,-0.22937l0.07513,-0.05918l0.11284,-0.6502l0.10605,-0.20695l0.01764,-0.07073l0.02502,-0.01256l0.07535,-0.14708l0.0656,-0.32057l0.16003,-1.74983l0.24275,-0.57724l0.14642,-0.59631l0.6129,-1.02952l0.21535,-0.20786l0.11606,-0.25096l0.12722,-0.14773l0.0082,-0.58098l-0.32963,-1.86154l0.01987,-0.14172l-0.05397,-0.1361l-0.02026,-0.29407l0.42439,-1.7003l0.14357,-0.07216l0.00034,-0.13263l1.61279,-1.19844l0.12694,-0.05631l0.12075,-0.08972l0.46289,-0.20534l0.38524,-0.28624l1.7666,-0.78365l0.22374,-0.25989l0.67007,-0.85645l0.26736,-0.52193l0.26886,-0.29056l0.15568,-0.33657l0.47613,-0.55303l0.0001,-0.03774l0.08988,-0.06677l0.06706,-0.0779l0.73683,-0.51944l0.71901,-0.53429l0.10477,-0.04648l0.09209,-0.06493l0.04846,0.00258l0.13625,-0.06043l1.04936,-0.59339l0.22595,-0.07109l0.17621,-0.13094l1.14905,-0.50973l0.68829,-0.87979l0.19795,-0.1522l0.11552,-0.19675l0.56957,-0.55572l0.37288,-0.22204l0.28163,-0.29207l0.80089,-0.5068l0.32752,-0.11955l0.26153,-0.19436l0.7373,-0.32706l0.34825,-0.07614l0.29903,-0.15839l0.96862,-0.27815l0.34115,-0.02913l0.31038,-0.11419l0.83357,-0.12973l1.28157,-0.30867l0.05839,-0.00255l0.05081,-0.02255l0.16076,-0.03515l1.01169,-0.44877l0.66977,-0.14647l0.62905,-0.2314l2.10495,-0.32763l0.12991,0.00476l0.12073,-0.03785l0.90502,-0.09841l0.21829,0.01802l0.13784,-0.0713l0.92143,0.15867l0.78943,0.06511l0.52985,-0.23505l0.41502,-0.09075l0.36397,-0.17975l0.82116,-0.21273l0.5762,-0.03465l0.55224,-0.13302l0.23115,-0.01007l0.00247,-0.00166l0.01295,0.00097l0.51098,-0.02226l0.8415,0.12499l0.85286,0.0648l0.48157,0.13344l0.01275,0.0019l0.00177,0.00211l0.97569,0.27037l0.47624,0.24667l0.28143,-0.00011l0.49688,0.40322l0.59794,0.30968l0.04874,0.21512l0.39575,0.32115l0.30115,0.41056l0.25632,0.02879l0.23601,-0.09162l0.71654,0.19855l0.75332,0.08457l0.15272,0.1665l0.47546,0.13175l0.31519,0.16325l0.12319,0.10542l0.16697,0.05886l1.07631,0.66428l1.19316,0.46322l1.1853,0.43425l1.06419,0.09247l1.24047,0.3589l0.18978,0.1013l0.77221,0.12108l1.64868,-0.02604l0.30809,0.0547l0.31404,-0.02968l1.68286,0.16268l1.16476,0.34987l0.32991,-0.01233l0.25482,0.18801l0.32797,0.09851l0.12637,0.23664l0.90505,0.66763l1.43637,1.75766l0.76728,0.21468l0.08022,0.14086l0.26964,0.11032l0.39905,0.27757l0.27066,0.31072l0.36711,0.24379l0.98607,1.07788l0.29568,0.58821l0.37858,0.5587l0.18295,0.5832l0.01382,0.00895l0.00421,0.04854l0.09112,0.29043l-0.00554,0.69481l0.0602,0.6931l-0.06807,0.29454l-0.00037,0.04865l-0.01309,0.00965l-0.3867,1.67324l-0.1503,0.25981l-0.03662,0.2832l-0.52906,1.14387l-0.14759,0.17142l-0.05806,0.20108l-0.61761,0.95548l-0.156,0.62495l-0.14356,0.07214l-0.00034,0.13264l-0.03403,0.02529l0.29688,0.26519l0.18606,0.28439l0.21025,0.0816l0.24121,0.6084l0.37122,0.56736l-0.07785,0.17257l0.12093,0.30495l0.02026,0.29407l-0.42441,1.70029l-0.00486,0.00245l0.00037,0.00448l-1.42098,1.20599l1.07215,1.7189l0.08748,0.32562l0.1787,0.12501l0.02367,0.62819l0.1652,0.61493l-0.13622,0.15449l0.01253,0.33262l-0.08339,0.29565c1.78176,0.64329 3.43089,2.08721 3.65356,3.45322zM264.77646,176.92159c3.94038,-3.26559 -0.38298,-9.10471 -2.54588,-12.05339c-2.17341,-2.96301 -6.10707,-4.66918 -10.63182,-5.45755c-1.9837,-1.55899 -5.14084,-2.45746 -9.34826,-2.2367c-10.36337,0.54376 -20.05138,4.32786 -25.93992,11.06692c-2.34438,2.68301 -3.14997,6.25659 -2.03075,9.28242c-0.03052,0.24023 -0.05415,0.48136 -0.07065,0.72325c-3.24795,2.49401 -4.06978,6.4745 -1.69069,9.71794c2.0807,2.83662 6.03163,4.32133 9.94254,4.04396c1.30208,0.87755 2.67917,1.72577 4.07835,2.64753c4.0611,2.67534 8.07717,5.53376 12.83483,6.41776c1.29052,0.34233 2.66356,0.48638 4.03647,0.41441c3.21606,2.35118 9.64551,2.10682 13.14614,0.55396c3.61909,-1.60541 10.25861,-7.05972 9.15072,-10.76619c-0.40871,-1.36723 -1.03009,-2.71699 -1.13302,-4.12842c-0.22461,-3.0803 0.16365,-6.42089 -1.06037,-9.18875c0.44976,-0.35957 0.87095,-0.71282 1.26227,-1.03711z" fill="#f2fffd"/><path d="M227.70614,193.61742c-1.575,-0.65162 -3.14282,-3.8067 -4.22969,-4.96307c-1.5307,-1.62859 -4.3661,-3.36892 -5.61482,-5.2331c-1.23467,-1.8432 0.40064,-2.49321 0.70963,-3.8631c0.34775,-1.54163 -1.54981,-3.42977 -0.1255,-5.17444c0.84394,-1.03373 5.36585,-3.65863 5.40374,-3.82487c0.13703,-0.60136 -0.38921,-1.61982 -0.03649,-2.2026c0.49584,-0.81923 6.49695,-4.86716 7.2919,-4.93286c0.25592,-0.02114 0.51777,-0.02514 0.77742,-0.00832l0.01651,-0.01949l0.23847,-0.0143l0.21716,-0.09983l0.19004,0.07546l0.70145,-0.04199l0.74824,0.14072l0.54195,-0.66438l0.255,-0.19048l0.2005,-0.24751l0.41074,-0.30899l0.38792,-0.16384l0.35511,-0.22666l0.30805,-0.10301l0.14366,-0.01107l0.04901,-0.0207l0.01703,0.00741l0.14991,-0.06802l0.45029,-0.08211l0.11759,-0.11796l0.01277,-0.00768l0.01294,-0.04617l0.57385,-0.30697l0.55768,-0.33562l0.04612,0.01262l0.01313,-0.00702l0.17101,-0.0429l0.05975,-0.0214l0.10402,-0.06639l0.0179,-0.03142l0.05161,-0.01294l0.12155,-0.07759l0.30805,-0.10301l0.26784,-0.02066l0.07058,-0.02529l0.03429,0.01719l0.04698,-0.00363l0.40836,-0.1024h0.52328l0.84787,-0.19625l0.83964,-0.33688l0.2556,-0.03496l0.00748,-0.00922l0.14479,-0.01163l0.08349,-0.01141l0.4811,-0.12063h0.20539l0.06903,0.01732l0.09029,-0.01234l0.05992,0.04771l0.21125,-0.01697l0.40235,0.06725h1.32357l0.25301,0.06346l0.26051,-0.01245l0.51344,0.10301l0.46685,0.22182l0.19974,-0.01382l0.24894,0.227l0.30407,0.14447l0.06331,0.19052l0.38225,0.34854l0.13582,0.20435l0.57778,0.17384l0.70225,0.20126l0.11807,0.06832l0.13504,0.01847l0.44198,0.17734l0.07297,0.02441l0.02835,-0.00776l0.06449,0.0388l0.06923,0.02314l0.50758,0.324l0.49371,0.29709l0.142,0.03166l0.02676,-0.00421l0.04464,0.03412l0.15515,0.0778l0.29159,0.25072l0.15785,0.08444l0.01751,0.06245l0.40669,0.31081l0.10835,0.13587l0.04262,0.03664l0.00098,0.01805l0.07703,0.09655l0.19751,0.15849l1.13768,0.76073l0.31819,0.35106l0.3601,0.30766l0.51344,0.72096l0.07612,0.19383l0.13516,0.15817l0.06188,0.12414l0.39124,0.2289l1.36056,0.54586l0.09007,0.06526l0.10844,0.02418l0.20539,0.10301l1.02465,0.88092l0.00573,0.10354l0.08978,0.05145l0.32731,1.3132v0.08866l0.02451,0.09831v0.32331l0.07817,0.31367v1.2339l0.10886,0.21836l0.37895,0.68416l0.27332,0.34266l0.11606,0.25399l0.18129,0.21214l0.23164,0.46469l0.02555,0.01462l0.01824,0.07319l0.03263,0.06546l0.13049,0.58909l0.14591,0.58544v0.07319l0.01631,0.07364l-0.01631,0.02455v0.09515l0.08667,0.78238l-0.01975,0.14654l0.03576,0.14348v0.80258l0.38929,0.70282l0.04364,0.16316l0.09861,0.13693l0.20537,0.51498l0.03839,0.28233l0.11327,0.26131l0.10268,0.61795l-0.01745,0.21881l0.0531,0.21297v0.51498l-0.0531,0.21297l0.01745,0.2188l-0.10268,0.61797l-0.0828,0.19106l-0.01594,0.20771l-0.16265,0.48942l-0.17606,0.79469l-0.01583,0.03176v0.0355l-0.02451,0.09831v0.70663l-0.10211,0.40959l-0.03227,0.42094l-0.41073,1.23595l-0.04228,0.06664l-0.01064,0.07825l-0.20537,0.51498l-0.07782,0.10808l0.00689,0.10019l-0.3845,0.42427l-0.28144,0.39086v0.37009l-0.06325,0.25379l0.0124,0.26129l-0.10268,0.51498l-0.14972,0.31704l-0.07588,0.34244l-0.06267,0.1257l0.00037,0.00194l-0.00455,0.00642l-0.13852,0.27789l-0.33767,0.39515l-0.30029,0.42439l-0.2352,0.20219l-0.00512,0.00599l-0.00197,0.00012l-0.47652,0.40968l-0.31031,0.15562l-0.08453,0.14835l-0.42262,0.10596l-0.3896,0.19539l-0.16043,-0.05749l-0.33659,0.08441h-0.36875l-0.09655,0.12395l-0.00886,0.1598l-0.34993,0.30084l-0.28377,0.3643l-0.15875,0.01612l-0.23222,0.19962l-0.20539,0.10301l-0.10846,0.02418l-0.09007,0.06525l-0.77372,0.31041l-0.67257,0.44973l-0.65058,0.45679l-0.38257,0.52507l-0.6161,0.51496l-0.1257,0.06086l-0.31419,0.36015l-0.47797,0.87888l-0.12969,0.14121l-0.07429,0.17696l-0.61613,0.82395l-0.58723,0.47856l-0.0908,0.17863l-0.204,0.06163l-0.16535,0.13475l-0.19835,-0.02487l-0.72447,0.21888l-1.6229,0.07751l-0.37612,0.32137l-0.11956,-0.01217l-0.15582,0.09945l-0.30805,0.10299l-0.29193,0.02253l-0.27557,0.09922l-1.02685,0.10299l-0.48748,-0.07155l-0.49241,-0.01647l-0.45023,-0.12902l-0.01022,0.00383l-0.03416,-0.01653l-0.22422,-0.06425l-0.46917,-0.2715l-0.4878,-0.23619l-0.17915,-0.14972l-0.03286,-0.01901l-0.0026,-0.01062l-1.01764,-0.85059l-0.13088,-0.17965l-0.1809,-0.12877l-0.6161,-0.72096l-0.07178,-0.14403l-0.1188,-0.10834l-0.46183,-0.69483l-0.3766,-0.32378l-0.00573,-0.10354l-0.08978,-0.05145l-0.0069,-0.02771l-0.26895,0.05394l-0.24865,-0.01186l-0.11851,0.07926l-0.48479,-0.10805l-0.49607,-0.02371l-0.09353,-0.10774l-0.24299,-0.05416l-0.20537,-0.10301l-1.02465,-0.88092l-0.00019,-0.00352l-0.00316,-0.00155l-0.3901,-1.21503l-1.48711,-0.09944l-0.24696,-0.07977l-0.13841,0.04585l-0.43282,-0.23035l-0.46638,-0.15064l-0.06375,-0.13149l-0.22916,-0.12198l-0.17529,-0.15823c-0.97153,0.6903 -2.44576,1.00121 -3.4384,0.59055zM235.90483,193.01789c1.02845,3.33885 6.28501,3.31761 8.93338,3.31761c2.66126,0 4.99993,-1.41347 6.89437,-3.49322c1.65278,-0.44276 3.21069,-1.75922 4.32589,-4.06184c2.74682,-5.67157 3.09476,-12.2398 0.29813,-17.94801c-1.11343,-2.27258 -3.29294,-4.07851 -5.67987,-4.65831c-0.15362,-0.10895 -0.30993,-0.21458 -0.46889,-0.31681c-0.71372,-2.6757 -3.1641,-4.64748 -6.0772,-4.64748c-2.54774,0 -4.74153,1.50817 -5.72923,3.6764c-0.98608,0.34698 -1.97487,0.7448 -3.0201,1.12585c-3.03377,1.106 -6.17806,2.11749 -8.20728,4.28302c-0.61994,0.54777 -1.13027,1.21564 -1.49425,1.96699c-2.56007,0.78596 -4.3272,4.26869 -4.3272,6.71374c0,2.52779 1.70026,8.13513 4.54502,8.98404c1.04938,0.31314 2.15083,0.50741 3.13826,0.99877c2.15492,1.07232 4.30199,2.56825 6.54559,2.99315c0.10846,0.37602 0.22122,0.73454 0.32336,1.06611z" fill="#effffc"/><path d="M237.31214,170.88609c0.66282,-0.56991 2.4696,-0.55697 3.2504,-0.78664c1.09964,-0.32346 2.55247,-1.21812 3.69464,-1.35801c1.12933,-0.13833 1.0482,0.76051 1.60356,1.21906c0.62498,0.51601 1.92835,0.08476 2.39703,1.14045c0.2777,0.62551 0.43207,3.30251 0.49938,3.35835c0.24346,0.20191 0.83137,0.19686 1.01641,0.49322c0.26012,0.41654 0.72328,4.09991 0.56932,4.47891c-0.04957,0.12201 -0.10836,0.24276 -0.17616,0.35769l0.0051,0.01206l-0.04868,0.11243l-0.0046,0.12249l-0.07853,0.06951l-0.14317,0.33072l-0.23761,0.30984l0.17859,0.4018l0.02814,0.1608l0.06683,0.14905l0.0463,0.25949l-0.01484,0.21546l0.02153,0.21498l-0.02418,0.16482l-0.0282,0.06829l-0.00188,0.02722l-0.00732,0.00607l-0.00358,0.08435l-0.06666,0.22507l0.02675,0.08113l0.00055,0.00761l0.01812,0.01661l0.00763,0.33367l0.02448,0.33291l-0.01645,0.01818l0.00017,0.00763l-0.01997,0.08818l-0.00403,0.03231l0.00629,0.06298l0.01024,0.01547l-0.00602,0.02659l0.00738,0.07359l-0.02418,0.16482l-0.05256,0.12735l-0.00477,0.03816l-0.0158,0.0117l-0.00921,0.02234l-0.04767,0.21058l-0.12115,0.23947l-0.10646,0.43342l-0.04022,0.46221l-0.04316,0.12506l0.00248,0.00557l-0.0282,0.06894l-0.0141,0.04084l-0.05618,0.2481l-0.04754,0.09397l-0.0239,0.02759l-0.01525,0.04417l-0.0357,0.01637l-0.04115,0.1006l-0.12392,0.16855l-0.3064,0.6057l-0.08763,0.10109l-0.05462,0.12209l-0.16601,0.21112l-0.20957,0.1623l-0.03992,0.0946l-0.1615,0.06138l-0.1365,0.1057l-0.10184,-0.01513l-0.24799,0.09423l-0.12496,0.01485l-0.21331,0.22415l-0.25467,0.27479l-0.05859,0.03822l-0.03972,0.05753l-0.18347,0.16122l-0.02805,0.02775l-0.00304,0.01479l-0.03269,0.02052l-0.02663,0.02632l-0.26577,0.15727l-0.25027,0.15716l-0.04736,0.05766l-0.00428,0.01323l-0.02596,0.01253l-0.07152,0.05299l-0.18224,0.0754l-0.07518,0.0527l-0.03264,-0.00645l-0.23638,0.11416l-0.08726,0.01812l-0.02664,0.01102l-0.00847,-0.00371l-0.06202,0.01289l-0.11825,0.0537l-0.61151,0.34452l-0.23433,0.06433l-0.22415,0.09356l-0.44878,0.06806l-0.10634,-0.01003l-0.10368,0.02525l-0.07113,-0.00043l-0.19533,0.12605l-0.56477,0.49627l-0.05071,0.0261l-0.03617,0.04404l-0.09468,0.07016l-0.64032,0.26498l-0.04872,-0.02135l-0.04433,0.02917l-0.67671,-0.15422l-0.04057,-0.02052l-0.05066,-0.01154l-0.14798,-0.07484l-0.16165,-0.03683l-0.56467,-0.28564l-0.12515,-0.00074l-0.40083,0.01503l-0.22008,0.04576l-0.14311,-0.00569l-0.13905,0.03384l-0.26628,-0.00157l-0.0126,0.0083l-0.03769,-0.00859l-0.03751,-0.00022l-0.29979,-0.07665l-0.3017,-0.06876l-0.0335,-0.01694l-0.03748,-0.00959l-0.00745,-0.01314l-0.04354,-0.02203l-0.3781,-0.14145l-0.06249,-0.04297l-0.07395,-0.01685l-0.36727,-0.18581l-0.41174,0.01545l-0.08476,-0.0178l-0.08549,0.01341l-0.28321,-0.02523l-0.13808,-0.04779l-0.14579,-0.00867l-0.30656,-0.09605l-0.0961,-0.05863l-0.10973,-0.02501l-0.23567,-0.11921l-0.08516,-0.07359l-0.10416,-0.04268l-0.25901,-0.19006l-0.06825,-0.08212l-0.09135,-0.05537l-0.18632,-0.18773l-0.3229,-0.26455l-0.01086,-0.01459l-0.01625,-0.00822l-0.03931,-0.03399l-0.32337,-0.16358l-0.1638,-0.14154l-0.18515,-0.11222l-0.4705,-0.47409l-0.0207,-0.03477l-0.03335,-0.02299l-0.18813,-0.2132l-0.03145,-0.06064l-0.04744,-0.02005l-0.10512,-0.27416l-0.11371,-0.21927l-0.16936,-0.08567l-0.10148,-0.08769l-0.12244,-0.05482l-0.21189,-0.16621l-0.11042,-0.14193l-0.13915,-0.11399l-0.04301,-0.05777l-0.00098,-0.00027l-0.00189,-0.00358l-0.09509,-0.12772l-0.10265,-0.24599l-0.12472,-0.23567l-0.03807,-0.15444l-0.00156,-0.00371l0.00039,-0.00092l-0.07715,-0.31291l0.00064,-0.17803l-0.04833,-0.07301l0.04933,-0.21794l0.00076,-0.22353l0.06345,-0.0601l0.0393,-0.17356l0.08537,-0.16874l-0.03437,-0.07289l-0.07108,-0.04105l-0.05667,-0.22979l-0.10103,-0.2142l0.02938,-0.07638l-0.0376,-0.15248l0.00042,-0.11782l0.01405,-0.05522l-0.009,-0.05634l0.03705,-0.42594l-0.0501,-0.4119l-0.05842,-0.40346l-0.15173,-0.29663l-0.09304,-0.40116l0.00125,-0.07162l-0.09209,-0.22714l-0.29157,-0.4222l-0.03461,-0.09204l-0.06379,-0.07497l-0.23443,-0.4727l-0.08307,-0.37952l-0.06073,-0.08292l0.01903,-0.10763l-0.02339,-0.10687l0.0573,-0.08502l0.06754,-0.38222l0.34021,-0.76061l-0.05999,-0.24652l0.03325,-0.0519l-0.00944,-0.09433l0.02418,-0.16481l0.05728,-0.13882l0.01838,-0.14907l0.19059,-0.49376l0.14561,-0.20652l0.12152,-0.22152l0.16328,-0.17616l0.0006,-0.00557l0.01549,-0.01181l0.0813,-0.08774l0.23285,-0.15186l0.221,-0.16855l0.10999,-0.04733l0.01631,-0.01065l0.00547,0.00129l0.62485,-0.26878l0.11251,-0.01832l0.10081,-0.05297l0.47257,-0.11504l0.08254,0.00049l0.07707,-0.0293l0.42489,-0.05049l0.23535,-0.0974l0.04872,0.02135l0.04433,-0.02917l0.0143,0.00325l0.03758,-0.13557l0.063,-0.11105l-0.00884,-0.07257l0.16167,-0.19684l0.12567,-0.22153l0.07095,-0.01786l0.08104,-0.09868l0.09468,-0.07012l0.64032,-0.26496l0.00166,0.00074l0.00144,-0.00108l0.64633,0.10277l0.38977,-0.65752l0.09368,-0.09454l0.01106,-0.07397l0.20561,-0.14474l0.17691,-0.17854l0.07493,0.00129l0.10886,-0.07664l0.11298,-0.04359c-0.09098,-0.6044 0.10802,-1.35102 0.52576,-1.71021zM235.68848,174.77683c-1.76602,-0.3023 -2.97322,2.10814 -3.58631,3.32012c-0.61608,1.21784 -0.51064,2.61532 0.00254,3.9637c-0.18,0.85885 0.06178,1.87654 0.85734,2.91994c1.95956,2.56999 4.88481,4.24978 8.14443,4.29142c1.29776,0.01656 2.62874,-0.56275 3.44665,-1.52083c0.08542,-0.04508 0.16995,-0.09214 0.25353,-0.14123c1.3897,0.29281 2.85928,-0.37208 3.53368,-1.70519c0.58981,-1.16591 0.4075,-2.51899 -0.35608,-3.47291c0.06951,-0.53158 0.11635,-1.07617 0.18394,-1.64269c0.19619,-1.64437 0.46122,-3.31745 -0.06002,-4.74738c-0.10716,-0.41052 -0.29465,-0.79866 -0.55423,-1.13916c0.23299,-1.3535 -0.95168,-2.96846 -2.07062,-3.53449c-1.15678,-0.5852 -4.11646,-1.10519 -5.1635,0.0001c-0.38623,0.40773 -0.73013,0.86683 -1.18357,1.20492c-0.98958,0.7379 -2.17121,1.37414 -2.88506,2.30251c-0.19718,-0.03741 -0.38736,-0.06881 -0.56273,-0.09883z" fill="#effffc"/></g></g></svg>