<svg xmlns="http://www.w3.org/2000/svg" xmlns:xlink="http://www.w3.org/1999/xlink" version="1.1" width="33.32785" height="29.50107" viewBox="0,0,33.32785,29.50107"><defs><radialGradient cx="240" cy="180" r="12.0625" gradientUnits="userSpaceOnUse" id="color-1"><stop offset="0" stop-color="#ff8108"/><stop offset="1" stop-color="#ff8108" stop-opacity="0"/></radialGradient></defs><g><g data-paper-data="{&quot;isPaintingLayer&quot;:true}" fill-rule="nonzero" stroke-linecap="butt" stroke-linejoin="miter" stroke-miterlimit="10" stroke-dasharray="" stroke-dashoffset="0" style="mix-blend-mode: normal"><path d="M252.0625,180c0,-6.55838 -5.40057,-11.875 -12.0625,-11.875c-6.66193,0 -12.0625,5.31662 -12.0625,11.875c0,6.55838 5.40057,11.875 12.0625,11.875c6.66193,0 12.0625,-5.31662 12.0625,-11.875z" fill="url(#color-1)" stroke-width="0" stroke="none" transform="matrix(1,0,0,1,-225.48404,-166.33478)"/><path d="M 0.2237 16.4433 C -0.0945 15.548 -0.1714 14.6241 0.662 13.9709 C 1.3215 13.454 1.754 14.2296 2.1637 14.756 C 2.4437 14.6575 2.6829 14.681 2.8873 14.7886 C 2.9091 14.7085 2.9411 14.6397 3.003 14.6112 C 3.6785 14.3 4.6903 14.455 5.5457 14.6609 C 5.6865 14.6482 5.8561 14.6677 6.0094 14.78 C 6.196 14.8304 6.3683 14.8792 6.5195 14.9208 C 6.7105 16.5031 6.5961 16.7502 5.6511 17.8365 C 5.6883 17.973 5.716 18.1152 5.7342 18.2649 C 5.8792 18.4239 6.0832 18.5918 6.1503 18.7614 C 6.5333 19.73 6.4706 21.0985 5.7651 21.9086 C 2.7657 25.3523 0.1795 19.5664 0.2237 16.4433 Z " fill="#000000" stroke-width="0.5" stroke="none"/><path d="M 24.19 7.6237 C 23.8209 7.7467 23.5795 7.6145 23.4326 7.4587 C 22.7415 7.3489 22.3877 6.5403 21.7813 6.2857 C 21.7125 6.2569 21.5437 6.4163 21.3139 6.6481 C 21.2557 6.8275 21.1597 6.9588 20.9792 6.9859 C 20.4332 7.5269 19.7159 8.1527 19.1312 7.9647 C 18.2698 7.6878 18.7474 6.5112 18.5145 5.96 C 17.6132 3.8269 16.1064 3.6622 14.0778 3.6622 C 14.0778 3.6622 13.4362 3.6622 13.3399 3.0687 C 13.1091 2.9408 12.9528 2.6947 12.9528 2.4122 C 12.9528 2.1688 13.0688 1.9525 13.2485 1.8154 L 14.3674 0.9452 L 14.3773 0.9579 C 14.4001 0.9354 14.4233 0.9132 14.4468 0.8912 C 14.8739 0.4922 16.6473 0.0838 17.9207 0.2152 C 18.127 0.1514 18.337 0.0959 18.552 0.0525 C 20.4716 -0.335 23.543 1.5115 24.8535 2.6641 C 25.0356 3.5352 25.4035 5.7694 24.6983 6.8535 C 24.7192 7.0804 24.6747 7.4621 24.19 7.6237 Z " fill="#000000" stroke-width="0.5" stroke="none"/><path d="M 26.4261 15.8378 L 26.7962 17.0717 L 26.4163 17.1857 C 26.8571 19.2238 25.8192 21.0351 24.8462 23.2977 L 24.7533 23.3526 L 24.7885 23.3807 L 24.2928 24.0003 C 24.223 24.0892 24.1334 24.1619 24.0308 24.2119 C 22.3043 26.1098 19.572 27.2143 17.5184 25.5347 C 16.8611 25.4416 16.2599 25.2715 15.7986 25.0439 L 15.754 24.9732 L 15.7343 24.9978 L 15.1147 24.5022 C 14.94 24.3649 14.8278 24.1516 14.8278 23.9122 C 14.8278 23.498 15.1636 23.1622 15.5778 23.1622 C 15.6247 23.1622 15.6706 23.1665 15.7151 23.1747 L 15.8198 23.1922 C 15.8208 23.1205 15.8322 23.042 15.8567 22.9562 C 16.0627 22.235 16.7839 22.4411 16.7839 22.4411 C 17.1843 22.5561 17.5854 22.9734 17.974 22.823 C 18.4121 22.6534 18.6281 22.3148 18.7372 21.908 C 18.7418 21.8898 18.7464 21.8717 18.7511 21.8535 C 18.9488 21.036 18.747 19.9681 19.0416 19.4333 C 19.9147 17.8483 21.4331 16.7665 22.5885 17.3786 C 22.5905 17.3766 22.5925 17.3745 22.5944 17.3725 L 22.282 16.7476 L 22.6108 16.5832 C 22.6168 16.2922 22.6404 16.0011 22.6658 15.7193 L 22.8294 15.9277 C 22.8408 15.8948 22.8525 15.8616 22.8644 15.8282 C 22.8364 15.1342 22.8347 14.5267 22.8375 14.1671 L 22.9077 14.0638 L 22.8663 14.05 L 23.1109 13.3165 C 23.2051 13.01 23.4905 12.7872 23.8278 12.7872 C 24.1272 12.7872 24.3857 12.9627 24.5059 13.2163 L 24.8737 13.9518 L 24.853 13.9621 C 24.8821 14.0114 24.9088 14.0623 24.9328 14.1149 C 24.9528 14.159 24.9702 14.2023 24.9851 14.2449 C 25.0878 14.1921 25.2043 14.1622 25.3278 14.1622 C 25.7043 14.1622 26.016 14.4396 26.0697 14.8011 L 26.1791 15.4578 C 26.2968 15.5547 26.3845 15.6867 26.426 15.8378 Z " fill="#000000" stroke-width="0.5" stroke="none"/><path d="M 2.9013 5.5341 C 2.2058 5.6168 2.0881 4.9105 2.0881 4.9105 C 2.0895 4.4818 1.6702 1.6597 3.8536 3.2782 C 4.3921 3.6774 4.1523 4.5853 4.3016 5.2388 L 2.9529 5.5372 C 2.9529 5.5372 2.9336 5.5372 2.9013 5.5341 Z " fill="#000000" stroke-width="0.5" stroke="none"/><path d="M 31.209 10.8396 C 31.123 10.727 31.0493 10.5728 31.0631 10.3828 C 31.0639 10.1923 31.1492 10.0442 31.2436 9.9386 C 31.3624 9.7802 31.4992 9.7028 31.6319 9.6716 L 32.2289 9.3731 C 32.3332 9.3183 32.4519 9.2872 32.5779 9.2872 C 32.9921 9.2872 33.3279 9.623 33.3279 10.0372 C 33.3279 10.0841 33.3236 10.1299 33.3153 10.1744 L 33.1926 10.9105 L 32.3726 10.9783 L 32.1633 11.083 C 32.1633 11.083 31.5569 11.3862 31.209 10.8396 Z " fill="#000000" stroke-width="0.5" stroke="none"/><path d="M 9.5325 27.3085 C 9.5675 27.2501 9.6134 27.191 9.6725 27.1319 C 10.2028 26.6015 10.7332 27.1319 10.7332 27.1319 L 11.1714 28.7478 C 9.7659 29.8169 8.9493 29.889 8.5778 28.0372 C 8.5778 28.0372 8.5778 27.2872 9.3278 27.2872 C 9.4034 27.2872 9.4714 27.2948 9.5325 27.3085 Z " fill="#000000" stroke-width="0.5" stroke="none"/></g></g></svg>