<svg version="1.1" xmlns="http://www.w3.org/2000/svg" xmlns:xlink="http://www.w3.org/1999/xlink" width="420.2079" height="304.2821" viewBox="0,0,420.2079,304.2821"><defs><radialGradient cx="338.79714" cy="131.79812" r="4.4625" gradientUnits="userSpaceOnUse" id="color-1"><stop offset="0" stop-color="#aaaaaa"/><stop offset="1" stop-color="#757575"/></radialGradient><radialGradient cx="324.31827" cy="131.68581" r="6.69376" gradientUnits="userSpaceOnUse" id="color-2"><stop offset="0" stop-color="#aaaaaa"/><stop offset="1" stop-color="#757575"/></radialGradient><radialGradient cx="319.16112" cy="130.51553" r="6.01131" gradientUnits="userSpaceOnUse" id="color-3"><stop offset="0" stop-color="#aaaaaa"/><stop offset="1" stop-color="#757575"/></radialGradient><radialGradient cx="337.8234" cy="133.55348" r="8.92501" gradientUnits="userSpaceOnUse" id="color-4"><stop offset="0" stop-color="#aaaaaa"/><stop offset="1" stop-color="#757575"/></radialGradient><radialGradient cx="247.65056" cy="7.47907" r="37.46091" gradientUnits="userSpaceOnUse" id="color-5"><stop offset="0" stop-color="#fffb79"/><stop offset="1" stop-color="#fffb79" stop-opacity="0"/></radialGradient><radialGradient cx="245.80516" cy="11.26473" r="37.46092" gradientUnits="userSpaceOnUse" id="color-6"><stop offset="0" stop-color="#fffb79"/><stop offset="1" stop-color="#fffb79" stop-opacity="0"/></radialGradient><radialGradient cx="246.32572" cy="14.17811" r="37.46092" gradientUnits="userSpaceOnUse" id="color-7"><stop offset="0" stop-color="#fffb79"/><stop offset="1" stop-color="#fffb79" stop-opacity="0"/></radialGradient><radialGradient cx="246.05762" cy="15.34691" r="37.46092" gradientUnits="userSpaceOnUse" id="color-8"><stop offset="0" stop-color="#fffb79"/><stop offset="1" stop-color="#fffb79" stop-opacity="0"/></radialGradient><radialGradient cx="245.78952" cy="14.77116" r="37.46092" gradientUnits="userSpaceOnUse" id="color-9"><stop offset="0" stop-color="#fffb79"/><stop offset="1" stop-color="#fffb79" stop-opacity="0"/></radialGradient><radialGradient cx="247.09873" cy="12.45083" r="37.46092" gradientUnits="userSpaceOnUse" id="color-10"><stop offset="0" stop-color="#fffb79"/><stop offset="1" stop-color="#fffb79" stop-opacity="0"/></radialGradient><radialGradient cx="246.83063" cy="15.36421" r="37.46092" gradientUnits="userSpaceOnUse" id="color-11"><stop offset="0" stop-color="#fffb79"/><stop offset="1" stop-color="#fffb79" stop-opacity="0"/></radialGradient><linearGradient x1="325.35621" y1="92.55631" x2="325.35621" y2="261.51361" gradientUnits="userSpaceOnUse" id="color-12"><stop offset="0" stop-color="#9c831f"/><stop offset="1" stop-color="#73571c"/></linearGradient><linearGradient x1="331.80903" y1="135.77609" x2="331.80903" y2="170.34549" gradientUnits="userSpaceOnUse" id="color-13"><stop offset="0" stop-color="#535353"/><stop offset="1" stop-color="#2d2d2d"/></linearGradient><radialGradient cx="326.83916" cy="130.32365" r="5.96847" gradientUnits="userSpaceOnUse" id="color-14"><stop offset="0" stop-color="#aaaaaa"/><stop offset="1" stop-color="#757575"/></radialGradient><radialGradient cx="335.05411" cy="151.71651" r="7.92365" gradientUnits="userSpaceOnUse" id="color-15"><stop offset="0" stop-color="#976700"/><stop offset="1" stop-color="#8a00e3"/></radialGradient><radialGradient cx="280.55963" cy="156.2849" r="5.25626" gradientUnits="userSpaceOnUse" id="color-16"><stop offset="0" stop-color="#976700"/><stop offset="1" stop-color="#8a00e3"/></radialGradient><radialGradient cx="342.63701" cy="132.01282" r="2.67184" gradientUnits="userSpaceOnUse" id="color-17"><stop offset="0" stop-color="#aaaaaa"/><stop offset="1" stop-color="#757575"/></radialGradient></defs><g transform="translate(-125.38361,36.80277)"><g data-paper-data="{&quot;isPaintingLayer&quot;:true}" fill-rule="nonzero" stroke-linejoin="miter" stroke-miterlimit="10" stroke-dasharray="" stroke-dashoffset="0" style="mix-blend-mode: normal"><path d="M125.38361,217.29933v-249.06888h420.2079v249.06888z" data-paper-data="{&quot;index&quot;:null}" fill="#8cf9ff" stroke="none" stroke-width="0" stroke-linecap="butt"/><path d="M339.58331,135.38964c-1.52547,1.37516 -4.09987,1.00598 -5.75006,-0.82459c-1.65019,-1.83057 -1.75129,-4.42933 -0.22582,-5.80449c1.52547,-1.37516 4.09987,-1.00597 5.75006,0.8246c1.65019,1.83057 1.75129,4.42933 0.22582,5.80449z" fill="url(#color-1)" stroke="none" stroke-width="0" stroke-linecap="butt"/><path d="M328.82597,137.50143c-2.44076,2.20025 -6.42601,1.75796 -8.90129,-0.9879c-2.47528,-2.74586 -2.50328,-6.75547 -0.06252,-8.95572c2.44076,-2.20025 6.42601,-1.75796 8.90129,0.98789c2.47528,2.74586 2.50328,6.75547 0.06252,8.95573z" fill="url(#color-2)" stroke="none" stroke-width="0" stroke-linecap="butt"/><path d="M322.64288,137.79263c-1.9375,1.74658 -5.31019,1.16346 -7.53312,-1.30245c-2.22293,-2.46591 -2.45431,-5.88081 -0.51681,-7.62739c1.9375,-1.74658 5.31019,-1.16347 7.53312,1.30245c2.22293,2.46591 2.45431,5.88081 0.51681,7.62739z" fill="url(#color-3)" stroke="none" stroke-width="NaN" stroke-linecap="butt"/><path d="M343.79927,140.18256c-2.8984,2.6128 -7.92351,1.76296 -11.22389,-1.89818c-3.30039,-3.66114 -3.62625,-8.74718 -0.72785,-11.35998c1.44698,-1.3044 3.73564,-2.21304 5.4069,-1.42282c1.6764,0.79265 2.73543,3.28927 4.20146,5.30934c2.89516,3.9893 5.24178,6.75884 2.34338,9.37164z" fill="url(#color-4)" stroke="none" stroke-width="0" stroke-linecap="butt"/><path d="M282.79598,155.17689l-1.52426,-21.34571h99.13187l-1.1432,21.34571z" fill="#9e9e9e" stroke="#000000" stroke-width="0.5" stroke-linecap="butt"/><path d="M210.18964,7.47907c0,-21.4378 16.77182,-38.81657 37.46091,-38.81657c20.68909,0 37.46091,17.37877 37.46091,38.81657c0,21.4378 -16.77182,38.81657 -37.46091,38.81657c-20.68909,0 -37.46091,-17.37877 -37.46091,-38.81657z" data-paper-data="{&quot;index&quot;:null}" fill="url(#color-5)" stroke="none" stroke-width="0" stroke-linecap="butt"/><path d="M468.40933,85.90503c0,-14.48297 9.27141,-26.22373 20.70828,-26.22373c11.43687,0 20.70828,11.74077 20.70828,26.22373c0,14.48297 -9.27141,26.22373 -20.70828,26.22373c-11.43687,0 -20.70828,-11.74077 -20.70828,-26.22373z" data-paper-data="{&quot;index&quot;:null}" fill="#ffffff" stroke="none" stroke-width="0" stroke-linecap="butt"/><path d="M476.9483,52.91364c0,-10.63307 6.44968,-19.25287 14.40576,-19.25287c7.95608,0 14.40576,8.6198 14.40576,19.25287c0,10.63307 -6.44968,19.25287 -14.40576,19.25287c-7.95608,0 -14.40576,-8.6198 -14.40576,-19.25287z" data-paper-data="{&quot;index&quot;:null}" fill="#ffffff" stroke="none" stroke-width="0" stroke-linecap="butt"/><path d="M154.14072,62.28257c0,-10.81639 13.70557,-19.58481 30.61224,-19.58481c16.90668,0 30.61224,8.76842 30.61224,19.58481c0,10.81639 -13.70557,19.58481 -30.61224,19.58481c-16.90668,0 -30.61224,-8.76842 -30.61224,-19.58481z" data-paper-data="{&quot;index&quot;:null}" fill="#ffffff" stroke="none" stroke-width="0" stroke-linecap="butt"/><path d="M169.74696,32.0755c0,-14.29963 10.48073,-25.89178 23.40936,-25.89178c12.92863,0 23.40936,11.59215 23.40936,25.89178c0,14.29963 -10.48073,25.89178 -23.40936,25.89178c-12.92863,0 -23.40936,-11.59215 -23.40936,-25.89178z" data-paper-data="{&quot;index&quot;:null}" fill="#ffffff" stroke="none" stroke-width="0" stroke-linecap="butt"/><path d="M134.93303,34.73109c0,-16.49959 11.28694,-29.87514 25.21008,-29.87514c13.92314,0 25.21008,13.37556 25.21008,29.87514c0,16.49959 -11.28694,29.87514 -25.21008,29.87514c-13.92314,0 -25.21008,-13.37556 -25.21008,-29.87514z" data-paper-data="{&quot;index&quot;:null}" fill="#ffffff" stroke="none" stroke-width="0" stroke-linecap="butt"/><path d="M202.15993,48.34088c0,-9.71642 6.98715,-17.59314 15.60624,-17.59314c8.61909,0 15.60624,7.87672 15.60624,17.59314c0,9.71642 -6.98715,17.59314 -15.60624,17.59314c-8.61909,0 -15.60624,-7.87672 -15.60624,-17.59314z" data-paper-data="{&quot;index&quot;:null}" fill="#ffffff" stroke="#000000" stroke-width="0" stroke-linecap="butt"/><path d="M347.00358,31.19174c0,-9.71642 6.98715,-17.59314 15.60624,-17.59314c8.61909,0 15.60624,7.87672 15.60624,17.59314c0,9.71642 -6.98715,17.59314 -15.60624,17.59314c-8.61909,0 -15.60624,-7.87672 -15.60624,-17.59314z" data-paper-data="{&quot;index&quot;:null}" fill="#ffffff" stroke="#000000" stroke-width="0" stroke-linecap="butt"/><path d="M319.3225,43.7117c0,-14.29963 10.48073,-25.89178 23.40936,-25.89178c12.92863,0 23.40936,11.59215 23.40936,25.89178c0,14.29963 -10.48073,25.89178 -23.40936,25.89178c-12.92863,0 -23.40936,-11.59215 -23.40936,-25.89178z" data-paper-data="{&quot;index&quot;:null}" fill="#ffffff" stroke="none" stroke-width="0" stroke-linecap="butt"/><path d="M311.95655,24.81801c0,-14.29963 10.48073,-25.89178 23.40936,-25.89178c12.92863,0 23.40936,11.59215 23.40936,25.89178c0,14.29963 -10.48073,25.89178 -23.40936,25.89178c-12.92863,0 -23.40936,-11.59215 -23.40936,-25.89178z" data-paper-data="{&quot;index&quot;:null}" fill="#ffffff" stroke="none" stroke-width="0" stroke-linecap="butt"/><path d="M295.12681,44.30475c0,-14.29963 10.48073,-25.89178 23.40936,-25.89178c12.92863,0 23.40936,11.59215 23.40936,25.89178c0,14.29963 -10.48073,25.89178 -23.40936,25.89178c-12.92863,0 -23.40936,-11.59215 -23.40936,-25.89178z" data-paper-data="{&quot;index&quot;:null}" fill="#ffffff" stroke="none" stroke-width="0" stroke-linecap="butt"/><path d="M279.0857,26.28334c0,-14.29963 10.48073,-25.89178 23.40936,-25.89178c12.92863,0 23.40936,11.59215 23.40936,25.89178c0,14.29963 -10.48073,25.89178 -23.40936,25.89178c-12.92863,0 -23.40936,-11.59215 -23.40936,-25.89178z" data-paper-data="{&quot;index&quot;:null}" fill="#ffffff" stroke="none" stroke-width="0" stroke-linecap="butt"/><path d="M432.60451,7.82577c0,-11.65002 8.53873,-21.09423 19.07178,-21.09423c10.53305,0 19.07178,9.44421 19.07178,21.09423c0,11.65002 -8.53873,21.09423 -19.07178,21.09423c-10.53305,0 -19.07178,-9.44421 -19.07178,-21.09423z" data-paper-data="{&quot;index&quot;:null}" fill="#ffffff" stroke="none" stroke-width="0" stroke-linecap="butt"/><path d="M409.46553,-7.14263c0,-14.29963 10.48073,-25.89178 23.40936,-25.89178c12.92863,0 23.40936,11.59215 23.40936,25.89178c0,14.29963 -10.48073,25.89178 -23.40936,25.89178c-12.92863,0 -23.40936,-11.59215 -23.40936,-25.89178z" data-paper-data="{&quot;index&quot;:null}" fill="#ffffff" stroke="none" stroke-width="0" stroke-linecap="butt"/><path d="M451.78459,-5.10155c0,-14.29963 10.48073,-25.89178 23.40936,-25.89178c12.92863,0 23.40936,11.59215 23.40936,25.89178c0,14.29963 -10.48073,25.89178 -23.40936,25.89178c-12.92863,0 -23.40936,-11.59215 -23.40936,-25.89178z" data-paper-data="{&quot;index&quot;:null}" fill="#ffffff" stroke="none" stroke-width="0" stroke-linecap="butt"/><path d="M391.57904,-10.91099c0,-14.29963 10.48073,-25.89178 23.40936,-25.89178c12.92863,0 23.40936,11.59215 23.40936,25.89178c0,14.29963 -10.48073,25.89178 -23.40936,25.89178c-12.92863,0 -23.40936,-11.59215 -23.40936,-25.89178z" data-paper-data="{&quot;index&quot;:null}" fill="#ffffff" stroke="none" stroke-width="0" stroke-linecap="butt"/><path d="M208.34424,11.26473c0,-21.4378 16.77182,-38.81657 37.46091,-38.81657c20.68909,0 37.46091,17.37877 37.46091,38.81657c0,21.4378 -16.77182,38.81657 -37.46092,38.81657c-20.68909,0 -37.46092,-17.37877 -37.46092,-38.81657z" data-paper-data="{&quot;index&quot;:null}" fill="url(#color-6)" stroke="none" stroke-width="0" stroke-linecap="butt"/><path d="M208.8648,14.17811c0,-21.4378 16.77182,-38.81657 37.46091,-38.81657c20.68909,0 37.46091,17.37877 37.46091,38.81657c0,21.4378 -16.77182,38.81657 -37.46092,38.81657c-20.68909,0 -37.46092,-17.37877 -37.46092,-38.81657z" data-paper-data="{&quot;index&quot;:null}" fill="url(#color-7)" stroke="none" stroke-width="0" stroke-linecap="butt"/><path d="M208.5967,15.34691c0,-21.4378 16.77182,-38.81657 37.46091,-38.81657c20.68909,0 37.46091,17.37877 37.46091,38.81657c0,21.4378 -16.77182,38.81657 -37.46092,38.81657c-20.68909,0 -37.46092,-17.37877 -37.46092,-38.81657z" data-paper-data="{&quot;index&quot;:null}" fill="url(#color-8)" stroke="none" stroke-width="0" stroke-linecap="butt"/><path d="M208.32861,14.77116c0,-21.4378 16.77182,-38.81657 37.46091,-38.81657c20.68909,0 37.46091,17.37877 37.46091,38.81657c0,21.4378 -16.77182,38.81657 -37.46092,38.81657c-20.68909,0 -37.46092,-17.37877 -37.46092,-38.81657z" data-paper-data="{&quot;index&quot;:null}" fill="url(#color-9)" stroke="none" stroke-width="0" stroke-linecap="butt"/><path d="M209.63782,12.45083c0,-21.4378 16.77182,-38.81657 37.46091,-38.81657c20.68909,0 37.46091,17.37877 37.46091,38.81657c0,21.4378 -16.77182,38.81657 -37.46092,38.81657c-20.68909,0 -37.46092,-17.37877 -37.46092,-38.81657z" data-paper-data="{&quot;index&quot;:null}" fill="url(#color-10)" stroke="none" stroke-width="0" stroke-linecap="butt"/><path d="M209.36972,15.36421c0,-21.4378 16.77182,-38.81657 37.46091,-38.81657c20.68909,0 37.46091,17.37877 37.46091,38.81657c0,21.4378 -16.77182,38.81657 -37.46092,38.81657c-20.68909,0 -37.46092,-17.37877 -37.46092,-38.81657z" data-paper-data="{&quot;index&quot;:null}" fill="url(#color-11)" stroke="none" stroke-width="0" stroke-linecap="butt"/><path d="M133.54643,267.47933l-0.95519,-71.33877c0,0 54.44624,-22.44421 55.92459,-22.52256c15.99816,-0.84782 49.27035,-10.56678 75.77368,-10.96632c36.99737,-0.55775 74.71945,-7.8539 91.08503,-7.8539c23.40365,0 99.57657,27.95607 130.04879,29.79813c52.41543,3.16853 58.0847,11.54464 58.0847,11.54464l-2.86559,71.33878z" data-paper-data="{&quot;index&quot;:null}" fill="#00953d" stroke="none" stroke-width="0" stroke-linecap="butt"/><path d="" data-paper-data="{&quot;index&quot;:null}" fill="url(#color-12)" stroke="none" stroke-width="0" stroke-linecap="butt"/><path d="M179.05744,189.43853c0.01523,0.74985 -0.73462,0.76507 -0.73462,0.76507l-0.47519,0.00965c-1.28855,0.02617 -3.08534,-0.24368 -4.33182,0.06899c-1.24648,0.31267 -2.70317,1.39863 -3.85152,1.98374c-2.9867,1.52179 -5.80272,2.66512 -7.08121,5.21863c0.13129,0.10993 0.23614,0.2855 0.23614,0.56592c0,0.6589 -0.57887,0.73894 -0.71949,0.74866c-0.15738,0.6282 -0.23996,1.32859 -0.2357,2.11694c0,0 0,0.75 -0.75,0.75c-0.75,0 -0.75,-0.75 -0.75,-0.75c0.00379,-0.80704 0.1093,-1.57214 0.30305,-2.29589c-0.08476,-0.02257 -0.1667,-0.04708 -0.24602,-0.07344c-0.19885,0.29121 -0.39811,0.58203 -0.5934,0.87496c0,0 -0.41603,0.62404 -1.04006,0.20801c-0.62404,-0.41603 -0.20801,-1.04006 -0.20801,-1.04006c0.17929,-0.26894 0.34761,-0.54549 0.50702,-0.82799c-1.02102,-0.93591 -1.53429,-2.34235 -2.9718,-3.53102c-0.71614,-0.59218 -1.72094,-0.702 -2.57545,-1.06715l-0.36163,-0.15453c0,0 -0.68967,-0.29471 -0.39496,-0.98438c0.29471,-0.68967 0.98438,-0.39496 0.98438,-0.39496l0.36163,0.15453c0.23074,0.0986 2.83398,1.20126 2.94192,1.29051c1.2509,1.03437 1.70335,2.50971 2.66385,3.41609c1.15735,-2.48955 1.89855,-5.22889 3.44688,-7.23866l0.21147,-0.26558c0,0 0.46718,-0.58672 1.0539,-0.11954c0.58672,0.46718 0.11954,1.0539 0.11954,1.0539l-0.21147,0.26558c-1.18545,1.42637 -1.28681,3.38782 -2.03059,5.13697c3.37631,-4.38144 10.4146,-6.50679 15.49289,-6.60993l0.47519,-0.00965c0,0 0.74985,-0.01523 0.76507,0.73462z" fill="#006f2e" stroke="none" stroke-width="0.5" stroke-linecap="butt"/><path d="M463.06281,173.42814c0.74245,0.10616 0.63629,0.84861 0.63629,0.84861l-0.26288,1.56719c-1.34266,2.68704 -2.63831,5.26419 -3.58885,8.1158c0,0 -0.23717,0.71151 -0.94868,0.47434c-0.10061,-0.03354 -0.18225,-0.07656 -0.24827,-0.12571c-0.01699,0.01292 -0.03488,0.02567 -0.05373,0.03823c-0.62404,0.41603 -1.04006,-0.20801 -1.04006,-0.20801c-1.4067,-2.11006 -2.59554,-3.65521 -5.11434,-4.40952l-0.2134,-0.06567c0,0 -0.71682,-0.2206 -0.49623,-0.93742c0.2206,-0.71682 0.93742,-0.49623 0.93742,-0.49623l0.2134,0.06567c2.72857,0.85889 4.17899,2.44625 5.70951,4.69658c0.9545,-2.72572 2.2051,-5.22423 3.50142,-7.81854l0.11979,-1.10904c0,0 0.10616,-0.74245 0.84861,-0.63629z" fill="#006f2e" stroke="none" stroke-width="0.5" stroke-linecap="butt"/><path d="M469.31292,179.48732c0.41445,0.62508 -0.21063,1.03954 -0.21063,1.03954l-0.23554,0.15617c-0.84819,0.54378 -1.93127,0.58683 -2.861,0.97504c-1.58033,0.65986 -2.92886,2.83687 -4.62409,3.69052c0,0 -0.67082,0.33541 -1.00623,-0.33541c-0.33541,-0.67082 0.33541,-1.00623 0.33541,-1.00623c1.80217,-0.89395 2.97355,-2.93975 4.69243,-3.72257c0.83992,-0.38252 1.87574,-0.32621 2.63457,-0.85151l0.23554,-0.15617c0,0 0.62508,-0.41445 1.03954,0.21063z" fill="#006f2e" stroke="none" stroke-width="0.5" stroke-linecap="butt"/><path d="M225.19126,162.91758c0.74583,0.07896 0.66687,0.82479 0.66687,0.82479l-0.06795,0.64188c-0.38961,3.66511 -2.80578,6.00937 -2.79347,9.78634c0,0 0,0.75 -0.75,0.75c-0.75,0 -0.75,-0.75 -0.75,-0.75c0.00023,-0.07766 0.00141,-0.15473 0.00352,-0.23122c-0.58636,0.19779 -0.87954,-0.38857 -0.87954,-0.38857c-0.68558,-1.3821 -1.46286,-2.2961 -2.52306,-3.41257l-0.21577,-0.22739c0,0 -0.51625,-0.54405 0.02781,-1.0603c0.54405,-0.51625 1.0603,0.02781 1.0603,0.02781l0.21577,0.22739c1.01598,1.07147 1.80374,2.00993 2.49423,3.24259c0.5705,-2.88753 2.2957,-5.05922 2.61855,-8.12201l0.06795,-0.64188c0,0 0.07896,-0.74583 0.82479,-0.66687z" fill="#006f2e" stroke="none" stroke-width="0.5" stroke-linecap="butt"/><path d="M227.62868,169.46184c0.33375,0.67165 -0.3379,1.0054 -0.3379,1.0054l-1.01652,0.50512c-1.70065,0.84506 -3.56942,1.22569 -4.3776,2.97943c0,0 -0.33541,0.67082 -1.00623,0.33541c-0.67082,-0.33541 -0.33541,-1.00623 -0.33541,-1.00623c1.13786,-2.15065 2.93622,-2.60065 5.05174,-3.65191l1.01652,-0.50512c0,0 0.67165,-0.33375 1.0054,0.3379z" fill="#006f2e" stroke="none" stroke-width="0.5" stroke-linecap="butt"/><path d="M290.68255,237.49955c0.66932,-0.3384 1.00772,0.33091 1.00772,0.33091l0.30725,0.60769c1.33379,2.68226 4.13239,4.28608 5.71098,6.80546c0.79131,1.26291 1.05611,2.89654 1.73226,4.22474c1.13221,2.22408 2.59058,4.26824 3.7134,6.51387c0,0 0.33541,0.67082 -0.33541,1.00623c-0.67082,0.33541 -1.00623,-0.33541 -1.00623,-0.33541c-1.12135,-2.2427 -2.57737,-4.2822 -3.70851,-6.50419c-0.65211,-1.28099 -0.9053,-2.8938 -1.66659,-4.1088c-1.60868,-2.56739 -4.37651,-4.19086 -5.77852,-6.92509l-0.30725,-0.60769c0,0 -0.3384,-0.66932 0.33091,-1.00772z" fill="#006f2e" stroke="none" stroke-width="0.5" stroke-linecap="butt"/><path d="M308.79759,244.3835c0.47175,0.58305 -0.1113,1.0548 -0.1113,1.0548l-0.75014,0.60695c-2.64577,2.13654 -3.87995,3.25252 -4.72519,6.63349c0,0 -0.1819,0.72761 -0.90951,0.54571c-0.72761,-0.1819 -0.54571,-0.90951 -0.54571,-0.90951c0.18171,-0.72683 0.38348,-1.36538 0.61232,-1.94004c-0.63471,-0.07263 -0.63471,-0.74365 -0.63471,-0.74365c0,-3.5523 0.47079,-5.67587 1.97208,-8.89534l0.00859,-0.01841c0,0 0.31697,-0.67973 0.9967,-0.36276c0.67973,0.31697 0.36276,0.9967 0.36276,0.9967l-0.00859,0.01841c-1.2848,2.7552 -1.73994,4.50184 -1.81863,7.28409c0.88247,-1.36877 2.07073,-2.41615 3.74638,-3.77478l0.75014,-0.60695c0,0 0.58305,-0.47175 1.0548,0.1113z" fill="#006f2e" stroke="none" stroke-width="0.5" stroke-linecap="butt"/><path d="M230.52578,217.7146c0.3951,0.63749 -0.24238,1.03259 -0.24238,1.03259l-0.0349,0.02163c-2.23449,1.304 -1.5206,3.7038 -1.5206,6.02727c0,0 0,0.70767 -0.68741,0.74819c1.20291,1.10617 2.46557,2.16956 3.42704,3.61177c0,0 0.41603,0.62404 -0.20801,1.04006c-0.62404,0.41603 -1.04006,-0.20801 -1.04006,-0.20801c-1.73185,-2.59778 -4.36849,-3.94798 -6.01157,-6.55758l-0.68738,-1.10348c0,0 -0.39655,-0.63659 0.24005,-1.03314c0.63659,-0.39655 1.03314,0.24005 1.03314,0.24005l0.68738,1.10348c0.49521,0.80494 1.09865,1.49193 1.74681,2.13518c-0.00298,-3.00017 -0.57251,-5.46419 2.2304,-7.27877l0.0349,-0.02163c0,0 0.63749,-0.3951 1.03259,0.24238z" fill="#006f2e" stroke="none" stroke-width="0.5" stroke-linecap="butt"/><path d="M234.28814,219.54345c0.47665,0.57905 -0.1024,1.05571 -0.1024,1.05571l-1.13658,0.93558c-1.35172,1.07441 -1.47374,1.5432 -1.45567,3.26136c0,0 0,0.75 -0.75,0.75c-0.75,0 -0.75,-0.75 -0.75,-0.75c0.01867,-2.15641 0.34889,-3.02081 2.00236,-4.41946l1.13658,-0.93558c0,0 0.57905,-0.47665 1.05571,0.1024z" fill="#006f2e" stroke="none" stroke-width="0.5" stroke-linecap="butt"/><path d="M431.18215,224.53275c0.26334,0.70225 -0.4389,0.96559 -0.4389,0.96559c-2.34082,0.87781 -5.30076,1.98779 -7.64159,2.86559c0,0 -0.70225,0.26334 -0.96559,-0.4389c-0.015,-0.04001 -0.02688,-0.0786 -0.03592,-0.1158c-0.15297,0.39382 -0.3198,0.77597 -0.50141,1.14306c0,0 -0.33541,0.67082 -1.00623,0.33541c-0.67082,-0.33541 -0.33541,-1.00623 -0.33541,-1.00623c0.45263,-0.89438 0.80394,-1.90185 1.07173,-2.95353c-1.25555,-0.83732 -2.43064,-1.62946 -3.55679,-2.64819l-0.44708,-1.56738c0,0 -0.13708,-0.73737 0.60029,-0.87445c0.73737,-0.13708 0.87445,0.60029 0.87445,0.60029l-0.01989,0.73049c0.91912,0.83608 1.87611,1.50383 2.88616,2.18083c0.23276,-1.32246 0.35315,-2.66037 0.394,-3.88671l0.02881,-0.82413c0,0 0.02621,-0.74954 0.77575,-0.72334c0.74954,0.02621 0.72334,0.77575 0.72334,0.77575l-0.02881,0.82413c-0.08379,2.29612 -0.42994,4.88397 -1.19649,7.1677c0.11118,-0.08554 0.21242,-0.1235 0.21242,-0.1235c2.34082,-0.87781 4.68165,-1.75562 7.02247,-2.63343l0.61912,-0.23217c0,0 0.70225,-0.26334 0.96559,0.4389z" fill="#006f2e" stroke="none" stroke-width="0.5" stroke-linecap="butt"/><path d="M281.66254,136.78621l47.65709,2.43392l49.83345,-3.44404l16.48422,30.18397c0,0 -12.37278,1.26779 -34.38413,2.71367c-10.37758,0.68168 -20.67483,1.67176 -28.50926,1.67176c-9.95415,0 -23.49755,-5.18628 -36.72055,-6.13045c-19.67227,-1.40466 -28.79262,-0.75498 -28.79262,-0.75498z" fill="url(#color-13)" stroke="#000000" stroke-width="0.5" stroke-linecap="butt"/><path d="M331.8472,129.08984c0.69723,1.28121 1.6541,3.48125 0.28652,4.35624c-0.59272,0.37923 -2.83321,-0.19693 -3.70651,-0.02974c-2.1561,0.41279 -5.9502,0.80749 -7.39493,-0.22396c-0.49059,-0.35025 0.60903,-1.63454 0.35568,-2.10007c-0.99942,-1.8365 0.53174,-3.77354 3.41999,-4.32651c2.88824,-0.55297 6.03983,0.48753 7.03925,2.32403z" fill="url(#color-14)" stroke="none" stroke-width="0" stroke-linecap="butt"/><path d="M337.82084,138.00911c-0.31634,0.68002 -0.99636,0.36369 -0.99636,0.36369l-0.74595,-0.40558c-4.5639,1.6825 1.24632,4.41803 0.81514,6.73747c-0.31015,1.6684 -1.87255,1.99429 -2.76441,3.12215c-1.42774,1.80553 -2.26688,3.10374 -4.46971,4.21596c0,0 -0.01793,0.00897 -0.0494,0.02104c0.43595,0.50417 0.69811,1.16959 1.17758,1.6384c0.4669,0.45653 2.76936,0.77835 3.52061,1.33401c1.16844,0.44813 3.72313,0.90568 4.65201,1.53699c1.58427,1.07673 4.25919,5.42496 4.77293,7.32854c0.20653,0.76526 0.15442,2.27683 0.68444,2.95064c0.52308,0.66498 1.81166,-0.32648 2.53575,0.11115c0.27874,0.16847 -0.20288,0.7223 0,0.97709c0.13506,0.16962 0.40873,-0.25219 0.61907,-0.19961c1.44469,0.36117 1.35029,0.71645 1.96413,1.86016l0.07918,0.82395c0,0 0,0.75 -0.75,0.75c-0.75,0 -0.75,-0.75 -0.75,-0.75l0.07918,-0.15313c-0.35636,-0.80083 -1.64463,-0.69114 -2.30222,-1.27071c-0.24434,-0.21535 0.25479,-0.7742 0,-0.97709c-0.62015,-0.49382 -1.78888,0.55629 -2.37808,0.02594c-0.88719,-0.79858 -1.00581,-2.75486 -1.24132,-3.80376c-0.3179,-1.4158 -2.85516,-5.52745 -4.02084,-6.35066c-0.8208,-0.57965 -3.56146,-1.11023 -4.67301,-1.54844c-1.06112,-0.80783 -2.9169,-0.78887 -3.79322,-1.52828c-0.62036,-0.52344 -0.92357,-1.34225 -1.47721,-1.9358c-1.16523,-1.24925 -0.04693,-2.56585 -0.65498,-3.66694c-1.44161,-2.61057 -2.49794,-6.71746 -6.09506,-7.28884c-0.31386,1.90411 -1.93014,4.08808 -2.82274,5.4241c-1.67418,3.35 -2.48183,6.43407 -1.3802,10.20381c0.20465,0.70032 -0.16241,1.6447 0.35412,2.15999c0.24315,0.24257 0.77324,-0.03389 1.00714,0.21762c0.9282,0.99812 1.34434,3.06899 1.97756,4.26101c0.81828,1.54037 2.13241,2.79707 2.94895,4.43015c0,0 0.33541,0.67082 -0.33541,1.00623c-0.67082,0.33541 -1.00623,-0.33541 -1.00623,-0.33541c-0.81346,-1.62693 -2.07283,-2.82574 -2.91357,-4.36362c-0.53839,-0.98483 -0.91633,-3.10092 -1.68767,-3.89518c-0.29309,-0.30179 -0.9334,-0.08671 -1.19015,-0.41997c-0.55056,-0.71463 -0.34172,-1.77427 -0.59457,-2.64023c-1.21693,-4.16777 -0.33816,-7.65747 1.52266,-11.37729c1.04115,-1.56489 2.63534,-3.36628 2.53773,-4.95641c-0.11205,-0.11111 -0.19633,-0.27824 -0.19633,-0.52966c0,-0.07192 0.0069,-0.13694 0.01937,-0.19573c-0.21927,-0.48909 -0.65169,-0.94884 -1.37298,-1.36415l-0.11201,-1.37138c0,0 0,-0.75 0.75,-0.75c0.75,0 0.75,0.75 0.75,0.75l-0.11201,0.58279c1.00004,0.40547 1.54497,0.9891 1.7754,1.67262c4.3029,0.61337 6.01213,4.84644 7.56184,8.20552c0.25632,0.55558 -0.00961,1.35393 -0.04743,2.05702c2.41984,-1.19804 3.30314,-3.13218 5.21338,-4.77863c0.03707,-0.03195 1.73451,-1.56412 1.31984,-1.97106c-1.61279,-1.58273 -4.66687,-4.79287 -1.22194,-6.8948c0.55481,-0.33852 1.23995,-0.3901 1.85992,-0.58514l1.29343,0.54311c0,0 0.68002,0.31634 0.36369,0.99636z" fill="#006f2e" stroke="none" stroke-width="0.5" stroke-linecap="butt"/><path d="M346.68458,138.18132c0,0.75 -0.75,0.75 -0.75,0.75h-0.97709c-1.99375,-0.04971 -4.20068,0.48854 -6.35106,0.48854c0,0 -0.75,0 -0.75,-0.75c0,-0.75 0.75,-0.75 0.75,-0.75c2.22413,0 4.25441,-0.45195 6.35106,-0.48854h0.97709c0,0 0.75,0 0.75,0.75z" fill="#006f2e" stroke="none" stroke-width="0.5" stroke-linecap="butt"/><g stroke="none" stroke-linecap="butt"><path d="M326.57834,155.54866c-0.10971,-0.21699 -0.11541,-0.47103 -0.02087,-0.69065c0.0005,-0.004 0.00102,-0.00799 0.00153,-0.01198c-0.13278,0.24475 -0.33774,0.61625 -0.31971,0.84725c0.00589,0.07542 0.12511,0.0851 0.1861,0.12982c0.11446,0.08392 0.22572,0.17233 0.339,0.25788c-0.08865,-0.16497 -0.15012,-0.34549 -0.18603,-0.53233zM327.63478,153.3503c0.07224,-0.06494 0.1442,-0.13153 0.21615,-0.19919c-0.09412,0.02997 -0.18745,0.06205 -0.27911,0.09485c-0.1133,0.15398 -0.22359,0.30549 -0.33004,0.45807c0.1668,-0.15227 0.32764,-0.29497 0.39298,-0.35372zM337.21489,149.94518c0.15443,-0.03513 0.28045,-0.16617 0.43312,-0.19959c-0.25753,0.00621 -0.51482,0.04474 -0.78019,0.15385c-0.03626,0.01491 -0.07242,0.03018 -0.10849,0.04574c0.15861,0.02295 0.31274,0.0325 0.45555,0zM339.68806,150.44195c0.00539,0.00954 0.01055,0.01917 0.01553,0.02887c-0.00295,-0.0118 -0.00626,-0.02382 -0.00993,-0.03607c-0.01288,-0.04309 -0.04198,-0.07582 -0.07735,-0.10477c0.02556,0.03539 0.04953,0.07269 0.07175,0.11197zM338.26844,153.2236c0.00195,0.02279 0.00295,0.04562 0.003,0.06846c0.03631,-0.05905 0.06982,-0.1151 0.10005,-0.16509c-0.03434,0.03212 -0.06853,0.06464 -0.10305,0.09661zM335.71005,154.7722c0.00328,0.00308 0.00652,0.0062 0.00975,0.00934c-0.0006,-0.00399 -0.00118,-0.00797 -0.00178,-0.01196c-0.00265,0.0009 -0.00529,0.00178 -0.00796,0.00261zM331.71267,153.97288c0.13838,-0.0733 0.26416,-0.13387 0.35683,-0.17913c0.00573,-0.00279 0.01146,-0.00558 0.0172,-0.00836c0.00074,-0.00255 0.00148,-0.0051 0.00223,-0.00765l-0.21458,0.07877c-0.01617,0.00636 -0.03249,0.0122 -0.04895,0.01748c-0.0372,0.03355 -0.07474,0.06657 -0.11275,0.09888zM336.88169,151.5388c0.00299,0.00116 0.00599,0.00234 0.00897,0.00353l0.00452,-0.00287c-0.00449,-0.00023 -0.00901,-0.00044 -0.01349,-0.00065zM333.42636,150.94353c-0.08809,-0.0218 -0.16785,-0.04648 -0.23989,-0.07385c-0.03376,0.07292 -0.08255,0.14036 -0.14609,0.19749c-0.05153,0.04632 -0.10874,0.08229 -0.16912,0.10802c0.00783,0.00474 0.01562,0.00963 0.0233,0.01465c0.1696,-0.09001 0.34883,-0.17141 0.53181,-0.24631zM331.26801,150.69435c-0.01753,0.02865 -0.03994,0.05894 -0.06628,0.09054c0.00655,0.00429 0.01307,0.00859 0.01962,0.01288c0.05503,-0.03531 0.11325,-0.06328 0.1733,-0.08399c-0.00662,-0.01109 -0.01328,-0.02208 -0.02013,-0.03288c-0.02995,-0.00688 -0.05949,-0.01343 -0.08859,-0.01959c-0.00537,0.01125 -0.01133,0.02229 -0.01791,0.03304zM339.118,149.79457c-0.09199,-0.05552 -0.21473,0.01356 -0.32213,0.01088c-0.00173,-0.00005 -0.00345,-0.0001 -0.0052,-0.00013c0.19746,0.05202 0.38524,0.13156 0.54727,0.24825c-0.06276,-0.09871 -0.12238,-0.20011 -0.21994,-0.259zM335.46473,145.69159c-0.09343,-0.00363 -0.18773,-0.0056 -0.28269,-0.00576c0.01877,0.02266 0.03651,0.04785 0.05289,0.07585c0.12148,-0.01425 0.25193,-0.01047 0.39271,0.01459c-0.05591,-0.02595 -0.11075,-0.05345 -0.16292,-0.08468zM330.51804,147.03156c0.28984,-0.42184 1.00848,-1.10612 1.46747,-1.37143c1.05455,-0.60954 2.49731,-0.74786 3.68549,-0.67301c0.1024,0.05599 0.99729,0.53472 1.06677,0.61646c0.36269,0.42675 0.36606,1.00099 0.24854,1.51259c-0.01107,0.04817 -0.03331,0.09196 -0.06039,0.13384c-0.03005,0.20772 -0.10853,0.41122 -0.21392,0.60697c0.00526,0.12566 0.01622,0.25224 -0.01073,0.37355c-0.0934,0.42008 -0.24391,0.80149 -0.42391,1.16835c0.6295,-0.30336 1.13304,-0.40096 1.91313,-0.36134c0.05336,0.00271 1.16917,0.05366 1.24396,0.09467c0.2319,0.12716 0.37412,0.37428 0.55097,0.57093c0.14051,0.15626 0.34679,0.2838 0.40034,0.48701c0.21174,0.80351 -0.0393,0.83898 -0.30638,1.4201c-0.30961,0.67366 -0.64344,1.20189 -1.03851,1.82919c-0.26361,0.41858 -0.6673,1.07185 -1.17222,1.25556c-0.36226,0.13179 -0.96535,0.00274 -1.419,-0.11333c0.06228,0.1951 0.04448,0.41603 0.0952,0.61672c0.05653,0.22377 0.2722,0.43532 0.21371,0.65858c-0.06441,0.24591 -0.3976,0.33138 -0.52987,0.54845c-0.19804,0.32501 -0.19391,0.75866 -0.42857,1.0583c-0.24676,0.31508 -0.59203,0.5387 -0.88961,0.8063c-0.61438,0.55245 -1.27814,1.28784 -2.21738,1.14178c-0.42421,-0.06598 -1.33421,-0.67695 -1.49279,-1.08769c-0.10474,-0.27128 -0.07971,-0.57679 -0.09551,-0.86718c-0.00554,-0.10169 0.03229,-0.94626 0.04908,-1.17374c-0.01862,-0.0132 -0.03681,-0.02708 -0.05457,-0.04165c-0.0204,0.0352 -0.04117,0.07008 -0.06378,0.10339c-1.36689,0.90967 -2.9732,1.49084 -4.46378,0.50097c-0.12968,-0.08612 -0.98662,-0.67469 -1.03556,-0.94179c-0.11807,-0.64449 0.43898,-1.70327 0.78703,-2.22137c0.09319,-0.13873 0.22963,-0.24263 0.34578,-0.36332c-0.02197,-0.02979 -0.04156,-0.06596 -0.05763,-0.10974c-0.1265,-0.34453 0.21804,-0.47103 0.21804,-0.47103c0.09959,-0.03615 0.19988,-0.07274 0.30078,-0.10879c-0.82459,-0.83424 -1.9177,-1.84083 -1.86089,-2.98587c0.07764,-1.56453 2.11393,-2.95069 3.58664,-2.47748c0.42778,0.13746 0.70234,0.42242 0.9589,0.74551c0.13899,-0.10824 0.2977,-0.20876 0.45936,-0.29876c0.07794,-0.19633 0.12474,-0.40843 0.24383,-0.58175zM327.85781,147.83877c-0.084,0.01904 -0.16531,0.04512 -0.24451,0.07718c0.06083,-0.00261 0.12183,0.00152 0.18177,0.01239c0.02022,-0.02982 0.04115,-0.05981 0.06273,-0.08957zM328.46925,148.19202c0.06062,0.01709 0.11865,0.0479 0.17911,0.09714c0.03255,0.00107 0.06533,-0.00031 0.09825,-0.00336c-0.00671,-0.00215 -0.01278,-0.00479 -0.01796,-0.00809c-0.07064,-0.04477 -0.09556,-0.18274 -0.17892,-0.17588c-0.04311,0.00355 -0.0637,0.04369 -0.08049,0.09017zM328.53801,149.6366c-0.00113,-0.00015 -0.00226,-0.00032 -0.00339,-0.00045l0.00336,0.00166c0.00002,-0.0004 0.00002,-0.00081 0.00003,-0.00121z" fill="url(#color-15)" stroke-width="0.5"/><path d="M325.18161,155.50137c0.27291,-0.24541 0.51832,0.0275 0.51832,0.0275l0.32722,0.36389c0.22328,0.24831 0.36156,0.59301 0.64879,0.76331c0.11631,0.06896 0.27657,-0.03694 0.40565,0.00339c0.19097,0.05968 0.3521,0.19017 0.52666,0.28794c0.18008,0.10085 0.5668,0.37171 0.80763,0.35385c0.3314,-0.0246 0.58434,-0.34102 0.91001,-0.40715c0.15072,-0.03062 0.30946,0.05227 0.46074,0.02445c0.46214,-0.085 0.78821,-0.43294 1.1529,-0.6713c0.24977,-0.22399 0.49997,-0.44747 0.75143,-0.66967l0.06151,-0.006l-0.00951,-0.0218l0.46521,-0.20254c0.14236,-0.06599 0.31679,-0.03504 0.42718,0.08773c0.13554,0.15072 0.1232,0.38278 -0.02752,0.51832l-0.36389,0.3272c-0.09469,0.12461 -0.2176,0.23863 -0.41077,0.363c-0.13746,0.08849 -0.30995,0.11134 -0.45123,0.19275c-0.15322,0.138 -0.30667,0.27575 -0.46003,0.41366c0,0 -0.13411,0.12059 -0.29886,0.09869c-0.21318,0.13008 -0.44055,0.23844 -0.70589,0.29233c-0.15071,0.03062 -0.30946,-0.05227 -0.46074,-0.02445c-0.34963,0.06431 -0.62671,0.39937 -0.9818,0.4165c-0.71515,0.03451 -1.0037,-0.4894 -1.59932,-0.66899c-0.16526,-0.04982 -0.36807,0.0437 -0.51582,-0.04551c-0.09498,-0.05736 -0.69228,-0.72811 -0.87817,-0.93483l-0.32722,-0.36389c0,0 -0.24541,-0.27291 0.0275,-0.51832z" fill="#4d006e" stroke-width="0.5"/><path d="M334.3601,153.19635c0.18131,-0.31912 0.50042,-0.13781 0.50042,-0.13781l0.49727,0.28798c0.39365,0.43023 0.86574,0.81653 0.99142,1.42141c0.11956,0.57547 -0.03442,1.62184 -0.23992,2.1546c-0.05762,0.14937 -0.19614,0.26121 -0.24294,0.4143c-0.04629,0.15143 0.0316,0.32775 -0.02866,0.47416c-0.10347,0.25135 -0.27412,0.47231 -0.44721,0.68187c-0.23242,0.2814 -0.60742,0.40485 -0.91522,0.60093c-0.71436,0.4551 -1.47144,1.01809 -2.37727,0.47726c-0.21723,-0.12971 -0.34607,-0.36916 -0.51911,-0.55374c0,0 -0.24539,-0.27291 0.02752,-0.51832c0.27291,-0.24541 0.51832,0.02752 0.51832,0.02752c0.11781,0.13888 0.20267,0.31448 0.35346,0.41663c0.58817,0.39842 1.17355,-0.19502 1.60005,-0.46672c0.25015,-0.15937 0.56603,-0.2396 0.75845,-0.46532c0.11457,-0.13441 0.24381,-0.26758 0.30501,-0.43327c0.05171,-0.14001 -0.02377,-0.30467 0.02024,-0.44729c0.05419,-0.17566 0.19815,-0.31214 0.26668,-0.48272c0.17333,-0.43138 0.27801,-1.28795 0.19828,-1.74937c-0.06728,-0.3894 -0.48493,-0.70227 -0.72924,-0.98004l-0.39973,-0.22165c0,0 -0.31912,-0.18131 -0.13781,-0.50042z" fill="#6d4b00" stroke-width="0.5"/><path d="M334.91556,151.1011c-0.3665,-0.01945 -0.34705,-0.38595 -0.34705,-0.38595l0.13332,-0.48383c0.36939,-0.33216 1.05885,-1.23074 1.60457,-1.22346l0.32394,-0.29128c0.15072,-0.13554 0.38278,-0.1232 0.51832,0.02752c0.01417,0.01575 0.02671,0.03241 0.03767,0.04972c0.32688,-0.1492 0.46851,-0.2227 0.94437,-0.09543c0.1661,0.04441 0.28193,0.21221 0.4485,0.25482c0.44198,0.11305 0.99498,0.06775 1.30939,0.39833c0.04819,0.05068 0.42579,0.93083 0.47542,1.0448c0,0 0.14651,0.33651 -0.19,0.48302c-0.33651,0.14651 -0.48302,-0.19 -0.48302,-0.19c-0.12187,-0.27988 -0.15658,-0.60939 -0.34821,-0.84701c-0.20968,-0.25998 -0.77193,-0.13405 -0.96982,-0.18466c-0.16657,-0.04261 -0.28697,-0.19586 -0.4485,-0.25482c-0.27953,-0.102 -0.48669,0.07229 -0.73001,0.18221l-0.05005,-0.00555l0.00231,0.01578l-0.47755,0.06943c-0.11731,0.08991 -0.30264,0.08533 -0.4317,0.16659c-0.3716,0.23397 -0.71778,0.6518 -1.04477,0.94582l0.10887,-0.02309c0,0 -0.01945,0.36652 -0.38596,0.34707z" fill="#6d4b00" stroke-width="0.5"/><path d="M330.82331,147.34394c-0.00166,-0.07066 0.00374,-0.13915 0.03549,-0.20054c0.09651,-0.18668 0.29694,-0.29752 0.44965,-0.4419c0.01202,-0.01138 0.07284,-0.06627 0.15553,-0.14054c0.47474,-0.44197 0.95128,-1.10413 1.60899,-1.01346c-0.05537,-0.08223 -0.15808,-0.2905 0.05492,-0.48202c0.27291,-0.24541 0.51832,0.0275 0.51832,0.0275l0.03983,0.06628c0.07511,-0.0443 0.15205,-0.08518 0.23184,-0.1207c0,0 0.33651,-0.14651 0.48302,0.19c0.14651,0.33651 -0.19,0.48301 -0.19,0.48301c-0.08278,0.03502 -0.16126,0.07811 -0.23737,0.12571c-0.15469,0.10708 -0.30246,0.2279 -0.46274,0.32393c-0.02798,0.01904 -0.0562,0.03765 -0.08473,0.05566c-0.45652,0.2881 -0.85632,0.33385 -1.26291,0.70326c-0.0725,0.06586 -0.15879,0.12059 -0.24528,0.17485c-0.11862,0.10373 -0.22914,0.21166 -0.32065,0.32767c-0.03815,0.04835 -0.06715,0.10298 -0.09385,0.15916c0.00617,0.09409 0.04135,0.19451 0.01438,0.28367c-0.04976,0.16459 -0.19588,0.28697 -0.25482,0.4485c-0.12511,0.34284 0.12259,0.4164 0.19041,0.76528c0.05061,0.26034 0.01898,0.54335 0.1229,0.78658l0.29751,0.33086c0.13554,0.15072 0.1232,0.38278 -0.02752,0.51832c-0.12989,0.11678 -0.32013,0.1238 -0.45701,0.02707l-0.55121,-0.37183l0.00889,-0.01317c-0.02936,-0.01732 -0.05799,-0.03602 -0.08578,-0.05634c-0.53147,-0.38855 -0.17646,-0.66746 -0.2605,-1.10316c-0.10482,-0.54356 -0.52737,-0.51558 -0.27451,-1.24507c0.08383,-0.24184 0.38361,-0.34237 0.54438,-0.54153c0.01785,-0.02211 0.03543,-0.04448 0.05282,-0.06704z" fill="#4d006e" stroke-width="0.5"/><path d="M325.58968,149.65099c-0.03258,-0.02619 -0.06496,-0.05252 -0.09327,-0.08152c0,0 -0.24539,-0.27291 0.02752,-0.51832c0.27291,-0.24541 0.51832,0.0275 0.51832,0.0275c0.12887,0.15117 0.30495,0.27241 0.38661,0.45351c0.08851,0.19627 0.04745,0.42988 0.10529,0.63726c0.04937,0.17708 0.17955,0.32767 0.2141,0.50822c0.02542,0.13281 -0.0856,0.27657 -0.03957,0.40372c0.04633,0.128 0.21554,0.17362 0.28986,0.28764c0.05875,0.09014 0.11381,0.20037 0.17117,0.31665c0.13382,0.10426 0.27223,0.21032 0.41543,0.33274c0.09998,0.08547 0.12606,0.25257 0.24455,0.30963c0.12183,0.05865 0.27657,-0.03694 0.40564,0.00339c0.26305,0.0822 0.47144,0.28902 0.71144,0.42478c0.07392,-0.02256 0.14812,-0.04246 0.22317,-0.03849c0.1325,0.00704 0.25801,0.05653 0.38425,0.10164l0.53394,-0.14704c0.13166,-0.03925 0.28008,-0.00261 0.37804,0.10634c0.13554,0.15072 0.1232,0.38278 -0.02752,0.51832c-0.03241,0.02915 -0.06857,0.05145 -0.10674,0.06703l-0.46511,0.20248l-0.02318,-0.05324l-0.09394,0.08258c-0.04267,-0.01001 -0.08513,-0.02159 -0.12748,-0.03381l-0.03481,0.00957l-0.00529,-0.01925c-0.01616,0.01183 -0.03362,0.02205 -0.05263,0.03029c-0.26776,0.11604 -0.50213,0.04485 -0.72291,-0.08132c-0.10232,0.02471 -0.20434,0.04559 -0.30598,0.02821c-0.1927,-0.03294 -0.33593,-0.20375 -0.51792,-0.27514c-0.20045,-0.07861 -0.43675,-0.06336 -0.62254,-0.17215c-0.33739,-0.19754 -0.54343,-0.53731 -0.72877,-0.87363c-0.50962,-0.39122 -1.06716,-0.87381 -1.07145,-1.50957c-0.00105,-0.15506 0.1701,-0.25918 0.2558,-0.38858c-0.00008,-0.00052 -0.00016,-0.00103 -0.00024,-0.00153l-0.23437,-0.1574c0,0 -0.23371,-0.2599 0.00865,-0.50052z" fill="#4d006e" stroke-width="0.5"/><path d="M334.10895,154.3292c-0.90436,0.81321 -2.34556,0.68499 -3.219,-0.28635c-0.87344,-0.97136 -0.84836,-2.418 0.056,-3.23122c0.90436,-0.81321 2.34554,-0.685 3.21898,0.28634c0.87344,0.97136 0.84838,2.41802 -0.05597,3.23122z" fill="#f5df26" stroke-width="0"/></g><path d="M292.19487,144.53238l12.70211,1.46563l-0.97708,5.37397l-15.14483,-2.44271z" fill="none" stroke="#000000" stroke-width="0.5" stroke-linecap="round"/><path d="M300.98865,151.37197l5.86251,0.48855v5.37397l-14.65629,-1.95417l0.97708,-5.37397" fill="none" stroke="#000000" stroke-width="0.5" stroke-linecap="round"/><path d="M372.80444,144.53239v3.90834l-6.35106,1.95417l-0.97708,-6.35106z" fill="none" stroke="#000000" stroke-width="0.5" stroke-linecap="round"/><path d="M374.27007,154.30324l-1.46562,-5.86252h6.8396l0.48854,3.90834z" fill="none" stroke="#000000" stroke-width="0.5" stroke-linecap="round"/><path d="M278.25421,157.72303c0,-0.34777 0.16126,-0.53428 0.33423,-0.63431c-0.03549,-2.02329 -0.23367,-3.99233 -1.12754,-5.22492c-0.62006,-0.85503 -2.62188,-0.63066 -3.43352,-0.7245c-3.7516,-0.43378 -2.70304,-1.81101 0.18279,-1.48882c1.30714,0.14593 3.41491,-0.0015 4.38317,1.22967c1.14999,1.46224 1.38418,3.7676 1.43701,6.09288c0.39205,0 0.80346,0 1.1818,0c-0.01707,-0.0668 -0.02669,-0.14213 -0.02669,-0.22709c0,-0.75 0.75,-0.75 0.75,-0.75c1.05944,0 4.01367,-0.1377 4.83542,0.63011c0.82855,0.77415 1.14213,1.96865 1.56205,3.02196c0.23042,0.57797 -0.21133,1.56112 0.34789,1.83391c2.36372,1.15303 3.78526,2.7236 5.25013,5.17001l0.84938,0.10566c0,0 0.73629,0.14275 0.59354,0.87904c-0.14275,0.73629 -0.87904,0.59354 -0.87904,0.59354l-1.39486,-0.32945c-1.04826,-1.47217 -2.4019,-4.2647 -4.12337,-5.0879c-0.32651,-0.15614 -0.79684,0.16488 -1.08437,-0.05492c-1.35094,-1.03271 -0.92831,-3.7643 -1.99841,-4.91499c-0.3297,-0.35453 -2.13616,-0.36752 -3.23734,-0.35574c0.0185,0.06896 0.02899,0.14716 0.02899,0.23585c0,0.75 -0.75,0.75 -0.75,0.75c-0.62962,0 -1.25924,0 -1.88886,0c0.00573,1.5017 0.00168,2.93589 0.19347,4.07211c-0.00987,0.96564 -0.14693,1.97096 -0.56505,2.84144l-1.64791,0.41459c0,0 -0.75,0 -0.75,-0.75c0,-0.75 0.75,-0.75 0.75,-0.75l0.30627,0.41459c0.32431,-0.61473 0.42186,-1.34902 0.41204,-2.04399c-0.19853,-1.14938 -0.1586,-2.70203 -0.1512,-4.31112c-0.17514,-0.0992 -0.34002,-0.28597 -0.34002,-0.63762z" fill="#006f2e" stroke="none" stroke-width="0.5" stroke-linecap="butt"/><g stroke="none" stroke-linecap="butt"><path d="M277.78463,161.79618c-0.14708,-0.0662 -0.25595,-0.1949 -0.29875,-0.34763c-0.00141,-0.00227 -0.00281,-0.00455 -0.0042,-0.00682c0.03355,0.18163 0.08271,0.45877 0.18833,0.57043c0.03448,0.03645 0.10003,-0.00826 0.15015,-0.01062c0.09405,-0.00443 0.18831,-0.00521 0.28243,-0.0083c-0.11453,-0.04815 -0.22151,-0.11565 -0.31795,-0.19707zM277.41301,160.22148c0.01019,-0.06363 0.01955,-0.12799 0.02846,-0.1929c-0.03606,0.05471 -0.07084,0.11018 -0.10445,0.16532c0.00575,0.12668 0.01203,0.25084 0.02073,0.37395c0.02256,-0.14811 0.04604,-0.2888 0.05526,-0.34636zM280.93584,154.47002c0.06503,-0.08252 0.0754,-0.20267 0.14024,-0.28357c-0.13028,0.11059 -0.24695,0.23775 -0.33837,0.4047c-0.01249,0.02281 -0.02478,0.04576 -0.0369,0.06883c0.0914,-0.0543 0.17491,-0.11363 0.23503,-0.18995zM282.41897,153.69508c0.00676,0.00267 0.01344,0.00549 0.02005,0.00842c-0.00644,-0.00486 -0.01316,-0.00968 -0.02016,-0.01447c-0.02461,-0.01686 -0.05327,-0.02161 -0.0836,-0.0218c0.02795,0.0076 0.05587,0.01685 0.08371,0.02785zM282.84641,155.72215c0.01051,0.01094 0.02055,0.02231 0.0301,0.03407c-0.00589,-0.04561 -0.01198,-0.0885 -0.01722,-0.12689c-0.00433,0.03089 -0.0084,0.06192 -0.01288,0.09281zM282.17219,157.58791c0.00298,0.00023 0.00595,0.00048 0.00893,0.00076c-0.00197,-0.00181 -0.00393,-0.00362 -0.0059,-0.00543c-0.00099,0.00157 -0.00199,0.00312 -0.00301,0.00467zM279.77653,158.84232c0.04083,-0.09552 0.08047,-0.17922 0.10941,-0.24121c0.00179,-0.00383 0.00358,-0.00766 0.00539,-0.01149c-0.00068,-0.00162 -0.00136,-0.00325 -0.00204,-0.00487l-0.07786,0.13012c-0.00569,0.01002 -0.01167,0.01984 -0.01797,0.02943c-0.0052,0.03282 -0.0108,0.06551 -0.01694,0.09803zM281.42841,155.43116c0.00202,-0.00065 0.00407,-0.00129 0.0061,-0.00192l0.00114,-0.00337c-0.00241,0.00175 -0.00483,0.00353 -0.00723,0.00529zM279.39752,156.56482c-0.05454,0.02548 -0.10598,0.04601 -0.15456,0.06193c0.01298,0.0517 0.01594,0.10684 0.00698,0.16281c-0.00727,0.04538 -0.02179,0.0878 -0.04221,0.12625c0.00602,-0.00081 0.01208,-0.00154 0.01813,-0.00216c0.04997,-0.11716 0.1085,-0.23389 0.17167,-0.34883zM278.18003,157.33623c0.0029,0.02209 0.00397,0.04706 0.00356,0.07435c0.00517,-0.00052 0.01033,-0.00102 0.0155,-0.00154c0.01367,-0.04117 0.03204,-0.07987 0.05439,-0.11559c-0.00804,-0.00296 -0.01606,-0.00585 -0.02409,-0.00857c-0.01832,0.00894 -0.03629,0.01788 -0.05388,0.02683c0.00192,0.00805 0.00345,0.01622 0.00453,0.02451zM281.8549,153.59877c-0.07061,0.00971 -0.10513,0.09653 -0.16166,0.13993c-0.00091,0.00069 -0.00182,0.00139 -0.00273,0.0021c0.12356,-0.0555 0.25361,-0.09275 0.38587,-0.10012c-0.07354,-0.02475 -0.14658,-0.05221 -0.22147,-0.04192zM278.25926,153.00524c-0.04972,0.03708 -0.09919,0.07539 -0.14825,0.1149c0.01913,0.00386 0.03879,0.00947 0.05891,0.01708c0.05673,-0.05801 0.12561,-0.11045 0.20869,-0.15622c-0.03966,0.00992 -0.07942,0.0186 -0.11936,0.02424zM276.26585,155.7592c-0.02636,-0.3385 0.05908,-0.99119 0.18526,-1.31945c0.28992,-0.7542 0.9766,-1.42716 1.62083,-1.88398c0.07618,-0.01381 0.73749,-0.13997 0.80742,-0.12676c0.36506,0.06894 0.60625,0.3638 0.75894,0.67676c0.01438,0.02947 0.02116,0.06133 0.02465,0.09423c0.07111,0.1197 0.11547,0.25742 0.14272,0.40235c0.05511,0.06264 0.11354,0.12338 0.15022,0.1972c0.12698,0.25567 0.20836,0.51522 0.26847,0.77954c0.19828,-0.419 0.41738,-0.67931 0.83637,-0.98415c0.02866,-0.02085 0.62559,-0.45983 0.68127,-0.46985c0.17267,-0.03109 0.34908,0.0371 0.52232,0.06482c0.13764,0.02203 0.29726,0.00182 0.40962,0.08433c0.44429,0.32626 0.32956,0.44924 0.43407,0.86042c0.12116,0.47666 0.16918,0.88839 0.22693,1.37676c0.03853,0.32588 0.10265,0.83125 -0.08125,1.13657c-0.13195,0.21904 -0.49691,0.40394 -0.77936,0.53321c0.11349,0.07469 0.19642,0.1961 0.30627,0.27849c0.12247,0.09187 0.32196,0.11109 0.38487,0.25067c0.06931,0.15373 -0.06696,0.33676 -0.04469,0.50391c0.03334,0.25026 0.2163,0.47227 0.22017,0.72471c0.00407,0.26545 -0.08082,0.52479 -0.12277,0.78694c-0.08662,0.54121 -0.12244,1.19738 -0.66792,1.51367c-0.24637,0.14285 -0.97063,0.20707 -1.22371,0.06128c-0.16715,-0.09629 -0.28163,-0.26435 -0.41087,-0.40758c-0.04526,-0.05016 -0.3779,-0.50167 -0.46409,-0.62603c-0.01511,0.00096 -0.03028,0.00138 -0.04552,0.00126c0.00415,0.02667 0.00798,0.05332 0.0102,0.07994c-0.32591,1.03928 -0.91232,2.00891 -2.09411,2.11974c-0.10281,0.00964 -0.79035,0.0633 -0.92697,-0.0541c-0.32966,-0.28328 -0.48374,-1.06181 -0.5202,-1.47424c-0.00977,-0.11043 0.0173,-0.22093 0.0269,-0.33163c-0.02376,-0.00621 -0.04894,-0.0167 -0.07549,-0.03259c-0.20892,-0.12501 -0.08392,-0.33393 -0.08392,-0.33393c0.03631,-0.06018 0.07279,-0.12087 0.10982,-0.18155c-0.77329,-0.08658 -1.75697,-0.15011 -2.20511,-0.76456c-0.61231,-0.83956 -0.13972,-2.4038 0.81742,-2.77374c0.27802,-0.10746 0.53849,-0.07492 0.80558,-0.01521c0.02657,-0.1138 0.06654,-0.23184 0.11242,-0.34568c-0.04166,-0.13379 -0.10595,-0.26273 -0.11678,-0.40181zM275.22992,157.28492c-0.0354,0.04485 -0.06647,0.09221 -0.09397,0.14177c0.03029,-0.02671 0.06349,-0.05002 0.09895,-0.0694c-0.002,-0.02382 -0.00371,-0.04802 -0.00498,-0.07237zM275.69269,157.21221c0.0384,-0.01646 0.08119,-0.02476 0.13291,-0.02457c0.01724,-0.01302 0.03358,-0.0274 0.04929,-0.0427c-0.00436,0.00169 -0.0086,0.00286 -0.01264,0.00332c-0.05511,0.00636 -0.1255,-0.05444 -0.16565,-0.01614c-0.02076,0.01981 -0.01465,0.0491 -0.00393,0.08008zM276.33052,157.92884c-0.00064,0.0004 -0.0013,0.00077 -0.00194,0.00118l0.00243,-0.00054c-0.00016,-0.00022 -0.00033,-0.00042 -0.00049,-0.00064z" fill="url(#color-16)" stroke-width="0.5"/><path d="M277.04429,162.35418c0.03847,-0.24041 0.27888,-0.20194 0.27888,-0.20194l0.32055,0.0513c0.21874,0.03501 0.43381,0.15519 0.65301,0.12329c0.08876,-0.01292 0.12729,-0.13438 0.2107,-0.1674c0.12341,-0.04884 0.26095,-0.0487 0.39178,-0.07105c0.13496,-0.02306 0.44742,-0.04457 0.56422,-0.1542c0.16072,-0.15087 0.15928,-0.41959 0.29973,-0.58951c0.065,-0.07864 0.18146,-0.10207 0.2479,-0.1795c0.20299,-0.23656 0.22614,-0.55203 0.3149,-0.82707c0.03546,-0.21971 0.07137,-0.43934 0.10845,-0.65883l0.02923,-0.02874l-0.014,-0.00729l0.15556,-0.29848c0.04593,-0.09341 0.14883,-0.15017 0.25698,-0.13286c0.13277,0.02125 0.22317,0.14611 0.20193,0.27889l-0.0513,0.32055c0.00311,0.10377 -0.01277,0.21385 -0.06057,0.35856c-0.03402,0.10297 -0.11348,0.18669 -0.15243,0.2876c-0.02151,0.13509 -0.04324,0.27014 -0.06486,0.40523c0,0 -0.01891,0.11814 -0.11304,0.17553c-0.05575,0.156 -0.12787,0.30671 -0.2423,0.44515c-0.06499,0.07864 -0.18146,0.10207 -0.2479,0.1795c-0.15357,0.17897 -0.15681,0.46737 -0.33287,0.62427c-0.35458,0.316 -0.72191,0.16602 -1.10409,0.32172c-0.10604,0.04321 -0.17167,0.17602 -0.2851,0.1916c-0.07292,0.01001 -0.66077,-0.08699 -0.84287,-0.11614l-0.32055,-0.0513c0,0 -0.24041,-0.03848 -0.20193,-0.27889z" fill="#4d006e" stroke-width="0.5"/><path d="M280.81863,157.33777c-0.03952,-0.24024 0.20072,-0.27976 0.20072,-0.27976l0.37664,-0.05877c0.38249,0.05783 0.78713,0.06028 1.10419,0.31995c0.30164,0.24705 0.6585,0.85111 0.77463,1.21166c0.03256,0.10109 0.00773,0.21655 0.04741,0.31505c0.03926,0.09743 0.15296,0.15592 0.18292,0.25659c0.05143,0.17282 0.05551,0.35798 0.05359,0.53827c-0.00257,0.24209 -0.14458,0.46215 -0.22162,0.69166c-0.17879,0.53267 -0.33464,1.13882 -1.0275,1.23749c-0.16616,0.02366 -0.33248,-0.04616 -0.49872,-0.06924c0,0 -0.2404,-0.03848 -0.20193,-0.27889c0.03847,-0.24041 0.27889,-0.20193 0.27889,-0.20193c0.11869,0.02252 0.2357,0.07774 0.35608,0.06757c0.46959,-0.03969 0.52415,-0.58995 0.6309,-0.90797c0.06261,-0.18653 0.19212,-0.35963 0.19728,-0.55633c0.00307,-0.11712 0.01422,-0.23971 -0.0233,-0.35072c-0.0317,-0.09379 -0.1393,-0.14728 -0.17607,-0.23921c-0.04528,-0.11322 -0.02792,-0.24367 -0.06369,-0.36025c-0.09045,-0.29484 -0.39361,-0.78042 -0.62714,-0.98523c-0.19708,-0.17285 -0.54302,-0.16012 -0.78488,-0.20156l-0.29866,0.05232c0,0 -0.24024,0.03952 -0.27976,-0.20072z" fill="#6d4b00" stroke-width="0.5"/><path d="M280.23152,156.02516c-0.1972,0.14279 -0.33998,-0.05441 -0.33998,-0.05441l-0.13296,-0.30522c0.05208,-0.32539 0.0331,-1.07649 0.31769,-1.30028l0.04568,-0.28535c0.02125,-0.13277 0.14612,-0.22318 0.27889,-0.20193c0.01388,0.00222 0.02729,0.00559 0.04017,0.00995c0.10643,-0.21328 0.14886,-0.31026 0.44744,-0.44301c0.10422,-0.04634 0.23394,-0.00807 0.33765,-0.05554c0.27517,-0.12597 0.54159,-0.37993 0.84164,-0.34047c0.04599,0.00605 0.60781,0.3027 0.68094,0.34081c0,0 0.21591,0.11253 0.10338,0.32843c-0.11253,0.21591 -0.32843,0.10338 -0.32843,0.10338c-0.17958,-0.09358 -0.33488,-0.24911 -0.53283,-0.2918c-0.21658,-0.04671 -0.45416,0.25271 -0.57736,0.30911c-0.1037,0.04747 -0.22972,0.01861 -0.33765,0.05555c-0.18675,0.06393 -0.22095,0.24023 -0.30066,0.3984l-0.02814,0.018l0.00777,0.00718l-0.21743,0.23495c-0.02304,0.0953 -0.12056,0.17021 -0.15327,0.26595c-0.09416,0.27566 -0.09854,0.63558 -0.14464,0.92362l0.04654,-0.05731c0,0 0.14279,0.1972 -0.05441,0.34z" fill="#6d4b00" stroke-width="0.5"/><path d="M276.55359,155.79308c-0.03032,-0.03576 -0.05609,-0.07335 -0.06531,-0.11827c-0.02805,-0.13656 0.02914,-0.27732 0.04772,-0.41548c0.00146,-0.01089 0.00995,-0.06456 0.02164,-0.13736c0.06065,-0.42598 0.0304,-0.96632 0.40754,-1.19378c-0.06286,-0.01934 -0.20269,-0.08396 -0.17265,-0.27159c0.03847,-0.24041 0.27888,-0.20194 0.27888,-0.20194l0.04819,0.01759c0.02028,-0.05417 0.04293,-0.10735 0.06928,-0.15894c0,0 0.11253,-0.21591 0.32843,-0.10338c0.21591,0.11253 0.10337,0.32843 0.10337,0.32843c-0.0281,0.05258 -0.05063,0.10754 -0.07005,0.16383c-0.03516,0.11975 -0.06102,0.2437 -0.10367,0.36007c-0.0065,0.02149 -0.01329,0.04286 -0.0205,0.06405c-0.11541,0.339 -0.30259,0.5293 -0.35833,0.88943c-0.00994,0.06421 -0.03164,0.12843 -0.05364,0.19249c-0.01795,0.10298 -0.02996,0.20475 -0.0288,0.30276c0.00048,0.04085 0.00829,0.08113 0.01795,0.12125c0.04241,0.04597 0.10244,0.08311 0.1257,0.14036c0.04296,0.10566 0.0186,0.22973 0.05555,0.33765c0.07841,0.22905 0.23688,0.16372 0.41733,0.31543c0.13467,0.11321 0.23635,0.27242 0.39139,0.35457l0.29145,0.04665c0.13277,0.02125 0.22318,0.14612 0.20193,0.27889c-0.01832,0.11441 -0.11355,0.19736 -0.2245,0.20452l-0.43943,0.038l-0.0009,-0.0105c-0.02237,0.00331 -0.04494,0.0056 -0.06775,0.0067c-0.43621,0.02115 -0.36936,-0.27078 -0.59439,-0.46053c-0.28073,-0.23673 -0.48706,-0.0461 -0.66079,-0.52791c-0.05759,-0.15973 0.05515,-0.33659 0.05506,-0.50638c-0.00001,-0.01885 -0.00027,-0.03772 -0.0007,-0.05661z" fill="#4d006e" stroke-width="0.5"/><path d="M274.81539,159.16564c-0.02773,0.00007 -0.05541,-0.00001 -0.08211,-0.00317c0,0 -0.2404,-0.03848 -0.20193,-0.27889c0.03847,-0.24041 0.27888,-0.20193 0.27888,-0.20193c0.12952,0.02426 0.27092,0.01339 0.38856,0.07277c0.1275,0.06435 0.20373,0.202 0.32004,0.28488c0.09931,0.07077 0.22926,0.09419 0.32237,0.17293c0.06849,0.05792 0.07116,0.17838 0.14792,0.22479c0.07728,0.04672 0.1836,-0.00029 0.26949,0.02754c0.06789,0.02201 0.14226,0.05592 0.22034,0.09199c0.11252,-0.00201 0.22815,-0.005 0.35307,-0.00156c0.08722,0.00241 0.17036,0.07775 0.25528,0.05777c0.08731,-0.02054 0.12729,-0.13438 0.2107,-0.16739c0.16999,-0.06728 0.36374,-0.04746 0.54417,-0.0775c0.02873,-0.04246 0.05872,-0.08367 0.09909,-0.11291c0.07129,-0.05162 0.15669,-0.07842 0.24063,-0.10778l0.21416,-0.2985c0.05156,-0.07515 0.14341,-0.11813 0.23938,-0.10277c0.13277,0.02125 0.22317,0.14612 0.20193,0.27889c-0.00457,0.02855 -0.01392,0.05514 -0.02712,0.07909l-0.15554,0.2984l-0.03416,-0.01781l-0.01403,0.08178c-0.02619,0.01263 -0.05293,0.02436 -0.07987,0.03571l-0.01397,0.01945l-0.01076,-0.00773c-0.0034,0.01284 -0.00815,0.02539 -0.01452,0.03757c-0.08976,0.17152 -0.24036,0.23252 -0.40688,0.25948c-0.04249,0.05541 -0.08641,0.10872 -0.1461,0.14214c-0.11315,0.06336 -0.25828,0.03495 -0.38193,0.074c-0.1362,0.04302 -0.25175,0.14943 -0.39297,0.17077c-0.25644,0.03876 -0.50442,-0.05062 -0.74028,-0.14686c-0.42606,0.01065 -0.91493,-0.00585 -1.18224,-0.33207c-0.0652,-0.07956 -0.02031,-0.20465 -0.03005,-0.30714c-0.00026,-0.00023 -0.00052,-0.00047 -0.00077,-0.00069l-0.18655,0.01652c0,0 -0.22895,-0.03664 -0.20424,-0.26184z" fill="#4d006e" stroke-width="0.5"/><path d="M281.16141,158.02696c-0.1275,0.79666 -0.92452,1.33144 -1.78018,1.1945c-0.85566,-0.13695 -1.44594,-0.89378 -1.31844,-1.69043c0.1275,-0.79666 0.9245,-1.33144 1.78016,-1.1945c0.85566,0.13695 1.44595,0.89378 1.31845,1.69042z" fill="#f5df26" stroke-width="0"/></g><path d="M346.8001,132.88272c0,1.09813 -4.16309,0.8699 -4.16309,0.8699c0,0 -3.91455,0.3525 -3.91455,-0.74563c0,-0.6715 0.53915,-2.13407 1.58516,-2.78292c0.66458,-0.41225 1.75609,-0.19959 2.32939,-0.19959c1.47561,0 4.16309,1.76011 4.16309,2.85824z" fill="url(#color-17)" stroke="none" stroke-width="0" stroke-linecap="butt"/></g></g></svg>