<svg version="1.1" xmlns="http://www.w3.org/2000/svg" xmlns:xlink="http://www.w3.org/1999/xlink" width="433.12149" height="338.06832" viewBox="0,0,433.12149,338.06832"><defs><linearGradient x1="331.57107" y1="-38.94663" x2="331.57107" y2="213.84508" gradientUnits="userSpaceOnUse" id="color-1"><stop offset="0" stop-color="#00f5e9"/><stop offset="1" stop-color="#f5a131"/></linearGradient><linearGradient x1="325.3562" y1="92.55631" x2="325.3562" y2="261.51361" gradientUnits="userSpaceOnUse" id="color-2"><stop offset="0" stop-color="#9c831f"/><stop offset="1" stop-color="#73571c"/></linearGradient><linearGradient x1="335.50547" y1="179.40531" x2="335.50547" y2="269.84527" gradientUnits="userSpaceOnUse" id="color-3"><stop offset="0" stop-color="#c1b72f"/><stop offset="1" stop-color="#b39724"/></linearGradient><radialGradient cx="467.12523" cy="-12.22102" r="59.77744" gradientUnits="userSpaceOnUse" id="color-4"><stop offset="0" stop-color="#fffb79"/><stop offset="1" stop-color="#fffb79" stop-opacity="0"/></radialGradient><radialGradient cx="470.06999" cy="-6.75932" r="59.77746" gradientUnits="userSpaceOnUse" id="color-5"><stop offset="0" stop-color="#fffb79"/><stop offset="1" stop-color="#fffb79" stop-opacity="0"/></radialGradient><radialGradient cx="469.23932" cy="-2.55609" r="59.77746" gradientUnits="userSpaceOnUse" id="color-6"><stop offset="0" stop-color="#fffb79"/><stop offset="1" stop-color="#fffb79" stop-opacity="0"/></radialGradient><radialGradient cx="469.66713" cy="-0.8698" r="59.77745" gradientUnits="userSpaceOnUse" id="color-7"><stop offset="0" stop-color="#fffb79"/><stop offset="1" stop-color="#fffb79" stop-opacity="0"/></radialGradient><radialGradient cx="470.09494" cy="-1.70048" r="59.77746" gradientUnits="userSpaceOnUse" id="color-8"><stop offset="0" stop-color="#fffb79"/><stop offset="1" stop-color="#fffb79" stop-opacity="0"/></radialGradient><radialGradient cx="468.0058" cy="-5.04809" r="59.77746" gradientUnits="userSpaceOnUse" id="color-9"><stop offset="0" stop-color="#fffb79"/><stop offset="1" stop-color="#fffb79" stop-opacity="0"/></radialGradient><radialGradient cx="468.43362" cy="-0.84486" r="59.77746" gradientUnits="userSpaceOnUse" id="color-10"><stop offset="0" stop-color="#fffb79"/><stop offset="1" stop-color="#fffb79" stop-opacity="0"/></radialGradient></defs><g transform="translate(-108.79546,68.22305)"><g data-paper-data="{&quot;isPaintingLayer&quot;:true}" fill-rule="nonzero" stroke="none" stroke-linecap="butt" stroke-linejoin="miter" stroke-miterlimit="10" stroke-dasharray="" stroke-dashoffset="0" style="mix-blend-mode: normal"><path d="M133.2228,213.84508v-252.79171h396.69655v252.79171z" fill="url(#color-1)" stroke-width="0"/><path d="M134.82095,261.51361l-26.02548,-112.65148c0,0 7.20154,-38.58041 13.35867,-47.35066c2.74915,-3.91591 22.52663,-3.76464 22.52663,-3.76464c0,0 -9.88494,60.00219 1.95442,69.64817c2.07914,1.69395 10.49298,20.38469 15.27084,19.45284c6.28447,-1.2257 9.15731,-22.58139 11.76212,-23.39947c7.96385,-2.50116 20.02535,-67.20428 20.02535,-67.20428c0,0 20.52845,-2.87115 28.46859,-2.5233c4.61274,0.20208 14.88197,4.42248 14.88197,4.42248l39.84788,-1.35l24.7447,0.91803l37.75252,-6.57511l3.39933,19.49766l-6.24342,25.48229l8.05826,16.28677c0,0 4.28743,19.71179 12.4305,21.47816c4.20518,0.91217 14.99826,13.95883 20.34778,9.49266c4.55917,-3.80632 3.65373,-25.08101 7.71173,-25.99523c12.71582,-2.86474 23.25612,-41.05668 23.25612,-41.05668l-5.5777,-43.10849c0,0 15.43326,3.53658 22.91818,4.25019c4.08094,0.38907 10.90013,-2.54546 16.56266,-2.42114c7.99753,0.17558 14.47235,3.31479 14.47235,3.31479c0,0 17.80505,4.62805 33.673,5.34215c13.05913,0.5877 24.29726,-3.00249 27.62279,-0.79294c15.37716,10.21689 23.89622,64.66718 23.89622,64.66718v113.94007z" data-paper-data="{&quot;index&quot;:null}" fill="url(#color-2)" stroke-width="0"/><path d="M131.96911,269.84527v-79.9751c0,0 -2.89661,18.04272 55.92459,15.1961c38.33082,-1.855 135.90392,-25.0371 163.99311,-25.0371c23.40365,0 104.35256,-1.5114 134.82478,0.17076c52.41543,2.89349 52.35351,9.67024 52.35351,9.67024v79.9751z" data-paper-data="{&quot;index&quot;:null}" fill="url(#color-3)" stroke-width="0"/><path d="M467.12525,43.78101c-33.01417,0 -59.77744,-25.07296 -59.77744,-56.00203c0,-30.92907 26.76328,-56.00203 59.77745,-56.00203c33.01417,0 59.77745,25.07296 59.77745,56.00203c0,30.92907 -26.76328,56.00203 -59.77745,56.00203z" fill="url(#color-4)" stroke-width="0"/><path d="M529.84748,-6.75932c0,30.92907 -26.76329,56.00203 -59.77746,56.00203c-33.01419,0 -59.77746,-25.07296 -59.77746,-56.00203c0,-30.92907 26.76328,-56.00203 59.77745,-56.00203c33.01417,0 59.77745,25.07296 59.77745,56.00203z" fill="url(#color-5)" stroke-width="0"/><path d="M529.01681,-2.55609c0,30.92907 -26.76329,56.00203 -59.77746,56.00203c-33.01419,0 -59.77746,-25.07296 -59.77746,-56.00203c0,-30.92906 26.76328,-56.00203 59.77745,-56.00203c33.01417,0 59.77744,25.07297 59.77744,56.00203z" fill="url(#color-6)" stroke-width="0"/><path d="M529.44462,-0.8698c0,30.92907 -26.76329,56.00203 -59.77746,56.00203c-33.01419,0 -59.77746,-25.07296 -59.77746,-56.00203c0,-30.92906 26.76328,-56.00203 59.77745,-56.00203c33.01417,0 59.77744,25.07296 59.77744,56.00203z" fill="url(#color-7)" stroke-width="0"/><path d="M529.87241,-1.70048c0,30.92907 -26.76329,56.00203 -59.77746,56.00203c-33.01419,0 -59.77746,-25.07296 -59.77746,-56.00203c0,-30.92906 26.76327,-56.00202 59.77744,-56.00202c33.01417,0 59.77745,25.07296 59.77745,56.00203z" fill="url(#color-8)" stroke-width="0"/><path d="M527.78328,-5.04809c0,30.92907 -26.76329,56.00203 -59.77746,56.00203c-33.01419,0 -59.77746,-25.07296 -59.77746,-56.00203c0,-30.92906 26.76328,-56.00202 59.77745,-56.00202c33.01417,0 59.77744,25.07296 59.77744,56.00203z" fill="url(#color-9)" stroke-width="0"/><path d="M528.21109,-0.84486c0,30.92907 -26.76329,56.00203 -59.77746,56.00203c-33.01419,0 -59.77746,-25.07296 -59.77746,-56.00203c0,-30.92906 26.76328,-56.00203 59.77745,-56.00203c33.01417,0 59.77744,25.07297 59.77744,56.00203z" fill="url(#color-10)" stroke-width="0"/><path d="M222.79074,199.32205c0.0361,0.1764 0.069,0.3522 0.0982,0.5275c0.2912,1.7458 0.072,3.5712 -0.047,5.3778c0.0172,0.069 0.0329,0.1384 0.047,0.2081c0.2813,1.3867 0.3322,2.8789 0.2467,4.3793c0.2564,1.0452 0.5772,2.0816 0.5821,3.1513c0.0266,5.8153 -0.9938,11.7895 -7.8092,11.8915c-1.1996,0 -2.4242,-0.2878 -3.5987,-0.0406c-2.8296,0.5956 -5.2633,2.21 -6.4757,-1.7214c-1.3969,-3.1057 -0.2029,-5.8384 -0.8493,-8.9828c-0.2289,-1.1134 -0.398,-2.2387 -0.5224,-3.3735c-0.4132,-0.3622 -0.806,-0.7239 -0.9809,-1.1824c-0.0672,-0.1761 -0.0966,-1.2032 -0.1088,-2.3193c-0.737,0.2312 -1.4642,0.6966 -2.104,0.8217c-4.5621,0.8923 -9.8182,0.2423 -13.8401,-1.8418c-3.3834,-3.4235 -4.1821,-8.6361 -2.0419,-13.0819c0.3378,-0.7016 1.8158,-3.8221 2.345,-3.9154c6.5452,-1.1533 2.9969,4.1014 5.5779,6.7129c2.187,2.2129 6.8437,2.3946 9.6358,1.99c0.3792,-0.0549 0.8006,-0.2865 1.209,-0.4905c-0.0293,-3.5577 -0.4553,-7.4845 0.0128,-10.9855c0.2074,-1.5507 0.7336,-3.0638 0.7777,-4.6279c-0.0003,-3.2341 0.309,-5.8444 0.8038,-8.9693c0.5488,-3.4665 0.0679,-5.896 1.7203,-9.2398c0.7352,-1.4878 0.6734,-3.6207 2.0418,-4.5424c2.8336,-1.9085 3.1731,0.0074 5.165,0.5521c0.6531,0.1786 1.473,-0.215 2.0213,0.1861c1.1891,0.8698 1.6924,3.4675 2.1745,4.7002c1.8972,4.8505 1.6915,9.637 1.6915,14.9445c0,1.2695 -0.0703,2.6031 -0.1402,3.9547c0.6075,-0.0361 1.3152,0.0121 2.1394,0.1541c0.4769,0.0821 5.1968,1.9315 5.4773,0.6792c0.1422,-0.6351 -0.2935,-1.303 -0.1839,-1.9447c0.3253,-1.9049 1.2229,-2.6936 0.7886,-4.8885c-0.2752,-1.3909 -1.2135,-2.5765 -1.5672,-3.9491c-0.5382,-2.0888 -0.3014,-4.4228 -0.7987,-6.4247c-0.1621,-0.6524 -0.895,-1.1682 -0.825,-1.8371c0.5547,-5.3012 4.1512,-4.9127 7.1052,-2.1369c0.6111,0.345 1.4051,0.4748 1.8334,1.0349c0.5087,0.6652 0.2902,1.7207 0.7886,2.3939c0.396,0.5348 1.4393,0.3898 1.7201,0.9945c1.1295,2.4321 0.2344,7.6777 0.2241,10.3738c-0.0066,1.699 -0.5246,3.3564 -0.8081,5.031c-0.8763,5.1773 0.6073,12.842 -5.6385,15.5229c-0.7967,0.342 -1.7478,-0.1024 -2.5953,0.0749c-1.4256,0.2983 -2.8323,0.8168 -4.2879,0.8386zM217.35074,185.39725c0.0734,-2.02 0.2124,-4.0438 0.2124,-5.9467c0,-4.8821 0.3066,-9.359 -1.4631,-13.7829c-0.4235,-1.0587 0.0205,-2.7512 -0.9801,-3.2797c-0.3393,-0.1791 -0.7598,0.2704 -1.1333,0.1861c-0.9469,-0.2137 -2.0489,-1.7512 -2.7216,-1.0439c-0.8262,0.8689 -0.5798,2.3591 -1.1127,3.4375c-1.5122,3.0602 -0.9464,5.0887 -1.4344,8.3159c-0.4595,3.0394 -0.7732,5.4341 -0.7734,8.5864c-0.0621,1.6701 -0.5696,3.2931 -0.7997,4.948c-0.4846,3.485 0.0112,7.4685 0.0112,10.9863c0,2.4599 0,4.9198 0,7.3797c0.1164,0.099 0.2329,0.2071 0.3493,0.325c1.8217,1.8432 1.6112,5.9832 1.385,9.2793c0.5056,0.9326 1.7371,1.4274 2.0948,2.3849c0.2248,0.6017 -0.6829,1.3697 -0.3252,1.9015c0.2583,0.384 0.8507,-0.3797 1.3053,-0.4445c0.9792,-0.1396 1.6611,-1.1123 2.5806,-1.4805c0.7058,-0.2826 1.512,-0.1895 2.2815,-0.2257c0.0276,-0.0146 0.0551,-0.0293 0.0827,-0.0439l-0.2563,-0.389l2.3489,-1.5844c0.1142,-0.0795 0.2399,-0.1435 0.374,-0.1887c0.5025,-2.7087 1.129,-5.7668 0.5925,-8.5851c-0.4221,-2.2176 -2.6101,-4.1587 -3.1546,-6.3839c-0.6985,-2.855 -0.0401,-6.8446 -0.0401,-9.7681c0,-1.8284 0.0808,-3.422 0.5763,-4.5836zM208.73804,222.74755c0.0208,0.0553 0.0449,0.0896 0.0726,0.0992c0.5063,0.1753 1.0778,-0.0847 1.6082,-0.3831h-1.6841c0.0086,0.0896 0.011,0.1852 0.0033,0.2839z" fill="#00bf2b" stroke-width="0.5"/><path d="M217.90944,189.59735c0,2.9689 -0.7929,7.0734 0.0077,9.9728c0.624,2.2597 3.1346,4.2299 3.6184,6.482c0.6149,2.8621 -0.1114,5.97 -0.6874,8.7207c-0.1537,0.046 -0.2986,0.1111 -0.4295,0.1919l-2.6979,1.6099l0.2797,0.293c-0.0316,0.0149 -0.0488,0.1317 -0.0804,0.1466c-0.8819,0.0368 -1.8109,-0.0575 -2.6199,0.2296c-1.0538,0.3739 -1.8408,1.3616 -2.963,1.5033c-0.5211,0.0658 -1.2026,0.8413 -1.4986,0.4513c-0.41,-0.54 0.6306,-1.32 0.3729,-1.9311c-0.4099,-0.9723 -1.8267,-1.4755 -2.4062,-2.4225c0.2593,-3.3473 0.4901,-7.5543 -1.5979,-9.4262c-0.1334,-0.1197 -0.2683,-0.23 -0.4018,-0.3306c0,-2.4981 -0.0145,-5.0043 -0.0145,-7.5024c0,-3.5724 -0.5816,-7.6809 -0.0262,-11.22c0.2638,-1.6806 0.864,-3.3472 0.9351,-5.0432c0.0002,-3.2013 0.376,-5.64 0.9027,-8.7266c0.5593,-3.2772 -0.0811,-5.3388 1.6521,-8.4465c0.6108,-1.0952 0.3315,-2.6088 1.2784,-3.4911c0.771,-0.7184 2.0395,0.8428 3.1248,1.0599c0.4281,0.0856 0.9124,-0.3708 1.3013,-0.1889c1.1469,0.5367 0.6406,2.2557 1.126,3.3308c2.0283,4.4926 1.6911,9.042 1.6911,13.9999c0,1.9324 -0.1439,3.9954 -0.228,6.0468c-0.5679,1.1796 -0.6389,2.8338 -0.6389,4.6906z" data-paper-data="{&quot;noHover&quot;:false,&quot;origItem&quot;:[&quot;Path&quot;,{&quot;applyMatrix&quot;:true,&quot;segments&quot;:[[[434.70149,370.7945],[-0.99104,2.32317],[0.14682,-4.03997]],[[435.1262,358.90119],[0,3.80565],[0,-9.7642]],[[432.19996,331.33533],[3.53939,8.84778],[-0.847,-2.11734]],[[430.2398,324.77599],[2.00129,1.05693],[-0.67857,-0.35837]],[[427.97313,325.14813],[0.74707,0.16865],[-1.8938,-0.42751]],[[422.53001,323.06039],[1.34536,-1.41476],[-1.65241,1.73765]],[[420.30456,329.93524],[1.0658,-2.15683],[-3.0244,6.1204]],[[417.43591,346.56704],[0.97591,-6.45435],[-0.91913,6.07879]],[[415.88895,363.73995],[0.00043,-6.30465],[-0.12409,3.34008]],[[414.2896,373.63583],[0.46024,-3.30984],[-0.9692,6.97003]],[[414.31207,395.60855],[0,-7.03567],[0,4.91975]],[[414.31207,410.36781],[0,-4.91975],[0.23286,0.19809]],[[415.01069,411.01782],[-0.23291,-0.23566],[3.64342,3.68655]],[[417.78057,429.57648],[0.45245,-6.59216],[1.01134,1.86521]],[[421.97022,434.34622],[-0.71537,-1.915],[0.44956,1.20344]],[[421.3199,438.14935],[-0.71545,-1.06355],[0.51663,0.76801]],[[423.93049,437.26027],[-0.90919,0.12957],[1.95834,-0.27909]],[[429.09164,434.29939],[-1.83889,0.73637],[1.41166,-0.56529]],[[433.65471,433.84792],[-1.53895,0.07248],[0.05514,-0.02928]],[[433.82006,433.76011],[-0.05509,0.02926],[0,0]],[433.3075,432.98216],[[438.00527,429.81324],[0,0],[0.22847,-0.15903]],[[438.75327,429.43583],[-0.26819,0.09055],[1.00501,-5.41741]],[[439.93836,412.26569],[1.07296,5.63669],[-0.84427,-4.43528]],[[433.62915,399.49791],[1.08884,4.45039],[-1.39701,-5.70997]],[[433.5489,379.9617],[0,5.8469],[0,-3.65685]]],&quot;closed&quot;:true}]}" fill="#00bf2b" stroke-width="0.5"/><path d="M228.52694,225.65555h-0.7887c-3.4659,0 -7.3726,-0.5019 -10.8008,-0.0194c-1.8678,0.2629 -3.5143,1.1977 -5.0457,2.2683c-0.5866,0.5262 -1.1985,0.9712 -1.8316,1.3472c-0.3915,0.2938 -0.7778,0.5815 -1.1611,0.8527c-2.2893,1.6199 -5.6836,1.3089 -8.6111,1.1403c-0.6576,-0.0379 -1.2917,-0.0685 -1.8844,-0.0685c-0.2202,0 -0.4422,0.013 -0.6648,0.0305c-0.7806,-0.0158 -1.5604,-0.0305 -2.3352,-0.0305l-2.3659,-1.5v0l2.3659,-1.5c0.8555,0 1.7521,0.0343 2.669,0.0699c0.8517,-0.0229 1.7091,0.0234 2.5778,0.0765c2.2916,0.0247 4.5875,-0.1248 6.5793,-0.9313c-1.2552,-0.0492 -2.5094,-0.2721 -3.7149,-0.5865c-0.4034,0.0959 -0.809,0.1779 -1.2176,0.2414c-0.5581,0.1624 -1.1144,0.3068 -1.6364,0.145c-0.03,0.0006 -0.0601,0.0009 -0.0901,0.0012l-1.3146,0.6573c-0.2085,0.1097 -0.4459,0.1718 -0.6979,0.1718c-0.8284,0 -1.5,-0.6715 -1.5,-1.5c0,-0.5988 0.3509,-1.1156 0.8583,-1.3561l1.5482,-0.7742l0.0307,0.0613l0.1113,-0.0676c0.0262,-0.0286 0.0534,-0.0565 0.0816,-0.0838c0.0021,-0.002 0.0313,-0.0078 0.0839,-0.0167l0.0187,-0.0114c0.017,0 0.0338,0 0.0507,-0.0001c0.2494,-0.0405 0.7807,-0.1196 1.4295,-0.2144c0.5837,-0.911 1.7047,-0.5373 1.7047,-0.5373c0.0514,0.0176 0.1031,0.0351 0.155,0.0525c1.4486,-0.5806 2.7802,-1.3621 4.651,-1.6874c2.1954,-0.3817 4.2762,-0.7743 6.5495,-0.808c1.1996,0 2.4206,0.267 3.5986,0.0401c2.4415,-0.4702 2.9335,-1.9272 5.8652,-1.6174c0.1048,0.0111 0.2139,0.0175 0.3261,0.0208c0.1222,-0.0134 0.241,-0.0194 0.3562,-0.017c0.0757,0.0015 0.1508,0.0058 0.2252,0.0126c1.0858,-0.0338 2.2778,-0.1452 2.7344,0.695c0.1623,0.2986 0.287,0.5739 0.3781,0.8275c0.4991,0.3688 0.9935,0.7443 1.5005,1.0511c1.3748,0.8318 2.9207,1.1886 4.473,1.3071c0.6432,-0.0947 1.3109,-0.2764 1.8362,0.0461h1.5773c0.8285,0 1.5,0.6716 1.5,1.5c0,0.8285 -0.6715,1.5 -1.5,1.5h-1.7319c-0.4548,-0.0054 -0.9062,-0.0192 -1.3539,-0.045c-0.2851,0.0294 -0.5711,0.045 -0.8574,0.045h-1.5773c0,0 -0.8519,0 -1.2717,-0.6419c-0.3592,-0.1057 -0.7152,-0.2278 -1.068,-0.3686c-0.3953,0.2219 -0.8149,0.2219 -0.8149,0.2219z" fill="#b9a528" stroke-width="0.5"/><path d="M366.33994,177.13795c-0.9712,-0.0146 -1.9097,-0.3606 -2.8609,-0.5595c-0.5654,-0.1183 -1.2,0.1781 -1.7315,-0.05c-4.1672,-1.7887 -3.1773,-6.9024 -3.762,-10.3567c-0.1891,-1.1173 -0.5347,-2.2231 -0.5391,-3.3566c-0.0069,-1.7988 -0.6041,-5.2986 0.1495,-6.9213c0.1874,-0.4034 0.8835,-0.3067 1.1476,-0.6635c0.3326,-0.4491 0.1868,-1.1533 0.5262,-1.5972c0.2857,-0.3736 0.8155,-0.4603 1.2232,-0.6904c1.9709,-1.852 4.3704,-2.1112 4.7405,1.4257c0.0467,0.4462 -0.4423,0.7904 -0.5504,1.2256c-0.3318,1.3357 -0.1738,2.8929 -0.5329,4.2865c-0.236,0.9159 -0.862,1.7068 -1.0456,2.6348c-0.2898,1.4644 0.3091,1.9907 0.5261,3.2616c0.0732,0.4281 -0.2175,0.8737 -0.1226,1.2975c0.187,0.8355 3.3361,-0.3984 3.6543,-0.4532c0.5499,-0.0947 1.0221,-0.1269 1.4274,-0.1028c-0.0466,-0.9017 -0.0935,-1.7915 -0.0935,-2.6385c0,-3.5411 -0.1373,-6.7346 1.1285,-9.9708c0.3217,-0.8224 0.6574,-2.5556 1.4508,-3.1359c0.3658,-0.2676 0.9128,-0.005 1.3486,-0.1242c1.329,-0.3634 1.5555,-1.6417 3.446,-0.3683c0.913,0.6149 0.8718,2.038 1.3623,3.0306c1.1024,2.2309 0.7816,3.8519 1.1477,6.1647c0.3301,2.0849 0.5365,3.8264 0.5363,5.9842c0.0295,1.0435 0.3805,2.0531 0.5189,3.0876c0.3123,2.3359 0.0281,4.9558 0.0085,7.3294c0.2725,0.1362 0.5537,0.2907 0.8066,0.3273c1.8629,0.2699 4.9698,0.1487 6.4289,-1.3277c1.722,-1.7424 -0.6453,-5.2482 3.7216,-4.4788c0.353,0.0622 1.3391,2.1442 1.5645,2.6123c1.4279,2.9662 0.895,6.444 -1.3624,8.7281c-2.6833,1.3905 -6.1901,1.8241 -9.2339,1.2288c-0.4268,-0.0834 -0.912,-0.394 -1.4037,-0.5482c-0.0082,0.7446 -0.0278,1.4299 -0.0726,1.5474c-0.1167,0.3059 -0.3788,0.5472 -0.6545,0.7889c-0.083,0.7571 -0.1958,1.5079 -0.3485,2.2507c-0.4313,2.0979 0.3654,3.9211 -0.5666,5.9933c-0.8089,2.6229 -2.4327,1.5458 -4.3206,1.1485c-0.7836,-0.165 -1.6006,0.027 -2.4009,0.027c-4.5472,-0.0681 -5.228,-4.054 -5.2102,-7.9339c0.0032,-0.7136 0.2173,-1.4051 0.3883,-2.1025c-0.057,-1.001 -0.0231,-1.9965 0.1646,-2.9218c0.0094,-0.0465 0.0199,-0.0927 0.0314,-0.1388c-0.0794,-1.2054 -0.2257,-2.4232 -0.0314,-3.588c0.0195,-0.1169 0.0415,-0.2343 0.0655,-0.3519zM371.02394,170.90555c0,1.9505 0.4392,4.6124 -0.0268,6.5172c-0.3632,1.4846 -1.823,2.7797 -2.1047,4.2592c-0.3579,1.8804 0.0601,3.9207 0.3953,5.7279c0.0895,0.0302 0.1734,0.0728 0.2496,0.1259l1.5671,1.0571l-0.171,0.2595c0.0184,0.0098 0.0368,0.0196 0.0552,0.0293c0.5134,0.0242 1.0513,-0.0379 1.5222,0.1506c0.6134,0.2457 1.0684,0.8947 1.7217,0.9878c0.3033,0.0432 0.6986,0.5528 0.8709,0.2966c0.2387,-0.3548 -0.3669,-0.8673 -0.2169,-1.2687c0.2386,-0.6389 1.0602,-0.969 1.3976,-1.5912c-0.1509,-2.1991 -0.2914,-4.9612 0.924,-6.191c0.0777,-0.0787 0.1554,-0.1508 0.2331,-0.2169c0,-1.6412 0,-3.2824 0,-4.9236c0,-2.347 0.3308,-5.0048 0.0075,-7.3299c-0.1536,-1.1042 -0.4922,-2.187 -0.5336,-3.3012c-0.0001,-2.1032 -0.2094,-3.7009 -0.516,-5.7288c-0.3256,-2.1531 0.0519,-3.5065 -0.957,-5.5482c-0.3555,-0.7195 -0.1912,-1.7138 -0.7424,-2.2935c-0.4488,-0.4719 -1.184,0.5539 -1.8158,0.6965c-0.2492,0.0563 -0.5298,-0.2437 -0.7561,-0.1241c-0.6676,0.3525 -0.3714,1.4818 -0.6539,2.1881c-1.1807,2.9516 -0.9762,5.9385 -0.9762,9.1958c0,1.2695 0.0927,2.6198 0.1417,3.9675c0.3306,0.775 0.3845,1.8382 0.3845,3.0581zM376.38794,192.57765h-1.1236c0.3539,0.1991 0.7351,0.3726 1.073,0.2556c0.0185,-0.0064 0.0345,-0.0292 0.0484,-0.0662c-0.0052,-0.0658 -0.0036,-0.1296 0.0022,-0.1894z" data-paper-data="{&quot;index&quot;:null}" fill="#00bf2b" stroke-width="0.5"/><path d="M369.84044,167.52015c-0.0561,-1.3686 -0.1521,-2.745 -0.1521,-4.0343c0,-3.3078 -0.225,-6.3431 1.1282,-9.3405c0.3239,-0.7173 -0.0139,-1.8642 0.7513,-2.2223c0.2594,-0.1214 0.5826,0.1832 0.8682,0.126c0.7241,-0.1448 1.5704,-1.1864 2.0848,-0.7071c0.6318,0.5886 0.4455,1.5985 0.853,2.3292c1.1563,2.0734 0.7291,3.4489 1.1022,5.6354c0.3514,2.0593 0.6021,3.6864 0.6023,5.8223c0.0474,1.1315 0.4479,2.2434 0.6238,3.3647c0.3706,2.3613 -0.0174,5.1024 -0.0174,7.4859c0,1.6667 -0.0097,3.3388 -0.0097,5.0055c-0.089,0.0671 -0.179,0.1407 -0.2681,0.2205c-1.393,1.2489 -1.239,4.0558 -1.066,6.289c-0.3867,0.6319 -1.332,0.9676 -1.6055,1.6164c-0.1718,0.4076 0.5224,0.928 0.2489,1.2883c-0.1976,0.2602 -0.6523,-0.2571 -0.9999,-0.301c-0.7487,-0.0946 -1.2738,-0.7536 -1.9769,-1.0031c-0.5397,-0.1915 -1.1595,-0.1286 -1.7479,-0.1531c-0.0211,-0.01 -0.0326,-0.0879 -0.0537,-0.0978l0.1866,-0.1955l-1.8,-1.0742c-0.0873,-0.0538 -0.184,-0.0973 -0.2865,-0.1279c-0.3843,-1.8353 -0.8689,-3.9088 -0.4587,-5.8184c0.3228,-1.5026 1.9979,-2.8171 2.4142,-4.3247c0.5341,-1.9344 0.0052,-4.6729 0.0052,-6.6537c0,-1.2388 -0.0474,-2.3425 -0.4263,-3.1295z" data-paper-data="{&quot;noHover&quot;:false,&quot;origItem&quot;:[&quot;Path&quot;,{&quot;applyMatrix&quot;:true,&quot;segments&quot;:[[[434.70149,370.7945],[-0.99104,2.32317],[0.14682,-4.03997]],[[435.1262,358.90119],[0,3.80565],[0,-9.7642]],[[432.19996,331.33533],[3.53939,8.84778],[-0.847,-2.11734]],[[430.2398,324.77599],[2.00129,1.05693],[-0.67857,-0.35837]],[[427.97313,325.14813],[0.74707,0.16865],[-1.8938,-0.42751]],[[422.53001,323.06039],[1.34536,-1.41476],[-1.65241,1.73765]],[[420.30456,329.93524],[1.0658,-2.15683],[-3.0244,6.1204]],[[417.43591,346.56704],[0.97591,-6.45435],[-0.91913,6.07879]],[[415.88895,363.73995],[0.00043,-6.30465],[-0.12409,3.34008]],[[414.2896,373.63583],[0.46024,-3.30984],[-0.9692,6.97003]],[[414.31207,395.60855],[0,-7.03567],[0,4.91975]],[[414.31207,410.36781],[0,-4.91975],[0.23286,0.19809]],[[415.01069,411.01782],[-0.23291,-0.23566],[3.64342,3.68655]],[[417.78057,429.57648],[0.45245,-6.59216],[1.01134,1.86521]],[[421.97022,434.34622],[-0.71537,-1.915],[0.44956,1.20344]],[[421.3199,438.14935],[-0.71545,-1.06355],[0.51663,0.76801]],[[423.93049,437.26027],[-0.90919,0.12957],[1.95834,-0.27909]],[[429.09164,434.29939],[-1.83889,0.73637],[1.41166,-0.56529]],[[433.65471,433.84792],[-1.53895,0.07248],[0.05514,-0.02928]],[[433.82006,433.76011],[-0.05509,0.02926],[0,0]],[433.3075,432.98216],[[438.00527,429.81324],[0,0],[0.22847,-0.15903]],[[438.75327,429.43583],[-0.26819,0.09055],[1.00501,-5.41741]],[[439.93836,412.26569],[1.07296,5.63669],[-0.84427,-4.43528]],[[433.62915,399.49791],[1.08884,4.45039],[-1.39701,-5.70997]],[[433.5489,379.9617],[0,5.8469],[0,-3.65685]]],&quot;closed&quot;:true}],&quot;index&quot;:null}" fill="#00bf2b" stroke-width="0.5"/><path d="M362.63914,194.55925c-0.2354,0.0939 -0.4729,0.1754 -0.7126,0.2459c-0.28,0.4283 -0.8484,0.4283 -0.8484,0.4283h-1.0524c-0.191,0 -0.3818,-0.0104 -0.572,-0.03c-0.2987,0.0172 -0.5999,0.0264 -0.9033,0.03h-1.1555c-0.5527,0 -1.0008,-0.4481 -1.0008,-1.0008c0,-0.5527 0.448,-1.0008 1.0008,-1.0008h1.0523c0.3505,-0.2151 0.796,-0.0939 1.2252,-0.0307c1.0356,-0.0791 2.067,-0.3172 2.9843,-0.8722c0.3382,-0.2046 0.6681,-0.4552 1.001,-0.7012c0.0609,-0.1692 0.144,-0.3529 0.2523,-0.5521c0.3047,-0.5605 1.1,-0.4863 1.8244,-0.4637c0.0497,-0.0046 0.0997,-0.0074 0.1503,-0.0084c0.0768,-0.0016 0.1561,0.0024 0.2376,0.0113c0.0749,-0.0021 0.1477,-0.0065 0.2176,-0.0138c1.9559,-0.2067 2.2842,0.7653 3.9132,1.0791c0.7859,0.1514 1.6006,-0.0268 2.4009,-0.0268c1.5167,0.0225 2.905,0.2844 4.3698,0.5391c1.2481,0.217 2.1366,0.7384 3.103,1.1258c0.0347,-0.0116 0.0691,-0.0233 0.1034,-0.035c0,0 0.748,-0.2493 1.1374,0.3585c0.4328,0.0632 0.7874,0.116 0.9538,0.143c0.0112,0.0001 0.0225,0.0001 0.0337,0.0001l0.0125,0.0075c0.0351,0.006 0.0546,0.0099 0.056,0.0112c0.0188,0.0183 0.037,0.0369 0.0545,0.0559l0.0742,0.0451l0.0205,-0.0408l1.0329,0.5164c0.3385,0.1605 0.5726,0.5053 0.5726,0.9049c0,0.5527 -0.448,1.0007 -1.0007,1.0007c-0.1681,0 -0.3265,-0.0414 -0.4656,-0.1146l-0.8771,-0.4386c-0.02,-0.0001 -0.0401,-0.0004 -0.0601,-0.0007c-0.3483,0.1079 -0.7195,0.0116 -1.0918,-0.0968c-0.2726,-0.0424 -0.5432,-0.0971 -0.8124,-0.161c-0.8043,0.2097 -1.641,0.3585 -2.4785,0.3913c1.3289,0.538 2.8607,0.6378 4.3896,0.6213c0.5796,-0.0355 1.1516,-0.0663 1.7199,-0.051c0.6117,-0.0238 1.2099,-0.0467 1.7807,-0.0467l1.5785,1.0008v0l-1.5785,1.0008c-0.5169,0 -1.0372,0.0098 -1.558,0.0203c-0.1485,-0.0116 -0.2967,-0.0203 -0.4436,-0.0203c-0.3954,0 -0.8184,0.0204 -1.2572,0.0457c-1.9532,0.1125 -4.2178,0.3199 -5.7452,-0.7608c-0.2557,-0.181 -0.5135,-0.3729 -0.7747,-0.5689c-0.4224,-0.2509 -0.8306,-0.5478 -1.222,-0.8989c-1.0217,-0.7142 -2.1202,-1.3379 -3.3664,-1.5133c-2.2873,-0.3219 -4.8938,0.0129 -7.2062,0.0129h-0.5262c0,0 -0.2799,0 -0.5437,-0.1481z" data-paper-data="{&quot;index&quot;:null}" fill="#beb02d" stroke-width="0.5"/><path d="M429.34964,210.70235c-1.2449,-0.023 -2.4481,-0.5703 -3.6674,-0.885c-0.7249,-0.1871 -1.5383,0.2818 -2.2198,-0.0791c-5.342,-2.8293 -4.0731,-10.918 -4.8226,-16.3819c-0.2425,-1.7673 -0.6855,-3.5164 -0.6911,-5.3094c-0.0089,-2.8453 -0.7744,-8.3812 0.1916,-10.9478c0.2402,-0.6382 1.1326,-0.4852 1.4712,-1.0496c0.4263,-0.7104 0.2394,-1.8243 0.6745,-2.5264c0.3663,-0.591 1.0454,-0.728 1.5681,-1.0921c2.5266,-2.9294 5.6027,-3.3394 6.0771,2.2551c0.0599,0.7059 -0.567,1.2504 -0.7056,1.9388c-0.4254,2.1127 -0.2229,4.5759 -0.6832,6.7802c-0.3025,1.4486 -1.105,2.6998 -1.3404,4.1677c-0.3714,2.3163 0.3962,3.1487 0.6745,5.159c0.0938,0.6772 -0.2789,1.3821 -0.1573,2.0523c0.2399,1.3217 4.2768,-0.6301 4.6847,-0.7168c0.705,-0.1498 1.3103,-0.2006 1.8298,-0.1626c-0.0597,-1.4263 -0.1198,-2.8338 -0.1198,-4.1735c0,-5.6012 -0.176,-10.6526 1.4467,-15.7716c0.4123,-1.3008 0.8428,-4.0423 1.8598,-4.9603c0.469,-0.4232 1.1702,-0.0079 1.7288,-0.1964c1.7037,-0.5748 1.9941,-2.5967 4.4176,-0.5826c1.1705,0.9727 1.1176,3.2237 1.7464,4.7938c1.4132,3.5288 1.0019,6.0928 1.4714,9.7511c0.4231,3.2978 0.6877,6.0526 0.6875,9.4656c0.0377,1.6507 0.4877,3.2475 0.6651,4.884c0.4004,3.6948 0.036,7.8389 0.0109,11.5934c0.3494,0.2154 0.7098,0.4598 1.0341,0.5177c2.3881,0.427 6.3709,0.2352 8.2415,-2.1001c2.2075,-2.756 -0.8273,-8.3015 4.7708,-7.0844c0.4526,0.0984 1.7167,3.3916 2.0056,4.1321c1.8306,4.6918 1.1474,10.1928 -1.7464,13.8058c-3.4399,2.1994 -7.9354,2.8854 -11.8374,1.9437c-0.5472,-0.132 -1.1692,-0.6232 -1.7996,-0.8672c-0.0104,1.1779 -0.0356,2.2618 -0.093,2.4477c-0.1496,0.4838 -0.4856,0.8656 -0.839,1.2478c-0.1064,1.1976 -0.251,2.3852 -0.4468,3.5602c-0.5528,3.3184 0.4684,6.2023 -0.7264,9.4799c-1.037,4.149 -3.1185,2.4452 -5.5387,1.8167c-1.0045,-0.2609 -2.0519,0.0428 -3.0779,0.0428c-5.8292,-0.1077 -6.7019,-6.4125 -6.6792,-12.5496c0.0042,-1.1289 0.2786,-2.2226 0.4979,-3.3257c-0.0732,-1.5834 -0.0296,-3.1581 0.211,-4.6216c0.0121,-0.0736 0.0255,-0.1467 0.0402,-0.2195c-0.1018,-1.9067 -0.2893,-3.8331 -0.0402,-5.6755c0.025,-0.185 0.0531,-0.3705 0.084,-0.5567zM435.35434,200.84425c0,3.0852 0.5631,7.2956 -0.0343,10.3086c-0.4657,2.3483 -2.3371,4.3968 -2.6982,6.7372c-0.4588,2.9743 0.0771,6.2015 0.5068,9.0601c0.1147,0.0478 0.2222,0.1153 0.3199,0.1992l2.009,1.6721l-0.2192,0.4105c0.0236,0.0155 0.0472,0.0309 0.0707,0.0464c0.6582,0.0382 1.3477,-0.0601 1.9514,0.2382c0.7864,0.3885 1.3697,1.4151 2.2072,1.5623c0.3888,0.0684 0.8955,0.8744 1.1164,0.4692c0.306,-0.5612 -0.4704,-1.3718 -0.2781,-2.0068c0.3059,-1.0105 1.3592,-1.5326 1.7917,-2.5169c-0.1935,-3.4784 -0.3736,-7.8475 1.1845,-9.7928c0.0996,-0.1243 0.1992,-0.2385 0.2988,-0.343c0,-2.596 0,-5.192 0,-7.788c0,-3.7125 0.4241,-7.9164 0.0096,-11.5943c-0.1968,-1.7465 -0.6309,-3.4593 -0.684,-5.2217c-0.0001,-3.3268 -0.2684,-5.8541 -0.6615,-9.0617c-0.4174,-3.4057 0.0666,-5.5465 -1.2268,-8.7761c-0.4558,-1.138 -0.2451,-2.7107 -0.9517,-3.6276c-0.5754,-0.7465 -1.5179,0.8761 -2.3278,1.1016c-0.3194,0.089 -0.6791,-0.3854 -0.9693,-0.1963c-0.8558,0.5577 -0.476,2.3439 -0.8382,3.4611c-1.5137,4.6687 -1.2514,9.3934 -1.2514,14.5457c0,2.0081 0.1188,4.1439 0.1816,6.2757c0.4238,1.2259 0.4929,2.9076 0.4929,4.8372zM442.23074,235.12455h-1.4405c0.4537,0.3149 0.9425,0.5893 1.3756,0.4043c0.0237,-0.0101 0.0442,-0.0463 0.062,-0.1047c-0.0066,-0.1042 -0.0045,-0.2051 0.0029,-0.2996z" data-paper-data="{&quot;index&quot;:null}" fill="#00bf2b" stroke-width="0.5"/><path d="M433.83714,195.48935c-0.072,-2.1649 -0.195,-4.3421 -0.195,-6.3814c0,-5.2323 -0.2884,-10.0335 1.4464,-14.7746c0.4151,-1.1346 -0.0179,-2.9488 0.963,-3.5152c0.3326,-0.192 0.7469,0.2898 1.113,0.1994c0.9283,-0.2291 2.0132,-1.8767 2.6726,-1.1186c0.81,0.9311 0.5711,2.5285 1.0935,3.6843c1.4824,3.2797 0.9347,5.4553 1.413,8.914c0.4505,3.2573 0.7719,5.831 0.7721,9.2094c0.0608,1.7899 0.5742,3.5487 0.7998,5.3223c0.475,3.735 -0.0224,8.0708 -0.0224,11.8409c0,2.6363 -0.0124,5.2813 -0.0124,7.9176c-0.1141,0.1061 -0.2295,0.2226 -0.3437,0.3489c-1.7858,1.9754 -1.5884,6.4153 -1.3666,9.9477c-0.4957,0.9995 -1.7075,1.5305 -2.0581,2.5567c-0.2203,0.6449 0.6697,1.468 0.319,2.0379c-0.2532,0.4116 -0.8361,-0.4068 -1.2817,-0.4762c-0.9599,-0.1496 -1.633,-1.192 -2.5343,-1.5866c-0.6919,-0.3029 -1.4865,-0.2034 -2.2408,-0.2423c-0.027,-0.0157 -0.0418,-0.139 -0.0688,-0.1546l0.2392,-0.3093l-2.3074,-1.699c-0.112,-0.0852 -0.236,-0.1539 -0.3674,-0.2024c-0.4926,-2.903 -1.1139,-6.1829 -0.588,-9.2034c0.4138,-2.3767 2.5612,-4.4559 3.0949,-6.8407c0.6847,-3.0598 0.0066,-7.3915 0.0066,-10.5246c0,-1.9596 -0.0607,-3.7053 -0.5465,-4.9502z" data-paper-data="{&quot;noHover&quot;:false,&quot;origItem&quot;:[&quot;Path&quot;,{&quot;applyMatrix&quot;:true,&quot;segments&quot;:[[[434.70149,370.7945],[-0.99104,2.32317],[0.14682,-4.03997]],[[435.1262,358.90119],[0,3.80565],[0,-9.7642]],[[432.19996,331.33533],[3.53939,8.84778],[-0.847,-2.11734]],[[430.2398,324.77599],[2.00129,1.05693],[-0.67857,-0.35837]],[[427.97313,325.14813],[0.74707,0.16865],[-1.8938,-0.42751]],[[422.53001,323.06039],[1.34536,-1.41476],[-1.65241,1.73765]],[[420.30456,329.93524],[1.0658,-2.15683],[-3.0244,6.1204]],[[417.43591,346.56704],[0.97591,-6.45435],[-0.91913,6.07879]],[[415.88895,363.73995],[0.00043,-6.30465],[-0.12409,3.34008]],[[414.2896,373.63583],[0.46024,-3.30984],[-0.9692,6.97003]],[[414.31207,395.60855],[0,-7.03567],[0,4.91975]],[[414.31207,410.36781],[0,-4.91975],[0.23286,0.19809]],[[415.01069,411.01782],[-0.23291,-0.23566],[3.64342,3.68655]],[[417.78057,429.57648],[0.45245,-6.59216],[1.01134,1.86521]],[[421.97022,434.34622],[-0.71537,-1.915],[0.44956,1.20344]],[[421.3199,438.14935],[-0.71545,-1.06355],[0.51663,0.76801]],[[423.93049,437.26027],[-0.90919,0.12957],[1.95834,-0.27909]],[[429.09164,434.29939],[-1.83889,0.73637],[1.41166,-0.56529]],[[433.65471,433.84792],[-1.53895,0.07248],[0.05514,-0.02928]],[[433.82006,433.76011],[-0.05509,0.02926],[0,0]],[433.3075,432.98216],[[438.00527,429.81324],[0,0],[0.22847,-0.15903]],[[438.75327,429.43583],[-0.26819,0.09055],[1.00501,-5.41741]],[[439.93836,412.26569],[1.07296,5.63669],[-0.84427,-4.43528]],[[433.62915,399.49791],[1.08884,4.45039],[-1.39701,-5.70997]],[[433.5489,379.9617],[0,5.8469],[0,-3.65685]]],&quot;closed&quot;:true}],&quot;index&quot;:null}" fill="#00bf2b" stroke-width="0.5"/><path d="M424.60544,238.25885c-0.3017,0.1486 -0.6063,0.2775 -0.9134,0.389c-0.3591,0.6775 -1.0877,0.6775 -1.0877,0.6775h-1.3491c-0.2448,0 -0.4894,-0.0165 -0.7333,-0.0475c-0.383,0.0273 -0.769,0.0418 -1.158,0.0475h-1.4813c-0.7086,0 -1.283,-0.7087 -1.283,-1.583c0,-0.8742 0.5744,-1.583 1.283,-1.583h1.349c0.4494,-0.3403 1.0205,-0.1486 1.5706,-0.0487c1.3276,-0.125 2.6499,-0.5016 3.8257,-1.3794c0.4336,-0.3238 0.8565,-0.7201 1.2834,-1.1093c0.0779,-0.2677 0.1846,-0.5581 0.3234,-0.8733c0.3905,-0.8866 1.41,-0.7691 2.3387,-0.7335c0.0637,-0.0071 0.1279,-0.0116 0.1926,-0.0133c0.0985,-0.0025 0.2002,0.0038 0.3046,0.018c0.0961,-0.0034 0.1894,-0.0102 0.279,-0.0219c2.5074,-0.327 2.9282,1.2106 5.0165,1.7069c1.0075,0.2394 2.0519,-0.0424 3.0779,-0.0424c1.9443,0.0356 3.724,0.4499 5.6018,0.8528c1.6,0.3433 2.739,1.168 3.978,1.7808c0.0444,-0.0184 0.0886,-0.0368 0.1325,-0.0554c0,0 0.9588,-0.3944 1.4581,0.567c0.5548,0.1 1.0093,0.1835 1.2226,0.2262c0.0144,0.0001 0.0289,0.0002 0.0433,0.0002l0.016,0.0119c0.0451,0.0095 0.07,0.0156 0.0718,0.0177c0.0241,0.0289 0.0474,0.0583 0.0698,0.0884l0.0952,0.0714l0.0262,-0.0646l1.3242,0.8169c0.434,0.2538 0.7341,0.7993 0.7341,1.4312c0,0.8743 -0.5744,1.583 -1.283,1.583c-0.2155,0 -0.4185,-0.0655 -0.5968,-0.1813l-1.1244,-0.6937c-0.0257,-0.0003 -0.0514,-0.0007 -0.077,-0.0012c-0.4465,0.1707 -0.9223,0.0183 -1.3997,-0.1531c-0.3494,-0.067 -0.6963,-0.1535 -1.0414,-0.2547c-1.0311,0.3317 -2.1037,0.5671 -3.1773,0.619c1.7035,0.8511 3.6673,1.0088 5.6272,0.9828c0.743,-0.0561 1.4763,-0.1049 2.2048,-0.0807c0.7842,-0.0377 1.5511,-0.0739 2.2828,-0.0739l2.0236,1.583v0l-2.0236,1.583c-0.6627,0 -1.3297,0.0156 -1.9973,0.0323c-0.1904,-0.0185 -0.3803,-0.0323 -0.5686,-0.0323c-0.507,0 -1.0493,0.0324 -1.6117,0.0724c-2.5039,0.1779 -5.4071,0.5061 -7.3651,-1.2035c-0.3278,-0.2861 -0.6582,-0.5898 -0.9931,-0.8998c-0.5415,-0.3968 -1.0648,-0.8665 -1.5665,-1.4218c-1.3098,-1.1298 -2.7181,-2.1163 -4.3156,-2.3938c-2.9322,-0.5092 -6.2736,0.0205 -9.2379,0.0205h-0.6746c0,0 -0.3589,0 -0.697,-0.2342z" data-paper-data="{&quot;index&quot;:null}" fill="#b9a329" stroke-width="0.5"/><path d="M282.86393,242.38305c-0.0885,1.4974 -1.5859,1.4089 -1.5859,1.4089l-1.3081,-0.1033c-3.6435,-0.9169 -7.1997,-1.4396 -10.8351,-2.3149c-2.4731,-0.5955 -4.856,-2.2728 -7.2229,-3.1954c-6.0829,-2.3711 -12.685,-3.9499 -19.0086,-5.5308c-8.8322,-2.2083 -18.9347,-5.9362 -28.1888,-4.453c-2.7496,0.4407 -5.6669,1.7219 -8.2561,2.7056c-3.0938,1.1754 -9.1143,3.4306 -10.5019,6.5446c0,0 -0.6708,1.3417 -2.0124,0.6709c-1.3417,-0.6709 -0.6708,-2.0125 -0.6708,-2.0125c2.1182,-3.9614 8.0093,-6.4382 12.1173,-8.0065c2.7775,-1.0603 5.9002,-2.3916 8.8491,-2.8643c9.6995,-1.5546 20.1283,2.1894 29.3912,4.5048c6.4353,1.6088 13.1421,3.2247 19.335,5.6324c2.258,0.8779 4.6133,2.5636 6.9728,3.1139c3.6101,0.8419 7.1457,1.3981 10.7588,2.2948l0.7575,0.0189c0,0 1.4974,0.0885 1.4089,1.5859z" fill="#a39b27" stroke-width="0.5"/><path d="M393.27764,205.22795c0,1.5 -1.5,1.5 -1.5,1.5l-0.0003,-0.2239c-3.3949,2.0564 -10.1125,3.8777 -14.1455,3.7705c-3.9307,-0.1045 -8.1969,-2.481 -11.86,-3.7125c-4.8971,-1.6464 -9.0835,-2.2001 -14.2206,-2.2001c-3.0035,-0.0161 -6.1165,0.1766 -9.1104,-0.0528c-6.9539,-0.5326 -13.8002,-2.6211 -20.7572,-3.0854c-7.6819,-0.5127 -15.9542,-0.1361 -23.43,1.5252c0,0 -1.4643,0.3254 -1.7897,-1.1389c-0.3254,-1.4642 1.1389,-1.7896 1.1389,-1.7896c7.7478,-1.7218 16.3177,-2.1215 24.2806,-1.5901c6.9686,0.4651 13.8232,2.5542 20.7866,3.0876c2.9205,0.2237 5.9595,0.0283 8.8893,0.044c3.1793,0 6.1777,-0.1609 9.2994,0.5892c5.3779,1.2924 11.3147,5.1772 16.8528,5.3244c3.4109,0.0907 9.6317,-1.5139 12.4891,-3.3238l1.577,-0.2238c0,0 1.5,0 1.5,1.5z" fill="#a39b27" stroke-width="0.5"/><path d="M479.24064,249.39235c0,1.5 -1.5,1.5 -1.5,1.5h-0.7887c-3.2322,0 -7.1994,-0.5449 -10.3391,0.1387c-1.8692,0.4069 -3.5089,1.5247 -5.2686,2.2748c-0.3119,0.1233 -5.6863,2.2571 -5.869,2.292c-2.8171,0.5366 -6.4047,0.0265 -9.2807,0.0265c-8.2745,0 -16.4175,-1.0566 -24.2088,-4.0475c-6.0831,-2.3351 -11.9024,-6.3145 -17.6032,-9.5275c-2.883,-0.7131 -5.3648,-2.253 -8.1746,-3.0173c-2.8891,-0.786 -8.831,-0.3082 -11.7746,0.1344c-9.3186,1.4011 -16.6761,7.9518 -25.3047,10.8603c0,0 -1.423,0.4744 -1.8974,-0.9487c-0.4743,-1.423 0.9487,-1.8973 0.9487,-1.8973c8.8361,-2.9077 16.2675,-9.5315 25.8137,-10.9819c3.3227,-0.5049 9.5244,-0.9502 12.8175,-0.1056c2.9811,0.7646 5.6455,2.3996 8.6756,3.1667c5.7325,3.1655 11.5144,7.1938 17.5975,9.5253c7.4445,2.8532 15.2094,3.839 23.1103,3.839c2.6843,0 6.0874,0.5279 8.7193,0.0265c1.8663,-0.3555 3.5238,-1.4215 5.2905,-2.12c0.3289,-0.1402 5.5887,-2.3915 5.7703,-2.431c3.3585,-0.7312 7.5249,-0.2073 10.9773,-0.2074h0.7886c0,0 1.5,0 1.5,1.5z" fill="#a39b27" stroke-width="0.5"/><path d="M477.50494,192.49165c-0.6708,1.3417 -2.0125,0.6709 -2.0125,0.6709l-1.2511,-0.6705c-3.4711,0.069 -7.767,-0.7017 -11.1405,0c-1.1735,0.2441 -2.3008,0.8038 -3.4992,0.8288c0,0 -1.5,0 -1.5,-1.5c0,-1.5 1.5,-1.5 1.5,-1.5c0.9688,0.0316 1.8583,-0.5645 2.81,-0.7485c3.8385,-0.7419 8.6111,-0.0579 12.519,0l1.9035,0.9069c0,0 1.3416,0.6708 0.6708,2.0124z" fill="#a39b27" stroke-width="0.5"/></g></g></svg>