<svg version="1.1" xmlns="http://www.w3.org/2000/svg" xmlns:xlink="http://www.w3.org/1999/xlink" width="188.71091" height="102.23832" viewBox="0,0,188.71091,102.23832"><defs><linearGradient x1="321.35545" y1="165" x2="127.64455" y2="165" gradientUnits="userSpaceOnUse" id="color-1"><stop offset="0" stop-color="#f7f7f7" stop-opacity="0"/><stop offset="1" stop-color="#f7f7f7"/></linearGradient><linearGradient x1="316.35545" y1="156.5" x2="122.64455" y2="156.5" gradientUnits="userSpaceOnUse" id="color-2"><stop offset="0" stop-color="#f7f7f7" stop-opacity="0"/><stop offset="1" stop-color="#f7f7f7"/></linearGradient><linearGradient x1="306.19652" y1="128.64324" x2="126.15022" y2="200.1082" gradientUnits="userSpaceOnUse" id="color-3"><stop offset="0" stop-color="#f7f7f7" stop-opacity="0"/><stop offset="1" stop-color="#f7f7f7"/></linearGradient><linearGradient x1="128.89455" y1="167" x2="301.10545" y2="167" gradientUnits="userSpaceOnUse" id="color-4"><stop offset="0" stop-color="#f7f7f7" stop-opacity="0"/><stop offset="1" stop-color="#f7f7f7"/></linearGradient><linearGradient x1="136.1419" y1="196.14225" x2="296.20484" y2="132.60919" gradientUnits="userSpaceOnUse" id="color-5"><stop offset="0" stop-color="#f7f7f7" stop-opacity="0"/><stop offset="1" stop-color="#f7f7f7"/></linearGradient><linearGradient x1="135.89455" y1="156.5" x2="308.10545" y2="156.5" gradientUnits="userSpaceOnUse" id="color-6"><stop offset="0" stop-color="#f7f7f7" stop-opacity="0"/><stop offset="1" stop-color="#f7f7f7"/></linearGradient></defs><g transform="translate(-127.64455,-109.42078)"><g data-paper-data="{&quot;isPaintingLayer&quot;:true}" fill-rule="nonzero" stroke="none" stroke-width="0.5" stroke-linecap="butt" stroke-linejoin="miter" stroke-miterlimit="10" stroke-dasharray="" stroke-dashoffset="0" style="mix-blend-mode: normal"><path d="M182.89932,141.83473c0.89729,-1.84636 2.36922,-3.4339 4.32391,-4.46546c1.85838,-0.98073 3.88539,-1.31762 5.82565,-1.08962l2.45342,0.25214c1.2807,-0.26171 2.66869,-1.06419 3.77415,-0.44259c0.4662,0.26214 0.9242,0.53664 1.37519,0.82174c0.11368,-0.25353 0.23175,-0.50561 0.35402,-0.75615c0.01414,-0.16949 0.02975,-0.33947 0.04684,-0.50994c-2.37663,-3.84797 -3.77159,-8.78161 -1.97882,-12.57157c4.18967,-8.85707 29.59586,-7.29712 34.46587,-5.97852c-2.37901,4.07765 -4.52207,8.2796 -6.39616,12.93694c0,0 -0.34979,0.87447 -0.398,2.04443c-0.64231,0.95826 -1.22786,1.94639 -1.63316,3.03525c-1.03589,2.78302 -0.86222,6.05766 -0.86222,8.96296c0,2.20393 -0.74621,4.40897 -0.4677,6.59523c0.64278,5.04566 3.61146,10.70426 6.59681,14.74323c0.10286,0.13917 0.6216,0.67906 1.29396,1.35987c-7.44478,1.66622 -14.36168,5.97207 -20.9941,9.43958c-4.29574,2.24586 -9.33506,3.43941 -13.03259,6.70709c-1.82197,1.61017 -3.19608,3.66989 -4.91003,5.39459c-1.64289,1.65319 -3.84496,2.69922 -5.4204,4.4168c-0.90523,0.9869 -1.72419,2.07091 -2.56711,3.12757c-0.74329,-0.87795 -1.45541,-1.86 -2.13214,-2.95462c-0.2754,0.17168 -0.56633,0.33886 -0.87358,0.50101c-7.74868,4.08926 -12.29115,-2.1933 -13.29746,-3.8122c-4.15416,1.65267 -6.56566,1.78613 -10.54772,-1.70972c-3.48273,1.61946 -7.47033,1.06127 -10.35023,-1.17611c-0.59414,0.03622 -1.1874,0.01884 -1.77277,-0.04994l-1.72758,-0.17756l-2.11894,0.51992c-4.41008,1.18469 -9.20894,-0.78591 -11.43012,-4.99478c-0.69576,-1.3184 -1.06749,-2.72165 -1.14336,-4.1186c-0.8881,-1.23958 -1.48831,-2.6027 -1.64718,-3.96604c-0.68002,-5.8358 4.25348,-11.45883 8.64798,-15.35848c2.62718,-2.33134 6.97546,-0.87946 10.42075,-1.563c2.02044,-0.40085 -2.45732,-1.86365 -0.50938,-2.53377c1.00376,-0.5418 7.0431,-8.03893 8.0677,-8.51776c1.61499,-0.75474 4.69334,6.53596 6.03792,5.76877c0.26497,-0.15862 0.52954,-0.31839 0.7939,-0.47883c0.08386,-0.05374 0.16645,-0.10785 0.24775,-0.16235c1.14157,-0.76531 1.93392,-1.97915 3.07087,-2.75131c4.00662,-2.72109 5.58087,-2.70093 10.25843,-4.18249c2.13029,-0.67475 4.15132,-1.83243 6.37174,-2.08373c0.58576,-0.06629 1.18215,-0.14501 1.78386,-0.22197z" data-paper-data="{&quot;index&quot;:null}" fill="url(#color-1)"/><path d="M235.35663,122.11699c0,0 0.70346,-1.75865 0.25268,-3.62466c1.21177,-2.34677 2.5114,-4.5983 3.89,-6.83182c5.54122,-1.99627 11.59985,-3.1199 16.98429,-1.37882c7.38602,2.38829 15.3376,14.23612 13.49568,23.49253c0.57244,1.4996 0.92879,3.06204 1.01679,4.65453c8.67434,1.08389 16.97641,5.15117 21.83182,11.88933c6.39153,0.56213 12.40263,2.78541 16.71426,8.26504c5.32706,6.77013 10.99296,17.95947 2.36631,25.77375c-3.90342,3.53584 -9.94622,3.46818 -14.91933,5.20227c-3.24692,-0.26317 -6.93669,-0.34381 -10.69981,-0.64703c-1.7645,1.31597 -3.67242,2.43234 -5.6139,3.31714c-0.84651,0.88983 -1.78125,1.70266 -2.80196,2.42106c-1.56188,1.0993 -3.26733,2.2588 -5.0614,3.05985c-0.0656,-0.03677 -0.10238,-0.05516 -0.10238,-0.05516l-1,-0.5c-2.82329,-1.39015 -5.49782,-2.39715 -8.17515,-3.82369c-1.92346,-1.02486 -5.16621,-1.70397 -6.29922,-4.08005c-1.56152,-3.2747 -1.19052,-7.62466 -1.50405,-11.13056c-0.45324,-5.0682 -2.32013,-8.81029 -5.46358,-12.68333c-1.96689,-3.31286 -4.45389,-6.47531 -7.39836,-9.00435c-1.7127,-1.47105 -4.03936,-2.04669 -5.90342,-3.32051c-2.24367,-1.53323 -4.66835,-4.93646 -5.69492,-7.2831c-1.57911,-3.60971 -1.02098,-6.44726 -1.02098,-10.25507c0,-1.67964 -0.50497,-3.48525 0.13778,-5.03704c1.20992,-2.92113 3.71166,-5.35816 4.96884,-8.42031z" data-paper-data="{&quot;index&quot;:null}" fill="url(#color-2)"/><path d="M206.3784,208.39797c-1.60852,0.66196 -3.26258,1.13817 -4.95739,1.37243c0.18632,-0.55604 0.37497,-1.11021 0.57099,-1.65974c0.80864,-2.26697 2.53596,-4.11086 3.49515,-6.31835c0.81821,-1.88303 1.21978,-3.93572 2.1024,-5.78943c0.8669,-1.82066 1.31708,-1.71798 3.05499,-3.50424c3.09798,-3.18417 5.82405,-6.71023 8.71626,-10.0824c3.2337,-3.77033 8.35295,-9.86826 13.11772,-11.52171c0,0 3.0257,-1.20098 3.49758,-4.08279c2.15929,0.97412 4.13983,2.12455 6.00843,3.68467c7.52746,3.93794 7.60944,12.94341 13.79187,18.39558c0.81409,0.71793 1.66,1.32265 2.53233,1.83267c-0.01084,0.02416 -0.02189,0.04829 -0.03316,0.07239c-2.90525,6.21323 -7.89063,12.0346 -14.06702,15.01738c-3.09372,1.49406 -6.47993,2.39483 -9.87646,2.65337c-6.4975,3.32398 -14.34292,4.14001 -22.93033,2.029c-1.67691,-0.41222 -3.39869,-1.1359 -5.02335,-2.09882z" data-paper-data="{&quot;index&quot;:null}" fill="url(#color-3)"/><path d="M178.01661,146.40586c0.7977,-1.64143 2.10626,-3.05277 3.844,-3.96984c1.65212,-0.87188 3.45415,-1.17137 5.17906,-0.96868l2.18111,0.22415c1.13856,-0.23267 2.3725,-0.94608 3.35526,-0.39347c0.41446,0.23304 0.82163,0.47707 1.22256,0.73053c0.10107,-0.22539 0.20603,-0.44949 0.31473,-0.67222c0.01257,-0.15068 0.02645,-0.30179 0.04164,-0.45334c-2.11285,-3.42088 -3.35298,-7.80694 -1.75919,-11.17625c3.76501,-7.95933 26.80263,-6.45607 30.77474,-5.27695c0.46314,0.13749 0.86084,0.36837 1.21136,0.66658c-2.62868,0.64077 -3.7385,3.41533 -3.7385,3.41533c-1.20949,3.15029 -3.86567,5.44849 -5.03116,8.57969c-1.03589,2.78302 -0.86222,6.05766 -0.86222,8.96296c0,2.20393 -0.74621,4.40897 -0.4677,6.59523c0.64278,5.04566 3.61146,10.70426 6.59681,14.74323c0.10286,0.13917 0.6216,0.67906 1.29396,1.35987c-7.44478,1.66622 -14.36168,5.97207 -20.9941,9.43958c-4.29574,2.24586 -9.33506,3.43941 -13.03259,6.70709c-1.82197,1.61017 -3.19608,3.66989 -4.91003,5.39459c-1.25888,1.26678 -2.8461,2.17706 -4.22813,3.30616c-0.42751,-0.56158 -0.84216,-1.16532 -1.24286,-1.81346c-0.24483,0.15262 -0.50347,0.30125 -0.77662,0.4454c-6.88865,3.6354 -10.92695,-1.94986 -11.82157,-3.38908c-3.69309,1.46924 -5.83694,1.58789 -9.37703,-1.51996c-3.09618,1.43972 -6.6412,0.94348 -9.20146,-1.04557c-0.5282,0.0322 -1.05561,0.01675 -1.57601,-0.0444l-1.53584,-0.15785l-1.88376,0.46221c-3.92061,1.0532 -8.18684,-0.69868 -10.16149,-4.44041c-0.61854,-1.17207 -0.94901,-2.41958 -1.01646,-3.66148c-0.78953,-1.102 -1.32312,-2.31383 -1.46436,-3.52585c-0.60454,-5.18808 3.78139,-10.18701 7.68814,-13.65384c2.33559,-2.07258 6.20125,-0.78185 9.26415,-1.38952c1.79619,-0.35636 -2.18458,-1.65681 -0.45284,-2.25255c0.89235,-0.48166 6.26138,-7.14669 7.17226,-7.57237c1.43574,-0.67097 4.17243,5.81053 5.36777,5.12849c0.23556,-0.14101 0.47076,-0.28305 0.70578,-0.42568c0.07455,-0.04777 0.14797,-0.09588 0.22025,-0.14433c1.01486,-0.68037 1.71927,-1.75948 2.73003,-2.44594c3.56193,-2.41907 4.96145,-2.40115 9.11985,-3.71827c1.89385,-0.59986 3.69056,-1.62905 5.66454,-1.85246c0.52075,-0.05893 1.05094,-0.12891 1.58587,-0.19733z" data-paper-data="{&quot;index&quot;:null}" fill="url(#color-4)"/><path d="M207.46554,203.51192c-1.16297,0.4786 -2.35272,0.84799 -3.56697,1.08127c0.58254,-0.90784 1.16163,-1.81835 1.58856,-2.80089c0.81821,-1.88303 1.21978,-3.93572 2.1024,-5.78943c0.8669,-1.82066 1.31708,-1.71798 3.05499,-3.50424c3.09798,-3.18417 5.82405,-6.71023 8.71626,-10.0824c3.2337,-3.77033 8.35295,-9.86826 13.11772,-11.52171c0,0 3.0257,-1.20098 3.49758,-4.08279c2.15929,0.97412 4.13983,2.12455 6.00843,3.68467c6.68785,3.4987 7.49852,10.99751 11.93199,16.45051c-0.07045,0.3107 -0.17322,0.61683 -0.31386,0.91761c-2.5828,5.52362 -7.01485,10.69888 -12.50573,13.3506c-2.75034,1.32824 -5.76073,2.12902 -8.78027,2.35888c-5.77634,2.95506 -12.75099,3.68051 -20.38529,1.8038c-1.49079,-0.36647 -3.02147,-1.00983 -4.46581,-1.86587z" data-paper-data="{&quot;index&quot;:null}" fill="url(#color-5)"/><path d="M273.89459,190.416c-2.03615,1.43311 -4.34678,2.98132 -6.77783,3.47096c-0.36094,-0.17891 -0.72156,-0.36347 -1.08223,-0.55564c-1.92346,-1.02486 -5.16621,-1.70397 -6.29922,-4.08005c-1.56152,-3.2747 -1.19052,-7.62466 -1.50405,-11.13056c-0.45324,-5.0682 -2.32013,-8.81029 -5.46358,-12.68333c-1.96689,-3.31286 -4.45389,-6.47531 -7.39836,-9.00435c-1.7127,-1.47105 -4.03936,-2.04669 -5.90342,-3.32051c-2.24367,-1.53323 -4.66835,-4.93646 -5.69492,-7.2831c-1.57911,-3.60971 -1.02098,-6.44726 -1.02098,-10.25507c0,-1.67964 -0.50497,-3.48525 0.13778,-5.03704c1.09401,-2.64128 3.24417,-4.88677 4.57548,-7.55646c5.55542,-3.03609 11.71797,-9.41172 17.41554,-7.56939c6.56624,2.12321 13.63528,12.65605 11.99779,20.88509c0.50891,1.33316 0.82571,2.72218 0.90394,4.13792c7.71157,0.96359 15.09219,4.57944 19.4087,10.56973c5.68213,0.49974 11.02606,2.47625 14.85914,7.3477c4.73581,6.01871 9.77285,15.96615 2.10367,22.91312c-3.47018,3.1434 -8.84229,3.08325 -13.26343,4.62487c-2.88655,-0.23396 -6.16679,-0.30565 -9.51224,-0.57522c-1.56866,1.16991 -3.26482,2.16237 -4.99081,2.94897c-0.75256,0.79107 -1.58355,1.51369 -2.49097,2.15235z" data-paper-data="{&quot;index&quot;:null}" fill="url(#color-6)"/></g></g></svg>