<svg version="1.1" xmlns="http://www.w3.org/2000/svg" xmlns:xlink="http://www.w3.org/1999/xlink" width="2029.51276" height="2144.2416" viewBox="0,0,2029.51276,2144.2416"><defs><radialGradient cx="248.42121" cy="163.15757" r="1072.1208" gradientUnits="userSpaceOnUse" id="color-1"><stop offset="0" stop-color="#33e5ed" stop-opacity="0"/><stop offset="1" stop-color="#33e5ed"/></radialGradient><radialGradient cx="241.5" cy="177" r="190.96784" gradientUnits="userSpaceOnUse" id="color-2"><stop offset="0" stop-color="#33e5ed"/><stop offset="1" stop-color="#33e5ed" stop-opacity="0"/></radialGradient><radialGradient cx="266.34846" cy="125.77436" r="126.97593" gradientUnits="userSpaceOnUse" id="color-3"><stop offset="0" stop-color="#f4f4f5"/><stop offset="1" stop-color="#f4f4f5" stop-opacity="0"/></radialGradient><radialGradient cx="226.99453" cy="169.99907" r="126.97593" gradientUnits="userSpaceOnUse" id="color-4"><stop offset="0" stop-color="#f4f4f5"/><stop offset="1" stop-color="#f4f4f5" stop-opacity="0"/></radialGradient><radialGradient cx="248.36654" cy="199.15058" r="126.97593" gradientUnits="userSpaceOnUse" id="color-5"><stop offset="0" stop-color="#f4f4f5"/><stop offset="1" stop-color="#f4f4f5" stop-opacity="0"/></radialGradient><radialGradient cx="188.91699" cy="140.86734" r="126.97593" gradientUnits="userSpaceOnUse" id="color-6"><stop offset="0" stop-color="#f4f4f5"/><stop offset="1" stop-color="#f4f4f5" stop-opacity="0"/></radialGradient></defs><g transform="translate(774.75638,892.1208)"><g data-paper-data="{&quot;isPaintingLayer&quot;:true}" fill-rule="nonzero" stroke="none" stroke-linecap="butt" stroke-linejoin="miter" stroke-miterlimit="10" stroke-dasharray="" stroke-dashoffset="0" style="mix-blend-mode: normal"><path d="M1254.75638,180c0,592.11593 -454.3219,1072.1208 -1014.75638,1072.1208c-560.43448,0 -1014.75638,-480.00486 -1014.75638,-1072.1208c0,-592.11593 454.3219,-1072.1208 1014.75638,-1072.1208c560.43448,0 1014.75638,480.00486 1014.75638,1072.1208z" fill="url(#color-1)" stroke-width="0"/><path d="M420.75,180c0,105.46862 -80.92453,190.96784 -180.75,190.96784c-99.82547,0 -180.75,-85.49922 -180.75,-190.96784c0,-105.46862 80.92453,-190.96784 180.75,-190.96784c99.82547,0 180.75,85.49922 180.75,190.96784z" fill="url(#color-2)" stroke-width="0"/><path d="M268.95448,47.02217c1.71518,-1.02865 2.74383,0.68654 2.74383,0.68654l1.02865,1.71519c2.69807,4.53443 6.95548,7.74615 9.68723,12.26407c2.61346,4.42229 4.93609,10.36123 3.23724,15.63464c-0.69945,2.17119 -2.79567,3.12276 -4.06587,4.80386c-1.46624,1.94055 -2.85809,3.98885 -3.78821,6.23617c-2.77959,6.71587 1.92569,12.75991 4.76228,18.2964c2.21877,4.33062 3.57742,8.88414 6.10271,13.08245c0,0 1.02865,1.71519 -0.68654,2.74384c-0.02101,0.0126 -0.04192,0.0248 -0.06273,0.03658c4.06015,0.56272 8.12206,0.92495 12.01169,0.37083c0,0 1.98171,-0.26983 2.25154,1.71187c0.26983,1.98172 -1.71188,2.25155 -1.71188,2.25155c-8.0028,1.04796 -16.41801,-1.28131 -24.41535,-1.88938c-2.63157,-0.20009 -6.78126,-0.56939 -9.06723,1.15689c-1.84775,1.39536 -2.11083,4.08193 -2.63275,6.04407c-1.97757,7.43458 -1.15642,14.6589 -4.1468,21.94088c-1.61612,2.67787 -2.34536,5.4323 -6.01397,5.90393c-2.37334,0.30511 -4.68087,-1.26491 -7.07339,-1.22455c-5.74866,0.09696 -13.18687,0.93298 -18.36719,3.61909c-2.32071,1.20333 -0.04501,6.26536 0.32322,7.91036c1.56116,6.97448 2.87327,16.17939 -6.55773,18.12205c-1.56962,0.32332 -3.23101,0.19298 -4.80667,-0.09948c-2.25612,-0.41875 -4.84907,-1.89381 -6.97389,-3.07393c2.34682,2.22781 3.06952,6.17821 5.17024,8.61371c0.79657,0.92351 1.9007,1.52875 2.84604,2.29928c4.94576,4.03116 10.76326,6.20209 15.89746,9.80004c2.95563,2.07124 5.68284,5.15142 8.09021,7.8054c1.30891,1.443 2.62189,2.91812 3.67131,4.55361c4.43142,-1.75398 8.34934,-4.95982 12.96941,-6.34912c5.42687,-1.63191 11.12679,-2.73566 16.52386,-1.08821c1.28198,0.39133 2.72568,0.47582 3.82368,1.24458c0.14335,0.10037 0.28416,0.20342 0.42253,0.30902c1.74592,-0.70939 4.20217,-1.6839 5.45728,-2.8031c2.34581,-2.09178 4.37418,-5.80268 5.97056,-8.44635c4.13374,-6.84561 7.97807,-13.85955 12.08643,-20.72223c1.72218,-2.87675 5.79088,-7.50507 4.97647,-11.15078c-0.67866,-3.03804 -3.14219,-5.96737 -4.72059,-8.59928c-2.03697,-3.52822 -3.7862,-8.57725 -2.12654,-12.79549c0.57176,-1.4532 1.93341,-2.4544 2.95722,-3.6336c0.68452,-0.78843 1.18594,-1.89898 2.16388,-2.2648c1.50053,-0.56131 3.19463,-0.25086 4.79432,-0.3381c3.99074,-0.21766 7.99824,-0.28294 11.9925,-0.42422c7.99499,-0.28282 15.98989,-0.56861 23.985,-0.84844c3.69449,-0.12931 7.83879,0.90539 11.4659,0.16545c2.35065,-0.47954 4.63246,-1.24997 6.95018,-1.86938c4.40914,-0.71288 8.86172,-1.05024 13.3058,-1.48584l3.7359,-0.50904c0,0 1.98171,-0.26984 2.25154,1.71188c0.26983,1.98172 -1.71188,2.25155 -1.71188,2.25155l-3.81026,0.51845c-4.31696,0.42436 -8.65024,0.73723 -12.93406,1.42442c-0.72344,0.19457 -6.908,1.86113 -7.11346,1.90079c-3.85936,0.745 -8.08665,-0.25066 -11.99825,-0.11079c-7.9949,0.28587 -15.99,0.56564 -23.98501,0.84844c-3.99264,0.14123 -7.99776,0.37642 -11.9925,0.42422c-1.06697,0.01277 -2.17795,-0.35965 -3.20068,-0.05529c-0.48899,0.14553 -0.53418,0.8739 -0.86242,1.26446c-0.71175,0.84692 -1.83816,1.41279 -2.25032,2.43942c-0.36652,0.91294 0.09101,1.96625 0.08664,2.95001c-0.00512,1.15203 -0.41616,2.3422 -0.1151,3.45422c0.30107,1.11202 1.22799,1.94959 1.84199,2.92439c1.79998,3.00139 4.58322,6.42152 5.22265,9.92455c0.92904,5.08974 -3.03437,9.85648 -5.47681,13.93723c-4.11057,6.86781 -7.95289,13.89006 -12.09529,20.73695c-1.8076,2.98774 -4.08645,7.04146 -6.74484,9.37436c-1.42964,1.2546 -3.28182,2.12341 -5.1012,2.88826c3.29817,4.33825 5.18179,10.15609 9.20244,13.7277c1.97794,1.75704 4.07246,1.91116 6.52773,2.50021c9.74811,2.44828 21.66205,0.38278 29.45643,-6.35666c3.09895,-2.67951 3.92689,-7.34675 7.17869,-9.56514c1.04813,-0.71505 2.13451,-1.78216 3.4012,-1.70897c1.10245,0.06369 6.28597,3.75419 7.23439,4.4009c5.16848,3.52419 10.14513,7.25884 13.4015,12.60916c0.94293,1.57225 1.88586,3.14452 2.82879,4.71678l-1.11534,3.001c0,0 -1.71518,1.02865 -2.74384,-0.68654c-0.3357,-0.55976 -0.37917,-1.04639 -0.2854,-1.44801c-0.70486,-1.17531 -1.40974,-2.35061 -2.1146,-3.52592c-2.85266,-4.84084 -7.58978,-8.20523 -12.22363,-11.36098c-1.72264,-1.17316 -3.00435,-3.23872 -5.03529,-3.70674c-0.88125,-0.20308 -1.47295,1.12188 -1.94071,1.89587c-1.90486,3.15195 -3.06704,5.90405 -6.00554,8.43515c-8.80437,7.58373 -21.97933,9.8874 -32.99486,7.18365c-3.41898,-0.85512 -5.3551,-0.93804 -8.1937,-3.36482c-4.29046,-3.66802 -6.69397,-9.73931 -10.15051,-14.11105c-0.7058,-0.89269 -1.15619,-2.04467 -2.08319,-2.70476c-2.51983,-1.79427 -6.48028,-1.69978 -9.2593,-1.13783c-2.53106,0.51181 -5.13219,0.72566 -7.60837,1.45831c-4.5014,1.33186 -8.29644,4.24386 -12.54652,6.09527c0.08999,0.29832 0.16915,0.60266 0.23647,0.91351c0.11931,0.55097 0.2486,5.71724 0.28431,6.97559c-1.59051,4.85828 -3.94382,10.86886 -7.18301,14.92922c-4.25365,5.33198 -10.93057,9.81193 -17.44011,12.86738c1.78685,0.59276 3.52677,1.34127 5.2007,2.19147c8.26254,4.1966 18.01181,7.50939 27.2197,8.61749l1.68847,0.205c0,0 1.98542,0.24106 1.74437,2.22648c-0.24106,1.98542 -2.22648,1.74437 -2.22648,1.74437l-1.68848,-0.205c-9.0746,-1.1109 -18.01218,-4.35739 -26.40423,-7.93186c-1.44651,-0.61612 -4.29115,-2.36329 -5.50678,-2.81854c-2.02876,-0.75977 -4.39956,-0.56183 -5.94083,-1.60503l-2.40346,0.89062c-0.89277,0.35024 -1.93385,0.01543 -2.4435,-0.83437c-0.56484,-0.94183 -0.26423,-2.16164 0.67029,-2.73399l2.01093,-1.23593l0.05944,0.09671c0.20864,-0.15033 0.43469,-0.27583 0.68308,-0.36945c0.46911,-0.1768 0.95199,-0.17834 1.44185,-0.08616c7.06836,-2.61734 15.40382,-7.51228 20.18654,-13.48636c2.79371,-3.48962 4.93874,-8.83052 6.37094,-13.02234c-0.10741,-1.84642 0.14416,-3.73216 -0.2277,-5.54392c-0.03625,-0.17665 -0.07851,-0.35098 -0.12633,-0.52311c-0.41986,0.05682 -1.90371,0.13362 -2.27473,-1.53754c-0.20694,-0.93209 0.12988,-1.518 0.53846,-1.87583c-0.8475,-1.16997 -1.85001,-2.23955 -2.77646,-3.25705c-2.20461,-2.4213 -4.70167,-5.30776 -7.4066,-7.20663c-5.21692,-3.6623 -11.14866,-5.85536 -16.15937,-9.99769c-1.11537,-0.92206 -2.39117,-1.68207 -3.33637,-2.7779c-3.03364,-3.51707 -3.49936,-7.53246 -7.53225,-9.99643c0,0 -1.68711,-1.07409 -0.61302,-2.7612c0.46282,-0.72697 1.03946,-0.94126 1.5459,-0.94972c-8.12534,-4.64815 -15.90201,-9.84831 -23.61439,-15.1567c-5.03493,-3.46551 -11.6185,-7.67726 -14.74888,-13.15948c-2.55696,-4.47799 -2.30882,-8.64259 -1.82149,-13.52382c0.4181,-4.18772 1.58167,-8.44925 -0.75109,-12.15294c-0.9603,-2.49196 -5.58958,-1.38383 -7.63085,-0.90016c-5.93212,1.40562 -11.75966,3.10386 -17.35756,5.56246c-0.34227,0.15033 -5.7947,3.17616 -6.25111,3.54856c-0.64368,0.52522 -1.11342,1.33676 -1.71103,1.91547c0.42074,0.05586 1.8712,0.37267 1.78948,2.08182c-0.09553,1.99772 -2.09324,1.90219 -2.09324,1.90219l-3.87445,-0.87229c0.06422,-1.46138 -0.36166,-3.03045 0.19264,-4.38415c1.21374,-2.96425 4.11233,-4.38444 6.6388,-5.83763c5.37275,-3.09035 11.84596,-5.46731 17.86756,-6.89358c4.11811,-0.97541 7.21287,-2.03144 11.37866,-1.11684c0.9431,0.20706 2.03038,0.05095 2.83798,0.58019c0.80104,0.52495 1.09569,1.57111 1.64353,2.35667c4.72098,8.1593 -2.0013,17.52851 2.56217,25.65949c2.17699,3.87886 6.48267,7.07838 10.42589,9.78185c0.55924,-1.46565 0.22051,-1.88816 -1.06063,-3.00091c-0.77307,0.14673 -1.53994,0.26167 -2.22342,-0.05145c-1.04555,-0.47901 -1.42042,-1.8127 -2.04964,-2.77536c-2.34907,-3.594 -3.77927,-7.36595 -3.00155,-11.74971c0.73615,-4.14948 3.24271,-8.28858 5.90628,-11.51162c8.83627,-10.69228 21.76773,-14.75734 35.03255,-16.03573c2.29593,-0.50956 4.11709,-0.7923 6.29656,-1.85467c3.81926,-1.86166 4.19477,-2.09398 5.39214,-5.85441c0.99056,-3.11093 2.01068,-6.76952 1.4049,-10.11154c-1.3009,-7.17696 -8.56609,-12.28855 -10.38959,-19.09816c-2.16948,-8.10163 2.13762,-16.8363 6.91281,-23.00087l0.96374,-1.24071c0,0 1.22688,-1.57949 2.80636,-0.3526c1.57949,1.22688 0.3526,2.80636 0.3526,2.80636l-0.96373,1.24072c-3.91993,5.03155 -8.05324,12.61069 -6.2605,19.33299c0.53317,1.99926 2.17424,3.52119 3.23838,5.29572c1.95203,3.25514 4.18403,6.64141 5.74176,10.10863c2.70292,6.01622 2.05794,15.03454 -1.60326,20.68339c-0.49984,0.77119 -1.50059,1.06226 -2.27193,1.56188c-3.6005,2.33218 -6.83059,3.50953 -10.99158,4.43357c-12.30862,1.2126 -24.33856,4.66363 -32.57788,14.63358c-3.48019,4.21118 -6.6655,9.96123 -4.46459,15.53334c0.91632,2.31988 1.64114,4.58212 3.63736,3.82805c0,0 1.98172,-0.26983 2.25155,1.71188c0.00085,0.00628 0.00168,0.01252 0.00249,0.01876c2.15395,2.325 2.56346,4.01092 1.4327,7.40789l-0.13806,0.33925c8.66505,5.96113 17.41251,11.7865 26.66424,16.81194c1.83383,0.99923 4.56331,2.67379 6.68562,3.12973c1.04043,0.22352 2.14734,0.32285 3.19053,0.11257c8.33558,-1.68024 3.31759,-12.28723 2.59771,-17.34978c-0.23014,-1.61845 -0.79625,-3.31225 -0.36936,-4.89026c0.35277,-1.30406 1.44106,-2.37566 2.54544,-3.15375c1.77932,-1.25363 6.20985,-2.13771 8.31918,-2.64385c4.00675,-0.96145 8.15698,-1.67058 12.30061,-1.70272c1.4701,-0.0114 2.95453,0.03183 4.4003,0.29834c0.8271,0.15247 1.49966,0.90555 2.33981,0.94413c1.54656,0.07101 2.05534,-2.34614 2.81078,-3.69752c2.1923,-5.30564 1.81643,-9.37669 2.19851,-14.93592c0.14839,-2.15905 1.09868,-4.18662 1.67136,-6.27361c0.89659,-3.26746 1.12231,-5.89166 4.09162,-8.19818c3.07488,-2.38852 8.15485,-2.21224 11.76719,-1.94767c2.98812,0.21886 6.07587,0.72524 9.18469,1.19606c-0.1959,-0.20272 -0.2993,-0.37514 -0.2993,-0.37514c-2.56607,-4.29053 -3.97103,-8.92007 -6.23992,-13.33079c-1.64275,-3.19349 -4.46975,-6.58229 -5.37257,-10.07468c-0.53802,-2.08122 -0.07046,-6.49889 0.11221,-8.64687c0.31477,-3.7014 2.47168,-7.12044 4.70156,-10.08225c1.02881,-1.36651 2.97344,-2.13635 3.48178,-3.76957c1.23876,-3.97996 -0.94402,-8.89257 -2.93119,-12.14935c-2.68579,-4.52156 -6.95447,-7.73872 -9.68723,-12.26407l-1.02866,-1.7152c0,0 -1.02865,-1.71518 0.68655,-2.74384z" fill="url(#color-3)" stroke-width="0.5"/><path d="M154.29714,200.39297c-1.64898,-1.13174 -0.51723,-2.78072 -0.51723,-2.78072l1.13175,-1.64898c3.00089,-4.33997 4.15023,-9.54763 7.12209,-13.91135c2.93411,-4.21637 7.36838,-8.79926 12.87053,-9.44834c2.26536,-0.26725 4.00277,1.24306 6.05993,1.69872c2.37464,0.52599 4.81632,0.9395 7.24688,0.85034c7.26347,-0.26642 10.80205,-7.05969 14.65653,-11.94252c3.01496,-3.81933 6.59045,-6.94924 9.35756,-10.99225c0,0 1.13175,-1.64898 2.78073,-0.51723c0.0202,0.01386 0.03999,0.0278 0.05936,0.04182c-1.17746,-3.9262 -2.53796,-7.7706 -4.66007,-11.07709c0,0 -1.06983,-1.68981 0.61997,-2.75963c1.68982,-1.06983 2.75965,0.61997 2.75965,0.61997c4.28241,6.84135 5.66531,15.46276 8.43954,22.98811c0.91287,2.47626 2.30347,6.40342 4.8243,7.76397c2.0376,1.09973 4.59008,0.22125 6.59148,-0.12046c7.58336,-1.29475 13.81116,-5.04703 21.67712,-5.35729c3.10748,0.35553 5.91561,-0.12728 7.87075,3.01255c1.26484,2.03126 0.79716,4.78279 1.82924,6.94163c2.47982,5.1872 6.33461,11.60331 10.93241,15.19651c2.05974,1.60971 5.71612,-2.56568 7.0588,-3.58491c5.69274,-4.32127 13.51732,-9.344 19.20751,-1.57615c0.94703,1.29282 1.5197,2.85783 1.90928,4.41233c0.55784,2.22581 0.29525,5.19739 0.10611,7.62056c1.0495,-3.06092 4.34112,-5.36162 5.68186,-8.28516c0.50839,-1.10857 0.59941,-2.36441 0.90679,-3.54462c1.60812,-6.17452 1.16197,-12.36784 2.29775,-18.53349c0.65383,-3.54941 2.32017,-7.31085 3.73202,-10.60414c0.76764,-1.79059 1.56279,-3.59825 2.61342,-5.23296c-3.43861,-3.29999 -7.98382,-5.529 -11.16929,-9.15226c-3.74174,-4.25598 -7.1168,-8.98 -7.86407,-14.57321c-0.17749,-1.32857 -0.70129,-2.67655 -0.45903,-3.99485c0.03163,-0.17211 0.06676,-0.34303 0.10522,-0.51279c-1.37145,-1.29252 -3.2795,-3.12068 -4.81942,-3.79638c-2.8781,-1.2629 -7.09647,-1.56354 -10.16464,-1.91534c-7.94483,-0.911 -15.92232,-1.48879 -23.87211,-2.3696c-3.33246,-0.36923 -9.23393,-2.14356 -12.21033,0.11377c-2.48029,1.88107 -4.11916,5.33998 -5.85581,7.87026c-2.36093,3.32018 -6.22452,7.01141 -10.75084,7.25714c-1.55934,0.08465 -3.03627,-0.73703 -4.53452,-1.17744c-1.00174,-0.29445 -2.22023,-0.28839 -2.95974,-1.02548c-1.1347,-1.13098 -1.5572,-2.80067 -2.30206,-4.21905c-1.85822,-3.53842 -3.58484,-7.15547 -5.37507,-10.72887c-3.58338,-7.15257 -7.16942,-14.30382 -10.75013,-21.45774c-1.65463,-3.30578 -2.4379,-7.50487 -4.61977,-10.49533c-1.41402,-1.93805 -3.06392,-3.69249 -4.59144,-5.54241c-2.48261,-3.71286 -4.64182,-7.62146 -6.88683,-11.48145l-2.01716,-3.18546c0,0 -1.06984,-1.6898 0.61998,-2.75964c1.68982,-1.06983 2.75965,0.61997 2.75965,0.61997l2.05665,3.24916c2.1819,3.74907 4.2692,7.55937 6.67632,11.16896c0.47791,0.57691 4.56639,5.50748 4.68793,5.67782c2.28309,3.19956 3.13639,7.45787 4.89095,10.95668c3.58611,7.15122 7.16677,14.30516 10.75014,21.45775c1.78951,3.57194 3.66965,7.11615 5.37507,10.72887c0.45551,0.96493 0.57906,2.13014 1.28132,2.93354c0.33577,0.38412 1.01692,0.12218 1.50863,0.25818c1.06626,0.29488 2.04946,1.08376 3.1545,1.03144c0.98267,-0.04652 1.75014,-0.90079 2.64654,-1.30609c1.04973,-0.47463 2.30301,-0.596 3.18898,-1.33241c0.88596,-0.73642 1.26197,-1.92777 1.89296,-2.89166c1.98045,-2.88549 3.93262,-6.83932 6.85207,-8.87817c4.24183,-2.96233 10.22538,-1.34134 14.95235,-0.81805c7.95537,0.88069 15.93959,1.4532 23.88918,2.37153c3.46892,0.40073 8.10325,0.78651 11.33065,2.23335c1.73565,0.77808 3.29627,2.1009 4.74871,3.43715c2.57283,-4.80405 7.07962,-8.93734 8.65473,-14.07943c0.77487,-2.52963 0.04362,-4.4984 -0.4422,-6.97616c-1.82922,-9.883 -8.66409,-19.8576 -18.03533,-24.14157c-3.72588,-1.70326 -8.31448,-0.51441 -11.68463,-2.5485c-1.08629,-0.65563 -2.50864,-1.19957 -2.96907,-2.38188c-0.40074,-1.02901 0.79868,-7.27801 0.99219,-8.40951c1.05445,-6.16614 2.38008,-12.24539 5.89063,-17.43249c1.03743,-1.51156 2.07488,-3.02313 3.11232,-4.5347l3.19298,-0.23429c0,0 1.64898,1.13174 0.51723,2.78073c-0.36935,0.53815 -0.79379,0.78013 -1.19801,0.86195c-0.77552,1.12993 -1.55102,2.25988 -2.32654,3.38982c-3.2152,4.60802 -4.3038,10.31542 -5.24563,15.84211c-0.35013,2.05456 -1.69521,4.07942 -1.27586,6.12097c0.18196,0.88585 1.63298,0.87268 2.53141,0.97603c3.65871,0.42086 6.64484,0.33272 10.16901,1.95181c10.55918,4.85114 18.13527,15.87337 20.25946,27.01518c0.64481,3.4648 1.3749,5.25991 0.34907,8.85081c-1.55053,5.42755 -6.0715,10.13905 -8.60889,15.10104c-0.51813,1.01321 -1.3783,1.90203 -1.59289,3.01962c-0.58328,3.03788 1.15033,6.6 2.81751,8.89331c1.51842,2.08868 2.79505,4.36505 4.49146,6.31195c3.08387,3.53924 7.31076,5.77876 10.76252,8.87331c0.23384,-0.20594 0.47766,-0.40454 0.73232,-0.59509c0.45139,-0.33772 5.09554,-2.60464 6.22496,-3.16063c5.07958,-0.57489 11.52435,-0.93552 16.56425,0.32078c6.6183,1.64976 13.46997,5.85759 18.95663,10.50586c-0.20437,-1.87148 -0.24758,-3.76508 -0.17086,-5.64098c0.37866,-9.25946 -0.66489,-19.50318 -3.48805,-28.33737l-0.51605,-1.62069c0,0 -0.6068,-1.90573 1.29893,-2.51253c1.90573,-0.6068 2.51253,1.29893 2.51253,1.29893l0.51605,1.6207c2.76516,8.71415 3.53131,18.19218 3.77226,27.31058c0.04153,1.57171 -0.36379,4.88536 -0.27202,6.18019c0.15314,2.16094 1.31947,4.23447 1.01206,6.07003l1.80981,1.81505c0.68991,0.66613 0.81858,1.75212 0.25785,2.56912c-0.62146,0.90547 -1.85576,1.1396 -2.76501,0.52791l-1.96051,-1.31445l0.06321,-0.09429c-0.2235,-0.12718 -0.43167,-0.28053 -0.62014,-0.46745c-0.35594,-0.35303 -0.55823,-0.79149 -0.67821,-1.2753c-5.32076,-5.3387 -13.23981,-10.88207 -20.66211,-12.7458c-4.33556,-1.08865 -10.08471,-0.81723 -14.49238,-0.37565c-1.63435,0.86585 -3.45381,1.42162 -4.94662,2.51352c-0.14556,0.10646 -0.2865,0.21741 -0.42313,0.33251c0.22635,0.35816 0.91352,1.67555 -0.45179,2.70819c-0.7615,0.57596 -1.43443,0.51344 -1.9298,0.29076c-0.71132,1.25742 -1.26686,2.61404 -1.80669,3.87982c-1.28461,3.0121 -2.87054,6.48367 -3.47193,9.73339c-1.15988,6.26764 -0.68633,12.57405 -2.36852,18.85389c-0.37444,1.39787 -0.53478,2.87421 -1.13803,4.18963c-1.93614,4.22186 -5.39377,6.31591 -5.95656,11.00831c0,0 -0.27483,1.98103 -2.25586,1.70621c-0.85362,-0.11842 -1.28839,-0.55363 -1.50678,-1.01064c-0.84636,9.32256 -2.33975,18.55771 -3.95831,27.77943c-1.05665,6.02028 -2.1476,13.75928 -5.8305,18.88668c-3.00827,4.18817 -6.89858,5.69514 -11.54006,7.28275c-3.98204,1.36204 -8.34134,2.0769 -10.73878,5.73905c-1.86654,1.90999 1.06708,5.6586 2.35614,7.3136c3.74617,4.80958 7.71492,9.40231 12.27957,13.46989c0.2791,0.2487 5.29904,3.94801 5.82756,4.20811c0.7454,0.36682 1.6788,0.45635 2.45368,0.75902c-0.12425,-0.40584 -0.4396,-1.85662 1.14861,-2.49337c1.85637,-0.74425 2.60062,1.11211 2.60062,1.11211l0.81869,3.88613c-1.35562,0.54959 -2.60527,1.58965 -4.06687,1.64878c-3.20049,0.12952 -5.69786,-1.91546 -8.07041,-3.60832c-5.04546,-3.60001 -9.90003,-8.49751 -13.7022,-13.37987c-2.60027,-3.33899 -4.84809,-5.71386 -5.74952,-9.88252c-0.20407,-0.94375 -0.79838,-1.86752 -0.6531,-2.82209c0.1441,-0.94682 0.97284,-1.65 1.45927,-2.475c5.45555,-7.68757 16.77214,-5.4726 22.26747,-13.00516c2.62153,-3.59338 3.7397,-8.83986 4.55757,-13.55036c-1.56545,0.10122 -1.80874,0.58502 -2.28761,2.21297c0.45505,0.64195 0.87862,1.29148 0.87823,2.04327c-0.0006,1.15005 -1.05743,2.0458 -1.67105,3.01848c-2.2909,3.63135 -5.12591,6.50117 -9.43583,7.61775c-4.07959,1.05691 -8.88629,0.49959 -12.92529,-0.58163c-13.39921,-3.58688 -22.47571,-13.65488 -29.15684,-25.18537c-1.41856,-1.87581 -2.43333,-3.41425 -4.30613,-4.95416c-3.28184,-2.69852 -3.64933,-2.94334 -7.56702,-2.46769c-3.24103,0.39349 -6.99237,0.98795 -9.7794,2.92921c-5.98514,4.16884 -7.61078,12.90203 -13.04445,17.39326c-6.46463,5.34338 -16.19939,5.06065 -23.79178,3.28302l-1.52919,-0.3602c0,0 -1.94673,-0.45854 -1.48818,-2.40527c0.45854,-1.94673 2.40527,-1.48818 2.40527,-1.48818l1.52919,0.36018c6.20626,1.47128 14.81794,2.07671 20.18501,-2.35023c1.59621,-1.3166 2.29743,-3.44208 3.46838,-5.14802c2.14794,-3.12933 4.29865,-6.5678 6.80349,-9.42681c4.34633,-4.96086 12.81546,-8.12628 19.47542,-7.1471c0.90923,0.13369 1.59026,0.92262 2.3655,1.41618c3.6187,2.30384 6.03315,4.7513 8.60454,8.15066c6.22349,10.68834 14.36656,20.192 26.86057,23.53656c5.27731,1.41271 11.83131,1.91704 15.98265,-2.40255c1.72836,-1.79841 3.48397,-3.39869 1.96776,-4.90023c0,0 -1.06983,-1.68982 0.61997,-2.75965c0.00536,-0.00339 0.01069,-0.00674 0.01602,-0.01007c1.21812,-2.92597 2.58083,-3.99976 6.1403,-4.38477l0.36593,-0.0156c1.81578,-10.35959 3.47382,-20.73764 4.19465,-31.24145c0.14571,-2.08331 0.53291,-5.26203 0.06456,-7.38164c-0.2296,-1.03911 -0.59979,-2.087 -1.22501,-2.94814c-4.99582,-6.88091 -12.55361,2.09507 -16.85774,4.85589c-1.37599,0.88261 -2.68072,2.10208 -4.29328,2.3704c-1.33261,0.22174 -2.75983,-0.32207 -3.92685,-1.00262c-1.88025,-1.09647 -4.52744,-4.75756 -5.86525,-6.4651c-2.54124,-3.24354 -4.91273,-6.72252 -6.66585,-10.47715c-0.62198,-1.33209 -1.20024,-2.69994 -1.55938,-4.12553c-0.20545,-0.81556 0.19955,-1.74045 -0.1149,-2.52049c-0.57885,-1.4359 -2.98855,-0.89294 -4.53172,-1.01768c-5.73675,0.21377 -9.28238,2.24926 -14.49661,4.21466c-2.02506,0.7633 -4.26419,0.7427 -6.40024,1.09019c-3.34427,0.54407 -5.82449,1.43057 -9.15726,-0.30998c-3.45126,-1.80243 -5.4044,-6.49523 -6.66668,-9.89018c-1.04414,-2.8083 -1.86828,-5.82681 -2.73352,-8.84969c-0.10284,0.26248 -0.21661,0.42824 -0.21661,0.42824c-2.83401,4.11846 -6.45936,7.32211 -9.52631,11.22034c-2.22055,2.82244 -4.12602,6.80302 -6.92622,9.07696c-1.66872,1.35511 -5.88044,2.76784 -7.9097,3.49536c-3.49682,1.25368 -7.50327,0.71473 -11.12429,-0.08079c-1.67065,-0.36703 -3.17974,-1.8151 -4.8764,-1.59788c-4.13454,0.52934 -7.6937,4.55806 -9.82852,7.72003c-2.99429,4.32345 -4.14389,9.54362 -7.12209,13.91135l-1.13176,1.64899c0,0 -1.13174,1.64898 -2.78074,0.51722z" fill="url(#color-4)" stroke-width="0.5"/><path d="M221.95827,273.38872c-1.94662,0.45895 -2.40557,-1.48768 -2.40557,-1.48768l-0.45894,-1.94663c-1.19295,-5.1398 -4.27339,-9.49314 -5.50345,-14.62743c-1.14641,-5.00725 -1.55497,-11.37111 1.66568,-15.87914c1.32601,-1.85607 3.61224,-2.12582 5.33314,-3.34156c1.98649,-1.40338 3.93483,-2.93201 5.50374,-4.79053c4.68854,-5.55398 2.04187,-12.74183 1.02138,-18.87841c-0.79823,-4.8 -0.70927,-9.55106 -1.83972,-14.31814c0,0 -0.45894,-1.94663 1.48769,-2.40557c0.02385,-0.00562 0.04747,-0.01089 0.07088,-0.01579c-3.69728,-1.76962 -7.45716,-3.34877 -11.33128,-4.00254c0,0 -1.97002,-0.34498 -1.62504,-2.31499c0.34498,-1.97003 2.315,-1.62505 2.315,-1.62505c7.94291,1.43288 15.25272,6.20864 22.68732,9.21762c2.4464,0.99012 6.28775,2.60267 8.99013,1.65247c2.18433,-0.76805 3.25118,-3.24771 4.34454,-4.95854c4.14277,-6.48238 5.55523,-13.6147 10.61658,-19.64399c2.35329,-2.06031 3.88487,-4.463 7.52336,-3.79779c2.35385,0.43035 4.07533,2.6272 6.36703,3.31561c5.5064,1.6541 12.84702,3.11737 18.59855,2.13204c2.5766,-0.44141 1.94634,-5.95554 2.09528,-7.63466c0.63152,-7.11911 2.17794,-16.28757 11.75337,-15.27321c1.59366,0.16882 3.13692,0.79774 4.54926,1.55507c2.02226,1.08438 4.04452,3.27748 5.71038,5.04735c-1.55907,-2.83549 -1.04746,-6.81873 -2.30896,-9.77732c-0.47835,-1.12186 -1.34642,-2.03394 -2.01298,-3.05525c-3.4873,-5.34318 -8.37029,-9.17889 -12.16873,-14.16658c-2.18667,-2.87128 -3.8492,-6.63442 -5.33649,-9.89433c-0.80865,-1.77245 -1.61142,-3.57674 -2.11436,-5.45374c-4.75484,0.32478 -9.46152,2.1888 -14.28529,2.10883c-5.66615,-0.09394 -11.43198,-0.77404 -16.07345,-3.98328c-1.1025,-0.76231 -2.45229,-1.28141 -3.26484,-2.34741c-0.10608,-0.13918 -0.20893,-0.28014 -0.30868,-0.42278c-1.87891,0.14544 -4.51513,0.32766 -6.05093,1.01265c-2.87043,1.28024 -5.93032,4.1995 -8.25441,6.23323c-6.01809,5.26619 -11.81159,10.78067 -17.81069,16.07083c-2.51476,2.21757 -7.79726,5.39103 -8.12893,9.11184c-0.27639,3.10062 1.18075,6.63993 1.88495,9.62697c0.86879,3.9803 1.00141,9.32211 -1.86133,12.83675c-0.98623,1.21081 -2.58769,1.75101 -3.92135,2.56343c-0.8917,0.5432 -1.70681,1.44893 -2.74966,1.50035c-1.60014,0.07891 -3.11984,-0.73155 -4.67043,-1.13443c-3.86824,-1.00504 -7.70616,-2.16035 -11.55454,-3.23923c-7.70302,-2.15948 -15.40685,-4.3161 -23.10908,-6.47846c-3.55915,-0.99921 -7.19322,-3.24407 -10.87369,-3.64104c-2.38523,-0.25727 -4.79325,-0.21649 -7.1896,-0.33049c-4.41731,-0.66034 -8.76192,-1.69165 -13.12829,-2.62678l-3.71397,-0.65001c0,0 -1.97002,-0.34497 -1.62504,-2.315c0.34498,-1.97003 2.315,-1.62505 2.315,-1.62505l3.78768,0.66364c4.24184,0.90722 8.46535,1.92562 12.75546,2.57236c0.74836,0.03441 7.1469,0.32553 7.3547,0.35017c3.90328,0.46271 7.62828,2.69559 11.39748,3.7507c7.70386,2.15655 15.40606,4.31896 23.10909,6.47847c3.84683,1.07844 7.73409,2.07114 11.55454,3.23923c1.02042,0.31199 1.96574,1.00433 3.0326,1.02507c0.51009,0.00991 0.77443,-0.67031 1.20581,-0.94269c0.93541,-0.59066 2.18049,-0.78757 2.88507,-1.64046c0.62655,-0.75844 0.51065,-1.90096 0.81369,-2.83689c0.35487,-1.09602 1.10807,-2.10506 1.15907,-3.25598c0.051,-1.15093 -0.57765,-2.23052 -0.86648,-3.34578c-0.80306,-3.40637 -2.41569,-7.51041 -1.96066,-11.04213c0.66117,-5.13141 5.88541,-8.46874 9.45217,-11.61458c6.00276,-5.29438 11.79687,-10.81739 17.82361,-16.08217c2.62986,-2.29736 6.03254,-5.46714 9.27403,-6.88214c1.74322,-0.76097 3.7718,-1.026 5.73755,-1.20196c-1.82429,-5.1352 -1.85138,-11.25032 -4.59691,-15.87461c-1.35065,-2.2749 -3.29935,-3.05807 -5.45961,-4.3652c-8.54355,-5.2941 -20.52187,-6.94576 -29.99533,-2.89285c-3.76653,1.61138 -5.97327,5.80648 -9.74533,6.9321c-1.21583,0.36282 -2.57505,1.04944 -3.75963,0.59488c-1.03099,-0.39561 -4.84831,-5.48646 -5.55543,-6.39074c-3.85351,-4.92783 -7.46033,-9.9979 -8.93732,-16.08464c-0.4207,-1.7844 -0.8414,-3.56883 -1.2621,-5.35324l1.97435,-2.5203c0,0 1.94662,-0.45895 2.40557,1.48768c0.14977,0.63529 0.04335,1.11212 -0.168,1.46627c0.31448,1.3339 0.62897,2.66779 0.94345,4.00169c1.24714,5.47869 4.73824,10.12323 8.19433,14.53761c1.2848,1.64106 1.8784,3.99838 3.67116,5.06129c0.7779,0.46121 1.74417,-0.62136 2.42496,-1.21666c2.77241,-2.42426 4.71576,-4.6932 8.28433,-6.21193c10.69221,-4.55045 23.94431,-2.7426 33.61776,3.17994c2.99759,1.85341 4.817,2.52062 6.78416,5.69508c2.9733,4.79812 3.4187,11.31264 5.3837,16.52786c0.40123,1.06492 0.48036,2.29929 1.163,3.20981c1.85562,2.475 5.65758,3.58819 8.47597,3.89708c2.56692,0.28133 5.11008,0.86784 7.6918,0.92209c4.69326,0.09865 9.19361,-1.52276 13.80527,-1.99546c0.0049,-0.31156 0.02194,-0.62556 0.05224,-0.94217c0.05372,-0.56117 1.50009,-5.52253 1.84836,-6.73225c2.99131,-4.14544 7.05943,-9.15697 11.37908,-12.04133c5.67249,-3.78767 13.39486,-6.02738 20.52498,-6.96077c-1.52231,-1.1076 -2.95259,-2.34933 -4.2891,-3.66789c-6.59705,-6.50845 -14.87906,-12.62655 -23.31508,-16.47969l-1.54638,-0.70828c0,0 -1.81834,-0.83285 -0.9855,-2.65119c0.83285,-1.81834 2.65119,-0.9855 2.65119,-0.9855l1.54639,0.70828c8.30818,3.81532 15.83701,9.62365 22.74645,15.57873c1.19096,1.02646 3.37034,3.55527 4.3902,4.35832c1.70204,1.34021 4.02092,1.87189 5.17241,3.33403l2.56043,-0.11834c0.95698,-0.06246 1.84713,0.57282 2.07452,1.53728c0.25201,1.06892 -0.40498,2.13974 -1.46921,2.40113l-2.29136,0.56658l-0.02725,-0.11019c-0.24445,0.07984 -0.49794,0.13073 -0.76303,0.14446c-0.50065,0.02592 -0.96117,-0.11931 -1.39988,-0.35596c-7.52943,0.34622 -16.95802,2.47742 -23.32964,6.71611c-3.72183,2.47593 -7.38807,6.91271 -10.02608,10.47129c-0.45862,1.79178 -1.2712,3.51196 -1.46734,5.35106c-0.01913,0.17931 -0.03183,0.35824 -0.03856,0.53676c0.41728,0.07342 1.85432,0.45105 1.7001,2.15594c-0.08601,0.9509 -0.58492,1.40679 -1.0829,1.62358c0.452,1.37214 1.08218,2.69574 1.65572,3.9466c1.3648,2.97663 2.86691,6.48528 4.86709,9.11617c3.85771,5.07413 8.84281,8.96564 12.35821,14.43446c0.78252,1.21733 1.76713,2.32902 2.33473,3.66021c1.82174,4.27247 1.04555,8.23956 4.13925,11.81228c0,0 1.28105,1.53588 -0.25483,2.81693c-0.6618,0.552 -1.27629,0.58097 -1.76136,0.43518c6.32915,6.89698 12.1584,14.21395 17.89352,21.6145c3.7441,4.83135 8.73694,10.84416 10.05382,17.01829c1.07566,5.04316 -0.42599,8.93553 -2.37323,13.43798c-1.67059,3.86276 -4.07385,7.56936 -2.97655,11.8067c0.15784,2.66592 4.90497,3.01658 6.9967,3.17592c6.07877,0.46303 12.1468,0.6155 18.22704,-0.02621c0.37176,-0.03924 6.48574,-1.26557 7.03372,-1.48171c0.77282,-0.30484 1.46691,-0.93531 2.21209,-1.30511c-0.38388,-0.18104 -1.66954,-0.92354 -1.07243,-2.52707c0.69794,-1.87427 2.5722,-1.17634 2.5722,-1.17634l3.42631,2.00814c-0.50516,1.37279 -0.5761,2.99709 -1.51547,4.1184c-2.05693,2.4554 -5.24998,2.92785 -8.09852,3.5448c-6.05767,1.312 -12.94705,1.61001 -19.11734,1.13947c-4.2198,-0.3218 -7.48911,-0.2559 -11.18014,-2.39286c-0.83562,-0.48379 -1.91893,-0.66538 -2.52757,-1.41496c-0.60369,-0.7435 -0.56658,-1.82973 -0.84987,-2.7446c-2.01899,-9.2079 7.23198,-16.09199 5.35445,-25.22506c-0.89567,-4.3569 -4.0258,-8.71329 -6.96131,-12.48696c-0.97808,1.22647 -0.78372,1.73192 0.0988,3.1813c0.78111,0.09507 1.54665,0.21854 2.10269,0.72451c0.85061,0.77401 0.80257,2.15855 1.10959,3.26687c1.14616,4.13779 1.36281,8.16596 -0.70996,12.10624c-1.96199,3.72971 -5.60757,6.91165 -9.12442,9.17314c-11.667,7.50238 -25.22223,7.44664 -38.24845,4.63467c-2.34222,-0.21204 -4.1632,-0.49595 -6.56241,-0.14593c-4.20432,0.61335 -4.63267,0.72061 -6.91588,3.93953c-1.88886,2.66295 -3.97227,5.83869 -4.41044,9.20679c-0.941,7.23296 4.42786,14.31015 4.09637,21.35189c-0.39439,8.3778 -7.15156,15.39109 -13.57388,19.81355l-1.29512,0.88928c0,0 -1.64875,1.1321 -2.78084,-0.51666c-1.1321,-1.64875 0.51666,-2.78084 0.51666,-2.78084l1.29511,-0.88929c5.26327,-3.60283 11.50381,-9.568 11.83808,-16.51721c0.09942,-2.06674 -1.00171,-4.01531 -1.47644,-6.02925c-0.87083,-3.69432 -1.96856,-7.59863 -2.3993,-11.37522c-0.7474,-6.55302 2.60692,-14.94913 7.81123,-19.21868c0.7105,-0.58288 1.75239,-0.55616 2.63906,-0.79783c4.13885,-1.12809 7.57395,-1.26846 11.81899,-0.8847c12.09523,2.58415 24.60501,2.95101 35.48383,-4.04453c4.59508,-2.95483 9.37673,-7.46538 8.97269,-13.44277c-0.16821,-2.48861 -0.17149,-4.86413 -2.30245,-4.75217c0,0 -1.97003,-0.34498 -1.62505,-2.315c0.0011,-0.00624 0.00221,-0.01244 0.00333,-0.01863c-1.34579,-2.86949 -1.22375,-4.60013 0.88558,-7.49301l0.2346,-0.28127c-6.44446,-8.31187 -13.00867,-16.51943 -20.29635,-24.11807c-1.44358,-1.50913 -3.53531,-3.93377 -5.41879,-5.01293c-0.92335,-0.52904 -1.94776,-0.95996 -3.00552,-1.07655c-8.45206,-0.93158 -6.89372,10.69856 -7.7459,15.74052c-0.27243,1.61187 -0.24767,3.3976 -1.13379,4.77133c-0.73228,1.13525 -2.09469,1.82557 -3.38326,2.23136c-2.07608,0.6538 -6.56578,0.15008 -8.72918,-0.00853c-4.10946,-0.30127 -8.27896,-0.88653 -12.2365,-2.11477c-1.40408,-0.43576 -2.80521,-0.92793 -4.10168,-1.62108c-0.74169,-0.39654 -1.15366,-1.31836 -1.94238,-1.61035c-1.45189,-0.53751 -2.67096,1.61082 -3.80125,2.66882c-3.70056,4.38883 -4.57927,8.38165 -6.63223,13.56203c-0.79731,2.01192 -2.31867,3.65495 -3.49833,5.46931c-1.84689,2.84063 -2.85919,5.27222 -6.38889,6.56762c-3.65519,1.34145 -8.44149,-0.36982 -11.80271,-1.71934c-2.78039,-1.11632 -5.56835,-2.53685 -8.3872,-3.9299c0.12505,0.25265 0.17118,0.44834 0.17118,0.44834c1.14129,4.86732 1.07336,9.70487 1.895,14.59642c0.5949,3.54162 2.25874,7.62911 2.05787,11.23071c-0.1197,2.1463 -1.90727,6.21312 -2.73388,8.20407c-1.4244,3.43082 -4.51809,6.03297 -7.54239,8.17734c-1.39534,0.98936 -3.48193,1.13202 -4.46243,2.53361c-2.38935,3.4155 -1.80222,8.75905 -0.89841,12.46561c1.18516,5.1238 4.27469,9.48576 5.50345,14.62744l0.45895,1.94664c0,0 0.45895,1.94662 -1.48769,2.40557z" fill="url(#color-5)" stroke-width="0.5"/><path d="M135.42585,83.01065c0.49729,-1.93718 2.43448,-1.43989 2.43448,-1.43989l1.93719,0.4973c5.10612,1.32971 10.39202,0.62256 15.51049,1.91686c4.96712,1.30939 10.79321,3.90214 13.29065,8.84762c1.02826,2.03617 0.20573,4.1863 0.48353,6.27492c0.32067,2.41097 0.76999,4.8463 1.68765,7.09874c2.74231,6.73118 10.3373,7.72422 16.2462,9.66946c4.62191,1.52156 8.78857,3.80616 13.53556,5.01818c0,0 1.93718,0.4973 1.43989,2.43449c-0.00609,0.02373 -0.01239,0.0471 -0.01892,0.07011c3.28391,-2.45305 6.42817,-5.04996 8.80587,-8.1777c0,0 1.22018,-1.58465 2.80483,-0.36448c1.58467,1.22019 0.36448,2.80485 0.36448,2.80485c-4.95681,6.3697 -12.58044,10.62663 -18.69718,15.81437c-2.01275,1.70706 -5.22442,4.36064 -5.6375,7.19526c-0.33389,2.29123 1.36701,4.38737 2.37465,6.15005c3.81797,6.67884 9.47922,11.24122 12.46943,18.52328c0.73221,3.04084 2.14917,5.51287 -0.12927,8.4266c-1.474,1.88498 -4.21898,2.38972 -5.89268,4.09984c-4.02152,4.109 -8.72562,9.93114 -10.52322,15.48267c-0.80531,2.487 4.37112,4.48888 5.78915,5.40037c6.01212,3.86458 13.41455,9.49094 8.07048,17.50085c-0.88942,1.33311 -2.16295,2.40797 -3.48943,3.30724c-1.89932,1.28764 -4.78061,2.06053 -7.12159,2.71425c3.23521,-0.0644 6.52558,2.23806 9.73167,2.49437c1.21571,0.09719 2.42655,-0.24819 3.64059,-0.36439c6.35147,-0.60794 12.01578,-3.15191 18.19687,-4.20048c3.55829,-0.60364 7.66313,-0.32898 11.24092,-0.13275c1.94528,0.1067 3.91603,0.23339 5.81198,0.65939c1.91991,-4.36209 2.45418,-9.39618 4.76459,-13.63142c2.71387,-4.97483 5.99318,-9.76582 10.99051,-12.38673c1.18703,-0.62255 2.27347,-1.57704 3.59487,-1.80178c0.17252,-0.02934 0.34511,-0.05498 0.51776,-0.0771c0.74353,-1.73166 1.80607,-4.15113 1.91243,-5.8294c0.19879,-3.13669 -0.96614,-7.20216 -1.68836,-10.2048c-1.87013,-7.77514 -4.06446,-15.46663 -5.96464,-23.23608c-0.79653,-3.25686 -1.15467,-9.40889 -4.29617,-11.43014c-2.61787,-1.68435 -6.42911,-2.037 -9.40165,-2.80011c-3.92867,-1.07849 -8.72143,-3.44111 -10.5052,-7.60839c-0.61452,-1.43564 -0.34944,-3.10484 -0.4498,-4.66324c-0.06711,-1.04196 -0.49087,-2.18441 -0.05224,-3.13193c0.67302,-1.45386 2.0964,-2.42357 3.17313,-3.60985c2.6861,-2.95944 5.4912,-5.82226 8.23348,-8.72983c5.48897,-5.81988 10.97579,-11.64181 16.46695,-17.45965c2.53743,-2.68839 6.2129,-4.8648 8.27325,-7.94025c1.33527,-1.99313 2.41714,-4.14482 3.63069,-6.21432c2.63572,-3.60579 5.56625,-6.97494 8.42169,-10.40802l2.30002,-2.98764c0,0 1.22018,-1.58467 2.80484,-0.36448c1.58467,1.22019 0.36448,2.80484 0.36448,2.80484l-2.34631,3.04659c-2.77291,3.33575 -5.63578,6.60365 -8.2004,10.10309c-0.37792,0.64684 -3.60647,6.1788 -3.72477,6.3514c-2.22202,3.24226 -5.9291,5.50478 -8.61356,8.35326c-5.48677,5.82199 -10.97796,11.63978 -16.46696,17.45966c-2.74116,2.9064 -5.42516,5.88842 -8.23348,8.72983c-0.75008,0.75893 -1.80217,1.27475 -2.31586,2.21002c-0.2456,0.44718 0.23414,0.99712 0.2751,1.50564c0.08885,1.10271 -0.31481,2.29688 0.11346,3.3169c0.38084,0.90706 1.44657,1.33485 2.13482,2.03778c0.80597,0.82316 1.34998,1.95874 2.34566,2.53826c0.99568,0.57952 2.24373,0.52397 3.3656,0.78594c3.38983,0.87024 7.77344,1.34737 10.69019,3.39009c4.23787,2.968 4.7682,9.1445 5.89847,13.76408c1.90222,7.77465 4.10382,15.47065 5.96869,23.25279c0.81376,3.39585 2.04141,7.88123 1.78971,11.40914c-0.13536,1.89726 -0.84245,3.817 -1.59926,5.63974c5.39517,0.76841 10.82384,3.58354 16.19421,3.29881c2.64193,-0.14007 4.24032,-1.50241 6.401,-2.80885c8.65551,-5.10899 15.67964,-14.95124 16.48835,-25.22345c0.32153,-4.0841 -2.36947,-7.98629 -1.61514,-11.84976c0.24313,-1.2453 0.26606,-2.76793 1.21863,-3.60606c0.82906,-0.72946 7.11026,-1.74685 8.23947,-1.9533c6.15363,-1.12512 12.3187,-1.96572 18.39539,-0.44794c1.77575,0.45585 3.55152,0.91171 5.32727,1.36757l1.31556,2.91878c0,0 -0.49729,1.93718 -2.43448,1.43989c-0.63221,-0.1623 -1.00512,-0.47794 -1.22066,-0.82956c-1.32743,-0.34077 -2.65485,-0.68153 -3.98228,-1.0223c-5.43144,-1.43905 -11.16589,-0.50339 -16.68026,0.50813c-2.04997,0.37602 -4.41342,-0.19268 -6.18717,0.90166c-0.76965,0.47485 -0.25944,1.83327 -0.04828,2.71262c0.85997,3.58103 1.9673,6.35565 1.6556,10.22141c-0.93388,11.58265 -8.68773,22.48054 -18.42444,28.29851c-3.03326,1.79443 -4.46891,3.0961 -8.19381,3.36456c-5.63008,0.40576 -11.60672,-2.2243 -17.13809,-2.90525c-1.12948,-0.13905 -2.25948,-0.64206 -3.38285,-0.46018c-3.05361,0.49441 -5.80471,3.34493 -7.38681,5.69774c-1.44094,2.14288 -3.14113,4.12302 -4.38782,6.38443c-2.26635,4.11097 -2.91971,8.84966 -4.64214,13.15363c0.27367,0.14899 0.54387,0.30986 0.81022,0.4837c0.47208,0.30812 4.19479,3.89261 5.10453,4.76271c2.28277,4.57401 4.83269,10.50385 5.38181,15.66886c0.72109,6.78259 -0.88056,14.66207 -3.36423,21.41049c1.68777,-0.83406 3.4516,-1.52433 5.23995,-2.09589c8.82733,-2.8212 18.09122,-7.31599 25.42057,-12.99875l1.34527,-1.04077c0,0 1.58186,-1.22381 2.80568,0.35804c1.22381,1.58186 -0.35805,2.80568 -0.35805,2.80568l-1.34527,1.04078c-7.2365,5.5871 -15.87634,9.55862 -24.3586,12.91342c-1.46206,0.57825 -4.71364,1.33443 -5.89839,1.86488c-1.97723,0.88525 -3.52474,2.69221 -5.35435,3.03324l-1.08394,2.32269c-0.38898,0.87658 -1.36492,1.37004 -2.32471,1.12365c-1.06373,-0.27308 -1.70713,-1.35212 -1.44453,-2.41606l0.56202,-2.29248l0.11025,0.02702c0.04278,-0.25357 0.1154,-0.50172 0.22632,-0.74288c0.20948,-0.45546 0.55192,-0.79591 0.9652,-1.07459c3.18911,-6.82948 5.67902,-16.16976 4.88307,-23.78096c-0.46494,-4.44591 -2.69239,-9.75296 -4.61942,-13.74159c-1.37403,-1.23808 -2.52031,-2.75642 -4.05812,-3.78399c-0.14993,-0.10019 -0.30252,-0.19451 -0.4575,-0.28336c-0.25876,0.33549 -1.26042,1.43294 -2.69882,0.5048c-0.80227,-0.51767 -0.97441,-1.1712 -0.93522,-1.71291c-1.42515,-0.23673 -2.89002,-0.2931 -4.26418,-0.36587c-3.27002,-0.1732 -7.07498,-0.47179 -10.33378,0.07829c-6.28515,1.06092 -12.04629,3.66943 -18.5221,4.24393c-1.44149,0.12789 -2.88323,0.48381 -4.32577,0.36849c-4.62988,-0.37012 -7.78311,-2.89942 -12.38377,-1.8181c0,0 -1.95507,0.42153 -2.37661,-1.53354c-0.18164,-0.84244 0.07799,-1.40013 0.43233,-1.76206c-9.04707,2.40354 -18.23403,4.16933 -27.45131,5.81295c-6.01738,1.07302 -13.66093,2.7035 -19.74068,1.00334c-4.96607,-1.38873 -7.71632,-4.52586 -10.80004,-8.34091c-2.64558,-3.27302 -4.8127,-7.12245 -9.07511,-8.1179c-2.43446,-1.09794 -4.94902,2.94374 -6.06129,4.72239c-3.23234,5.16892 -6.18464,10.47252 -8.43922,16.15566c-0.13785,0.34749 -1.89029,6.33192 -1.95327,6.91761c-0.08881,0.82601 0.14734,1.73348 0.1289,2.56516c0.33858,-0.25594 1.59309,-1.04991 2.7361,0.22343c1.33599,1.48834 -0.15235,2.82432 -0.15235,2.82432l-3.36935,2.10231c-0.98133,-1.08477 -2.38702,-1.90173 -2.94402,-3.25432c-1.21973,-2.96179 -0.15572,-6.00919 0.62038,-8.81855c1.65042,-5.97435 4.58507,-12.21455 7.86656,-17.46105c2.24417,-3.58802 3.70368,-6.51422 7.31003,-8.79118c0.81645,-0.51549 1.48024,-1.39066 2.42671,-1.58171c0.93879,-0.1895 1.88363,0.34769 2.82544,0.52154c9.09271,2.48684 10.89485,13.87645 19.85561,16.45383c4.2747,1.22953 9.58636,0.47978 14.29155,-0.36813c-0.63217,-1.4357 -1.17008,-1.49823 -2.86351,-1.3895c-0.44685,0.64768 -0.91163,1.26839 -1.61792,1.52596c-1.08045,0.39401 -2.28442,-0.29134 -3.40859,-0.53399c-4.19693,-0.90595 -7.86523,-2.58425 -10.39275,-6.24947c-2.39245,-3.46934 -3.5181,-8.17549 -3.88828,-12.34029c-1.22804,-13.81653 5.11473,-25.79637 13.65306,-36.02802c1.27525,-1.97603 2.37214,-3.45704 3.17603,-5.7445c1.40873,-4.00849 1.51261,-4.43766 -0.2783,-7.95436c-1.48158,-2.90929 -3.32703,-6.22897 -6.10668,-8.1808c-5.96927,-4.19153 -14.7301,-2.72218 -20.81299,-6.28511c-7.23702,-4.23894 -10.31141,-13.47982 -11.24659,-21.22125l-0.18632,-1.55995c0,0 -0.23721,-1.98589 1.74868,-2.22308c1.98589,-0.23721 2.22308,1.74868 2.22308,1.74868l0.18634,1.55995c0.74736,6.33433 3.13331,14.63101 9.13295,18.15345c1.78433,1.0476 4.02139,0.97701 6.02553,1.49158c3.67633,0.94391 7.64399,1.78435 11.18885,3.15624c6.15094,2.38047 12.02994,9.24948 13.3952,15.84114c0.18638,0.89991 -0.32101,1.81028 -0.51863,2.7078c-0.92244,4.18948 -2.39296,7.29709 -4.70374,10.8787c-7.90432,9.51285 -14.03725,20.4223 -12.89217,33.30543c0.48367,5.44167 2.25859,11.77088 7.74029,14.1882c2.28224,1.00643 4.38773,2.10643 5.27792,0.16708c0,0 1.22019,-1.58466 2.80484,-0.36448c0.00502,0.00387 0.00999,0.00773 0.01496,0.01159c3.1663,0.14029 4.64245,1.05188 6.22532,4.2632l0.1402,0.33837c10.35376,-1.84876 20.67073,-3.85202 30.78427,-6.77875c2.00684,-0.57791 5.12547,-1.30482 6.95573,-2.47196c0.89725,-0.57217 1.75453,-1.27942 2.34889,-2.16214c4.7492,-7.05339 -6.27499,-11.0728 -10.34496,-14.16845c-1.30113,-0.98965 -2.89423,-1.7968 -3.69952,-3.21942c-0.6655,-1.17564 -0.64437,-2.70281 -0.40552,-4.03249c0.38481,-2.14231 2.91543,-5.88492 4.06033,-7.72738c2.17477,-3.49983 4.62893,-6.921 7.55417,-9.8559c1.03783,-1.04126 2.12426,-2.05373 3.34009,-2.88018c0.69556,-0.4728 1.70327,-0.4097 2.32807,-0.97269c1.15015,-1.03636 -0.18661,-3.11351 -0.5989,-4.6058c-2.16905,-5.31519 -5.29748,-7.94723 -8.93255,-12.17065c-1.41176,-1.64026 -2.16064,-3.75054 -3.21991,-5.63771c-1.65844,-2.95461 -3.34209,-4.98013 -2.85065,-8.70777c0.50891,-3.86017 4.24675,-7.30484 7.00254,-9.65529c2.27959,-1.94428 4.83213,-3.75403 7.37466,-5.60388c-0.28183,-0.00654 -0.47657,-0.05654 -0.47657,-0.05654c-4.84081,-1.24896 -9.09384,-3.5551 -13.8077,-5.09842c-3.41298,-1.1174 -7.80571,-1.54149 -10.90235,-3.39154c-1.84539,-1.1025 -4.61739,-4.57387 -5.99698,-6.23034c-2.37732,-2.85444 -3.24569,-6.8026 -3.74081,-10.47677c-0.22844,-1.69517 0.61397,-3.60949 -0.17218,-5.12863c-1.91575,-3.70196 -6.92106,-5.66285 -10.62354,-6.58323c-5.08834,-1.32918 -10.38608,-0.61798 -15.5105,-1.91686l-1.9372,-0.4973c0,0 -1.93719,-0.49729 -1.43989,-2.43449z" fill="url(#color-6)" stroke-width="0.5"/></g></g></svg>