<svg xmlns="http://www.w3.org/2000/svg" xmlns:xlink="http://www.w3.org/1999/xlink" version="1.1" width="88.07756" height="80.44976" viewBox="0,0,88.07756,80.44976"><defs><radialGradient cx="241.45974" cy="180.06397" r="44.03878" gradientUnits="userSpaceOnUse" id="color-1"><stop offset="0" stop-color="#e4e4e4"/><stop offset="1" stop-color="#e4e4e4" stop-opacity="0"/></radialGradient></defs><g><g data-paper-data="{&quot;isPaintingLayer&quot;:true}" fill-rule="nonzero" stroke-linecap="round" stroke-linejoin="miter" stroke-miterlimit="10" stroke-dasharray="" stroke-dashoffset="0" style="mix-blend-mode: normal"><path d="M266.51979,213.46732c0,0 -17.47476,-20.22189 -27.58452,-17.75047c-9.62719,2.35348 -28.47017,16.4696 -28.47017,16.4696c0,0 10.0984,-14.23769 9.46126,-19.78124c-1.23684,-10.76121 -23.29848,-24.02977 -23.29848,-24.02977c0,0 26.09524,3.97219 30.47814,-0.10899c6.73016,-6.26692 15.03139,-35.158 15.03139,-35.158c0,0 5.26341,29.48403 15.25151,35.14511c4.78764,2.71355 27.31652,-9.88216 27.31652,-9.88216c0,0 -25.76346,23.6297 -25.91553,29.81041c-0.26409,10.7347 7.99255,25.3764 7.99255,25.3764" fill="url(#color-1)" stroke="#ff9400" stroke-width="0" transform="matrix(1,0,0,1,-196.62788,-133.10845)"/><path d="M252.02278,197.51477c0,0 -8.3518,-9.66475 -13.18361,-8.48357c-4.60117,1.12481 -13.60689,7.8714 -13.60689,7.8714c0,0 4.82638,-6.80469 4.52187,-9.45415c-0.59113,-5.14316 -11.13516,-11.48467 -11.13516,-11.48467c0,0 12.47183,1.89845 14.56657,-0.05209c3.21658,-2.99518 7.18403,-16.80324 7.18403,-16.80324c0,0 2.51557,14.09145 7.28923,16.79708c2.28818,1.2969 13.05552,-4.72303 13.05552,-4.72303c0,0 -12.31326,11.29346 -12.38594,14.24744c-0.12622,5.13049 3.81992,12.12827 3.81992,12.12827" fill="#ffffff" stroke="#000000" stroke-width="0" transform="matrix(1,0,0,1,-196.62788,-133.10845)"/></g></g></svg>