<svg version="1.1" xmlns="http://www.w3.org/2000/svg" xmlns:xlink="http://www.w3.org/1999/xlink" width="315.30573" height="95.4285" viewBox="0,0,315.30573,95.4285"><g transform="translate(-82.34713,-124.33238)"><g data-paper-data="{&quot;isPaintingLayer&quot;:true}" fill-rule="nonzero" stroke-linejoin="miter" stroke-miterlimit="10" stroke-dasharray="" stroke-dashoffset="0" style="mix-blend-mode: normal"><path d="M161.02606,140.82144v-15.23906h93.61135v15.23906z" fill="#fcfcfc" stroke="#000000" stroke-width="2.5" stroke-linecap="butt"/><text transform="translate(163.63849,136.46742) scale(0.23584,0.23584)" font-size="40" xml:space="preserve" fill="#0a0a0a" fill-rule="nonzero" stroke="none" stroke-width="1" stroke-linecap="butt" stroke-linejoin="miter" stroke-miterlimit="10" stroke-dasharray="" stroke-dashoffset="0" font-family="Sans Serif" font-weight="normal" text-anchor="start" style="mix-blend-mode: normal"><tspan x="0" dy="0">TowerSize: Small</tspan></text><path d="M83.59713,218.51088v-76.49249h288.32853c0.37838,1.71158 2.47986,3.46486 3.92566,4.26878c1.5041,0.83102 5.44893,0.8267 6.34267,2.45211c0.19239,0.34991 0.10483,0.95451 -0.06518,1.56196c-0.34073,0.29703 -0.69905,0.58821 -1.08252,0.87581c0,0 -0.2,0.15 -0.05,0.35c0.15,0.2 0.35,0.05 0.35,0.05c0.14504,-0.10878 0.3055,-0.22958 0.47807,-0.36095c-0.10549,0.28271 -0.20547,0.53059 -0.27193,0.70792c-1.35488,3.6152 -0.86312,3.72778 0.46819,0.17547c0.13335,-0.35581 0.34233,-0.87649 0.50855,-1.4285c1.95432,-1.538 4.67941,-3.92486 4.96375,-5.73898c0.13667,-1.02341 0.08243,-1.98281 -0.06972,-2.91363h8.97966v76.49249h-38.51416c-0.06005,-0.82582 -0.14274,-1.65253 -0.25244,-2.48787c-0.06644,-0.50591 -0.0215,-1.7613 -0.43014,-2.1227c-0.30861,-0.27293 -1.57986,-0.43532 -2.01446,-0.57404c-3.09907,-0.85978 -5.69167,-1.21303 -8.90776,-1.21303c0,0 -0.25,0 -0.25,0.25c0,0.25 0.25,0.25 0.25,0.25c3.1741,0 5.70619,0.34422 8.76489,1.19218c0.40735,0.1301 1.54763,0.25221 1.83388,0.47617c0.23798,0.18619 0.21841,1.50625 0.25785,1.80652c0.10688,0.81378 0.18575,1.61889 0.24331,2.42277h-13.79747c-1.8712,-0.69512 -3.59591,-1.62081 -4.49385,-3.39735c-0.11035,-2.61766 -0.66011,-2.68629 -0.48382,0.12615c0.77256,1.60951 2.13927,2.56712 3.70209,3.2712h-160.36327c-1.12497,-1.37636 -2.28958,-2.7258 -3.40257,-4.09564c0,0 -0.15765,-0.19403 -0.35168,-0.03638c-0.19403,0.15765 -0.03638,0.35168 -0.03638,0.35168c0.98514,1.21248 1.9369,2.51758 2.92943,3.78034h-7.68003c0.20894,-0.30761 0.3243,-0.64268 0.31928,-1.00976c-0.14359,-1.59194 -2.77429,-4.91981 -1.18963,-6.27358c0.14581,-0.12456 1.57779,0.05992 1.83761,0.05992c0,0 0.25,0 0.25,-0.25c0,-0.25 -0.25,-0.25 -0.25,-0.25c-0.4195,0 -1.84766,-0.20896 -2.16239,0.05992c-1.93181,1.65034 0.84673,4.82868 1.01507,6.67964c0.00458,0.35411 -0.16198,0.68089 -0.45308,0.98386z" fill="#f0e7d9" stroke="#000000" stroke-width="2.5" stroke-linecap="butt"/><path d="M382.63347,148.50077c-0.99225,-1.84307 -4.88216,-1.72272 -6.53913,-2.6506c-1.16204,-0.64614 -3.2814,-2.28289 -3.70109,-3.83179h14.53569c0.14887,0.91231 0.20153,1.85065 0.06842,2.84745c-0.08603,0.84578 -1.2019,1.51909 -1.74837,2.16214c-0.84022,0.9887 -1.62286,1.87672 -2.50169,2.71046c0.07079,-0.47485 0.05892,-0.91679 -0.11381,-1.23765z" fill="#f0e7d9" stroke="#000000" stroke-width="2.5" stroke-linecap="butt"/><path d="M84.662,217.94283v-76.4537h74.68599v76.4537z" fill="#c65555" stroke="#000000" stroke-width="0.5" stroke-linecap="butt"/><text transform="translate(88.71197,163.86567) scale(0.5,0.5)" font-size="40" xml:space="preserve" fill="#000000" fill-rule="nonzero" stroke="#000000" stroke-width="0" stroke-linecap="butt" stroke-linejoin="miter" stroke-miterlimit="10" stroke-dasharray="" stroke-dashoffset="0" font-family="Handwriting" font-weight="normal" text-anchor="start" style="mix-blend-mode: normal"><tspan x="0" dy="0">sand</tspan><tspan x="0" dy="48px">slash</tspan></text><text transform="translate(116.90648,206.78928) scale(0.5,0.5)" font-size="40" xml:space="preserve" fill="#000000" fill-rule="nonzero" stroke="none" stroke-width="1" stroke-linecap="butt" stroke-linejoin="miter" stroke-miterlimit="10" stroke-dasharray="" stroke-dashoffset="0" font-family="Marker" font-weight="normal" text-anchor="start" style="mix-blend-mode: normal"><tspan x="0" dy="0">95</tspan></text><text transform="translate(160.91126,165.74988) scale(0.4112,0.42156)" font-size="40" xml:space="preserve" fill="#333333" fill-rule="nonzero" stroke="#000000" stroke-width="0" stroke-linecap="butt" stroke-linejoin="miter" stroke-miterlimit="10" stroke-dasharray="" stroke-dashoffset="0" font-family="Serif" font-weight="normal" text-anchor="start" style="mix-blend-mode: normal"><tspan x="0" dy="0">Stabs Enemies with his claws doing</tspan><tspan x="0" dy="48px">High damage,</tspan><tspan x="0" dy="48px">Good starter-Midgame Tower!</tspan></text><g stroke="#000000" stroke-linecap="butt"><path d="M101.88065,210.27298c-6.07513,0 -11,-4.64505 -11,-10.375c0,-5.72995 4.92487,-10.375 11,-10.375c6.07513,0 11,4.64505 11,10.375c0,5.72995 -4.92487,10.375 -11,10.375z" fill="#ffd036" stroke-width="1"/><path d="M109.81815,199.77298c0,4.55635 -3.55374,8.25 -7.9375,8.25c-4.38376,0 -7.9375,-3.69365 -7.9375,-8.25c0,-4.55635 3.55374,-8.25 7.9375,-8.25c4.38376,0 7.9375,3.69365 7.9375,8.25z" fill="#e0b82f" stroke-width="1"/><text transform="translate(97.03045,205.49173) scale(0.4349,0.4349)" font-size="40" xml:space="preserve" fill="#000000" fill-rule="nonzero" stroke="#000000" stroke-width="0" stroke-linecap="butt" stroke-linejoin="miter" stroke-miterlimit="10" stroke-dasharray="" stroke-dashoffset="0" font-family="Sans Serif" font-weight="normal" text-anchor="start" style="mix-blend-mode: normal"><tspan x="0" dy="0">$</tspan></text></g><path d="M149.62555,168.88873l-59.6604,0.44193" fill="none" stroke="#000000" stroke-width="0.5" stroke-linecap="round"/><path d="M141.67083,174.6338l-45.07675,1.32579" fill="none" stroke="#000000" stroke-width="0.5" stroke-linecap="round"/></g></g></svg>