<svg version="1.1" xmlns="http://www.w3.org/2000/svg" xmlns:xlink="http://www.w3.org/1999/xlink" width="538.57248" height="271.58486" viewBox="0,0,538.57248,271.58486"><g transform="translate(38.86597,-55.72462)"><g data-paper-data="{&quot;isPaintingLayer&quot;:true}" fill="none" fill-rule="nonzero" stroke="#000000" stroke-width="1.5" stroke-linecap="round" stroke-linejoin="miter" stroke-miterlimit="10" stroke-dasharray="" stroke-dashoffset="0" style="mix-blend-mode: normal"><path d="M498.95651,59.66791c0,0 -33.55763,-6.60391 -72.82582,-0.81789c-35.51277,5.23267 -77.96756,16.32727 -114.68435,43.41547c-9.0928,6.70831 -22.81155,20.15849 -29.63193,31.06256c-6.27457,10.03146 -15.74853,22.88787 -19.59432,35.1081c-6.13034,19.47954 -8.7293,37.70464 -13.35125,54.29378c-2.45898,8.82579 -1.36427,18.77018 -3.36012,28.86246c-3.43547,17.37186 -9.99701,35.18191 -16.08622,48.47947c-5.83933,12.75188 -16.98279,18.9265 -24.40158,23.55344c-10.07148,6.28136 -30.91713,1.89351 -44.35331,-7.62074c-12.77784,-9.04807 -18.41394,-26.94021 -18.41394,-26.94021c0,0 -1.31972,-26.65 -21.4307,-48.34234c-8.19984,-8.84461 -23.10881,-17.50351 -38.02172,-24.35492c-21.25338,-9.76439 -46.57629,-10.47519 -67.18357,-10.64927c-29.31591,-0.24765 -53.73363,1.41384 -53.73363,1.41384"/></g></g></svg>