<svg version="1.1" xmlns="http://www.w3.org/2000/svg" xmlns:xlink="http://www.w3.org/1999/xlink" width="398.17196" height="376.50003" viewBox="0,0,398.17196,376.50003"><g transform="translate(-27.32171,13.82732)"><g data-paper-data="{&quot;isPaintingLayer&quot;:true}" fill="none" fill-rule="nonzero" stroke="#ffffff" stroke-width="2.5" stroke-linecap="round" stroke-linejoin="miter" stroke-miterlimit="10" stroke-dasharray="" stroke-dashoffset="0" style="mix-blend-mode: normal"><path d="M29.24367,-12.57732l-0.44726,187.01261c0,0 -3.05718,113.76989 13.38202,145.0217c4.9284,9.36917 23.64783,18.42827 42.1085,16.34999c19.8839,-2.2385 36.87336,-2.03884 49.17441,-20.19165c11.70857,-17.27848 11.21046,-30.48545 12.3457,-88.2209c0.58426,-29.714 -9.05107,-50.70443 -12.62923,-74.66322c-4.53186,-30.34465 1.36859,-66.06738 1.36859,-66.06738c0,0 11.86182,-31.98958 29.3191,-41.9068c19.4777,-11.065 51.14623,-7.84029 56.29264,-6.87728c63.63667,11.90789 127.54329,1.14196 156.86529,28.83496c47.40649,44.7728 47.22023,294.708 47.22023,294.708"/></g></g></svg>