<svg version="1.1" xmlns="http://www.w3.org/2000/svg" xmlns:xlink="http://www.w3.org/1999/xlink" width="173.40687" height="202.18986" viewBox="0,0,173.40687,202.18986"><defs><radialGradient cx="287.40114" cy="163.06966" r="22.00021" gradientUnits="userSpaceOnUse" id="color-1"><stop offset="0" stop-color="#a8f2ff"/><stop offset="1" stop-color="#a8f2ff" stop-opacity="0"/></radialGradient><radialGradient cx="291.41273" cy="163.18169" r="35.49611" gradientUnits="userSpaceOnUse" id="color-2"><stop offset="0" stop-color="#a8f2ff"/><stop offset="1" stop-color="#a8f2ff" stop-opacity="0"/></radialGradient><radialGradient cx="272.04718" cy="172.16315" r="35.49612" gradientUnits="userSpaceOnUse" id="color-3"><stop offset="0" stop-color="#a8f2ff"/><stop offset="1" stop-color="#a8f2ff" stop-opacity="0"/></radialGradient><radialGradient cx="267.98387" cy="158.12438" r="35.49612" gradientUnits="userSpaceOnUse" id="color-4"><stop offset="0" stop-color="#a8f2ff"/><stop offset="1" stop-color="#a8f2ff" stop-opacity="0"/></radialGradient><radialGradient cx="310.40776" cy="151.4499" r="22.00021" gradientUnits="userSpaceOnUse" id="color-5"><stop offset="0" stop-color="#a8f2ff"/><stop offset="1" stop-color="#a8f2ff" stop-opacity="0"/></radialGradient><radialGradient cx="314.41935" cy="151.56194" r="35.49612" gradientUnits="userSpaceOnUse" id="color-6"><stop offset="0" stop-color="#a8f2ff"/><stop offset="1" stop-color="#a8f2ff" stop-opacity="0"/></radialGradient><radialGradient cx="295.0538" cy="160.5434" r="35.49612" gradientUnits="userSpaceOnUse" id="color-7"><stop offset="0" stop-color="#a8f2ff"/><stop offset="1" stop-color="#a8f2ff" stop-opacity="0"/></radialGradient><radialGradient cx="290.99049" cy="146.50462" r="35.49612" gradientUnits="userSpaceOnUse" id="color-8"><stop offset="0" stop-color="#a8f2ff"/><stop offset="1" stop-color="#a8f2ff" stop-opacity="0"/></radialGradient><radialGradient cx="305.96963" cy="173.2233" r="22.00021" gradientUnits="userSpaceOnUse" id="color-9"><stop offset="0" stop-color="#a8f2ff"/><stop offset="1" stop-color="#a8f2ff" stop-opacity="0"/></radialGradient><radialGradient cx="309.98122" cy="173.33533" r="35.49612" gradientUnits="userSpaceOnUse" id="color-10"><stop offset="0" stop-color="#a8f2ff"/><stop offset="1" stop-color="#a8f2ff" stop-opacity="0"/></radialGradient><radialGradient cx="290.61567" cy="182.31679" r="35.49612" gradientUnits="userSpaceOnUse" id="color-11"><stop offset="0" stop-color="#a8f2ff"/><stop offset="1" stop-color="#a8f2ff" stop-opacity="0"/></radialGradient><radialGradient cx="289.92703" cy="167.73863" r="35.49612" gradientUnits="userSpaceOnUse" id="color-12"><stop offset="0" stop-color="#c7f7ff"/><stop offset="1" stop-color="#c7f7ff" stop-opacity="0"/></radialGradient><radialGradient cx="329.00794" cy="192.3701" r="35.49612" gradientUnits="userSpaceOnUse" id="color-13"><stop offset="0" stop-color="#a8f2ff"/><stop offset="1" stop-color="#a8f2ff" stop-opacity="0"/></radialGradient><radialGradient cx="286.26284" cy="196.31899" r="35.49612" gradientUnits="userSpaceOnUse" id="color-14"><stop offset="0" stop-color="#a8f2ff"/><stop offset="1" stop-color="#a8f2ff" stop-opacity="0"/></radialGradient><radialGradient cx="348.58266" cy="162.56322" r="35.49612" gradientUnits="userSpaceOnUse" id="color-15"><stop offset="0" stop-color="#a8f2ff"/><stop offset="1" stop-color="#a8f2ff" stop-opacity="0"/></radialGradient><radialGradient cx="317.78058" cy="137.62037" r="35.49612" gradientUnits="userSpaceOnUse" id="color-16"><stop offset="0" stop-color="#a8f2ff"/><stop offset="1" stop-color="#a8f2ff" stop-opacity="0"/></radialGradient><radialGradient cx="294.45816" cy="167.16673" r="40.27877" gradientUnits="userSpaceOnUse" id="color-17"><stop offset="0" stop-color="#c7f7ff"/><stop offset="1" stop-color="#c7f7ff" stop-opacity="0"/></radialGradient></defs><g transform="translate(-210.83659,-111.14958)"><g data-paper-data="{&quot;isPaintingLayer&quot;:true}" fill-rule="nonzero" stroke="none" stroke-linecap="butt" stroke-linejoin="miter" stroke-miterlimit="10" stroke-dasharray="" stroke-dashoffset="0" style="mix-blend-mode: normal"><path d="M210.83659,313.33943c0,0 0,0 0.00001,0c-0.00001,0.00001 -0.00001,0.00001 -0.00001,0.00001z" fill="#eaeaea" stroke-width="0"/><path d="M259.84707,195.38713c-0.11753,0.42017 -0.66588,0.33012 -0.66588,0.33012l-0.38658,-0.06349c-0.9015,-0.23152 -1.09143,0.4099 -0.516,0.81408c0,0 0.39109,0.30798 -0.01085,0.60764c-0.40194,0.29967 -0.79304,-0.00835 -0.79304,-0.00835c-0.56579,-0.47691 -0.72239,-1.01449 -0.55199,-1.44802l-1.02496,-0.38525c-0.31156,0.09904 -0.67891,0.16755 -1.10693,0.20467c0,0 -0.55738,0.04745 -0.61931,-0.37963c-0.06192,-0.42708 0.49546,-0.47453 0.49546,-0.47453c0.25948,-0.02161 0.48154,-0.05456 0.66987,-0.10127c-0.41711,-0.3778 -0.76641,-0.81813 -1.04072,-1.25061c-0.28601,0.14561 -0.62041,0.23434 -0.96585,0.26587c-0.04208,0.1647 -0.09279,0.32954 -0.15426,0.49451c0.13103,-0.07824 0.33908,-0.13995 0.60899,-0.01802c0.48307,0.2183 0.19816,0.58841 0.19816,0.58841l-0.39591,0.49178c-0.39273,0.19473 -0.85496,0.34563 -1.30598,0.41942c-0.36154,0.47076 -0.72833,0.93042 -0.93655,1.4536c0.1375,0.09566 0.28459,0.20687 0.44501,0.33319l0.37258,0.42589c0,0 0.30466,0.36075 -0.1662,0.59419c-0.47081,0.23344 -0.77548,-0.12735 -0.77548,-0.12735l-0.23486,-0.29347c-0.09337,-0.07352 -0.15823,-0.18266 -0.22152,-0.2909c-0.05527,0.00272 -0.11651,-0.00061 -0.18436,-0.01175c-0.29647,-0.04869 -0.3983,-0.19382 -0.42933,-0.31693c-0.23959,0.105 -0.36655,0.41391 -0.58077,0.57498c0,0 -0.40194,0.29967 -0.79303,-0.00831c-0.39109,-0.30798 0.01089,-0.60765 0.01089,-0.60765c0.68517,-0.50719 1.13632,-0.73119 1.57944,-0.69791c0.18989,-0.37769 0.44044,-0.72102 0.69779,-1.06393c-0.51716,-0.1605 -0.83907,-0.55837 -0.70879,-1.29956c0,0 0.11753,-0.42017 0.66588,-0.33012c0.54836,0.09005 0.43083,0.51022 0.43083,0.51022c-0.14481,0.25489 -0.05183,0.3646 0.14084,0.39312c0.16606,-0.24747 0.31749,-0.506 0.43659,-0.78669c0.07441,-0.17542 0.13468,-0.35087 0.18362,-0.52646c-0.44084,-0.12587 -0.82718,-0.35726 -1.06585,-0.69473c-0.04368,0.02444 -0.07555,0.03668 -0.07555,0.03668c-0.18895,0.07223 -0.37886,0.14094 -0.56952,0.20722c0.0493,0.00994 0.09822,0.01831 0.14626,0.02498c0,0 0.54836,0.09005 0.43083,0.51022c-0.11753,0.42017 -0.66588,0.33012 -0.66588,0.33012c-0.46917,-0.08489 -0.89584,-0.23055 -1.24684,-0.42974c-0.21798,0.06881 -0.43622,0.13766 -0.65441,0.20824c-0.00612,0.35828 -0.41349,0.80749 -1.17976,1.37872c0,0 -0.40194,0.29967 -0.79304,-0.00835c-0.39109,-0.30798 0.01085,-0.60764 0.01085,-0.60764c0.16617,-0.12387 0.53011,-0.2771 0.83187,-0.4125c-0.13227,-0.01035 -0.2766,-0.06247 -0.39281,-0.20618c-0.06147,-0.076 -0.08952,-0.146 -0.09539,-0.20922c-0.20496,-0.02267 -0.41114,-0.04896 -0.62232,-0.08364l-0.50521,-0.36655c0,0 -0.30466,-0.36075 0.1662,-0.59419c0.47081,-0.23344 0.77548,0.12735 0.77548,0.12735l-0.20149,-0.00689c0.52585,0.08633 0.94415,0.18483 1.25974,0.29901c0.21436,-0.07092 0.42899,-0.13948 0.64351,-0.20727c-0.19164,-0.30861 -0.26482,-0.66924 -0.18066,-1.07336l0.23236,-0.08072c-0.09971,-0.1058 -0.11714,-0.2261 -0.11714,-0.2261c-0.02082,-0.15645 -0.05565,-0.29896 -0.09493,-0.43022c-0.8747,-0.12916 -1.72057,-0.3097 -2.47658,-0.64344c0,0 -0.09616,-0.04345 -0.17737,-0.1245c-0.34812,0.24656 -0.76174,0.44607 -1.27797,0.60876c0,0 -0.52143,0.15814 -0.72787,-0.24139c-0.20639,-0.39954 0.31504,-0.55771 0.31504,-0.55771c0.71551,-0.20563 1.08919,-0.57671 1.64756,-0.96674l-0.36578,-0.31499c0,0 -0.30466,-0.36075 0.1662,-0.59419c0.47081,-0.23344 0.77548,0.12735 0.77548,0.12735l0.54543,0.76405c-0.12357,0.19412 -0.25194,0.37279 -0.39009,0.53722c0.03717,0.01198 0.05906,0.02188 0.05906,0.02188c0.48572,0.22633 1.06152,0.38633 1.67652,0.50886c0.01847,-0.27835 0.23869,-0.51956 0.93858,-0.80273l0.25157,0.00543c0.05743,-0.09154 0.12023,-0.17606 0.18858,-0.25355l-0.62272,-0.42928c0,0 -0.11785,-0.08127 -0.17186,-0.20544c-0.60615,-0.03797 -1.23404,-0.29442 -1.691,-0.79029c0,0 -0.30466,-0.36075 0.1662,-0.59419c0.47081,-0.23344 0.77548,0.12735 0.77548,0.12735c0.51432,0.71116 1.76931,0.52807 1.58113,-0.37499l-0.21719,-0.17367c0,0 -0.30466,-0.36075 0.1662,-0.59419c0.47081,-0.23344 0.77548,0.12735 0.77548,0.12735l0.3903,0.54568c0.07546,0.70286 -0.24986,1.20499 -0.7515,1.48196l0.44176,0.30479c0.01333,0.01017 0.02666,0.02031 0.0399,0.03031c0.14832,-0.04255 0.30819,-0.07195 0.4801,-0.08833c0.04632,-0.13879 0.17983,-0.23214 0.17983,-0.23214c0.83743,-0.58525 1.87945,-1.20762 2.63643,-1.03536c0.19139,-0.41607 0.37466,-0.8337 0.51754,-1.25986c-0.0844,-0.07767 -0.13951,-0.19117 -0.09375,-0.35469c0.01933,-0.06898 0.05023,-0.12425 0.0884,-0.16839c-0.18582,-0.12742 -0.38339,-0.22512 -0.6102,-0.25231c0,0 -0.54836,-0.09005 -0.43083,-0.51022c0.11753,-0.42017 0.66588,-0.33012 0.66588,-0.33012c0.50964,0.09677 0.99049,0.32236 1.36129,0.60714c0.1971,0.15139 0.38013,0.71373 0.49337,0.51829c0.17958,-0.31001 0.33903,-0.63157 0.58586,-0.91316l-0.04144,0.0015c0,0 0.11753,-0.42017 0.66588,-0.33012c0.54836,0.09005 0.43083,0.51022 0.43083,0.51022l-0.12425,0.2977c-0.07675,0.08749 -1.03872,1.2332 -1.23656,1.26602c-0.26025,0.04315 -0.48295,0.00193 -0.68433,-0.08589c-0.21276,0.60687 -0.50819,1.19711 -0.78469,1.79165c0.05371,0.14052 0.09837,0.30185 0.13293,0.4859l-0.09188,0.43371c0,0 -0.10192,0.36447 -0.559,0.34177c-0.03161,0.09639 -0.06101,0.19328 -0.08781,0.29071c0.31723,-0.06908 0.6362,-0.1072 0.94269,-0.10981c-0.01974,-0.02488 -0.03796,-0.05286 -0.05418,-0.08431c-0.20639,-0.39954 0.31504,-0.55771 0.31504,-0.55771l0.56443,-0.16222c0.94021,-0.67524 1.73561,-0.74295 2.22472,-0.43639c0.24868,-0.08871 0.49971,-0.16948 0.74715,-0.24395l0.53418,-0.04844c0.01307,-0.11959 0.03786,-0.2483 0.07444,-0.38627c0,0 0.11753,-0.42017 0.66588,-0.33012c0.54836,0.09005 0.43083,0.51022 0.43083,0.51022c-0.19029,0.63565 -0.26562,0.71804 0.65068,0.48827l0.30485,-0.17743c0,0 0.47081,-0.23344 0.77548,0.12735c0.30466,0.36075 -0.1662,0.59419 -0.1662,0.59419l-0.63393,0.28803c-0.94732,0.15753 -1.58253,0.07143 -1.89262,-0.26876l-0.47295,0.03696c-0.16682,0.05116 -0.34365,0.10795 -0.52382,0.17072c0.04973,0.25943 0.03437,0.56076 -0.05722,0.88809c0,0 -0.11753,0.42017 -0.66588,0.33012c-0.54836,-0.09005 -0.43083,-0.51022 -0.43083,-0.51022c0.02437,-0.08721 0.04531,-0.16857 0.06217,-0.24359c-0.30216,0.16187 -0.57098,0.34641 -0.76707,0.55612c0.19413,0.18439 0.33942,0.41946 0.41902,0.71052c0.12546,-0.40458 0.66184,-0.3165 0.66184,-0.3165l0.57984,0.0952c1.41007,0.39266 1.32747,1.01043 0.71259,1.63837c0.4377,0.08621 0.87809,0.16824 1.32233,0.2439c0.25177,-0.19143 0.6456,-0.33313 1.20949,-0.39767l0.52746,0.8133c0,0 -0.11753,0.42017 -0.66588,0.33012c-0.14623,-0.02403 -0.2451,-0.0715 -0.31152,-0.12822c-0.19164,0.2242 0.23092,0.63316 0.61007,0.92117c0,0 0.39109,0.30798 -0.01085,0.60764c-0.40194,0.29967 -0.79304,-0.00835 -0.79304,-0.00835c-0.50721,-0.41017 -0.84907,-0.88572 -0.91238,-1.31566c-0.63879,-0.10653 -1.26947,-0.21612 -1.89475,-0.33032c-0.02101,0.0135 -0.26636,0.16594 -0.54032,0.09336l-0.01454,0.03131c0.09041,0.68694 0.01004,1.2473 -0.28965,1.67314c0.03967,0.01982 0.07976,0.03879 0.12012,0.05691l0.03358,0.05455l0.02185,-0.01632l0.46274,0.36443c0.35658,-0.14448 0.82326,-0.2038 1.37894,-0.13585l0.38658,0.06349c0,0 0.54836,0.09005 0.43083,0.51022zM249.52017,191.83274c-0.04053,0.1448 -0.13215,0.22901 -0.23492,0.27721c0.01668,0.09518 0.06062,0.18473 0.12493,0.26759c0.39004,-0.12646 0.7777,-0.25849 1.16087,-0.40563c0,0 0.14797,-0.0567 0.3234,-0.04692c-0.00695,-0.2382 0.04299,-0.46789 0.13892,-0.68573c-0.53283,-0.08214 -1.07898,-0.14324 -1.62432,-0.20695c0.02367,0.06391 0.04188,0.12671 0.05115,0.18688c0,0 0.01774,0.12244 -0.05134,0.24352c0.09399,0.07784 0.16018,0.1954 0.11134,0.37001zM251.65696,189.37012c-0.03689,-0.00605 -0.07079,-0.01364 -0.10193,-0.02245c0.23135,0.20113 0.42899,0.42345 0.58565,0.71117c0.12872,-0.08183 0.26414,-0.15816 0.40446,-0.22856c0.11049,-0.66952 0.36325,-1.30721 0.64687,-1.93745c-0.27119,-0.16546 -0.7568,0.25426 -1.19123,0.60285l0.32202,0.54433c0,0 -0.11753,0.42017 -0.66588,0.33012zM250.01719,190.05554c0,0 -0.03597,0.12866 -0.16107,0.22836c0.43988,0.05271 0.87524,0.10083 1.28995,0.1536c-0.17039,-0.39964 -0.51253,-0.65524 -0.90794,-0.91318c-0.09265,0.13468 -0.16344,0.30997 -0.22098,0.53126zM257.82822,191.15793l-0.57984,-0.0952c0,0 -0.26067,-0.04278 -0.38402,-0.20709c-0.06945,0.23394 -0.15937,0.44237 -0.25538,0.64468c0.33676,0.07368 0.67396,0.14693 1.01223,0.21867c0.44029,-0.29911 0.87638,-0.65638 0.20701,-0.56105zM256.18721,192.91147l0.09188,-0.43371c0,0 0.00942,-0.03371 0.03536,-0.07992c-0.03614,-0.0072 -0.07229,-0.01439 -0.10844,-0.02162c-0.01203,0.0319 -0.0238,0.06425 -0.03516,0.09707l-0.83477,0.45163c0.21498,0.33535 0.49321,0.67409 0.81861,0.96885c0.09884,-0.24599 0.10016,-0.56734 0.03254,-0.98227zM255.75801,190.74201c0.11211,-0.84235 -1.11523,-0.71886 -2.15775,-0.2857c-0.01015,0.13217 -0.01793,0.26391 -0.02423,0.39532c0.65689,0.13082 1.30946,0.27116 1.96175,0.41374c0.08486,-0.16344 0.16776,-0.3312 0.22023,-0.52333zM253.54072,191.79727c-0.0117,0.28409 -0.02805,0.56716 -0.05951,0.84985c0.32173,-0.06949 0.56977,-0.30001 0.54945,-0.73629c-0.16327,-0.03728 -0.32655,-0.07513 -0.4899,-0.11357zM252.43685,191.52852c-0.0678,-0.01705 -0.13564,-0.03424 -0.2035,-0.05153c-0.00079,-0.00019 -0.00163,-0.00041 -0.00242,-0.0006c-0.15065,0.35339 -0.0501,0.6504 0.16482,0.85977c0.02302,-0.26844 0.03334,-0.53757 0.0411,-0.80764z" fill="#a8f2ff" stroke-width="0.5"/><path d="M309.1256,159.59735c2.2355,8.21146 -5.67865,16.42277 -17.67674,18.34047c-11.99809,1.9177 -23.53669,-3.1844 -25.77218,-11.39586c-2.2355,-8.21146 5.67865,-16.42277 17.67674,-18.34047c11.99809,-1.9177 23.53669,3.1844 25.77218,11.39586z" fill="url(#color-1)" stroke-width="0"/><path d="M326.46394,157.57932c3.60685,13.24874 -9.16219,26.49723 -28.52043,29.59134c-19.35825,3.09411 -37.97513,-5.13785 -41.58198,-18.38659c-3.60685,-13.24874 9.16218,-26.49723 28.52043,-29.59133c19.35825,-3.09411 37.97514,5.13784 41.58199,18.38659z" fill="url(#color-2)" stroke-width="0"/><path d="M307.09839,166.56078c3.60685,13.24874 -9.16219,26.49724 -28.52044,29.59134c-19.35825,3.09411 -37.97513,-5.13785 -41.58198,-18.38659c-3.60685,-13.24874 9.16218,-26.49723 28.52043,-29.59133c19.35825,-3.09411 37.97514,5.13784 41.58199,18.38659z" fill="url(#color-3)" stroke-width="0"/><path d="M303.03508,152.522c3.60685,13.24874 -9.16219,26.49724 -28.52044,29.59134c-19.35825,3.09411 -37.97513,-5.13785 -41.58198,-18.38659c-3.60685,-13.24874 9.16218,-26.49723 28.52043,-29.59133c19.35825,-3.09411 37.97514,5.13784 41.58199,18.38659z" fill="url(#color-4)" stroke-width="0"/><path d="M332.13222,147.97759c2.2355,8.21146 -5.67865,16.42277 -17.67674,18.34048c-11.99809,1.9177 -23.53668,-3.1844 -25.77218,-11.39586c-2.2355,-8.21146 5.67865,-16.42277 17.67673,-18.34047c11.99809,-1.9177 23.53669,3.18439 25.77218,11.39586z" fill="url(#color-5)" stroke-width="0"/><path d="M349.47056,145.95956c3.60685,13.24874 -9.16219,26.49724 -28.52044,29.59134c-19.35825,3.09411 -37.97513,-5.13785 -41.58198,-18.38659c-3.60685,-13.24874 9.16218,-26.49723 28.52043,-29.59133c19.35825,-3.09411 37.97514,5.13784 41.58199,18.38659z" fill="url(#color-6)" stroke-width="0"/><path d="M330.10501,154.94102c3.60685,13.24874 -9.16219,26.49724 -28.52044,29.59134c-19.35825,3.09411 -37.97513,-5.13785 -41.58198,-18.38659c-3.60685,-13.24874 9.16218,-26.49723 28.52043,-29.59133c19.35825,-3.09411 37.97514,5.13784 41.58199,18.38659z" fill="url(#color-7)" stroke-width="0"/><path d="M326.0417,140.90225c3.60685,13.24874 -9.16219,26.49724 -28.52044,29.59134c-19.35825,3.09411 -37.97513,-5.13785 -41.58198,-18.38659c-3.60685,-13.24874 9.16218,-26.49723 28.52043,-29.59133c19.35825,-3.09411 37.97514,5.13784 41.58199,18.38659z" fill="url(#color-8)" stroke-width="0"/><path d="M327.69409,169.75099c2.2355,8.21146 -5.67865,16.42277 -17.67674,18.34048c-11.99809,1.9177 -23.53668,-3.1844 -25.77218,-11.39586c-2.2355,-8.21146 5.67865,-16.42277 17.67673,-18.34047c11.99809,-1.9177 23.53669,3.18439 25.77218,11.39586z" fill="url(#color-9)" stroke-width="0"/><path d="M345.03243,167.73296c3.60685,13.24874 -9.16219,26.49724 -28.52044,29.59134c-19.35825,3.09411 -37.97513,-5.13785 -41.58198,-18.38659c-3.60685,-13.24874 9.16218,-26.49723 28.52043,-29.59133c19.35825,-3.09411 37.97514,5.13784 41.58199,18.38659z" fill="url(#color-10)" stroke-width="0"/><path d="M325.66688,176.71442c3.60685,13.24874 -9.16219,26.49724 -28.52044,29.59134c-19.35825,3.09411 -37.97513,-5.13785 -41.58198,-18.38659c-3.60685,-13.24874 9.16218,-26.49723 28.52043,-29.59133c19.35825,-3.09411 37.97514,5.13784 41.58199,18.38659z" fill="url(#color-11)" stroke-width="0"/><path d="M324.97825,162.13626c3.60685,13.24874 -9.16219,26.49724 -28.52044,29.59134c-19.35825,3.09411 -37.97513,-5.13785 -41.58198,-18.38659c-3.60685,-13.24874 9.16218,-26.49723 28.52043,-29.59133c19.35825,-3.09411 37.97514,5.13784 41.58199,18.38659z" fill="url(#color-12)" stroke-width="0"/><path d="M364.05916,186.76773c3.60685,13.24874 -9.16219,26.49724 -28.52044,29.59134c-19.35825,3.09411 -37.97513,-5.13785 -41.58198,-18.38659c-3.60685,-13.24874 9.16218,-26.49723 28.52043,-29.59133c19.35825,-3.09411 37.97514,5.13784 41.58199,18.38659z" fill="url(#color-13)" stroke-width="0"/><path d="M321.31406,190.71661c3.60685,13.24874 -9.16219,26.49724 -28.52044,29.59134c-19.35825,3.09411 -37.97513,-5.13785 -41.58198,-18.38659c-3.60685,-13.24874 9.16218,-26.49723 28.52043,-29.59133c19.35825,-3.09411 37.97514,5.13784 41.58199,18.38659z" fill="url(#color-14)" stroke-width="0"/><path d="M383.63388,156.96085c3.60685,13.24874 -9.16219,26.49724 -28.52044,29.59134c-19.35825,3.09411 -37.97513,-5.13785 -41.58198,-18.38659c-3.60685,-13.24874 9.16218,-26.49723 28.52043,-29.59133c19.35825,-3.09411 37.97514,5.13784 41.58199,18.38659z" fill="url(#color-15)" stroke-width="0"/><path d="M352.8318,132.018c3.60685,13.24874 -9.16219,26.49724 -28.52044,29.59134c-19.35825,3.09411 -37.97513,-5.13785 -41.58198,-18.38659c-3.60685,-13.24874 9.16218,-26.49723 28.52043,-29.59133c19.35825,-3.09411 37.97514,5.13784 41.58199,18.38659z" fill="url(#color-16)" stroke-width="0"/><path d="M359.72751,130.55353c0.39515,0.30492 -0.0028,0.60769 -0.0028,0.60769l-0.28055,0.21345c-0.7455,0.45217 -0.148,0.92441 0.60815,0.77583c0,0 0.5503,-0.08281 0.65837,0.33885c0.10807,0.42166 -0.44227,0.50445 -0.44227,0.50445c-0.8304,0.10267 -1.50364,-0.09044 -1.88451,-0.4366l-0.98098,0.44745c-0.0619,0.25407 -0.18765,0.52726 -0.38084,0.82226c0,0 -0.25256,0.38367 -0.75328,0.19015c-0.50072,-0.19352 -0.24816,-0.57719 -0.24816,-0.57719c0.1181,-0.17835 0.20337,-0.33887 0.25516,-0.48526c-0.64085,0.06137 -1.313,0.04506 -1.93563,-0.01509c0.00297,0.26311 -0.08268,0.52619 -0.23688,0.76514c0.15707,0.11696 0.30958,0.23955 0.45636,0.36911c-0.01397,-0.12684 0.0322,-0.29408 0.31292,-0.40072c0.5025,-0.19082 0.75151,0.1942 0.75151,0.1942l0.32138,0.52271c-0.00162,0.35842 -0.08911,0.73753 -0.25479,1.06732c0.31719,0.48918 0.61936,0.97565 1.07758,1.39505c0.17968,-0.036 0.38159,-0.06967 0.60731,-0.10364l0.6691,-0.00653c0,0 0.56078,0.00149 0.55881,0.43121c-0.00195,0.42969 -0.56277,0.42818 -0.56277,0.42818l-0.4491,-0.00955c-0.13137,0.01977 -0.28612,0.00179 -0.439,-0.01671c-0.02721,0.03696 -0.0643,0.07445 -0.11354,0.11192c-0.21516,0.16369 -0.42943,0.14979 -0.58096,0.10246c-0.01607,0.21113 0.2523,0.46134 0.31138,0.68681c0,0 0.10807,0.42165 -0.44223,0.50446c-0.5503,0.08281 -0.65835,-0.33888 -0.65835,-0.33888c-0.18024,-0.71679 -0.17872,-1.1287 0.09969,-1.39494c-0.30918,-0.32817 -0.54768,-0.67651 -0.78199,-1.02898c-0.45793,0.24427 -1.06872,0.23358 -1.80785,-0.25487c0,0 -0.39515,-0.30492 0.0028,-0.6077c0.39795,-0.30278 0.79311,0.00215 0.79311,0.00215c0.19956,0.23216 0.37028,0.2324 0.50669,0.12432c-0.17984,-0.24175 -0.37977,-0.48015 -0.62157,-0.7099c-0.15113,-0.14357 -0.31002,-0.27808 -0.47525,-0.4054c-0.37838,0.2142 -0.84236,0.33579 -1.34165,0.30466c0.00287,0.04139 -0.00117,0.06852 -0.00117,0.06852c-0.02424,0.16073 -0.05285,0.32015 -0.08453,0.47872c0.03779,-0.02622 0.07366,-0.05304 0.10719,-0.08023c0,0 0.39795,-0.30278 0.7931,0.00215c0.39515,0.30492 -0.0028,0.6077 -0.0028,0.6077c-0.34906,0.25477 -0.74135,0.44906 -1.15082,0.56556c-0.04383,0.17749 -0.08776,0.35517 -0.12977,0.53376c0.38834,0.19962 0.65694,0.70643 0.86289,1.51026c0,0 0.10807,0.42166 -0.44228,0.50445c-0.5503,0.08281 -0.65837,-0.33885 -0.65837,-0.33885c-0.04466,-0.17432 -0.01339,-0.49159 0.0034,-0.75923c-0.08356,0.07924 -0.21937,0.14341 -0.43995,0.13951c-0.11666,-0.00206 -0.20851,-0.02228 -0.28083,-0.05305c-0.13673,0.11917 -0.27808,0.23715 -0.43134,0.35375l-0.67666,0.12406c0,0 -0.56078,-0.00149 -0.55881,-0.43121c0.00195,-0.42969 0.56277,-0.42818 0.56277,-0.42818l-0.11759,0.12556c0.38159,-0.29036 0.71775,-0.50504 1.01494,-0.64524c0.03955,-0.17632 0.08183,-0.35152 0.12488,-0.52624c-0.44205,-0.04555 -0.87628,-0.19556 -1.27211,-0.4703l0.03866,-0.19323c-0.17013,0.00621 -0.31116,-0.04831 -0.31116,-0.04831c-0.1824,-0.07209 -0.35722,-0.12757 -0.52218,-0.17405c-0.61895,0.49087 -1.27832,0.93518 -2.0561,1.23813c0,0 -0.10002,0.03799 -0.23298,0.04584c0.07941,0.35811 0.07161,0.73256 -0.0325,1.15275c0,0 -0.11192,0.42105 -0.66145,0.33533c-0.54951,-0.08575 -0.43764,-0.50682 -0.43764,-0.50682c0.166,-0.57156 -0.03558,-1.01408 -0.15699,-1.58549l-0.54414,0.06273c0,0 -0.56078,-0.00149 -0.55882,-0.43121c0.00195,-0.42969 0.56277,-0.42818 0.56277,-0.42818l1.13319,0.06724c0.14473,0.18534 0.26994,0.36532 0.37424,0.5438c0.0334,-0.01731 0.05618,-0.02595 0.05618,-0.02595c0.51272,-0.18814 1.00214,-0.47031 1.47199,-0.79813c-0.29422,-0.16389 -0.43763,-0.43698 -0.36493,-1.04086l0.14333,-0.1585c-0.06871,-0.08686 -0.1268,-0.17333 -0.17418,-0.25953l-0.80942,0.16522c0,0 -0.15322,0.03125 -0.31847,-0.0019c-0.37258,0.36831 -0.99589,0.63125 -1.78757,0.65371c0,0 -0.56078,-0.00149 -0.55881,-0.43121c0.00195,-0.42969 0.56277,-0.42818 0.56277,-0.42818c1.05838,0.05831 1.54367,-0.8472 0.45364,-1.21965l-0.30848,0.04455c0,0 -0.56078,-0.00149 -0.55881,-0.43121c0.00195,-0.42969 0.56277,-0.42818 0.56277,-0.42818l0.80973,0.04754c0.80961,0.33546 1.18086,0.81852 1.20966,1.29177l0.57449,-0.11707c0.0184,-0.003 0.03676,-0.00602 0.05494,-0.00905c0.03449,-0.11843 0.08966,-0.23711 0.16566,-0.35639c-0.12644,-0.10553 -0.15556,-0.24222 -0.15556,-0.24222c-0.18242,-0.85715 -0.29368,-1.8659 0.30809,-2.25767c-0.35032,-0.35009 -0.7068,-0.69582 -1.09465,-1.02029c-0.13101,0.01174 -0.28519,-0.01487 -0.43896,-0.13356c-0.06485,-0.05008 -0.1084,-0.1001 -0.13581,-0.14872c-0.2408,0.04967 -0.45551,0.12312 -0.60912,0.25384c0,0 -0.39795,0.30278 -0.7931,-0.00215c-0.39515,-0.30492 0.0028,-0.6077 0.0028,-0.6077c0.38415,-0.27425 0.8934,-0.45967 1.40726,-0.54212c0.27316,-0.04382 0.9879,0.14584 0.83608,-0.03359c-0.24082,-0.28458 -0.50528,-0.56256 -0.67831,-0.87478l-0.02099,0.02741c0,0 -0.39515,-0.30492 0.0028,-0.6077c0.39795,-0.30278 0.7931,0.00215 0.7931,0.00215l0.25759,0.24234c0.05372,0.09705 0.78084,1.34025 0.70867,1.48515c-0.09497,0.19061 -0.26167,0.31103 -0.46767,0.39232c0.54724,0.46802 1.03115,0.98002 1.5301,1.48222c0.18295,0.04228 0.38372,0.10173 0.60381,0.18007l0.42396,0.29586c0,0 0.34279,0.26449 0.06832,0.54546c0.08812,0.07294 0.17798,0.14472 0.26985,0.21514c0.09774,-0.24134 0.23029,-0.46689 0.39484,-0.66503c-0.03798,-0.00092 -0.07852,-0.0045 -0.12176,-0.01127c-0.54951,-0.08575 -0.43764,-0.50682 -0.43764,-0.50682l0.13094,-0.45088c-0.22466,-0.97227 0.13575,-1.51978 0.73803,-1.66627c0.03885,-0.20806 0.08765,-0.4133 0.14138,-0.61279l0.23881,-0.36932c-0.1236,-0.0737 -0.25076,-0.15992 -0.38163,-0.25875c0,0 -0.39515,-0.30492 0.0028,-0.6077c0.39795,-0.30278 0.7931,0.00215 0.7931,0.00215c0.59098,0.46932 0.6399,0.56267 0.88918,-0.15095l-0.02747,-0.29257c0,0 0.00195,-0.42969 0.56277,-0.42818c0.56078,0.00149 0.55882,0.43121 0.55882,0.43121l-0.03135,0.5642c-0.3452,0.69407 -0.78627,1.05475 -1.32755,1.06797l-0.21792,0.32375c-0.03519,0.13502 -0.06968,0.27953 -0.09947,0.42946c0.31078,0.10978 0.63181,0.28421 0.93963,0.52178c0,0 0.39515,0.30492 -0.0028,0.6077c-0.39795,0.30278 -0.79311,-0.00215 -0.79311,-0.00215c-0.08203,-0.06328 -0.15954,-0.12116 -0.23234,-0.17295c0.01192,0.28235 0.06684,0.55568 0.189,0.79608c0.30761,-0.0239 0.64395,0.01125 1.00563,0.11913c-0.37377,-0.3015 0.01548,-0.59766 0.01548,-0.59766l0.42078,-0.32017c1.19943,-0.69058 1.82968,-0.30014 2.18032,0.43749c0.33331,-0.23385 0.66353,-0.4717 0.98888,-0.71551c-0.07176,-0.26615 -0.01158,-0.59632 0.22586,-0.9935l1.17722,0.10567c0,0 0.39515,0.30492 -0.0028,0.6077c-0.10614,0.08073 -0.21204,0.11827 -0.31033,0.12991c0.14043,0.24545 0.81831,0.19761 1.34026,0.11156c0,0 0.5503,-0.08281 0.65837,0.33885c0.10807,0.42166 -0.44227,0.50445 -0.44227,0.50445c-0.72544,0.10152 -1.43205,0.0612 -1.93665,-0.13299c-0.46536,0.35182 -0.92963,0.69676 -1.396,1.03571c0.00329,0.02086 0.03592,0.2616 -0.19305,0.39779l0.02629,0.02644c0.80036,0.31716 1.36906,0.67481 1.67093,1.09975c0.04333,-0.01464 0.08597,-0.03001 0.12782,-0.04602l0.07797,0.00824l-0.00591,-0.02294l0.65115,-0.09796c0.03681,-0.30778 0.22685,-0.63972 0.60465,-0.95926l0.28055,-0.21345c0,0 0.39795,-0.30278 0.79311,0.00215zM350.20134,135.2404c0.13616,0.1051 0.17818,0.2099 0.17475,0.30219c0.11317,0.04127 0.23506,0.06198 0.36078,0.06597c0.07478,-0.31942 0.14218,-0.64034 0.1906,-0.96664c0,0 0.01883,-0.12594 0.12535,-0.2332c-0.2642,-0.12564 -0.48803,-0.28315 -0.67379,-0.46371c-0.38082,0.29713 -0.74592,0.6143 -1.11342,0.92952c0.0828,0.01971 0.1614,0.04233 0.23224,0.06924c0,0 0.14354,0.05549 0.23818,0.16596c0.13643,-0.01781 0.3011,0.00391 0.46532,0.13063zM348.6762,132.52388c-0.02676,0.02038 -0.05358,0.03799 -0.08022,0.05316c0.34624,-0.03864 0.69724,-0.04406 1.09735,0.01254c-0.01916,-0.12731 -0.02864,-0.25593 -0.02896,-0.38444c-0.6716,-0.4366 -1.23068,-0.94712 -1.76477,-1.47339c-0.32901,0.08369 -0.13539,0.62462 0.00842,1.09385l0.77096,0.09062c0,0 0.39515,0.30492 -0.0028,0.6077zM348.52992,133.95072c0,0 0.121,0.09336 0.16168,0.22811c0.29787,-0.25355 0.58828,-0.5067 0.87247,-0.74405c-0.52996,-0.10891 -0.99627,-0.02892 -1.49422,0.08399c0.09663,0.13302 0.2496,0.2742 0.4601,0.432zM354.00135,129.53938l-0.42077,0.32017c0,0 -0.18915,0.14394 -0.43615,0.13337c0.21782,0.17235 0.39658,0.34391 0.5653,0.51603c0.26448,-0.17591 0.52873,-0.35232 0.79192,-0.53026c-0.08652,-0.44597 -0.23891,-0.921 -0.5003,-0.4393zM355.02209,131.55041l-0.42396,-0.29586c0,0 -0.03171,-0.02445 -0.06806,-0.06634c-0.02761,0.01927 -0.05522,0.03854 -0.08287,0.05779c0.0283,0.02514 0.05724,0.05037 0.08691,0.07558l0.0378,0.78247c0.48403,0.04518 1.00633,0.05162 1.50629,0.00376c-0.21494,-0.19779 -0.56554,-0.37416 -1.05608,-0.55739zM352.41594,130.64096c-0.85966,-0.53204 -1.39501,0.32317 -1.49087,1.22888c0.13894,0.0787 0.27873,0.15565 0.41895,0.23147c0.5018,-0.35017 1.01165,-0.69236 1.5238,-1.03315c-0.13233,-0.14374 -0.27045,-0.28857 -0.45184,-0.42718zM352.35853,132.64047c0.30419,0.16267 0.60471,0.32778 0.89658,0.50237c0.09976,-0.24445 -0.01678,-0.52957 -0.50483,-0.75481c-0.12993,0.08443 -0.26049,0.16856 -0.39173,0.25241zM351.46181,133.2022c-0.05568,0.0342 -0.11151,0.06835 -0.16749,0.10247c-0.00064,0.0004 -0.00134,0.00082 -0.00198,0.00123c0.30405,0.28971 0.68367,0.38739 1.02995,0.36381c-0.2809,-0.16139 -0.56948,-0.31502 -0.86049,-0.46751z" fill="#a8f2ff" stroke-width="0.5"/><path d="M364.11883,186.51903c0.28428,0.21937 -0.00202,0.43719 -0.00202,0.43719l-0.20184,0.15356c-0.53633,0.3253 -0.10648,0.66504 0.43752,0.55815c0,0 0.3959,-0.05957 0.47364,0.24377c0.07775,0.30335 -0.31818,0.36291 -0.31818,0.36291c-0.59741,0.07386 -1.08175,-0.06507 -1.35576,-0.3141l-0.70574,0.3219c-0.04453,0.18278 -0.135,0.37932 -0.27398,0.59155c0,0 -0.1817,0.27602 -0.54192,0.1368c-0.36023,-0.13922 -0.17853,-0.41524 -0.17853,-0.41524c0.08496,-0.12831 0.14631,-0.24379 0.18357,-0.34911c-0.46104,0.04415 -0.9446,0.03242 -1.39253,-0.01085c0.00214,0.18928 -0.05948,0.37855 -0.17042,0.55045c0.113,0.08415 0.22272,0.17234 0.32831,0.26554c-0.01005,-0.09125 0.02316,-0.21157 0.22512,-0.28828c0.36151,-0.13728 0.54065,0.13971 0.54065,0.13971l0.23121,0.37605c-0.00117,0.25786 -0.06411,0.53059 -0.1833,0.76785c0.22819,0.35192 0.44559,0.7019 0.77524,1.00363c0.12927,-0.0259 0.27452,-0.05012 0.43691,-0.07456l0.48137,-0.0047c0,0 0.40343,0.00108 0.40202,0.31022c-0.0014,0.30913 -0.40487,0.30804 -0.40487,0.30804l-0.32309,-0.00687c-0.09451,0.01422 -0.20584,0.00129 -0.31583,-0.01202c-0.01958,0.02659 -0.04626,0.05356 -0.08168,0.08052c-0.15479,0.11776 -0.30894,0.10776 -0.41796,0.07371c-0.01156,0.15189 0.18151,0.3319 0.22401,0.49411c0,0 0.07775,0.30334 -0.31815,0.36292c-0.3959,0.05957 -0.47363,-0.2438 -0.47363,-0.2438c-0.12967,-0.51567 -0.12857,-0.81201 0.07172,-1.00355c-0.22243,-0.23609 -0.39401,-0.48669 -0.56258,-0.74027c-0.32945,0.17573 -0.76886,0.16804 -1.30061,-0.18336c0,0 -0.28428,-0.21937 0.00202,-0.43719c0.2863,-0.21782 0.57058,0.00154 0.57058,0.00154c0.14357,0.16702 0.26639,0.1672 0.36452,0.08944c-0.12938,-0.17392 -0.27321,-0.34543 -0.44717,-0.51071c-0.10873,-0.10328 -0.22304,-0.20006 -0.3419,-0.29165c-0.27221,0.1541 -0.60601,0.24158 -0.96521,0.21918c0.00207,0.02977 -0.00084,0.04929 -0.00084,0.04929c-0.01744,0.11563 -0.03802,0.23032 -0.06081,0.3444c0.02719,-0.01886 0.05299,-0.03816 0.07712,-0.05772c0,0 0.28629,-0.21783 0.57057,0.00154c0.28428,0.21937 -0.00202,0.43719 -0.00202,0.43719c-0.25112,0.18329 -0.53334,0.32306 -0.82792,0.40687c-0.03153,0.12769 -0.06313,0.25552 -0.09336,0.384c0.27938,0.14361 0.47261,0.50822 0.62078,1.08651c0,0 0.07775,0.30335 -0.31818,0.36291c-0.3959,0.05957 -0.47365,-0.24378 -0.47365,-0.24378c-0.03213,-0.12541 -0.00963,-0.35366 0.00244,-0.5462c-0.06012,0.05701 -0.15782,0.10317 -0.31651,0.10037c-0.08393,-0.00148 -0.15,-0.01603 -0.20203,-0.03817c-0.09836,0.08573 -0.20005,0.17061 -0.31031,0.25449l-0.48681,0.08925c0,0 -0.40343,-0.00107 -0.40202,-0.31022c0.0014,-0.30913 0.40487,-0.30804 0.40487,-0.30804l-0.0846,0.09033c0.27452,-0.20889 0.51636,-0.36334 0.73017,-0.4642c0.02845,-0.12685 0.05887,-0.25289 0.08984,-0.37858c-0.31802,-0.03277 -0.63041,-0.14069 -0.91518,-0.33834l0.02782,-0.13901c-0.1224,0.00447 -0.22386,-0.03475 -0.22386,-0.03475c-0.13122,-0.05186 -0.25699,-0.09178 -0.37567,-0.12521c-0.44528,0.35314 -0.91965,0.67279 -1.4792,0.89074c0,0 -0.07196,0.02733 -0.16761,0.03298c0.05713,0.25763 0.05152,0.52702 -0.02338,0.82931c0,0 -0.08052,0.30291 -0.47586,0.24124c-0.39533,-0.06169 -0.31485,-0.36462 -0.31485,-0.36462c0.11942,-0.41119 -0.0256,-0.72955 -0.11295,-1.14063l-0.39146,0.04513c0,0 -0.40344,-0.00107 -0.40202,-0.31022c0.0014,-0.30913 0.40487,-0.30804 0.40487,-0.30804l0.81524,0.04837c0.10412,0.13333 0.19421,0.26282 0.26924,0.39122c0.02403,-0.01246 0.04041,-0.01867 0.04041,-0.01867c0.36886,-0.13535 0.72096,-0.33835 1.05898,-0.57419c-0.21166,-0.11791 -0.31484,-0.31438 -0.26254,-0.74882l0.10311,-0.11403c-0.04943,-0.06249 -0.09122,-0.1247 -0.12531,-0.18671l-0.58232,0.11886c0,0 -0.11023,0.02248 -0.22911,-0.00137c-0.26804,0.26497 -0.71646,0.45413 -1.28601,0.47029c0,0 -0.40343,-0.00107 -0.40202,-0.31022c0.0014,-0.30913 0.40487,-0.30804 0.40487,-0.30804c0.76142,0.04195 1.11055,-0.60949 0.32636,-0.87744l-0.22193,0.03205c0,0 -0.40343,-0.00108 -0.40202,-0.31022c0.0014,-0.30913 0.40487,-0.30804 0.40487,-0.30804l0.58254,0.0342c0.58245,0.24134 0.84953,0.58886 0.87025,0.92932l0.4133,-0.08422c0.01324,-0.00216 0.02645,-0.00433 0.03952,-0.00651c0.02481,-0.0852 0.0645,-0.17058 0.11917,-0.25639c-0.09096,-0.07592 -0.11191,-0.17426 -0.11191,-0.17426c-0.13124,-0.61665 -0.21128,-1.34236 0.22165,-1.62421c-0.25203,-0.25186 -0.50848,-0.50059 -0.78752,-0.73402c-0.09425,0.00845 -0.20517,-0.0107 -0.3158,-0.09608c-0.04666,-0.03603 -0.07799,-0.07202 -0.0977,-0.10699c-0.17324,0.03574 -0.3277,0.08857 -0.43821,0.18262c0,0 -0.28629,0.21783 -0.57057,-0.00154c-0.28428,-0.21937 0.00202,-0.43719 0.00202,-0.43719c0.27636,-0.1973 0.64273,-0.3307 1.01241,-0.39001c0.19652,-0.03152 0.71072,0.10492 0.6015,-0.02416c-0.17325,-0.20473 -0.36351,-0.40472 -0.48799,-0.62934l-0.0151,0.01972c0,0 -0.28428,-0.21937 0.00201,-0.43719c0.2863,-0.21782 0.57058,0.00155 0.57058,0.00155l0.18531,0.17435c0.03865,0.06982 0.56175,0.9642 0.50983,1.06845c-0.06832,0.13713 -0.18825,0.22376 -0.33645,0.28224c0.3937,0.3367 0.74183,0.70505 1.10078,1.06634c0.13162,0.03042 0.27606,0.07319 0.43439,0.12955l0.305,0.21285c0,0 0.24661,0.19028 0.04915,0.39242c0.06339,0.05247 0.12804,0.10411 0.19413,0.15478c0.07032,-0.17363 0.16568,-0.33589 0.28406,-0.47844c-0.02732,-0.00066 -0.05649,-0.00324 -0.0876,-0.00811c-0.39533,-0.06169 -0.31485,-0.36462 -0.31485,-0.36462l0.0942,-0.32437c-0.16163,-0.69947 0.09766,-1.09336 0.53096,-1.19875c0.02795,-0.14969 0.06306,-0.29734 0.10171,-0.44085l0.1718,-0.2657c-0.08892,-0.05302 -0.1804,-0.11505 -0.27455,-0.18615c0,0 -0.28428,-0.21937 0.00201,-0.43719c0.2863,-0.21782 0.57057,0.00155 0.57057,0.00155c0.42516,0.33764 0.46036,0.40479 0.63969,-0.1086l-0.01976,-0.21048c0,0 0.0014,-0.30913 0.40487,-0.30804c0.40344,0.00107 0.40203,0.31022 0.40203,0.31022l-0.02256,0.4059c-0.24834,0.49933 -0.56566,0.75881 -0.95506,0.76832l-0.15678,0.23291c-0.02531,0.09714 -0.05013,0.20109 -0.07156,0.30896c0.22358,0.07898 0.45453,0.20447 0.67599,0.37538c0,0 0.28428,0.21937 -0.00202,0.43719c-0.2863,0.21782 -0.57057,-0.00155 -0.57057,-0.00155c-0.05902,-0.04552 -0.11478,-0.08716 -0.16715,-0.12442c0.00858,0.20313 0.04809,0.39977 0.13597,0.57272c0.2213,-0.01719 0.46327,0.00809 0.72347,0.0857c-0.2689,-0.2169 0.01114,-0.42997 0.01114,-0.42997l0.30272,-0.23034c0.86289,-0.49681 1.31631,-0.21593 1.56857,0.31474c0.23979,-0.16823 0.47736,-0.33935 0.71142,-0.51475c-0.05163,-0.19147 -0.00833,-0.42901 0.16249,-0.71475l0.84691,0.07602c0,0 0.28428,0.21937 -0.00201,0.43719c-0.07636,0.05808 -0.15255,0.08508 -0.22326,0.09346c0.10103,0.17658 0.58871,0.14216 0.96421,0.08026c0,0 0.3959,-0.05957 0.47365,0.24378c0.07775,0.30335 -0.31818,0.36291 -0.31818,0.36291c-0.5219,0.07304 -1.03025,0.04403 -1.39326,-0.09568c-0.33479,0.25311 -0.6688,0.50126 -1.00431,0.74511c0.00237,0.01501 0.02585,0.1882 -0.13889,0.28618l0.01891,0.01902c0.5758,0.22818 0.98493,0.48548 1.2021,0.79118c0.03117,-0.01053 0.06185,-0.02159 0.09196,-0.0331l0.0561,0.00593l-0.00425,-0.0165l0.46845,-0.07047c0.02648,-0.22142 0.1632,-0.46023 0.435,-0.69011l0.20183,-0.15356c0,0 0.2863,-0.21782 0.57058,0.00154zM357.26551,189.89085c0.09796,0.07561 0.12818,0.15101 0.12572,0.2174c0.08141,0.02969 0.16911,0.04459 0.25955,0.04746c0.0538,-0.2298 0.10229,-0.46067 0.13712,-0.69542c0,0 0.01355,-0.0906 0.09018,-0.16777c-0.19007,-0.09039 -0.3511,-0.2037 -0.48474,-0.3336c-0.27397,0.21376 -0.53663,0.44194 -0.80102,0.66872c0.05957,0.01418 0.11611,0.03045 0.16708,0.04981c0,0 0.10327,0.03992 0.17135,0.1194c0.09815,-0.01281 0.21662,0.00281 0.33476,0.09398zM356.16829,187.93653c-0.01925,0.01466 -0.03854,0.02733 -0.05771,0.03825c0.24909,-0.0278 0.5016,-0.0317 0.78946,0.00902c-0.01378,-0.09159 -0.0206,-0.18412 -0.02083,-0.27657c-0.48316,-0.3141 -0.88538,-0.68138 -1.26961,-1.05999c-0.23669,0.06021 -0.0974,0.44936 0.00605,0.78694l0.55465,0.06519c0,0 0.28428,0.21937 -0.00202,0.43719zM356.06305,188.96303c0,0 0.08705,0.06716 0.11631,0.16411c0.2143,-0.18241 0.42322,-0.36453 0.62767,-0.53529c-0.38126,-0.07835 -0.71673,-0.02081 -1.07497,0.06042c0.06951,0.0957 0.17957,0.19727 0.331,0.31079zM359.99931,185.78943l-0.30271,0.23034c0,0 -0.13608,0.10355 -0.31377,0.09595c0.1567,0.12399 0.2853,0.24741 0.40669,0.37124c0.19027,-0.12655 0.38038,-0.25347 0.56972,-0.38148c-0.06225,-0.32084 -0.17187,-0.66258 -0.35992,-0.31604zM360.73365,187.2362l-0.305,-0.21285c0,0 -0.02281,-0.01759 -0.04897,-0.04773c-0.01986,0.01386 -0.03972,0.02773 -0.05961,0.04158c0.02036,0.01809 0.04118,0.03623 0.06253,0.05438l0.02719,0.56292c0.34822,0.0325 0.72397,0.03714 1.08366,0.0027c-0.15463,-0.1423 -0.40686,-0.26918 -0.75976,-0.401zM358.85874,186.58192c-0.61845,-0.38276 -1.0036,0.2325 -1.07257,0.88408c0.09996,0.05662 0.20053,0.11198 0.3014,0.16652c0.361,-0.25192 0.7278,-0.4981 1.09625,-0.74327c-0.0952,-0.10341 -0.19457,-0.20761 -0.32506,-0.30732zM358.81743,188.02041c0.21884,0.11703 0.43505,0.23581 0.64502,0.36142c0.07177,-0.17587 -0.01208,-0.38098 -0.36319,-0.54303c-0.09348,0.06074 -0.1874,0.12126 -0.28182,0.18159zM358.17231,188.42453c-0.04006,0.02461 -0.08022,0.04917 -0.12049,0.07372c-0.00046,0.00029 -0.00097,0.00059 -0.00143,0.00088c0.21874,0.20842 0.49185,0.2787 0.74097,0.26173c-0.20208,-0.11611 -0.4097,-0.22663 -0.61905,-0.33633z" fill="#a8f2ff" stroke-width="0.5"/><path d="M270.02283,115.02873c0.28428,0.21937 -0.00202,0.43719 -0.00202,0.43719l-0.20183,0.15356c-0.53633,0.3253 -0.10647,0.66504 0.43752,0.55815c0,0 0.3959,-0.05958 0.47365,0.24377c0.07775,0.30335 -0.31818,0.36291 -0.31818,0.36291c-0.59741,0.07386 -1.08175,-0.06507 -1.35576,-0.3141l-0.70574,0.3219c-0.04453,0.18278 -0.135,0.37932 -0.27398,0.59155c0,0 -0.1817,0.27602 -0.54192,0.1368c-0.36023,-0.13922 -0.17853,-0.41524 -0.17853,-0.41524c0.08496,-0.1283 0.14631,-0.24379 0.18357,-0.34911c-0.46104,0.04415 -0.9446,0.03242 -1.39253,-0.01085c0.00214,0.18929 -0.05948,0.37855 -0.17042,0.55045c0.113,0.08414 0.22272,0.17234 0.32831,0.26555c-0.01005,-0.09125 0.02316,-0.21157 0.22512,-0.28828c0.36151,-0.13728 0.54065,0.13971 0.54065,0.13971l0.2312,0.37605c-0.00117,0.25786 -0.06411,0.53059 -0.1833,0.76785c0.22819,0.35193 0.44559,0.7019 0.77524,1.00363c0.12927,-0.0259 0.27452,-0.05012 0.43691,-0.07456l0.48136,-0.0047c0,0 0.40343,0.00108 0.40202,0.31022c-0.0014,0.30913 -0.40487,0.30804 -0.40487,0.30804l-0.32309,-0.00687c-0.09451,0.01423 -0.20583,0.00129 -0.31583,-0.01202c-0.01958,0.02659 -0.04626,0.05356 -0.08169,0.08052c-0.15479,0.11776 -0.30894,0.10776 -0.41796,0.07371c-0.01156,0.15189 0.18151,0.3319 0.22401,0.4941c0,0 0.07775,0.30335 -0.31815,0.36292c-0.3959,0.05957 -0.47363,-0.2438 -0.47363,-0.2438c-0.12967,-0.51567 -0.12857,-0.812 0.07172,-1.00355c-0.22243,-0.23609 -0.39402,-0.48669 -0.56258,-0.74027c-0.32945,0.17573 -0.76886,0.16805 -1.3006,-0.18336c0,0 -0.28428,-0.21937 0.00201,-0.43719c0.2863,-0.21782 0.57058,0.00154 0.57058,0.00154c0.14357,0.16702 0.26639,0.1672 0.36452,0.08944c-0.12938,-0.17392 -0.27321,-0.34543 -0.44717,-0.51071c-0.10873,-0.10329 -0.22304,-0.20006 -0.3419,-0.29165c-0.27222,0.1541 -0.60601,0.24158 -0.96521,0.21918c0.00207,0.02978 -0.00084,0.04929 -0.00084,0.04929c-0.01744,0.11563 -0.03802,0.23032 -0.06081,0.3444c0.02719,-0.01886 0.05299,-0.03816 0.07712,-0.05772c0,0 0.2863,-0.21782 0.57058,0.00154c0.28428,0.21937 -0.00202,0.43719 -0.00202,0.43719c-0.25112,0.18329 -0.53334,0.32306 -0.82792,0.40687c-0.03153,0.12769 -0.06313,0.25552 -0.09336,0.384c0.27938,0.14361 0.47261,0.50822 0.62078,1.08651c0,0 0.07775,0.30335 -0.31818,0.36291c-0.3959,0.05957 -0.47364,-0.24378 -0.47364,-0.24378c-0.03213,-0.12541 -0.00964,-0.35366 0.00244,-0.54621c-0.06012,0.05701 -0.15782,0.10317 -0.31651,0.10037c-0.08393,-0.00148 -0.15,-0.01603 -0.20203,-0.03817c-0.09836,0.08573 -0.20005,0.17061 -0.31031,0.25449l-0.48681,0.08925c0,0 -0.40343,-0.00107 -0.40202,-0.31022c0.0014,-0.30913 0.40487,-0.30804 0.40487,-0.30804l-0.0846,0.09034c0.27453,-0.20889 0.51636,-0.36334 0.73017,-0.4642c0.02846,-0.12685 0.05887,-0.25289 0.08984,-0.37858c-0.31802,-0.03277 -0.63041,-0.14069 -0.91519,-0.33834l0.02782,-0.13901c-0.1224,0.00447 -0.22386,-0.03475 -0.22386,-0.03475c-0.13123,-0.05186 -0.25699,-0.09178 -0.37567,-0.12521c-0.44529,0.35314 -0.91965,0.67279 -1.4792,0.89074c0,0 -0.07196,0.02733 -0.16761,0.03298c0.05713,0.25763 0.05152,0.52702 -0.02337,0.82931c0,0 -0.08052,0.30292 -0.47586,0.24125c-0.39533,-0.06169 -0.31484,-0.36462 -0.31484,-0.36462c0.11942,-0.41119 -0.0256,-0.72955 -0.11295,-1.14064l-0.39146,0.04513c0,0 -0.40344,-0.00107 -0.40202,-0.31022c0.0014,-0.30913 0.40487,-0.30804 0.40487,-0.30804l0.81524,0.04837c0.10412,0.13333 0.1942,0.26282 0.26924,0.39122c0.02403,-0.01246 0.04042,-0.01867 0.04042,-0.01867c0.36886,-0.13535 0.72096,-0.33835 1.05898,-0.57419c-0.21166,-0.11791 -0.31484,-0.31437 -0.26254,-0.74882l0.10312,-0.11403c-0.04943,-0.06249 -0.09123,-0.1247 -0.12531,-0.18671l-0.58232,0.11886c0,0 -0.11023,0.02248 -0.22911,-0.00137c-0.26805,0.26497 -0.71646,0.45413 -1.28601,0.47029c0,0 -0.40343,-0.00107 -0.40202,-0.31022c0.0014,-0.30913 0.40487,-0.30804 0.40487,-0.30804c0.76142,0.04195 1.11055,-0.60949 0.32636,-0.87744l-0.22193,0.03205c0,0 -0.40343,-0.00108 -0.40202,-0.31022c0.0014,-0.30913 0.40487,-0.30804 0.40487,-0.30804l0.58254,0.0342c0.58245,0.24134 0.84953,0.58886 0.87026,0.92932l0.4133,-0.08422c0.01324,-0.00216 0.02645,-0.00433 0.03952,-0.00651c0.02481,-0.0852 0.0645,-0.17058 0.11917,-0.25639c-0.09096,-0.07592 -0.11191,-0.17426 -0.11191,-0.17426c-0.13124,-0.61665 -0.21128,-1.34237 0.22165,-1.62421c-0.25203,-0.25186 -0.50849,-0.50059 -0.78752,-0.73402c-0.09425,0.00845 -0.20517,-0.0107 -0.3158,-0.09608c-0.04666,-0.03603 -0.07798,-0.07202 -0.0977,-0.10699c-0.17324,0.03574 -0.3277,0.08857 -0.43822,0.18262c0,0 -0.28629,0.21782 -0.57057,-0.00154c-0.28428,-0.21937 0.00201,-0.43719 0.00201,-0.43719c0.27636,-0.1973 0.64273,-0.3307 1.01241,-0.39001c0.19652,-0.03152 0.71071,0.10492 0.6015,-0.02417c-0.17325,-0.20473 -0.36351,-0.40472 -0.48799,-0.62934l-0.0151,0.01972c0,0 -0.28428,-0.21937 0.00201,-0.43719c0.2863,-0.21782 0.57058,0.00155 0.57058,0.00155l0.18531,0.17435c0.03865,0.06982 0.56175,0.9642 0.50983,1.06845c-0.06832,0.13713 -0.18825,0.22376 -0.33645,0.28224c0.3937,0.3367 0.74184,0.70505 1.10078,1.06634c0.13162,0.03042 0.27606,0.07319 0.43439,0.12955l0.305,0.21284c0,0 0.24661,0.19028 0.04915,0.39242c0.06339,0.05247 0.12804,0.10411 0.19413,0.15478c0.07032,-0.17363 0.16568,-0.33589 0.28406,-0.47844c-0.02732,-0.00066 -0.05649,-0.00324 -0.0876,-0.0081c-0.39533,-0.06169 -0.31484,-0.36462 -0.31484,-0.36462l0.09419,-0.32437c-0.16163,-0.69947 0.09766,-1.09336 0.53096,-1.19875c0.02795,-0.14969 0.06306,-0.29734 0.10171,-0.44086l0.1718,-0.2657c-0.08892,-0.05302 -0.1804,-0.11505 -0.27455,-0.18615c0,0 -0.28428,-0.21936 0.00201,-0.43719c0.2863,-0.21782 0.57057,0.00154 0.57057,0.00154c0.42516,0.33764 0.46036,0.40479 0.63969,-0.1086l-0.01976,-0.21048c0,0 0.0014,-0.30913 0.40487,-0.30804c0.40344,0.00107 0.40203,0.31022 0.40203,0.31022l-0.02256,0.4059c-0.24834,0.49933 -0.56566,0.75881 -0.95506,0.76832l-0.15678,0.23291c-0.02531,0.09714 -0.05013,0.20109 -0.07156,0.30896c0.22358,0.07898 0.45454,0.20447 0.67599,0.37538c0,0 0.28428,0.21936 -0.00202,0.43719c-0.2863,0.21782 -0.57057,-0.00154 -0.57057,-0.00154c-0.05902,-0.04552 -0.11478,-0.08716 -0.16716,-0.12442c0.00858,0.20313 0.04809,0.39977 0.13597,0.57272c0.2213,-0.01719 0.46328,0.00809 0.72347,0.0857c-0.2689,-0.2169 0.01113,-0.42997 0.01113,-0.42997l0.30271,-0.23034c0.86289,-0.49682 1.31631,-0.21593 1.56857,0.31474c0.23979,-0.16823 0.47736,-0.33935 0.71142,-0.51475c-0.05163,-0.19147 -0.00833,-0.42901 0.16249,-0.71475l0.84691,0.07602c0,0 0.28428,0.21936 -0.00201,0.43719c-0.07636,0.05808 -0.15255,0.08509 -0.22326,0.09347c0.10103,0.17658 0.58871,0.14216 0.96421,0.08026c0,0 0.3959,-0.05957 0.47364,0.24378c0.07775,0.30335 -0.31818,0.36291 -0.31818,0.36291c-0.5219,0.07304 -1.03024,0.04403 -1.39326,-0.09568c-0.33479,0.25311 -0.6688,0.50126 -1.00431,0.74512c0.00237,0.01501 0.02584,0.1882 -0.13888,0.28618l0.01891,0.01902c0.5758,0.22818 0.98493,0.48548 1.2021,0.79119c0.03117,-0.01053 0.06185,-0.02159 0.09196,-0.03311l0.0561,0.00593l-0.00425,-0.0165l0.46845,-0.07047c0.02648,-0.22142 0.1632,-0.46023 0.43499,-0.69011l0.20183,-0.15356c0,0 0.2863,-0.21782 0.57058,0.00154zM263.1695,118.40056c0.09795,0.07561 0.12818,0.15101 0.12572,0.2174c0.08141,0.02969 0.16912,0.04459 0.25955,0.04746c0.0538,-0.2298 0.10229,-0.46067 0.13713,-0.69542c0,0 0.01355,-0.09061 0.09018,-0.16777c-0.19007,-0.09039 -0.3511,-0.2037 -0.48474,-0.3336c-0.27397,0.21376 -0.53663,0.44194 -0.80101,0.66872c0.05957,0.01418 0.11611,0.03045 0.16708,0.04981c0,0 0.10326,0.03992 0.17135,0.1194c0.09815,-0.01281 0.21662,0.00281 0.33477,0.09398zM262.07229,116.44624c-0.01925,0.01466 -0.03854,0.02733 -0.05771,0.03825c0.24909,-0.0278 0.5016,-0.03169 0.78946,0.00902c-0.01378,-0.09159 -0.0206,-0.18412 -0.02083,-0.27657c-0.48316,-0.3141 -0.88538,-0.68138 -1.26961,-1.05999c-0.23669,0.06021 -0.0974,0.44936 0.00605,0.78694l0.55465,0.06519c0,0 0.28428,0.21937 -0.00201,0.43719zM261.96705,117.47274c0,0 0.08705,0.06717 0.11631,0.16411c0.2143,-0.18241 0.42322,-0.36453 0.62767,-0.53529c-0.38126,-0.07835 -0.71674,-0.02081 -1.07497,0.06043c0.06952,0.0957 0.17957,0.19727 0.331,0.31079zM265.90331,114.29914l-0.30271,0.23034c0,0 -0.13608,0.10355 -0.31378,0.09594c0.1567,0.12399 0.2853,0.24741 0.40669,0.37124c0.19027,-0.12655 0.38039,-0.25347 0.56973,-0.38148c-0.06225,-0.32084 -0.17188,-0.66258 -0.35992,-0.31604zM266.63765,115.74591l-0.305,-0.21284c0,0 -0.02282,-0.0176 -0.04897,-0.04773c-0.01986,0.01386 -0.03972,0.02773 -0.05961,0.04158c0.02036,0.01809 0.04119,0.03623 0.06253,0.05438l0.02719,0.56292c0.34822,0.0325 0.72397,0.03713 1.08365,0.0027c-0.15464,-0.1423 -0.40685,-0.26918 -0.75976,-0.401zM264.76274,115.09163c-0.61845,-0.38276 -1.0036,0.2325 -1.07257,0.88408c0.09996,0.05662 0.20052,0.11198 0.3014,0.16652c0.361,-0.25192 0.7278,-0.4981 1.09625,-0.74327c-0.0952,-0.10341 -0.19457,-0.20761 -0.32506,-0.30732zM264.72143,116.53012c0.21884,0.11703 0.43505,0.23581 0.64503,0.36142c0.07177,-0.17586 -0.01208,-0.38098 -0.36319,-0.54303c-0.09348,0.06074 -0.1874,0.12126 -0.28182,0.18159zM264.07631,116.93424c-0.04006,0.02461 -0.08022,0.04917 -0.12049,0.07372c-0.00046,0.00029 -0.00097,0.0006 -0.00143,0.00088c0.21874,0.20842 0.49185,0.2787 0.74097,0.26173c-0.20208,-0.11611 -0.4097,-0.22663 -0.61905,-0.33633z" fill="#a8f2ff" stroke-width="0.5"/><path d="M275.92271,220.96885c0.31162,-0.00444 0.31741,0.23433 0.31741,0.23433l0.00408,0.16833c-0.04943,0.4031 0.42761,0.40068 0.64025,0.11094c0,0 0.16802,-0.20114 0.43052,-0.0724c0.26251,0.12874 0.09446,0.32989 0.09446,0.32989c-0.26522,0.29495 -0.62507,0.42791 -0.95282,0.41212l-0.14237,0.47375c0.10937,0.11665 0.20423,0.2603 0.28462,0.43308c0,0 0.10405,0.22511 -0.18974,0.30483c-0.29379,0.07972 -0.39784,-0.14539 -0.39784,-0.14539c-0.0481,-0.10486 -0.09947,-0.19276 -0.15629,-0.26494c-0.21404,0.22076 -0.48082,0.42131 -0.75154,0.58979c0.13903,0.10017 0.24401,0.22759 0.30999,0.36684c0.12164,-0.0034 0.24448,-0.00322 0.36877,0.00139c-0.07184,-0.04443 -0.14175,-0.12289 -0.08979,-0.25023c0.09304,-0.22793 0.39049,-0.15663 0.39049,-0.15663l0.39742,0.10193c0.18723,0.1382 0.3523,0.31076 0.46148,0.48844c0.37823,0.09034 0.74928,0.18425 1.14512,0.20439c0.05016,-0.06912 0.11009,-0.14418 0.179,-0.22668l0.25364,-0.20839c0,0 0.21622,-0.17197 0.44068,-0.00628c0.22445,0.16568 0.00819,0.33766 0.00819,0.33766l-0.17754,0.13452c-0.04011,0.04802 -0.10898,0.08872 -0.17741,0.12866c0.00891,0.02257 0.01432,0.04839 0.01503,0.07794c0.00313,0.12909 -0.08648,0.18968 -0.1695,0.21812c0.10447,0.08606 0.33871,0.09961 0.47958,0.16805c0,0 0.2625,0.12874 0.09448,0.32988c-0.16802,0.20114 -0.43053,0.07238 -0.43053,0.07238c-0.44491,-0.21992 -0.66019,-0.37863 -0.69277,-0.56659c-0.29077,-0.03094 -0.56496,-0.09138 -0.83971,-0.1547c-0.04791,0.23475 -0.28816,0.41858 -0.82812,0.45835c0,0 -0.31162,0.00444 -0.31741,-0.23433c-0.0058,-0.23877 0.30582,-0.24321 0.30582,-0.24321c0.19834,0.02779 0.26406,-0.02465 0.25982,-0.10815c-0.19579,-0.03754 -0.39754,-0.06761 -0.61085,-0.08148c-0.1333,-0.00865 -0.26485,-0.01144 -0.39505,-0.00952c-0.03311,0.19872 -0.14763,0.3882 -0.35577,0.52986c0.02279,0.01502 0.03546,0.02668 0.03546,0.02668c0.07493,0.06921 0.14748,0.13926 0.21842,0.20992c0.00078,-0.0217 0.0005,-0.04304 -0.00086,-0.0638c0,0 -0.0058,-0.23877 0.30582,-0.24321c0.31162,-0.00444 0.31741,0.23433 0.31741,0.23433c-0.00058,0.20528 -0.04947,0.40063 -0.14572,0.57138c0.07618,0.08168 0.15243,0.16345 0.22989,0.24499c0.25381,-0.0428 0.62262,0.06927 1.12302,0.31471c0,0 0.26251,0.12874 0.09446,0.32989c-0.16802,0.20114 -0.43052,0.0724 -0.43052,0.0724c-0.10851,-0.05323 -0.26279,-0.18474 -0.3966,-0.29273c0.00943,0.05615 -0.00912,0.1226 -0.09591,0.18897c-0.0459,0.03511 -0.09178,0.05559 -0.13569,0.06603c0.00993,0.08785 0.01745,0.17667 0.01968,0.26862l-0.19495,0.25587c0,0 -0.21622,0.17198 -0.44068,0.00628c-0.22445,-0.16568 -0.0082,-0.33766 -0.0082,-0.33766l0.02063,0.08442c-0.00557,-0.22896 0.01106,-0.41488 0.05176,-0.56018c-0.07721,-0.07991 -0.15279,-0.16023 -0.22782,-0.2406c-0.1937,0.11852 -0.43914,0.1945 -0.73521,0.21074l-0.08641,-0.08613c-0.06211,0.05473 -0.14486,0.07719 -0.14486,0.07719c-0.10786,0.02843 -0.2041,0.06091 -0.29183,0.09381c0.01947,0.37903 -0.00099,0.75261 -0.14103,1.10832c0,0 -0.01852,0.04537 -0.06548,0.0893c0.21818,0.11315 0.41144,0.2594 0.59166,0.45286c0,0 0.17767,0.1962 -0.07838,0.33236c-0.25606,0.13614 -0.43375,-0.06005 -0.43375,-0.06005c-0.23577,-0.27066 -0.54514,-0.37864 -0.89126,-0.56081l-0.17617,0.19153c0,0 -0.21623,0.17198 -0.44068,0.00628c-0.22445,-0.16568 -0.00819,-0.33766 -0.00819,-0.33766l0.47059,-0.32285c0.15273,0.02667 0.29517,0.05729 0.42878,0.09377c0.00376,-0.01693 0.00798,-0.02726 0.00798,-0.02726c0.09838,-0.23004 0.13852,-0.48904 0.14722,-0.75955c-0.19893,0.02756 -0.39715,-0.03323 -0.6857,-0.2876l-0.028,-0.105c-0.07192,-0.01223 -0.13956,-0.02757 -0.20293,-0.04611l-0.22438,0.31253c0,0 -0.04248,0.05915 -0.12335,0.09726c0.04988,0.25614 -0.05177,0.54894 -0.34415,0.80117c0,0 -0.21622,0.17198 -0.44068,0.00628c-0.22445,-0.16568 -0.0082,-0.33766 -0.0082,-0.33766c0.43717,-0.30326 0.14905,-0.80046 -0.46492,-0.60816l-0.09517,0.11203c0,0 -0.21622,0.17197 -0.44068,0.00628c-0.22445,-0.16568 -0.00819,-0.33766 -0.00819,-0.33766l0.336,-0.23089c0.48685,-0.12023 0.88264,-0.04888 1.14173,0.12407l0.15936,-0.22174c0.0055,-0.00681 0.01097,-0.01363 0.01636,-0.02038c-0.04882,-0.05611 -0.08982,-0.11868 -0.12314,-0.18789c-0.10388,-0.00164 -0.18671,-0.04519 -0.18671,-0.04519c-0.51931,-0.27317 -1.09072,-0.62649 -1.06486,-0.96216c-0.31807,-0.02671 -0.63622,-0.04985 -0.95527,-0.05516c-0.04418,0.04482 -0.11736,0.08204 -0.23864,0.08375c-0.05116,0.00071 -0.09411,-0.0051 -0.13011,-0.01535c-0.06648,0.09318 -0.11047,0.18746 -0.10098,0.28495c0,0 0.0058,0.23877 -0.30582,0.24321c-0.31162,0.00444 -0.31741,-0.23433 -0.31741,-0.23433c0.00385,-0.22356 0.10232,-0.45149 0.25653,-0.64128c0.08198,-0.10088 0.45597,-0.24794 0.30361,-0.27016c-0.24167,-0.03523 -0.48895,-0.06065 -0.71906,-0.12736l0.0063,0.01699c0,0 -0.31162,0.00444 -0.31741,-0.23433c-0.0058,-0.23877 0.30583,-0.24321 0.30583,-0.24321l0.22597,0.01385c0.0715,0.02075 1.0024,0.27464 1.05061,0.35252c0.06341,0.10245 0.06248,0.20001 0.02594,0.29462c0.45552,0.01142 0.90978,0.05923 1.36466,0.09864c0.09244,-0.04005 0.20074,-0.07898 0.32635,-0.11661l0.31793,-0.01679c0,0 0.27031,-0.00386 0.31212,0.18854c0.07208,0.00091 0.14422,0.00084 0.21642,-0.00038c-0.08893,-0.12279 -0.15622,-0.25023 -0.19685,-0.37699c-0.01507,0.01133 -0.03253,0.02243 -0.05268,0.03314c-0.25606,0.13614 -0.43375,-0.06005 -0.43375,-0.06005l-0.186,-0.21351c-0.59587,-0.30441 -0.74435,-0.62564 -0.58973,-0.86724c-0.09412,-0.09189 -0.18293,-0.18575 -0.26684,-0.27893l-0.10181,-0.21537c-0.08611,0.00972 -0.18015,0.01572 -0.28223,0.01801c0,0 -0.31161,0.00444 -0.31741,-0.23433c-0.0058,-0.23877 0.30582,-0.24321 0.30582,-0.24321c0.47301,-0.00153 0.54073,0.01927 0.2625,-0.33159l-0.16388,-0.10395c0,0 -0.22445,-0.16568 -0.0082,-0.33766c0.21623,-0.17198 0.44068,-0.00628 0.44068,-0.00628l0.28365,0.22641c0.23114,0.37287 0.25071,0.64715 0.04969,0.81877l0.08595,0.19143c0.05724,0.0627 0.11973,0.12883 0.18686,0.19559c0.17693,-0.05345 0.39169,-0.08521 0.63446,-0.08866c0,0 0.31161,-0.00444 0.31741,0.23433c0.0058,0.23877 -0.30582,0.24321 -0.30582,0.24321c-0.06468,0.00093 -0.12479,0.00254 -0.1799,0.00505c0.15256,0.1048 0.31691,0.19292 0.48983,0.24769c0.10566,-0.10383 0.25329,-0.19382 0.44878,-0.26366c-0.30161,-0.00082 -0.30728,-0.23437 -0.30728,-0.23437l-0.00614,-0.25247c0.09888,-0.63437 0.54563,-0.67829 1.06693,-0.5028c0.0055,-0.1924 0.00771,-0.38539 0.00492,-0.57916c-0.16706,-0.08017 -0.31697,-0.22554 -0.43391,-0.45119l0.50765,-0.32163c0,0 0.31161,-0.00444 0.31741,0.23433c0.00153,0.06367 -0.01948,0.11068 -0.05114,0.1454c0.18259,0.05109 0.41795,-0.17587 0.57337,-0.36953c0,0 0.16802,-0.20113 0.43053,-0.07239c0.26251,0.12874 0.09446,0.32989 0.09446,0.32989c-0.2255,0.26222 -0.51809,0.46415 -0.81373,0.5448c0.0056,0.27835 0.00801,0.55373 0.00649,0.82745c0.0122,0.007 0.1509,0.08945 0.13431,0.21223l0.02395,0.00207c0.47371,-0.12442 0.87964,-0.162 1.21831,-0.09163c0.00898,-0.01896 0.0173,-0.03798 0.02499,-0.05701l0.03427,-0.02083l-0.01429,-0.007l0.19882,-0.23799c-0.14716,-0.12957 -0.24812,-0.31557 -0.27044,-0.55458l-0.00408,-0.16833c0,0 -0.0058,-0.23877 0.30582,-0.24321zM274.71925,225.70062c0.10739,-0.00152 0.17846,0.02582 0.22551,0.06233c0.06511,-0.01896 0.12279,-0.04852 0.17318,-0.08567c-0.13868,-0.14572 -0.28097,-0.28976 -0.43338,-0.43002c0,0 -0.05877,-0.05418 -0.07406,-0.12816c-0.16735,0.03302 -0.33589,0.04138 -0.50188,0.02918c0.00942,0.23133 0.03538,0.46552 0.0594,0.6997c0.04214,-0.0179 0.08419,-0.0334 0.12551,-0.04486c0,0 0.08423,-0.02285 0.17848,-0.00953c0.04308,-0.04882 0.11773,-0.09115 0.24723,-0.09299zM272.70961,225.12626c0.0004,0.01606 -0.00067,0.03108 -0.00295,0.0451c0.11277,-0.12138 0.24478,-0.23146 0.42816,-0.33283c-0.07408,-0.04302 -0.14513,-0.08951 -0.21261,-0.13879c-0.48683,0.03891 -0.96918,0.01481 -1.45019,-0.02304c-0.08254,0.13339 0.27534,0.28163 0.57651,0.41765l0.34368,-0.20241c0,0 0.31162,-0.00444 0.31741,0.23433zM273.40121,225.71944c0,0 0.09542,-0.00136 0.18166,0.03789c-0.01844,-0.18906 -0.03955,-0.37567 -0.05476,-0.55431c-0.26068,0.12122 -0.39791,0.29544 -0.53004,0.49203c0.10684,0.02137 0.2396,0.02854 0.40317,0.0244zM273.19132,222.34114l0.00614,0.25247c0,0 0.00277,0.1135 -0.09767,0.18544c0.17401,-0.00081 0.33259,0.0101 0.48762,0.02431c0.00942,-0.14896 0.01848,-0.29805 0.02634,-0.44739c-0.26697,-0.14471 -0.57447,-0.28032 -0.42244,-0.01483zM274.63742,222.79967l-0.31793,0.01679c0,0 -0.025,0.00036 -0.06092,-0.00455c-0.00051,0.0159 -0.00101,0.0318 -0.00154,0.0477c0.02405,0.00095 0.04839,0.00173 0.073,0.00229l0.4246,0.28898c0.20964,-0.13158 0.41366,-0.28981 0.58066,-0.46203c-0.18624,-0.00985 -0.41336,0.03027 -0.69785,0.11081zM273.15955,223.25217c-0.6091,0.06011 -0.36657,0.5534 0.07127,0.93085c0.09462,-0.01252 0.18866,-0.02596 0.28226,-0.03998c0.00926,-0.28893 0.0258,-0.57727 0.04395,-0.86579c-0.12617,-0.01451 -0.25514,-0.02765 -0.39747,-0.02509zM274.18541,224.03802c0.20212,-0.0311 0.40411,-0.06014 0.60774,-0.08287c-0.08979,-0.12461 -0.28399,-0.19828 -0.58954,-0.13465c-0.00567,0.07241 -0.01174,0.14491 -0.01821,0.2175zM274.1353,224.52974c-0.00347,0.03027 -0.00702,0.06057 -0.01064,0.0909c-0.00004,0.00035 -0.00008,0.00073 -0.00012,0.00108c0.26865,0.01775 0.46568,-0.06153 0.58636,-0.17714c-0.1925,0.02443 -0.38389,0.0542 -0.5756,0.08516z" fill="#a8f2ff" stroke-width="0.5"/><path d="M334.23209,160.80951c4.09283,15.03384 -10.39668,30.06741 -32.36321,33.5784c-21.96653,3.511 -43.0918,-5.83011 -47.18463,-20.86396c-4.09283,-15.03384 10.39667,-30.0674 32.36319,-33.57839c21.96653,-3.511 43.09181,5.8301 47.18464,20.86395z" fill="url(#color-17)" stroke-width="0"/></g></g></svg>