<svg version="1.1" xmlns="http://www.w3.org/2000/svg" xmlns:xlink="http://www.w3.org/1999/xlink" width="688.94423" height="443.1816" viewBox="0,0,688.94423,443.1816"><defs><radialGradient cx="-168.94423" cy="96.84065" r="0.5" gradientUnits="userSpaceOnUse" id="color-1"><stop offset="0" stop-color="#9966ff" stop-opacity="0"/><stop offset="1" stop-color="#9966ff"/></radialGradient><linearGradient x1="-168.94423" y1="96.34065" x2="-168.94423" y2="97.34065" gradientUnits="userSpaceOnUse" id="color-2"><stop offset="0" stop-color="#000000" stop-opacity="0"/><stop offset="1" stop-color="#000000" stop-opacity="0"/></linearGradient><linearGradient x1="240" y1="-20.45045" x2="240" y2="380.45045" gradientUnits="userSpaceOnUse" id="color-3"><stop offset="0" stop-color="#ff5500"/><stop offset="1" stop-color="#ffae00"/></linearGradient><radialGradient cx="209.42229" cy="331.11646" r="44.93664" gradientUnits="userSpaceOnUse" id="color-4"><stop offset="0" stop-color="#696969"/><stop offset="1" stop-color="#6a6a6a"/></radialGradient><radialGradient cx="397.70401" cy="139.92821" r="44.93664" gradientUnits="userSpaceOnUse" id="color-5"><stop offset="0" stop-color="#696969"/><stop offset="1" stop-color="#6a6a6a"/></radialGradient><radialGradient cx="1.47127" cy="231.31686" r="29.6744" gradientUnits="userSpaceOnUse" id="color-6"><stop offset="0" stop-color="#43403a"/><stop offset="1" stop-color="#e5d2a9"/></radialGradient><radialGradient cx="15.19317" cy="136.03386" r="29.6744" gradientUnits="userSpaceOnUse" id="color-7"><stop offset="0" stop-color="#43403a"/><stop offset="1" stop-color="#e5d2a9"/></radialGradient><radialGradient cx="38.19777" cy="139.76616" r="29.6744" gradientUnits="userSpaceOnUse" id="color-8"><stop offset="0" stop-color="#43403a"/><stop offset="1" stop-color="#e5d2a9"/></radialGradient><radialGradient cx="26.22477" cy="230.68956" r="29.6744" gradientUnits="userSpaceOnUse" id="color-9"><stop offset="0" stop-color="#43403a"/><stop offset="1" stop-color="#e5d2a9"/></radialGradient><radialGradient cx="56.81517" cy="145.59046" r="27.3435" gradientUnits="userSpaceOnUse" id="color-10"><stop offset="0" stop-color="#43403a"/><stop offset="1" stop-color="#e5d2a9"/></radialGradient><radialGradient cx="179.59627" cy="185.63166" r="48.661" gradientUnits="userSpaceOnUse" id="color-11"><stop offset="0" stop-color="#43403a"/><stop offset="1" stop-color="#e5d2a9"/></radialGradient><radialGradient cx="46.73067" cy="226.63286" r="27.3435" gradientUnits="userSpaceOnUse" id="color-12"><stop offset="0" stop-color="#43403a"/><stop offset="1" stop-color="#e5d2a9"/></radialGradient><radialGradient cx="52.03897" cy="181.86046" r="66.1392" gradientUnits="userSpaceOnUse" id="color-13"><stop offset="0" stop-color="#e5d2a9"/><stop offset="1" stop-color="#b0a899"/></radialGradient><linearGradient x1="240" y1="-24" x2="240" y2="384" gradientUnits="userSpaceOnUse" id="color-14"><stop offset="0" stop-color="#ffa600" stop-opacity="0"/><stop offset="1" stop-color="#ffa600"/></linearGradient><linearGradient x1="240" y1="-24" x2="240" y2="384" gradientUnits="userSpaceOnUse" id="color-15"><stop offset="0" stop-color="#ff5500"/><stop offset="1" stop-color="#ff5500" stop-opacity="0"/></linearGradient><radialGradient cx="165.02517" cy="220.45206" r="7.4173" gradientUnits="userSpaceOnUse" id="color-16"><stop offset="0" stop-color="#43403a"/><stop offset="1" stop-color="#e5d2a9"/></radialGradient><radialGradient cx="171.81187" cy="177.83506" r="7.6302" gradientUnits="userSpaceOnUse" id="color-17"><stop offset="0" stop-color="#43403a"/><stop offset="1" stop-color="#e5d2a9"/></radialGradient><radialGradient cx="170.20267" cy="176.67326" r="7.6302" gradientUnits="userSpaceOnUse" id="color-18"><stop offset="0" stop-color="#43403a"/><stop offset="1" stop-color="#e5d2a9"/></radialGradient><radialGradient cx="102.93257" cy="196.84146" r="81.0346" gradientUnits="userSpaceOnUse" id="color-19"><stop offset="0" stop-color="#e5d2a9"/><stop offset="1" stop-color="#9b9487"/></radialGradient><radialGradient cx="410.24367" cy="151.42267" r="53.59309" gradientUnits="userSpaceOnUse" id="color-20"><stop offset="0" stop-color="#727272"/><stop offset="1" stop-color="#918989"/></radialGradient><radialGradient cx="210.7195" cy="322.87063" r="51.86382" gradientUnits="userSpaceOnUse" id="color-21"><stop offset="0" stop-color="#727272"/><stop offset="1" stop-color="#918989"/></radialGradient><radialGradient cx="418.64627" cy="195.74836" r="8.7674" gradientUnits="userSpaceOnUse" id="color-22"><stop offset="0" stop-color="#f1ddb3"/><stop offset="1" stop-color="#c9c4b4"/></radialGradient><radialGradient cx="201.24367" cy="129.42266" r="197.0908" gradientUnits="userSpaceOnUse" id="color-23"><stop offset="0" stop-color="#727272"/><stop offset="1" stop-color="#918989"/></radialGradient><radialGradient cx="127.55577" cy="309.34065" r="5" gradientUnits="userSpaceOnUse" id="color-24"><stop offset="0" stop-color="#696969"/><stop offset="1" stop-color="#6a6a6a"/></radialGradient><radialGradient cx="147.55577" cy="263.84065" r="10.5" gradientUnits="userSpaceOnUse" id="color-25"><stop offset="0" stop-color="#696969"/><stop offset="1" stop-color="#6a6a6a"/></radialGradient><radialGradient cx="117.55577" cy="286.84065" r="6.5" gradientUnits="userSpaceOnUse" id="color-26"><stop offset="0" stop-color="#696969"/><stop offset="1" stop-color="#6a6a6a"/></radialGradient><radialGradient cx="110.05577" cy="344.84065" r="7.5" gradientUnits="userSpaceOnUse" id="color-27"><stop offset="0" stop-color="#696969"/><stop offset="1" stop-color="#6a6a6a"/></radialGradient><radialGradient cx="254.05577" cy="258.34065" r="9" gradientUnits="userSpaceOnUse" id="color-28"><stop offset="0" stop-color="#696969"/><stop offset="1" stop-color="#6a6a6a"/></radialGradient><radialGradient cx="327.05577" cy="212.34065" r="8" gradientUnits="userSpaceOnUse" id="color-29"><stop offset="0" stop-color="#696969"/><stop offset="1" stop-color="#6a6a6a"/></radialGradient><radialGradient cx="306.05577" cy="208.84065" r="5.5" gradientUnits="userSpaceOnUse" id="color-30"><stop offset="0" stop-color="#696969"/><stop offset="1" stop-color="#6a6a6a"/></radialGradient><radialGradient cx="310.05577" cy="172.84065" r="7.5" gradientUnits="userSpaceOnUse" id="color-31"><stop offset="0" stop-color="#696969"/><stop offset="1" stop-color="#6a6a6a"/></radialGradient><radialGradient cx="267.05577" cy="155.34065" r="6.5" gradientUnits="userSpaceOnUse" id="color-32"><stop offset="0" stop-color="#696969"/><stop offset="1" stop-color="#6a6a6a"/></radialGradient><radialGradient cx="296.05577" cy="240.84065" r="6.5" gradientUnits="userSpaceOnUse" id="color-33"><stop offset="0" stop-color="#696969"/><stop offset="1" stop-color="#6a6a6a"/></radialGradient><radialGradient cx="249.55577" cy="141.34065" r="10" gradientUnits="userSpaceOnUse" id="color-34"><stop offset="0" stop-color="#696969"/><stop offset="1" stop-color="#6a6a6a"/></radialGradient><radialGradient cx="221.05577" cy="148.84065" r="7.5" gradientUnits="userSpaceOnUse" id="color-35"><stop offset="0" stop-color="#696969"/><stop offset="1" stop-color="#6a6a6a"/></radialGradient><radialGradient cx="291.55577" cy="166.84065" r="9.5" gradientUnits="userSpaceOnUse" id="color-36"><stop offset="0" stop-color="#696969"/><stop offset="1" stop-color="#6a6a6a"/></radialGradient><radialGradient cx="219.05577" cy="249.84065" r="10.5" gradientUnits="userSpaceOnUse" id="color-37"><stop offset="0" stop-color="#696969"/><stop offset="1" stop-color="#6a6a6a"/></radialGradient><radialGradient cx="179.42211" cy="269.37093" r="7" gradientUnits="userSpaceOnUse" id="color-38"><stop offset="0" stop-color="#696969"/><stop offset="1" stop-color="#6a6a6a"/></radialGradient><radialGradient cx="162.42211" cy="93.87093" r="9.5" gradientUnits="userSpaceOnUse" id="color-39"><stop offset="0" stop-color="#696969"/><stop offset="1" stop-color="#6a6a6a"/></radialGradient><radialGradient cx="181.42211" cy="125.37093" r="5" gradientUnits="userSpaceOnUse" id="color-40"><stop offset="0" stop-color="#696969"/><stop offset="1" stop-color="#6a6a6a"/></radialGradient><radialGradient cx="212.42211" cy="122.87093" r="5" gradientUnits="userSpaceOnUse" id="color-41"><stop offset="0" stop-color="#696969"/><stop offset="1" stop-color="#6a6a6a"/></radialGradient><radialGradient cx="146.7379" cy="47.87093" r="9.68421" gradientUnits="userSpaceOnUse" id="color-42"><stop offset="0" stop-color="#696969"/><stop offset="1" stop-color="#6a6a6a"/></radialGradient><radialGradient cx="181.92211" cy="47.87093" r="6.5" gradientUnits="userSpaceOnUse" id="color-43"><stop offset="0" stop-color="#696969"/><stop offset="1" stop-color="#6a6a6a"/></radialGradient><radialGradient cx="138.42211" cy="78.87093" r="6" gradientUnits="userSpaceOnUse" id="color-44"><stop offset="0" stop-color="#696969"/><stop offset="1" stop-color="#6a6a6a"/></radialGradient><radialGradient cx="238.42211" cy="70.37093" r="10" gradientUnits="userSpaceOnUse" id="color-45"><stop offset="0" stop-color="#696969"/><stop offset="1" stop-color="#6a6a6a"/></radialGradient><radialGradient cx="271.42211" cy="70.37093" r="5" gradientUnits="userSpaceOnUse" id="color-46"><stop offset="0" stop-color="#696969"/><stop offset="1" stop-color="#6a6a6a"/></radialGradient><radialGradient cx="242.92211" cy="49.87093" r="6.5" gradientUnits="userSpaceOnUse" id="color-47"><stop offset="0" stop-color="#696969"/><stop offset="1" stop-color="#6a6a6a"/></radialGradient><radialGradient cx="212.92211" cy="54.87093" r="3.5" gradientUnits="userSpaceOnUse" id="color-48"><stop offset="0" stop-color="#696969"/><stop offset="1" stop-color="#6a6a6a"/></radialGradient><radialGradient cx="313.42211" cy="74.87093" r="9" gradientUnits="userSpaceOnUse" id="color-49"><stop offset="0" stop-color="#696969"/><stop offset="1" stop-color="#6a6a6a"/></radialGradient><radialGradient cx="288.92211" cy="80.37093" r="5" gradientUnits="userSpaceOnUse" id="color-50"><stop offset="0" stop-color="#696969"/><stop offset="1" stop-color="#6a6a6a"/></radialGradient><radialGradient cx="346.42211" cy="49.87093" r="10.5" gradientUnits="userSpaceOnUse" id="color-51"><stop offset="0" stop-color="#696969"/><stop offset="1" stop-color="#6a6a6a"/></radialGradient><radialGradient cx="338.92211" cy="8.97093" r="6.6" gradientUnits="userSpaceOnUse" id="color-52"><stop offset="0" stop-color="#696969"/><stop offset="1" stop-color="#6a6a6a"/></radialGradient><radialGradient cx="353.92211" cy="20.87093" r="7.5" gradientUnits="userSpaceOnUse" id="color-53"><stop offset="0" stop-color="#696969"/><stop offset="1" stop-color="#6a6a6a"/></radialGradient><radialGradient cx="332.42211" cy="30.87093" r="4.5" gradientUnits="userSpaceOnUse" id="color-54"><stop offset="0" stop-color="#696969"/><stop offset="1" stop-color="#6a6a6a"/></radialGradient><radialGradient cx="335.42211" cy="72.37093" r="6" gradientUnits="userSpaceOnUse" id="color-55"><stop offset="0" stop-color="#696969"/><stop offset="1" stop-color="#6a6a6a"/></radialGradient><radialGradient cx="237.24367" cy="106.42267" r="66.23519" gradientUnits="userSpaceOnUse" id="color-56"><stop offset="0" stop-color="#727272"/><stop offset="1" stop-color="#918989"/></radialGradient><radialGradient cx="394.27997" cy="182.19766" r="9.662" gradientUnits="userSpaceOnUse" id="color-57"><stop offset="0" stop-color="#f1ddb3"/><stop offset="1" stop-color="#c9c4b4"/></radialGradient><radialGradient cx="402.97747" cy="189.29536" r="14.2465" gradientUnits="userSpaceOnUse" id="color-58"><stop offset="0" stop-color="#f1ddb3"/><stop offset="1" stop-color="#c9c4b4"/></radialGradient><radialGradient cx="379.24367" cy="123.92268" r="6.5" gradientUnits="userSpaceOnUse" id="color-59"><stop offset="0" stop-color="#696969"/><stop offset="1" stop-color="#6a6a6a"/></radialGradient><radialGradient cx="387.74367" cy="112.92268" r="3.5" gradientUnits="userSpaceOnUse" id="color-60"><stop offset="0" stop-color="#696969"/><stop offset="1" stop-color="#6a6a6a"/></radialGradient><radialGradient cx="250.74367" cy="338.42268" r="4.5" gradientUnits="userSpaceOnUse" id="color-61"><stop offset="0" stop-color="#696969"/><stop offset="1" stop-color="#6a6a6a"/></radialGradient><radialGradient cx="264.24367" cy="322.92268" r="6.5" gradientUnits="userSpaceOnUse" id="color-62"><stop offset="0" stop-color="#696969"/><stop offset="1" stop-color="#6a6a6a"/></radialGradient><radialGradient cx="255.74367" cy="303.92268" r="4.5" gradientUnits="userSpaceOnUse" id="color-63"><stop offset="0" stop-color="#696969"/><stop offset="1" stop-color="#6a6a6a"/></radialGradient><radialGradient cx="251.74367" cy="309.92268" r="3.5" gradientUnits="userSpaceOnUse" id="color-64"><stop offset="0" stop-color="#696969"/><stop offset="1" stop-color="#6a6a6a"/></radialGradient><radialGradient cx="181.24367" cy="83.92268" r="4" gradientUnits="userSpaceOnUse" id="color-65"><stop offset="0" stop-color="#696969"/><stop offset="1" stop-color="#6a6a6a"/></radialGradient><radialGradient cx="270.74367" cy="103.42268" r="2.5" gradientUnits="userSpaceOnUse" id="color-66"><stop offset="0" stop-color="#696969"/><stop offset="1" stop-color="#6a6a6a"/></radialGradient><radialGradient cx="277.24367" cy="108.92268" r="4" gradientUnits="userSpaceOnUse" id="color-67"><stop offset="0" stop-color="#696969"/><stop offset="1" stop-color="#6a6a6a"/></radialGradient></defs><g transform="translate(169.44423,44.78664)"><g data-paper-data="{&quot;isPaintingLayer&quot;:true}" fill-rule="nonzero" stroke-linejoin="miter" stroke-miterlimit="10" stroke-dasharray="" stroke-dashoffset="0" style="mix-blend-mode: normal"><path d="M-168.94423,96.34065c0.27614,0 0.5,0.22386 0.5,0.5c0,0.27614 -0.22386,0.5 -0.5,0.5c-0.27614,0 -0.5,-0.22386 -0.5,-0.5c0,-0.27614 0.22386,-0.5 0.5,-0.5z" fill="url(#color-1)" stroke="url(#color-2)" stroke-width="0" stroke-linecap="butt"/><path d="M-19.75976,380.45045v-400.9009h519.51952v400.9009z" fill="url(#color-3)" stroke="none" stroke-width="0" stroke-linecap="butt"/><path d="M191.2997,360.56222c-8.71532,-6.66595 -33.8086,-19.74573 -33.8086,-19.74573l2.86851,-36.6078c0,0 30.77671,-14.37439 43.48553,-16.12971c5.75788,-0.79529 14.08454,5.88049 21.61561,5.08205c7.41047,-0.78564 21.85914,-7.60005 21.85914,-7.60005c0,0 27.27149,-1.34775 29.10563,8.8657c1.27459,7.09758 23.0321,4.7758 23.71175,10.02051c1.33273,10.28433 -42.41815,61.09262 -42.41815,61.09262c0,0 -11.15723,-2.75453 -20.79491,-0.70811c-8.58352,1.8226 -15.31415,8.40916 -21.92478,9.3222c-12.70977,1.75545 -14.48894,-6.54679 -23.69974,-13.5917z" data-paper-data="{&quot;index&quot;:null}" fill="url(#color-4)" stroke="none" stroke-width="0" stroke-linecap="butt"/><path d="M241.49306,125.37203c-35.63531,-12.22449 -60.6146,-43.84635 -60.6146,-43.84635l69.30942,8.53388l46.02074,16.70757c0,0 22.13912,15.82782 20.71671,19.02735c0,0 -39.79696,11.80203 -75.43227,-0.42245z" fill="#5b5b5b" stroke="none" stroke-width="0" stroke-linecap="butt"/><path d="M355.88967,-21.28664c0,0 8.7174,58.5084 -1.339,84.2193c-10.0563,25.7109 -43.414,32.4428 -68.7931,25.8191c-46.0677,-12.0233 -91.8575,-45.2678 -118.7234,-17.8055c-26.4798,27.0676 80.6107,76.0258 87.3903,78.4181c39.7922,14.0416 75.3914,16.1414 81.3228,50.9228c5.9314,34.7814 -55.8827,71.0737 -55.8827,71.0737c0,0 -20.7339,-5.0128 -30.8203,-3.486c-10.3875,1.5724 -30.6279,12.7877 -30.6279,12.7877c0,0 -56.063,-12.7145 -69.3226,11.8902c-21.5028,39.9013 -18.792,83.3422 -18.792,83.3422" data-paper-data="{&quot;index&quot;:null}" fill="none" stroke="#4f4f4f" stroke-width="45" stroke-linecap="round"/><path d="M433.41598,115.2709c3.74551,5.52316 3.35553,14.9323 7.74548,22.53014c4.9291,8.53093 14.44252,14.97809 14.44252,14.97809c0,0 -8.47494,66.51163 -17.00875,72.4038c-4.352,3.00483 -17.18731,-14.71619 -23.31425,-10.91346c-8.81671,5.47215 -26.06584,-15.69428 -26.06584,-15.69428c0,0 -4.60578,-15.29663 -8.98123,-21.32886c-4.44665,-6.13041 -14.97954,-7.8501 -18.24188,-12.6608c-7.20067,-10.61818 -17.11593,-43.10689 -17.11593,-43.10689l25.28231,-26.63013c0,0 26.51204,9.8927 37.29773,11.90777c11.39887,2.12963 18.75863,-2.10435 25.95984,8.51462z" data-paper-data="{&quot;index&quot;:null}" fill="url(#color-5)" stroke="none" stroke-width="0" stroke-linecap="butt"/><path d="M10.39687,196.02076c2.2087,6.9354 -6.7927,10.6559 -7.7523,18.4497c-0.3281,2.6645 0.4197,6.5635 1.5459,10.5414c2.1682,7.6579 5.7392,15.6086 5.7392,15.6086l-13.3645,-7.6785c0,0 -5.9923,-7.9274 -6.2924,-16.7156c-0.2765,-8.0943 4.1648,-18.4464 6.7142,-22.577c5.3172,-8.6155 11.2012,-4.5639 13.4099,2.3714z" data-paper-data="{&quot;index&quot;:null}" fill="url(#color-6)" stroke="#a19477" stroke-width="1.5" stroke-linecap="butt"/><path d="M0.32257,172.77936c-1.4111,-4.5134 -3.0487,-15.4528 -0.6742,-23.2909c2.578,-8.5101 10.4813,-15.0949 10.4813,-15.0949l15.0255,-4.9353c0,0 -5.5489,7.0695 -9.6541,14.1212c-2.1324,3.6631 -3.8753,7.3214 -4.2484,9.9815c-1.0914,7.7811 6.7164,13.1258 2.7595,19.4654c-3.9568,6.3396 -10.7465,9.1666 -13.6896,-0.247z" data-paper-data="{&quot;index&quot;:null}" fill="url(#color-7)" stroke="#a19477" stroke-width="1.5" stroke-linecap="butt"/><path d="M25.00187,177.17666c-1.4111,-4.5134 -3.0487,-15.4528 -0.6742,-23.2909c2.578,-8.5101 10.4813,-15.0949 10.4813,-15.0949l15.0255,-4.9353c0,0 -5.5489,7.0695 -9.6541,14.1212c-2.1324,3.6631 -3.8753,7.3214 -4.2484,9.9815c-1.0914,7.7811 6.7164,13.1258 2.7595,19.4654c-3.9568,6.3396 -10.7465,9.1666 -13.6896,-0.247z" data-paper-data="{&quot;index&quot;:null}" fill="url(#color-8)" stroke="#a19477" stroke-width="1.5" stroke-linecap="butt"/><path d="M36.17957,196.49936c2.2087,6.9354 -6.7927,10.6559 -7.7523,18.4497c-0.328,2.6645 0.4197,6.5634 1.5459,10.5414c2.1682,7.6578 5.7393,15.6085 5.7393,15.6085l-13.3646,-7.6784c0,0 -5.9923,-7.9275 -6.2924,-16.7157c-0.2765,-8.0942 4.1648,-18.4463 6.7142,-22.577c5.3172,-8.6154 11.2012,-4.5639 13.4099,2.3715z" data-paper-data="{&quot;index&quot;:null}" fill="url(#color-9)" stroke="#a19477" stroke-width="1.5" stroke-linecap="butt"/><path d="M45.95707,178.62916c-1.4558,-4.1739 -3.2035,-14.2771 -0.9114,-21.4895c2.4886,-7.8307 10.3168,-13.8456 10.3168,-13.8456l14.9603,-4.4398c0,0 -5.4713,6.4795 -9.5003,12.9536c-2.093,3.363 -3.7968,6.7244 -4.1423,9.1754c-1.0108,7.1694 6.8438,12.1581 2.9556,17.9763c-3.8882,5.8183 -10.6423,8.3751 -13.6787,-0.3304z" data-paper-data="{&quot;index&quot;:null}" fill="url(#color-10)" stroke="#a19477" stroke-width="1.5" stroke-linecap="butt"/><path d="M93.18757,212.85486l10.0794,-45.3178c0,0 47.8875,0.0346 65.7301,9.3702c17.8426,9.3356 26.7566,17.0612 23.413,24.9597c-3.4726,8.2032 -15.9469,16.115 -31.3193,20.4243c-15.3725,4.3093 -67.9031,-9.4364 -67.9031,-9.4364z" fill="url(#color-11)" stroke="#7c715b" stroke-width="1.5" stroke-linecap="butt"/><path d="M57.32407,196.51436c2.2774,6.414 -6.6771,9.7785 -7.5562,16.9606c-0.3005,2.4553 0.4863,6.0575 1.6521,9.7353c2.2442,7.0802 5.893,14.441 5.893,14.441l-13.4298,-7.183c0,0 -6.0673,-7.3576 -6.4569,-15.4664c-0.3589,-7.4685 3.9723,-16.9843 6.477,-20.7755c5.2239,-7.9074 11.1434,-4.126 13.4208,2.288z" data-paper-data="{&quot;index&quot;:null}" fill="url(#color-12)" stroke="#a19477" stroke-width="1.5" stroke-linecap="butt"/><path d="M-34.09253,189.13636l2.6825,-20.3708c0,0 14.8109,-1.108 34.7251,1.3899c2.5588,0.321 8.1494,4.9452 10.7444,5.2344c2.8075,0.313 4.6165,-2.4674 7.4199,-2.1056c3.3373,0.4307 7.5142,4.9377 10.6924,5.2827c5.0006,0.543 8.1196,-2.6009 12.4178,-2.0871c3.6853,0.4405 7.3274,3.8593 10.1457,4.1316c2.4154,0.2334 5.6228,-4.0527 8.3423,-3.9062c16.9302,0.9121 37.1776,4.7823 37.1776,4.7823l-2.6825,20.3708c0,0 -21.506,1.371 -39.0934,-1.0669c-2.926,-0.4056 -4.9801,-6.7138 -7.6228,-6.9692c-4.0678,-0.393 -5.2776,3.247 -10.9732,4.0012c-3.3436,0.4427 -5.6806,-3.3961 -10.4519,-4.0046c-3.3033,-0.4214 -9.1118,2.4102 -11.7209,2.267c-2.7936,-0.1533 -4.2515,-5.2596 -7.0502,-5.5043c-2.8493,-0.2492 -7.0388,4.3619 -9.8099,4.0467c-18.8659,-2.1464 -34.9429,-5.4919 -34.9429,-5.4919z" fill="url(#color-13)" stroke="#a19477" stroke-width="1.5" stroke-linecap="butt"/><path d="M-39.5,384v-408h559v408z" fill="url(#color-14)" stroke="none" stroke-width="0" stroke-linecap="butt"/><path d="M-39.5,384v-408h559v408z" fill="url(#color-15)" stroke="none" stroke-width="0" stroke-linecap="butt"/><path d="M169.48427,215.31836c0.6309,1.0993 1.1757,3.6947 -0.3928,5.4169c-1.7029,1.8698 -6.283,3.0879 -6.283,3.0879l-8.4583,0.5604c0,0 3.296,-1.4214 5.7943,-2.8946c1.2977,-0.7652 2.3802,-1.5444 2.6736,-2.1457c0.8581,-1.7587 -3.2773,-3.2981 -0.8843,-4.6122c2.3929,-1.3141 6.2347,-1.7054 7.5505,0.5873z" data-paper-data="{&quot;index&quot;:null}" fill="url(#color-16)" stroke="#7c715b" stroke-width="1.5" stroke-linecap="butt"/><path d="M167.16217,181.95826c-2.0926,-1.6478 2.2907,-2.5534 1.7994,-4.4124c-0.168,-0.6356 -1.0774,-1.5631 -2.2016,-2.5085c-2.1643,-1.8201 -5.1249,-3.707 -5.1249,-3.707l8.2189,1.8013c0,0 4.2662,1.8762 5.5673,3.9696c1.1984,1.9281 0.1393,4.4041 -0.7034,5.3937c-1.7577,2.0641 -5.4631,1.1112 -7.5557,-0.5367z" fill="url(#color-17)" stroke="url(#color-18)" stroke-width="1.5" stroke-linecap="butt"/><path d="M191.57237,204.06036l11.3496,5.6712l8.8928,0.0678c0,0 -9.5282,2.9831 -26.8449,5.1746c-3.7243,0.4714 -11.9745,-0.2296 -11.9745,-0.2296c0,0 -20.3788,7.4399 -30.0909,6.5015c-12.0977,-1.169 -54.2916,18.8367 -54.2916,18.8367c0,0 1.7776,-19.7249 -7.3374,-32.663c-7.5034,-10.6505 -25.1624,-20.7248 -25.1624,-20.7248c0,0 30.1008,-10.8476 33.2735,-14.6803c13.3218,-16.0927 16.9301,-29.7795 16.9301,-29.7795c0,0 34.386,27.3237 44.0385,29.7686c9.8669,2.4991 29.1229,16.2448 29.1229,16.2448c0,0 4.4485,0.9751 6.1723,1.752c16.9284,7.6295 31.5585,13.9682 31.5585,13.9682l-11.2126,-3.3955z" fill="url(#color-19)" stroke="#a19477" stroke-width="1.5" stroke-linecap="butt"/><path d="M147.81567,214.83086c0.6391,3.2682 -6.0595,6.9531 -14.9618,8.2306c-8.9023,1.2774 -16.6372,-0.3364 -17.2763,-3.6046c-0.6391,-3.2682 6.0595,-6.9531 14.9618,-8.2305c8.9023,-1.2775 16.6371,0.3363 17.2763,3.6045z" fill="#000000" stroke="#a19477" stroke-width="1.5" stroke-linecap="butt"/><path d="M155.91587,180.08186c-1.4729,3.0641 -9.4331,3.1614 -17.7795,0.2173c-8.3464,-2.9441 -13.9184,-7.8147 -12.4455,-10.8788c1.473,-3.0641 9.4332,-3.1614 17.7796,-0.2173c8.3464,2.9441 13.9184,7.8147 12.4454,10.8788z" data-paper-data="{&quot;index&quot;:null}" fill="#000000" stroke="#a19477" stroke-width="1.5" stroke-linecap="butt"/><path d="M187.32447,204.13146l-27.8295,-4.5093" fill="none" stroke="#7c715b" stroke-width="1.5" stroke-linecap="round"/><path d="M175.32547,204.50236l1.8206,8.4782" fill="none" stroke="#716652" stroke-width="1.5" stroke-linecap="round"/><path d="M182.86127,190.99076l-6.0097,7.7216" fill="none" stroke="#716652" stroke-width="1.5" stroke-linecap="round"/><path d="M194.61647,195.39716l-4.7798,5.0731" fill="none" stroke="#716652" stroke-width="1.5" stroke-linecap="round"/><path d="M188.60447,207.59686l2.4378,6.022" fill="none" stroke="#716652" stroke-width="1.5" stroke-linecap="round"/><path d="M139.86237,206.79716c-0.4769,0.629 -1.2112,0.2205 -1.2112,0.2205l-0.1686,-0.1882c-2.4327,-0.2585 -3.5389,-1.4137 -6.2078,-1.1086c-6.4367,-0.5986 -15.5338,-0.9343 -18.7798,5.0639c-3.0515,3.0699 -2.9164,9.1078 -0.6276,12.4081c0.1336,0.1926 2.2249,0.2455 2.2809,0.2509c0,0 0.87,0.084 0.7719,0.8293c-0.0981,0.7453 -0.9682,0.6612 -0.9682,0.6612c-1.0647,-0.1029 -2.6584,-0.0314 -3.4538,-0.8063c-3.3147,-3.2295 -2.5152,-11.035 0.5199,-14.1491c3.4936,-6.4559 13.2408,-6.4636 20.2389,-5.7579c2.6781,-0.3061 4.0704,0.9221 6.4219,1.118l0.926,0.4207c0,0 0.7343,0.4085 0.2575,1.0375z" fill="#7c715b" stroke="none" stroke-width="0.5" stroke-linecap="butt"/><path d="M151.96087,186.99866c-0.0981,0.7453 -0.9681,0.6612 -0.9681,0.6612l-0.5801,-0.056c-4.1987,-0.4057 -7.4567,-1.666 -11.3208,-2.8851c-4.3026,-1.7055 -9.8507,-3.1373 -13.5878,-5.6844c-0.8427,-0.5744 -1.3039,-1.9249 -2.1784,-2.4076c-1.8787,-1.0369 -2.3945,-1.0175 -3.5405,-2.885c-2.3577,-3.9207 -2.458,-9.2198 3.5656,-11.0671c1.4047,-0.4308 3.0518,-0.0335 4.4851,0.105c0,0 0.87,0.0841 0.7719,0.8293c-0.0981,0.7453 -0.9682,0.6612 -0.9682,0.6612c-1.085,-0.1048 -2.6358,-0.5295 -3.7006,-0.1827c-4.9986,1.6283 -4.5118,5.7833 -2.5971,8.9674c0.2867,0.4845 0.3345,1.0596 0.6464,1.5325c0.4538,0.6879 1.5962,0.3978 2.1846,0.7267c1.0704,0.5981 1.4741,1.905 2.453,2.5685c3.6008,2.4406 9.0073,3.8075 13.141,5.4521c3.7146,1.2081 6.8176,2.3897 10.8421,2.7786l0.58,0.0561c0,0 0.8701,0.084 0.7719,0.8293z" fill="#7c715b" stroke="none" stroke-width="0.5" stroke-linecap="butt"/><path d="M143.96297,205.62846c-0.6846,0.4676 -1.2304,-0.1189 -1.2304,-0.1189l-0.8223,-0.8894c-1.7014,-2.8292 -4.3509,-2.169 -7.5117,-2.4622c0,0 -0.8701,-0.0841 -0.7719,-0.8294c0.0981,-0.7452 0.9681,-0.6612 0.9681,-0.6612c3.664,0.3712 6.7769,-0.2023 8.7856,3.1378l0.7214,0.7693c0,0 0.5458,0.5865 -0.1388,1.054z" fill="#a19477" stroke="none" stroke-width="0.5" stroke-linecap="butt"/><path d="M146.86717,187.76446c0.87,0.084 0.7719,0.8293 0.7719,0.8293l-0.2012,0.8213c-2.0823,2.4535 -6.0212,1.5965 -9.1817,1.2911c0,0 -0.8701,-0.0841 -0.772,-0.8293c0.0982,-0.7453 0.9682,-0.6612 0.9682,-0.6612c2.0444,0.1975 6.4321,1.1693 7.5169,-0.6176l-0.0703,-0.1724c0,0 0.0981,-0.7453 0.9682,-0.6612z" fill="#a19477" stroke="none" stroke-width="0.5" stroke-linecap="butt"/><path d="M157.37057,199.44656c-0.0981,0.7452 -0.9682,0.6612 -0.9682,0.6612l-0.87,-0.0841c-3.7082,-0.3583 -7.1437,-0.5614 -10.3656,-2.3392c0,0 -0.7343,-0.4085 -0.2574,-1.0375c0.4769,-0.629 1.2112,-0.2205 1.2112,-0.2205c2.9558,1.66 6.192,1.7766 9.6081,2.1066l0.87,0.0841c0,0 0.8701,0.0841 0.7719,0.8294z" fill="#7c715b" stroke="none" stroke-width="0.5" stroke-linecap="butt"/><path d="M168.82567,185.58046c0.232,0.7232 -0.6123,0.9219 -0.6123,0.9219l-1.2962,0.2762c-2.5894,2.4835 -3.8066,4.7646 -4.2391,8.0484c0,0 -0.0981,0.7453 -0.9681,0.6613c-0.8701,-0.0841 -0.7719,-0.8294 -0.7719,-0.8294c0.4938,-3.7504 1.9775,-6.4512 5.0765,-9.1656l1.7348,-0.4373c0,0 0.8442,-0.1987 1.0762,0.5245z" fill="#7c715b" stroke="none" stroke-width="0.5" stroke-linecap="butt"/><path d="M174.78447,187.91556c0.5459,0.5864 -0.1387,1.0539 -0.1387,1.0539l-0.5218,0.3378c-1.8169,1.8453 -4.1861,3.6693 -4.4856,6.1923c0,0 -0.0981,0.7453 -0.9682,0.6612c-0.87,-0.0841 -0.7719,-0.8294 -0.7719,-0.8294c0.4087,-2.8798 2.7971,-4.8657 4.8867,-6.9908l0.7691,-0.5439c0,0 0.6846,-0.4676 1.2304,0.1189z" fill="#7c715b" stroke="none" stroke-width="0.5" stroke-linecap="butt"/><path d="M163.06787,215.12846c-0.7506,0.3861 -1.2014,-0.2569 -1.2014,-0.2569l-0.1411,-0.216c-2.8592,-3.021 -2.8367,-6.1265 -3.1707,-9.8127c0,0 -0.0674,-0.7478 0.8055,-0.8056c0.873,-0.0578 0.9404,0.69 0.9404,0.69c0.3023,3.364 0.159,6.2261 2.7834,8.982l0.2838,0.3901c0,0 0.4507,0.643 -0.2999,1.0291z" fill="#7c715b" stroke="none" stroke-width="0.5" stroke-linecap="butt"/><path d="M171.05477,212.75776c-0.4606,0.6378 -1.2052,0.2432 -1.2052,0.2432l-1.4111,-0.7672c-1.7779,-2.2117 -1.3703,-4.1877 -1.944,-6.5457c0,0 -0.16,-0.7373 0.7008,-0.8744c0.8608,-0.1371 1.0208,0.6003 1.0208,0.6003c0.3942,1.998 0.0258,3.9069 1.4346,5.7373l1.1201,0.5741c0,0 0.7446,0.3946 0.284,1.0324z" fill="#7c715b" stroke="none" stroke-width="0.5" stroke-linecap="butt"/><path d="M185.75057,213.02706c-0.5974,0.5483 -1.2375,0.0365 -1.2375,0.0365l-1.0504,-0.8748c-0.6918,-1.7892 -1.2413,-3.5913 -1.7759,-5.4188c0,0 -0.2128,-0.7275 0.6365,-0.9098c0.8493,-0.1823 1.0621,0.5452 1.0621,0.5452c0.4895,1.6733 1.0449,3.3236 1.5627,4.989l0.7599,0.5727c0,0 0.64,0.5117 0.0426,1.06z" fill="#716652" stroke="none" stroke-width="0.5" stroke-linecap="butt"/><path d="M187.26307,194.01156c0.7343,0.4085 0.2574,1.0375 0.2574,1.0375l-0.7419,0.976c-1.1541,1.1584 -1.0636,2.2896 -1.2594,3.7764c0,0 -0.0981,0.7453 -0.9681,0.6612c-0.8701,-0.0841 -0.7719,-0.8293 -0.7719,-0.8293c0.2302,-1.7483 0.2329,-3.1043 1.5929,-4.5019l0.6798,-0.8994c0,0 0.4769,-0.629 1.2112,-0.2205z" fill="#716652" stroke="none" stroke-width="0.5" stroke-linecap="butt"/><path d="M201.79697,198.85846c-0.0982,0.7452 -0.9682,0.6612 -0.9682,0.6612l-0.7037,-0.0816c-1.7696,0.4137 -3.2384,1.4036 -5.0242,1.9643c0,0 -0.8221,0.2581 -1.1234,-0.4461c-0.3013,-0.7042 0.5208,-0.9623 0.5208,-0.9623c1.975,-0.6201 3.4762,-1.5752 5.4905,-2.0514l1.0363,0.0865c0,0 0.87,0.0841 0.7719,0.8294z" fill="#716652" stroke="none" stroke-width="0.5" stroke-linecap="butt"/><path d="M197.60717,211.46616c-0.5516,0.5825 -1.2316,0.11 -1.2316,0.11l-0.3205,-0.2227c-1.7223,-1.1968 -3.2384,-2.2047 -4.4444,-3.8208c0,0 -0.4707,-0.6325 0.2676,-1.0356c0.7383,-0.4032 1.209,0.2293 1.209,0.2293c1.0949,1.4757 2.4965,2.3681 4.071,3.4622l0.3205,0.2227c0,0 0.68,0.4725 0.1284,1.055z" fill="#716652" stroke="none" stroke-width="0.5" stroke-linecap="butt"/><path d="M104.77537,207.66766c2.5944,-3.8435 8.1929,-7.2401 13.2667,-7.8224c0,0 0.8679,-0.0992 0.9836,0.6442c0.1158,0.7434 -0.752,0.8426 -0.752,0.8426c-4.9635,0.565 -10.3881,4.0439 -12.455,7.8633l-1.1677,-0.6546l-0.421,0.0237c0.0357,-0.0661 0.0724,-0.1321 0.1101,-0.198l-0.1204,-0.0675c0,0 0.0648,-0.4919 0.5557,-0.6314z" fill="#a19477" stroke="none" stroke-width="0.5" stroke-linecap="butt"/><path d="M112.93837,166.62346c0.87,0.0841 0.7719,0.8294 0.7719,0.8294l-0.0464,0.0084c1.1877,4.8026 1.9516,10.692 7.1671,13.5901c0,0 0.7343,0.4085 0.2574,1.0375c-0.4769,0.629 -1.2112,0.2205 -1.2112,0.2205c-5.6961,-3.1721 -6.6239,-9.3068 -7.9261,-14.5362l0.0191,-0.4885c0,0 0.0981,-0.7452 0.9682,-0.6612z" fill="#a19477" stroke="none" stroke-width="0.5" stroke-linecap="butt"/><path d="M100.32127,191.06606l-41.149,-4.2275" fill="none" stroke="#a19477" stroke-width="1.5" stroke-linecap="round"/><path d="M106.95757,142.89976l0.9524,23.9926" fill="none" stroke="#a19477" stroke-width="1.5" stroke-linecap="round"/><path d="M99.98277,215.94036l-9.9045,21.6857" fill="none" stroke="#a19477" stroke-width="1.5" stroke-linecap="round"/><path d="M83.22127,200.48356l11.1556,-2.1927" fill="none" stroke="#a19477" stroke-width="1.5" stroke-linecap="round"/><path d="M96.53977,213.09176l-5.5801,2.2283" fill="none" stroke="#a19477" stroke-width="1.5" stroke-linecap="round"/><path d="M97.07887,184.46316l-9.1407,-6.4181" fill="none" stroke="#a19477" stroke-width="1.5" stroke-linecap="round"/><path d="M101.74997,169.06466l2.344,4.5034" fill="none" stroke="#a19477" stroke-width="1.5" stroke-linecap="round"/><path d="M432.15537,123.13894c3.30401,4.82851 2.95999,13.05427 6.83248,19.69652c4.34809,7.45799 6.47475,14.54014 6.47475,14.54014c0,0 -1.85083,49.67101 -9.37872,54.82212c-3.83901,2.62691 -15.05735,-14.61547 -20.46207,-11.29102c-7.77745,4.78392 -22.45712,-4.94067 -22.45712,-4.94067c0,0 -1.17117,-18.67422 -5.03086,-23.94778c-3.9225,-5.35939 -16.10553,-1.56134 -18.98333,-5.767c-3.18373,-4.65275 -2.87248,-17.72356 -5.85649,-25.99907c-2.96941,-8.23502 -9.24191,-11.68626 -9.24191,-11.68626c0,0 13.08,-8.60184 16.86287,-12.55072c3.64614,-3.80615 5.43929,-10.73014 5.43929,-10.73014c0,0 23.38694,8.6485 32.90127,10.41013c10.05523,1.86179 16.54746,-1.83969 22.89983,7.44374z" data-paper-data="{&quot;index&quot;:null}" fill="url(#color-20)" stroke="none" stroke-width="0" stroke-linecap="butt"/><path d="M211.30226,367.964c-12.67934,1.37674 -14.34316,-6.4014 -23.42382,-13.15926c-8.59218,-6.39433 -33.41037,-19.10475 -33.41037,-19.10475c0,0 4.59433,-6.2583 5.1391,-11.82957c0.56522,-5.78019 -1.80691,-22.24792 -1.80691,-22.24792c0,0 7.62548,2.6209 16.88834,-0.73552c9.3084,-3.37292 20.26988,-12.7249 26.62461,-13.41491c5.7441,-0.6237 11.56215,11.78012 19.07204,11.18978c7.38963,-0.58088 24.25329,-12.64771 24.25329,-12.64771c0,0 19.25697,4.98635 20.95071,14.5478c1.17703,6.64447 24.29483,3.62275 24.9035,8.52728c1.1935,9.61727 -39.96435,45.69129 -39.96435,45.69129c0,0 -7.64815,3.22861 -17.27205,4.93953c-8.57124,1.52381 -15.35926,7.52789 -21.95407,8.24395z" data-paper-data="{&quot;index&quot;:null}" fill="url(#color-21)" stroke="none" stroke-width="0" stroke-linecap="butt"/><path d="M413.10347,197.80956c-5.7728,-1.2367 -10.1034,-0.0908 -9.4729,-1.8599c0.6305,-1.7692 4.4744,-1.9684 10.2472,-0.7317c2.7094,0.5804 5.5869,-0.7984 7.1967,-0.4796c1.8202,0.3603 -0.1529,1.9644 -0.4875,2.9032c-0.2264,0.6353 2.0917,2.6886 1.1671,2.7553c0,0 -4.9507,-1.7948 -8.6506,-2.5873z" data-paper-data="{&quot;index&quot;:null}" fill="url(#color-22)" stroke="#a19477" stroke-width="1" stroke-linecap="butt"/><path d="M341.88967,-22.28664c0,0 7.7174,55.5084 -2.339,81.2193c-10.0563,25.7109 -38.414,21.4428 -63.7931,14.8191c-46.0677,-12.0233 -93.8575,-46.2678 -120.7234,-18.8055c-49.4162,50.5131 75.7838,87.2639 90.3903,92.4181c39.7922,14.0416 69.3914,14.1414 75.3228,48.9228c5.9314,34.7814 -27.2322,54.7002 -55.8827,65.0737c-31.7933,11.5113 -108.1846,-25.9976 -135.7708,25.1919c-21.5028,39.9013 -13.792,85.3422 -13.792,85.3422" data-paper-data="{&quot;index&quot;:null}" fill="none" stroke="url(#color-23)" stroke-width="45" stroke-linecap="round"/><path d="M127.55577,314.34065c-2.20914,0 -4,-2.23858 -4,-5c0,-2.76142 1.79086,-5 4,-5c2.20914,0 4,2.23858 4,5c0,2.76142 -1.79086,5 -4,5z" data-paper-data="{&quot;index&quot;:null}" fill="url(#color-24)" stroke="none" stroke-width="0" stroke-linecap="butt"/><path d="M147.55577,274.34065c-4.97056,0 -9,-4.70101 -9,-10.5c0,-5.79899 4.02944,-10.5 9,-10.5c4.97056,0 9,4.70101 9,10.5c0,5.79899 -4.02944,10.5 -9,10.5z" data-paper-data="{&quot;index&quot;:null}" fill="url(#color-25)" stroke="none" stroke-width="0" stroke-linecap="butt"/><path d="M117.55577,293.34065c-3.31371,0 -6,-2.91015 -6,-6.5c0,-3.58985 2.68629,-6.5 6,-6.5c3.31371,0 6,2.91015 6,6.5c0,3.58985 -2.68629,6.5 -6,6.5z" data-paper-data="{&quot;index&quot;:null}" fill="url(#color-26)" stroke="none" stroke-width="0" stroke-linecap="butt"/><path d="M110.05577,352.34065c-2.48528,0 -4.5,-3.35786 -4.5,-7.5c0,-4.14214 2.01472,-7.5 4.5,-7.5c2.48528,0 4.5,3.35786 4.5,7.5c0,4.14214 -2.01472,7.5 -4.5,7.5z" data-paper-data="{&quot;index&quot;:null}" fill="url(#color-27)" stroke="none" stroke-width="0" stroke-linecap="butt"/><path d="M254.05577,267.34065c-3.58985,0 -6.5,-4.02944 -6.5,-9c0,-4.97056 2.91015,-9 6.5,-9c3.58985,0 6.5,4.02944 6.5,9c0,4.97056 -2.91015,9 -6.5,9z" data-paper-data="{&quot;index&quot;:null}" fill="url(#color-28)" stroke="none" stroke-width="0" stroke-linecap="butt"/><path d="M327.05577,220.34065c-3.58985,0 -6.5,-3.58172 -6.5,-8c0,-4.41828 2.91015,-8 6.5,-8c3.58985,0 6.5,3.58172 6.5,8c0,4.41828 -2.91015,8 -6.5,8z" data-paper-data="{&quot;index&quot;:null}" fill="url(#color-29)" stroke="none" stroke-width="0" stroke-linecap="butt"/><path d="M306.05577,214.34065c-2.48528,0 -4.5,-2.46243 -4.5,-5.5c0,-3.03757 2.01472,-5.5 4.5,-5.5c2.48528,0 4.5,2.46243 4.5,5.5c0,3.03757 -2.01472,5.5 -4.5,5.5z" data-paper-data="{&quot;index&quot;:null}" fill="url(#color-30)" stroke="none" stroke-width="0" stroke-linecap="butt"/><path d="M310.05577,180.34065c-3.03757,0 -5.5,-3.35786 -5.5,-7.5c0,-4.14214 2.46243,-7.5 5.5,-7.5c3.03757,0 5.5,3.35786 5.5,7.5c0,4.14214 -2.46243,7.5 -5.5,7.5z" data-paper-data="{&quot;index&quot;:null}" fill="url(#color-31)" stroke="none" stroke-width="0" stroke-linecap="butt"/><path d="M267.05577,160.34065c-3.58985,0 -6.5,-2.23858 -6.5,-5c0,-2.76142 2.91015,-5 6.5,-5c3.58985,0 6.5,2.23858 6.5,5c0,2.76142 -2.91015,5 -6.5,5z" data-paper-data="{&quot;index&quot;:null}" fill="url(#color-32)" stroke="none" stroke-width="0" stroke-linecap="butt"/><path d="M296.05577,247.34065c-2.48528,0 -4.5,-2.91015 -4.5,-6.5c0,-3.58985 2.01472,-6.5 4.5,-6.5c2.48528,0 4.5,2.91015 4.5,6.5c0,3.58985 -2.01472,6.5 -4.5,6.5z" data-paper-data="{&quot;index&quot;:null}" fill="url(#color-33)" stroke="none" stroke-width="0" stroke-linecap="butt"/><path d="M249.55577,151.34065c-5.52285,0 -10,-4.47715 -10,-10c0,-5.52285 4.47715,-10 10,-10c5.52285,0 10,4.47715 10,10c0,5.52285 -4.47715,10 -10,10z" data-paper-data="{&quot;index&quot;:null}" fill="url(#color-34)" stroke="none" stroke-width="0" stroke-linecap="butt"/><path d="M221.05577,156.34065c-4.14214,0 -7.5,-3.35786 -7.5,-7.5c0,-4.14214 3.35786,-7.5 7.5,-7.5c4.14214,0 7.5,3.35786 7.5,7.5c0,4.14214 -3.35786,7.5 -7.5,7.5z" data-paper-data="{&quot;index&quot;:null}" fill="url(#color-35)" stroke="none" stroke-width="0" stroke-linecap="butt"/><path d="M291.55577,176.34065c-3.86599,0 -7,-4.25329 -7,-9.5c0,-5.24671 3.13401,-9.5 7,-9.5c3.86599,0 7,4.25329 7,9.5c0,5.24671 -3.13401,9.5 -7,9.5z" data-paper-data="{&quot;index&quot;:null}" fill="url(#color-36)" stroke="none" stroke-width="0" stroke-linecap="butt"/><path d="M219.05577,257.34065c-5.79899,0 -10.5,-3.35786 -10.5,-7.5c0,-4.14214 4.70101,-7.5 10.5,-7.5c5.79899,0 10.5,3.35786 10.5,7.5c0,4.14214 -4.70101,7.5 -10.5,7.5z" data-paper-data="{&quot;index&quot;:null}" fill="url(#color-37)" stroke="none" stroke-width="0" stroke-linecap="butt"/><path d="M179.42211,275.37093c-3.86599,0 -7,-2.68629 -7,-6c0,-3.31371 3.13401,-6 7,-6c3.86599,0 7,2.68629 7,6c0,3.31371 -3.13401,6 -7,6z" fill="url(#color-38)" stroke="none" stroke-width="0" stroke-linecap="butt"/><path d="M162.42211,103.37093c-3.86599,0 -7,-4.25329 -7,-9.5c0,-5.24671 3.13401,-9.5 7,-9.5c3.86599,0 7,4.25329 7,9.5c0,5.24671 -3.13401,9.5 -7,9.5z" fill="url(#color-39)" stroke="none" stroke-width="0" stroke-linecap="butt"/><path d="M181.42211,128.37093c-2.76142,0 -5,-1.34315 -5,-3c0,-1.65685 2.23858,-3 5,-3c2.76142,0 5,1.34315 5,3c0,1.65685 -2.23858,3 -5,3z" fill="url(#color-40)" stroke="none" stroke-width="0" stroke-linecap="butt"/><path d="M212.42211,127.37093c-2.76142,0 -5,-2.01472 -5,-4.5c0,-2.48528 2.23858,-4.5 5,-4.5c2.76142,0 5,2.01472 5,4.5c0,2.48528 -2.23858,4.5 -5,4.5z" fill="url(#color-41)" stroke="none" stroke-width="0" stroke-linecap="butt"/><path d="M146.7379,55.37093c-5.34844,0 -9.68421,-3.35786 -9.68421,-7.5c0,-4.14214 4.33577,-7.5 9.68421,-7.5c5.34844,0 9.68421,3.35786 9.68421,7.5c0,4.14214 -4.33577,7.5 -9.68421,7.5z" fill="url(#color-42)" stroke="none" stroke-width="0" stroke-linecap="butt"/><path d="M181.92211,52.37093c-3.58985,0 -6.5,-2.01472 -6.5,-4.5c0,-2.48528 2.91015,-4.5 6.5,-4.5c3.58985,0 6.5,2.01472 6.5,4.5c0,2.48528 -2.91015,4.5 -6.5,4.5z" fill="url(#color-43)" stroke="none" stroke-width="0" stroke-linecap="butt"/><path d="M138.42211,83.37093c-3.31371,0 -6,-2.01472 -6,-4.5c0,-2.48528 2.68629,-4.5 6,-4.5c3.31371,0 6,2.01472 6,4.5c0,2.48528 -2.68629,4.5 -6,4.5z" fill="url(#color-44)" stroke="none" stroke-width="0" stroke-linecap="butt"/><path d="M238.42211,76.37093c-5.52285,0 -10,-2.68629 -10,-6c0,-3.31371 4.47715,-6 10,-6c5.52285,0 10,2.68629 10,6c0,3.31371 -4.47715,6 -10,6z" fill="url(#color-45)" stroke="none" stroke-width="0" stroke-linecap="butt"/><path d="M271.42211,75.37093c-2.76142,0 -5,-2.23858 -5,-5c0,-2.76142 2.23858,-5 5,-5c2.76142,0 5,2.23858 5,5c0,2.76142 -2.23858,5 -5,5z" fill="url(#color-46)" stroke="none" stroke-width="0" stroke-linecap="butt"/><path d="M242.92211,54.37093c-3.58985,0 -6.5,-2.01472 -6.5,-4.5c0,-2.48528 2.91015,-4.5 6.5,-4.5c3.58985,0 6.5,2.01472 6.5,4.5c0,2.48528 -2.91015,4.5 -6.5,4.5z" fill="url(#color-47)" stroke="none" stroke-width="0" stroke-linecap="butt"/><path d="M212.92211,58.37093c-1.933,0 -3.5,-1.567 -3.5,-3.5c0,-1.933 1.567,-3.5 3.5,-3.5c1.933,0 3.5,1.567 3.5,3.5c0,1.933 -1.567,3.5 -3.5,3.5z" fill="url(#color-48)" stroke="none" stroke-width="0" stroke-linecap="butt"/><path d="M313.42211,82.37093c-4.97056,0 -9,-3.35786 -9,-7.5c0,-4.14214 4.02944,-7.5 9,-7.5c4.97056,0 9,3.35786 9,7.5c0,4.14214 -4.02944,7.5 -9,7.5z" fill="url(#color-49)" stroke="none" stroke-width="0" stroke-linecap="butt"/><path d="M288.92211,85.37093c-2.48528,0 -4.5,-2.23858 -4.5,-5c0,-2.76142 2.01472,-5 4.5,-5c2.48528,0 4.5,2.23858 4.5,5c0,2.76142 -2.01472,5 -4.5,5z" fill="url(#color-50)" stroke="none" stroke-width="0" stroke-linecap="butt"/><path d="M346.42211,60.37093c-4.41828,0 -8,-4.70101 -8,-10.5c0,-5.79899 3.58172,-10.5 8,-10.5c4.41828,0 8,4.70101 8,10.5c0,5.79899 -3.58172,10.5 -8,10.5z" fill="url(#color-51)" stroke="none" stroke-width="0" stroke-linecap="butt"/><path d="M338.92211,15.57093c-3.03757,0 -5.5,-2.95492 -5.5,-6.6c0,-3.64508 2.46243,-6.6 5.5,-6.6c3.03757,0 5.5,2.95492 5.5,6.6c0,3.64508 -2.46243,6.6 -5.5,6.6z" fill="url(#color-52)" stroke="none" stroke-width="0" stroke-linecap="butt"/><path d="M353.92211,28.37093c-2.48528,0 -4.5,-3.35786 -4.5,-7.5c0,-4.14214 2.01472,-7.5 4.5,-7.5c2.48528,0 4.5,3.35786 4.5,7.5c0,4.14214 -2.01472,7.5 -4.5,7.5z" fill="url(#color-53)" stroke="none" stroke-width="0" stroke-linecap="butt"/><path d="M332.42211,35.37093c-1.65685,0 -3,-2.01472 -3,-4.5c0,-2.48528 1.34315,-4.5 3,-4.5c1.65685,0 3,2.01472 3,4.5c0,2.48528 -1.34315,4.5 -3,4.5z" fill="url(#color-54)" stroke="none" stroke-width="0" stroke-linecap="butt"/><path d="M335.42211,77.37093c-3.31371,0 -6,-2.23858 -6,-5c0,-2.76142 2.68629,-5 6,-5c3.31371,0 6,2.23858 6,5c0,2.76142 -2.68629,5 -6,5z" fill="url(#color-55)" stroke="none" stroke-width="0" stroke-linecap="butt"/><path d="M240.91145,119.5789c-12.65823,-4.44665 -35.97586,-15.06639 -46.05603,-21.29015c-14.21243,-8.77512 -21.97696,-17.76307 -21.97696,-17.76307c0,0 0.11511,-9.30013 7.92675,-10.89214c2.42771,-0.49477 11.01928,4.27202 13.64208,4.51074c5.05602,0.56175 17.81121,2.98737 26.38881,5.65642c12.37203,3.84974 20.37459,8.20589 20.37459,8.20589l38.55526,15.02914l25.58289,17.29655c0,0 -33.93183,9.96277 -64.43739,-0.75338z" fill="url(#color-56)" stroke="none" stroke-width="0" stroke-linecap="butt"/><path d="M398.65077,178.65126c6.0734,-2.6705 9.3846,-6.3418 9.8645,-4.5184c0.4799,1.8234 -2.9502,4.4241 -9.0236,7.0946c-2.8504,1.2534 -4.6799,4.1893 -6.3578,4.955c-1.8973,0.8658 -1.0382,-1.6771 -1.2929,-2.6447c-0.1723,-0.6548 -3.5457,-0.8346 -2.7319,-1.4754c1.4525,-1.1436 5.6492,-1.6996 9.5417,-3.4111z" fill="url(#color-57)" stroke="#a19477" stroke-width="1" stroke-linecap="butt"/><path d="M394.46217,201.07796c-5.5247,-5.3483 -4.1146,-11.5969 1.2337,-17.1216c1.5958,-1.6484 1.3666,-6.2524 3.206,-7.2602c3.1769,-1.7406 5.1943,0.1911 8.6073,2.6951c0.4227,0.3102 2.6135,-1.3579 3.5471,-1.2027c1.7921,0.2978 2.6386,2.3267 3.3154,2.9819c0.5782,0.5597 2.4531,1.4706 2.5423,2.9408c0.0752,1.2416 -1.6467,3.0453 -1.1709,3.7119c2.2284,3.1218 4.2888,4.8875 3.2116,7.567c-1.0232,2.5451 -5.9613,1.9541 -8.0638,4.1259c-5.3484,5.5247 -10.9039,6.9103 -16.4287,1.5619z" fill="url(#color-58)" stroke="#a19477" stroke-width="1.5" stroke-linecap="butt"/><path d="M405.90925,184.63157c-1.10755,1.14407 -2.96786,1.13979 -4.1551,-0.00956c-1.18725,-1.14935 -1.25185,-3.00853 -0.14429,-4.15261c1.10755,-1.14407 2.96785,-1.13979 4.1551,0.00956c1.18725,1.14935 1.25185,3.00853 0.1443,4.1526z" fill="#000000" stroke="none" stroke-width="0" stroke-linecap="butt"/><path d="M414.64785,193.58607c-1.29604,1.33878 -3.47296,1.33377 -4.86225,-0.01118c-1.38929,-1.34494 -1.46489,-3.52054 -0.16884,-4.85933c1.29604,-1.33878 3.47294,-1.33378 4.86224,0.01118c1.3893,1.34495 1.4649,3.52054 0.16886,4.85933z" fill="#000000" stroke="none" stroke-width="0" stroke-linecap="butt"/><path d="M398.77267,187.12976l1.2055,0.874l-0.9351,2.0255l1.22,1.7672l-1.7286,3.6021l-2.9872,-0.5472l-1.9266,5.1689" fill="none" stroke="#a19477" stroke-width="0.5" stroke-linecap="round"/><path d="M400.56077,191.79166l2.9092,0.3251l0.5464,1.5548" fill="none" stroke="#a19477" stroke-width="0.5" stroke-linecap="round"/><path d="M400.57207,197.07806l-1.7889,-0.1199l-0.2487,-1.5596" fill="none" stroke="#a19477" stroke-width="0.5" stroke-linecap="round"/><path d="M411.10857,181.04746l1.3206,-1.2127" fill="none" stroke="#a19477" stroke-width="1.5" stroke-linecap="round"/><path d="M415.30377,182.61756l-0.952,0.9834" fill="none" stroke="#a19477" stroke-width="1.5" stroke-linecap="round"/><path d="M412.23547,184.59156l-2.7515,0.9714l0.7591,-2.7764l0.5374,1.1898z" fill="#000000" stroke="#000000" stroke-width="0.5" stroke-linecap="butt"/><path d="M138.71327,195.52086l-27.6667,-5.3334" fill="none" stroke="#a19477" stroke-width="1.5" stroke-linecap="round"/><path d="M111.71317,196.52086l8.3334,-0.6667" fill="none" stroke="#a19477" stroke-width="1.5" stroke-linecap="round"/><path d="M117.71317,186.52086l7.6667,3.3333" fill="none" stroke="#a19477" stroke-width="1.5" stroke-linecap="round"/><path d="M379.24367,130.42268c-3.31371,0 -6,-2.91015 -6,-6.5c0,-3.58985 2.68629,-6.5 6,-6.5c3.31371,0 6,2.91015 6,6.5c0,3.58985 -2.68629,6.5 -6,6.5z" fill="url(#color-59)" stroke="none" stroke-width="0" stroke-linecap="butt"/><path d="M387.74367,116.42268c-1.933,0 -3.5,-1.567 -3.5,-3.5c0,-1.933 1.567,-3.5 3.5,-3.5c1.933,0 3.5,1.567 3.5,3.5c0,1.933 -1.567,3.5 -3.5,3.5z" fill="url(#color-60)" stroke="none" stroke-width="0" stroke-linecap="butt"/><path d="M250.74367,342.42268c-2.48528,0 -4.5,-1.79086 -4.5,-4c0,-2.20914 2.01472,-4 4.5,-4c2.48528,0 4.5,1.79086 4.5,4c0,2.20914 -2.01472,4 -4.5,4z" fill="url(#color-61)" stroke="none" stroke-width="0" stroke-linecap="butt"/><path d="M264.24367,329.42268c-3.31371,0 -6,-2.91015 -6,-6.5c0,-3.58985 2.68629,-6.5 6,-6.5c3.31371,0 6,2.91015 6,6.5c0,3.58985 -2.68629,6.5 -6,6.5z" fill="url(#color-62)" stroke="none" stroke-width="0" stroke-linecap="butt"/><path d="M255.74367,307.42268c-2.48528,0 -4.5,-1.567 -4.5,-3.5c0,-1.933 2.01472,-3.5 4.5,-3.5c2.48528,0 4.5,1.567 4.5,3.5c0,1.933 -2.01472,3.5 -4.5,3.5z" fill="url(#color-63)" stroke="none" stroke-width="0" stroke-linecap="butt"/><path d="M251.74367,313.42268c-1.38071,0 -2.5,-1.567 -2.5,-3.5c0,-1.933 1.11929,-3.5 2.5,-3.5c1.38071,0 2.5,1.567 2.5,3.5c0,1.933 -1.11929,3.5 -2.5,3.5z" fill="url(#color-64)" stroke="none" stroke-width="0" stroke-linecap="butt"/><path d="M181.24367,86.42268c-2.20914,0 -4,-1.11929 -4,-2.5c0,-1.38071 1.79086,-2.5 4,-2.5c2.20914,0 4,1.11929 4,2.5c0,1.38071 -1.79086,2.5 -4,2.5z" fill="url(#color-65)" stroke="none" stroke-width="0" stroke-linecap="butt"/><path d="M270.74367,105.42268c-1.38071,0 -2.5,-0.89543 -2.5,-2c0,-1.10457 1.11929,-2 2.5,-2c1.38071,0 2.5,0.89543 2.5,2c0,1.10457 -1.11929,2 -2.5,2z" fill="url(#color-66)" stroke="none" stroke-width="0" stroke-linecap="butt"/><path d="M277.24367,112.42268c-2.20914,0 -4,-1.567 -4,-3.5c0,-1.933 1.79086,-3.5 4,-3.5c2.20914,0 4,1.567 4,3.5c0,1.933 -1.79086,3.5 -4,3.5z" fill="url(#color-67)" stroke="none" stroke-width="0" stroke-linecap="butt"/><path d="M173.49367,335.42266c0,-0.4142 0.3358,-0.75 0.75,-0.75c0.4142,0 0.75,0.3358 0.75,0.75c0,0.4142 -0.3358,0.75 -0.75,0.75c-0.4142,0 -0.75,-0.3358 -0.75,-0.75z" fill="#696969" stroke="none" stroke-width="0.5" stroke-linecap="butt"/><path d="M194.49367,313.42266c0,-0.4142 0.3358,-0.75 0.75,-0.75c0.4142,0 0.75,0.3358 0.75,0.75c0,0.4142 -0.3358,0.75 -0.75,0.75c-0.4142,0 -0.75,-0.3358 -0.75,-0.75z" fill="#696969" stroke="none" stroke-width="0.5" stroke-linecap="butt"/><path d="M230.49367,307.42266c0,-0.4142 0.3358,-0.75 0.75,-0.75c0.4142,0 0.75,0.3358 0.75,0.75c0,0.4142 -0.3358,0.75 -0.75,0.75c-0.4142,0 -0.75,-0.3358 -0.75,-0.75z" fill="#696969" stroke="none" stroke-width="0.5" stroke-linecap="butt"/><path d="M209.49367,331.42266c0,-0.4142 0.3358,-0.75 0.75,-0.75c0.4142,0 0.75,0.3358 0.75,0.75c0,0.4142 -0.3358,0.75 -0.75,0.75c-0.4142,0 -0.75,-0.3358 -0.75,-0.75z" fill="#696969" stroke="none" stroke-width="0.5" stroke-linecap="butt"/><path d="M206.49367,363.42266c0,-0.4142 0.3358,-0.75 0.75,-0.75c0.4142,0 0.75,0.3358 0.75,0.75c0,0.4142 -0.3358,0.75 -0.75,0.75c-0.4142,0 -0.75,-0.3358 -0.75,-0.75z" fill="#696969" stroke="none" stroke-width="0.5" stroke-linecap="butt"/><path d="M186.86277,341.84606c-0.4234,0.6191 -1.0425,0.1957 -1.0425,0.1957l-0.6532,-0.4468c-0.8441,-0.5838 -1.7869,-1.0296 -2.7497,-1.3851c-1.3107,-3.2833 1.0695,-7.9814 -0.0785,-11.9292c-1.1782,-4.0518 -3.9671,-4.5184 -6.9305,-6.5981c-0.2964,-0.2079 -0.5664,-0.4203 -0.8241,-0.6327c0.6191,1.1184 1.0072,2.2143 0.3339,3.7019l-1.1413,1.1983c0,0 -0.5274,0.5332 -1.0606,0.0058c-0.5332,-0.5274 -0.0058,-1.0606 -0.0058,-1.0606l0.8843,-0.8496c0.8428,-1.2198 -0.7808,-3.1934 -1.6626,-4.9403c-0.0079,-0.004 -0.0159,-0.0079 -0.0239,-0.0119c0,0 -0.6203,-0.3101 -0.3697,-0.9305c-0.0209,-0.0688 -0.0395,-0.1369 -0.0555,-0.2042c-0.5574,-2.3523 -0.7081,-4.6948 -1.2625,-7.184c-0.2297,-1.0311 -1.4407,-1.8193 -1.3421,-2.8711c0.288,-3.0707 5.3277,-3.231 7.3652,-3.231c0,0 0.75,0 0.75,0.75c0,0.75 -0.75,0.75 -0.75,0.75c-0.8814,0 -5.966,0.0259 -5.8668,1.8017c0.0518,0.9292 1.0963,1.5609 1.3062,2.4676c0.3041,1.3132 -0.2066,3.1824 0.2525,4.4007c0.3468,0.9205 0.7857,1.8154 1.0079,2.7736c0.031,0.1336 0.0661,0.264 0.1048,0.3916c1.2183,0.7155 2.0453,1.6051 3.2269,2.4505c0.7757,0.555 1.7882,0.6735 2.6425,1.0977c2.2222,1.1037 4.1841,3.9491 4.8623,6.3082c0.6029,2.0973 0.8407,7.3584 0.176,9.4372c-0.191,0.5974 -0.7788,1.2382 -0.5184,1.8088c0.9192,0.2554 1.7863,0.7117 2.5762,1.2466l0.6533,0.4467c0,0 0.6191,0.4234 0.1957,1.0425z" fill="#696969" stroke="none" stroke-width="0.5" stroke-linecap="butt"/><path d="M196.99277,337.45926c-0.0366,0.7491 -0.7857,0.7125 -0.7857,0.7125l-0.2736,-0.0133c-0.5665,-0.0279 -2.8074,-0.0947 -3.272,-0.3113c-2.7661,-1.2893 -3.992,-3.7604 -7.4178,-3.6745c0,0 -0.75,0 -0.75,-0.75c0,-0.75 0.75,-0.75 0.75,-0.75c4.3212,0.081 6.6531,3.7876 10.763,3.9875l0.2736,0.0134c0,0 0.7491,0.0367 0.7125,0.7858z" fill="#696969" stroke="none" stroke-width="0.5" stroke-linecap="butt"/><path d="M384.49367,149.42266c0,-0.4142 0.3358,-0.75 0.75,-0.75c0.4142,0 0.75,0.3358 0.75,0.75c0,0.4142 -0.3358,0.75 -0.75,0.75c-0.4142,0 -0.75,-0.3358 -0.75,-0.75z" fill="#696969" stroke="none" stroke-width="0.5" stroke-linecap="butt"/><path d="M401.49367,134.42266c0,-0.4142 0.3358,-0.75 0.75,-0.75c0.4142,0 0.75,0.3358 0.75,0.75c0,0.4142 -0.3358,0.75 -0.75,0.75c-0.4142,0 -0.75,-0.3358 -0.75,-0.75z" fill="#696969" stroke="none" stroke-width="0.5" stroke-linecap="butt"/><path d="M384.49367,140.42266c0,-0.4142 0.3358,-0.75 0.75,-0.75c0.4142,0 0.75,0.3358 0.75,0.75c0,0.4142 -0.3358,0.75 -0.75,0.75c-0.4142,0 -0.75,-0.3358 -0.75,-0.75z" fill="#696969" stroke="none" stroke-width="0.5" stroke-linecap="butt"/><path d="M391.49367,121.42266c0,-0.4142 0.3358,-0.75 0.75,-0.75c0.4142,0 0.75,0.3358 0.75,0.75c0,0.4142 -0.3358,0.75 -0.75,0.75c-0.4142,0 -0.75,-0.3358 -0.75,-0.75z" fill="#696969" stroke="none" stroke-width="0.5" stroke-linecap="butt"/><path d="M374.49367,139.42266c0,-0.4142 0.3358,-0.75 0.75,-0.75c0.4142,0 0.75,0.3358 0.75,0.75c0,0.4142 -0.3358,0.75 -0.75,0.75c-0.4142,0 -0.75,-0.3358 -0.75,-0.75z" fill="#696969" stroke="none" stroke-width="0.5" stroke-linecap="butt"/><path d="M428.49367,170.42266c0,-0.4142 0.3358,-0.75 0.75,-0.75c0.4142,0 0.75,0.3358 0.75,0.75c0,0.4142 -0.3358,0.75 -0.75,0.75c-0.4142,0 -0.75,-0.3358 -0.75,-0.75z" fill="#696969" stroke="none" stroke-width="0.5" stroke-linecap="butt"/><path d="M412.57907,163.09346c-0.6708,0.3354 -1.0062,-0.3354 -1.0062,-0.3354c-0.2236,-0.4472 -0.7764,-1.5528 -1,-2c0,0 -0.3354,-0.6708 0.3354,-1.0062c0.6708,-0.3354 1.0062,0.3354 1.0062,0.3354c0.2236,0.4472 0.4472,0.8944 0.6708,1.3416l0.3292,0.6584c0,0 0.3354,0.6708 -0.3354,1.0062z" fill="#696969" stroke="none" stroke-width="0.5" stroke-linecap="butt"/><path d="M431.91577,207.75556c-0.3329,0.6721 -1.005,0.3392 -1.005,0.3392l-1.6671,-0.995c-0.2236,-0.4472 -0.4472,-0.8945 -0.6708,-1.3417c0,0 -0.2413,-0.4826 0.0948,-0.8338c-0.174,-0.2184 -0.174,-0.5016 -0.174,-0.5016c0,-1.8686 -0.4199,-4.3628 0.0201,-6.1723c0.0496,-0.2041 0.5319,-0.8821 1.0161,-1.5904c-0.227,-0.6054 0.3784,-0.9081 0.3784,-0.9081c0.106,-0.0526 0.2109,-0.1038 0.3147,-0.1538c0.2401,-0.4019 0.3874,-0.7203 0.3251,-0.8346c-0.4087,-0.7495 -1.6048,-0.6017 -2.3496,-1.0189c-1.2397,-0.6942 -2.4338,-1.7652 -3.7388,-2.3208c-0.5663,-0.2411 -1.3914,-0.0352 -1.772,-0.5189c-0.6072,-0.7715 -0.194,-3.9753 -0.194,-4.9776l1.4121,-1.1742c0,0 0.6696,-0.3378 1.0075,0.3317c0.3378,0.6696 -0.3317,1.0075 -0.3317,1.0075l-0.5879,-0.165c0,0.4475 -0.367,3.7846 -0.1496,4.0222c0.2632,0.288 0.8008,-0.0531 1.1677,0.0796c0.1682,0.0609 0.3378,0.13 0.5083,0.206c0.0239,-0.0901 0.0528,-0.1478 0.0528,-0.1478c0.6746,-1.3403 2.0118,-2.3503 2.6294,-3.5999c0.7705,-1.5588 0.1534,-2.6909 1.2886,-4.3052l0.1467,-0.2012c0,0 0.4417,-0.6061 1.0478,-0.1644c0.6061,0.4417 0.1644,1.0479 0.1644,1.0479l-0.1467,0.2012c-1.1478,1.5032 -0.3654,2.4359 -1.1514,4.0767c-0.6126,1.279 -1.9678,2.267 -2.6372,3.6157c0,0 -0.0354,0.0708 -0.1062,0.155c1.1827,0.7001 2.3671,1.5698 3.4378,2.1863c0.5718,0.3292 1.4257,0.4455 1.6736,1.0569c0.0771,0.1902 0.1221,0.3718 0.1402,0.5463c1.2162,-0.6656 2.0738,-1.4596 2.2849,-3.1875l0.1552,-1.1894c0,0 0.097,-0.7437 0.8407,-0.6467c0.7437,0.097 0.6467,0.8407 0.6467,0.8407l-0.1552,1.1895c-0.423,3.0759 -2.2539,3.9012 -4.741,5.1294c-0.4747,0.5663 -0.9733,1.1199 -1.1176,1.7564c-0.3889,1.7161 0.0201,4.059 0.0201,5.8277c0,0 0,0.2928 -0.183,0.5125c0.0692,0.0829 0.1038,0.1521 0.1038,0.1521c0.2236,0.4472 0.4472,0.8944 0.6708,1.3416l0.9913,0.3217c0,0 0.6721,0.3329 0.3392,1.005z" fill="#696969" stroke="none" stroke-width="0.5" stroke-linecap="butt"/><path d="M246.95407,102.66306c-0.2403,0.7104 -0.9507,0.4701 -0.9507,0.4701l-0.1777,-0.0601c-2.0235,-0.6846 -3.532,-1.6034 -5.3516,-2.2733c-1.1115,-0.4092 -2.5675,-2.3723 -3.5384,-2.5918c-0.4603,-0.104 -0.8971,0.0934 -1.3321,0.3407c-0.1557,0.3659 -0.341,0.7005 -0.5524,0.9894c-0.367,0.5015 -1.6771,1.8042 -2.1218,2.2568l-0.1507,0.1535c0,0 -0.5257,0.5349 -1.0607,0.0093c-0.5349,-0.5257 -0.0093,-1.0606 -0.0093,-1.0606l0.1508,-0.1535c0.5797,-0.5898 1.1949,-1.2528 1.7151,-1.9766c-0.0154,-0.0331 -0.0296,-0.0687 -0.0424,-0.1071c-0.2372,-0.7115 0.4743,-0.9487 0.4743,-0.9487c0.053,-0.0176 0.1464,-0.0493 0.269,-0.0908c0.6029,-1.2088 0.8206,-2.5481 0.1715,-3.9725c-0.6547,-1.4364 -5.0488,-1.9643 -6.4025,-2.3493c-3.3108,-0.9416 -5.5502,-2.6479 -7.4248,-5.4598c0,0 -0.4161,-0.6241 0.208,-1.0401c0.624,-0.416 1.04,0.208 1.04,0.208c1.413,2.1195 2.8054,3.4486 5.2287,4.4716c2.2531,0.9511 5.146,0.9161 7.2564,2.2055c1.6238,0.9921 2.0549,3.3236 1.6922,5.3574c0.5855,-0.1816 1.0927,-0.3224 1.1988,-0.3012c1.1717,0.235 2.5076,2.2061 3.7432,2.6502c1.893,0.6804 3.2849,1.5737 5.3194,2.262l0.1777,0.0601c0,0 0.7104,0.2403 0.4701,0.9508z" fill="#696969" stroke="none" stroke-width="0.5" stroke-linecap="butt"/><path d="M194.49367,86.42266c0,-0.4142 0.3358,-0.75 0.75,-0.75c0.4142,0 0.75,0.3358 0.75,0.75c0,0.4142 -0.3358,0.75 -0.75,0.75c-0.4142,0 -0.75,-0.3358 -0.75,-0.75z" fill="#696969" stroke="none" stroke-width="0.5" stroke-linecap="butt"/><path d="M209.49367,101.42266c0,-0.4142 0.3358,-0.75 0.75,-0.75c0.4142,0 0.75,0.3358 0.75,0.75c0,0.4142 -0.3358,0.75 -0.75,0.75c-0.4142,0 -0.75,-0.3358 -0.75,-0.75z" fill="#696969" stroke="none" stroke-width="0.5" stroke-linecap="butt"/><path d="M218.49367,98.42266c0,-0.4142 0.3358,-0.75 0.75,-0.75c0.4142,0 0.75,0.3358 0.75,0.75c0,0.4142 -0.3358,0.75 -0.75,0.75c-0.4142,0 -0.75,-0.3358 -0.75,-0.75z" fill="#696969" stroke="none" stroke-width="0.5" stroke-linecap="butt"/><path d="M242.49367,112.42266c0,-0.4142 0.3358,-0.75 0.75,-0.75c0.4142,0 0.75,0.3358 0.75,0.75c0,0.4142 -0.3358,0.75 -0.75,0.75c-0.4142,0 -0.75,-0.3358 -0.75,-0.75z" fill="#696969" stroke="none" stroke-width="0.5" stroke-linecap="butt"/><path d="M206.16577,87.67676c0.746,-0.0779 0.8238,0.668 0.8238,0.668l0.0418,0.4002c0.0999,0.9647 0.2559,1.9253 0.4664,2.8721c0.597,2.6952 1.6705,5.5618 3.7419,7.5379c3.9174,3.7372 10.46,3.8415 9.7126,10.5345c-0.1848,1.6554 -0.3202,1.6182 -1.0378,3.0686c0,0 -0.3354,0.6708 -1.0062,0.3354c-0.6708,-0.3354 -0.3354,-1.0062 -0.3354,-1.0062c0.7052,-1.3937 1.868,-4.9529 0.4988,-6.3295c-2.3015,-2.3136 -6.4494,-3.2384 -8.8638,-5.5141c-2.29,-2.1585 -3.5182,-5.3385 -4.1746,-8.3023c-0.2212,-1.0027 -0.3863,-2.0195 -0.4938,-3.0407l-0.0417,-0.4001c0,0 -0.0779,-0.746 0.668,-0.8238z" fill="#696969" stroke="none" stroke-width="0.5" stroke-linecap="butt"/><path d="M222.99357,94.43666c-0.014,0.7499 -0.7639,0.7359 -0.7639,0.7359l-1.4938,-0.1971c-0.6856,-0.5819 -1.156,-1.528 -2.0151,-1.7938c-1.9453,-0.6019 -1.9078,1.2526 -2.7814,1.8961c-0.832,0.6128 -3.6458,1.0753 -4.6957,1.0949c0,0 -0.75,0 -0.75,-0.75c0,-0.75 0.75,-0.75 0.75,-0.75c0.7669,0.0193 3.2769,-0.3912 3.7922,-0.7923c0.3769,-0.2933 0.0974,-1.0446 0.458,-1.3578c0.4482,-0.3893 3.0724,-0.9463 3.6528,-0.7792c0.1909,0.055 2.3024,1.87 2.5597,2.0884l0.5513,-0.159c0,0 0.7499,0.0141 0.7359,0.7639z" fill="#696969" stroke="none" stroke-width="0.5" stroke-linecap="butt"/><path d="M223.49367,320.42266c0,-0.4142 0.3358,-0.75 0.75,-0.75c0.4142,0 0.75,0.3358 0.75,0.75c0,0.4142 -0.3358,0.75 -0.75,0.75c-0.4142,0 -0.75,-0.3358 -0.75,-0.75z" fill="#696969" stroke="none" stroke-width="0.5" stroke-linecap="butt"/><path d="M236.49367,350.42266c0,-0.4142 0.3358,-0.75 0.75,-0.75c0.4142,0 0.75,0.3358 0.75,0.75c0,0.4142 -0.3358,0.75 -0.75,0.75c-0.4142,0 -0.75,-0.3358 -0.75,-0.75z" fill="#696969" stroke="none" stroke-width="0.5" stroke-linecap="butt"/><path d="M232.49367,262.42266c0,-0.4142 0.3358,-0.75 0.75,-0.75c0.4142,0 0.75,0.3358 0.75,0.75c0,0.4142 -0.3358,0.75 -0.75,0.75c-0.4142,0 -0.75,-0.3358 -0.75,-0.75z" fill="#696969" stroke="none" stroke-width="0.5" stroke-linecap="butt"/><path d="M187.49367,256.42266c0,-0.4142 0.3358,-0.75 0.75,-0.75c0.4142,0 0.75,0.3358 0.75,0.75c0,0.4142 -0.3358,0.75 -0.75,0.75c-0.4142,0 -0.75,-0.3358 -0.75,-0.75z" fill="#696969" stroke="none" stroke-width="0.5" stroke-linecap="butt"/><path d="M115.99367,310.41736c0.0053,0.75 -0.7447,0.7553 -0.7447,0.7553l-0.8241,0.0058c-1.1261,0.0079 -3.1437,-0.2702 -4.1994,0.1947c-2.7566,1.2138 -6.5658,5.3208 -7.2534,8.3718c-0.2706,1.201 -0.3353,2.3319 -0.4875,3.4857c0.7439,1.8403 -0.3574,4.7528 2.4767,4.4011c0.7448,-0.0924 4.7193,-0.771 5.1384,-1.3615c1.0983,-1.5473 -0.619,-3.0311 1.6452,-4.3284c0.519,-0.2973 1.1879,-0.1407 1.7818,-0.2111l1.3337,1.2651c0,0 0.4268,0.6168 -0.1899,1.0435c-0.6167,0.4268 -1.0435,-0.1899 -1.0435,-0.1899l0.0265,-0.624c-2.9832,0.1051 -0.9383,2.151 -2.3598,3.9527c-0.771,0.9774 -4.9244,1.8437 -6.1845,1.9463c-0.6087,0.0495 -1.2288,-0.1325 -1.7974,-0.3553c-1.8645,-0.7308 -1.7836,-1.6854 -1.667,-2.6974c-0.1478,0.1011 -0.3556,0.1566 -0.6383,0.0624c-0.7115,-0.2372 -0.4743,-0.9487 -0.4743,-0.9487c0.1888,-0.5665 0.3122,-1.1098 0.4019,-1.6419c-0.7392,-0.6389 -1.9145,-0.6519 -2.6283,-1.3239c-0.3512,-0.3306 -0.3276,-0.9557 -0.6935,-1.2699c-0.6905,-0.593 -1.7423,-0.5278 -2.6058,-0.8156c0,0 -0.7115,-0.2372 -0.4743,-0.9487c0.2372,-0.7115 0.9487,-0.4743 0.9487,-0.4743c2.0555,0.6852 2.4453,1.0342 3.8637,2.4265c0.4666,0.458 1.165,0.5962 1.7891,0.8355c0.0869,-0.8359 0.1689,-1.6741 0.3766,-2.5641c0.81,-3.4716 4.9178,-8.0786 8.1261,-9.4155c1.2939,-0.5391 3.399,-0.3051 4.7778,-0.315l0.8242,-0.0059c0,0 0.75,-0.0053 0.7553,0.7447z" fill="#606060" stroke="none" stroke-width="0.5" stroke-linecap="butt"/><path d="M257.50817,158.56916c-0.1465,-0.7355 0.589,-0.882 0.589,-0.882l0.3872,-0.0772c0.873,-0.1738 1.8653,0.0045 2.633,-0.446c0.8958,-0.5258 0.0255,-1.3054 -0.2158,-1.7577c-0.9276,-1.7379 -1.4257,-2.6307 -1.1897,-4.6142c0.4069,-2.8659 1.6719,-7.004 0.1289,-9.8583c-0.4372,-0.8089 -1.8294,-1.5162 -2.0495,-2.4273c-0.0762,-0.3154 0.7844,-3.5046 1.0046,-3.676c0.3347,-0.2607 2.8472,-0.1138 3.4019,-0.1575c2.0723,-0.1634 5.0924,-0.2725 6.5156,-1.7806c0,0 0.5303,-0.5303 1.0606,0c0.5304,0.5303 0,1.0607 0,1.0607c-1.8591,1.7819 -4.8888,2.0127 -7.4583,2.2153c-0.8649,0.0681 -1.9137,-0.6875 -2.5982,-0.1545c-1.7564,1.3679 1.6517,4.5059 1.9033,5.8935c0.5912,3.2597 -0.004,5.9595 -0.423,9.09c-0.4075,2.4837 3.3155,5.2087 0.8311,7.3578c-0.1497,0.1295 -2.9141,0.6588 -3.2515,0.726l-0.3872,0.0771c0,0 -0.7355,0.1465 -0.8821,-0.5891z" fill="#606060" stroke="none" stroke-width="0.5" stroke-linecap="butt"/><path d="M279.97947,163.56806c-0.1454,0.7358 -0.8812,0.5904 -0.8812,0.5904l-0.3426,-0.0677c-0.9539,-0.1913 -1.8167,-0.7563 -2.7809,-0.8854c-0.9688,-0.1298 -1.7173,0.7532 -2.5588,0.9472c-0.0931,0.0215 -2.0422,0.0212 -2.8443,0.0205c-0.1004,0.5322 -0.1951,1.0644 -0.2455,1.6084c-0.1459,1.5751 2.8273,2.8206 3.752,3.5521l0.6319,0.5018c0,0 0.5873,0.4664 0.1209,1.0537c-0.4664,0.5873 -1.0537,0.1209 -1.0537,0.1209l-0.6319,-0.5018c-1.5822,-1.2617 -4.3326,-2.2874 -4.3179,-4.7874c0.0031,-0.5428 0.5629,-0.9486 0.6841,-1.4776c0.0299,-0.1304 0.0524,-0.2779 0.0685,-0.4382c-0.0528,-0.0986 -0.0864,-0.2237 -0.0864,-0.3823c0,-0.1892 0.0477,-0.3306 0.1191,-0.4364c-0.0069,-1.0189 -0.1555,-2.2154 -0.2983,-2.9169c-0.3709,-1.8226 -2.2052,-3.245 -3.0205,-4.909c-0.2064,-0.4213 -0.7258,-1.8105 -1.3373,-2.0448c-0.8447,-0.3235 -1.8085,0.0571 -2.713,0.0571c0,0 -0.75,0 -0.75,-0.75c0,-0.75 0.75,-0.75 0.75,-0.75c0.3189,0 3.1185,-0.016 3.287,0.0571c1.6481,0.7142 1.8858,2.7162 2.7311,4.0419c0.9123,1.4309 2.1254,2.2149 2.5194,3.9835c0.2342,1.0511 0.1866,2.0124 0.0519,2.9425c0.753,0.0555 1.5123,0.1712 2.2383,-0.0049c1.0429,-0.253 1.9985,-1.0774 3.0671,-0.9785c1.0109,0.0936 1.9114,0.7113 2.9079,0.9049l0.3427,0.0677c0,0 0.7358,0.1454 0.5904,0.8812z" fill="#606060" stroke="none" stroke-width="0.5" stroke-linecap="butt"/><path d="M284.49367,67.42266c0,-0.4142 0.3358,-0.75 0.75,-0.75c0.4142,0 0.75,0.3358 0.75,0.75c0,0.4142 -0.3358,0.75 -0.75,0.75c-0.4142,0 -0.75,-0.3358 -0.75,-0.75z" fill="#606060" stroke="none" stroke-width="0.5" stroke-linecap="butt"/><path d="M287.49367,86.42266c0,-0.4142 0.3358,-0.75 0.75,-0.75c0.4142,0 0.75,0.3358 0.75,0.75c0,0.4142 -0.3358,0.75 -0.75,0.75c-0.4142,0 -0.75,-0.3358 -0.75,-0.75z" fill="#606060" stroke="none" stroke-width="0.5" stroke-linecap="butt"/><path d="M310.49367,66.42266c0,-0.4142 0.3358,-0.75 0.75,-0.75c0.4142,0 0.75,0.3358 0.75,0.75c0,0.4142 -0.3358,0.75 -0.75,0.75c-0.4142,0 -0.75,-0.3358 -0.75,-0.75z" fill="#606060" stroke="none" stroke-width="0.5" stroke-linecap="butt"/><path d="M166.56407,62.10076c-0.6781,0.3205 -0.9985,-0.3576 -0.9985,-0.3576l-0.2421,-0.5124c-0.6624,-1.4331 -3.6763,-5.6386 -5.724,-3.8979c-0.7332,0.6232 -1.2719,2.9662 -2.1205,3.8082c-0.7501,0.7442 -2.0188,0.6329 -2.9971,1.0322c-0.8945,0.3651 -1.1104,1.6534 -1.9333,2.1597c-0.3575,0.2199 -0.7539,0.3849 -1.175,0.5081c1.5094,2.1102 1.507,4.8129 3.2927,6.9171l-0.8123,2.1005c0,0 -0.436,0.6103 -1.0462,0.1743c-0.6103,-0.436 -0.1744,-1.0462 -0.1744,-1.0462l0.8802,-0.2688c-1.8044,-2.2017 -1.6402,-5.7605 -3.6968,-7.5919c-0.0125,0.0005 -0.025,0.001 -0.0376,0.0015c-0.3457,0.032 -0.6956,0.0495 -1.0436,0.0581c-2.9747,0.2001 -7.0367,0.6668 -9.4451,-0.5884c-0.9757,-0.5086 -1.4296,-1.3575 -2.3591,-1.9065c-2.0921,-1.2357 -5.6295,-1.769 -6.3753,-4.5979c-0.6188,-2.3471 1.0874,-4.133 2.0168,-6.0056c0,0 0.3354,-0.6708 1.0062,-0.3354c0.6708,0.3354 0.3354,1.0062 0.3354,1.0062c-0.7679,1.5258 -2.3316,3.0672 -1.9027,4.973c0.4825,2.1436 4.1542,2.7655 5.6824,3.6681c0.8515,0.503 1.4322,1.4001 2.3004,1.8736c1.3868,0.7563 3.5256,0.793 5.6383,0.6854c0.2169,-0.2855 0.6108,-0.2855 0.6108,-0.2855c1.6018,0 4.0731,0.2829 5.516,-0.6155c0.8767,-0.5458 1.1829,-1.8267 2.1211,-2.2582c0.7906,-0.3636 1.9351,-0.0485 2.5159,-0.6965c0.7719,-0.8613 1.4931,-3.35 2.2693,-3.9437c3.1654,-2.4213 6.8444,2.0014 8.0137,4.4312l0.2421,0.5123c0,0 0.3204,0.6781 -0.3577,0.9985z" fill="#606060" stroke="none" stroke-width="0.5" stroke-linecap="butt"/><path d="M162.48187,72.13386c-0.7112,0.2382 -0.9494,-0.473 -0.9494,-0.473l0.0971,-0.6523c-1.0205,-0.347 -2.4798,-0.6468 -3.0567,-1.7505c-0.8713,-1.6667 -0.0792,-5.9331 -0.0792,-7.8354c0,0 0,-0.75 0.75,-0.75c0.75,0 0.75,0.75 0.75,0.75c0,1.723 -0.7716,5.6588 -0.0792,7.1646c0.2222,0.4833 1.9172,0.9096 2.1894,0.9982l0.851,1.599c0,0 0.2381,0.7112 -0.473,0.9494z" fill="#606060" stroke="none" stroke-width="0.5" stroke-linecap="butt"/><path d="M182.49367,130.42266c0,-0.4142 0.3358,-0.75 0.75,-0.75c0.4142,0 0.75,0.3358 0.75,0.75c0,0.4142 -0.3358,0.75 -0.75,0.75c-0.4142,0 -0.75,-0.3358 -0.75,-0.75z" fill="#606060" stroke="none" stroke-width="0.5" stroke-linecap="butt"/><path d="M197.49367,118.42266c0,-0.4142 0.3358,-0.75 0.75,-0.75c0.4142,0 0.75,0.3358 0.75,0.75c0,0.4142 -0.3358,0.75 -0.75,0.75c-0.4142,0 -0.75,-0.3358 -0.75,-0.75z" fill="#606060" stroke="none" stroke-width="0.5" stroke-linecap="butt"/><path d="M164.49367,112.42266c0,-0.4142 0.3358,-0.75 0.75,-0.75c0.4142,0 0.75,0.3358 0.75,0.75c0,0.4142 -0.3358,0.75 -0.75,0.75c-0.4142,0 -0.75,-0.3358 -0.75,-0.75z" fill="#606060" stroke="none" stroke-width="0.5" stroke-linecap="butt"/><path d="M150.49567,88.71626c0.7064,0.252 0.4544,0.9584 0.4544,0.9584l-0.8719,1.5957c-1.482,0.4899 -2.3702,1.2357 -3.6158,2.1661c-0.4023,0.3006 -0.7632,0.6667 -1.2071,0.9017c-0.2766,0.1465 -1.0211,-0.0728 -0.9128,0.2209c0.1244,0.3372 0.7725,-0.0277 1.0624,0.1848c0.9169,0.6719 2.2933,3.1484 2.557,4.2387c0.8552,3.5367 -0.7219,9.443 -3.1879,11.9704c0,0 -0.5303,0.5304 -1.0606,0c-0.5304,-0.5303 0,-1.0606 0,-1.0606c2.134,-2.0687 3.5078,-7.5908 2.7905,-10.5572c-0.238,-0.9839 -1.3399,-2.7458 -2.0725,-3.4502c-0.4815,-0.4629 -1.5702,-0.5576 -1.5855,-1.2253c-0.0164,-0.7196 0.9853,-1.0521 1.5225,-1.5312c1.5376,-1.3713 3.2956,-2.613 5.2294,-3.2791l-0.0605,-0.6787c0,0 0.252,-0.7064 0.9584,-0.4544z" fill="#606060" stroke="none" stroke-width="0.5" stroke-linecap="butt"/><path d="M171.56267,103.74386c0.6788,0.319 0.3598,0.9978 0.3598,0.9978l-0.9543,1.6717c-3.4946,1.8289 -6.1093,2.9377 -10.0481,3.3784c-1.1334,0.1268 -2.3937,0.4446 -3.4622,-0.2859c-0.8602,-0.5882 -0.6681,-2.0344 -1.357,-2.8162c-0.2808,-0.3187 -0.8403,-0.1911 -1.2098,-0.4006c-1.7442,-0.989 -3.1432,-2.2758 -4.9828,-3.1956c0,0 -0.6708,-0.3354 -0.3354,-1.0062c0.3354,-0.6708 1.0062,-0.3354 1.0062,-0.3354c1.8741,0.937 3.3069,2.1958 5.0655,3.2402c0.4956,0.2943 1.197,0.2724 1.5797,0.7035c0.6845,0.7713 0.1482,1.9351 1.0801,2.5719c0.9056,0.6188 2.9799,-0.0277 3.9339,-0.1378c3.1204,-0.3599 5.2592,-1.5929 8.0344,-3.0453l0.2922,-0.9807c0,0 0.319,-0.6788 0.9978,-0.3598z" fill="#606060" stroke="none" stroke-width="0.5" stroke-linecap="butt"/><path d="M305.40917,213.69116c0.7315,0.1655 0.566,0.897 0.566,0.897l-0.4551,1.7187c-2.0915,2.8062 -4.2906,5.2858 -5.6342,8.5559c-0.324,0.7884 -1.1076,1.5601 -0.9105,2.3894c0.2054,0.8644 1.3665,1.1482 1.9439,1.8235c1.6232,1.8985 3.0287,4.0343 4.5399,6.0242c1.067,1.405 3.3281,3.4764 3.5142,5.3105c0.1802,1.7767 -1.2966,3.0422 -2.0955,4.4176c-1.7422,2.9994 -3.1321,6.2541 -4.7365,9.3323c-0.0357,0.0685 -0.1371,0.2651 -0.2724,0.5255c0.6673,0.0561 1.3177,0.2374 1.9554,0.7667c1.7428,1.447 1.9281,4.0424 2.0982,6.0835l0.0685,0.8246c0,0 0.0622,0.7474 -0.6853,0.8095c-0.7474,0.0622 -0.8095,-0.6853 -0.8095,-0.6853l-0.0685,-0.8246c-0.1376,-1.6602 -0.1947,-3.8406 -1.5764,-5.066c-0.4559,-0.4044 -1.0684,-0.5102 -1.7127,-0.5216c-0.2716,0.5055 -0.506,0.9241 -0.5623,0.9721c-0.1422,0.1213 -2.7921,0.9884 -3.0955,1.0895c0,0 -0.7115,0.2372 -0.9487,-0.4743c-0.2372,-0.7115 0.4743,-0.9487 0.4743,-0.9487c0.7361,-0.2453 1.6091,-0.2317 2.2778,-0.5914c-0.1538,-0.0053 -0.3015,-0.0178 -0.4409,-0.0409c-1.4573,-0.2421 -2.9856,-0.8948 -4.4016,-1.3222c-3.2918,-1.0236 -5.6978,-3.9455 -9.238,-4.6412c-0.9101,-0.1788 -2.8655,0.2326 -3.453,-0.8741c-0.5118,-0.964 0.8337,-2.7354 1.2915,-3.4515c1.9934,-3.1179 3.0131,-6.2395 5.6711,-8.8975c0,0 0.5303,-0.5303 1.0607,0c0.5303,0.5303 0,1.0606 0,1.0606c-2.2514,2.2514 -3.0935,4.6076 -4.6369,7.3477c-0.1511,0.2682 -2.2178,2.9514 -2.0634,3.2339c0.1444,0.2641 0.6016,0.0205 0.9023,0.0341c1.6311,0.074 2.9841,0.4946 4.4907,1.1385c2.2888,0.9782 4.0574,2.9295 6.4085,3.6135c1.3547,0.4089 2.8198,1.0459 4.2144,1.2785c0.4249,0.0709 0.8419,0.0815 1.252,0.0777c0.1485,-0.4085 0.2744,-0.8353 0.4696,-1.2098c1.3851,-2.6575 2.7283,-5.3347 4.0746,-8.012c0.6154,-1.2238 2.7704,-3.4513 2.5964,-4.882c-0.1803,-1.4813 -2.3499,-3.4234 -3.2176,-4.566c-1.4937,-1.9669 -2.8817,-4.08 -4.4856,-5.9567c-0.2921,-0.3419 -2.1989,-2.1785 -2.2636,-2.4537c-0.0499,-0.2126 0.844,-2.9657 0.983,-3.304c1.3931,-3.3906 3.6528,-5.9759 5.8189,-8.8822l0.1948,-1.1533c0,0 0.1656,-0.7315 0.8971,-0.566z" fill="#606060" stroke="none" stroke-width="0.5" stroke-linecap="butt"/><path d="M314.65527,224.79566c0.627,0.4116 0.2154,1.0386 0.2154,1.0386l-0.3046,0.464c-2.7751,4.1361 -6.8603,3.8744 -11.3224,3.8744c0,0 -0.75,0 -0.75,-0.75c0,-0.75 0.75,-0.75 0.75,-0.75c3.8523,0 7.7125,0.4907 10.0684,-3.1975l0.3046,-0.4641c0,0 0.4116,-0.627 1.0386,-0.2154z" fill="#606060" stroke="none" stroke-width="0.5" stroke-linecap="butt"/><path d="M296.06177,262.15026c-0.7276,-0.1819 -0.5457,-0.9095 -0.5457,-0.9095l0.1362,-0.5448c0.2099,-0.6215 0.1128,-1.4607 0.6298,-1.8644c0.5171,-0.4038 1.3077,-0.106 1.9616,-0.1589c0,0 0.75,0 0.75,0.75c0,0.75 -0.75,0.75 -0.75,0.75c-0.3462,-0.0529 -0.7624,-0.3743 -1.0384,-0.1588c-0.276,0.2155 -0.0652,0.6973 -0.0978,1.0459l-0.1362,0.5448c0,0 -0.1819,0.7276 -0.9095,0.5457z" fill="#606060" stroke="none" stroke-width="0.5" stroke-linecap="butt"/><path d="M188.51767,249.23446c0.1882,-0.726 0.9142,-0.5378 0.9142,-0.5378l0.5059,0.1311c1.4361,0.3772 4.0732,1.4998 5.2388,3.1666c0.5183,-0.9617 1.1279,-1.9197 1.7132,-2.2329c0.1893,-0.1014 2.438,-0.0922 3.1701,-0.0894c-0.7147,-1.064 -1.3886,-2.2036 -1.8094,-3.1965c-1.1855,-2.7965 -0.7545,-5.9243 -1.7183,-8.8157c0,0 -0.2372,-0.7115 0.4743,-0.9487c0.7115,-0.2372 0.9487,0.4743 0.9487,0.4743c1.669,5.0071 1.285,9.1759 4.7745,13.6094c0.9236,1.1735 2.6867,3.3616 3.9859,4.0803c0.9519,0.5266 2.0472,-0.0482 2.9616,0.6919c0.6052,0.4898 1.3718,1.1925 1.2647,1.9637c-0.096,0.6912 -1.1372,0.8089 -1.7059,1.2134l-0.3155,1.0016c0,0 -0.3231,0.6769 -0.9999,0.3538c-0.6769,-0.3231 -0.3538,-1 -0.3538,-1l0.9645,-1.6796c0.3141,-0.0653 0.7792,0.0802 0.9423,-0.1961c0.1208,-0.2045 -0.3726,-0.3114 -0.5972,-0.3885c-0.8564,-0.2938 -2.0947,-0.2094 -2.8869,-0.6477c-1.459,-0.8071 -3.4038,-3.1505 -4.4385,-4.4651c-0.2136,-0.2714 -0.4382,-0.5664 -0.6669,-0.8779c-0.2083,0.328 -0.6404,0.328 -0.6404,0.328c-2.9804,0 -3.1883,0.5663 -4.5625,3.1408c-0.0164,0.0637 -0.0363,0.1259 -0.0592,0.1869l0.0364,0.0127l-0.4871,1.4002c-0.0971,0.3018 -0.3801,0.5201 -0.7141,0.5201c-0.4142,0 -0.75,-0.3358 -0.75,-0.75c0,-0.0783 0.012,-0.1539 0.0343,-0.2248l0.3793,-1.3132c-1.2607,-1.9275 -1.7337,-3.144 -4.5594,-3.8655l-0.5059,-0.1312c0,0 -0.726,-0.1882 -0.5378,-0.9142z" fill="#606060" stroke="none" stroke-width="0.5" stroke-linecap="butt"/><path d="M168.49367,249.42266c0,-0.4142 0.3358,-0.75 0.75,-0.75c0.4142,0 0.75,0.3358 0.75,0.75c0,0.4142 -0.3358,0.75 -0.75,0.75c-0.4142,0 -0.75,-0.3358 -0.75,-0.75z" fill="#606060" stroke="none" stroke-width="0.5" stroke-linecap="butt"/><path d="M204.49367,278.42266c0,-0.4142 0.3358,-0.75 0.75,-0.75c0.4142,0 0.75,0.3358 0.75,0.75c0,0.4142 -0.3358,0.75 -0.75,0.75c-0.4142,0 -0.75,-0.3358 -0.75,-0.75z" fill="#606060" stroke="none" stroke-width="0.5" stroke-linecap="butt"/><path d="M216.49367,266.42266c0,-0.4142 0.3358,-0.75 0.75,-0.75c0.4142,0 0.75,0.3358 0.75,0.75c0,0.4142 -0.3358,0.75 -0.75,0.75c-0.4142,0 -0.75,-0.3358 -0.75,-0.75z" fill="#606060" stroke="none" stroke-width="0.5" stroke-linecap="butt"/><path d="M233.49367,273.42266c0,-0.4142 0.3358,-0.75 0.75,-0.75c0.4142,0 0.75,0.3358 0.75,0.75c0,0.4142 -0.3358,0.75 -0.75,0.75c-0.4142,0 -0.75,-0.3358 -0.75,-0.75z" fill="#606060" stroke="none" stroke-width="0.5" stroke-linecap="butt"/><path d="M279.24367,260.67266c0.75,0 0.75,0.75 0.75,0.75c0,0.5 0,2.5 0,3c0,0 0,0.75 -0.75,0.75c-0.75,0 -0.75,-0.75 -0.75,-0.75c0,-0.5 0,-1 0,-1.5v-1.5c0,0 0,-0.75 0.75,-0.75z" fill="#606060" stroke="none" stroke-width="0.5" stroke-linecap="butt"/><path d="M272.49367,241.42266c0,-0.4142 0.3358,-0.75 0.75,-0.75c0.4142,0 0.75,0.3358 0.75,0.75c0,0.4142 -0.3358,0.75 -0.75,0.75c-0.4142,0 -0.75,-0.3358 -0.75,-0.75z" fill="#606060" stroke="none" stroke-width="0.5" stroke-linecap="butt"/><path d="M331.49367,182.42266c0,-0.4142 0.3358,-0.75 0.75,-0.75c0.4142,0 0.75,0.3358 0.75,0.75c0,0.4142 -0.3358,0.75 -0.75,0.75c-0.4142,0 -0.75,-0.3358 -0.75,-0.75z" fill="#606060" stroke="none" stroke-width="0.5" stroke-linecap="butt"/><path d="M300.49367,173.42266c0,-0.4142 0.3358,-0.75 0.75,-0.75c0.4142,0 0.75,0.3358 0.75,0.75c0,0.4142 -0.3358,0.75 -0.75,0.75c-0.4142,0 -0.75,-0.3358 -0.75,-0.75z" fill="#606060" stroke="none" stroke-width="0.5" stroke-linecap="butt"/><path d="M325.49367,217.42266c0,-0.4142 0.3358,-0.75 0.75,-0.75c0.4142,0 0.75,0.3358 0.75,0.75c0,0.4142 -0.3358,0.75 -0.75,0.75c-0.4142,0 -0.75,-0.3358 -0.75,-0.75z" fill="#606060" stroke="none" stroke-width="0.5" stroke-linecap="butt"/><path d="M329.49367,62.42266c0,-0.4142 0.3358,-0.75 0.75,-0.75c0.4142,0 0.75,0.3358 0.75,0.75c0,0.4142 -0.3358,0.75 -0.75,0.75c-0.4142,0 -0.75,-0.3358 -0.75,-0.75z" fill="#606060" stroke="none" stroke-width="0.5" stroke-linecap="butt"/><path d="M320.49367,64.42266c0,-0.4142 0.3358,-0.75 0.75,-0.75c0.4142,0 0.75,0.3358 0.75,0.75c0,0.4142 -0.3358,0.75 -0.75,0.75c-0.4142,0 -0.75,-0.3358 -0.75,-0.75z" fill="#606060" stroke="none" stroke-width="0.5" stroke-linecap="butt"/><path d="M350.49367,69.42266c0,-0.4142 0.3358,-0.75 0.75,-0.75c0.4142,0 0.75,0.3358 0.75,0.75c0,0.4142 -0.3358,0.75 -0.75,0.75c-0.4142,0 -0.75,-0.3358 -0.75,-0.75z" fill="#606060" stroke="none" stroke-width="0.5" stroke-linecap="butt"/><path d="M339.49367,38.42266c0,-0.4142 0.3358,-0.75 0.75,-0.75c0.4142,0 0.75,0.3358 0.75,0.75c0,0.4142 -0.3358,0.75 -0.75,0.75c-0.4142,0 -0.75,-0.3358 -0.75,-0.75z" fill="#606060" stroke="none" stroke-width="0.5" stroke-linecap="butt"/><path d="M350.49367,11.42266c0,-0.4142 0.3358,-0.75 0.75,-0.75c0.4142,0 0.75,0.3358 0.75,0.75c0,0.4142 -0.3358,0.75 -0.75,0.75c-0.4142,0 -0.75,-0.3358 -0.75,-0.75z" fill="#606060" stroke="none" stroke-width="0.5" stroke-linecap="butt"/></g></g></svg>