<svg version="1.1" xmlns="http://www.w3.org/2000/svg" xmlns:xlink="http://www.w3.org/1999/xlink" width="315.30573" height="78.99249" viewBox="0,0,315.30573,78.99249"><defs><radialGradient cx="165.90326" cy="149.83392" r="156.40287" gradientUnits="userSpaceOnUse" id="color-1"><stop offset="0" stop-color="#dec33b"/><stop offset="1" stop-color="#c89f00"/></radialGradient></defs><g transform="translate(-82.34713,-140.50376)"><g data-paper-data="{&quot;isPaintingLayer&quot;:true}" fill-rule="nonzero" stroke-linejoin="miter" stroke-miterlimit="10" stroke-dasharray="" stroke-dashoffset="0" style="mix-blend-mode: normal"><path d="M83.59713,218.24625v-76.49249h312.80573v76.49249z" fill="url(#color-1)" stroke="#000000" stroke-width="2.5" stroke-linecap="butt"/><text transform="translate(116.90648,206.9839) scale(0.5,0.5)" font-size="40" xml:space="preserve" fill="#000000" fill-rule="nonzero" stroke="none" stroke-width="1" stroke-linecap="butt" stroke-linejoin="miter" stroke-miterlimit="10" stroke-dasharray="" stroke-dashoffset="0" font-family="Marker" font-weight="normal" text-anchor="start" style="mix-blend-mode: normal"><tspan x="0" dy="0">???</tspan></text><g stroke="#000000" stroke-linecap="butt"><path d="M101.88065,210.00838c-6.07513,0 -11,-4.64505 -11,-10.375c0,-5.72995 4.92487,-10.375 11,-10.375c6.07513,0 11,4.64505 11,10.375c0,5.72995 -4.92487,10.375 -11,10.375z" fill="#ffd036" stroke-width="1"/><path d="M109.81815,199.50838c0,4.55635 -3.55374,8.25 -7.9375,8.25c-4.38376,0 -7.9375,-3.69365 -7.9375,-8.25c0,-4.55635 3.55374,-8.25 7.9375,-8.25c4.38376,0 7.9375,3.69365 7.9375,8.25z" fill="#e0b82f" stroke-width="1"/><text transform="translate(97.03045,205.22713) scale(0.4349,0.4349)" font-size="40" xml:space="preserve" fill="#000000" fill-rule="nonzero" stroke="#000000" stroke-width="0" stroke-linecap="butt" stroke-linejoin="miter" stroke-miterlimit="10" stroke-dasharray="" stroke-dashoffset="0" font-family="Sans Serif" font-weight="normal" text-anchor="start" style="mix-blend-mode: normal"><tspan x="0" dy="0">$</tspan></text></g><path d="M89.96514,169.06607l59.6604,-0.44193" fill="none" stroke="#000000" stroke-width="0.5" stroke-linecap="round"/><path d="M141.67083,174.36921l-45.07675,1.32579" fill="none" stroke="#000000" stroke-width="0.5" stroke-linecap="round"/><text transform="translate(177.79272,159.14843) scale(0.36062,0.36062)" font-size="40" xml:space="preserve" fill="#000000" fill-rule="nonzero" stroke="none" stroke-width="1" stroke-linecap="butt" stroke-linejoin="miter" stroke-miterlimit="10" stroke-dasharray="" stroke-dashoffset="0" font-family="Sans Serif" font-weight="normal" text-anchor="start" style="mix-blend-mode: normal"><tspan x="0" dy="0">Will get Replaced in the Future</tspan></text><text transform="translate(95.41582,162.57262) scale(0.5,0.5)" font-size="40" xml:space="preserve" fill="#000000" fill-rule="nonzero" stroke="none" stroke-width="1" stroke-linecap="butt" stroke-linejoin="miter" stroke-miterlimit="10" stroke-dasharray="" stroke-dashoffset="0" font-family="Marker" font-weight="normal" text-anchor="start" style="mix-blend-mode: normal"><tspan x="0" dy="0">? ? ?</tspan></text></g></g></svg>