<svg version="1.1" xmlns="http://www.w3.org/2000/svg" xmlns:xlink="http://www.w3.org/1999/xlink" width="683.94423" height="408" viewBox="0,0,683.94423,408"><defs><radialGradient cx="-163.94423" cy="101.84065" r="0.5" gradientUnits="userSpaceOnUse" id="color-1"><stop offset="0" stop-color="#9966ff" stop-opacity="0"/><stop offset="1" stop-color="#9966ff"/></radialGradient><linearGradient x1="-163.94423" y1="101.34065" x2="-163.94423" y2="102.34065" gradientUnits="userSpaceOnUse" id="color-2"><stop offset="0" stop-color="#000000" stop-opacity="0"/><stop offset="1" stop-color="#000000" stop-opacity="0"/></linearGradient><linearGradient x1="240" y1="-20.45045" x2="240" y2="380.45045" gradientUnits="userSpaceOnUse" id="color-3"><stop offset="0" stop-color="#ff5500"/><stop offset="1" stop-color="#ffae00"/></linearGradient><linearGradient x1="240" y1="-20.45045" x2="240" y2="380.45045" gradientUnits="userSpaceOnUse" id="color-4"><stop offset="0" stop-color="#ff5500"/><stop offset="1" stop-color="#ffae00"/></linearGradient><linearGradient x1="240" y1="-20.45045" x2="240" y2="380.45045" gradientUnits="userSpaceOnUse" id="color-5"><stop offset="0" stop-color="#ff5500"/><stop offset="1" stop-color="#ffae00"/></linearGradient><linearGradient x1="240" y1="-20.45045" x2="240" y2="380.45045" gradientUnits="userSpaceOnUse" id="color-6"><stop offset="0" stop-color="#ff5500"/><stop offset="1" stop-color="#ffae00"/></linearGradient><radialGradient cx="344.74215" cy="315.70082" r="44.93664" gradientUnits="userSpaceOnUse" id="color-7"><stop offset="0" stop-color="#696969"/><stop offset="1" stop-color="#6a6a6a"/></radialGradient><radialGradient cx="397.70401" cy="139.92821" r="44.93664" gradientUnits="userSpaceOnUse" id="color-8"><stop offset="0" stop-color="#696969"/><stop offset="1" stop-color="#6a6a6a"/></radialGradient><radialGradient cx="397.70401" cy="139.92821" r="44.93664" gradientUnits="userSpaceOnUse" id="color-9"><stop offset="0" stop-color="#696969"/><stop offset="1" stop-color="#6a6a6a"/></radialGradient><radialGradient cx="397.70401" cy="139.92821" r="44.93664" gradientUnits="userSpaceOnUse" id="color-10"><stop offset="0" stop-color="#696969"/><stop offset="1" stop-color="#6a6a6a"/></radialGradient><radialGradient cx="397.70401" cy="139.92821" r="44.93664" gradientUnits="userSpaceOnUse" id="color-11"><stop offset="0" stop-color="#696969"/><stop offset="1" stop-color="#6a6a6a"/></radialGradient><radialGradient cx="1.47127" cy="231.3168" r="29.6744" gradientUnits="userSpaceOnUse" id="color-12"><stop offset="0" stop-color="#43403a"/><stop offset="1" stop-color="#e5d2a9"/></radialGradient><radialGradient cx="15.19317" cy="136.0339" r="29.6744" gradientUnits="userSpaceOnUse" id="color-13"><stop offset="0" stop-color="#43403a"/><stop offset="1" stop-color="#e5d2a9"/></radialGradient><radialGradient cx="38.19777" cy="139.7662" r="29.6744" gradientUnits="userSpaceOnUse" id="color-14"><stop offset="0" stop-color="#43403a"/><stop offset="1" stop-color="#e5d2a9"/></radialGradient><radialGradient cx="26.22477" cy="230.6896" r="29.6744" gradientUnits="userSpaceOnUse" id="color-15"><stop offset="0" stop-color="#43403a"/><stop offset="1" stop-color="#e5d2a9"/></radialGradient><radialGradient cx="56.81517" cy="145.5904" r="27.3435" gradientUnits="userSpaceOnUse" id="color-16"><stop offset="0" stop-color="#43403a"/><stop offset="1" stop-color="#e5d2a9"/></radialGradient><radialGradient cx="179.59628" cy="185.63166" r="48.66101" gradientUnits="userSpaceOnUse" id="color-17"><stop offset="0" stop-color="#43403a"/><stop offset="1" stop-color="#e5d2a9"/></radialGradient><radialGradient cx="179.59628" cy="185.63166" r="48.66101" gradientUnits="userSpaceOnUse" id="color-18"><stop offset="0" stop-color="#43403a"/><stop offset="1" stop-color="#e5d2a9"/></radialGradient><radialGradient cx="46.73067" cy="226.6329" r="27.3435" gradientUnits="userSpaceOnUse" id="color-19"><stop offset="0" stop-color="#43403a"/><stop offset="1" stop-color="#e5d2a9"/></radialGradient><radialGradient cx="52.03897" cy="181.8604" r="66.1392" gradientUnits="userSpaceOnUse" id="color-20"><stop offset="0" stop-color="#e5d2a9"/><stop offset="1" stop-color="#b0a899"/></radialGradient><radialGradient cx="52.03897" cy="181.8604" r="66.1392" gradientUnits="userSpaceOnUse" id="color-21"><stop offset="0" stop-color="#e5d2a9"/><stop offset="1" stop-color="#b0a899"/></radialGradient><linearGradient x1="240" y1="-24" x2="240" y2="384" gradientUnits="userSpaceOnUse" id="color-22"><stop offset="0" stop-color="#ffa600" stop-opacity="0"/><stop offset="1" stop-color="#ffa600"/></linearGradient><linearGradient x1="240" y1="-24" x2="240" y2="384" gradientUnits="userSpaceOnUse" id="color-23"><stop offset="0" stop-color="#ffa600" stop-opacity="0"/><stop offset="1" stop-color="#ffa600"/></linearGradient><linearGradient x1="240" y1="-24" x2="240" y2="384" gradientUnits="userSpaceOnUse" id="color-24"><stop offset="0" stop-color="#ffa600" stop-opacity="0"/><stop offset="1" stop-color="#ffa600"/></linearGradient><linearGradient x1="240" y1="-24" x2="240" y2="384" gradientUnits="userSpaceOnUse" id="color-25"><stop offset="0" stop-color="#ffa600" stop-opacity="0"/><stop offset="1" stop-color="#ffa600"/></linearGradient><linearGradient x1="240" y1="-24" x2="240" y2="384" gradientUnits="userSpaceOnUse" id="color-26"><stop offset="0" stop-color="#ff5500"/><stop offset="1" stop-color="#ff5500" stop-opacity="0"/></linearGradient><linearGradient x1="240" y1="-24" x2="240" y2="384" gradientUnits="userSpaceOnUse" id="color-27"><stop offset="0" stop-color="#ff5500"/><stop offset="1" stop-color="#ff5500" stop-opacity="0"/></linearGradient><linearGradient x1="240" y1="-24" x2="240" y2="384" gradientUnits="userSpaceOnUse" id="color-28"><stop offset="0" stop-color="#ff5500"/><stop offset="1" stop-color="#ff5500" stop-opacity="0"/></linearGradient><linearGradient x1="240" y1="-24" x2="240" y2="384" gradientUnits="userSpaceOnUse" id="color-29"><stop offset="0" stop-color="#ff5500"/><stop offset="1" stop-color="#ff5500" stop-opacity="0"/></linearGradient><radialGradient cx="165.02519" cy="220.45204" r="7.41725" gradientUnits="userSpaceOnUse" id="color-30"><stop offset="0" stop-color="#43403a"/><stop offset="1" stop-color="#e5d2a9"/></radialGradient><radialGradient cx="171.8119" cy="177.83511" r="7.63021" gradientUnits="userSpaceOnUse" id="color-31"><stop offset="0" stop-color="#43403a"/><stop offset="1" stop-color="#e5d2a9"/></radialGradient><radialGradient cx="170.20268" cy="176.67328" r="7.63021" gradientUnits="userSpaceOnUse" id="color-32"><stop offset="0" stop-color="#43403a"/><stop offset="1" stop-color="#e5d2a9"/></radialGradient><radialGradient cx="102.93255" cy="196.84141" r="81.03458" gradientUnits="userSpaceOnUse" id="color-33"><stop offset="0" stop-color="#e5d2a9"/><stop offset="1" stop-color="#9b9487"/></radialGradient><radialGradient cx="102.93255" cy="196.84141" r="81.03458" gradientUnits="userSpaceOnUse" id="color-34"><stop offset="0" stop-color="#e5d2a9"/><stop offset="1" stop-color="#9b9487"/></radialGradient><radialGradient cx="102.93255" cy="196.84141" r="81.03458" gradientUnits="userSpaceOnUse" id="color-35"><stop offset="0" stop-color="#e5d2a9"/><stop offset="1" stop-color="#9b9487"/></radialGradient><radialGradient cx="102.93255" cy="196.84141" r="81.03458" gradientUnits="userSpaceOnUse" id="color-36"><stop offset="0" stop-color="#e5d2a9"/><stop offset="1" stop-color="#9b9487"/></radialGradient><radialGradient cx="102.93255" cy="196.84141" r="81.03458" gradientUnits="userSpaceOnUse" id="color-37"><stop offset="0" stop-color="#e5d2a9"/><stop offset="1" stop-color="#9b9487"/></radialGradient><radialGradient cx="102.93255" cy="196.84141" r="81.03458" gradientUnits="userSpaceOnUse" id="color-38"><stop offset="0" stop-color="#e5d2a9"/><stop offset="1" stop-color="#9b9487"/></radialGradient><radialGradient cx="102.93255" cy="196.84141" r="81.03458" gradientUnits="userSpaceOnUse" id="color-39"><stop offset="0" stop-color="#e5d2a9"/><stop offset="1" stop-color="#9b9487"/></radialGradient><radialGradient cx="102.93255" cy="196.84141" r="81.03458" gradientUnits="userSpaceOnUse" id="color-40"><stop offset="0" stop-color="#e5d2a9"/><stop offset="1" stop-color="#9b9487"/></radialGradient><radialGradient cx="102.93255" cy="196.84141" r="81.03458" gradientUnits="userSpaceOnUse" id="color-41"><stop offset="0" stop-color="#e5d2a9"/><stop offset="1" stop-color="#9b9487"/></radialGradient><radialGradient cx="102.93255" cy="196.84141" r="81.03458" gradientUnits="userSpaceOnUse" id="color-42"><stop offset="0" stop-color="#e5d2a9"/><stop offset="1" stop-color="#9b9487"/></radialGradient><radialGradient cx="399.75735" cy="150.62555" r="45.70525" gradientUnits="userSpaceOnUse" id="color-43"><stop offset="0" stop-color="#989898"/><stop offset="1" stop-color="#868686"/></radialGradient><radialGradient cx="399.75735" cy="150.62555" r="45.70525" gradientUnits="userSpaceOnUse" id="color-44"><stop offset="0" stop-color="#989898"/><stop offset="1" stop-color="#868686"/></radialGradient><radialGradient cx="399.75735" cy="150.62555" r="45.70525" gradientUnits="userSpaceOnUse" id="color-45"><stop offset="0" stop-color="#989898"/><stop offset="1" stop-color="#868686"/></radialGradient><radialGradient cx="399.75735" cy="150.62555" r="45.70525" gradientUnits="userSpaceOnUse" id="color-46"><stop offset="0" stop-color="#989898"/><stop offset="1" stop-color="#868686"/></radialGradient><radialGradient cx="399.75735" cy="150.62555" r="45.70525" gradientUnits="userSpaceOnUse" id="color-47"><stop offset="0" stop-color="#989898"/><stop offset="1" stop-color="#868686"/></radialGradient><radialGradient cx="399.75735" cy="150.62555" r="45.70525" gradientUnits="userSpaceOnUse" id="color-48"><stop offset="0" stop-color="#989898"/><stop offset="1" stop-color="#868686"/></radialGradient><radialGradient cx="346.0906" cy="306.50974" r="45.70525" gradientUnits="userSpaceOnUse" id="color-49"><stop offset="0" stop-color="#989898"/><stop offset="1" stop-color="#868686"/></radialGradient><radialGradient cx="346.0906" cy="306.50974" r="45.70525" gradientUnits="userSpaceOnUse" id="color-50"><stop offset="0" stop-color="#989898"/><stop offset="1" stop-color="#868686"/></radialGradient><radialGradient cx="346.0906" cy="306.50974" r="45.70525" gradientUnits="userSpaceOnUse" id="color-51"><stop offset="0" stop-color="#989898"/><stop offset="1" stop-color="#868686"/></radialGradient><radialGradient cx="346.0906" cy="306.50974" r="45.70525" gradientUnits="userSpaceOnUse" id="color-52"><stop offset="0" stop-color="#989898"/><stop offset="1" stop-color="#868686"/></radialGradient><radialGradient cx="346.0906" cy="306.50974" r="45.70525" gradientUnits="userSpaceOnUse" id="color-53"><stop offset="0" stop-color="#989898"/><stop offset="1" stop-color="#868686"/></radialGradient><radialGradient cx="346.0906" cy="306.50974" r="45.70525" gradientUnits="userSpaceOnUse" id="color-54"><stop offset="0" stop-color="#989898"/><stop offset="1" stop-color="#868686"/></radialGradient><radialGradient cx="346.0906" cy="306.50974" r="45.70525" gradientUnits="userSpaceOnUse" id="color-55"><stop offset="0" stop-color="#989898"/><stop offset="1" stop-color="#868686"/></radialGradient><radialGradient cx="346.0906" cy="306.50974" r="45.70525" gradientUnits="userSpaceOnUse" id="color-56"><stop offset="0" stop-color="#989898"/><stop offset="1" stop-color="#868686"/></radialGradient><radialGradient cx="346.0906" cy="306.50974" r="45.70525" gradientUnits="userSpaceOnUse" id="color-57"><stop offset="0" stop-color="#989898"/><stop offset="1" stop-color="#868686"/></radialGradient><radialGradient cx="346.0906" cy="306.50974" r="45.70525" gradientUnits="userSpaceOnUse" id="color-58"><stop offset="0" stop-color="#989898"/><stop offset="1" stop-color="#868686"/></radialGradient><radialGradient cx="346.0906" cy="306.50974" r="45.70525" gradientUnits="userSpaceOnUse" id="color-59"><stop offset="0" stop-color="#989898"/><stop offset="1" stop-color="#868686"/></radialGradient><radialGradient cx="346.0906" cy="306.50974" r="45.70525" gradientUnits="userSpaceOnUse" id="color-60"><stop offset="0" stop-color="#989898"/><stop offset="1" stop-color="#868686"/></radialGradient><radialGradient cx="346.0906" cy="306.50974" r="45.70525" gradientUnits="userSpaceOnUse" id="color-61"><stop offset="0" stop-color="#989898"/><stop offset="1" stop-color="#868686"/></radialGradient><radialGradient cx="346.0906" cy="306.50974" r="45.70525" gradientUnits="userSpaceOnUse" id="color-62"><stop offset="0" stop-color="#989898"/><stop offset="1" stop-color="#868686"/></radialGradient><radialGradient cx="346.0906" cy="306.50974" r="45.70525" gradientUnits="userSpaceOnUse" id="color-63"><stop offset="0" stop-color="#989898"/><stop offset="1" stop-color="#868686"/></radialGradient><radialGradient cx="418.64627" cy="195.7483" r="8.7674" gradientUnits="userSpaceOnUse" id="color-64"><stop offset="0" stop-color="#f1ddb3"/><stop offset="1" stop-color="#c9c4b4"/></radialGradient><radialGradient cx="127.55577" cy="309.34065" r="5" gradientUnits="userSpaceOnUse" id="color-65"><stop offset="0" stop-color="#696969"/><stop offset="1" stop-color="#6a6a6a"/></radialGradient><radialGradient cx="147.55577" cy="263.84065" r="10.5" gradientUnits="userSpaceOnUse" id="color-66"><stop offset="0" stop-color="#696969"/><stop offset="1" stop-color="#6a6a6a"/></radialGradient><radialGradient cx="117.55577" cy="286.84065" r="6.5" gradientUnits="userSpaceOnUse" id="color-67"><stop offset="0" stop-color="#696969"/><stop offset="1" stop-color="#6a6a6a"/></radialGradient><radialGradient cx="110.05577" cy="344.84065" r="7.5" gradientUnits="userSpaceOnUse" id="color-68"><stop offset="0" stop-color="#696969"/><stop offset="1" stop-color="#6a6a6a"/></radialGradient><radialGradient cx="254.05577" cy="258.34065" r="9" gradientUnits="userSpaceOnUse" id="color-69"><stop offset="0" stop-color="#696969"/><stop offset="1" stop-color="#6a6a6a"/></radialGradient><radialGradient cx="327.05577" cy="212.34065" r="8" gradientUnits="userSpaceOnUse" id="color-70"><stop offset="0" stop-color="#696969"/><stop offset="1" stop-color="#6a6a6a"/></radialGradient><radialGradient cx="306.05577" cy="208.84065" r="5.5" gradientUnits="userSpaceOnUse" id="color-71"><stop offset="0" stop-color="#696969"/><stop offset="1" stop-color="#6a6a6a"/></radialGradient><radialGradient cx="310.05577" cy="172.84065" r="7.5" gradientUnits="userSpaceOnUse" id="color-72"><stop offset="0" stop-color="#696969"/><stop offset="1" stop-color="#6a6a6a"/></radialGradient><radialGradient cx="267.05577" cy="155.34065" r="6.5" gradientUnits="userSpaceOnUse" id="color-73"><stop offset="0" stop-color="#696969"/><stop offset="1" stop-color="#6a6a6a"/></radialGradient><radialGradient cx="296.05577" cy="240.84065" r="6.5" gradientUnits="userSpaceOnUse" id="color-74"><stop offset="0" stop-color="#696969"/><stop offset="1" stop-color="#6a6a6a"/></radialGradient><radialGradient cx="249.55577" cy="141.34065" r="10" gradientUnits="userSpaceOnUse" id="color-75"><stop offset="0" stop-color="#696969"/><stop offset="1" stop-color="#6a6a6a"/></radialGradient><radialGradient cx="221.05577" cy="148.84065" r="7.5" gradientUnits="userSpaceOnUse" id="color-76"><stop offset="0" stop-color="#696969"/><stop offset="1" stop-color="#6a6a6a"/></radialGradient><radialGradient cx="291.55577" cy="166.84065" r="9.5" gradientUnits="userSpaceOnUse" id="color-77"><stop offset="0" stop-color="#696969"/><stop offset="1" stop-color="#6a6a6a"/></radialGradient><radialGradient cx="219.05577" cy="249.84065" r="10.5" gradientUnits="userSpaceOnUse" id="color-78"><stop offset="0" stop-color="#696969"/><stop offset="1" stop-color="#6a6a6a"/></radialGradient><radialGradient cx="179.42211" cy="269.37093" r="7" gradientUnits="userSpaceOnUse" id="color-79"><stop offset="0" stop-color="#696969"/><stop offset="1" stop-color="#6a6a6a"/></radialGradient><radialGradient cx="162.42211" cy="93.87093" r="9.5" gradientUnits="userSpaceOnUse" id="color-80"><stop offset="0" stop-color="#696969"/><stop offset="1" stop-color="#6a6a6a"/></radialGradient><radialGradient cx="181.42211" cy="125.37093" r="5" gradientUnits="userSpaceOnUse" id="color-81"><stop offset="0" stop-color="#696969"/><stop offset="1" stop-color="#6a6a6a"/></radialGradient><radialGradient cx="212.42211" cy="122.87093" r="5" gradientUnits="userSpaceOnUse" id="color-82"><stop offset="0" stop-color="#696969"/><stop offset="1" stop-color="#6a6a6a"/></radialGradient><radialGradient cx="146.7379" cy="47.87093" r="9.68421" gradientUnits="userSpaceOnUse" id="color-83"><stop offset="0" stop-color="#696969"/><stop offset="1" stop-color="#6a6a6a"/></radialGradient><radialGradient cx="181.92211" cy="47.87093" r="6.5" gradientUnits="userSpaceOnUse" id="color-84"><stop offset="0" stop-color="#696969"/><stop offset="1" stop-color="#6a6a6a"/></radialGradient><radialGradient cx="138.42211" cy="78.87093" r="6" gradientUnits="userSpaceOnUse" id="color-85"><stop offset="0" stop-color="#696969"/><stop offset="1" stop-color="#6a6a6a"/></radialGradient><radialGradient cx="238.42211" cy="70.37093" r="10" gradientUnits="userSpaceOnUse" id="color-86"><stop offset="0" stop-color="#696969"/><stop offset="1" stop-color="#6a6a6a"/></radialGradient><radialGradient cx="271.42211" cy="70.37093" r="5" gradientUnits="userSpaceOnUse" id="color-87"><stop offset="0" stop-color="#696969"/><stop offset="1" stop-color="#6a6a6a"/></radialGradient><radialGradient cx="242.92211" cy="49.87093" r="6.5" gradientUnits="userSpaceOnUse" id="color-88"><stop offset="0" stop-color="#696969"/><stop offset="1" stop-color="#6a6a6a"/></radialGradient><radialGradient cx="212.92211" cy="54.87093" r="3.5" gradientUnits="userSpaceOnUse" id="color-89"><stop offset="0" stop-color="#696969"/><stop offset="1" stop-color="#6a6a6a"/></radialGradient><radialGradient cx="313.42211" cy="74.87093" r="9" gradientUnits="userSpaceOnUse" id="color-90"><stop offset="0" stop-color="#696969"/><stop offset="1" stop-color="#6a6a6a"/></radialGradient><radialGradient cx="288.92211" cy="80.37093" r="5" gradientUnits="userSpaceOnUse" id="color-91"><stop offset="0" stop-color="#696969"/><stop offset="1" stop-color="#6a6a6a"/></radialGradient><radialGradient cx="346.42211" cy="49.87093" r="10.5" gradientUnits="userSpaceOnUse" id="color-92"><stop offset="0" stop-color="#696969"/><stop offset="1" stop-color="#6a6a6a"/></radialGradient><radialGradient cx="338.92211" cy="8.97093" r="6.6" gradientUnits="userSpaceOnUse" id="color-93"><stop offset="0" stop-color="#696969"/><stop offset="1" stop-color="#6a6a6a"/></radialGradient><radialGradient cx="353.92211" cy="20.87093" r="7.5" gradientUnits="userSpaceOnUse" id="color-94"><stop offset="0" stop-color="#696969"/><stop offset="1" stop-color="#6a6a6a"/></radialGradient><radialGradient cx="332.42211" cy="30.87093" r="4.5" gradientUnits="userSpaceOnUse" id="color-95"><stop offset="0" stop-color="#696969"/><stop offset="1" stop-color="#6a6a6a"/></radialGradient><radialGradient cx="335.42211" cy="72.37093" r="6" gradientUnits="userSpaceOnUse" id="color-96"><stop offset="0" stop-color="#696969"/><stop offset="1" stop-color="#6a6a6a"/></radialGradient><radialGradient cx="394.27997" cy="182.1977" r="9.662" gradientUnits="userSpaceOnUse" id="color-97"><stop offset="0" stop-color="#f1ddb3"/><stop offset="1" stop-color="#c9c4b4"/></radialGradient><radialGradient cx="402.97747" cy="189.2953" r="14.2465" gradientUnits="userSpaceOnUse" id="color-98"><stop offset="0" stop-color="#f1ddb3"/><stop offset="1" stop-color="#c9c4b4"/></radialGradient><radialGradient cx="220.1952" cy="327.38998" r="45.70525" gradientUnits="userSpaceOnUse" id="color-99"><stop offset="0" stop-color="#989898"/><stop offset="1" stop-color="#868686"/></radialGradient><radialGradient cx="220.1952" cy="327.38998" r="45.70525" gradientUnits="userSpaceOnUse" id="color-100"><stop offset="0" stop-color="#989898"/><stop offset="1" stop-color="#868686"/></radialGradient><radialGradient cx="220.1952" cy="327.38998" r="45.70525" gradientUnits="userSpaceOnUse" id="color-101"><stop offset="0" stop-color="#989898"/><stop offset="1" stop-color="#868686"/></radialGradient><radialGradient cx="220.1952" cy="327.38998" r="45.70525" gradientUnits="userSpaceOnUse" id="color-102"><stop offset="0" stop-color="#989898"/><stop offset="1" stop-color="#868686"/></radialGradient><radialGradient cx="220.1952" cy="327.38998" r="45.70525" gradientUnits="userSpaceOnUse" id="color-103"><stop offset="0" stop-color="#989898"/><stop offset="1" stop-color="#868686"/></radialGradient><radialGradient cx="220.1952" cy="327.38998" r="45.70525" gradientUnits="userSpaceOnUse" id="color-104"><stop offset="0" stop-color="#989898"/><stop offset="1" stop-color="#868686"/></radialGradient><radialGradient cx="220.1952" cy="327.38998" r="45.70525" gradientUnits="userSpaceOnUse" id="color-105"><stop offset="0" stop-color="#989898"/><stop offset="1" stop-color="#868686"/></radialGradient><radialGradient cx="378.88354" cy="306.86646" r="85.52795" gradientUnits="userSpaceOnUse" id="color-106"><stop offset="0" stop-color="#989898"/><stop offset="1" stop-color="#868686"/></radialGradient></defs><g transform="translate(164.44423,24)"><g data-paper-data="{&quot;isPaintingLayer&quot;:true}" fill-rule="nonzero" stroke-linejoin="miter" stroke-miterlimit="10" stroke-dasharray="" stroke-dashoffset="0" style="mix-blend-mode: normal"><path d="M-163.94423,101.34065c0.27614,0 0.5,0.22386 0.5,0.5c0,0.27614 -0.22386,0.5 -0.5,0.5c-0.27614,0 -0.5,-0.22386 -0.5,-0.5c0,-0.27614 0.22386,-0.5 0.5,-0.5z" fill="url(#color-1)" stroke="url(#color-2)" stroke-width="0" stroke-linecap="butt"/><path d="M-19.75976,380.45045v-400.9009h519.51952v400.9009zM168.84036,172.71789l-0.02323,0.06388l-0.17767,-0.12962c-0.07393,0.00803 -0.14785,0.01607 -0.22178,0.0241l0.01703,-0.07664l-4.17494,-0.92776c-1.42489,-1.19133 -2.94236,-2.20921 -4.21937,-2.2584c-0.54474,-0.21228 -1.10001,-0.40968 -1.60369,-0.65878c-1.68151,-0.83159 -3.28848,-1.82939 -5.03508,-2.5138c-1.58252,-0.62011 -3.42906,-0.35112 -5,-1c-7.13968,-2.94906 -15.72714,-4.70543 -22.04253,-9.42388c-2.06049,-2.06049 -4.49255,-4.34082 -6.99309,-5.85279c-1.82256,-1.10203 -4.24535,-1.63122 -5.72288,-3.36863c-0.64865,-0.76274 -0.74892,-1.98086 -1.56132,-2.56612c-0.32637,-0.23512 -0.65874,-0.48668 -0.99734,-0.74003c-0.19364,-0.51073 -0.60807,-1.01109 -1.4263,-1.33838c-0.33703,-0.13481 -0.6447,-0.20111 -0.92443,-0.21596c-0.86712,-0.44642 -1.7718,-0.72178 -2.71706,-0.63367c-1.70844,0.15924 -2.33938,2.5121 -3.45534,3.81545c-1.84381,2.15342 -2.89444,3.34799 -3.523,6.24077c-0.44403,2.04354 -0.10244,4.20774 -0.20297,6.32483c-0.12974,0.25486 -0.25852,0.51007 -0.38627,0.76563c-0.24266,0.61061 -0.49953,1.21245 -0.77063,1.80487c-0.14669,-0.02026 -0.29651,-0.03073 -0.44877,-0.03073c-0.0848,0 -0.16884,0.00325 -0.25201,0.00963c-0.50473,-0.32262 -1.10453,-0.50963 -1.74799,-0.50963c-1.07681,0 -2.0313,0.52368 -2.62269,1.33026l-1.12686,1.50248c-2.18972,1.01619 -3.19395,1.29699 -5.04855,3.11917c-0.59401,0.58363 -1.28416,1.81125 -2.01165,3.02166c-0.49248,-0.30045 -1.07115,-0.47356 -1.69025,-0.47356c-0.17524,0 -0.34724,0.01387 -0.51497,0.04057l-3.44465,0.49209l0.01139,0.07972c-0.1733,0.00503 -0.34689,0.01659 -0.52081,0.03545c-2.23227,0.24203 -3.96746,2.11754 -6.03803,2.98606c-1.22,0.51174 -2.53424,0.76076 -3.80136,1.14113l-0.28252,0.3234l-0.08116,-0.13527l-2.44892,1.46935c-0.89512,0.51611 -1.52123,1.44654 -1.61636,2.52931c-3.10774,1.51855 -6.26718,3.11229 -9.7626,3.03819c0,0 -3.25,0 -3.25,3.25c0,2.26431 1.57757,2.95105 2.53449,3.15933c0.17801,0.33948 0.43175,0.633 0.73879,0.85813l1.97672,1.48254l0.0768,-0.10239l0.19839,0.2818c1.17325,0.4693 2.32514,1.03162 3.38416,1.72551c0.52352,0.63547 1.20087,1.13946 1.97508,1.45499c8.47061,6.49119 16.12818,13.99303 20.59428,23.68473c0.7453,1.61734 2.31385,2.78448 2.97286,4.43885c0.65454,1.64314 0.39851,3.53336 0.90206,5.22887c0.73996,2.4915 1.19841,4.87588 1.72202,7.28763h-0.32566v2.20305l-1.80278,1.09279c0,0 -2.70416,1.80278 -0.90139,4.50694c1.80278,2.70416 4.50694,0.90139 4.50694,0.90139l0.72496,-0.62094c7.31639,-2.4388 14.65134,-5.02086 22.20083,-6.59858c5.89406,-1.23176 11.94063,-1.20133 17.85735,-2.28789c1.37903,-0.25325 2.69337,-0.60476 3.97351,-0.99507c0.0184,-0.00342 0.03679,-0.00686 0.05518,-0.01032c0.24001,-0.04525 0.46954,-0.12598 0.69421,-0.22332c0.89714,-0.28532 1.78015,-0.58423 2.65984,-0.87566c1.37361,-0.04334 2.7963,0.37931 4.14595,0.09898c1.69424,-0.3519 3.28041,-1.06477 4.76244,-1.9814c0.04777,-0.00083 0.09562,-0.00147 0.14355,-0.00192c1.59008,-0.51198 3.17822,-1.05397 4.76678,-1.59335c-0.00979,0.01566 -0.01949,0.03149 -0.02909,0.0475c-0.68148,0.65748 -1.78524,2.15638 -0.46243,4.14059c1.37546,2.06318 3.27562,1.50281 4.09915,1.12123c2.96196,0.34923 5.80193,0.09938 8.83695,0.31489c6.24,0.4431 12.54771,3.21792 18.88266,1.95243c3.12963,-0.62518 5.54845,-2.9041 8.19886,-4.49435l0.09848,-0.14775l0.03806,0.05075l0.60822,-0.45617c0.04548,0.0611 0.09333,0.11279 0.14368,0.15426c1.51243,1.24588 3.87446,0.96338 5.82584,0.78512c0.82988,-0.07581 1.20998,-1.23484 2,-1.5c1.57216,-0.52767 3.31391,0.16678 4.97226,0.16678c3.22591,-0.01537 7.25914,-0.01597 9.97693,-2.17042c3.15686,-2.5025 3.26233,-5.96641 3.27307,-9.57958c0.00826,-2.77967 0.00817,-5.55942 0.00606,-8.33917l0.03218,-0.00786c0,0 3.15296,-0.78824 2.36472,-3.9412c-0.41443,-1.65774 -1.48256,-2.22599 -2.40243,-2.39213c-0.00033,-0.60654 -0.00053,-1.21309 -0.00053,-1.81963c0,-4.23234 1.38177,-11.77025 -1.79825,-15.1334c-2.97821,-3.14972 -9.23862,-4.35207 -13.36584,-5.06335c-2.57048,-0.51455 -4.94995,-0.80343 -7.40761,-0.94374c-0.87882,-1.29468 -1.57256,-1.82023 -2.30337,-2.07812c-0.31229,-0.33415 -0.69428,-0.60234 -1.12278,-0.7814l-4.4322,-1.96987l-0.04882,0.10985l-0.28647,-0.23721c-5.88888,-1.19428 -12.25972,-2.4958 -18.15497,-1.37743zM217.78581,365.49396c0.09781,5.43822 4.53677,9.8166 9.99835,9.8166c2.76142,0 5.26142,-1.11929 7.07107,-2.92893l1.90062,-1.90062c1.49268,-1.54115 3.32913,-2.7077 4.97068,-4.0892c4.50514,-3.79143 7.97392,-8.60447 11.93599,-12.82292c2.00508,-2.13482 5.25918,-2.95288 7.00387,-5.3053c1.116,-1.50475 0.17324,-4.32653 1.74784,-5.34159c4.05422,-2.61353 6.29011,-6.59973 9.30419,-10.25995c1.66199,-2.01828 6.54768,-1.6922 8.52158,-3.41856l2.98396,-0.74599c4.45321,-1.01058 7.77758,-4.99315 7.77758,-9.75216c0,-5.52285 -4.47715,-10 -10,-10h-1.66928c-3.55468,-1.00631 -8.5741,-0.39294 -11.0428,-2.78439c-1.55926,-0.54405 -3.05555,-1.32284 -4.67777,-1.63215c-0.37522,-0.07154 -0.84742,-0.08913 -1.22766,0.03585c-0.08197,-0.08285 -0.14272,-0.17185 -0.15932,-0.27086c-0.13774,-0.82143 0.58648,-1.74172 0.21884,-2.48909c-2.28853,-4.65239 -3.08646,-11.69338 -8.0038,-13.3371c-2.09646,-0.70078 -4.50605,-0.36423 -6.76375,0.63247c-6.38874,-5.80422 -21.2754,-0.7177 -25.61029,0.45246c-0.36546,0.09865 -0.74418,0.19335 -1.13131,0.28743c-0.25588,-0.28249 -0.53595,-0.54157 -0.84159,-0.77314c-3.66444,-2.77638 -8.88192,-2.27704 -13.57087,-2.44293c-0.80104,-0.82153 -1.90146,-1.41354 -2.97772,-1.62542c-4.8411,-0.95305 -10.79284,-1.09556 -15.17182,1.52679c-6.08538,0.89084 -11.75208,3.04803 -13.60225,5.36997c-0.65337,0.81997 -1.20213,1.69328 -1.66824,2.60871l-0.52807,-0.3772l-1.45032,2.03045c-0.44761,0.18494 -0.90291,0.36235 -1.36351,0.53458c-6.81988,-1.8273 -16.70541,2.79641 -18.30562,9.07553c-0.85332,3.3484 -1.13046,6.41692 -0.97335,9.29163c-1.6464,1.90936 -3.00546,3.9889 -3.88065,6.18401c-1.24135,3.1135 -0.80654,6.71777 -0.41685,10.04688c0.26032,2.22389 1.58591,4.18835 2.33033,6.30005c1.44621,4.10246 3.35032,11.4057 6.33078,14.28956c2.75953,2.67009 7.15591,3.02527 10.96035,3.54547c3.96992,0.54282 7.46958,3.04136 11.40373,3.80124c3.04574,0.58829 13.28138,-0.01691 15.82351,-1.05413c1.40971,-0.57518 1.67119,-2.65577 2.94253,-3.49352c0.3947,-0.26009 0.86659,-0.35134 1.35696,-0.39991c0.89876,0.67826 1.76161,1.43142 2.58583,2.25736c3.61349,3.621 3.44044,6.39774 8.83479,8.71032c2.0591,0.88274 4.45184,0.50747 6.67777,0.7612c0,0 0.99422,0 2.35569,-0.31349zM295.82644,135.46666c2.20344,-0.16873 4.13973,-1.56677 6.27084,-2.15159c4.62786,-1.26999 10.00425,-1.32091 12.88276,-6.14921c4.21639,-7.07242 -1.00281,-16.2882 -6.65297,-20.60688c-0.62648,-0.47885 -1.32766,-0.83715 -2.05013,-1.16218c-0.00518,-0.15763 -0.01431,-0.31675 -0.02758,-0.47741c-0.16068,-1.94528 -0.47243,-4.06427 -1.65538,-5.61687c-1.03228,-1.35484 -2.96013,-1.69002 -4.48701,-2.44491c-2.87357,-1.42068 -4.87421,-2.29265 -8.00968,-3.17268c-5.81041,-1.6308 -11.87551,-2.7147 -17.57037,-4.85854c-2.63455,-0.99178 -5.55087,-1.85601 -8.19321,-2.94257c2.81976,-9.21728 -6.43541,-12.30233 -6.43541,-12.30233l-4.41139,-1.33435c-8.45051,0 -16.3367,-5.55477 -24.18351,-8.19685c-4.40212,-1.48223 -5.19894,-0.82201 -9.90488,-2.65575c-5.28072,-2.05771 -10.47934,-5.56245 -16.27806,-6.25298c-2.10616,-0.25081 -4.27064,0.39944 -6.36292,0.05131c-1.68273,-0.27999 -3.07278,-1.59784 -4.75155,-1.90063c-2.09026,-0.37701 -4.25846,0.11377 -6.3711,-0.10551c-5.53607,-0.5746 -10.76063,-1.91794 -16.4268,-1.97555c0,0 -10,0 -10,10c0,2.5175 0.63378,4.40122 1.58223,5.81072c-0.42592,0.44249 -0.85483,0.86044 -1.30011,1.17448c-3.38598,2.38802 -6.72184,4.84629 -10.08277,7.26944l-0.16151,0.70497c-0.05172,0.02802 -0.10317,0.0565 -0.15434,0.0854l-0.25893,-0.25893l-1.90062,1.90062c-1.80964,1.80965 -2.92893,4.30965 -2.92893,7.07107c0,5.09848 3.81555,9.30579 8.74697,9.92225c7.97318,10.78435 20.24702,14.14195 32.61473,17.71908c3.85735,1.11566 7.19713,3.62537 11.00536,4.89861c0.90127,0.30133 1.93455,-0.25167 2.85093,0c2.1626,0.59392 4.00226,2.08695 6.15383,2.71965c8.69231,2.5561 17.45604,6.05625 25.57774,10.09101l0.78703,-0.11939l-0.12248,0.36743l2.62949,0.8765c1.0568,0.37994 2.19609,0.58698 3.38372,0.58698c1.95246,0 3.77424,-0.55955 5.3137,-1.52705c3.83943,1.45292 7.56741,3.27793 11.52253,4.3285c2.9189,0.77534 5.45825,0.38151 8.37094,0.65046c4.49505,0.41508 8.6305,2.73038 13.21331,1.95247c2.51285,-0.42654 4.41739,-1.49461 6.11698,-2.82415c3.87824,0.32798 7.80417,1.15052 11.65855,0.85537zM439.72308,206.59691c0.94146,-0.90924 1.52692,-2.18471 1.52692,-3.59691v-3.31142c0.11485,-2.12465 1.06888,-4.29365 1.44119,-6.42398c1.54772,-10.83404 2.68718,-21.33446 1.53447,-32.25729c-0.56243,-5.32944 0.91481,-11.02481 -0.04023,-16.30822c-0.76785,-4.24778 -3.26142,-7.64825 -4.79305,-11.55605c-0.66693,-1.66732 -1.35465,-3.08701 -2.11533,-4.41045c0.09839,-1.98645 0.06216,-3.96349 -0.18591,-5.91475c-0.50433,-3.96691 0.20642,-8.44036 -1.88758,-11.8471c-0.94168,-1.53202 -2.41447,-2.57488 -4.1006,-3.34392c0.01499,-4.13898 -0.15413,-9.09343 -2.94075,-11.88005c-4.42229,-4.42229 -16.0799,-2.92893 -22.07107,-2.92893c-6,0 -12,0 -18,0c-3.40932,0 -7.2455,-0.3694 -10.60182,0.12913c-3.00175,0.44586 -5.99522,1.59101 -9,2c-6.22798,0.84771 -12.68708,-2.56935 -18.46925,2.79981c-2.56193,2.37893 -2.16449,6.65956 -2.92893,10.07107c-0.43731,1.9516 0,4 0,6c0,5.57112 -0.64697,11.27353 1.12913,16.60182c0,2.02759 0.60617,4.01103 1,6c0.38847,1.96191 -0.29384,4.0217 0,6c0.15487,1.04265 0.85092,1.9565 1,3c0.362,2.53377 -0.05582,5.26464 0.9458,7.62001c1.53992,3.6212 1.81865,8.59318 5.2065,10.59491c0.15817,0.09346 0.31881,0.17468 0.48172,0.24465c2.7278,3.1162 6.22231,3.25497 8.68112,2.81955c2.08982,4.03782 5.31664,6.91248 11.97646,5.64192c0.42934,-0.08191 0.82705,-0.2168 1.19801,-0.39648c1.04273,-0.34881 2.00891,-0.86473 2.86672,-1.51598c1.9815,0.41982 3.99514,1.00414 5.88219,1.40215c2.59158,0.5466 5.12785,4.88523 7.29121,4.6696c1.81858,-0.18127 3.20747,-1.61203 4.50456,-3.06187c1.89429,-0.71953 3.15674,-1.68003 5.48813,-1.96246c0.61476,-0.07448 1.42106,-0.70032 1.84145,-0.24563c1.78879,1.93472 3.76347,3.75575 6.21623,5.12879c1.10632,0.61931 2.44967,0.85368 3.41409,1.67671c1.31653,1.12351 1.28391,5.30672 1.63263,6.94504c0.84148,3.9534 2.14054,6.55518 5.36737,9.05496c0.65946,0.7075 0.50761,1.8715 0.87192,2.76745c0.30593,0.75237 1.09612,1.25858 1.34503,2.03168c0.17014,0.52844 -0.21414,1.10581 -0.15709,1.65802c0.30834,2.98458 0.77859,3.67583 1.83328,6.36426l3.36888,3.30329c0,0 0.22635,0.1509 0.60865,0.32951c0.85224,1.00055 2.24491,1.81587 4.48684,1.44221c4.05284,-0.67548 4.22019,-4.12629 4.15108,-5.33506zM387.59257,321.92931c1.94254,-0.32965 3.5037,-1.77967 3.99542,-3.66198l0.96963,-3.39372l-0.27591,-0.07883c0.03843,-0.20985 0.07652,-0.42368 0.11365,-0.6409c0.34209,-0.68716 0.60343,-1.40862 0.75754,-2.1733l0.07422,-2.2783c1.65747,-2.44339 3.31882,-4.82243 4.58408,-7.654c0.52312,-1.17073 1.66566,-2.36027 1.34858,-3.60274c-0.08182,-0.32064 -0.17866,-0.63552 -0.28816,-0.94554h0.37838v-2.5c0,-0.61567 -0.11128,-1.20535 -0.31482,-1.75002c0.82398,-2.01398 2.05773,-3.87219 2.64731,-5.96663c1.09626,-3.89438 1.66119,-7.64012 2.93874,-11.43562c6.06308,-6.31654 5.86399,-10.42948 -0.59726,-16.89073c-1.48531,-1.48531 -5.50995,-1.03723 -7.72094,-1.65588c-6.55308,-1.83358 -13.69444,-1.40734 -20.19245,0.60007c-2.46184,0.76053 -5.40941,2.69985 -7.7734,3.01566c-1.1647,0.1556 -2.3351,0.32932 -3.50938,0.52127c-2.29,-0.05223 -5.04556,0.23568 -7.00956,1.35603c-12.66541,2.83371 -25.36417,7.78205 -35.86832,14.97175c-2.01919,1.38206 -3.57449,3.43955 -5.53289,4.80716c-1.429,0.99791 -3.69692,1.50117 -5.25293,2.4715c-7.16456,4.46784 -10.01705,10.62604 -13.36277,18.03047c-0.43406,0.96062 -2.26978,3.56134 -2.54328,4.45998c-1.73937,5.71509 -1.83227,10.84473 0,16.82166c1.02639,3.34811 5.13323,5.08746 9.12984,5.36962c0.59798,1.02529 1.1316,2.0921 1.81288,3.06367c0.23017,0.32824 0.80868,0.40224 0.90582,0.7912c0.26934,1.0784 -0.41916,2.3625 0.12402,3.33227c1.00879,1.80106 2.52515,3.37631 4.26011,4.49496c3.64902,2.35278 9.26929,0.59199 13.31651,1.48167c1.29996,0.28577 2.5345,0.85441 3.84927,1.06162c1.49671,0.23588 3.10055,-0.5438 4.54474,-0.08542c0.93721,0.29746 1.66836,1.08185 2.60255,1.38867c5.56966,1.82925 11.78256,1.24509 17.54622,1.24509c1.39256,0 7.10292,0.06524 8.08114,-0.25658c1.40659,-0.46276 2.46324,-1.6441 3.69487,-2.46615c2.6945,-2.6945 5.05182,-5.49385 7.70387,-8.18694c3.31702,-3.36836 8.27164,-4.68607 11.55566,-8.05479c1.61475,-1.6564 2.56011,-3.58466 3.30703,-5.60622z" fill="url(#color-3)" stroke="none" stroke-width="0" stroke-linecap="butt"/><path d="" fill="url(#color-4)" stroke="none" stroke-width="0" stroke-linecap="butt"/><path d="" fill="url(#color-5)" stroke="none" stroke-width="0" stroke-linecap="butt"/><path d="" fill="url(#color-6)" stroke="none" stroke-width="0" stroke-linecap="butt"/><path d="M340.27525,349.98679c-10.6814,-2.50985 -38.93084,-4.15998 -38.93084,-4.15998l-12.38247,-34.56926c0,0 4.3546,-5.0489 10.1509,-11.26504c-0.46974,1.00145 -0.93564,2.0294 -1.41151,3.08255c-0.43406,0.96062 -2.26978,3.56134 -2.54328,4.45998c-1.73937,5.71509 -1.83227,10.84473 0,16.82166c1.02639,3.34811 5.13323,5.08746 9.12984,5.36962c0.59798,1.02529 1.1316,2.0921 1.81288,3.06367c0.23017,0.32824 0.80868,0.40224 0.90582,0.7912c0.26934,1.0784 -0.41916,2.3625 0.12402,3.33227c1.00879,1.80106 2.52515,3.37631 4.26011,4.49496c3.64902,2.35278 9.26929,0.59199 13.31651,1.48167c1.29996,0.28577 2.5345,0.85441 3.84927,1.06162c1.49671,0.23588 3.10055,-0.5438 4.54474,-0.08542c0.93721,0.29746 1.66836,1.08185 2.60255,1.38867c5.56966,1.82925 11.78256,1.24509 17.54622,1.24509c1.39256,0 7.10292,0.06524 8.08114,-0.25658c1.40659,-0.46276 2.46324,-1.6441 3.69487,-2.46615c2.6945,-2.6945 5.05182,-5.49385 7.70387,-8.18694c3.31702,-3.36836 8.27164,-4.68607 11.55566,-8.05479c1.61475,-1.6564 2.56011,-3.58466 3.30703,-5.60622l-0.00001,-0.00005c1.94254,-0.32965 3.5037,-1.77967 3.99542,-3.66198l0.96963,-3.39372l-0.27591,-0.07883c0.03843,-0.20985 0.07652,-0.42368 0.11365,-0.6409c0.34209,-0.68716 0.60343,-1.40862 0.75754,-2.1733l0.07422,-2.2783c1.65747,-2.44339 3.31882,-4.82243 4.58408,-7.654c0.52312,-1.17073 1.66566,-2.36027 1.34858,-3.60274c-0.08182,-0.32064 -0.17866,-0.63552 -0.28816,-0.94554h0.37838v-2.5c0,-0.61567 -0.11128,-1.20535 -0.31482,-1.75002c0.82398,-2.01398 2.05773,-3.87219 2.64731,-5.96663c1.09626,-3.89438 1.66119,-7.64012 2.93874,-11.43562c6.06308,-6.31654 5.86399,-10.42948 -0.59726,-16.89073c-1.48531,-1.48531 -5.50995,-1.03723 -7.72094,-1.65588c-6.55308,-1.83358 -13.69444,-1.40734 -20.19245,0.60007c-2.46184,0.76053 -5.40941,2.69985 -7.7734,3.01566c-1.1647,0.1556 -2.3351,0.32932 -3.50938,0.52127c-2.29,-0.05223 -5.04556,0.23568 -7.00956,1.35603c-0.35013,0.07834 -0.70029,0.15829 -1.05043,0.23986c2.35842,-2.52294 3.97963,-4.41694 3.97963,-4.41694c0,0 24.32508,-12.40326 30.18292,-3.83795c4.07075,5.95224 22.96685,-5.08031 25.73573,-0.57452c5.42948,8.8354 -13.663,73.10903 -13.663,73.10903c0,0 -11.30632,2.0587 -19.25943,7.87426c-7.0832,5.17948 -10.52425,13.94551 -16.18043,17.48694c-10.87471,6.80886 -15.89933,-0.03555 -27.18798,-2.68808z" data-paper-data="{&quot;index&quot;:null}" fill="url(#color-7)" stroke="none" stroke-width="0" stroke-linecap="butt"/><path d="M316.92533,125.79448c0,0 -0.49591,0.14707 -1.42658,0.39136c0.35971,-0.77311 0.61687,-1.56691 0.78242,-2.3729c0.58601,0.85249 0.84125,1.53823 0.64416,1.98154z" fill="#5b5b5b" stroke="none" stroke-width="0" stroke-linecap="butt"/><path d="M387.45879,171.8304c2.59158,0.5466 5.12785,4.88523 7.29121,4.6696c1.81858,-0.18127 3.20747,-1.61203 4.50456,-3.06187c1.89429,-0.71953 3.15674,-1.68003 5.48813,-1.96246c0.61476,-0.07448 1.42106,-0.70032 1.84145,-0.24563c1.78879,1.93472 3.76347,3.75575 6.21623,5.12879c1.10632,0.61931 2.44967,0.85368 3.41409,1.67671c1.31653,1.12351 1.28391,5.30672 1.63263,6.94504c0.84148,3.9534 2.14054,6.55518 5.36737,9.05496c0.65946,0.7075 0.50761,1.8715 0.87192,2.76745c0.30593,0.75237 1.09612,1.25858 1.34503,2.03168c0.17014,0.52844 -0.21414,1.10581 -0.15709,1.65802c0.30834,2.98458 0.77859,3.67583 1.83328,6.36426l3.36888,3.30329c0,0 0.22635,0.1509 0.60865,0.32951c0.85224,1.00055 2.24491,1.81587 4.48684,1.44221c4.05284,-0.67548 4.22019,-4.12629 4.15108,-5.33506c0.94146,-0.90924 1.52692,-2.18471 1.52692,-3.59691v-3.31142c0.11485,-2.12465 1.06888,-4.29365 1.44119,-6.42398c1.54772,-10.83404 2.68718,-21.33446 1.53447,-32.25729c-0.56243,-5.32944 0.91481,-11.02481 -0.04023,-16.30822c-0.27956,-1.54658 -0.7879,-2.98084 -1.39528,-4.36816c5.13446,7.24396 12.81382,12.4482 12.81382,12.4482c0,0 -8.47494,66.51163 -17.00875,72.4038c-4.352,3.00483 -17.18731,-14.71619 -23.31425,-10.91346c-8.81671,5.47215 -26.06584,-15.69428 -26.06584,-15.69428c0,0 -4.60578,-15.29663 -8.98123,-21.32886c-1.36124,-1.87669 -3.29285,-3.34003 -5.41163,-4.60523c0.82892,-0.0189 1.72312,-0.11598 2.68963,-0.30037c0.42934,-0.08191 0.82705,-0.2168 1.19801,-0.39648c1.04273,-0.34881 2.00891,-0.86473 2.86672,-1.51598c1.9815,0.41982 3.99514,1.00414 5.88219,1.40215z" data-paper-data="{&quot;index&quot;:null}" fill="url(#color-8)" stroke="none" stroke-width="0" stroke-linecap="butt"/><path d="M344.87606,121.47862l2.11587,-2.22867c-0.06579,3.79013 0.02693,7.56551 1.22833,11.16971c0,0.60362 0.05372,1.20332 0.13957,1.80042c-2.10397,-6.22033 -3.48378,-10.74146 -3.48378,-10.74146z" data-paper-data="{&quot;index&quot;:null}" fill="url(#color-9)" stroke="none" stroke-width="0" stroke-linecap="butt"/><path d="M366.42202,168.22152c-0.76935,-0.43869 -1.49022,-0.8902 -2.13926,-1.36765c0.43915,-0.03042 0.85916,-0.0854 1.25264,-0.15508c0.27423,0.52985 0.56804,1.03968 0.88662,1.52273z" data-paper-data="{&quot;index&quot;:null}" fill="url(#color-10)" stroke="none" stroke-width="0" stroke-linecap="butt"/><path d="M438.2306,130.52268c-0.30695,-0.62308 -0.62338,-1.21566 -0.95355,-1.79009c0.02922,-0.58999 0.04657,-1.17916 0.05002,-1.76706c0.2757,1.17564 0.56771,2.36722 0.90353,3.55715z" data-paper-data="{&quot;index&quot;:null}" fill="url(#color-11)" stroke="none" stroke-width="0" stroke-linecap="butt"/><path d="M10.39687,196.0208c2.2087,6.9354 -6.7927,10.6559 -7.7523,18.4497c-0.3281,2.6645 0.4197,6.5634 1.5459,10.5414c2.1682,7.6579 5.7392,15.6085 5.7392,15.6085l-13.3645,-7.6784c0,0 -5.9923,-7.9275 -6.2924,-16.7156c-0.2765,-8.0943 4.1648,-18.4464 6.7142,-22.5771c5.3172,-8.6154 11.2012,-4.5639 13.4099,2.3715z" data-paper-data="{&quot;index&quot;:null}" fill="url(#color-12)" stroke="#a19477" stroke-width="1.5" stroke-linecap="butt"/><path d="M0.32257,172.7793c-1.4111,-4.5133 -3.0487,-15.4528 -0.6742,-23.2909c2.578,-8.51 10.4813,-15.0949 10.4813,-15.0949l15.0255,-4.9352c0,0 -5.5489,7.0694 -9.6541,14.1212c-2.1324,3.663 -3.8753,7.3213 -4.2484,9.9815c-1.0914,7.781 6.7164,13.1257 2.7595,19.4654c-3.9568,6.3396 -10.7465,9.1665 -13.6896,-0.2471z" data-paper-data="{&quot;index&quot;:null}" fill="url(#color-13)" stroke="#a19477" stroke-width="1.5" stroke-linecap="butt"/><path d="M25.00187,177.1766c-1.4111,-4.5133 -3.0487,-15.4528 -0.6742,-23.2909c2.578,-8.51 10.4813,-15.0949 10.4813,-15.0949l15.0255,-4.9352c0,0 -5.5489,7.0694 -9.6541,14.1212c-2.1324,3.663 -3.8753,7.3213 -4.2484,9.9815c-1.0914,7.781 6.7164,13.1257 2.7595,19.4654c-3.9568,6.3396 -10.7465,9.1665 -13.6896,-0.2471z" data-paper-data="{&quot;index&quot;:null}" fill="url(#color-14)" stroke="#a19477" stroke-width="1.5" stroke-linecap="butt"/><path d="M36.17957,196.4993c2.2087,6.9354 -6.7927,10.6559 -7.7523,18.4497c-0.328,2.6645 0.4197,6.5635 1.5459,10.5414c2.1682,7.6579 5.7393,15.6086 5.7393,15.6086l-13.3646,-7.6785c0,0 -5.9923,-7.9274 -6.2924,-16.7156c-0.2765,-8.0943 4.1648,-18.4464 6.7142,-22.577c5.3172,-8.6155 11.2012,-4.5639 13.4099,2.3714z" data-paper-data="{&quot;index&quot;:null}" fill="url(#color-15)" stroke="#a19477" stroke-width="1.5" stroke-linecap="butt"/><path d="M45.95707,178.6291c-1.4558,-4.1738 -3.2035,-14.277 -0.9114,-21.4894c2.4886,-7.8307 10.3168,-13.8456 10.3168,-13.8456l14.9603,-4.4399c0,0 -5.4713,6.4796 -9.5003,12.9536c-2.093,3.363 -3.7968,6.7245 -4.1423,9.1755c-1.0108,7.1694 6.8438,12.158 2.9556,17.9763c-0.0003,0.0004 -0.0005,0.0008 -0.0008,0.0012c-1.7338,0.6565 -3.5207,1.1014 -5.4053,1.0614c0,0 -3.25,0 -3.25,3.25c0,0.346 0.0369,0.6552 0.1027,0.9315c-2.0291,-0.346 -3.8866,-2.0231 -5.1253,-5.5745z" data-paper-data="{&quot;index&quot;:null}" fill="url(#color-16)" stroke="#a19477" stroke-width="1.5" stroke-linecap="butt"/><path d="" fill="url(#color-17)" stroke="#7c715b" stroke-width="1.5" stroke-linecap="butt"/><path d="" fill="url(#color-18)" stroke="#7c715b" stroke-width="1.5" stroke-linecap="butt"/><path d="M57.32407,196.5144c2.2774,6.414 -6.6771,9.7785 -7.5562,16.9605c-0.3005,2.4554 0.4863,6.0575 1.6521,9.7354c2.2442,7.0802 5.893,14.441 5.893,14.441l-13.4298,-7.1831c0,0 -6.0673,-7.3575 -6.4569,-15.4663c-0.3589,-7.4685 3.9723,-16.9844 6.477,-20.7756c5.2239,-7.9073 11.1434,-4.126 13.4208,2.2881z" data-paper-data="{&quot;index&quot;:null}" fill="url(#color-19)" stroke="#a19477" stroke-width="1.5" stroke-linecap="butt"/><path d="M-34.09253,189.1363l2.6825,-20.3708c0,0 14.8109,-1.1079 34.7251,1.39c2.5588,0.3209 8.1494,4.9452 10.7444,5.2344c2.8075,0.3129 4.6165,-2.4674 7.4199,-2.1056c3.3373,0.4307 7.5142,4.9376 10.6924,5.2827c5.0006,0.5429 8.1196,-2.6009 12.4178,-2.0871c3.0327,0.3625 6.0361,2.7418 8.5752,3.7249c-0.9477,0.2941 -2.1851,1.0621 -2.1851,3.0674c0,2.2643 1.5776,2.9511 2.5345,3.1594c0.178,0.3394 0.4318,0.633 0.7388,0.8581l1.9767,1.4825l0.0768,-0.1024l0.1984,0.2818c1.1733,0.4693 2.3251,1.0316 3.3841,1.7255c0.5236,0.6355 1.2009,1.1395 1.9752,1.455c3.9642,3.0379 7.7504,6.2971 11.1147,9.8986c-4.7883,-0.2059 -9.7847,-0.5857 -14.4996,-1.2393c-2.926,-0.4056 -4.9801,-6.7138 -7.6228,-6.9691c-4.0678,-0.3931 -5.2776,3.247 -10.9731,4.0011c-3.3437,0.4428 -5.6806,-3.396 -10.4519,-4.0046c-3.3034,-0.4213 -9.1119,2.4103 -11.7209,2.2671c-2.7937,-0.1534 -4.2515,-5.2597 -7.0503,-5.5044c-2.8492,-0.2491 -7.0388,4.362 -9.8098,4.0467c-18.866,-2.1463 -34.943,-5.4919 -34.943,-5.4919z" fill="url(#color-20)" stroke="#a19477" stroke-width="1.5" stroke-linecap="butt"/><path d="M63.07757,176.7053c0.3131,0.0168 0.6273,0.0347 0.9424,0.0536c-0.0117,0.0742 -0.021,0.1493 -0.0277,0.2251c-2.1507,1.0509 -4.3261,2.1379 -6.6206,2.6831c1.8663,-1.1901 3.8944,-3.0594 5.7059,-2.9618z" fill="url(#color-21)" stroke="#a19477" stroke-width="1.5" stroke-linecap="butt"/><path d="M-39.5,384v-408h559v408zM168.84036,172.71789l-0.02323,0.06388l-0.17767,-0.12962c-0.07393,0.00803 -0.14785,0.01607 -0.22178,0.0241l0.01703,-0.07664l-4.17494,-0.92776c-1.42489,-1.19133 -2.94236,-2.20921 -4.21937,-2.2584c-0.54474,-0.21228 -1.10001,-0.40968 -1.60369,-0.65878c-1.68151,-0.83159 -3.28848,-1.82939 -5.03508,-2.5138c-1.58252,-0.62011 -3.42906,-0.35112 -5,-1c-7.13968,-2.94906 -15.72714,-4.70543 -22.04253,-9.42388c-2.06049,-2.06049 -4.49255,-4.34082 -6.99309,-5.85279c-1.82256,-1.10203 -4.24535,-1.63122 -5.72288,-3.36863c-0.64865,-0.76274 -0.74892,-1.98086 -1.56132,-2.56612c-0.32637,-0.23512 -0.65874,-0.48668 -0.99734,-0.74003c-0.19364,-0.51073 -0.60807,-1.01109 -1.4263,-1.33838c-0.33703,-0.13481 -0.6447,-0.20111 -0.92443,-0.21596c-0.86712,-0.44642 -1.7718,-0.72178 -2.71706,-0.63367c-1.70844,0.15924 -2.33938,2.5121 -3.45534,3.81545c-1.84381,2.15342 -2.89444,3.34799 -3.523,6.24077c-0.44403,2.04354 -0.10244,4.20774 -0.20297,6.32483c-0.12974,0.25486 -0.25852,0.51007 -0.38627,0.76563c-0.24266,0.61061 -0.49953,1.21245 -0.77063,1.80487c-0.14669,-0.02026 -0.29651,-0.03073 -0.44877,-0.03073c-0.0848,0 -0.16884,0.00325 -0.25201,0.00963c-0.50473,-0.32262 -1.10453,-0.50963 -1.74799,-0.50963c-1.07681,0 -2.0313,0.52368 -2.62269,1.33026l-1.12686,1.50248c-2.18972,1.01619 -3.19395,1.29699 -5.04855,3.11917c-0.59401,0.58363 -1.28416,1.81125 -2.01165,3.02166c-0.49248,-0.30045 -1.07115,-0.47356 -1.69025,-0.47356c-0.17524,0 -0.34724,0.01387 -0.51497,0.04057l-3.44465,0.49209l0.01139,0.07972c-0.1733,0.00503 -0.34689,0.01659 -0.52081,0.03545c-2.23227,0.24203 -3.96746,2.11754 -6.03803,2.98606c-1.22,0.51174 -2.53424,0.76076 -3.80136,1.14113l-0.28252,0.3234l-0.08116,-0.13527l-2.44892,1.46935c-0.89512,0.51611 -1.52123,1.44654 -1.61636,2.52931c-3.10774,1.51855 -6.26718,3.11229 -9.7626,3.03819c0,0 -3.25,0 -3.25,3.25c0,2.26431 1.57757,2.95105 2.53449,3.15933c0.17801,0.33948 0.43175,0.633 0.73879,0.85813l1.97672,1.48254l0.0768,-0.10239l0.19839,0.2818c1.17325,0.4693 2.32514,1.03162 3.38416,1.72551c0.52352,0.63547 1.20087,1.13946 1.97508,1.45499c8.47061,6.49119 16.12818,13.99303 20.59428,23.68473c0.7453,1.61734 2.31385,2.78448 2.97286,4.43885c0.65454,1.64314 0.39851,3.53336 0.90206,5.22887c0.73996,2.4915 1.19841,4.87588 1.72202,7.28763h-0.32566v2.20305l-1.80278,1.09279c0,0 -2.70416,1.80278 -0.90139,4.50694c1.80278,2.70416 4.50694,0.90139 4.50694,0.90139l0.72496,-0.62094c7.31639,-2.4388 14.65134,-5.02086 22.20083,-6.59858c5.89406,-1.23176 11.94063,-1.20133 17.85735,-2.28789c1.37903,-0.25325 2.69337,-0.60476 3.97351,-0.99507c0.0184,-0.00342 0.03679,-0.00686 0.05518,-0.01032c0.24001,-0.04525 0.46954,-0.12598 0.69421,-0.22332c0.89714,-0.28532 1.78015,-0.58423 2.65984,-0.87566c1.37361,-0.04334 2.7963,0.37931 4.14595,0.09898c1.69424,-0.3519 3.28041,-1.06477 4.76244,-1.9814c0.04777,-0.00083 0.09562,-0.00147 0.14355,-0.00192c1.59008,-0.51198 3.17822,-1.05397 4.76678,-1.59335c-0.00979,0.01566 -0.01949,0.03149 -0.02909,0.0475c-0.68148,0.65748 -1.78524,2.15638 -0.46243,4.14059c1.37546,2.06318 3.27562,1.50281 4.09915,1.12123c2.96196,0.34923 5.80193,0.09938 8.83695,0.31489c6.24,0.4431 12.54771,3.21792 18.88266,1.95243c3.12963,-0.62518 5.54845,-2.9041 8.19886,-4.49435l0.09848,-0.14775l0.03806,0.05075l0.60822,-0.45617c0.04548,0.0611 0.09333,0.11279 0.14368,0.15426c1.51243,1.24588 3.87446,0.96338 5.82584,0.78512c0.82988,-0.07581 1.20998,-1.23484 2,-1.5c1.57216,-0.52767 3.31391,0.16678 4.97226,0.16678c3.22591,-0.01537 7.25914,-0.01597 9.97693,-2.17042c3.15686,-2.5025 3.26233,-5.96641 3.27307,-9.57958c0.00826,-2.77967 0.00817,-5.55942 0.00606,-8.33917l0.03218,-0.00786c0,0 3.15296,-0.78824 2.36472,-3.9412c-0.41443,-1.65774 -1.48256,-2.22599 -2.40243,-2.39213c-0.00033,-0.60654 -0.00053,-1.21309 -0.00053,-1.81963c0,-4.23234 1.38177,-11.77025 -1.79825,-15.1334c-2.97821,-3.14972 -9.23862,-4.35207 -13.36584,-5.06335c-2.57048,-0.51455 -4.94995,-0.80343 -7.40761,-0.94374c-0.87882,-1.29468 -1.57256,-1.82023 -2.30337,-2.07812c-0.31229,-0.33415 -0.69428,-0.60234 -1.12278,-0.7814l-4.4322,-1.96987l-0.04882,0.10985l-0.28647,-0.23721c-5.88888,-1.19428 -12.25972,-2.4958 -18.15497,-1.37743zM217.78581,365.49396c0.09781,5.43822 4.53677,9.8166 9.99835,9.8166c2.76142,0 5.26142,-1.11929 7.07107,-2.92893l1.90062,-1.90062c1.49268,-1.54115 3.32913,-2.7077 4.97068,-4.0892c4.50514,-3.79143 7.97392,-8.60447 11.93599,-12.82292c2.00508,-2.13482 5.25918,-2.95288 7.00387,-5.3053c1.116,-1.50475 0.17324,-4.32653 1.74784,-5.34159c4.05422,-2.61353 6.29011,-6.59973 9.30419,-10.25995c1.66199,-2.01828 6.54768,-1.6922 8.52158,-3.41856l2.98396,-0.74599c4.45321,-1.01058 7.77758,-4.99315 7.77758,-9.75216c0,-5.52285 -4.47715,-10 -10,-10h-1.66928c-3.55468,-1.00631 -8.5741,-0.39294 -11.0428,-2.78439c-1.55926,-0.54405 -3.05555,-1.32284 -4.67777,-1.63215c-0.37522,-0.07154 -0.84742,-0.08913 -1.22766,0.03585c-0.08197,-0.08285 -0.14272,-0.17185 -0.15932,-0.27086c-0.13774,-0.82143 0.58648,-1.74172 0.21884,-2.48909c-2.28853,-4.65239 -3.08646,-11.69338 -8.0038,-13.3371c-2.09646,-0.70078 -4.50605,-0.36423 -6.76375,0.63247c-6.38874,-5.80422 -21.2754,-0.7177 -25.61029,0.45246c-0.36546,0.09865 -0.74418,0.19335 -1.13131,0.28743c-0.25588,-0.28249 -0.53595,-0.54157 -0.84159,-0.77314c-3.66444,-2.77638 -8.88192,-2.27704 -13.57087,-2.44293c-0.80104,-0.82153 -1.90146,-1.41354 -2.97772,-1.62542c-4.8411,-0.95305 -10.79284,-1.09556 -15.17182,1.52679c-6.08538,0.89084 -11.75208,3.04803 -13.60225,5.36997c-0.65337,0.81997 -1.20213,1.69328 -1.66824,2.60871l-0.52807,-0.3772l-1.45032,2.03045c-0.44761,0.18494 -0.90291,0.36235 -1.36351,0.53458c-6.81988,-1.8273 -16.70541,2.79641 -18.30562,9.07553c-0.85332,3.3484 -1.13046,6.41692 -0.97335,9.29163c-1.6464,1.90936 -3.00546,3.9889 -3.88065,6.18401c-1.24135,3.1135 -0.80654,6.71777 -0.41685,10.04688c0.26032,2.22389 1.58591,4.18835 2.33033,6.30005c1.44621,4.10246 3.35032,11.4057 6.33078,14.28956c2.75953,2.67009 7.15591,3.02527 10.96035,3.54547c3.96992,0.54282 7.46958,3.04136 11.40373,3.80124c3.04574,0.58829 13.28138,-0.01691 15.82351,-1.05413c1.40971,-0.57518 1.67119,-2.65577 2.94253,-3.49352c0.3947,-0.26009 0.86659,-0.35134 1.35696,-0.39991c0.89876,0.67826 1.76161,1.43142 2.58583,2.25736c3.61349,3.621 3.44044,6.39774 8.83479,8.71032c2.0591,0.88274 4.45184,0.50747 6.67777,0.7612c0,0 0.99422,0 2.35569,-0.31349zM295.82644,135.46666c2.20344,-0.16873 4.13973,-1.56677 6.27084,-2.15159c4.62786,-1.26999 10.00425,-1.32091 12.88276,-6.14921c4.21639,-7.07242 -1.00281,-16.2882 -6.65297,-20.60688c-0.62648,-0.47885 -1.32766,-0.83715 -2.05013,-1.16218c-0.00518,-0.15763 -0.01431,-0.31675 -0.02758,-0.47741c-0.16068,-1.94528 -0.47243,-4.06427 -1.65538,-5.61687c-1.03228,-1.35484 -2.96013,-1.69002 -4.48701,-2.44491c-2.87357,-1.42068 -4.87421,-2.29265 -8.00968,-3.17268c-5.81041,-1.6308 -11.87551,-2.7147 -17.57037,-4.85854c-2.63455,-0.99178 -5.55087,-1.85601 -8.19321,-2.94257c2.81976,-9.21728 -6.43541,-12.30233 -6.43541,-12.30233l-4.41139,-1.33435c-8.45051,0 -16.3367,-5.55477 -24.18351,-8.19685c-4.40212,-1.48223 -5.19894,-0.82201 -9.90488,-2.65575c-5.28072,-2.05771 -10.47934,-5.56245 -16.27806,-6.25298c-2.10616,-0.25081 -4.27064,0.39944 -6.36292,0.05131c-1.68273,-0.27999 -3.07278,-1.59784 -4.75155,-1.90063c-2.09026,-0.37701 -4.25846,0.11377 -6.3711,-0.10551c-5.53607,-0.5746 -10.76063,-1.91794 -16.4268,-1.97555c0,0 -10,0 -10,10c0,2.5175 0.63378,4.40122 1.58223,5.81072c-0.42592,0.44249 -0.85483,0.86044 -1.30011,1.17448c-3.38598,2.38802 -6.72184,4.84629 -10.08277,7.26944l-0.16151,0.70497c-0.05172,0.02802 -0.10317,0.0565 -0.15434,0.0854l-0.25893,-0.25893l-1.90062,1.90062c-1.80964,1.80965 -2.92893,4.30965 -2.92893,7.07107c0,5.09848 3.81555,9.30579 8.74697,9.92225c7.97318,10.78435 20.24702,14.14195 32.61473,17.71908c3.85735,1.11566 7.19713,3.62537 11.00536,4.89861c0.90127,0.30133 1.93455,-0.25167 2.85093,0c2.1626,0.59392 4.00226,2.08695 6.15383,2.71965c8.69231,2.5561 17.45604,6.05625 25.57774,10.09101l0.78703,-0.11939l-0.12248,0.36743l2.62949,0.8765c1.0568,0.37994 2.19609,0.58698 3.38372,0.58698c1.95246,0 3.77424,-0.55955 5.3137,-1.52705c3.83943,1.45292 7.56741,3.27793 11.52253,4.3285c2.9189,0.77534 5.45825,0.38151 8.37094,0.65046c4.49505,0.41508 8.6305,2.73038 13.21331,1.95247c2.51285,-0.42654 4.41739,-1.49461 6.11698,-2.82415c3.87824,0.32798 7.80417,1.15052 11.65855,0.85537zM439.72308,206.59691c0.94146,-0.90924 1.52692,-2.18471 1.52692,-3.59691v-3.31142c0.11485,-2.12465 1.06888,-4.29365 1.44119,-6.42398c1.54772,-10.83404 2.68718,-21.33446 1.53447,-32.25729c-0.56243,-5.32944 0.91481,-11.02481 -0.04023,-16.30822c-0.76785,-4.24778 -3.26142,-7.64825 -4.79305,-11.55605c-0.66693,-1.66732 -1.35465,-3.08701 -2.11533,-4.41045c0.09839,-1.98645 0.06216,-3.96349 -0.18591,-5.91475c-0.50433,-3.96691 0.20642,-8.44036 -1.88758,-11.8471c-0.94168,-1.53202 -2.41447,-2.57488 -4.1006,-3.34392c0.01499,-4.13898 -0.15413,-9.09343 -2.94075,-11.88005c-4.42229,-4.42229 -16.0799,-2.92893 -22.07107,-2.92893c-6,0 -12,0 -18,0c-3.40932,0 -7.2455,-0.3694 -10.60182,0.12913c-3.00175,0.44586 -5.99522,1.59101 -9,2c-6.22798,0.84771 -12.68708,-2.56935 -18.46925,2.79981c-2.56193,2.37893 -2.16449,6.65956 -2.92893,10.07107c-0.43731,1.9516 0,4 0,6c0,5.57112 -0.64697,11.27353 1.12913,16.60182c0,2.02759 0.60617,4.01103 1,6c0.38847,1.96191 -0.29384,4.0217 0,6c0.15487,1.04265 0.85092,1.9565 1,3c0.362,2.53377 -0.05582,5.26464 0.9458,7.62001c1.53992,3.6212 1.81865,8.59318 5.2065,10.59491c0.15817,0.09346 0.31881,0.17468 0.48172,0.24465c2.7278,3.1162 6.22231,3.25497 8.68112,2.81955c2.08982,4.03782 5.31664,6.91248 11.97646,5.64192c0.42934,-0.08191 0.82705,-0.2168 1.19801,-0.39648c1.04273,-0.34881 2.00891,-0.86473 2.86672,-1.51598c1.9815,0.41982 3.99514,1.00414 5.88219,1.40215c2.59158,0.5466 5.12785,4.88523 7.29121,4.6696c1.81858,-0.18127 3.20747,-1.61203 4.50456,-3.06187c1.89429,-0.71953 3.15674,-1.68003 5.48813,-1.96246c0.61476,-0.07448 1.42106,-0.70032 1.84145,-0.24563c1.78879,1.93472 3.76347,3.75575 6.21623,5.12879c1.10632,0.61931 2.44967,0.85368 3.41409,1.67671c1.31653,1.12351 1.28391,5.30672 1.63263,6.94504c0.84148,3.9534 2.14054,6.55518 5.36737,9.05496c0.65946,0.7075 0.50761,1.8715 0.87192,2.76745c0.30593,0.75237 1.09612,1.25858 1.34503,2.03168c0.17014,0.52844 -0.21414,1.10581 -0.15709,1.65802c0.30834,2.98458 0.77859,3.67583 1.83328,6.36426l3.36888,3.30329c0,0 0.22635,0.1509 0.60865,0.32951c0.85224,1.00055 2.24491,1.81587 4.48684,1.44221c4.05284,-0.67548 4.22019,-4.12629 4.15108,-5.33506zM387.59257,321.92931c1.94254,-0.32965 3.5037,-1.77967 3.99542,-3.66198l0.96963,-3.39372l-0.27591,-0.07883c0.03843,-0.20985 0.07652,-0.42368 0.11365,-0.6409c0.34209,-0.68716 0.60343,-1.40862 0.75754,-2.1733l0.07422,-2.2783c1.65747,-2.44339 3.31882,-4.82243 4.58408,-7.654c0.52312,-1.17073 1.66566,-2.36027 1.34858,-3.60274c-0.08182,-0.32064 -0.17866,-0.63552 -0.28816,-0.94554h0.37838v-2.5c0,-0.61567 -0.11128,-1.20535 -0.31482,-1.75002c0.82398,-2.01398 2.05773,-3.87219 2.64731,-5.96663c1.09626,-3.89438 1.66119,-7.64012 2.93874,-11.43562c6.06308,-6.31654 5.86399,-10.42948 -0.59726,-16.89073c-1.48531,-1.48531 -5.50995,-1.03723 -7.72094,-1.65588c-6.55308,-1.83358 -13.69444,-1.40734 -20.19245,0.60007c-2.46184,0.76053 -5.40941,2.69985 -7.7734,3.01566c-1.1647,0.1556 -2.3351,0.32932 -3.50938,0.52127c-2.29,-0.05223 -5.04556,0.23568 -7.00956,1.35603c-12.66541,2.83371 -25.36417,7.78205 -35.86832,14.97175c-2.01919,1.38206 -3.57449,3.43955 -5.53289,4.80716c-1.429,0.99791 -3.69692,1.50117 -5.25293,2.4715c-7.16456,4.46784 -10.01705,10.62604 -13.36277,18.03047c-0.43406,0.96062 -2.26978,3.56134 -2.54328,4.45998c-1.73937,5.71509 -1.83227,10.84473 0,16.82166c1.02639,3.34811 5.13323,5.08746 9.12984,5.36962c0.59798,1.02529 1.1316,2.0921 1.81288,3.06367c0.23017,0.32824 0.80868,0.40224 0.90582,0.7912c0.26934,1.0784 -0.41916,2.3625 0.12402,3.33227c1.00879,1.80106 2.52515,3.37631 4.26011,4.49496c3.64902,2.35278 9.26929,0.59199 13.31651,1.48167c1.29996,0.28577 2.5345,0.85441 3.84927,1.06162c1.49671,0.23588 3.10055,-0.5438 4.54474,-0.08542c0.93721,0.29746 1.66836,1.08185 2.60255,1.38867c5.56966,1.82925 11.78256,1.24509 17.54622,1.24509c1.39256,0 7.10292,0.06524 8.08114,-0.25658c1.40659,-0.46276 2.46324,-1.6441 3.69487,-2.46615c2.6945,-2.6945 5.05182,-5.49385 7.70387,-8.18694c3.31702,-3.36836 8.27164,-4.68607 11.55566,-8.05479c1.61475,-1.6564 2.56011,-3.58466 3.30703,-5.60622z" fill="url(#color-22)" stroke="none" stroke-width="0" stroke-linecap="butt"/><path d="" fill="url(#color-23)" stroke="none" stroke-width="0" stroke-linecap="butt"/><path d="" fill="url(#color-24)" stroke="none" stroke-width="0" stroke-linecap="butt"/><path d="" fill="url(#color-25)" stroke="none" stroke-width="0" stroke-linecap="butt"/><path d="M-39.5,384v-408h559v408zM168.84036,172.71789l-0.02323,0.06388l-0.17767,-0.12962c-0.07393,0.00803 -0.14785,0.01607 -0.22178,0.0241l0.01703,-0.07664l-4.17494,-0.92776c-1.42489,-1.19133 -2.94236,-2.20921 -4.21937,-2.2584c-0.54474,-0.21228 -1.10001,-0.40968 -1.60369,-0.65878c-1.68151,-0.83159 -3.28848,-1.82939 -5.03508,-2.5138c-1.58252,-0.62011 -3.42906,-0.35112 -5,-1c-7.13968,-2.94906 -15.72714,-4.70543 -22.04253,-9.42388c-2.06049,-2.06049 -4.49255,-4.34082 -6.99309,-5.85279c-1.82256,-1.10203 -4.24535,-1.63122 -5.72288,-3.36863c-0.64865,-0.76274 -0.74892,-1.98086 -1.56132,-2.56612c-0.32637,-0.23512 -0.65874,-0.48668 -0.99734,-0.74003c-0.19364,-0.51073 -0.60807,-1.01109 -1.4263,-1.33838c-0.33703,-0.13481 -0.6447,-0.20111 -0.92443,-0.21596c-0.86712,-0.44642 -1.7718,-0.72178 -2.71706,-0.63367c-1.70844,0.15924 -2.33938,2.5121 -3.45534,3.81545c-1.84381,2.15342 -2.89444,3.34799 -3.523,6.24077c-0.44403,2.04354 -0.10244,4.20774 -0.20297,6.32483c-0.12974,0.25486 -0.25852,0.51007 -0.38627,0.76563c-0.24266,0.61061 -0.49953,1.21245 -0.77063,1.80487c-0.14669,-0.02026 -0.29651,-0.03073 -0.44877,-0.03073c-0.0848,0 -0.16884,0.00325 -0.25201,0.00963c-0.50473,-0.32262 -1.10453,-0.50963 -1.74799,-0.50963c-1.07681,0 -2.0313,0.52368 -2.62269,1.33026l-1.12686,1.50248c-2.18972,1.01619 -3.19395,1.29699 -5.04855,3.11917c-0.59401,0.58363 -1.28416,1.81125 -2.01165,3.02166c-0.49248,-0.30045 -1.07115,-0.47356 -1.69025,-0.47356c-0.17524,0 -0.34724,0.01387 -0.51497,0.04057l-3.44465,0.49209l0.01139,0.07972c-0.1733,0.00503 -0.34689,0.01659 -0.52081,0.03545c-2.23227,0.24203 -3.96746,2.11754 -6.03803,2.98606c-1.22,0.51174 -2.53424,0.76076 -3.80136,1.14113l-0.28252,0.3234l-0.08116,-0.13527l-2.44892,1.46935c-0.89512,0.51611 -1.52123,1.44654 -1.61636,2.52931c-3.10774,1.51855 -6.26718,3.11229 -9.7626,3.03819c0,0 -3.25,0 -3.25,3.25c0,2.26431 1.57757,2.95105 2.53449,3.15933c0.17801,0.33948 0.43175,0.633 0.73879,0.85813l1.97672,1.48254l0.0768,-0.10239l0.19839,0.2818c1.17325,0.4693 2.32514,1.03162 3.38416,1.72551c0.52352,0.63547 1.20087,1.13946 1.97508,1.45499c8.47061,6.49119 16.12818,13.99303 20.59428,23.68473c0.7453,1.61734 2.31385,2.78448 2.97286,4.43885c0.65454,1.64314 0.39851,3.53336 0.90206,5.22887c0.73996,2.4915 1.19841,4.87588 1.72202,7.28763h-0.32566v2.20305l-1.80278,1.09279c0,0 -2.70416,1.80278 -0.90139,4.50694c1.80278,2.70416 4.50694,0.90139 4.50694,0.90139l0.72496,-0.62094c7.31639,-2.4388 14.65134,-5.02086 22.20083,-6.59858c5.89406,-1.23176 11.94063,-1.20133 17.85735,-2.28789c1.37903,-0.25325 2.69337,-0.60476 3.97351,-0.99507c0.0184,-0.00342 0.03679,-0.00686 0.05518,-0.01032c0.24001,-0.04525 0.46954,-0.12598 0.69421,-0.22332c0.89714,-0.28532 1.78015,-0.58423 2.65984,-0.87566c1.37361,-0.04334 2.7963,0.37931 4.14595,0.09898c1.69424,-0.3519 3.28041,-1.06477 4.76244,-1.9814c0.04777,-0.00083 0.09562,-0.00147 0.14355,-0.00192c1.59008,-0.51198 3.17822,-1.05397 4.76678,-1.59335c-0.00979,0.01566 -0.01949,0.03149 -0.02909,0.0475c-0.68148,0.65748 -1.78524,2.15638 -0.46243,4.14059c1.37546,2.06318 3.27562,1.50281 4.09915,1.12123c2.96196,0.34923 5.80193,0.09938 8.83695,0.31489c6.24,0.4431 12.54771,3.21792 18.88266,1.95243c3.12963,-0.62518 5.54845,-2.9041 8.19886,-4.49435l0.09848,-0.14775l0.03806,0.05075l0.60822,-0.45617c0.04548,0.0611 0.09333,0.11279 0.14368,0.15426c1.51243,1.24588 3.87446,0.96338 5.82584,0.78512c0.82988,-0.07581 1.20998,-1.23484 2,-1.5c1.57216,-0.52767 3.31391,0.16678 4.97226,0.16678c3.22591,-0.01537 7.25914,-0.01597 9.97693,-2.17042c3.15686,-2.5025 3.26233,-5.96641 3.27307,-9.57958c0.00826,-2.77967 0.00817,-5.55942 0.00606,-8.33917l0.03218,-0.00786c0,0 3.15296,-0.78824 2.36472,-3.9412c-0.41443,-1.65774 -1.48256,-2.22599 -2.40243,-2.39213c-0.00033,-0.60654 -0.00053,-1.21309 -0.00053,-1.81963c0,-4.23234 1.38177,-11.77025 -1.79825,-15.1334c-2.97821,-3.14972 -9.23862,-4.35207 -13.36584,-5.06335c-2.57048,-0.51455 -4.94995,-0.80343 -7.40761,-0.94374c-0.87882,-1.29468 -1.57256,-1.82023 -2.30337,-2.07812c-0.31229,-0.33415 -0.69428,-0.60234 -1.12278,-0.7814l-4.4322,-1.96987l-0.04882,0.10985l-0.28647,-0.23721c-5.88888,-1.19428 -12.25972,-2.4958 -18.15497,-1.37743zM217.78581,365.49396c0.09781,5.43822 4.53677,9.8166 9.99835,9.8166c2.76142,0 5.26142,-1.11929 7.07107,-2.92893l1.90062,-1.90062c1.49268,-1.54115 3.32913,-2.7077 4.97068,-4.0892c4.50514,-3.79143 7.97392,-8.60447 11.93599,-12.82292c2.00508,-2.13482 5.25918,-2.95288 7.00387,-5.3053c1.116,-1.50475 0.17324,-4.32653 1.74784,-5.34159c4.05422,-2.61353 6.29011,-6.59973 9.30419,-10.25995c1.66199,-2.01828 6.54768,-1.6922 8.52158,-3.41856l2.98396,-0.74599c4.45321,-1.01058 7.77758,-4.99315 7.77758,-9.75216c0,-5.52285 -4.47715,-10 -10,-10h-1.66928c-3.55468,-1.00631 -8.5741,-0.39294 -11.0428,-2.78439c-1.55926,-0.54405 -3.05555,-1.32284 -4.67777,-1.63215c-0.37522,-0.07154 -0.84742,-0.08913 -1.22766,0.03585c-0.08197,-0.08285 -0.14272,-0.17185 -0.15932,-0.27086c-0.13774,-0.82143 0.58648,-1.74172 0.21884,-2.48909c-2.28853,-4.65239 -3.08646,-11.69338 -8.0038,-13.3371c-2.09646,-0.70078 -4.50605,-0.36423 -6.76375,0.63247c-6.38874,-5.80422 -21.2754,-0.7177 -25.61029,0.45246c-0.36546,0.09865 -0.74418,0.19335 -1.13131,0.28743c-0.25588,-0.28249 -0.53595,-0.54157 -0.84159,-0.77314c-3.66444,-2.77638 -8.88192,-2.27704 -13.57087,-2.44293c-0.80104,-0.82153 -1.90146,-1.41354 -2.97772,-1.62542c-4.8411,-0.95305 -10.79284,-1.09556 -15.17182,1.52679c-6.08538,0.89084 -11.75208,3.04803 -13.60225,5.36997c-0.65337,0.81997 -1.20213,1.69328 -1.66824,2.60871l-0.52807,-0.3772l-1.45032,2.03045c-0.44761,0.18494 -0.90291,0.36235 -1.36351,0.53458c-6.81988,-1.8273 -16.70541,2.79641 -18.30562,9.07553c-0.85332,3.3484 -1.13046,6.41692 -0.97335,9.29163c-1.6464,1.90936 -3.00546,3.9889 -3.88065,6.18401c-1.24135,3.1135 -0.80654,6.71777 -0.41685,10.04688c0.26032,2.22389 1.58591,4.18835 2.33033,6.30005c1.44621,4.10246 3.35032,11.4057 6.33078,14.28956c2.75953,2.67009 7.15591,3.02527 10.96035,3.54547c3.96992,0.54282 7.46958,3.04136 11.40373,3.80124c3.04574,0.58829 13.28138,-0.01691 15.82351,-1.05413c1.40971,-0.57518 1.67119,-2.65577 2.94253,-3.49352c0.3947,-0.26009 0.86659,-0.35134 1.35696,-0.39991c0.89876,0.67826 1.76161,1.43142 2.58583,2.25736c3.61349,3.621 3.44044,6.39774 8.83479,8.71032c2.0591,0.88274 4.45184,0.50747 6.67777,0.7612c0,0 0.99422,0 2.35569,-0.31349zM295.82644,135.46666c2.20344,-0.16873 4.13973,-1.56677 6.27084,-2.15159c4.62786,-1.26999 10.00425,-1.32091 12.88276,-6.14921c4.21639,-7.07242 -1.00281,-16.2882 -6.65297,-20.60688c-0.62648,-0.47885 -1.32766,-0.83715 -2.05013,-1.16218c-0.00518,-0.15763 -0.01431,-0.31675 -0.02758,-0.47741c-0.16068,-1.94528 -0.47243,-4.06427 -1.65538,-5.61687c-1.03228,-1.35484 -2.96013,-1.69002 -4.48701,-2.44491c-2.87357,-1.42068 -4.87421,-2.29265 -8.00968,-3.17268c-5.81041,-1.6308 -11.87551,-2.7147 -17.57037,-4.85854c-2.63455,-0.99178 -5.55087,-1.85601 -8.19321,-2.94257c2.81976,-9.21728 -6.43541,-12.30233 -6.43541,-12.30233l-4.41139,-1.33435c-8.45051,0 -16.3367,-5.55477 -24.18351,-8.19685c-4.40212,-1.48223 -5.19894,-0.82201 -9.90488,-2.65575c-5.28072,-2.05771 -10.47934,-5.56245 -16.27806,-6.25298c-2.10616,-0.25081 -4.27064,0.39944 -6.36292,0.05131c-1.68273,-0.27999 -3.07278,-1.59784 -4.75155,-1.90063c-2.09026,-0.37701 -4.25846,0.11377 -6.3711,-0.10551c-5.53607,-0.5746 -10.76063,-1.91794 -16.4268,-1.97555c0,0 -10,0 -10,10c0,2.5175 0.63378,4.40122 1.58223,5.81072c-0.42592,0.44249 -0.85483,0.86044 -1.30011,1.17448c-3.38598,2.38802 -6.72184,4.84629 -10.08277,7.26944l-0.16151,0.70497c-0.05172,0.02802 -0.10317,0.0565 -0.15434,0.0854l-0.25893,-0.25893l-1.90062,1.90062c-1.80964,1.80965 -2.92893,4.30965 -2.92893,7.07107c0,5.09848 3.81555,9.30579 8.74697,9.92225c7.97318,10.78435 20.24702,14.14195 32.61473,17.71908c3.85735,1.11566 7.19713,3.62537 11.00536,4.89861c0.90127,0.30133 1.93455,-0.25167 2.85093,0c2.1626,0.59392 4.00226,2.08695 6.15383,2.71965c8.69231,2.5561 17.45604,6.05625 25.57774,10.09101l0.78703,-0.11939l-0.12248,0.36743l2.62949,0.8765c1.0568,0.37994 2.19609,0.58698 3.38372,0.58698c1.95246,0 3.77424,-0.55955 5.3137,-1.52705c3.83943,1.45292 7.56741,3.27793 11.52253,4.3285c2.9189,0.77534 5.45825,0.38151 8.37094,0.65046c4.49505,0.41508 8.6305,2.73038 13.21331,1.95247c2.51285,-0.42654 4.41739,-1.49461 6.11698,-2.82415c3.87824,0.32798 7.80417,1.15052 11.65855,0.85537zM439.72308,206.59691c0.94146,-0.90924 1.52692,-2.18471 1.52692,-3.59691v-3.31142c0.11485,-2.12465 1.06888,-4.29365 1.44119,-6.42398c1.54772,-10.83404 2.68718,-21.33446 1.53447,-32.25729c-0.56243,-5.32944 0.91481,-11.02481 -0.04023,-16.30822c-0.76785,-4.24778 -3.26142,-7.64825 -4.79305,-11.55605c-0.66693,-1.66732 -1.35465,-3.08701 -2.11533,-4.41045c0.09839,-1.98645 0.06216,-3.96349 -0.18591,-5.91475c-0.50433,-3.96691 0.20642,-8.44036 -1.88758,-11.8471c-0.94168,-1.53202 -2.41447,-2.57488 -4.1006,-3.34392c0.01499,-4.13898 -0.15413,-9.09343 -2.94075,-11.88005c-4.42229,-4.42229 -16.0799,-2.92893 -22.07107,-2.92893c-6,0 -12,0 -18,0c-3.40932,0 -7.2455,-0.3694 -10.60182,0.12913c-3.00175,0.44586 -5.99522,1.59101 -9,2c-6.22798,0.84771 -12.68708,-2.56935 -18.46925,2.79981c-2.56193,2.37893 -2.16449,6.65956 -2.92893,10.07107c-0.43731,1.9516 0,4 0,6c0,5.57112 -0.64697,11.27353 1.12913,16.60182c0,2.02759 0.60617,4.01103 1,6c0.38847,1.96191 -0.29384,4.0217 0,6c0.15487,1.04265 0.85092,1.9565 1,3c0.362,2.53377 -0.05582,5.26464 0.9458,7.62001c1.53992,3.6212 1.81865,8.59318 5.2065,10.59491c0.15817,0.09346 0.31881,0.17468 0.48172,0.24465c2.7278,3.1162 6.22231,3.25497 8.68112,2.81955c2.08982,4.03782 5.31664,6.91248 11.97646,5.64192c0.42934,-0.08191 0.82705,-0.2168 1.19801,-0.39648c1.04273,-0.34881 2.00891,-0.86473 2.86672,-1.51598c1.9815,0.41982 3.99514,1.00414 5.88219,1.40215c2.59158,0.5466 5.12785,4.88523 7.29121,4.6696c1.81858,-0.18127 3.20747,-1.61203 4.50456,-3.06187c1.89429,-0.71953 3.15674,-1.68003 5.48813,-1.96246c0.61476,-0.07448 1.42106,-0.70032 1.84145,-0.24563c1.78879,1.93472 3.76347,3.75575 6.21623,5.12879c1.10632,0.61931 2.44967,0.85368 3.41409,1.67671c1.31653,1.12351 1.28391,5.30672 1.63263,6.94504c0.84148,3.9534 2.14054,6.55518 5.36737,9.05496c0.65946,0.7075 0.50761,1.8715 0.87192,2.76745c0.30593,0.75237 1.09612,1.25858 1.34503,2.03168c0.17014,0.52844 -0.21414,1.10581 -0.15709,1.65802c0.30834,2.98458 0.77859,3.67583 1.83328,6.36426l3.36888,3.30329c0,0 0.22635,0.1509 0.60865,0.32951c0.85224,1.00055 2.24491,1.81587 4.48684,1.44221c4.05284,-0.67548 4.22019,-4.12629 4.15108,-5.33506z" fill="url(#color-26)" stroke="none" stroke-width="0" stroke-linecap="butt"/><path d="" fill="url(#color-27)" stroke="none" stroke-width="0" stroke-linecap="butt"/><path d="" fill="url(#color-28)" stroke="none" stroke-width="0" stroke-linecap="butt"/><path d="" fill="url(#color-29)" stroke="none" stroke-width="0" stroke-linecap="butt"/><path d="" data-paper-data="{&quot;index&quot;:null}" fill="url(#color-30)" stroke="#7c715b" stroke-width="1.5" stroke-linecap="butt"/><path d="" fill="url(#color-31)" stroke="url(#color-32)" stroke-width="1.5" stroke-linecap="butt"/><path d="" fill="url(#color-33)" stroke="#a19477" stroke-width="1.5" stroke-linecap="butt"/><path d="" fill="url(#color-34)" stroke="#a19477" stroke-width="1.5" stroke-linecap="butt"/><path d="" fill="url(#color-35)" stroke="#a19477" stroke-width="1.5" stroke-linecap="butt"/><path d="" fill="url(#color-36)" stroke="#a19477" stroke-width="1.5" stroke-linecap="butt"/><path d="" fill="url(#color-37)" stroke="#a19477" stroke-width="1.5" stroke-linecap="butt"/><path d="" fill="url(#color-38)" stroke="#a19477" stroke-width="1.5" stroke-linecap="butt"/><path d="" fill="url(#color-39)" stroke="#a19477" stroke-width="1.5" stroke-linecap="butt"/><path d="" fill="url(#color-40)" stroke="#a19477" stroke-width="1.5" stroke-linecap="butt"/><path d="" fill="url(#color-41)" stroke="#a19477" stroke-width="1.5" stroke-linecap="butt"/><path d="" fill="url(#color-42)" stroke="#a19477" stroke-width="1.5" stroke-linecap="butt"/><path d="" fill="#716652" stroke="none" stroke-width="0.5" stroke-linecap="butt"/><path d="M415.62181,200.9067c-7.77745,4.78392 -22.45712,-4.94067 -22.45712,-4.94067c0,0 -1.16346,-18.55135 -4.9928,-23.89521c2.34166,1.06543 4.61363,4.62499 6.5781,4.42918c1.81858,-0.18127 3.20747,-1.61203 4.50456,-3.06187c1.89429,-0.71953 3.15674,-1.68003 5.48813,-1.96246c0.61476,-0.07448 1.42106,-0.70032 1.84145,-0.24563c1.78879,1.93472 3.76347,3.75575 6.21623,5.12879c1.10632,0.61931 2.44967,0.85368 3.41409,1.67671c1.31653,1.12351 1.28391,5.30672 1.63263,6.94504c0.84148,3.9534 2.14054,6.55518 5.36737,9.05496c0.65946,0.7075 0.50761,1.8715 0.87192,2.76745c0.30593,0.75237 1.09612,1.25858 1.34503,2.03168c0.17014,0.52844 -0.21414,1.10581 -0.15709,1.65802c0.30834,2.98458 0.77859,3.67583 1.83328,6.36426l0.49117,0.48161c-4.28909,-3.88207 -9.00939,-8.25723 -11.97698,-6.43186z" data-paper-data="{&quot;index&quot;:null}" fill="url(#color-43)" stroke="none" stroke-width="0" stroke-linecap="butt"/><path d="" data-paper-data="{&quot;index&quot;:null}" fill="url(#color-44)" stroke="none" stroke-width="0" stroke-linecap="butt"/><path d="M445.4626,157.3756c0,0 -0.20766,5.57288 -0.76676,13.17888c0.0096,-3.15867 -0.13115,-6.33465 -0.47017,-9.54717c-0.24212,-2.29423 -0.10625,-4.65626 0.05085,-7.02406c0.79323,2.08408 1.18608,3.39235 1.18608,3.39235z" data-paper-data="{&quot;index&quot;:null}" fill="url(#color-45)" stroke="none" stroke-width="0" stroke-linecap="butt"/><path d="" data-paper-data="{&quot;index&quot;:null}" fill="url(#color-46)" stroke="none" stroke-width="0" stroke-linecap="butt"/><path d="M436.08388,212.19772c-0.7068,0.48364 -1.66373,0.29378 -2.78847,-0.31723c0.63923,0.16122 1.39177,0.19895 2.27658,0.05148c0.42944,-0.07157 0.81526,-0.17431 1.16179,-0.30223c-0.21179,0.22627 -0.42838,0.4164 -0.6499,0.56798z" data-paper-data="{&quot;index&quot;:null}" fill="url(#color-47)" stroke="none" stroke-width="0" stroke-linecap="butt"/><path d="" data-paper-data="{&quot;index&quot;:null}" fill="url(#color-48)" stroke="none" stroke-width="0" stroke-linecap="butt"/><path d="" data-paper-data="{&quot;index&quot;:null}" fill="url(#color-49)" stroke="none" stroke-width="0" stroke-linecap="butt"/><path d="" data-paper-data="{&quot;index&quot;:null}" fill="url(#color-50)" stroke="none" stroke-width="0" stroke-linecap="butt"/><path d="" data-paper-data="{&quot;index&quot;:null}" fill="url(#color-51)" stroke="none" stroke-width="0" stroke-linecap="butt"/><path d="M364.63766,344.73475c-4.95661,3.07464 -8.53843,2.93988 -12.22589,1.769c0.28037,-0.00239 0.55983,-0.00375 0.83823,-0.00375c1.39256,0 7.10292,0.06524 8.08114,-0.25658c1.40659,-0.46276 2.46324,-1.6441 3.69487,-2.46615c2.6945,-2.6945 5.05182,-5.49385 7.70387,-8.18694c0.13675,-0.13887 0.27629,-0.27425 0.41837,-0.40643c-2.94031,3.70794 -5.32073,7.57215 -8.51057,9.55084z" data-paper-data="{&quot;index&quot;:null}" fill="url(#color-52)" stroke="none" stroke-width="0" stroke-linecap="butt"/><path d="" data-paper-data="{&quot;index&quot;:null}" fill="url(#color-53)" stroke="none" stroke-width="0" stroke-linecap="butt"/><path d="M306.37766,338.54638c0,0 0.38494,-2.35425 0.36357,-5.29773c0.12657,0.08679 0.22924,0.18788 0.26535,0.33249c0.26934,1.0784 -0.41916,2.3625 0.12402,3.33227c0.34535,0.61657 0.75018,1.20667 1.2029,1.76106c-1.238,-0.08405 -1.95585,-0.12809 -1.95585,-0.12809z" data-paper-data="{&quot;index&quot;:null}" fill="url(#color-54)" stroke="none" stroke-width="0" stroke-linecap="butt"/><path d="" data-paper-data="{&quot;index&quot;:null}" fill="url(#color-55)" stroke="none" stroke-width="0" stroke-linecap="butt"/><path d="M393.15291,311.98058l0.07422,-2.2783c0.61034,-0.89974 1.22121,-1.79077 1.81264,-2.69887c-0.72959,2.0395 -1.4141,3.90521 -2.01611,5.52087c0.04902,-0.17882 0.09224,-0.36001 0.12926,-0.5437z" data-paper-data="{&quot;index&quot;:null}" fill="url(#color-56)" stroke="none" stroke-width="0" stroke-linecap="butt"/><path d="M398.93519,293.24998c0.5967,-1.45845 1.40828,-2.83521 2.03451,-4.27915c-0.5523,1.88371 -1.13587,3.78183 -1.7332,5.65874c-0.0353,-0.48206 -0.13896,-0.94515 -0.3013,-1.37959z" data-paper-data="{&quot;index&quot;:null}" fill="url(#color-57)" stroke="none" stroke-width="0" stroke-linecap="butt"/><path d="" data-paper-data="{&quot;index&quot;:null}" fill="url(#color-58)" stroke="none" stroke-width="0" stroke-linecap="butt"/><path d="" data-paper-data="{&quot;index&quot;:null}" fill="url(#color-59)" stroke="none" stroke-width="0" stroke-linecap="butt"/><path d="M358.35982,262.36577c0,0 0.13737,-0.02353 0.39133,-0.0611c-0.1572,0.0616 -0.3114,0.12707 -0.46213,0.19658c0.04663,-0.08884 0.0708,-0.13549 0.0708,-0.13549z" data-paper-data="{&quot;index&quot;:null}" fill="url(#color-60)" stroke="none" stroke-width="0" stroke-linecap="butt"/><path d="M403.45006,279.57411c-0.16361,0.7191 -0.33781,1.45128 -0.52136,2.19396c0.16841,-0.73284 0.33921,-1.46368 0.52136,-2.19396z" data-paper-data="{&quot;index&quot;:null}" fill="url(#color-61)" stroke="none" stroke-width="0" stroke-linecap="butt"/><path d="M387.59257,321.92931c0.02612,-0.00444 0.05218,-0.00907 0.07816,-0.0139c-0.03819,0.03796 -0.07671,0.07616 -0.11556,0.11461c0.01252,-0.03355 0.02499,-0.06711 0.0374,-0.10071z" data-paper-data="{&quot;index&quot;:null}" fill="url(#color-62)" stroke="none" stroke-width="0" stroke-linecap="butt"/><path d="M392.39536,314.15388c0.02618,-0.05258 0.05188,-0.10536 0.0771,-0.15834c-0.03086,0.08193 -0.06142,0.16298 -0.09167,0.24313c0.00487,-0.0282 0.00973,-0.05647 0.01457,-0.08479z" data-paper-data="{&quot;index&quot;:null}" fill="url(#color-63)" stroke="none" stroke-width="0" stroke-linecap="butt"/><path d="M413.10347,197.8095c-5.7728,-1.2366 -10.1034,-0.0907 -9.4729,-1.8599c0.6305,-1.7691 4.4744,-1.9683 10.2472,-0.7317c2.7094,0.5804 5.5869,-0.7983 7.1967,-0.4796c1.8202,0.3604 -0.1529,1.9644 -0.4875,2.9032c-0.2264,0.6353 2.0917,2.6886 1.1671,2.7554c0,0 -4.9507,-1.7948 -8.6506,-2.5874z" data-paper-data="{&quot;index&quot;:null}" fill="url(#color-64)" stroke="#a19477" stroke-width="1" stroke-linecap="butt"/><path d="M127.55577,314.34065c-2.20914,0 -4,-2.23858 -4,-5c0,-2.76142 1.79086,-5 4,-5c2.20914,0 4,2.23858 4,5c0,2.76142 -1.79086,5 -4,5z" data-paper-data="{&quot;index&quot;:null}" fill="url(#color-65)" stroke="none" stroke-width="0" stroke-linecap="butt"/><path d="M147.55577,274.34065c-4.97056,0 -9,-4.70101 -9,-10.5c0,-5.79899 4.02944,-10.5 9,-10.5c4.97056,0 9,4.70101 9,10.5c0,5.79899 -4.02944,10.5 -9,10.5z" data-paper-data="{&quot;index&quot;:null}" fill="url(#color-66)" stroke="none" stroke-width="0" stroke-linecap="butt"/><path d="M117.55577,293.34065c-3.31371,0 -6,-2.91015 -6,-6.5c0,-3.58985 2.68629,-6.5 6,-6.5c3.31371,0 6,2.91015 6,6.5c0,3.58985 -2.68629,6.5 -6,6.5z" data-paper-data="{&quot;index&quot;:null}" fill="url(#color-67)" stroke="none" stroke-width="0" stroke-linecap="butt"/><path d="M110.05577,352.34065c-2.48528,0 -4.5,-3.35786 -4.5,-7.5c0,-4.14214 2.01472,-7.5 4.5,-7.5c2.48528,0 4.5,3.35786 4.5,7.5c0,4.14214 -2.01472,7.5 -4.5,7.5z" data-paper-data="{&quot;index&quot;:null}" fill="url(#color-68)" stroke="none" stroke-width="0" stroke-linecap="butt"/><path d="M254.05577,267.34065c-3.58985,0 -6.5,-4.02944 -6.5,-9c0,-4.97056 2.91015,-9 6.5,-9c3.58985,0 6.5,4.02944 6.5,9c0,4.97056 -2.91015,9 -6.5,9z" data-paper-data="{&quot;index&quot;:null}" fill="url(#color-69)" stroke="none" stroke-width="0" stroke-linecap="butt"/><path d="M327.05577,220.34065c-3.58985,0 -6.5,-3.58172 -6.5,-8c0,-4.41828 2.91015,-8 6.5,-8c3.58985,0 6.5,3.58172 6.5,8c0,4.41828 -2.91015,8 -6.5,8z" data-paper-data="{&quot;index&quot;:null}" fill="url(#color-70)" stroke="none" stroke-width="0" stroke-linecap="butt"/><path d="M306.05577,214.34065c-2.48528,0 -4.5,-2.46243 -4.5,-5.5c0,-3.03757 2.01472,-5.5 4.5,-5.5c2.48528,0 4.5,2.46243 4.5,5.5c0,3.03757 -2.01472,5.5 -4.5,5.5z" data-paper-data="{&quot;index&quot;:null}" fill="url(#color-71)" stroke="none" stroke-width="0" stroke-linecap="butt"/><path d="M310.05577,180.34065c-3.03757,0 -5.5,-3.35786 -5.5,-7.5c0,-4.14214 2.46243,-7.5 5.5,-7.5c3.03757,0 5.5,3.35786 5.5,7.5c0,4.14214 -2.46243,7.5 -5.5,7.5z" data-paper-data="{&quot;index&quot;:null}" fill="url(#color-72)" stroke="none" stroke-width="0" stroke-linecap="butt"/><path d="M267.05577,160.34065c-3.58985,0 -6.5,-2.23858 -6.5,-5c0,-2.76142 2.91015,-5 6.5,-5c3.58985,0 6.5,2.23858 6.5,5c0,2.76142 -2.91015,5 -6.5,5z" data-paper-data="{&quot;index&quot;:null}" fill="url(#color-73)" stroke="none" stroke-width="0" stroke-linecap="butt"/><path d="M296.05577,247.34065c-2.48528,0 -4.5,-2.91015 -4.5,-6.5c0,-3.58985 2.01472,-6.5 4.5,-6.5c2.48528,0 4.5,2.91015 4.5,6.5c0,3.58985 -2.01472,6.5 -4.5,6.5z" data-paper-data="{&quot;index&quot;:null}" fill="url(#color-74)" stroke="none" stroke-width="0" stroke-linecap="butt"/><path d="M249.55577,151.34065c-5.52285,0 -10,-4.47715 -10,-10c0,-4.8373 3.43464,-8.8724 7.99826,-9.79961c2.93938,1.20699 5.85827,2.48014 8.91263,3.29146c0.2851,0.07573 0.56658,0.1403 0.84514,0.19543c1.40284,1.7215 2.24397,3.91888 2.24397,6.31272c0,5.52285 -4.47715,10 -10,10z" data-paper-data="{&quot;index&quot;:null}" fill="url(#color-75)" stroke="none" stroke-width="0" stroke-linecap="butt"/><path d="M221.05577,156.34065c-4.14214,0 -7.5,-3.35786 -7.5,-7.5c0,-4.14214 3.35786,-7.5 7.5,-7.5c4.14214,0 7.5,3.35786 7.5,7.5c0,4.14214 -3.35786,7.5 -7.5,7.5z" data-paper-data="{&quot;index&quot;:null}" fill="url(#color-76)" stroke="none" stroke-width="0" stroke-linecap="butt"/><path d="M291.55577,176.34065c-3.86599,0 -7,-4.25329 -7,-9.5c0,-5.24671 3.13401,-9.5 7,-9.5c3.86599,0 7,4.25329 7,9.5c0,5.24671 -3.13401,9.5 -7,9.5z" data-paper-data="{&quot;index&quot;:null}" fill="url(#color-77)" stroke="none" stroke-width="0" stroke-linecap="butt"/><path d="M219.05577,257.34065c-5.79899,0 -10.5,-3.35786 -10.5,-7.5c0,-4.14214 4.70101,-7.5 10.5,-7.5c5.79899,0 10.5,3.35786 10.5,7.5c0,4.14214 -4.70101,7.5 -10.5,7.5z" data-paper-data="{&quot;index&quot;:null}" fill="url(#color-78)" stroke="none" stroke-width="0" stroke-linecap="butt"/><path d="M179.42211,275.37093c-3.86599,0 -7,-2.68629 -7,-6c0,-3.31371 3.13401,-6 7,-6c3.86599,0 7,2.68629 7,6c0,3.31371 -3.13401,6 -7,6z" fill="url(#color-79)" stroke="none" stroke-width="0" stroke-linecap="butt"/><path d="M162.42211,103.37093c-3.32955,0 -6.11616,-3.15481 -6.82539,-7.38201c2.36613,2.94154 5.0726,5.29646 8.02076,7.24404c-0.38845,0.09071 -0.78784,0.13797 -1.19537,0.13797z" fill="url(#color-80)" stroke="none" stroke-width="0" stroke-linecap="butt"/><path d="M181.42211,128.37093c-2.76142,0 -5,-1.34315 -5,-3c0,-1.65685 2.23858,-3 5,-3c2.76142,0 5,1.34315 5,3c0,1.65685 -2.23858,3 -5,3z" fill="url(#color-81)" stroke="none" stroke-width="0" stroke-linecap="butt"/><path d="M212.42211,127.37093c-2.76142,0 -5,-2.01472 -5,-4.5c0,-0.88216 0.28204,-1.70503 0.7694,-2.39956c3.06165,0.9206 6.12939,1.95664 9.17208,3.09023c-0.36924,2.1574 -2.44101,3.80933 -4.94147,3.80933z" fill="url(#color-82)" stroke="none" stroke-width="0" stroke-linecap="butt"/><path d="M146.7379,55.37093c-5.34844,0 -9.68421,-3.35786 -9.68421,-7.5c0,-4.14214 4.33577,-7.5 9.68421,-7.5c5.34844,0 9.68421,3.35786 9.68421,7.5c0,4.14214 -4.33577,7.5 -9.68421,7.5z" fill="url(#color-83)" stroke="none" stroke-width="0" stroke-linecap="butt"/><path d="M181.92211,52.37093c-0.04591,0 -0.09171,-0.00033 -0.13739,-0.00099c-0.85083,-0.13553 -1.70061,-0.2719 -2.55228,-0.40114c-2.24767,-0.70822 -3.81033,-2.27671 -3.81033,-4.09788c0,-2.48528 2.91015,-4.5 6.5,-4.5c3.58985,0 6.5,2.01472 6.5,4.5c0,2.48528 -2.91015,4.5 -6.5,4.5z" fill="url(#color-84)" stroke="none" stroke-width="0" stroke-linecap="butt"/><path d="M138.42211,83.37093c-3.31371,0 -6,-2.01472 -6,-4.5c0,-2.48528 2.68629,-4.5 6,-4.5c3.31371,0 6,2.01472 6,4.5c0,2.48528 -2.68629,4.5 -6,4.5z" fill="url(#color-85)" stroke="none" stroke-width="0" stroke-linecap="butt"/><path d="M238.42211,64.37093c5.52285,0 10,2.68629 10,6c0,0.23966 -0.02342,0.47604 -0.06896,0.70835c-4.93032,-1.50083 -9.70989,-4.14137 -14.45406,-6.06099c1.35826,-0.41401 2.89522,-0.64737 4.52302,-0.64737z" fill="url(#color-86)" stroke="none" stroke-width="0" stroke-linecap="butt"/><path d="M271.42211,75.37093c-2.76142,0 -5,-2.23858 -5,-5c0,-2.76142 2.23858,-5 5,-5c2.76142,0 5,2.23858 5,5c0,2.76142 -2.23858,5 -5,5z" fill="url(#color-87)" stroke="none" stroke-width="0" stroke-linecap="butt"/><path d="M242.92211,54.37093c-3.58985,0 -6.5,-2.01472 -6.5,-4.5c0,-2.48528 2.91015,-4.5 6.5,-4.5c3.58985,0 6.5,2.01472 6.5,4.5c0,2.48528 -2.91015,4.5 -6.5,4.5z" fill="url(#color-88)" stroke="none" stroke-width="0" stroke-linecap="butt"/><path d="M209.42211,54.87093c0,-1.933 1.567,-3.5 3.5,-3.5c1.933,0 3.5,1.567 3.5,3.5c0,1.46831 -0.90416,2.72545 -2.18608,3.24502c-1.49074,-0.69604 -2.99904,-1.35504 -4.53969,-1.8846c-0.17659,-0.41821 -0.27423,-0.87791 -0.27423,-1.36042z" fill="url(#color-89)" stroke="none" stroke-width="0" stroke-linecap="butt"/><path d="M313.42211,82.37093c-4.97056,0 -9,-3.35786 -9,-7.5c0,-4.14214 4.02944,-7.5 9,-7.5c4.97056,0 9,3.35786 9,7.5c0,4.14214 -4.02944,7.5 -9,7.5z" fill="url(#color-90)" stroke="none" stroke-width="0" stroke-linecap="butt"/><path d="M288.92211,85.37093c-2.48528,0 -4.5,-2.23858 -4.5,-5c0,-2.76142 2.01472,-5 4.5,-5c2.48528,0 4.5,2.23858 4.5,5c0,2.76142 -2.01472,5 -4.5,5z" fill="url(#color-91)" stroke="none" stroke-width="0" stroke-linecap="butt"/><path d="M346.42211,60.37093c-4.41828,0 -8,-4.70101 -8,-10.5c0,-5.79899 3.58172,-10.5 8,-10.5c4.41828,0 8,4.70101 8,10.5c0,5.79899 -3.58172,10.5 -8,10.5z" fill="url(#color-92)" stroke="none" stroke-width="0" stroke-linecap="butt"/><path d="M338.92211,15.57093c-3.03757,0 -5.5,-2.95492 -5.5,-6.6c0,-3.64508 2.46243,-6.6 5.5,-6.6c3.03757,0 5.5,2.95492 5.5,6.6c0,3.64508 -2.46243,6.6 -5.5,6.6z" fill="url(#color-93)" stroke="none" stroke-width="0" stroke-linecap="butt"/><path d="M353.92211,28.37093c-2.48528,0 -4.5,-3.35786 -4.5,-7.5c0,-4.14214 2.01472,-7.5 4.5,-7.5c2.48528,0 4.5,3.35786 4.5,7.5c0,4.14214 -2.01472,7.5 -4.5,7.5z" fill="url(#color-94)" stroke="none" stroke-width="0" stroke-linecap="butt"/><path d="M332.42211,35.37093c-1.65685,0 -3,-2.01472 -3,-4.5c0,-2.48528 1.34315,-4.5 3,-4.5c1.65685,0 3,2.01472 3,4.5c0,2.48528 -1.34315,4.5 -3,4.5z" fill="url(#color-95)" stroke="none" stroke-width="0" stroke-linecap="butt"/><path d="M335.42211,77.37093c-3.31371,0 -6,-2.23858 -6,-5c0,-2.76142 2.68629,-5 6,-5c3.31371,0 6,2.23858 6,5c0,2.76142 -2.68629,5 -6,5z" fill="url(#color-96)" stroke="none" stroke-width="0" stroke-linecap="butt"/><path d="M398.65077,178.6512c6.0734,-2.6705 9.3846,-6.3418 9.8645,-4.5184c0.4799,1.8234 -2.9502,4.4242 -9.0236,7.0947c-2.8504,1.2533 -4.6799,4.1893 -6.3578,4.955c-1.8973,0.8657 -1.0382,-1.6772 -1.2929,-2.6448c-0.1723,-0.6547 -3.5457,-0.8346 -2.7319,-1.4753c1.4525,-1.1437 5.6492,-1.6996 9.5417,-3.4112z" fill="url(#color-97)" stroke="#a19477" stroke-width="1" stroke-linecap="butt"/><path d="M394.46217,201.078c-5.5247,-5.3484 -4.1146,-11.597 1.2337,-17.1217c1.5958,-1.6483 1.3666,-6.2523 3.206,-7.2601c3.1769,-1.7406 5.1943,0.1911 8.6073,2.6951c0.4227,0.3101 2.6135,-1.3579 3.5471,-1.2027c1.7921,0.2978 2.6386,2.3267 3.3154,2.9818c0.5782,0.5597 2.4531,1.4707 2.5423,2.9409c0.0752,1.2416 -1.6467,3.0453 -1.1709,3.7119c2.2284,3.1218 4.2888,4.8875 3.2116,7.567c-1.0232,2.545 -5.9613,1.9541 -8.0638,4.1259c-5.3484,5.5247 -10.9039,6.9103 -16.4287,1.5619z" fill="url(#color-98)" stroke="#a19477" stroke-width="1.5" stroke-linecap="butt"/><path d="M405.90925,184.63157c-1.10755,1.14407 -2.96786,1.13979 -4.1551,-0.00956c-1.18725,-1.14935 -1.25185,-3.00853 -0.14429,-4.15261c1.10755,-1.14407 2.96785,-1.13979 4.1551,0.00956c1.18725,1.14935 1.25185,3.00853 0.1443,4.1526z" fill="#000000" stroke="none" stroke-width="0" stroke-linecap="butt"/><path d="M414.64785,193.58607c-1.29604,1.33878 -3.47296,1.33377 -4.86225,-0.01118c-1.38929,-1.34494 -1.46489,-3.52054 -0.16884,-4.85933c1.29604,-1.33878 3.47294,-1.33378 4.86224,0.01118c1.3893,1.34495 1.4649,3.52054 0.16886,4.85933z" fill="#000000" stroke="none" stroke-width="0" stroke-linecap="butt"/><path d="M398.77267,187.1298l1.2055,0.8739l-0.9351,2.0256l1.22,1.7672l-1.7286,3.602l-2.9872,-0.5472l-1.9266,5.1689" fill="none" stroke="#a19477" stroke-width="0.5" stroke-linecap="round"/><path d="M400.56077,191.7917l2.9092,0.3251l0.5464,1.5547" fill="none" stroke="#a19477" stroke-width="0.5" stroke-linecap="round"/><path d="M400.57207,197.078l-1.7889,-0.1199l-0.2487,-1.5595" fill="none" stroke="#a19477" stroke-width="0.5" stroke-linecap="round"/><path d="M412.42917,179.8347l-1.3206,1.2128" fill="none" stroke="#a19477" stroke-width="1.5" stroke-linecap="round"/><path d="M414.35177,183.6009l0.952,-0.9834" fill="none" stroke="#a19477" stroke-width="1.5" stroke-linecap="round"/><path d="M412.23547,184.5916l-2.7515,0.9714l0.7591,-2.7764l0.5374,1.1898z" fill="#000000" stroke="#000000" stroke-width="0.5" stroke-linecap="butt"/><path d="M151.55707,176.3377c-1.4729,3.0641 -9.4331,3.1614 -17.7795,0.2173c-8.3464,-2.9441 -13.9184,-7.8147 -12.4455,-10.8788c1.473,-3.0641 9.4332,-3.1614 17.7796,-0.2173c8.3464,2.9441 13.9184,7.8147 12.4454,10.8788z" data-paper-data="{&quot;index&quot;:null}" fill="#000000" stroke="#a19477" stroke-width="1.5" stroke-linecap="butt"/><path d="M148.30287,218.2417c0.6392,3.2682 -6.0595,6.9531 -14.9618,8.2306c-8.9023,1.2774 -16.6371,-0.3364 -17.2762,-3.6046c-0.6392,-3.2682 6.0595,-6.9531 14.9618,-8.2305c8.9023,-1.2775 16.6371,0.3363 17.2762,3.6045z" fill="#000000" stroke="#a19477" stroke-width="1.5" stroke-linecap="butt"/><path d="M106.79307,238.2086l-1.0233,-0.0193c-2.8669,0.2515 -5.109,3.738 -7.7841,3.63c-0.2438,-0.0098 -0.4849,-0.0335 -0.7239,-0.0691l-0.0097,0.1165l-3.9764,-0.3314c-0.6037,-0.0439 -1.1479,-0.3022 -1.5569,-0.6991c-2.2953,1.8158 -4.6974,3.2405 -7.37,2.112c-1.2903,-0.5448 -1.4579,-2.3921 -2.1869,-3.5881c-2.1642,-5.1047 -2.2939,-10.8974 -4.9272,-15.845c-3.0477,-5.7262 -6.6111,-11.423 -8.7863,-17.6058c-2.0324,-5.7767 -3.9058,-11.1534 -8.1544,-15.8333c-1.7412,-1.918 -4.4237,-3.0366 -6.6806,-4.1632c-2.3276,-1.3786 -6.1237,-2.9787 -5.5868,-6.7786c0.2459,-1.7398 7.176,-4.859 8.9432,-5.4528c4.8922,-1.644 10.1425,-2.2954 15.0094,-4.0033c4.5313,-1.5901 8.09,-4.9998 12.4812,-6.9277c1.4331,-0.6292 3.5036,-1.9261 5.5585,-2.9184c0.038,-0.1714 0.0936,-0.3361 0.1648,-0.4923l0.9782,-2.2826c0.2597,-0.606 2.0646,-4.8649 2.2933,-5.1758c2.2194,-3.0164 5.6927,-5.0201 7.834,-8.0799c1.9046,-3.5624 1.6198,-5.4538 6.8739,-4.4918c0.7177,0.1314 3.9219,3.0901 4.7924,3.7291c2.41,1.7693 4.9211,2.6747 7.4222,4.1723c1.6952,1.015 3.1833,2.3667 4.9283,3.2934c3.6457,1.936 7.3423,3.3035 11.1104,4.8945c4.0159,1.6955 8.3204,3.7163 12.1815,5.7505c1.3895,0.732 4.0611,2.6082 5.7541,3.2239c2.3007,0.8365 4.6939,1.4139 6.9676,2.3212c7.922,2.6807 16.4033,3.708 24.4694,5.9368c4.6985,1.2984 9.3003,3.825 14.0806,4.6111c5.4228,0.8918 10.5237,0.8859 15.9182,2.2995c0.0018,0 0.0035,0 0.0053,0c1.0513,0 1.9511,0.649 2.3206,1.5682l0.9773,2.2804l-0.0927,0.0397l0.164,0.1469c0.0493,0.1975 0.1048,0.3933 0.1648,0.5878c0.2365,0.2985 0.3325,0.672 0.3739,1.0761c0.4519,1.1987 0.9762,2.3766 1.2077,3.6316c0.1812,0.9824 0.2899,1.9829 0.3422,2.9944c1.2912,7.074 0.7089,14.7517 0.7089,21.8416l0.2586,0.727c0,0 0.6064,2.4253 -1.819,3.0317c-0.0811,0.0203 -0.1601,0.0371 -0.2372,0.0508c0.0753,1.186 0.1303,2.3632 0.1309,3.5238c0.0012,2.4006 0.8658,9.0155 -0.7322,10.7678c-0.975,1.069 -2.8489,0.509 -4.2791,0.7274c-3.8451,0.5872 -7.9469,0.9872 -11.822,1.0048c-12.0782,0 -24.0606,1.0494 -36.1383,0.3295c-6.4269,-0.383 -12.2941,0.4298 -18.5801,-1.4349c0,0 -0.7654,-0.2296 -1.3009,-0.8619c-0.6872,0.2033 -1.3785,0.3925 -2.073,0.5671c-6.753,1.5007 -13.7374,3.2547 -20.6023,4.0482c-5.0116,0.5792 -10.3702,0.1921 -15.5153,0.0588c-0.3313,1.9599 -2.4568,1.9599 -2.4568,1.9599zM153.88507,227.1023c0.1341,0.5363 0.1199,0.9837 0.0165,1.3553c4.5233,0.6352 8.9988,0.1487 13.6964,0.4215c11.985,0.6961 23.8743,-0.3371 35.8617,-0.3371c3.0009,0.0164 5.8467,-0.4839 8.8447,-0.6619c0.8942,-0.0531 1.7758,-0.4277 2.6667,-0.3333c0.4245,0.045 0.8246,1.0874 1.0542,0.7274c0.2569,-0.4028 -0.6566,-0.7605 -0.7322,-1.2322c-0.176,-1.0971 0,-2.2223 0,-3.3334c0,-3.1063 -0.1691,-6.1148 -0.3302,-9.2088c-0.1485,-2.8505 -0.3316,-6.2612 0.0156,-9.0966c0.431,-3.5201 1.2684,-7.4125 1.3526,-11.1765c-0.0083,-0.089 -0.0168,-0.1779 -0.0254,-0.2668c-0.2852,-2.9589 -1.8438,-5.5766 -1.916,-8.5403l-0.4454,-1.1878c-5.0399,-1.2351 -9.801,-1.1989 -14.8944,-2.057c-4.9817,-0.8392 -9.7013,-3.3576 -14.586,-4.7222c-8.1998,-2.2907 -16.7765,-3.4002 -24.8641,-6.0632c-2.2935,-0.9196 -4.7168,-1.4826 -7.0323,-2.3454c-6.2237,-2.3191 -11.9154,-6.4443 -18.0645,-9.0257c-3.919,-1.6451 -7.7759,-3.0815 -11.5562,-5.1055c-4.3204,-2.3131 -9.0155,-4.9611 -12.9828,-7.8676c-0.7359,-0.5392 -1.432,-1.1332 -2.1047,-1.7493c-0.494,-0.4524 -1.2683,-1.8412 -1.5763,-1.2464c-0.3566,0.6886 -0.4352,1.4887 -0.6528,2.233c-2.2548,3.1169 -5.4229,5.2322 -7.8139,8.1445c0.8705,0.3909 1.4768,1.2655 1.4768,2.2816c0,0.2969 -0.0518,0.5818 -0.1468,0.846l-0.9815,2.9446l-0.1141,-0.038c-0.066,0.2482 -0.1471,0.4927 -0.2467,0.7327c-0.8803,2.1207 -6.6904,4.2686 -8.6783,5.1397c-4.3444,1.9035 -7.9985,4.5092 -12.2034,6.6054c-3.662,1.8257 -7.8617,2.7535 -11.7952,3.8456c-2.886,0.8013 -5.8414,1.1257 -8.553,2.4953c-1.2866,0.6498 -1.6614,1.1995 -2.2723,1.3003c0.58,0.2587 1.1112,0.6221 1.6709,0.9243c2.8008,1.4025 5.8181,2.8215 7.9861,5.1701c4.6848,5.0752 6.9743,11.1656 9.179,17.5c2.0891,6.0026 5.6158,11.4974 8.547,17.061c2.6869,5.1 2.8165,10.9577 5.0728,16.1549c-0.3639,2.0989 1.6851,-0.551 3.2174,-1.6932c3.48,-2.5941 5.9049,-4.2043 10.3465,-4.4848c7.8535,-0.4961 16.029,0.9518 23.8328,0.0149c6.6884,-0.803 13.4794,-2.4886 20.0644,-3.9519c1.705,-0.4235 3.3858,-0.955 5.0299,-1.5743l1.6048,-0.4179c0,0 2.4253,-0.6063 3.0317,1.819z" fill="#ff5500" stroke="none" stroke-width="0.5" stroke-linecap="butt"/><path d="M190.80687,52.4746c0.1838,2.4933 -2.3095,2.677 -2.3095,2.677l-2.8964,0.2135c-1.8344,0.1309 -3.3474,0.2808 -4.7174,0.5375c-3.0581,2.6265 -6.7398,4.7355 -9.8734,7.3676c-1.5313,2.1849 -3.003,4.3996 -4.4011,6.6573c-0.8223,2.3015 -1.623,4.5418 -1.6264,4.5505c-1.79,4.5762 -3.9271,9.0259 -5.8067,13.5662c-0.6337,1.5307 -0.9907,3.1955 -1.8456,4.6146l-1.7135,4.2837c0.022,0.443 0.0344,0.8865 0.0353,1.3308c0,0 0,2.5 -2.5,2.5c-2.5,0 -2.5,-2.5 -2.5,-2.5c0.0004,-0.1414 -0.0004,-0.2827 -0.0023,-0.4238c-0.3139,-0.0776 -0.6045,-0.2145 -0.8591,-0.3981c-0.0823,0.1077 -0.1698,0.2119 -0.2632,0.3124c-0.111,0.1193 -0.2274,0.2315 -0.3486,0.3375l0.0391,0.0391l-1.9006,1.9006l-0.5597,-0.5596c-0.7843,0.3305 -1.5899,0.6334 -2.3238,1.0291l-0.3009,-2.4366l-1.059,-0.149l0.527,-3.7452l0.052,0.0074l-0.0219,-0.1778c1.6877,-5.9331 2.7453,-13.1292 5.3755,-18.6842c0.1036,-0.2188 0.2106,-0.438 0.3209,-0.6574c1.3015,-8.5595 4.5203,-17.0873 8.1207,-24.7571c1.8143,-3.865 2.7307,-6.4571 6.5803,-8.8331c1.6688,-1.0301 3.8872,-3.0929 5.5268,-2.017c1.8363,1.205 1.415,4.2775 1.2567,6.4682c-0.1331,1.8412 -1.1293,3.8171 -2.2965,5.6504c1.484,-0.8063 3.149,-1.2715 4.7037,-1.9446l0.3266,0.0299l-0.0146,-0.0975l4.9004,-0.7373c0.1353,-0.0226 0.2742,-0.0344 0.4159,-0.0344c0.77,0 1.4587,0.3481 1.9174,0.8956l2.3382,-1.5485c0.4012,-0.2744 0.8865,-0.4348 1.4093,-0.4348c1.3807,0 2.5,1.1192 2.5,2.5c0,0.1511 -0.0134,0.2991 -0.0391,0.4429l1.1566,-0.0853c0,0 2.4932,-0.1837 2.677,2.3095zM160.56547,54.4207c1.263,-1.9001 2.5596,-3.7868 3.7342,-5.9088c0.2725,-0.4924 0.4718,-1.02 0.6568,-1.5544c-0.3716,0.3052 -0.7209,0.6302 -1.0026,1.0147c-1.2842,1.7529 -2.4071,4.0699 -3.3884,6.4485z" fill="#ff6100" stroke="none" stroke-width="0.5" stroke-linecap="butt"/><path d="M255.27699,357.45328c0,0 -2.94202,1.32774 -7.38445,2.69366c1.92761,-2.20654 3.78701,-4.46677 5.76999,-6.57805c2.00508,-2.13482 5.25918,-2.95288 7.00387,-5.3053c1.116,-1.50475 0.17324,-4.32653 1.74784,-5.34159c4.05422,-2.61353 6.29011,-6.59973 9.30419,-10.25995c1.66199,-2.01828 6.54768,-1.6922 8.52158,-3.41856l2.35306,-0.58826c-10.39169,12.93945 -27.31608,28.79805 -27.31608,28.79805z" data-paper-data="{&quot;index&quot;:null}" fill="url(#color-99)" stroke="none" stroke-width="0" stroke-linecap="butt"/><path d="M217.78581,365.49396c0.02933,1.63083 0.44906,3.16635 1.16969,4.51706c-6.14319,0.2298 -9.06171,-2.50272 -12.34848,-6.07714c0.6042,0.38293 1.30764,0.75325 2.14533,1.11237c2.0591,0.88274 4.45184,0.50747 6.67777,0.7612c0,0 0.99422,0 2.35569,-0.31349z" data-paper-data="{&quot;index&quot;:null}" fill="url(#color-100)" stroke="none" stroke-width="0" stroke-linecap="butt"/><path d="M268.28948,305.96095c-1.55926,-0.54405 -3.05555,-1.32284 -4.67777,-1.63215c-0.37522,-0.07154 -0.84742,-0.08913 -1.22766,0.03585c-0.08197,-0.08285 -0.14272,-0.17185 -0.15932,-0.27086c-0.13774,-0.82143 0.58648,-1.74172 0.21884,-2.48909c-0.65058,-1.32258 -1.1807,-2.83819 -1.71924,-4.36796c3.67635,2.20203 7.06321,5.18674 7.78743,8.9258c-0.07619,-0.06472 -0.15032,-0.13187 -0.22228,-0.20158z" data-paper-data="{&quot;index&quot;:null}" fill="url(#color-101)" stroke="none" stroke-width="0" stroke-linecap="butt"/><path d="M200.0664,357.47612c-1.10827,-0.88175 -2.52286,-1.89098 -4.13038,-2.97149c0.01281,-0.00884 0.02573,-0.01755 0.03875,-0.02613c0.39471,-0.2601 0.86661,-0.35134 1.35698,-0.39992c0.89875,0.67826 1.7616,1.43141 2.58582,2.25734c1.23738,1.23996 2.03075,2.38091 2.75571,3.43813c-0.79463,-0.76882 -1.65446,-1.54019 -2.60687,-2.29794z" data-paper-data="{&quot;index&quot;:null}" fill="url(#color-102)" stroke="none" stroke-width="0" stroke-linecap="butt"/><path d="M290.49577,314.40607c0.03865,0.33295 0.0269,0.69955 -0.03159,1.09688c-0.34102,-0.99546 -0.83469,-1.92007 -1.45309,-2.74587c0.86217,0.41569 1.40306,0.94589 1.48468,1.64899z" data-paper-data="{&quot;index&quot;:null}" fill="url(#color-103)" stroke="none" stroke-width="0" stroke-linecap="butt"/><path d="" data-paper-data="{&quot;index&quot;:null}" fill="url(#color-104)" stroke="none" stroke-width="0" stroke-linecap="butt"/><path d="" data-paper-data="{&quot;index&quot;:null}" fill="url(#color-105)" stroke="none" stroke-width="0" stroke-linecap="butt"/><path d="M293.35559,361.50932v-109.28571h171.0559v109.28571z" fill="url(#color-106)" stroke="none" stroke-width="0" stroke-linecap="butt"/><path d="M145.95527,319.8778c0.0329,-0.8569 0.3486,-1.6521 0.7531,-2.426c-0.6326,-1.109 -1.374,-2.0753 -1.9761,-2.6406c0,0 -1.1688,-1.1687 -0.6553,-2.5559l-1.2454,-1.2453v0c-0.4524,-0.4524 -0.7322,-1.0774 -0.7322,-1.7678c0,-1.3807 1.1193,-2.5 2.5,-2.5h2.851c1.4016,-0.2672 2.7797,-0.3125 3.8076,0.1903c0.9493,0.4644 1.7228,1.2031 2.4454,2c1.0163,-0.6121 2.5185,-0.4281 5.0178,1.3929c0.7202,0.5248 0.7987,3.5101 0.6981,5.8837c1.486,2.5088 2.4585,5.255 1.6263,7.5405c-0.1406,0.3862 -0.4224,0.6408 -0.7795,0.8277c0.0892,0.2569 0.1377,0.5329 0.1377,0.8202c0,1.3807 -1.1193,2.5 -2.5,2.5c-0.7609,0 -1.4423,-0.3399 -1.9008,-0.8761c-0.1764,0.1956 -0.3634,0.373 -0.5762,0.5082c-1.8261,2.3304 -4.294,4.0253 -7.4738,4.1181c-0.1685,0.0049 -0.336,0.0022 -0.5026,-0.0075v0.0586h-3.8013c-1.3807,0 -2.5,-1.1193 -2.5,-2.5c0,-0.8529 0.4271,-1.606 1.079,-2.0572c-0.0834,-0.2494 -0.1286,-0.5163 -0.1286,-0.7938c0,-1.3807 1.1192,-2.5 2.5,-2.5h1.3012v-3.4503h0.0504c-0.0037,-0.1728 -0.0025,-0.346 0.0042,-0.5197zM153.31127,321.715c-0.0685,-0.3175 -0.1369,-0.635 -0.2046,-0.9527c-0.0279,0.1913 -0.0531,0.3832 -0.0769,0.5756c0.0172,0.3234 0.0184,0.6448 0.0021,0.9629c0.0144,-0.0267 0.0287,-0.0536 0.0429,-0.0808c0.0867,-0.1657 0.1652,-0.3341 0.2364,-0.505z" fill="#989898" stroke="none" stroke-width="0.5" stroke-linecap="butt"/><path d="M202.70117,278.9651c1.7678,-1.7677 3.5355,0 3.5355,0l1.2161,1.2161c0.2721,0.2744 0.5499,0.5436 0.8297,0.8111c0.0382,-0.0422 0.0784,-0.0843 0.1206,-0.1265c1.7677,-1.7678 3.5355,0 3.5355,0c2.0748,2.0747 4.2259,4.834 6.9331,6.1741c0.7592,0.3759 2.936,0.9368 4.5151,1.3232c0.3213,-0.1897 0.6431,-0.3338 0.9686,-0.4093c0.1802,-0.0419 0.361,-0.0774 0.5425,-0.1073l-0.0124,-0.0619l4.7516,-0.9503l0.037,0.1851c1.5762,-1.207 3.1806,-2.382 5.1984,-2.8943c0.0575,-0.0146 0.1151,-0.0286 0.1729,-0.0419l-0.0067,-0.0201l2.7955,-0.9319c0.2642,-0.095 0.549,-0.1467 0.846,-0.1467c1.3807,0 2.5,1.1193 2.5,2.5c0,0.2969 -0.0518,0.5817 -0.1468,0.8459l-0.9319,2.7956l-0.1946,-0.0649l-0.0614,0.6062c-3.4781,3.408 -7.6175,4.8388 -11.9233,4.8224c-1.184,0.3946 -2.3292,0.7365 -3.4635,0.9417c-3.2515,1.2379 -6.8235,1.9247 -9.5427,0.9156c-0.1573,-0.0584 -0.3076,-0.1212 -0.4513,-0.1881c-1.1443,-0.4503 -2.2486,-1.2016 -3.2705,-2.3164c-1.7804,-1.9423 -2.2691,-4.8203 -3.9604,-6.8405c-0.999,-1.1932 -2.2111,-2.1902 -3.3166,-3.2853l-1.216,-1.216c0,0 -1.7678,-1.7678 0,-3.5355z" fill="#989898" stroke="none" stroke-width="0.5" stroke-linecap="butt"/><path d="M237.35077,368.5101c-1.3304,0.076 -2.5986,0.4627 -3.555,1.4192c-0.1387,0.1386 -0.2699,0.2826 -0.3944,0.4313c-0.3074,0.6517 -0.5669,1.2952 -0.774,1.9063v2.5468c0,1.3807 -1.1193,2.5 -2.5,2.5c-1.3808,0 -2.5,-1.1193 -2.5,-2.5v-0.057c-0.9542,0.8861 -1.9561,1.6297 -3.1762,1.6065c-4.1209,-0.0782 -5.1104,-1.762 -4.8084,-3.7637c-0.355,-0.4317 -0.5682,-0.9845 -0.5682,-1.5871c0,-0.7399 0.3214,-1.4048 0.8323,-1.8625l1.4087,-1.2724c0.6443,-0.9663 1.3546,-1.7116 2.12,-2.3094c0.6298,-1.4283 1.0908,-2.9847 2.2028,-4.0468c2.6521,-2.5331 6.0517,-2.0276 8.9346,-0.7196c1.5004,-1.2212 3.2177,-2.1594 5.163,-2.6705c1.8043,-0.4741 3.7309,-0.0481 5.5963,-0.0722c0,0 2.5,0 2.5,2.5c0,2.5 -2.5,2.5 -2.5,2.5c-1.2122,-0.0199 -2.4479,-0.2726 -3.6488,-0.1813l1.6153,1.6154c0.0516,0.0515 0.1009,0.1054 0.1478,0.1612c0.5017,0.2143 1.0437,0.447 1.6497,0.6917l0.2301,0.9178l0.3414,-0.1707l1.8781,3.7563c0.1829,0.3474 0.2864,0.7431 0.2864,1.163c0,1.3807 -1.1193,2.5 -2.5,2.5c-0.5253,0 -1.0128,-0.162 -1.4152,-0.4388l-2.8225,-1.8817l0.0037,-0.0055c-0.0123,-0.0057 -0.0247,-0.0114 -0.037,-0.0171c-1.3094,-0.6068 -2.5142,-1.6102 -3.7106,-2.6592z" fill="#989898" stroke="none" stroke-width="0.5" stroke-linecap="butt"/><path d="M159.37437,360.5133c-0.1151,-0.2966 -0.1778,-0.5701 -0.1997,-0.8215c-7.359,-7.0805 -15.9719,-13.4637 -22.4895,-21.3082l-0.2968,0.3721l-3.1377,-2.5025c-0.5841,-0.4576 -0.9595,-1.1695 -0.9595,-1.9691c0,-1.3807 1.1193,-2.5 2.5,-2.5c0.4317,0 0.8378,0.1094 1.1922,0.302l4.3975,2.2751l-0.0071,0.0136l0.0509,0.0096c0.5742,0.3265 1.1481,0.6534 1.7219,0.9804c0.2263,-1.148 1.2384,-2.0139 2.4528,-2.0139c0.5981,0 1.1471,0.21 1.5773,0.5603l3.8446,3.0757c1.1387,0.5822 2.2558,1.2431 3.3569,1.9577c5.4682,3.0529 10.7761,6.0833 15.7495,10.1926c0.1607,0.1328 7.7359,6.8729 7.7676,6.9298c0.0523,0.0938 0.102,0.1885 0.1493,0.2842l0.0449,-0.0299l1.8816,2.8225c0.2769,0.4024 0.4389,0.8899 0.4389,1.4152c0,1.3807 -1.1193,2.5 -2.5,2.5c-0.6904,0 -1.3154,-0.2798 -1.7678,-0.7322l-1.5912,-1.5913c-2.2069,-0.7803 -4.0232,-2.4495 -5.8285,-3.945c-2.1919,-1.8158 -4.4911,-3.4615 -6.7106,-5.2377c-1.7722,-0.8285 -3.4893,-1.9214 -5.5057,-2.9969c-0.5798,-0.3092 -1.1585,-0.6204 -1.7362,-0.9332c3.5126,3.2747 7.0067,6.574 10.3874,9.9525l-1.5478,4.3641c0,0 -2.3307,0.9046 -3.2352,-1.426z" fill="#989898" stroke="none" stroke-width="0.5" stroke-linecap="butt"/><path d="M189.59947,287.2174c1.118,2.236 -1.1181,3.3541 -1.1181,3.3541l-1.9006,0.9503c-2.261,1.1265 -4.8015,2.6349 -7.3697,3.0826c-0.8329,0.1451 -1.7336,-0.341 -2.5352,-0.0726c-0.9725,0.3258 -1.6031,1.306 -2.52,1.7657c-4.5353,2.2736 -9.7084,3.2621 -14.5113,4.863c0,0 -2.3717,0.7906 -3.1622,-1.5811c-0.7906,-2.3717 1.5811,-3.1623 1.5811,-3.1623c4.5356,-1.5119 9.4989,-2.4179 13.7798,-4.5527c1.1957,-0.5963 2.1329,-1.6993 3.4001,-2.123c1.0014,-0.3347 2.1239,0.0927 3.1667,-0.0725c1.6314,-0.2583 4.8371,-2.0684 5.9346,-2.6193l1.9007,-0.9503c0,0 2.236,-1.118 3.3541,1.1181z" fill="#989898" stroke="none" stroke-width="0.5" stroke-linecap="butt"/><path d="M275.87507,340.4696c-1.7677,-1.7677 0,-3.5355 0,-3.5355l0.638,-0.5693c3.9341,-5.9012 7.6908,-11.8731 11.3401,-17.9554c0,0 1.2862,-2.1437 3.43,-0.8575c2.1437,1.2863 0.8575,3.43 0.8575,3.43c-3.6901,6.1501 -7.4893,12.1893 -11.4674,18.1564l-1.2627,1.3313c0,0 -1.7677,1.7678 -3.5355,0z" fill="#989898" stroke="none" stroke-width="0.5" stroke-linecap="butt"/></g></g></svg>