<svg version="1.1" xmlns="http://www.w3.org/2000/svg" xmlns:xlink="http://www.w3.org/1999/xlink" width="381.4925" height="349.12873" viewBox="0,0,381.4925,349.12873"><defs><linearGradient x1="240" y1="43.01956" x2="240" y2="316.98046" gradientUnits="userSpaceOnUse" id="color-1"><stop offset="0" stop-color="#ff5500"/><stop offset="1" stop-color="#ffae00"/></linearGradient><radialGradient cx="219.10432" cy="283.26743" r="30.70805" gradientUnits="userSpaceOnUse" id="color-2"><stop offset="0" stop-color="#696969"/><stop offset="1" stop-color="#6a6a6a"/></radialGradient><radialGradient cx="347.76911" cy="152.61641" r="30.70805" gradientUnits="userSpaceOnUse" id="color-3"><stop offset="0" stop-color="#696969"/><stop offset="1" stop-color="#6a6a6a"/></radialGradient><radialGradient cx="76.99824" cy="215.06807" r="20.2784" gradientUnits="userSpaceOnUse" id="color-4"><stop offset="0" stop-color="#43403a"/><stop offset="1" stop-color="#e5d2a9"/></radialGradient><radialGradient cx="86.37524" cy="149.95517" r="20.2784" gradientUnits="userSpaceOnUse" id="color-5"><stop offset="0" stop-color="#43403a"/><stop offset="1" stop-color="#e5d2a9"/></radialGradient><radialGradient cx="102.09574" cy="152.50567" r="20.2784" gradientUnits="userSpaceOnUse" id="color-6"><stop offset="0" stop-color="#43403a"/><stop offset="1" stop-color="#e5d2a9"/></radialGradient><radialGradient cx="93.91384" cy="214.63937" r="20.2784" gradientUnits="userSpaceOnUse" id="color-7"><stop offset="0" stop-color="#43403a"/><stop offset="1" stop-color="#e5d2a9"/></radialGradient><radialGradient cx="114.81824" cy="156.48577" r="18.6855" gradientUnits="userSpaceOnUse" id="color-8"><stop offset="0" stop-color="#43403a"/><stop offset="1" stop-color="#e5d2a9"/></radialGradient><radialGradient cx="198.72234" cy="183.84847" r="33.2531" gradientUnits="userSpaceOnUse" id="color-9"><stop offset="0" stop-color="#43403a"/><stop offset="1" stop-color="#e5d2a9"/></radialGradient><radialGradient cx="107.92684" cy="211.86727" r="18.6855" gradientUnits="userSpaceOnUse" id="color-10"><stop offset="0" stop-color="#43403a"/><stop offset="1" stop-color="#e5d2a9"/></radialGradient><radialGradient cx="111.55434" cy="181.27137" r="45.1971" gradientUnits="userSpaceOnUse" id="color-11"><stop offset="0" stop-color="#e5d2a9"/><stop offset="1" stop-color="#b0a899"/></radialGradient><linearGradient x1="243.5" y1="40.59392" x2="243.5" y2="319.40608" gradientUnits="userSpaceOnUse" id="color-12"><stop offset="0" stop-color="#ffa600" stop-opacity="0"/><stop offset="1" stop-color="#ffa600"/></linearGradient><linearGradient x1="245" y1="40.59393" x2="245" y2="319.40609" gradientUnits="userSpaceOnUse" id="color-13"><stop offset="0" stop-color="#ff5500"/><stop offset="1" stop-color="#ff5500" stop-opacity="0"/></linearGradient><radialGradient cx="188.76494" cy="207.64347" r="5.0687" gradientUnits="userSpaceOnUse" id="color-14"><stop offset="0" stop-color="#43403a"/><stop offset="1" stop-color="#e5d2a9"/></radialGradient><radialGradient cx="193.40274" cy="178.52057" r="5.2142" gradientUnits="userSpaceOnUse" id="color-15"><stop offset="0" stop-color="#43403a"/><stop offset="1" stop-color="#e5d2a9"/></radialGradient><radialGradient cx="192.30304" cy="177.72667" r="5.2142" gradientUnits="userSpaceOnUse" id="color-16"><stop offset="0" stop-color="#43403a"/><stop offset="1" stop-color="#e5d2a9"/></radialGradient><radialGradient cx="146.33314" cy="191.50877" r="55.376" gradientUnits="userSpaceOnUse" id="color-17"><stop offset="0" stop-color="#e5d2a9"/><stop offset="1" stop-color="#9b9487"/></radialGradient><radialGradient cx="356.33825" cy="160.47131" r="36.62354" gradientUnits="userSpaceOnUse" id="color-18"><stop offset="0" stop-color="#727272"/><stop offset="1" stop-color="#918989"/></radialGradient><radialGradient cx="219.99078" cy="277.63253" r="35.44182" gradientUnits="userSpaceOnUse" id="color-19"><stop offset="0" stop-color="#727272"/><stop offset="1" stop-color="#918989"/></radialGradient><radialGradient cx="362.08024" cy="190.76187" r="5.9913" gradientUnits="userSpaceOnUse" id="color-20"><stop offset="0" stop-color="#f1ddb3"/><stop offset="1" stop-color="#c9c4b4"/></radialGradient><radialGradient cx="213.51534" cy="145.43727" r="134.6846" gradientUnits="userSpaceOnUse" id="color-21"><stop offset="0" stop-color="#727272"/><stop offset="1" stop-color="#918989"/></radialGradient><radialGradient cx="163.15976" cy="268.38664" r="3.41681" gradientUnits="userSpaceOnUse" id="color-22"><stop offset="0" stop-color="#696969"/><stop offset="1" stop-color="#6a6a6a"/></radialGradient><radialGradient cx="176.82702" cy="237.29362" r="7.17532" gradientUnits="userSpaceOnUse" id="color-23"><stop offset="0" stop-color="#696969"/><stop offset="1" stop-color="#6a6a6a"/></radialGradient><radialGradient cx="156.32613" cy="253.01097" r="4.44186" gradientUnits="userSpaceOnUse" id="color-24"><stop offset="0" stop-color="#696969"/><stop offset="1" stop-color="#6a6a6a"/></radialGradient><radialGradient cx="151.2009" cy="292.64603" r="5.12522" gradientUnits="userSpaceOnUse" id="color-25"><stop offset="0" stop-color="#696969"/><stop offset="1" stop-color="#6a6a6a"/></radialGradient><radialGradient cx="249.6052" cy="233.53512" r="6.15026" gradientUnits="userSpaceOnUse" id="color-26"><stop offset="0" stop-color="#696969"/><stop offset="1" stop-color="#6a6a6a"/></radialGradient><radialGradient cx="299.49071" cy="202.10042" r="5.46691" gradientUnits="userSpaceOnUse" id="color-27"><stop offset="0" stop-color="#696969"/><stop offset="1" stop-color="#6a6a6a"/></radialGradient><radialGradient cx="285.14008" cy="199.70864" r="3.7585" gradientUnits="userSpaceOnUse" id="color-28"><stop offset="0" stop-color="#696969"/><stop offset="1" stop-color="#6a6a6a"/></radialGradient><radialGradient cx="287.87353" cy="175.10758" r="5.12522" gradientUnits="userSpaceOnUse" id="color-29"><stop offset="0" stop-color="#696969"/><stop offset="1" stop-color="#6a6a6a"/></radialGradient><radialGradient cx="258.48892" cy="163.14872" r="4.44186" gradientUnits="userSpaceOnUse" id="color-30"><stop offset="0" stop-color="#696969"/><stop offset="1" stop-color="#6a6a6a"/></radialGradient><radialGradient cx="278.30644" cy="221.57627" r="4.44186" gradientUnits="userSpaceOnUse" id="color-31"><stop offset="0" stop-color="#696969"/><stop offset="1" stop-color="#6a6a6a"/></radialGradient><radialGradient cx="246.53006" cy="153.58164" r="6.83363" gradientUnits="userSpaceOnUse" id="color-32"><stop offset="0" stop-color="#696969"/><stop offset="1" stop-color="#6a6a6a"/></radialGradient><radialGradient cx="227.05421" cy="158.70685" r="5.12522" gradientUnits="userSpaceOnUse" id="color-33"><stop offset="0" stop-color="#696969"/><stop offset="1" stop-color="#6a6a6a"/></radialGradient><radialGradient cx="275.23132" cy="171.0074" r="6.49195" gradientUnits="userSpaceOnUse" id="color-34"><stop offset="0" stop-color="#696969"/><stop offset="1" stop-color="#6a6a6a"/></radialGradient><radialGradient cx="225.68748" cy="227.72654" r="7.17532" gradientUnits="userSpaceOnUse" id="color-35"><stop offset="0" stop-color="#696969"/><stop offset="1" stop-color="#6a6a6a"/></radialGradient><radialGradient cx="198.60331" cy="241.07281" r="4.78354" gradientUnits="userSpaceOnUse" id="color-36"><stop offset="0" stop-color="#696969"/><stop offset="1" stop-color="#6a6a6a"/></radialGradient><radialGradient cx="186.98613" cy="121.14258" r="6.49195" gradientUnits="userSpaceOnUse" id="color-37"><stop offset="0" stop-color="#696969"/><stop offset="1" stop-color="#6a6a6a"/></radialGradient><radialGradient cx="199.97003" cy="142.66852" r="3.41681" gradientUnits="userSpaceOnUse" id="color-38"><stop offset="0" stop-color="#696969"/><stop offset="1" stop-color="#6a6a6a"/></radialGradient><radialGradient cx="221.15429" cy="140.96011" r="3.41681" gradientUnits="userSpaceOnUse" id="color-39"><stop offset="0" stop-color="#696969"/><stop offset="1" stop-color="#6a6a6a"/></radialGradient><radialGradient cx="176.26812" cy="89.70787" r="6.61784" gradientUnits="userSpaceOnUse" id="color-40"><stop offset="0" stop-color="#696969"/><stop offset="1" stop-color="#6a6a6a"/></radialGradient><radialGradient cx="200.31171" cy="89.70787" r="4.44186" gradientUnits="userSpaceOnUse" id="color-41"><stop offset="0" stop-color="#696969"/><stop offset="1" stop-color="#6a6a6a"/></radialGradient><radialGradient cx="170.58541" cy="110.89213" r="4.10018" gradientUnits="userSpaceOnUse" id="color-42"><stop offset="0" stop-color="#696969"/><stop offset="1" stop-color="#6a6a6a"/></radialGradient><radialGradient cx="238.92173" cy="105.08354" r="6.83363" gradientUnits="userSpaceOnUse" id="color-43"><stop offset="0" stop-color="#696969"/><stop offset="1" stop-color="#6a6a6a"/></radialGradient><radialGradient cx="261.47271" cy="105.08354" r="3.41681" gradientUnits="userSpaceOnUse" id="color-44"><stop offset="0" stop-color="#696969"/><stop offset="1" stop-color="#6a6a6a"/></radialGradient><radialGradient cx="241.99686" cy="91.0746" r="4.44186" gradientUnits="userSpaceOnUse" id="color-45"><stop offset="0" stop-color="#696969"/><stop offset="1" stop-color="#6a6a6a"/></radialGradient><radialGradient cx="221.49597" cy="94.49141" r="2.39177" gradientUnits="userSpaceOnUse" id="color-46"><stop offset="0" stop-color="#696969"/><stop offset="1" stop-color="#6a6a6a"/></radialGradient><radialGradient cx="290.17397" cy="108.15868" r="6.15026" gradientUnits="userSpaceOnUse" id="color-47"><stop offset="0" stop-color="#696969"/><stop offset="1" stop-color="#6a6a6a"/></radialGradient><radialGradient cx="273.43157" cy="111.91717" r="3.41681" gradientUnits="userSpaceOnUse" id="color-48"><stop offset="0" stop-color="#696969"/><stop offset="1" stop-color="#6a6a6a"/></radialGradient><radialGradient cx="312.72495" cy="91.0746" r="7.17532" gradientUnits="userSpaceOnUse" id="color-49"><stop offset="0" stop-color="#696969"/><stop offset="1" stop-color="#6a6a6a"/></radialGradient><radialGradient cx="307.59973" cy="63.12504" r="4.51019" gradientUnits="userSpaceOnUse" id="color-50"><stop offset="0" stop-color="#696969"/><stop offset="1" stop-color="#6a6a6a"/></radialGradient><radialGradient cx="317.85017" cy="71.25707" r="5.12522" gradientUnits="userSpaceOnUse" id="color-51"><stop offset="0" stop-color="#696969"/><stop offset="1" stop-color="#6a6a6a"/></radialGradient><radialGradient cx="303.15787" cy="78.0907" r="3.07514" gradientUnits="userSpaceOnUse" id="color-52"><stop offset="0" stop-color="#696969"/><stop offset="1" stop-color="#6a6a6a"/></radialGradient><radialGradient cx="305.20795" cy="106.45027" r="4.10018" gradientUnits="userSpaceOnUse" id="color-53"><stop offset="0" stop-color="#696969"/><stop offset="1" stop-color="#6a6a6a"/></radialGradient><radialGradient cx="238.11643" cy="129.71997" r="45.26269" gradientUnits="userSpaceOnUse" id="color-54"><stop offset="0" stop-color="#727272"/><stop offset="1" stop-color="#918989"/></radialGradient><radialGradient cx="345.42924" cy="181.50187" r="6.6027" gradientUnits="userSpaceOnUse" id="color-55"><stop offset="0" stop-color="#f1ddb3"/><stop offset="1" stop-color="#c9c4b4"/></radialGradient><radialGradient cx="351.37284" cy="186.35207" r="9.7356" gradientUnits="userSpaceOnUse" id="color-56"><stop offset="0" stop-color="#f1ddb3"/><stop offset="1" stop-color="#c9c4b4"/></radialGradient><radialGradient cx="335.15399" cy="141.67884" r="4.44186" gradientUnits="userSpaceOnUse" id="color-57"><stop offset="0" stop-color="#696969"/><stop offset="1" stop-color="#6a6a6a"/></radialGradient><radialGradient cx="340.96258" cy="134.16184" r="2.39177" gradientUnits="userSpaceOnUse" id="color-58"><stop offset="0" stop-color="#696969"/><stop offset="1" stop-color="#6a6a6a"/></radialGradient><radialGradient cx="247.34183" cy="288.26023" r="3.07514" gradientUnits="userSpaceOnUse" id="color-59"><stop offset="0" stop-color="#696969"/><stop offset="1" stop-color="#6a6a6a"/></radialGradient><radialGradient cx="256.56723" cy="277.6681" r="4.44186" gradientUnits="userSpaceOnUse" id="color-60"><stop offset="0" stop-color="#696969"/><stop offset="1" stop-color="#6a6a6a"/></radialGradient><radialGradient cx="250.75864" cy="264.68421" r="3.07514" gradientUnits="userSpaceOnUse" id="color-61"><stop offset="0" stop-color="#696969"/><stop offset="1" stop-color="#6a6a6a"/></radialGradient><radialGradient cx="248.02519" cy="268.78439" r="2.39177" gradientUnits="userSpaceOnUse" id="color-62"><stop offset="0" stop-color="#696969"/><stop offset="1" stop-color="#6a6a6a"/></radialGradient><radialGradient cx="199.84809" cy="114.34431" r="2.73345" gradientUnits="userSpaceOnUse" id="color-63"><stop offset="0" stop-color="#696969"/><stop offset="1" stop-color="#6a6a6a"/></radialGradient><radialGradient cx="261.00909" cy="127.66989" r="1.70841" gradientUnits="userSpaceOnUse" id="color-64"><stop offset="0" stop-color="#696969"/><stop offset="1" stop-color="#6a6a6a"/></radialGradient><radialGradient cx="265.45095" cy="131.42839" r="2.73345" gradientUnits="userSpaceOnUse" id="color-65"><stop offset="0" stop-color="#696969"/><stop offset="1" stop-color="#6a6a6a"/></radialGradient></defs><g transform="translate(-51.25734,-7.88064)"><g data-paper-data="{&quot;isPaintingLayer&quot;:true}" fill-rule="nonzero" stroke-linejoin="miter" stroke-miterlimit="10" stroke-dasharray="" stroke-dashoffset="0" style="mix-blend-mode: normal"><path d="M62.48975,316.98046v-273.96091h355.02049v273.96091z" fill="url(#color-1)" stroke="none" stroke-width="0" stroke-linecap="butt"/><path d="M206.72001,303.38957c-5.95573,-4.55527 -23.10355,-13.4935 -23.10355,-13.4935l1.96023,-25.01642c0,0 21.03167,-9.82293 29.71641,-11.02245c3.93472,-0.54347 9.62486,4.01851 14.77131,3.47289c5.06405,-0.53688 14.93773,-5.19359 14.93773,-5.19359c0,0 18.63633,-0.921 19.88972,6.05849c0.87101,4.85023 15.73929,3.26361 16.20374,6.84765c0.91074,7.02793 -28.987,41.74845 -28.987,41.74845c0,0 -7.62444,-1.88235 -14.21047,-0.48389c-5.86567,1.2455 -10.46513,5.74651 -14.98258,6.37045c-8.68539,1.19961 -9.90121,-4.47384 -16.19553,-9.28806z" data-paper-data="{&quot;index&quot;:null}" fill="url(#color-2)" stroke="none" stroke-width="0" stroke-linecap="butt"/><path d="M241.0203,142.66927c-24.35185,-8.35377 -41.42178,-29.96298 -41.42178,-29.96298l47.36351,5.83174l31.44888,11.41733c0,0 15.12905,10.81615 14.15704,13.00259c0,0 -27.19578,8.06507 -51.54763,-0.28869z" fill="#5b5b5b" stroke="none" stroke-width="0" stroke-linecap="butt"/><path d="M319.19474,53.44817c0,0 5.9571,28.9824 -0.915,46.5523c-6.8721,17.57 -29.6676,22.1703 -47.0107,17.6438c-31.481,-8.2162 -62.772,-30.9343 -81.1312,-12.1676c-18.0953,18.497 55.0864,51.9533 59.7193,53.5881c27.1926,9.5955 51.5197,11.0304 55.573,34.7987c4.0533,23.7684 -38.1882,48.5691 -38.1882,48.5691c0,0 -14.1688,-3.4255 -21.0614,-2.3821c-7.0985,1.0745 -20.93,8.7386 -20.93,8.7386c0,0 -38.3114,-8.6887 -47.3725,8.1253c-14.6943,27.2671 -12.8417,56.953 -12.8417,56.953" data-paper-data="{&quot;index&quot;:null}" fill="none" stroke="#4f4f4f" stroke-width="25" stroke-linecap="round"/><path d="M372.17336,135.76653c2.55955,3.77433 2.29304,10.20418 5.29298,15.39627c3.36836,5.82973 9.86949,10.23548 9.86949,10.23548c0,0 -5.79146,45.4516 -11.62315,49.47809c-2.974,2.05339 -11.74517,-10.0565 -15.9321,-7.45786c-6.02502,3.73947 -17.81244,-10.72489 -17.81244,-10.72489c0,0 -3.14742,-10.45315 -6.13744,-14.57536c-3.03868,-4.18929 -10.23647,-5.36447 -12.46583,-8.65192c-4.92068,-7.25607 -11.6964,-29.45766 -11.6964,-29.45766l17.277,-18.19805c0,0 18.11735,6.76031 25.4879,8.13733c7.78957,1.45531 12.81896,-1.43804 17.74,5.81858z" data-paper-data="{&quot;index&quot;:null}" fill="url(#color-3)" stroke="none" stroke-width="0" stroke-linecap="butt"/><path d="M83.09764,190.94807c1.5094,4.7393 -4.6419,7.2818 -5.2976,12.6078c-0.2242,1.8208 0.2868,4.4852 1.0564,7.2036c1.4817,5.2331 3.922,10.6663 3.922,10.6663l-9.1328,-5.2471c0,0 -4.0949,-5.4174 -4.3,-11.4229c-0.189,-5.5313 2.8461,-12.6056 4.5882,-15.4283c3.6336,-5.8875 7.6545,-3.1188 9.1638,1.6206z" data-paper-data="{&quot;index&quot;:null}" fill="url(#color-4)" stroke="#a19477" stroke-width="1.5" stroke-linecap="butt"/><path d="M76.21324,175.06567c-0.9643,-3.0842 -2.0833,-10.5599 -0.4607,-15.9162c1.7617,-5.8154 7.1626,-10.3153 7.1626,-10.3153l10.2678,-3.3725c0,0 -3.7919,4.831 -6.5972,9.6499c-1.4573,2.5032 -2.6483,5.0032 -2.9032,6.821c-0.7459,5.3173 4.5897,8.9696 1.8857,13.3019c-2.7039,4.3323 -7.3438,6.2641 -9.355,-0.1688z" data-paper-data="{&quot;index&quot;:null}" fill="url(#color-5)" stroke="#a19477" stroke-width="1.5" stroke-linecap="butt"/><path d="M93.07814,178.07067c-0.9642,-3.0843 -2.0833,-10.5599 -0.4607,-15.9162c1.7617,-5.8155 7.1626,-10.3153 7.1626,-10.3153l10.2679,-3.3726c0,0 -3.792,4.831 -6.5973,9.6499c-1.4573,2.5033 -2.6483,5.0032 -2.9032,6.8211c-0.7458,5.3172 4.5897,8.9696 1.8857,13.3019c-2.7039,4.3322 -7.3437,6.2641 -9.355,-0.1688z" data-paper-data="{&quot;index&quot;:null}" fill="url(#color-6)" stroke="#a19477" stroke-width="1.5" stroke-linecap="butt"/><path d="M100.71664,191.27507c1.5094,4.7394 -4.6419,7.2818 -5.2976,12.6078c-0.2242,1.8208 0.2867,4.4852 1.0564,7.2036c1.4816,5.2331 3.922,10.6663 3.922,10.6663l-9.1329,-5.2471c0,0 -4.0949,-5.4174 -4.3,-11.4229c-0.1889,-5.5313 2.8461,-12.6056 4.5882,-15.4283c3.6336,-5.8875 7.6545,-3.1188 9.1639,1.6206z" data-paper-data="{&quot;index&quot;:null}" fill="url(#color-7)" stroke="#a19477" stroke-width="1.5" stroke-linecap="butt"/><path d="M107.39824,179.06317c-0.9948,-2.8522 -2.1892,-9.7564 -0.6229,-14.6851c1.7006,-5.3512 7.0502,-9.4615 7.0502,-9.4615l10.2233,-3.0341c0,0 -3.7389,4.4279 -6.4922,8.852c-1.4302,2.2982 -2.5945,4.5953 -2.8307,6.2702c-0.6907,4.8993 4.6768,8.3084 2.0198,12.2844c-2.6571,3.9759 -7.2726,5.7232 -9.3475,-0.2259z" data-paper-data="{&quot;index&quot;:null}" fill="url(#color-8)" stroke="#a19477" stroke-width="1.5" stroke-linecap="butt"/><path d="M139.67384,202.45187l6.8879,-30.9686c0,0 32.7245,0.0237 44.9175,6.4033c12.193,6.3796 18.2845,11.6589 15.9996,17.0565c-2.3731,5.6058 -10.8975,11.0124 -21.4025,13.9572c-10.505,2.9448 -46.4025,-6.4484 -46.4025,-6.4484z" fill="url(#color-9)" stroke="#7c715b" stroke-width="1.5" stroke-linecap="butt"/><path d="M115.16604,191.28527c1.5563,4.3831 -4.5629,6.6823 -5.1636,11.5903c-0.2054,1.6779 0.3323,4.1394 1.1289,6.6528c1.5337,4.8383 4.0271,9.8684 4.0271,9.8684l-9.1774,-4.9086c0,0 -4.1462,-5.0279 -4.4125,-10.5691c-0.2452,-5.1038 2.7146,-11.6066 4.4262,-14.1973c3.5698,-5.4036 7.615,-2.8196 9.1713,1.5635z" data-paper-data="{&quot;index&quot;:null}" fill="url(#color-10)" stroke="#a19477" stroke-width="1.5" stroke-linecap="butt"/><path d="M52.69524,186.24347l1.8331,-13.9207c0,0 10.1213,-0.7571 23.7299,0.9499c1.7486,0.2193 5.569,3.3793 7.3423,3.577c1.9186,0.2138 3.1548,-1.6862 5.0705,-1.4389c2.2806,0.2943 5.1349,3.3742 7.3068,3.61c3.4173,0.371 5.5487,-1.7774 8.4859,-1.4263c2.5184,0.3011 5.0073,2.6373 6.9332,2.8234c1.6505,0.1595 3.8424,-2.7695 5.7008,-2.6694c11.5694,0.6234 25.4058,3.2681 25.4058,3.2681l-1.8331,13.9207c0,0 -14.6965,0.9369 -26.715,-0.7292c-1.9995,-0.2771 -3.4032,-4.5879 -5.2091,-4.7624c-2.7798,-0.2686 -3.6066,2.2189 -7.4987,2.7342c-2.2849,0.3026 -3.8819,-2.3207 -7.1425,-2.7366c-2.2574,-0.2879 -6.2266,1.6471 -8.0096,1.5493c-1.9091,-0.1048 -2.9053,-3.5943 -4.8179,-3.7615c-1.947,-0.1703 -4.81,2.9808 -6.7037,2.7653c-12.8922,-1.4667 -23.8787,-3.7529 -23.8787,-3.7529z" fill="url(#color-11)" stroke="#a19477" stroke-width="1.5" stroke-linecap="butt"/><path d="M56,319.40608v-278.81217h375v278.81217z" fill="url(#color-12)" stroke="none" stroke-width="0" stroke-linecap="butt"/><path d="M59,319.40609v-278.81217h372v278.81217z" fill="url(#color-13)" stroke="none" stroke-width="0" stroke-linecap="butt"/><path d="M191.81214,204.13527c0.4311,0.7512 0.8034,2.5248 -0.2684,3.7017c-1.1637,1.2778 -4.2936,2.1101 -4.2936,2.1101l-5.7801,0.383c0,0 2.2524,-0.9713 3.9596,-1.978c0.8868,-0.5229 1.6266,-1.0554 1.8271,-1.4663c0.5864,-1.2018 -2.2396,-2.2538 -0.6043,-3.1518c1.6352,-0.898 4.2605,-1.1655 5.1597,0.4013z" data-paper-data="{&quot;index&quot;:null}" fill="url(#color-14)" stroke="#7c715b" stroke-width="1.5" stroke-linecap="butt"/><path d="M190.22534,181.33827c-1.4301,-1.1261 1.5654,-1.7449 1.2296,-3.0154c-0.1147,-0.4343 -0.7362,-1.0681 -1.5045,-1.7142c-1.479,-1.2437 -3.5021,-2.5332 -3.5021,-2.5332l5.6164,1.231c0,0 2.9154,1.2821 3.8045,2.7127c0.8189,1.3175 0.0952,3.0096 -0.4807,3.6858c-1.2011,1.4106 -3.7332,0.7594 -5.1632,-0.3667z" fill="url(#color-15)" stroke="url(#color-16)" stroke-width="1.5" stroke-linecap="butt"/><path d="M206.90634,196.44197l7.7559,3.8755l6.077,0.0464c0,0 -6.5112,2.0385 -18.3448,3.5361c-2.5451,0.3221 -8.1829,-0.1569 -8.1829,-0.1569c0,0 -13.9262,5.0841 -20.563,4.4428c-8.2672,-0.7988 -37.1009,12.8724 -37.1009,12.8724c0,0 1.2147,-13.4793 -5.0141,-22.3207c-5.1276,-7.2782 -17.1951,-14.1626 -17.1951,-14.1626c0,0 20.5698,-7.4129 22.7379,-10.032c9.1036,-10.9972 11.5694,-20.3502 11.5694,-20.3502c0,0 23.4981,18.672 30.0943,20.3428c6.7427,1.7078 19.9015,11.1011 19.9015,11.1011c0,0 3.0399,0.6663 4.2179,1.1972c11.5683,5.2137 21.566,9.5454 21.566,9.5454l-7.6624,-2.3204z" fill="url(#color-17)" stroke="#a19477" stroke-width="1.5" stroke-linecap="butt"/><path d="M177.00464,203.80217c0.4367,2.2333 -4.1409,4.7515 -10.2244,5.6244c-6.0835,0.873 -11.3692,-0.2299 -11.8059,-2.4632c-0.4368,-2.2334 4.1408,-4.7515 10.2243,-5.6245c6.0835,-0.8729 11.3692,0.2299 11.806,2.4633z" fill="#000000" stroke="#a19477" stroke-width="1.5" stroke-linecap="butt"/><path d="M182.54004,180.05597c-1.0066,2.0938 -6.4463,2.1603 -12.1499,0.1485c-5.7036,-2.0119 -9.5113,-5.3403 -8.5048,-7.4342c1.0066,-2.0939 6.4463,-2.1604 12.1499,-0.1485c5.7036,2.0119 9.5114,5.3403 8.5048,7.4342z" data-paper-data="{&quot;index&quot;:null}" fill="#000000" stroke="#a19477" stroke-width="1.5" stroke-linecap="butt"/><path d="M204.00354,196.49057l-19.0177,-3.0815" fill="none" stroke="#7c715b" stroke-width="1.5" stroke-linecap="round"/><path d="M195.80384,196.74397l1.2441,5.7937" fill="none" stroke="#716652" stroke-width="1.5" stroke-linecap="round"/><path d="M196.84664,192.78737l4.1069,-5.2767" fill="none" stroke="#716652" stroke-width="1.5" stroke-linecap="round"/><path d="M205.72024,193.98857l3.2664,-3.4667" fill="none" stroke="#716652" stroke-width="1.5" stroke-linecap="round"/><path d="M206.54404,202.97387l-1.6658,-4.1152" fill="none" stroke="#716652" stroke-width="1.5" stroke-linecap="round"/><path d="M171.56964,198.31217c-0.3259,0.4299 -0.8277,0.1507 -0.8277,0.1507l-0.1152,-0.1286c-1.6624,-0.1767 -2.4184,-0.9661 -4.2422,-0.7576c-4.3986,-0.409 -10.6152,-0.6385 -12.8334,3.4605c-2.0853,2.0979 -1.993,6.2239 -0.4289,8.4792c0.0913,0.1317 1.5204,0.1678 1.5587,0.1715c0,0 0.5945,0.0574 0.5275,0.5667c-0.0671,0.5093 -0.6616,0.4519 -0.6616,0.4519c-0.7276,-0.0703 -1.8167,-0.0215 -2.3603,-0.5511c-2.2651,-2.2068 -1.7187,-7.5408 0.3553,-9.6689c2.3875,-4.4117 9.0483,-4.417 13.8306,-3.9348c1.8301,-0.2092 2.7815,0.6302 4.3884,0.764l0.6329,0.2876c0,0 0.5018,0.2791 0.1759,0.7089z" fill="#7c715b" stroke="none" stroke-width="0.5" stroke-linecap="butt"/><path d="M179.83734,184.78267c-0.0671,0.5093 -0.6616,0.4518 -0.6616,0.4518l-0.3964,-0.0383c-2.8693,-0.2772 -5.0957,-1.1384 -7.7362,-1.9715c-2.9403,-1.1655 -6.7316,-2.144 -9.2854,-3.8846c-0.5759,-0.3925 -0.8911,-1.3154 -1.4887,-1.6452c-1.2838,-0.7086 -1.6363,-0.6953 -2.4194,-1.9715c-1.6112,-2.6793 -1.6797,-6.3005 2.4366,-7.5629c0.9599,-0.2944 2.0855,-0.0228 3.0649,0.0718c0,0 0.5946,0.0574 0.5275,0.5667c-0.067,0.5093 -0.6616,0.4519 -0.6616,0.4519c-0.7415,-0.0717 -1.8012,-0.3619 -2.5289,-0.1249c-3.4158,1.1127 -3.0832,3.9521 -1.7747,6.128c0.1959,0.3311 0.2285,0.7241 0.4417,1.0473c0.3101,0.47 1.0908,0.2718 1.4929,0.4965c0.7315,0.4088 1.0073,1.3018 1.6762,1.7552c2.4607,1.6679 6.1553,2.602 8.9801,3.7258c2.5384,0.8256 4.6589,1.6331 7.4091,1.8988l0.3964,0.0383c0,0 0.5945,0.0575 0.5275,0.5668z" fill="#7c715b" stroke="none" stroke-width="0.5" stroke-linecap="butt"/><path d="M174.37184,197.51357c-0.4678,0.3195 -0.8408,-0.0812 -0.8408,-0.0812l-0.562,-0.6078c-1.1626,-1.9334 -2.9732,-1.4822 -5.1332,-1.6826c0,0 -0.5946,-0.0575 -0.5275,-0.5668c0.0671,-0.5093 0.6616,-0.4518 0.6616,-0.4518c2.5039,0.2536 4.6311,-0.1383 6.0037,2.1442l0.4931,0.5257c0,0 0.3729,0.4008 -0.0949,0.7203z" fill="#a19477" stroke="none" stroke-width="0.5" stroke-linecap="butt"/><path d="M176.35644,185.30597c0.5945,0.0574 0.5275,0.5667 0.5275,0.5667l-0.1375,0.5612c-1.4229,1.6767 -4.1146,1.091 -6.2745,0.8823c0,0 -0.5945,-0.0574 -0.5274,-0.5667c0.067,-0.5093 0.6616,-0.4518 0.6616,-0.4518c1.397,0.1349 4.3954,0.799 5.1367,-0.4221l-0.048,-0.1178c0,0 0.0671,-0.5093 0.6616,-0.4518z" fill="#a19477" stroke="none" stroke-width="0.5" stroke-linecap="butt"/><path d="M183.53414,193.28907c-0.0671,0.5093 -0.6617,0.4518 -0.6617,0.4518l-0.5945,-0.0574c-2.5341,-0.2449 -4.8817,-0.3837 -7.0835,-1.5985c0,0 -0.5018,-0.2792 -0.1759,-0.709c0.3259,-0.4298 0.8277,-0.1507 0.8277,-0.1507c2.0199,1.1343 4.2314,1.214 6.5658,1.4396l0.5946,0.0574c0,0 0.5945,0.0575 0.5275,0.5668z" fill="#7c715b" stroke="none" stroke-width="0.5" stroke-linecap="butt"/><path d="M191.36204,183.81347c0.1586,0.4942 -0.4184,0.63 -0.4184,0.63l-0.8857,0.1888c-1.7696,1.6971 -2.6014,3.2559 -2.8969,5.5c0,0 -0.067,0.5093 -0.6616,0.4518c-0.5945,-0.0574 -0.5275,-0.5667 -0.5275,-0.5667c0.3375,-2.5629 1.3514,-4.4086 3.4691,-6.2635l1.1855,-0.2988c0,0 0.577,-0.1358 0.7355,0.3584z" fill="#7c715b" stroke="none" stroke-width="0.5" stroke-linecap="butt"/><path d="M195.43414,185.40917c0.373,0.4008 -0.0948,0.7203 -0.0948,0.7203l-0.3566,0.2308c-1.2416,1.261 -2.8606,2.5074 -3.0653,4.2316c0,0 -0.067,0.5093 -0.6616,0.4518c-0.5945,-0.0574 -0.5275,-0.5667 -0.5275,-0.5667c0.2793,-1.968 1.9115,-3.3251 3.3394,-4.7773l0.5256,-0.3717c0,0 0.4678,-0.3195 0.8408,0.0812z" fill="#7c715b" stroke="none" stroke-width="0.5" stroke-linecap="butt"/><path d="M187.42744,204.00547c-0.513,0.2639 -0.821,-0.1755 -0.821,-0.1755l-0.0965,-0.1476c-1.9538,-2.0645 -1.9384,-4.1867 -2.1667,-6.7057c0,0 -0.0461,-0.511 0.5505,-0.5505c0.5965,-0.0395 0.6426,0.4715 0.6426,0.4715c0.2066,2.2988 0.1087,4.2547 1.9021,6.138l0.1939,0.2666c0,0 0.308,0.4394 -0.2049,0.7032z" fill="#7c715b" stroke="none" stroke-width="0.5" stroke-linecap="butt"/><path d="M192.88534,202.38547c-0.3148,0.4358 -0.8236,0.1662 -0.8236,0.1662l-0.9643,-0.5243c-1.2149,-1.5114 -0.9364,-2.8617 -1.3284,-4.4731c0,0 -0.1094,-0.5038 0.4789,-0.5975c0.5882,-0.0937 0.6976,0.4102 0.6976,0.4102c0.2693,1.3654 0.0176,2.6698 0.9803,3.9207l0.7654,0.3923c0,0 0.5089,0.2697 0.1941,0.7055z" fill="#7c715b" stroke="none" stroke-width="0.5" stroke-linecap="butt"/><path d="M202.92794,202.56947c-0.4083,0.3747 -0.8457,0.0249 -0.8457,0.0249l-0.7178,-0.5978c-0.4727,-1.2226 -0.8483,-2.4542 -1.2135,-3.703c0,0 -0.1455,-0.4971 0.4349,-0.6217c0.5804,-0.1246 0.7258,0.3726 0.7258,0.3726c0.3345,1.1434 0.714,2.2712 1.0679,3.4093l0.5193,0.3913c0,0 0.4374,0.3497 0.0291,0.7244z" fill="#716652" stroke="none" stroke-width="0.5" stroke-linecap="butt"/><path d="M203.96154,189.57497c0.5018,0.2792 0.1759,0.709 0.1759,0.709l-0.507,0.6669c-0.7887,0.7917 -0.7268,1.5647 -0.8606,2.5807c0,0 -0.0671,0.5093 -0.6616,0.4519c-0.5946,-0.0575 -0.5275,-0.5668 -0.5275,-0.5668c0.1573,-1.1947 0.1591,-2.1213 1.0885,-3.0764l0.4646,-0.6146c0,0 0.3259,-0.4298 0.8277,-0.1507z" fill="#716652" stroke="none" stroke-width="0.5" stroke-linecap="butt"/><path d="M213.89344,192.88717c-0.067,0.5093 -0.6616,0.4518 -0.6616,0.4518l-0.4809,-0.0557c-1.2092,0.2827 -2.213,0.9592 -3.4333,1.3423c0,0 -0.5618,0.1764 -0.7677,-0.3048c-0.2059,-0.4812 0.3559,-0.6576 0.3559,-0.6576c1.3496,-0.4238 2.3755,-1.0765 3.752,-1.4019l0.7081,0.0592c0,0 0.5946,0.0574 0.5275,0.5667z" fill="#716652" stroke="none" stroke-width="0.5" stroke-linecap="butt"/><path d="M211.03034,201.50287c-0.377,0.398 -0.8416,0.0751 -0.8416,0.0751l-0.2191,-0.1522c-1.1769,-0.8178 -2.213,-1.5066 -3.0371,-2.611c0,0 -0.3217,-0.4322 0.1829,-0.7077c0.5045,-0.2755 0.8261,0.1567 0.8261,0.1567c0.7482,1.0085 1.706,1.6183 2.782,2.366l0.219,0.1522c0,0 0.4647,0.3228 0.0877,0.7209z" fill="#716652" stroke="none" stroke-width="0.5" stroke-linecap="butt"/><path d="M147.59244,198.90707c1.7729,-2.6265 5.5988,-4.9476 9.066,-5.3455c0,0 0.593,-0.0678 0.6722,0.4402c0.0791,0.508 -0.5139,0.5758 -0.5139,0.5758c-3.3919,0.3861 -7.0989,2.7634 -8.5113,5.3735l-0.798,-0.4473l-0.2877,0.0162c0.0244,-0.0452 0.0495,-0.0903 0.0752,-0.1354l-0.0822,-0.0461c0,0 0.0443,-0.3362 0.3797,-0.4314z" fill="#a19477" stroke="none" stroke-width="0.5" stroke-linecap="butt"/><path d="M153.17074,170.85897c0.5945,0.0575 0.5275,0.5668 0.5275,0.5668l-0.0317,0.0057c0.8116,3.2819 1.3336,7.3065 4.8977,9.287c0,0 0.5018,0.2792 0.1759,0.709c-0.3259,0.4298 -0.8277,0.1507 -0.8277,0.1507c-3.8925,-2.1677 -4.5265,-6.3599 -5.4164,-9.9336l0.0131,-0.3337c0,0 0.067,-0.5093 0.6616,-0.4519z" fill="#a19477" stroke="none" stroke-width="0.5" stroke-linecap="butt"/><path d="M144.54864,187.56217l-28.1196,-2.889" fill="none" stroke="#a19477" stroke-width="1.5" stroke-linecap="round"/><path d="M149.08374,154.64707l0.6508,16.3957" fill="none" stroke="#a19477" stroke-width="1.5" stroke-linecap="round"/><path d="M144.31734,204.56027l-6.7683,14.8192" fill="none" stroke="#a19477" stroke-width="1.5" stroke-linecap="round"/><path d="M140.48654,192.49927l-7.6234,1.4985" fill="none" stroke="#a19477" stroke-width="1.5" stroke-linecap="round"/><path d="M141.96454,202.61377l-3.8132,1.5227" fill="none" stroke="#a19477" stroke-width="1.5" stroke-linecap="round"/><path d="M142.33294,183.04997l-6.2464,-4.3859" fill="none" stroke="#a19477" stroke-width="1.5" stroke-linecap="round"/><path d="M145.52504,172.52717l1.6018,3.0775" fill="none" stroke="#a19477" stroke-width="1.5" stroke-linecap="round"/><path d="M371.3119,141.14326c2.25784,3.29962 2.02275,8.92081 4.66906,13.45987c2.97132,5.09652 4.4246,9.9362 4.4246,9.9362c0,0 -1.26479,33.94334 -6.40907,37.46341c-2.62344,1.79513 -10.28964,-9.98768 -13.98303,-7.71586c-5.31482,3.26915 -15.34637,-3.37627 -15.34637,-3.37627c0,0 -0.80034,-12.76127 -3.43791,-16.36503c-2.6805,-3.66241 -11.00593,-1.06696 -12.97251,-3.94096c-2.17565,-3.17951 -1.96294,-12.11162 -4.00211,-17.76681c-2.02919,-5.62751 -6.31558,-7.98596 -6.31558,-7.98596c0,0 8.93839,-5.87818 11.52346,-8.5767c2.49164,-2.60099 3.71701,-7.33258 3.71701,-7.33258c0,0 15.98177,5.91007 22.48351,7.1139c6.87138,1.27228 11.30793,-1.25718 15.6489,5.08678z" data-paper-data="{&quot;index&quot;:null}" fill="url(#color-18)" stroke="none" stroke-width="0" stroke-linecap="butt"/><path d="M220.38902,308.44768c-8.66459,0.94081 -9.80158,-4.37448 -16.00697,-8.99256c-5.87158,-4.36965 -22.83141,-13.05549 -22.83141,-13.05549c0,0 3.1396,-4.27669 3.51187,-8.0839c0.38625,-3.94997 -1.23477,-15.20341 -1.23477,-15.20341c0,0 5.21097,1.79103 11.54087,-0.50263c6.36102,-2.30493 13.85169,-8.69573 18.19428,-9.16725c3.92531,-0.42622 7.90114,8.0501 13.03313,7.64668c5.0498,-0.39695 16.57381,-8.64298 16.57381,-8.64298c0,0 13.1595,3.40749 14.31694,9.94143c0.80434,4.54059 16.60219,2.47566 17.01814,5.82723c0.8156,6.57209 -27.31017,31.22375 -27.31017,31.22375c0,0 -5.22646,2.20632 -11.80308,3.3755c-5.85727,1.04132 -10.49595,5.14429 -15.0026,5.63361z" data-paper-data="{&quot;index&quot;:null}" fill="url(#color-19)" stroke="none" stroke-width="0" stroke-linecap="butt"/><path d="M358.29254,192.17037c-3.9449,-0.8451 -6.9043,-0.062 -6.4734,-1.271c0.4308,-1.2089 3.0576,-1.3451 7.0026,-0.5c1.8514,0.3966 3.8178,-0.5456 4.9179,-0.3277c1.2438,0.2462 -0.1045,1.3424 -0.3331,1.9839c-0.1547,0.4341 1.4294,1.8373 0.7975,1.8829c0,0 -3.3831,-1.2265 -5.9115,-1.7681z" data-paper-data="{&quot;index&quot;:null}" fill="url(#color-20)" stroke="#a19477" stroke-width="1" stroke-linecap="butt"/><path d="M154.78584,311.13387c0,0 -5.2693,-31.0526 9.425,-58.3196c18.8513,-34.9811 71.0544,-9.3489 92.7807,-17.2153c19.5787,-7.0888 42.2414,-20.7006 38.1882,-44.4689c-4.0533,-23.7683 -24.2803,-23.8365 -51.4729,-33.432c-9.9815,-3.5222 -95.5386,-28.6364 -61.7694,-63.1552c18.3592,-18.7667 51.017,4.6347 82.498,12.851c17.3431,4.5264 36.7217,7.4431 43.5938,-10.1268c6.8722,-17.5699 2.5984,-40.5023 2.5984,-40.5023" data-paper-data="{&quot;index&quot;:null}" fill="none" stroke="url(#color-21)" stroke-width="29" stroke-linecap="round"/><path d="M163.15976,271.80346c-1.50965,0 -2.73345,-1.52976 -2.73345,-3.41681c0,-1.88705 1.22381,-3.41681 2.73345,-3.41681c1.50965,0 2.73345,1.52976 2.73345,3.41681c0,1.88705 -1.22381,3.41681 -2.73345,3.41681z" data-paper-data="{&quot;index&quot;:null}" fill="url(#color-22)" stroke="none" stroke-width="0" stroke-linecap="butt"/><path d="M176.82702,244.46893c-3.3967,0 -6.15026,-3.2125 -6.15026,-7.17532c0,-3.96282 2.75357,-7.17532 6.15026,-7.17532c3.3967,0 6.15026,3.2125 6.15026,7.17532c0,3.96282 -2.75357,7.17532 -6.15026,7.17532z" data-paper-data="{&quot;index&quot;:null}" fill="url(#color-23)" stroke="none" stroke-width="0" stroke-linecap="butt"/><path d="M156.32613,257.45284c-2.26447,0 -4.10018,-1.98869 -4.10018,-4.44186c0,-2.45317 1.83571,-4.44186 4.10018,-4.44186c2.26447,0 4.10018,1.98869 4.10018,4.44186c0,2.45317 -1.83571,4.44186 -4.10018,4.44186z" data-paper-data="{&quot;index&quot;:null}" fill="url(#color-24)" stroke="none" stroke-width="0" stroke-linecap="butt"/><path d="M151.2009,297.77126c-1.69835,0 -3.07514,-2.29464 -3.07514,-5.12522c0,-2.83058 1.37679,-5.12522 3.07514,-5.12522c1.69835,0 3.07514,2.29464 3.07514,5.12522c0,2.83058 -1.37679,5.12522 -3.07514,5.12522z" data-paper-data="{&quot;index&quot;:null}" fill="url(#color-25)" stroke="none" stroke-width="0" stroke-linecap="butt"/><path d="M249.6052,239.68539c-2.45317,0 -4.44186,-2.75357 -4.44186,-6.15026c0,-3.3967 1.98869,-6.15026 4.44186,-6.15026c2.45317,0 4.44186,2.75357 4.44186,6.15026c0,3.3967 -1.98869,6.15026 -4.44186,6.15026z" data-paper-data="{&quot;index&quot;:null}" fill="url(#color-26)" stroke="none" stroke-width="0" stroke-linecap="butt"/><path d="M299.49071,207.56733c-2.45317,0 -4.44186,-2.44761 -4.44186,-5.46691c0,-3.01929 1.98869,-5.46691 4.44186,-5.46691c2.45317,0 4.44186,2.44761 4.44186,5.46691c0,3.01929 -1.98869,5.46691 -4.44186,5.46691z" data-paper-data="{&quot;index&quot;:null}" fill="url(#color-27)" stroke="none" stroke-width="0" stroke-linecap="butt"/><path d="M285.14008,203.46715c-1.69835,0 -3.07514,-1.68274 -3.07514,-3.7585c0,-2.07576 1.37679,-3.7585 3.07514,-3.7585c1.69835,0 3.07514,1.68274 3.07514,3.7585c0,2.07576 -1.37679,3.7585 -3.07514,3.7585z" data-paper-data="{&quot;index&quot;:null}" fill="url(#color-28)" stroke="none" stroke-width="0" stroke-linecap="butt"/><path d="M287.87353,180.2328c-2.07576,0 -3.7585,-2.29464 -3.7585,-5.12522c0,-2.83058 1.68274,-5.12522 3.7585,-5.12522c2.07576,0 3.7585,2.29464 3.7585,5.12522c0,2.83058 -1.68274,5.12522 -3.7585,5.12522z" data-paper-data="{&quot;index&quot;:null}" fill="url(#color-29)" stroke="none" stroke-width="0" stroke-linecap="butt"/><path d="M258.48892,166.56553c-2.45317,0 -4.44186,-1.52976 -4.44186,-3.41681c0,-1.88705 1.98869,-3.41681 4.44186,-3.41681c2.45317,0 4.44186,1.52976 4.44186,3.41681c0,1.88705 -1.98869,3.41681 -4.44186,3.41681z" data-paper-data="{&quot;index&quot;:null}" fill="url(#color-30)" stroke="none" stroke-width="0" stroke-linecap="butt"/><path d="M278.30644,226.01813c-1.69835,0 -3.07514,-1.98869 -3.07514,-4.44186c0,-2.45317 1.37679,-4.44186 3.07514,-4.44186c1.69835,0 3.07514,1.98869 3.07514,4.44186c0,2.45317 -1.37679,4.44186 -3.07514,4.44186z" data-paper-data="{&quot;index&quot;:null}" fill="url(#color-31)" stroke="none" stroke-width="0" stroke-linecap="butt"/><path d="M246.53006,160.41527c-3.77411,0 -6.83363,-3.05952 -6.83363,-6.83363c0,-3.77411 3.05952,-6.83363 6.83363,-6.83363c3.77411,0 6.83363,3.05952 6.83363,6.83363c0,3.77411 -3.05952,6.83363 -6.83363,6.83363z" data-paper-data="{&quot;index&quot;:null}" fill="url(#color-32)" stroke="none" stroke-width="0" stroke-linecap="butt"/><path d="M227.05421,163.83208c-2.83058,0 -5.12522,-2.29464 -5.12522,-5.12522c0,-2.83058 2.29464,-5.12522 5.12522,-5.12522c2.83058,0 5.12522,2.29464 5.12522,5.12522c0,2.83058 -2.29464,5.12522 -5.12522,5.12522z" data-paper-data="{&quot;index&quot;:null}" fill="url(#color-33)" stroke="none" stroke-width="0" stroke-linecap="butt"/><path d="M275.23132,177.49935c-2.64187,0 -4.78354,-2.90654 -4.78354,-6.49195c0,-3.58541 2.14166,-6.49195 4.78354,-6.49195c2.64187,0 4.78354,2.90654 4.78354,6.49195c0,3.58541 -2.14166,6.49195 -4.78354,6.49195z" data-paper-data="{&quot;index&quot;:null}" fill="url(#color-34)" stroke="none" stroke-width="0" stroke-linecap="butt"/><path d="M225.68748,232.85176c-3.96282,0 -7.17532,-2.29464 -7.17532,-5.12522c0,-2.83058 3.2125,-5.12522 7.17532,-5.12522c3.96282,0 7.17532,2.29464 7.17532,5.12522c0,2.83058 -3.2125,5.12522 -7.17532,5.12522z" data-paper-data="{&quot;index&quot;:null}" fill="url(#color-35)" stroke="none" stroke-width="0" stroke-linecap="butt"/><path d="M198.60331,245.17299c-2.64187,0 -4.78354,-1.83571 -4.78354,-4.10018c0,-2.26447 2.14166,-4.10018 4.78354,-4.10018c2.64187,0 4.78354,1.83571 4.78354,4.10018c0,2.26447 -2.14166,4.10018 -4.78354,4.10018z" fill="url(#color-36)" stroke="none" stroke-width="0" stroke-linecap="butt"/><path d="M186.98613,127.63453c-2.64187,0 -4.78354,-2.90654 -4.78354,-6.49195c0,-3.58541 2.14166,-6.49195 4.78354,-6.49195c2.64187,0 4.78354,2.90654 4.78354,6.49195c0,3.58541 -2.14166,6.49195 -4.78354,6.49195z" fill="url(#color-37)" stroke="none" stroke-width="0" stroke-linecap="butt"/><path d="M199.97003,144.71861c-1.88705,0 -3.41681,-0.91786 -3.41681,-2.05009c0,-1.13223 1.52976,-2.05009 3.41681,-2.05009c1.88705,0 3.41681,0.91786 3.41681,2.05009c0,1.13223 -1.52976,2.05009 -3.41681,2.05009z" fill="url(#color-38)" stroke="none" stroke-width="0" stroke-linecap="butt"/><path d="M221.15429,144.03525c-1.88705,0 -3.41681,-1.37679 -3.41681,-3.07514c0,-1.69835 1.52976,-3.07514 3.41681,-3.07514c1.88705,0 3.41681,1.37679 3.41681,3.07514c0,1.69835 -1.52976,3.07514 -3.41681,3.07514z" fill="url(#color-39)" stroke="none" stroke-width="0" stroke-linecap="butt"/><path d="M176.26812,94.8331c-3.65493,0 -6.61784,-2.29464 -6.61784,-5.12522c0,-2.83058 2.96291,-5.12522 6.61784,-5.12522c3.65493,0 6.61784,2.29464 6.61784,5.12522c0,2.83058 -2.96291,5.12522 -6.61784,5.12522z" fill="url(#color-40)" stroke="none" stroke-width="0" stroke-linecap="butt"/><path d="M200.31171,92.78301c-2.45317,0 -4.44186,-1.37679 -4.44186,-3.07514c0,-1.69835 1.98869,-3.07514 4.44186,-3.07514c2.45317,0 4.44186,1.37679 4.44186,3.07514c0,1.69835 -1.98869,3.07514 -4.44186,3.07514z" fill="url(#color-41)" stroke="none" stroke-width="0" stroke-linecap="butt"/><path d="M170.58541,113.96727c-2.26447,0 -4.10018,-1.37679 -4.10018,-3.07514c0,-1.69835 1.83571,-3.07514 4.10018,-3.07514c2.26447,0 4.10018,1.37679 4.10018,3.07514c0,1.69835 -1.83571,3.07514 -4.10018,3.07514z" fill="url(#color-42)" stroke="none" stroke-width="0" stroke-linecap="butt"/><path d="M238.92173,109.18372c-3.77411,0 -6.83363,-1.83571 -6.83363,-4.10018c0,-2.26447 3.05952,-4.10018 6.83363,-4.10018c3.77411,0 6.83363,1.83571 6.83363,4.10018c0,2.26447 -3.05952,4.10018 -6.83363,4.10018z" fill="url(#color-43)" stroke="none" stroke-width="0" stroke-linecap="butt"/><path d="M261.47271,108.50036c-1.88705,0 -3.41681,-1.52976 -3.41681,-3.41681c0,-1.88705 1.52976,-3.41681 3.41681,-3.41681c1.88705,0 3.41681,1.52976 3.41681,3.41681c0,1.88705 -1.52976,3.41681 -3.41681,3.41681z" fill="url(#color-44)" stroke="none" stroke-width="0" stroke-linecap="butt"/><path d="M241.99686,94.14974c-2.45317,0 -4.44186,-1.37679 -4.44186,-3.07514c0,-1.69835 1.98869,-3.07514 4.44186,-3.07514c2.45317,0 4.44186,1.37679 4.44186,3.07514c0,1.69835 -1.98869,3.07514 -4.44186,3.07514z" fill="url(#color-45)" stroke="none" stroke-width="0" stroke-linecap="butt"/><path d="M221.49597,96.88319c-1.32094,0 -2.39177,-1.07083 -2.39177,-2.39177c0,-1.32094 1.07083,-2.39177 2.39177,-2.39177c1.32094,0 2.39177,1.07083 2.39177,2.39177c0,1.32094 -1.07083,2.39177 -2.39177,2.39177z" fill="url(#color-46)" stroke="none" stroke-width="0" stroke-linecap="butt"/><path d="M290.17397,113.2839c-3.3967,0 -6.15026,-2.29464 -6.15026,-5.12522c0,-2.83058 2.75357,-5.12522 6.15026,-5.12522c3.3967,0 6.15026,2.29464 6.15026,5.12522c0,2.83058 -2.75357,5.12522 -6.15026,5.12522z" fill="url(#color-47)" stroke="none" stroke-width="0" stroke-linecap="butt"/><path d="M273.43157,115.33399c-1.69835,0 -3.07514,-1.52976 -3.07514,-3.41681c0,-1.88705 1.37679,-3.41681 3.07514,-3.41681c1.69835,0 3.07514,1.52976 3.07514,3.41681c0,1.88705 -1.37679,3.41681 -3.07514,3.41681z" fill="url(#color-48)" stroke="none" stroke-width="0" stroke-linecap="butt"/><path d="M312.72495,98.24992c-3.01929,0 -5.46691,-3.2125 -5.46691,-7.17532c0,-3.96282 2.44761,-7.17532 5.46691,-7.17532c3.01929,0 5.46691,3.2125 5.46691,7.17532c0,3.96282 -2.44761,7.17532 -5.46691,7.17532z" fill="url(#color-49)" stroke="none" stroke-width="0" stroke-linecap="butt"/><path d="M307.59973,67.63525c-2.07576,0 -3.7585,-2.01929 -3.7585,-4.51019c0,-2.49092 1.68274,-4.51019 3.7585,-4.51019c2.07576,0 3.7585,2.01929 3.7585,4.51019c0,2.49092 -1.68274,4.51019 -3.7585,4.51019z" fill="url(#color-50)" stroke="none" stroke-width="0" stroke-linecap="butt"/><path d="M317.85017,76.38229c-1.69835,0 -3.07514,-2.29464 -3.07514,-5.12522c0,-2.83058 1.37679,-5.12522 3.07514,-5.12522c1.69835,0 3.07514,2.29464 3.07514,5.12522c0,2.83058 -1.37679,5.12522 -3.07514,5.12522z" fill="url(#color-51)" stroke="none" stroke-width="0" stroke-linecap="butt"/><path d="M303.15787,81.16583c-1.13223,0 -2.05009,-1.37679 -2.05009,-3.07514c0,-1.69835 0.91786,-3.07514 2.05009,-3.07514c1.13223,0 2.05009,1.37679 2.05009,3.07514c0,1.69835 -0.91786,3.07514 -2.05009,3.07514z" fill="url(#color-52)" stroke="none" stroke-width="0" stroke-linecap="butt"/><path d="M305.20795,109.86709c-2.26447,0 -4.10018,-1.52976 -4.10018,-3.41681c0,-1.88705 1.83571,-3.41681 4.10018,-3.41681c2.26447,0 4.10018,1.52976 4.10018,3.41681c0,1.88705 -1.83571,3.41681 -4.10018,3.41681z" fill="url(#color-53)" stroke="none" stroke-width="0" stroke-linecap="butt"/><path d="M240.62285,138.71046c-8.65017,-3.03868 -24.58458,-10.29581 -31.47299,-14.5489c-9.71225,-5.9966 -15.01825,-12.13863 -15.01825,-12.13863c0,0 0.07866,-6.35536 5.41685,-7.44329c1.65901,-0.33811 7.53017,2.91934 9.3225,3.08247c3.4551,0.38388 12.17153,2.04146 18.03314,3.86539c8.45459,2.63077 13.92324,5.6076 13.92324,5.6076l26.34724,10.27036l17.48241,11.81983c0,0 -23.18776,6.80819 -44.03414,-0.51483z" fill="url(#color-54)" stroke="none" stroke-width="0" stroke-linecap="butt"/><path d="M348.41614,179.07827c4.1503,-1.8249 6.413,-4.3337 6.741,-3.0877c0.3279,1.2461 -2.0161,3.0233 -6.1664,4.8483c-1.9479,0.8565 -3.1981,2.8628 -4.3447,3.386c-1.2965,0.5917 -0.7095,-1.1461 -0.8835,-1.8073c-0.1178,-0.4474 -2.423,-0.5703 -1.8669,-1.0082c0.9926,-0.7815 3.8605,-1.1614 6.5205,-2.331z" fill="url(#color-55)" stroke="#a19477" stroke-width="1" stroke-linecap="butt"/><path d="M345.55374,194.40397c-3.7754,-3.6549 -2.8118,-7.925 0.8431,-11.7004c1.0905,-1.1264 0.9338,-4.2726 2.1908,-4.9612c2.171,-1.1895 3.5496,0.1305 5.8819,1.8417c0.2889,0.2119 1.786,-0.928 2.424,-0.8219c1.2246,0.2035 1.8032,1.59 2.2656,2.0377c0.3951,0.3825 1.6764,1.005 1.7373,2.0096c0.0515,0.8485 -1.1253,2.0811 -0.8001,2.5366c1.5228,2.1333 2.9308,3.34 2.1947,5.171c-0.6993,1.7392 -4.0738,1.3354 -5.5106,2.8195c-3.6548,3.7754 -7.4513,4.7222 -11.2267,1.0674z" fill="url(#color-56)" stroke="#a19477" stroke-width="1.5" stroke-linecap="butt"/><path d="M353.37627,183.16506c-0.75686,0.78182 -2.02812,0.77889 -2.83944,-0.00653c-0.81133,-0.78543 -0.85547,-2.05592 -0.0986,-2.83774c0.75686,-0.78182 2.02812,-0.77889 2.83944,0.00653c0.81133,0.78543 0.85547,2.05592 0.09861,2.83773z" fill="#000000" stroke="none" stroke-width="0" stroke-linecap="butt"/><path d="M359.3479,189.28423c-0.88567,0.91487 -2.37329,0.91145 -3.32268,-0.00764c-0.94939,-0.91908 -1.00105,-2.40581 -0.11538,-3.32069c0.88567,-0.91487 2.37328,-0.91146 3.32267,0.00764c0.9494,0.91909 1.00106,2.40581 0.11539,3.32069z" fill="#000000" stroke="none" stroke-width="0" stroke-linecap="butt"/><path d="M348.49934,184.87227l0.8238,0.5972l-0.639,1.3842l0.8337,1.2076l-1.1812,2.4615l-2.0414,-0.3739l-1.3165,3.5322" fill="none" stroke="#a19477" stroke-width="0.5" stroke-linecap="round"/><path d="M349.72134,188.05797l1.988,0.2222l0.3734,1.0625" fill="none" stroke="#a19477" stroke-width="0.5" stroke-linecap="round"/><path d="M349.72904,191.67057l-1.2225,-0.082l-0.1699,-1.0658" fill="none" stroke="#a19477" stroke-width="0.5" stroke-linecap="round"/><path d="M356.92934,180.71577l0.9024,-0.8287" fill="none" stroke="#a19477" stroke-width="1.5" stroke-linecap="round"/><path d="M359.79614,181.78877l-0.6506,0.672" fill="none" stroke="#a19477" stroke-width="1.5" stroke-linecap="round"/><path d="M357.69934,183.13777l-1.8802,0.6638l0.5187,-1.8973l0.3672,0.8131z" fill="#000000" stroke="#000000" stroke-width="0.5" stroke-linecap="butt"/><path d="M151.87794,186.96177l18.9064,3.6446" fill="none" stroke="#a19477" stroke-width="1.5" stroke-linecap="round"/><path d="M152.33354,191.28977l5.6947,-0.4556" fill="none" stroke="#a19477" stroke-width="1.5" stroke-linecap="round"/><path d="M161.67284,186.73397l-5.2391,-2.2779" fill="none" stroke="#a19477" stroke-width="1.5" stroke-linecap="round"/><path d="M335.15399,146.1207c-2.26447,0 -4.10018,-1.98869 -4.10018,-4.44186c0,-2.45317 1.83571,-4.44186 4.10018,-4.44186c2.26447,0 4.10018,1.98869 4.10018,4.44186c0,2.45317 -1.83571,4.44186 -4.10018,4.44186z" fill="url(#color-57)" stroke="none" stroke-width="0" stroke-linecap="butt"/><path d="M340.96258,136.55361c-1.32094,0 -2.39177,-1.07083 -2.39177,-2.39177c0,-1.32094 1.07083,-2.39177 2.39177,-2.39177c1.32094,0 2.39177,1.07083 2.39177,2.39177c0,1.32094 -1.07083,2.39177 -2.39177,2.39177z" fill="url(#color-58)" stroke="none" stroke-width="0" stroke-linecap="butt"/><path d="M247.34183,290.99368c-1.69835,0 -3.07514,-1.22381 -3.07514,-2.73345c0,-1.50965 1.37679,-2.73345 3.07514,-2.73345c1.69835,0 3.07514,1.22381 3.07514,2.73345c0,1.50965 -1.37679,2.73345 -3.07514,2.73345z" fill="url(#color-59)" stroke="none" stroke-width="0" stroke-linecap="butt"/><path d="M256.56723,282.10997c-2.26447,0 -4.10018,-1.98869 -4.10018,-4.44186c0,-2.45317 1.83571,-4.44186 4.10018,-4.44186c2.26447,0 4.10018,1.98869 4.10018,4.44186c0,2.45317 -1.83571,4.44186 -4.10018,4.44186z" fill="url(#color-60)" stroke="none" stroke-width="0" stroke-linecap="butt"/><path d="M250.75864,267.07598c-1.69835,0 -3.07514,-1.07083 -3.07514,-2.39177c0,-1.32094 1.37679,-2.39177 3.07514,-2.39177c1.69835,0 3.07514,1.07083 3.07514,2.39177c0,1.32094 -1.37679,2.39177 -3.07514,2.39177z" fill="url(#color-61)" stroke="none" stroke-width="0" stroke-linecap="butt"/><path d="M248.02519,271.17615c-0.94353,0 -1.70841,-1.07083 -1.70841,-2.39177c0,-1.32094 0.76489,-2.39177 1.70841,-2.39177c0.94353,0 1.70841,1.07083 1.70841,2.39177c0,1.32094 -0.76489,2.39177 -1.70841,2.39177z" fill="url(#color-62)" stroke="none" stroke-width="0" stroke-linecap="butt"/><path d="M199.84809,116.05272c-1.50965,0 -2.73345,-0.76489 -2.73345,-1.70841c0,-0.94353 1.22381,-1.70841 2.73345,-1.70841c1.50965,0 2.73345,0.76489 2.73345,1.70841c0,0.94353 -1.22381,1.70841 -2.73345,1.70841z" fill="url(#color-63)" stroke="none" stroke-width="0" stroke-linecap="butt"/><path d="M261.00909,129.03661c-0.94353,0 -1.70841,-0.6119 -1.70841,-1.36673c0,-0.75482 0.76489,-1.36673 1.70841,-1.36673c0.94353,0 1.70841,0.6119 1.70841,1.36673c0,0.75482 -0.76489,1.36673 -1.70841,1.36673z" fill="url(#color-64)" stroke="none" stroke-width="0" stroke-linecap="butt"/><path d="M265.45095,133.82016c-1.50965,0 -2.73345,-1.07083 -2.73345,-2.39177c0,-1.32094 1.22381,-2.39177 2.73345,-2.39177c1.50965,0 2.73345,1.07083 2.73345,2.39177c0,1.32094 -1.22381,2.39177 -2.73345,2.39177z" fill="url(#color-65)" stroke="none" stroke-width="0" stroke-linecap="butt"/><path d="M194.55204,286.21017c0,-0.2831 0.2294,-0.5126 0.5125,-0.5126c0.2831,0 0.5125,0.2295 0.5125,0.5126c0,0.283 -0.2294,0.5125 -0.5125,0.5125c-0.2831,0 -0.5125,-0.2294 -0.5125,-0.5125z" fill="#696969" stroke="none" stroke-width="0.5" stroke-linecap="butt"/><path d="M208.90264,271.17617c0,-0.2831 0.2295,-0.5126 0.5125,-0.5126c0.2831,0 0.5126,0.2295 0.5126,0.5126c0,0.283 -0.2295,0.5125 -0.5126,0.5125c-0.283,0 -0.5125,-0.2294 -0.5125,-0.5125z" fill="#696969" stroke="none" stroke-width="0.5" stroke-linecap="butt"/><path d="M233.50374,267.07597c0,-0.283 0.2294,-0.5125 0.5125,-0.5125c0.2831,0 0.5125,0.2294 0.5125,0.5125c0,0.2831 -0.2294,0.5125 -0.5125,0.5125c-0.2831,0 -0.5125,-0.2294 -0.5125,-0.5125z" fill="#696969" stroke="none" stroke-width="0.5" stroke-linecap="butt"/><path d="M219.15314,283.47667c0,-0.283 0.2294,-0.5125 0.5125,-0.5125c0.283,0 0.5125,0.2294 0.5125,0.5125c0,0.2831 -0.2294,0.5125 -0.5125,0.5125c-0.2831,0 -0.5125,-0.2294 -0.5125,-0.5125z" fill="#696969" stroke="none" stroke-width="0.5" stroke-linecap="butt"/><path d="M217.10304,305.34427c0,-0.283 0.2294,-0.5125 0.5125,-0.5125c0.2831,0 0.5125,0.2295 0.5125,0.5125c0,0.2831 -0.2294,0.5126 -0.5125,0.5126c-0.2831,0 -0.5125,-0.2295 -0.5125,-0.5126z" fill="#696969" stroke="none" stroke-width="0.5" stroke-linecap="butt"/><path d="M203.68794,290.59967c-0.2893,0.423 -0.7123,0.1337 -0.7123,0.1337l-0.4464,-0.3053c-0.5768,-0.399 -1.2211,-0.7036 -1.879,-0.9465c-0.8958,-2.2437 0.7308,-5.4543 -0.0537,-8.152c-0.8051,-2.7688 -2.711,-3.0877 -4.7361,-4.5089c-0.2025,-0.1421 -0.387,-0.2872 -0.5631,-0.4324c0.423,0.7643 0.6882,1.5132 0.2281,2.5298l-0.7799,0.8188c0,0 -0.3604,0.3644 -0.7248,0.004c-0.3643,-0.3604 -0.0039,-0.7248 -0.0039,-0.7248l0.6043,-0.5806c0.5759,-0.8335 -0.5336,-2.1822 -1.1362,-3.376c-0.0054,-0.0027 -0.0109,-0.0054 -0.0163,-0.0081c0,0 -0.4239,-0.212 -0.2526,-0.6359c-0.0144,-0.047 -0.0271,-0.0936 -0.038,-0.1396c-0.3809,-1.6074 -0.4839,-3.2082 -0.8628,-4.9092c-0.1569,-0.7047 -0.9844,-1.2432 -0.9171,-1.962c0.1968,-2.0984 3.6408,-2.208 5.0331,-2.208c0,0 0.5126,0 0.5126,0.5125c0,0.5126 -0.5126,0.5126 -0.5126,0.5126c-0.6023,0 -4.0769,0.0177 -4.0092,1.2312c0.0355,0.635 0.7493,1.0667 0.8927,1.6862c0.2078,0.8974 -0.1412,2.1748 0.1725,3.0073c0.237,0.6291 0.5369,1.2406 0.6888,1.8954c0.0212,0.0913 0.0452,0.1804 0.0716,0.2676c0.8326,0.489 1.3977,1.0969 2.2051,1.6746c0.5301,0.3793 1.2221,0.4602 1.8058,0.7501c1.5186,0.7543 2.8593,2.6987 3.3227,4.3108c0.4121,1.4332 0.5746,5.0285 0.1203,6.449c-0.1305,0.4083 -0.5322,0.8462 -0.3542,1.2361c0.6281,0.1746 1.2207,0.4864 1.7605,0.8519l0.4464,0.3053c0,0 0.423,0.2893 0.1337,0.7124z" fill="#696969" stroke="none" stroke-width="0.5" stroke-linecap="butt"/><path d="M210.61044,287.60187c-0.025,0.5119 -0.5369,0.4869 -0.5369,0.4869l-0.187,-0.0091c-0.3871,-0.0191 -1.9184,-0.0647 -2.2359,-0.2127c-1.8903,-0.8811 -2.7281,-2.5698 -5.0691,-2.511c0,0 -0.5125,0 -0.5125,-0.5125c0,-0.5126 0.5125,-0.5126 0.5125,-0.5126c2.953,0.0554 4.5465,2.5883 7.355,2.7249l0.187,0.0092c0,0 0.5119,0.025 0.4869,0.5369z" fill="#696969" stroke="none" stroke-width="0.5" stroke-linecap="butt"/><path d="M338.74164,159.10457c0,-0.283 0.2295,-0.5125 0.5125,-0.5125c0.2831,0 0.5126,0.2294 0.5126,0.5125c0,0.2831 -0.2295,0.5125 -0.5126,0.5125c-0.283,0 -0.5125,-0.2294 -0.5125,-0.5125z" fill="#696969" stroke="none" stroke-width="0.5" stroke-linecap="butt"/><path d="M350.35884,148.85417c0,-0.2831 0.2294,-0.5126 0.5125,-0.5126c0.2831,0 0.5125,0.2295 0.5125,0.5126c0,0.283 -0.2294,0.5125 -0.5125,0.5125c-0.283,0 -0.5125,-0.2295 -0.5125,-0.5125z" fill="#696969" stroke="none" stroke-width="0.5" stroke-linecap="butt"/><path d="M338.74164,152.95437c0,-0.2831 0.2295,-0.5126 0.5125,-0.5126c0.2831,0 0.5126,0.2295 0.5126,0.5126c0,0.283 -0.2295,0.5125 -0.5126,0.5125c-0.283,0 -0.5125,-0.2295 -0.5125,-0.5125z" fill="#696969" stroke="none" stroke-width="0.5" stroke-linecap="butt"/><path d="M343.52524,139.97037c0,-0.283 0.2294,-0.5125 0.5125,-0.5125c0.283,0 0.5125,0.2295 0.5125,0.5125c0,0.2831 -0.2294,0.5126 -0.5125,0.5126c-0.2831,0 -0.5125,-0.2295 -0.5125,-0.5126z" fill="#696969" stroke="none" stroke-width="0.5" stroke-linecap="butt"/><path d="M331.90804,152.27097c0,-0.2831 0.2294,-0.5125 0.5125,-0.5125c0.2831,0 0.5125,0.2294 0.5125,0.5125c0,0.283 -0.2294,0.5125 -0.5125,0.5125c-0.283,0 -0.5125,-0.2294 -0.5125,-0.5125z" fill="#696969" stroke="none" stroke-width="0.5" stroke-linecap="butt"/><path d="M368.80964,173.45517c0,-0.283 0.2294,-0.5125 0.5125,-0.5125c0.2831,0 0.5125,0.2295 0.5125,0.5125c0,0.2831 -0.2294,0.5126 -0.5125,0.5126c-0.283,0 -0.5125,-0.2295 -0.5125,-0.5126z" fill="#696969" stroke="none" stroke-width="0.5" stroke-linecap="butt"/><path d="M357.93424,168.44667c-0.4585,0.2293 -0.6877,-0.2292 -0.6877,-0.2292c-0.1528,-0.3056 -0.5305,-1.0611 -0.6833,-1.3667c0,0 -0.2292,-0.4584 0.2292,-0.6876c0.4584,-0.2292 0.6876,0.2292 0.6876,0.2292c0.1528,0.3056 0.3056,0.6112 0.4584,0.9168l0.225,0.4499c0,0 0.2292,0.4584 -0.2292,0.6877z" fill="#696969" stroke="none" stroke-width="0.5" stroke-linecap="butt"/><path d="M371.14814,198.96717c-0.2275,0.4593 -0.6868,0.2318 -0.6868,0.2318l-1.1392,-0.68c-0.1528,-0.3056 -0.3056,-0.6112 -0.4584,-0.9168c0,0 -0.1649,-0.3299 0.0648,-0.5699c-0.1189,-0.1492 -0.1189,-0.3427 -0.1189,-0.3427c0,-1.277 -0.287,-2.9814 0.0137,-4.2179c0.0339,-0.1395 0.3635,-0.6028 0.6944,-1.0868c-0.1552,-0.4138 0.2585,-0.6206 0.2585,-0.6206c0.0725,-0.036 0.1442,-0.0709 0.2151,-0.1051c0.1641,-0.2747 0.2648,-0.4922 0.2222,-0.5704c-0.2793,-0.5121 -1.0967,-0.4112 -1.6057,-0.6962c-0.8472,-0.4744 -1.6631,-1.2063 -2.5549,-1.586c-0.387,-0.1647 -0.9508,-0.024 -1.2109,-0.3545c-0.415,-0.5273 -0.1326,-2.7166 -0.1326,-3.4015l0.965,-0.8025c0,0 0.4575,-0.2309 0.6884,0.2267c0.2309,0.4576 -0.2266,0.6885 -0.2266,0.6885l-0.4018,-0.1128c0,0.3058 -0.2507,2.5862 -0.1022,2.7486c0.1799,0.1968 0.5472,-0.0363 0.7979,0.0544c0.115,0.0416 0.2309,0.0888 0.3474,0.1408c0.0163,-0.0615 0.0361,-0.101 0.0361,-0.101c0.461,-0.916 1.3748,-1.6061 1.7968,-2.4601c0.5265,-1.0652 0.1048,-1.8388 0.8806,-2.9419l0.1003,-0.1376c0,0 0.3018,-0.4142 0.716,-0.1123c0.4142,0.3019 0.1124,0.7161 0.1124,0.7161l-0.1003,0.1375c-0.7844,1.0272 -0.2497,1.6646 -0.7868,2.7859c-0.4187,0.874 -1.3447,1.5491 -1.8022,2.4708c0,0 -0.0242,0.0484 -0.0726,0.1059c0.8082,0.4784 1.6176,1.0728 2.3493,1.4941c0.3908,0.2249 0.9743,0.3044 1.1437,0.7222c0.0527,0.13 0.0834,0.2541 0.0958,0.3733c0.8311,-0.4548 1.4172,-0.9974 1.5614,-2.1782l0.1061,-0.8128c0,0 0.0663,-0.5082 0.5745,-0.4419c0.5082,0.0663 0.4419,0.5745 0.4419,0.5745l-0.1061,0.8128c-0.289,2.102 -1.5402,2.666 -3.2398,3.5053c-0.3244,0.387 -0.6651,0.7653 -0.7637,1.2003c-0.2658,1.1727 0.0137,2.7737 0.0137,3.9824c0,0 0,0.2001 -0.125,0.3502c0.0473,0.0567 0.0709,0.104 0.0709,0.104c0.1528,0.3056 0.3056,0.6112 0.4584,0.9168l0.6774,0.2198c0,0 0.4593,0.2275 0.2318,0.6868z" fill="#696969" stroke="none" stroke-width="0.5" stroke-linecap="butt"/><path d="M244.75224,127.15077c-0.1643,0.4855 -0.6498,0.3213 -0.6498,0.3213l-0.1214,-0.0411c-1.3828,-0.4678 -2.4136,-1.0957 -3.6571,-1.5535c-0.7595,-0.2796 -1.7545,-1.6211 -2.418,-1.7711c-0.3146,-0.0711 -0.613,0.0638 -0.9103,0.2328c-0.1064,0.25 -0.233,0.4787 -0.3775,0.6761c-0.2508,0.3427 -1.146,1.2329 -1.4499,1.5423l-0.1031,0.1048c0,0 -0.3592,0.3656 -0.7247,0.0064c-0.3656,-0.3592 -0.0064,-0.7248 -0.0064,-0.7248l0.103,-0.1048c0.3962,-0.4031 0.8166,-0.8562 1.172,-1.3508c-0.0105,-0.0226 -0.0202,-0.047 -0.0289,-0.0732c-0.1621,-0.4862 0.3241,-0.6483 0.3241,-0.6483c0.0362,-0.0121 0.1001,-0.0337 0.1838,-0.062c0.412,-0.8261 0.5608,-1.7414 0.1172,-2.7147c-0.4474,-0.9816 -3.4502,-1.3423 -4.3753,-1.6054c-2.2624,-0.6435 -3.7928,-1.8096 -5.0738,-3.7311c0,0 -0.2843,-0.4264 0.1422,-0.7107c0.4264,-0.2843 0.7107,0.1421 0.7107,0.1421c0.9656,1.4484 1.9171,2.3566 3.5731,3.0557c1.5396,0.65 3.5166,0.6261 4.9587,1.5072c1.1097,0.678 1.4043,2.2712 1.1564,3.661c0.4001,-0.124 0.7468,-0.2203 0.8192,-0.2058c0.8007,0.1606 1.7136,1.5076 2.558,1.8111c1.2936,0.4649 2.2448,1.0754 3.6351,1.5457l0.1214,0.0411c0,0 0.4855,0.1642 0.3212,0.6497z" fill="#696969" stroke="none" stroke-width="0.5" stroke-linecap="butt"/><path d="M208.90264,116.05267c0,-0.283 0.2295,-0.5125 0.5125,-0.5125c0.2831,0 0.5126,0.2295 0.5126,0.5125c0,0.2831 -0.2295,0.5126 -0.5126,0.5126c-0.283,0 -0.5125,-0.2295 -0.5125,-0.5126z" fill="#696969" stroke="none" stroke-width="0.5" stroke-linecap="butt"/><path d="M219.15314,126.30317c0,-0.2831 0.2294,-0.5125 0.5125,-0.5125c0.283,0 0.5125,0.2294 0.5125,0.5125c0,0.2831 -0.2294,0.5125 -0.5125,0.5125c-0.2831,0 -0.5125,-0.2294 -0.5125,-0.5125z" fill="#696969" stroke="none" stroke-width="0.5" stroke-linecap="butt"/><path d="M225.30334,124.25307c0,-0.2831 0.2295,-0.5125 0.5126,-0.5125c0.283,0 0.5125,0.2295 0.5125,0.5125c0,0.2831 -0.2295,0.5125 -0.5125,0.5125c-0.2831,0 -0.5126,-0.2294 -0.5126,-0.5125z" fill="#696969" stroke="none" stroke-width="0.5" stroke-linecap="butt"/><path d="M241.70404,133.82017c0,-0.2831 0.2295,-0.5125 0.5126,-0.5125c0.283,0 0.5125,0.2294 0.5125,0.5125c0,0.283 -0.2295,0.5125 -0.5125,0.5125c-0.2831,0 -0.5126,-0.2295 -0.5126,-0.5125z" fill="#696969" stroke="none" stroke-width="0.5" stroke-linecap="butt"/><path d="M216.87894,116.90967c0.5098,-0.0532 0.563,0.4565 0.563,0.4565l0.0285,0.2735c0.0683,0.6592 0.1749,1.3157 0.3188,1.9627c0.4079,1.8418 1.1415,3.8007 2.557,5.1511c2.6771,2.5539 7.148,2.6251 6.6373,7.1989c-0.1263,1.1312 -0.2188,1.1058 -0.7092,2.097c0,0 -0.2292,0.4584 -0.6877,0.2292c-0.4584,-0.2292 -0.2292,-0.6876 -0.2292,-0.6876c0.482,-0.9525 1.2766,-3.3847 0.3409,-4.3254c-1.5727,-1.581 -4.4073,-2.213 -6.0572,-3.7681c-1.5649,-1.475 -2.4042,-3.6482 -2.8527,-5.6735c-0.1512,-0.6852 -0.2641,-1.38 -0.3375,-2.0779l-0.0285,-0.2734c0,0 -0.0533,-0.5098 0.4565,-0.563z" fill="#696969" stroke="none" stroke-width="0.5" stroke-linecap="butt"/><path d="M228.37844,121.52917c-0.0096,0.5125 -0.522,0.5029 -0.522,0.5029l-1.0208,-0.1347c-0.4686,-0.3976 -0.79,-1.0442 -1.3771,-1.2258c-1.3293,-0.4113 -1.3037,0.856 -1.9007,1.2957c-0.5685,0.4188 -2.4914,0.7348 -3.2088,0.7482c0,0 -0.5126,0 -0.5126,-0.5125c0,-0.5125 0.5126,-0.5125 0.5126,-0.5125c0.524,0.0131 2.2392,-0.2674 2.5914,-0.5415c0.2576,-0.2004 0.0665,-0.7138 0.313,-0.9278c0.3063,-0.2661 2.0995,-0.6467 2.4962,-0.5325c0.1304,0.0376 1.5734,1.2779 1.7492,1.4271l0.3767,-0.1086c0,0 0.5125,0.0096 0.5029,0.522z" fill="#696969" stroke="none" stroke-width="0.5" stroke-linecap="butt"/><path d="M228.72024,275.95967c0,-0.283 0.2294,-0.5125 0.5125,-0.5125c0.283,0 0.5125,0.2294 0.5125,0.5125c0,0.2831 -0.2294,0.5125 -0.5125,0.5125c-0.2831,0 -0.5125,-0.2294 -0.5125,-0.5125z" fill="#696969" stroke="none" stroke-width="0.5" stroke-linecap="butt"/><path d="M237.60394,296.46057c0,-0.283 0.2294,-0.5125 0.5125,-0.5125c0.2831,0 0.5125,0.2294 0.5125,0.5125c0,0.2831 -0.2294,0.5125 -0.5125,0.5125c-0.2831,0 -0.5125,-0.2294 -0.5125,-0.5125z" fill="#696969" stroke="none" stroke-width="0.5" stroke-linecap="butt"/><path d="M234.87044,236.32467c0,-0.2831 0.2295,-0.5126 0.5125,-0.5126c0.2831,0 0.5126,0.2295 0.5126,0.5126c0,0.283 -0.2295,0.5125 -0.5126,0.5125c-0.283,0 -0.5125,-0.2295 -0.5125,-0.5125z" fill="#696969" stroke="none" stroke-width="0.5" stroke-linecap="butt"/><path d="M204.11914,232.22447c0,-0.2831 0.2294,-0.5125 0.5125,-0.5125c0.2831,0 0.5125,0.2294 0.5125,0.5125c0,0.283 -0.2294,0.5125 -0.5125,0.5125c-0.2831,0 -0.5125,-0.2294 -0.5125,-0.5125z" fill="#696969" stroke="none" stroke-width="0.5" stroke-linecap="butt"/><path d="M158.02674,269.12237c0.0036,0.5126 -0.5089,0.5162 -0.5089,0.5162l-0.5632,0.004c-0.7695,0.0053 -2.1482,-0.1847 -2.8697,0.133c-1.8837,0.8295 -4.4868,3.6361 -4.9566,5.721c-0.185,0.8207 -0.2292,1.5936 -0.3332,2.382c0.5083,1.2576 -0.2442,3.2479 1.6925,3.0075c0.509,-0.0631 3.225,-0.5268 3.5114,-0.9303c0.7505,-1.0574 -0.423,-2.0714 1.1243,-2.9579c0.3546,-0.2032 0.8117,-0.0962 1.2175,-0.1442l0.9115,0.8645c0,0 0.2916,0.4214 -0.1298,0.7131c-0.4215,0.2916 -0.7131,-0.1298 -0.7131,-0.1298l0.0181,-0.4265c-2.0386,0.0719 -0.6412,1.4699 -1.6126,2.7012c-0.5269,0.6679 -3.3652,1.2599 -4.2262,1.33c-0.416,0.0338 -0.8398,-0.0905 -1.2283,-0.2428c-1.2742,-0.4994 -1.2189,-1.1517 -1.1392,-1.8433c-0.101,0.0691 -0.243,0.107 -0.4362,0.0426c-0.4862,-0.162 -0.3241,-0.6483 -0.3241,-0.6483c0.129,-0.3871 0.2133,-0.7583 0.2747,-1.122c-0.5052,-0.4366 -1.3084,-0.4455 -1.7962,-0.9047c-0.24,-0.2259 -0.2238,-0.6531 -0.4739,-0.8678c-0.4718,-0.4052 -1.1906,-0.3607 -1.7806,-0.5573c0,0 -0.4863,-0.1621 -0.3242,-0.6483c0.1621,-0.4863 0.6483,-0.3242 0.6483,-0.3242c1.4047,0.4682 1.671,0.7068 2.6403,1.6582c0.3189,0.313 0.7962,0.4074 1.2226,0.571c0.0594,-0.5713 0.1154,-1.1441 0.2574,-1.7523c0.5535,-2.3723 3.3606,-5.5206 5.5531,-6.4341c0.8841,-0.3685 2.3227,-0.2085 3.265,-0.2153l0.5632,-0.004c0,0 0.5125,-0.0037 0.5161,0.5088z" fill="#606060" stroke="none" stroke-width="0.5" stroke-linecap="butt"/><path d="M251.96444,165.35497c-0.1001,-0.5026 0.4025,-0.6028 0.4025,-0.6028l0.2646,-0.0527c0.5966,-0.1188 1.2746,0.0031 1.7993,-0.3048c0.6122,-0.3593 0.0174,-0.892 -0.1475,-1.2011c-0.6339,-1.1876 -0.9743,-1.7977 -0.813,-3.1532c0.2781,-1.9584 1.1425,-4.7863 0.0881,-6.7368c-0.2988,-0.5528 -1.2502,-1.0361 -1.4006,-1.6587c-0.052,-0.2155 0.5361,-2.3949 0.6866,-2.5121c0.2287,-0.1781 1.9456,-0.0777 2.3247,-0.1076c1.4162,-0.1116 3.48,-0.1862 4.4525,-1.2168c0,0 0.3624,-0.3624 0.7248,0c0.3624,0.3624 0,0.7248 0,0.7248c-1.2705,1.2178 -3.3409,1.3754 -5.0968,1.5139c-0.591,0.0466 -1.3077,-0.4698 -1.7754,-0.1055c-1.2003,0.9347 1.1287,3.0791 1.3006,4.0273c0.404,2.2276 -0.0027,4.0726 -0.2891,6.2118c-0.2784,1.6973 2.2658,3.5594 0.568,5.0281c-0.1023,0.0885 -1.9914,0.4501 -2.222,0.4961l-0.2646,0.0526c0,0 -0.5026,0.1002 -0.6027,-0.4025z" fill="#606060" stroke="none" stroke-width="0.5" stroke-linecap="butt"/><path d="M267.32044,168.77097c-0.0993,0.5029 -0.6021,0.4035 -0.6021,0.4035l-0.2342,-0.0463c-0.6518,-0.1307 -1.2414,-0.5168 -1.9003,-0.605c-0.662,-0.0887 -1.1736,0.5147 -1.7486,0.6473c-0.0636,0.0147 -1.3956,0.0145 -1.9437,0.014c-0.0686,0.3637 -0.1333,0.7274 -0.1677,1.0991c-0.0998,1.0764 1.932,1.9275 2.5639,2.4274l0.4319,0.3429c0,0 0.4013,0.3187 0.0826,0.7201c-0.3187,0.4013 -0.7201,0.0826 -0.7201,0.0826l-0.4318,-0.3429c-1.0812,-0.8622 -2.9607,-1.5631 -2.9507,-3.2716c0.0022,-0.3709 0.3847,-0.6482 0.4675,-1.0097c0.0204,-0.0891 0.0358,-0.1899 0.0468,-0.2995c-0.0361,-0.0673 -0.059,-0.1528 -0.059,-0.2612c0,-0.1293 0.0326,-0.2259 0.0813,-0.2982c-0.0047,-0.6963 -0.1062,-1.5139 -0.2038,-1.9933c-0.2535,-1.2455 -1.5069,-2.2176 -2.0641,-3.3547c-0.1411,-0.2879 -0.496,-1.2372 -0.9139,-1.3973c-0.5772,-0.2211 -1.2358,0.039 -1.8539,0.039c0,0 -0.5125,0 -0.5125,-0.5125c0,-0.5125 0.5125,-0.5125 0.5125,-0.5125c0.2179,0 2.131,-0.011 2.2462,0.039c1.1262,0.4881 1.2887,1.8561 1.8663,2.762c0.6235,0.9779 1.4525,1.5136 1.7217,2.7222c0.16,0.7183 0.1275,1.3752 0.0354,2.0108c0.5146,0.038 1.0335,0.117 1.5296,-0.0033c0.7127,-0.1729 1.3658,-0.7363 2.096,-0.6687c0.6907,0.0639 1.3061,0.4861 1.9871,0.6184l0.2342,0.0463c0,0 0.5028,0.0993 0.4035,0.6021z" fill="#606060" stroke="none" stroke-width="0.5" stroke-linecap="butt"/><path d="M270.40534,103.06877c0,-0.283 0.2295,-0.5125 0.5125,-0.5125c0.2831,0 0.5126,0.2295 0.5126,0.5125c0,0.2831 -0.2295,0.5126 -0.5126,0.5126c-0.283,0 -0.5125,-0.2295 -0.5125,-0.5126z" fill="#606060" stroke="none" stroke-width="0.5" stroke-linecap="butt"/><path d="M272.45544,116.05267c0,-0.283 0.2294,-0.5125 0.5125,-0.5125c0.2831,0 0.5125,0.2295 0.5125,0.5125c0,0.2831 -0.2294,0.5126 -0.5125,0.5126c-0.283,0 -0.5125,-0.2295 -0.5125,-0.5126z" fill="#606060" stroke="none" stroke-width="0.5" stroke-linecap="butt"/><path d="M288.17274,102.38547c0,-0.2831 0.2295,-0.5126 0.5126,-0.5126c0.283,0 0.5125,0.2295 0.5125,0.5126c0,0.283 -0.2295,0.5125 -0.5125,0.5125c-0.2831,0 -0.5126,-0.2295 -0.5126,-0.5125z" fill="#606060" stroke="none" stroke-width="0.5" stroke-linecap="butt"/><path d="M189.81664,99.43207c-0.4634,0.2189 -0.6824,-0.2445 -0.6824,-0.2445l-0.1654,-0.3501c-0.4527,-0.9793 -2.5123,-3.8532 -3.9116,-2.6637c-0.501,0.4259 -0.8692,2.027 -1.4491,2.6024c-0.5126,0.5086 -1.3796,0.4325 -2.0481,0.7054c-0.6113,0.2495 -0.7588,1.1298 -1.3211,1.4758c-0.2443,0.1503 -0.5152,0.263 -0.803,0.3473c1.0315,1.442 1.0299,3.2889 2.2501,4.7268l-0.5551,1.4354c0,0 -0.2979,0.4171 -0.7149,0.1192c-0.4171,-0.298 -0.1192,-0.715 -0.1192,-0.715l0.6015,-0.1837c-1.233,-1.5045 -1.1208,-3.9365 -2.5262,-5.188c-0.0086,0.0004 -0.0172,0.0007 -0.0258,0.001c-0.2362,0.0219 -0.4753,0.0339 -0.7131,0.0397c-2.0328,0.1368 -4.8087,0.4557 -6.4544,-0.4021c-0.6668,-0.3475 -0.977,-0.9276 -1.6122,-1.3028c-1.4297,-0.8444 -3.8469,-1.2088 -4.3566,-3.142c-0.4228,-1.6039 0.7431,-2.8244 1.3782,-4.104c0,0 0.2292,-0.4584 0.6876,-0.2292c0.4584,0.2292 0.2292,0.6876 0.2292,0.6876c-0.5248,1.0426 -1.5933,2.096 -1.3002,3.3983c0.3297,1.4649 2.8388,1.8899 3.8831,2.5067c0.5819,0.3437 0.9787,0.9568 1.572,1.2803c0.9477,0.5169 2.4093,0.5419 3.8531,0.4684c0.1482,-0.1951 0.4173,-0.1951 0.4173,-0.1951c1.0946,0 2.7834,0.1933 3.7695,-0.4206c0.5991,-0.373 0.8083,-1.2483 1.4495,-1.5432c0.5402,-0.2485 1.3223,-0.0331 1.7192,-0.4759c0.5276,-0.5886 1.0203,-2.2893 1.5508,-2.695c2.1631,-1.6546 4.6772,1.3677 5.4763,3.0281l0.1654,0.3501c0,0 0.219,0.4634 -0.2444,0.6824z" fill="#606060" stroke="none" stroke-width="0.5" stroke-linecap="butt"/><path d="M187.02694,106.28827c-0.486,0.1627 -0.6488,-0.3233 -0.6488,-0.3233l0.0664,-0.4457c-0.6974,-0.2371 -1.6946,-0.442 -2.0889,-1.1962c-0.5954,-1.139 -0.0541,-4.0545 -0.0541,-5.3544c0,0 0,-0.5126 0.5126,-0.5126c0.5125,0 0.5125,0.5126 0.5125,0.5126c0,1.1774 -0.5273,3.867 -0.0541,4.896c0.1518,0.3302 1.3101,0.6216 1.4961,0.6821l0.5816,1.0927c0,0 0.1627,0.486 -0.3233,0.6488z" fill="#606060" stroke="none" stroke-width="0.5" stroke-linecap="butt"/><path d="M200.70234,146.12067c0,-0.283 0.2294,-0.5125 0.5125,-0.5125c0.283,0 0.5125,0.2295 0.5125,0.5125c0,0.2831 -0.2295,0.5125 -0.5125,0.5125c-0.2831,0 -0.5125,-0.2294 -0.5125,-0.5125z" fill="#606060" stroke="none" stroke-width="0.5" stroke-linecap="butt"/><path d="M210.95274,137.92037c0,-0.2831 0.2295,-0.5126 0.5125,-0.5126c0.2831,0 0.5126,0.2295 0.5126,0.5126c0,0.283 -0.2295,0.5125 -0.5126,0.5125c-0.283,0 -0.5125,-0.2295 -0.5125,-0.5125z" fill="#606060" stroke="none" stroke-width="0.5" stroke-linecap="butt"/><path d="M188.40174,133.82017c0,-0.2831 0.2295,-0.5125 0.5125,-0.5125c0.2831,0 0.5126,0.2294 0.5126,0.5125c0,0.283 -0.2295,0.5125 -0.5126,0.5125c-0.283,0 -0.5125,-0.2295 -0.5125,-0.5125z" fill="#606060" stroke="none" stroke-width="0.5" stroke-linecap="butt"/><path d="M178.83604,117.62007c0.4827,0.1722 0.3105,0.655 0.3105,0.655l-0.5958,1.0904c-1.0127,0.3348 -1.6197,0.8444 -2.4709,1.4802c-0.275,0.2054 -0.5216,0.4556 -0.8249,0.6162c-0.189,0.1001 -0.6978,-0.0498 -0.6237,0.1509c0.085,0.2305 0.5278,-0.0188 0.726,0.1263c0.6265,0.4592 1.5671,2.1515 1.7473,2.8966c0.5844,2.4169 -0.4933,6.453 -2.1785,8.1802c0,0 -0.3624,0.3624 -0.7248,0c-0.3624,-0.3625 0,-0.7248 0,-0.7248c1.4583,-1.4137 2.3972,-5.1873 1.907,-7.2144c-0.1626,-0.6724 -0.9157,-1.8764 -1.4163,-2.3577c-0.329,-0.3164 -1.073,-0.3811 -1.0835,-0.8374c-0.0112,-0.4917 0.6734,-0.719 1.0404,-1.0464c1.0508,-0.9371 2.2521,-1.7856 3.5736,-2.2408l-0.0413,-0.4638c0,0 0.1722,-0.4827 0.6549,-0.3105z" fill="#606060" stroke="none" stroke-width="0.5" stroke-linecap="butt"/><path d="M193.23244,127.88937c0.4639,0.218 0.2459,0.6819 0.2459,0.6819l-0.6521,1.1423c-2.3881,1.2499 -4.1749,2.0075 -6.8666,2.3087c-0.7744,0.0866 -1.6357,0.3038 -2.3659,-0.1954c-0.5878,-0.4019 -0.4565,-1.3902 -0.9273,-1.9245c-0.1919,-0.2178 -0.5742,-0.1305 -0.8267,-0.2737c-1.192,-0.6759 -2.148,-1.5552 -3.4051,-2.1838c0,0 -0.4584,-0.2292 -0.2292,-0.6876c0.2292,-0.4584 0.6876,-0.2292 0.6876,-0.2292c1.2807,0.6403 2.2598,1.5005 3.4616,2.2142c0.3387,0.2012 0.818,0.1862 1.0794,0.4808c0.4678,0.5271 0.1013,1.3224 0.7382,1.7576c0.6188,0.4228 2.0363,-0.019 2.6883,-0.0942c2.1323,-0.246 3.5939,-1.0885 5.4904,-2.0811l0.1997,-0.6701c0,0 0.218,-0.4639 0.6818,-0.2459z" fill="#606060" stroke="none" stroke-width="0.5" stroke-linecap="butt"/><path d="M284.69824,203.02337c0.4999,0.1131 0.3868,0.613 0.3868,0.613l-0.3111,1.1744c-1.4292,1.9177 -2.932,3.6121 -3.8502,5.8468c-0.2213,0.5387 -0.7569,1.0662 -0.6222,1.6328c0.1404,0.5907 0.9339,0.7847 1.3284,1.2461c1.1093,1.2974 2.0697,2.7569 3.1024,4.1167c0.7292,0.9602 2.2743,2.3757 2.4015,3.6291c0.1232,1.2141 -0.8861,2.0789 -1.432,3.0188c-1.1905,2.0497 -2.1403,4.2738 -3.2367,6.3774c-0.0244,0.0468 -0.0937,0.1811 -0.1862,0.3591c0.456,0.0383 0.9005,0.1622 1.3362,0.5239c1.1911,0.9888 1.3177,2.7624 1.4339,4.1572l0.0468,0.5635c0,0 0.0425,0.5108 -0.4683,0.5532c-0.5107,0.0425 -0.5532,-0.4683 -0.5532,-0.4683l-0.0468,-0.5635c-0.094,-1.1345 -0.1331,-2.6245 -1.0772,-3.4619c-0.3116,-0.2763 -0.7301,-0.3487 -1.1704,-0.3565c-0.1856,0.3455 -0.3458,0.6315 -0.3843,0.6644c-0.0972,0.0828 -1.908,0.6754 -2.1154,0.7445c0,0 -0.4862,0.1621 -0.6482,-0.3242c-0.1621,-0.4862 0.3241,-0.6482 0.3241,-0.6482c0.503,-0.1677 1.0995,-0.1584 1.5566,-0.4042c-0.1051,-0.0036 -0.2061,-0.0121 -0.3013,-0.028c-0.9959,-0.1654 -2.0403,-0.6114 -3.0079,-0.9035c-2.2496,-0.6994 -3.8937,-2.6962 -6.313,-3.1716c-0.6219,-0.1222 -1.9581,0.159 -2.3596,-0.5973c-0.3497,-0.6588 0.5697,-1.8693 0.8826,-2.3586c1.3622,-2.1307 2.059,-4.2639 3.8754,-6.0803c0,0 0.3624,-0.3624 0.7248,0c0.3624,0.3624 0,0.7248 0,0.7248c-1.5385,1.5385 -2.1139,3.1487 -3.1687,5.0212c-0.1032,0.1832 -1.5155,2.0168 -1.41,2.2099c0.0987,0.1804 0.4111,0.014 0.6166,0.0233c1.1146,0.0505 2.0392,0.3379 3.0688,0.778c1.5641,0.6685 2.7727,2.0019 4.3793,2.4693c0.9258,0.2794 1.927,0.7147 2.88,0.8737c0.2903,0.0485 0.5753,0.0557 0.8556,0.0531c0.1015,-0.2792 0.1875,-0.5708 0.3208,-0.8268c0.9465,-1.816 1.8645,-3.6455 2.7845,-5.475c0.4205,-0.8363 1.8932,-2.3585 1.7742,-3.3362c-0.1231,-1.0123 -1.6058,-2.3394 -2.1988,-3.1203c-1.0207,-1.344 -1.9692,-2.788 -3.0652,-4.0706c-0.1996,-0.2335 -1.5027,-1.4887 -1.5469,-1.6767c-0.0341,-0.1452 0.5768,-2.0267 0.6718,-2.2578c0.952,-2.317 2.4962,-4.0838 3.9764,-6.0698l0.1331,-0.7881c0,0 0.1132,-0.4999 0.6131,-0.3868z" fill="#606060" stroke="none" stroke-width="0.5" stroke-linecap="butt"/><path d="M291.01664,210.61177c0.4285,0.2812 0.1472,0.7097 0.1472,0.7097l-0.2081,0.3171c-1.8964,2.8264 -4.6881,2.6476 -7.7373,2.6476c0,0 -0.5126,0 -0.5126,-0.5125c0,-0.5125 0.5126,-0.5125 0.5126,-0.5125c2.6324,0 5.2704,0.3353 6.8803,-2.1851l0.2082,-0.3171c0,0 0.2812,-0.4285 0.7097,-0.1473z" fill="#606060" stroke="none" stroke-width="0.5" stroke-linecap="butt"/><path d="M278.31054,236.13847c-0.4972,-0.1243 -0.3729,-0.6215 -0.3729,-0.6215l0.0931,-0.3723c0.1434,-0.4247 0.077,-0.9982 0.4304,-1.2741c0.3533,-0.2759 0.8936,-0.0724 1.3404,-0.1086c0,0 0.5126,0 0.5126,0.5125c0,0.5126 -0.5126,0.5126 -0.5126,0.5126c-0.2365,-0.0362 -0.521,-0.2558 -0.7096,-0.1086c-0.1886,0.1473 -0.0445,0.4765 -0.0668,0.7148l-0.0931,0.3723c0,0 -0.1243,0.4972 -0.6215,0.3729z" fill="#606060" stroke="none" stroke-width="0.5" stroke-linecap="butt"/><path d="M204.81884,231.00317c0.1286,-0.4962 0.6248,-0.3676 0.6248,-0.3676l0.3457,0.0896c0.9814,0.2578 2.7835,1.0249 3.58,2.164c0.3542,-0.6573 0.7708,-1.3119 1.1707,-1.526c0.1294,-0.0692 1.666,-0.0629 2.1664,-0.061c-0.4885,-0.7271 -0.9489,-1.5059 -1.2365,-2.1844c-0.8101,-1.911 -0.5156,-4.0485 -1.1743,-6.0243c0,0 -0.162,-0.4862 0.3242,-0.6483c0.4862,-0.1621 0.6483,0.3241 0.6483,0.3241c1.1405,3.4217 0.8781,6.2705 3.2627,9.3002c0.6312,0.8019 1.836,2.2971 2.7238,2.7883c0.6505,0.3598 1.399,-0.0329 2.0239,0.4728c0.4135,0.3347 0.9374,0.8149 0.8642,1.3419c-0.0656,0.4723 -0.7771,0.5528 -1.1657,0.8292l-0.2156,0.6845c0,0 -0.2208,0.4625 -0.6833,0.2417c-0.4626,-0.2208 -0.2418,-0.6833 -0.2418,-0.6833l0.6591,-1.1478c0.2146,-0.0447 0.5325,0.0548 0.644,-0.134c0.0825,-0.1398 -0.2547,-0.2128 -0.4082,-0.2655c-0.5852,-0.2007 -1.4314,-0.1431 -1.9728,-0.4426c-0.997,-0.5516 -2.326,-2.1529 -3.0331,-3.0513c-0.146,-0.1855 -0.2995,-0.3871 -0.4558,-0.6c-0.1423,0.2242 -0.4376,0.2242 -0.4376,0.2242c-2.0366,0 -2.1787,0.387 -3.1178,2.1463c-0.0112,0.0436 -0.0248,0.0861 -0.0404,0.1277l0.0249,0.0087l-0.3329,0.9569c-0.0664,0.2062 -0.2598,0.3553 -0.488,0.3553c-0.2831,0 -0.5125,-0.2294 -0.5125,-0.5125c0,-0.0535 0.0082,-0.1051 0.0234,-0.1536l0.2592,-0.8974c-0.8615,-1.3171 -1.1848,-2.1485 -3.1157,-2.6415l-0.3457,-0.0896c0,0 -0.4962,-0.1286 -0.3676,-0.6248z" fill="#606060" stroke="none" stroke-width="0.5" stroke-linecap="butt"/><path d="M191.13524,227.44087c0,-0.283 0.2294,-0.5125 0.5125,-0.5125c0.2831,0 0.5125,0.2295 0.5125,0.5125c0,0.2831 -0.2294,0.5126 -0.5125,0.5126c-0.2831,0 -0.5125,-0.2295 -0.5125,-0.5126z" fill="#606060" stroke="none" stroke-width="0.5" stroke-linecap="butt"/><path d="M215.73624,247.25847c0,-0.2831 0.2295,-0.5126 0.5126,-0.5126c0.283,0 0.5125,0.2295 0.5125,0.5126c0,0.283 -0.2295,0.5125 -0.5125,0.5125c-0.2831,0 -0.5126,-0.2295 -0.5126,-0.5125z" fill="#606060" stroke="none" stroke-width="0.5" stroke-linecap="butt"/><path d="M223.93664,239.05807c0,-0.2831 0.2295,-0.5125 0.5125,-0.5125c0.2831,0 0.5126,0.2294 0.5126,0.5125c0,0.2831 -0.2295,0.5125 -0.5126,0.5125c-0.283,0 -0.5125,-0.2294 -0.5125,-0.5125z" fill="#606060" stroke="none" stroke-width="0.5" stroke-linecap="butt"/><path d="M235.55384,243.84167c0,-0.2831 0.2294,-0.5126 0.5125,-0.5126c0.2831,0 0.5125,0.2295 0.5125,0.5126c0,0.283 -0.2294,0.5125 -0.5125,0.5125c-0.2831,0 -0.5125,-0.2295 -0.5125,-0.5125z" fill="#606060" stroke="none" stroke-width="0.5" stroke-linecap="butt"/><path d="M266.81764,235.12877c0.5126,0 0.5126,0.5125 0.5126,0.5125c0,0.3417 0,1.7084 0,2.0501c0,0 0,0.5125 -0.5126,0.5125c-0.5125,0 -0.5125,-0.5125 -0.5125,-0.5125c0,-0.3417 0,-0.6834 0,-1.025v-1.0251c0,0 0,-0.5125 0.5125,-0.5125z" fill="#606060" stroke="none" stroke-width="0.5" stroke-linecap="butt"/><path d="M262.20494,221.97397c0,-0.283 0.2295,-0.5125 0.5126,-0.5125c0.283,0 0.5125,0.2295 0.5125,0.5125c0,0.2831 -0.2295,0.5125 -0.5125,0.5125c-0.2831,0 -0.5126,-0.2294 -0.5126,-0.5125z" fill="#606060" stroke="none" stroke-width="0.5" stroke-linecap="butt"/><path d="M302.52344,181.65557c0,-0.2831 0.2294,-0.5125 0.5125,-0.5125c0.283,0 0.5125,0.2294 0.5125,0.5125c0,0.2831 -0.2294,0.5125 -0.5125,0.5125c-0.2831,0 -0.5125,-0.2294 -0.5125,-0.5125z" fill="#606060" stroke="none" stroke-width="0.5" stroke-linecap="butt"/><path d="M281.33914,175.50527c0,-0.283 0.2295,-0.5125 0.5125,-0.5125c0.2831,0 0.5126,0.2295 0.5126,0.5125c0,0.2831 -0.2295,0.5126 -0.5126,0.5126c-0.283,0 -0.5125,-0.2295 -0.5125,-0.5126z" fill="#606060" stroke="none" stroke-width="0.5" stroke-linecap="butt"/><path d="M298.42324,205.57327c0,-0.283 0.2295,-0.5125 0.5125,-0.5125c0.2831,0 0.5126,0.2295 0.5126,0.5125c0,0.2831 -0.2295,0.5125 -0.5126,0.5125c-0.283,0 -0.5125,-0.2294 -0.5125,-0.5125z" fill="#606060" stroke="none" stroke-width="0.5" stroke-linecap="butt"/><path d="M301.15664,99.65197c0,-0.283 0.2295,-0.5125 0.5126,-0.5125c0.283,0 0.5125,0.2295 0.5125,0.5125c0,0.2831 -0.2295,0.5125 -0.5125,0.5125c-0.2831,0 -0.5126,-0.2294 -0.5126,-0.5125z" fill="#606060" stroke="none" stroke-width="0.5" stroke-linecap="butt"/><path d="M295.00644,101.01877c0,-0.2831 0.2294,-0.5126 0.5125,-0.5126c0.283,0 0.5125,0.2295 0.5125,0.5126c0,0.283 -0.2294,0.5125 -0.5125,0.5125c-0.2831,0 -0.5125,-0.2295 -0.5125,-0.5125z" fill="#606060" stroke="none" stroke-width="0.5" stroke-linecap="butt"/><path d="M315.50734,104.43557c0,-0.2831 0.2294,-0.5126 0.5125,-0.5126c0.283,0 0.5125,0.2295 0.5125,0.5126c0,0.283 -0.2294,0.5125 -0.5125,0.5125c-0.2831,0 -0.5125,-0.2295 -0.5125,-0.5125z" fill="#606060" stroke="none" stroke-width="0.5" stroke-linecap="butt"/><path d="M307.99034,83.25127c0,-0.2831 0.2294,-0.5125 0.5125,-0.5125c0.2831,0 0.5125,0.2295 0.5125,0.5125c0,0.2831 -0.2294,0.5125 -0.5125,0.5125c-0.2831,0 -0.5125,-0.2294 -0.5125,-0.5125z" fill="#606060" stroke="none" stroke-width="0.5" stroke-linecap="butt"/><path d="M315.50734,64.80047c0,-0.2831 0.2294,-0.5125 0.5125,-0.5125c0.283,0 0.5125,0.2294 0.5125,0.5125c0,0.2831 -0.2294,0.5125 -0.5125,0.5125c-0.2831,0 -0.5125,-0.2294 -0.5125,-0.5125z" fill="#606060" stroke="none" stroke-width="0.5" stroke-linecap="butt"/><path d="M63.75734,317.07267v-265.1021h356.4925v265.1021z" fill="none" stroke="#000000" stroke-width="25" stroke-linecap="butt"/><path d="M124.12964,49.88437v-27.6341h233.6338v27.6341z" fill="#000000" stroke="#000000" stroke-width="25" stroke-linecap="butt"/><text transform="translate(119.17636,42.52128) scale(0.69917,0.74496)" font-size="40" xml:space="preserve" fill="#ffffff" fill-rule="nonzero" stroke="none" stroke-width="1" stroke-linecap="butt" stroke-linejoin="miter" stroke-miterlimit="10" stroke-dasharray="" stroke-dashoffset="0" font-family="&quot; Pro W3&quot;, &quot;Hiragino Kaku Gothic Pro&quot;, Osaka, &quot;&quot;, Meiryo, &quot; &quot;, &quot;MS PGothic&quot;" font-weight="normal" text-anchor="start" style="mix-blend-mode: normal"><tspan x="0" dy="0">Path to Cindersteel</tspan></text><path d="M141.58064,305.29457l12.0519,-21.2681l11.3429,21.2681z" data-paper-data="{&quot;index&quot;:null}" fill="#ff0000" stroke="#ffffff" stroke-width="2.5" stroke-linecap="butt"/><path d="M51.50835,357.00937v-43.24507h246.00062v43.24507z" fill="#000000" stroke="none" stroke-width="0" stroke-linecap="butt"/><text transform="translate(60.9836,340.00373) scale(0.63884,0.76115)" font-size="40" xml:space="preserve" fill="#ffffff" fill-rule="nonzero" stroke="none" stroke-width="1" stroke-linecap="butt" stroke-linejoin="miter" stroke-miterlimit="10" stroke-dasharray="" stroke-dashoffset="0" font-family="&quot; Pro W3&quot;, &quot;Hiragino Kaku Gothic Pro&quot;, Osaka, &quot;&quot;, Meiryo, &quot; &quot;, &quot;MS PGothic&quot;" font-weight="normal" text-anchor="start" style="mix-blend-mode: normal"><tspan x="0" dy="0">Difficulty: Advanced</tspan></text></g></g></svg>