<svg xmlns="http://www.w3.org/2000/svg" xmlns:xlink="http://www.w3.org/1999/xlink" version="1.1" width="68.17725" height="58.81888" viewBox="0,0,68.17725,58.81888"><g><g data-paper-data="{&quot;isPaintingLayer&quot;:true}" fill-rule="nonzero" stroke-linecap="butt" stroke-linejoin="miter" stroke-miterlimit="10" stroke-dasharray="" stroke-dashoffset="0" style="mix-blend-mode: normal"><path d="M205.63521,173.35457c0,0 7.63541,1.16225 11.96115,0.73363c-0.92515,1.47552 -1.44385,3.31764 -1.40523,5.63482c0.01216,0.72939 0.99848,1.12466 1.22285,1.81675c-0.65991,0.04258 -1.3182,0.11278 -1.9607,0.22743c-2.96667,-4.29198 -9.81807,-8.41263 -9.81807,-8.41263z" stroke-width="0" fill="#ffffff" stroke="#000000" transform="matrix(1,0,0,1,-205.63521,-147.21341)"/><path d="M220.97205,206.03229c0,0 4.82638,-6.80469 4.52187,-9.45415c-0.06177,-0.53743 -0.23222,-1.08795 -0.48795,-1.64294c0.29065,0.00819 0.60289,-0.01 0.92448,-0.04324c-0.00965,0.17067 0.01468,0.33359 0.10227,0.48307c0.86007,1.46776 2.89787,3.12048 5.05604,4.19079c-4.6031,2.33598 -10.1167,6.46647 -10.1167,6.46647z" stroke-width="0" fill="#ffffff" stroke="#000000" transform="matrix(1,0,0,1,-205.63521,-147.21341)"/><path d="M242.8329,147.21341c0,0 1.48144,8.29859 4.32797,13.38179c-1.32855,-0.6526 -2.82307,-1.01908 -4.40317,-1.01908c-1.83318,0 -3.55116,0.49327 -5.02843,1.35433c2.62649,-5.09572 5.10364,-13.71704 5.10364,-13.71704z" stroke-width="0" fill="#ffffff" stroke="#000000" transform="matrix(1,0,0,1,-205.63521,-147.21341)"/><path d="M273.81246,166.62022c0,0 -6.94258,6.36759 -10.43234,10.79073c0.00822,-0.16632 0.01238,-0.33371 0.01238,-0.50207c0,-1.98335 -0.5774,-3.83184 -1.57326,-5.38654c3.505,-0.15642 11.99322,-4.90212 11.99322,-4.90212z" stroke-width="0" fill="#ffffff" stroke="#000000" transform="matrix(1,0,0,1,-205.63521,-147.21341)"/><path d="M259.66271,204.92603c0,0 -3.59797,-4.16359 -7.43706,-6.6912c0.32301,-0.16603 0.59298,-0.39997 0.784,-0.73426c1.20851,-0.71324 2.25391,-1.67343 3.06679,-2.81116c0.62861,4.81255 3.7118,10.28005 3.7118,10.28005z" stroke-width="0" fill="#ffffff" stroke="#000000" transform="matrix(1,0,0,1,-205.63521,-147.21341)"/></g></g></svg>