<svg version="1.1" xmlns="http://www.w3.org/2000/svg" xmlns:xlink="http://www.w3.org/1999/xlink" width="248.06575" height="322.1682" viewBox="0,0,248.06575,322.1682"><defs><radialGradient cx="410.39679" cy="204.75751" r="26.20934" gradientUnits="userSpaceOnUse" id="color-1"><stop offset="0" stop-color="#a8f2ff"/><stop offset="1" stop-color="#a8f2ff" stop-opacity="0"/></radialGradient><radialGradient cx="369.42542" cy="150.98964" r="42.28732" gradientUnits="userSpaceOnUse" id="color-2"><stop offset="0" stop-color="#a8f2ff"/><stop offset="1" stop-color="#a8f2ff" stop-opacity="0"/></radialGradient><radialGradient cx="369.70857" cy="128.48686" r="42.28732" gradientUnits="userSpaceOnUse" id="color-3"><stop offset="0" stop-color="#a8f2ff"/><stop offset="1" stop-color="#a8f2ff" stop-opacity="0"/></radialGradient><radialGradient cx="388.46828" cy="220.13565" r="42.28732" gradientUnits="userSpaceOnUse" id="color-4"><stop offset="0" stop-color="#a8f2ff"/><stop offset="1" stop-color="#a8f2ff" stop-opacity="0"/></radialGradient><radialGradient cx="411.60497" cy="170.69325" r="42.28732" gradientUnits="userSpaceOnUse" id="color-5"><stop offset="0" stop-color="#a8f2ff"/><stop offset="1" stop-color="#a8f2ff" stop-opacity="0"/></radialGradient><radialGradient cx="408.83527" cy="141.33281" r="42.28733" gradientUnits="userSpaceOnUse" id="color-6"><stop offset="0" stop-color="#a8f2ff"/><stop offset="1" stop-color="#a8f2ff" stop-opacity="0"/></radialGradient><radialGradient cx="219.83232" cy="83.2949" r="15.63127" gradientUnits="userSpaceOnUse" id="color-7"><stop offset="0" stop-color="#a8f2ff"/><stop offset="1" stop-color="#a8f2ff" stop-opacity="0"/></radialGradient><radialGradient cx="246.33336" cy="49.9073" r="11.41114" gradientUnits="userSpaceOnUse" id="color-8"><stop offset="0" stop-color="#a8f2ff"/><stop offset="1" stop-color="#a8f2ff" stop-opacity="0"/></radialGradient><radialGradient cx="210.94809" cy="313.03032" r="15.4546" gradientUnits="userSpaceOnUse" id="color-9"><stop offset="0" stop-color="#a8f2ff"/><stop offset="1" stop-color="#a8f2ff" stop-opacity="0"/></radialGradient><radialGradient cx="229.31226" cy="350.6763" r="11.78886" gradientUnits="userSpaceOnUse" id="color-10"><stop offset="0" stop-color="#a8f2ff"/><stop offset="1" stop-color="#a8f2ff" stop-opacity="0"/></radialGradient></defs><g transform="translate(-206.06954,-38.94026)"><g data-paper-data="{&quot;isPaintingLayer&quot;:true}" fill-rule="nonzero" stroke="none" stroke-linecap="butt" stroke-linejoin="miter" stroke-miterlimit="10" stroke-dasharray="" stroke-dashoffset="0" style="mix-blend-mode: normal"><path d="M210.83659,313.33942c0,0 0,0 0.00001,0c-0.00001,0.00001 -0.00001,0.00001 -0.00001,0.00001z" fill="#eaeaea" stroke-width="0"/><path d="M436.30614,200.80343c2.66613,9.3508 -6.77255,18.70142 -21.08189,20.8852c-14.30935,2.18378 -28.07068,-3.62623 -30.73681,-12.97703c-2.66613,-9.3508 6.77255,-18.70142 21.0819,-20.88521c14.30935,-2.18378 28.07068,3.62624 30.73681,12.97704z" fill="url(#color-1)" stroke-width="0"/><path d="M411.22874,144.60993c4.30165,15.08699 -10.92715,30.17371 -34.01448,33.69712c-23.08733,3.52341 -45.29048,-5.85073 -49.59213,-20.93772c-4.30165,-15.08699 10.92713,-30.1737 34.01446,-33.69711c23.08733,-3.52341 45.29049,5.85072 49.59215,20.93771z" fill="url(#color-2)" stroke-width="0"/><path d="M411.51188,122.10716c4.30165,15.08699 -10.92715,30.17371 -34.01448,33.69712c-23.08733,3.52341 -45.29048,-5.85073 -49.59213,-20.93772c-4.30165,-15.08699 10.92713,-30.1737 34.01446,-33.69711c23.08733,-3.52341 45.2905,5.85072 49.59215,20.93771z" fill="url(#color-3)" stroke-width="0"/><path d="M430.27159,213.75595c4.30165,15.08699 -10.92714,30.17371 -34.01448,33.69713c-23.08733,3.52341 -45.29047,-5.85073 -49.59213,-20.93772c-4.30165,-15.08699 10.92713,-30.17369 34.01446,-33.6971c23.08733,-3.52341 45.29049,5.85072 49.59214,20.9377z" fill="url(#color-4)" stroke-width="0"/><path d="M453.40828,164.31355c4.30165,15.08699 -10.92714,30.17371 -34.01448,33.69713c-23.08733,3.52341 -45.29048,-5.85073 -49.59213,-20.93772c-4.30165,-15.08699 10.92714,-30.1737 34.01447,-33.69711c23.08733,-3.52341 45.29049,5.85072 49.59214,20.93771z" fill="url(#color-5)" stroke-width="0"/><path d="M450.63859,134.95311c4.30165,15.08699 -10.92715,30.17371 -34.01448,33.69712c-23.08733,3.52341 -45.29048,-5.85073 -49.59213,-20.93772c-4.30165,-15.08699 10.92713,-30.1737 34.01446,-33.69711c23.08733,-3.52341 45.2905,5.85072 49.59215,20.93771z" fill="url(#color-6)" stroke-width="0"/><path d="M435.06736,116.70728c0.22897,0.17472 -0.00736,0.3404 -0.00736,0.3404l-0.16661,0.11681c-0.44164,0.24596 -0.09553,0.51639 0.34951,0.44061c0,0 0.32365,-0.04097 0.38309,0.19631c0.05944,0.23728 -0.26423,0.27824 -0.26423,0.27824c-0.48817,0.04933 -0.88135,-0.06548 -1.10156,-0.26316l-0.57976,0.241c-0.03871,0.14172 -0.11505,0.29352 -0.23117,0.45688c0,0 -0.15179,0.21244 -0.44374,0.0991c-0.29196,-0.11334 -0.14017,-0.32579 -0.14017,-0.32579c0.07097,-0.09874 0.12251,-0.18783 0.15427,-0.26933c-0.37657,0.02806 -0.77077,0.0123 -1.13551,-0.02752c-0.00074,0.14742 -0.05346,0.29396 -0.14618,0.42629c0.09105,0.06708 0.17938,0.13724 0.26428,0.21127c-0.007,-0.07119 0.02166,-0.16443 0.18736,-0.2214c0.29662,-0.10195 0.43909,0.1162 0.43909,0.1162l0.18364,0.29599c-0.00432,0.20077 -0.05922,0.41229 -0.15953,0.5954c0.18149,0.27716 0.35421,0.55266 0.61911,0.79213c0.10576,-0.0184 0.22454,-0.03527 0.35729,-0.05208l0.39263,0.00293c0,0 0.329,0.00636 0.3238,0.24707c-0.00519,0.24069 -0.33421,0.23432 -0.33421,0.23432l-0.26341,-0.00977c-0.07726,0.00979 -0.16788,-0.00182 -0.2574,-0.01369c-0.01632,0.02043 -0.03843,0.04107 -0.06767,0.06158c-0.12778,0.08958 -0.25336,0.07968 -0.34182,0.05168c-0.01141,0.11812 0.14369,0.26093 0.17623,0.38782c0,0 0.05944,0.23728 -0.26421,0.27824c-0.32365,0.04097 -0.38307,-0.19633 -0.38307,-0.19633c-0.099,-0.40332 -0.09423,-0.63407 0.07161,-0.78047c-0.17832,-0.18688 -0.31497,-0.38438 -0.44912,-0.58414c-0.27097,0.13233 -0.62922,0.12033 -1.05828,-0.16058c0,0 -0.22897,-0.17471 0.00736,-0.34041c0.23633,-0.1657 0.4653,0.00902 0.4653,0.00902c0.1149,0.13202 0.21506,0.13384 0.29611,0.07464c-0.10324,-0.1372 -0.2183,-0.27272 -0.35801,-0.40381c-0.08732,-0.08191 -0.17928,-0.15884 -0.27502,-0.23179c-0.22402,0.11627 -0.49738,0.17981 -0.79002,0.15745c0.0013,0.02321 -0.00133,0.03837 -0.00133,0.03837c-0.01573,0.0898 -0.03402,0.17883 -0.0541,0.26735c0.02241,-0.01431 0.04371,-0.02899 0.06365,-0.04389c0,0 0.23633,-0.1657 0.46529,0.00902c0.22897,0.17472 -0.00736,0.3404 -0.00736,0.3404c-0.20719,0.13929 -0.43918,0.24426 -0.68051,0.30549c-0.02739,0.099 -0.05483,0.1981 -0.08116,0.29774c0.22597,0.11565 0.37879,0.40222 0.49206,0.85455c0,0 0.05944,0.23728 -0.26423,0.27823c-0.32365,0.04097 -0.38308,-0.19631 -0.38308,-0.19631c-0.02457,-0.09809 -0.00323,-0.27553 0.00914,-0.42529c-0.04977,0.04357 -0.13005,0.07818 -0.25944,0.07382c-0.06843,-0.0023 -0.12213,-0.01453 -0.16426,-0.03249c-0.08134,0.06541 -0.16538,0.13011 -0.2564,0.19392l-0.39817,0.06283c0,0 -0.329,-0.00636 -0.32381,-0.24707c0.00519,-0.24069 0.33421,-0.23432 0.33421,-0.23432l-0.07017,0.06918c0.22662,-0.1589 0.42587,-0.27585 0.60155,-0.35146c0.02486,-0.09839 0.05132,-0.19612 0.07822,-0.29357c-0.25893,-0.02987 -0.51228,-0.11819 -0.74194,-0.27599l0.0245,-0.10786c-0.09988,0.0018 -0.18211,-0.03012 -0.18211,-0.03012c-0.10634,-0.04218 -0.20838,-0.07498 -0.30473,-0.10265c-0.36776,0.26889 -0.7588,0.5113 -1.21798,0.67335c0,0 -0.05904,0.02029 -0.13713,0.02338c0.04322,0.20139 0.03513,0.41108 -0.02991,0.64545c0,0 -0.06963,0.23477 -0.39124,0.18134c-0.3216,-0.05345 -0.252,-0.28823 -0.252,-0.28823c0.10277,-0.31855 -0.01133,-0.56843 -0.07719,-0.88974l-0.31985,0.02978c0,0 -0.329,-0.00636 -0.3238,-0.24707c0.00519,-0.24069 0.33421,-0.23432 0.33421,-0.23432l0.66422,0.04883c0.08317,0.10525 0.15494,0.20731 0.21445,0.30832c0.01976,-0.00937 0.03321,-0.01399 0.03321,-0.01399c0.30258,-0.10034 0.59239,-0.2536 0.87114,-0.43261c-0.17107,-0.09471 -0.25265,-0.24911 -0.20432,-0.58668l0.08559,-0.08738c-0.0395,-0.04933 -0.07277,-0.09835 -0.09975,-0.1471l-0.47645,0.08458c0,0 -0.09019,0.016 -0.18683,-0.0042c-0.22206,0.20266 -0.59024,0.34381 -1.05494,0.3486c0,0 -0.329,-0.00636 -0.3238,-0.24707c0.00519,-0.24069 0.33421,-0.23432 0.33421,-0.23432c0.62041,0.04309 0.91365,-0.45939 0.27763,-0.67878l-0.18141,0.02191c0,0 -0.329,-0.00636 -0.3238,-0.24707c0.00519,-0.24069 0.33421,-0.23432 0.33421,-0.23432l0.47463,0.03461c0.47185,0.1959 0.68512,0.47017 0.69757,0.73557l0.33816,-0.05992c0.01083,-0.0015 0.02162,-0.00301 0.03231,-0.00452c0.02135,-0.06601 0.05484,-0.13194 0.10054,-0.19801c-0.07319,-0.06037 -0.08899,-0.13722 -0.08899,-0.13722c-0.09897,-0.48197 -0.15475,-1.04817 0.202,-1.26172c-0.20224,-0.19957 -0.40814,-0.39677 -0.63265,-0.58235c-0.07698,0.00529 -0.16718,-0.01114 -0.25629,-0.07915c-0.03758,-0.02869 -0.06266,-0.05715 -0.07828,-0.08465c-0.14175,0.02545 -0.26841,0.06448 -0.35976,0.13621c0,0 -0.23633,0.1657 -0.4653,-0.00902c-0.22897,-0.17472 0.00736,-0.3404 0.00736,-0.3404c0.22797,-0.14985 0.52849,-0.24871 0.83075,-0.28983c0.16068,-0.02186 0.57824,0.09144 0.49086,-0.01058c-0.13862,-0.1618 -0.29116,-0.32013 -0.38974,-0.49674l-0.01258,0.01515c0,0 -0.22897,-0.17471 0.00736,-0.3404c0.23633,-0.1657 0.4653,0.00902 0.4653,0.00902l0.14885,0.1383c0.0306,0.0549 0.44551,0.7585 0.40181,0.83897c-0.05751,0.10585 -0.15644,0.17166 -0.27808,0.21517c0.31667,0.26757 0.59577,0.55916 0.88378,0.84542c0.10694,0.02548 0.22418,0.06077 0.35257,0.10682l0.24596,0.16992c0,0 0.19863,0.15154 0.03495,0.30624c0.05101,0.04173 0.10306,0.08282 0.1563,0.12318c0.05962,-0.13423 0.1395,-0.25928 0.23791,-0.36866c-0.02227,-0.00089 -0.04603,-0.0033 -0.07133,-0.00751c-0.3216,-0.05345 -0.252,-0.28823 -0.252,-0.28823l0.08107,-0.25129c-0.12266,-0.54688 0.09394,-0.85005 0.44868,-0.92617c0.02475,-0.11618 0.05531,-0.23067 0.08871,-0.34189l0.14359,-0.20454c-0.07182,-0.0425 -0.14562,-0.09206 -0.22147,-0.14872c0,0 -0.22897,-0.17471 0.00736,-0.34041c0.23633,-0.1657 0.4653,0.00902 0.4653,0.00902c0.34232,0.26874 0.37015,0.32151 0.52311,-0.0758l-0.01336,-0.16417c0,0 0.00519,-0.24069 0.33421,-0.23432c0.329,0.00636 0.32381,0.24707 0.32381,0.24707l-0.0237,0.31576c-0.20906,0.38542 -0.47123,0.58312 -0.78893,0.5852l-0.1309,0.17921c-0.02192,0.07529 -0.04351,0.15591 -0.0624,0.2396c0.1813,0.06456 0.36801,0.16544 0.54639,0.30156c0,0 0.22897,0.17471 -0.00736,0.34041c-0.23633,0.1657 -0.4653,-0.00902 -0.4653,-0.00902c-0.04753,-0.03626 -0.09247,-0.06944 -0.1347,-0.09917c0.00434,0.15829 0.03399,0.31195 0.1034,0.44783c0.1807,-0.01035 0.37771,0.01265 0.58889,0.07665c-0.21645,-0.17258 0.0147,-0.33466 0.0147,-0.33466l0.24988,-0.17522c0.71021,-0.37504 1.07632,-0.15011 1.2751,0.26656c0.19776,-0.12772 0.39374,-0.25771 0.58692,-0.39109c-0.0396,-0.1498 -0.00118,-0.33417 0.14186,-0.55434l0.68969,0.07079c0,0 0.22897,0.17471 -0.00736,0.3404c-0.06303,0.04418 -0.12552,0.06416 -0.1833,0.06972c0.08008,0.13889 0.47825,0.11877 0.78529,0.07571c0,0 0.32364,-0.04097 0.38308,0.19631c0.05944,0.23728 -0.26423,0.27823 -0.26423,0.27823c-0.42658,0.04973 -0.84077,0.02018 -1.135,-0.09359c-0.27634,0.1925 -0.55198,0.38117 -0.82879,0.56645c0.00174,0.01172 0.01862,0.1469 -0.11701,0.22094l0.01518,0.01507c0.46659,0.18556 0.7969,0.39152 0.97001,0.63254c0.02556,-0.00777 0.05073,-0.01596 0.07543,-0.02452l0.04567,0.00538l-0.00325,-0.01291l0.38296,-0.04846c0.02449,-0.17206 0.13912,-0.35614 0.36378,-0.53142l0.16661,-0.11681c0,0 0.23633,-0.1657 0.4653,0.00902zM429.43417,119.23901c0.0789,0.06022 0.10256,0.11934 0.09968,0.17101c0.06601,0.02424 0.13733,0.03704 0.21105,0.04051c0.04688,-0.1782 0.08945,-0.35732 0.12093,-0.53964c0,0 0.01223,-0.07037 0.07573,-0.1294c-0.15383,-0.07298 -0.28367,-0.16343 -0.39095,-0.2664c-0.22623,0.1627 -0.44341,0.33678 -0.662,0.50975c0.0484,0.01186 0.0943,0.0253 0.13561,0.04108c0,0 0.0837,0.0325 0.13818,0.09532c0.08021,-0.00863 0.17662,0.00516 0.27178,0.07776zM428.56491,117.70218c-0.01589,0.01115 -0.03179,0.02075 -0.04756,0.02899c0.20351,-0.01823 0.40948,-0.01781 0.64371,0.01783c-0.01004,-0.07151 -0.01439,-0.14365 -0.01337,-0.21565c-0.38992,-0.2512 -0.71314,-0.54271 -1.02155,-0.84279c-0.19382,0.04364 -0.08531,0.34858 -0.00535,0.61286l0.45147,0.05836c0,0 0.22897,0.17471 -0.00736,0.34041zM428.46566,118.50006c0,0 0.07012,0.05349 0.09271,0.12938c0.17715,-0.13911 0.34991,-0.27806 0.51889,-0.40823c-0.30991,-0.06623 -0.58424,-0.02602 -0.87746,0.03233c0.05544,0.07547 0.14386,0.15607 0.26588,0.24654zM431.71731,116.08274l-0.24988,0.17521c0,0 -0.11233,0.07877 -0.25714,0.07041c0.12617,0.0987 0.22944,0.19656 0.32681,0.29465c0.15683,-0.09593 0.31352,-0.19216 0.46961,-0.28924c-0.04657,-0.25069 -0.1315,-0.5183 -0.2894,-0.25103zM432.29726,117.21937l-0.24596,-0.16992c0,0 -0.01837,-0.01401 -0.03931,-0.03784c-0.01638,0.01052 -0.03276,0.02104 -0.04916,0.03156c0.01637,0.01437 0.03311,0.02878 0.05029,0.0432l0.01481,0.43871c0.28356,0.03008 0.58994,0.03883 0.88372,0.01695c-0.12424,-0.11292 -0.32829,-0.21517 -0.61437,-0.32266zM430.77677,116.68422c-0.49937,-0.30652 -0.82151,0.1673 -0.88627,0.67373c0.08078,0.04546 0.16207,0.08994 0.24362,0.13379c0.2977,-0.19122 0.60005,-0.37789 0.90375,-0.56376c-0.07629,-0.08183 -0.15596,-0.16432 -0.26108,-0.24376zM430.72427,117.80378c0.17695,0.09413 0.35171,0.18958 0.52131,0.29026c0.06083,-0.13596 -0.00486,-0.29682 -0.28909,-0.42782c-0.07703,0.04601 -0.15442,0.09186 -0.23221,0.13754zM430.19287,118.10963c-0.03299,0.01862 -0.06607,0.03719 -0.09923,0.05576c-0.00038,0.00022 -0.00079,0.00045 -0.00117,0.00067c0.17566,0.16529 0.39748,0.22376 0.60086,0.21396c-0.16328,-0.09318 -0.33116,-0.18208 -0.50046,-0.27037z" fill="#a8f2ff" stroke-width="0.5"/><path d="M445.72519,196.8613c0.11083,0.21179 -0.12508,0.25341 -0.12508,0.25341l-0.16632,0.02933c-0.4185,0.02986 -0.25319,0.35479 0.10809,0.45409c0,0 0.25777,0.08285 0.21915,0.28216c-0.03863,0.19931 -0.29642,0.11644 -0.29642,0.11644c-0.38444,-0.13434 -0.63979,-0.35877 -0.73597,-0.58475l-0.52062,-0.02237c-0.07888,0.09298 -0.18961,0.18032 -0.3343,0.26239c0,0 -0.18875,0.10645 -0.3685,-0.08131c-0.17975,-0.18776 0.009,-0.29422 0.009,-0.29422c0.08805,-0.04934 0.15809,-0.09823 0.2106,-0.14836c-0.29305,-0.11114 -0.58396,-0.26144 -0.84425,-0.41948c-0.05233,0.11061 -0.14344,0.20228 -0.25964,0.26924c0.04492,0.08241 0.0867,0.16621 0.12455,0.25169c0.01974,-0.056 0.07403,-0.11605 0.21865,-0.10069c0.25887,0.0275 0.2894,0.24158 0.2894,0.24158l0.03415,0.28709c-0.07376,0.14947 -0.18933,0.28925 -0.32907,0.39172c0.03914,0.27217 0.07229,0.54001 0.18739,0.81311c0.086,0.02331 0.18124,0.05233 0.28697,0.08631l0.29423,0.1401c0,0 0.24518,0.12033 0.15673,0.29952c-0.08843,0.17918 -0.33362,0.05884 -0.33362,0.05884l-0.19465,-0.09985c-0.06154,-0.01978 -0.12561,-0.06032 -0.18877,-0.10069c-0.01945,0.00964 -0.04332,0.01739 -0.07252,0.02254c-0.12755,0.02249 -0.21852,-0.02906 -0.2752,-0.08118c-0.05007,0.08482 0.01641,0.24669 -0.00367,0.35354c0,0 -0.03863,0.1993 -0.2964,0.11645c-0.25777,-0.08286 -0.21913,-0.28218 -0.21913,-0.28218c0.06719,-0.33807 0.15181,-0.50991 0.32795,-0.56177c-0.06846,-0.20317 -0.10187,-0.39967 -0.1326,-0.59701c-0.25025,0.00435 -0.51545,-0.1305 -0.73945,-0.49243c0,0 -0.11083,-0.21179 0.12509,-0.2534c0.23592,-0.04161 0.34675,0.17019 0.34675,0.17019c0.04004,0.13964 0.11472,0.17618 0.19647,0.16012c-0.02946,-0.13943 -0.06839,-0.28176 -0.12741,-0.4294c-0.0369,-0.09227 -0.07904,-0.18241 -0.12542,-0.27089c-0.20929,0.00877 -0.43718,-0.03945 -0.6494,-0.15904c-0.00718,0.01791 -0.01447,0.02839 -0.01447,0.02839c-0.04337,0.06201 -0.08838,0.12253 -0.13456,0.18206c0.02189,-0.00289 0.04305,-0.00644 0.06327,-0.01065c0,0 0.23592,-0.04161 0.34675,0.17019c0.11083,0.21179 -0.12509,0.2534 -0.12509,0.2534c-0.20472,0.03197 -0.41605,0.02945 -0.61904,-0.00926c-0.05537,0.06483 -0.11081,0.12972 -0.1656,0.1954c0.12931,0.16633 0.1436,0.4355 0.06992,0.81544c0,0 -0.03863,0.19931 -0.29642,0.11644c-0.25777,-0.08286 -0.21915,-0.28217 -0.21915,-0.28217c0.01598,-0.08239 0.09433,-0.20833 0.15623,-0.31661c-0.05273,0.01529 -0.12526,0.01311 -0.22103,-0.0356c-0.05065,-0.02576 -0.08673,-0.05382 -0.11212,-0.08212c-0.08414,0.02062 -0.17006,0.03977 -0.26092,0.05578l-0.3215,-0.09259c0,0 -0.24518,-0.12033 -0.15673,-0.29952c0.08843,-0.17918 0.33362,-0.05884 0.33362,-0.05884l-0.07706,0.02738c0.22622,-0.03991 0.41714,-0.05789 0.5758,-0.05305c0.05325,-0.06526 0.10746,-0.12946 0.16192,-0.1933c-0.18422,-0.11339 -0.34374,-0.26878 -0.46102,-0.46811l0.05631,-0.07252c-0.07574,-0.03372 -0.12636,-0.08661 -0.12636,-0.08661c-0.06516,-0.06907 -0.13038,-0.12958 -0.19312,-0.18421c-0.37099,0.07305 -0.75019,0.11802 -1.15241,0.07862c0,0 -0.05153,-0.00547 -0.11133,-0.03058c-0.03822,0.16663 -0.11795,0.32148 -0.24917,0.47488c0,0 -0.13481,0.1521 -0.35789,-0.00103c-0.22308,-0.15314 -0.08828,-0.30526 -0.08828,-0.30526c0.18916,-0.20346 0.19111,-0.43146 0.25442,-0.69621l-0.25098,-0.08993c0,0 -0.24518,-0.12033 -0.15674,-0.29952c0.08843,-0.17918 0.33363,-0.05884 0.33363,-0.05884l0.48235,0.26999c0.02559,0.10836 0.04372,0.21031 0.05299,0.30718c0.01815,-0.00011 0.02988,0.00114 0.02988,0.00114c0.26279,0.03081 0.53454,0.01733 0.80703,-0.01939c-0.09539,-0.1313 -0.10251,-0.27606 0.05239,-0.51295l0.09505,-0.03565c-0.01238,-0.05097 -0.02018,-0.09951 -0.02335,-0.14565l-0.388,-0.10372c0,0 -0.07344,-0.01964 -0.13902,-0.06877c-0.23817,0.07442 -0.56461,0.05127 -0.91574,-0.10833c0,0 -0.24518,-0.12033 -0.15673,-0.29952c0.08843,-0.17918 0.33363,-0.05884 0.33363,-0.05884c0.45142,0.25029 0.84842,-0.0246 0.44716,-0.41295l-0.14411,-0.04722c0,0 -0.24518,-0.12033 -0.15673,-0.29952c0.08843,-0.17918 0.33362,-0.05884 0.33362,-0.05884l0.34477,0.19271c0.28604,0.31303 0.3501,0.59419 0.26626,0.79814l0.27534,0.07369c0.00867,0.00267 0.01732,0.00534 0.02589,0.00794c0.03923,-0.04214 0.08758,-0.07997 0.14515,-0.11361c-0.03384,-0.0711 -0.01873,-0.13445 -0.01873,-0.13445c0.09484,-0.39721 0.25174,-0.84259 0.59501,-0.87788c-0.082,-0.22111 -0.16758,-0.44171 -0.27124,-0.66012c-0.05975,-0.02306 -0.12182,-0.06709 -0.16494,-0.14952c-0.01818,-0.03477 -0.02706,-0.06498 -0.02915,-0.09115c-0.11554,-0.03064 -0.22449,-0.04577 -0.31838,-0.02392c0,0 -0.23592,0.04161 -0.34675,-0.17019c-0.11083,-0.21179 0.12509,-0.2534 0.12509,-0.2534c0.22406,-0.03263 0.48477,-0.00143 0.72652,0.07379c0.12851,0.03999 0.40274,0.27184 0.37285,0.16443c-0.04742,-0.17036 -0.10653,-0.34299 -0.11864,-0.51043l-0.01478,0.00697c0,0 -0.11083,-0.21179 0.12508,-0.25341c0.23592,-0.04161 0.34675,0.17019 0.34675,0.17019l0.06337,0.15628c0.00374,0.05203 0.06865,0.72687 0.00753,0.77202c-0.08042,0.0594 -0.17794,0.07415 -0.28468,0.06415c0.14417,0.31243 0.25165,0.62973 0.36771,0.94614c0.07148,0.05673 0.14725,0.12442 0.22761,0.20415l0.12529,0.21416c0,0 0.09615,0.18372 -0.08127,0.24257c0.02371,0.04929 0.04842,0.09849 0.07428,0.14753c0.09197,-0.08001 0.19597,-0.14599 0.30839,-0.19369c-0.01644,-0.00849 -0.03346,-0.01865 -0.05101,-0.0307c-0.22308,-0.15314 -0.08828,-0.30526 -0.08828,-0.30526l0.14921,-0.1605c0.09982,-0.45434 0.36918,-0.60626 0.66268,-0.53892c0.05941,-0.07867 0.12261,-0.15403 0.18678,-0.22595l0.17981,-0.10339c-0.03908,-0.05719 -0.07718,-0.12037 -0.11432,-0.18962c0,0 -0.11083,-0.21179 0.12508,-0.25341c0.23592,-0.04161 0.34675,0.17019 0.34675,0.17019c0.16305,0.32231 0.16544,0.37177 0.42,0.1267l0.04761,-0.12815c0,0 0.08844,-0.17918 0.33363,-0.05884c0.24518,0.12033 0.15674,0.29952 0.15674,0.29952l-0.12872,0.22913c-0.29257,0.21642 -0.55917,0.27302 -0.7988,0.163l-0.16138,0.0888c-0.04292,0.04892 -0.08747,0.10196 -0.13107,0.15827c0.11367,0.11222 0.21864,0.25366 0.30498,0.41866c0,0 0.11083,0.21179 -0.12509,0.2534c-0.23592,0.04161 -0.34675,-0.17019 -0.34675,-0.17019c-0.02301,-0.04396 -0.04515,-0.0847 -0.06646,-0.12188c-0.05233,0.12056 -0.084,0.24653 -0.07952,0.37309c0.13953,0.05568 0.2796,0.14215 0.41594,0.26445c-0.10217,-0.2058 0.12858,-0.2465 0.12858,-0.2465l0.24946,-0.04401c0.6658,-0.03262 0.86212,0.26511 0.86528,0.64826c0.19357,-0.02659 0.38661,-0.05553 0.57872,-0.08798c0.02283,-0.12656 0.11646,-0.25172 0.30136,-0.36705l0.4938,0.29546c0,0 0.11084,0.21179 -0.12508,0.2534c-0.06292,0.01109 -0.11693,0.00417 -0.16233,-0.01194c0.01145,0.13257 0.31794,0.25727 0.56396,0.33272c0,0 0.25777,0.08285 0.21915,0.28216c-0.03863,0.19931 -0.29642,0.11644 -0.29642,0.11644c-0.33826,-0.11242 -0.63936,-0.2801 -0.82067,-0.46898c-0.27542,0.04772 -0.54896,0.09279 -0.8222,0.13491c-0.00281,0.00942 -0.03758,0.117 -0.16558,0.12505l0.00612,0.01666c0.28572,0.30341 0.46178,0.57429 0.50731,0.81634c0.02195,0.00313 0.04375,0.00582 0.06533,0.00805l0.03245,0.02008l0.00209,-0.01085l0.305,0.09805c0.07884,-0.12079 0.22969,-0.21896 0.46019,-0.27188l0.16631,-0.02933c0,0 0.23592,-0.04161 0.34675,0.1702zM440.59984,196.78686c0.03819,0.073 0.03522,0.12577 0.01491,0.16361c0.04113,0.04141 0.09027,0.07608 0.14449,0.10458c0.09784,-0.11754 0.19275,-0.2373 0.28045,-0.36334c0,0 0.03391,-0.04862 0.1024,-0.07071c-0.09005,-0.10891 -0.15593,-0.22252 -0.20044,-0.33764c-0.22727,0.04291 -0.45173,0.09754 -0.67685,0.15085c0.03223,0.02592 0.06202,0.05214 0.08755,0.07851c0,0 0.05153,0.05384 0.07044,0.12021c0.06336,0.02167 0.13101,0.0659 0.17708,0.15393zM440.48587,195.32587c-0.01587,0.00281 -0.03119,0.00445 -0.04595,0.0051c0.15945,0.05776 0.3142,0.13041 0.47782,0.23947c0.01756,-0.0573 0.03962,-0.11308 0.06567,-0.16687c-0.20501,-0.32584 -0.3457,-0.65857 -0.47224,-0.99255c-0.16108,-0.03524 -0.18657,0.23217 -0.21925,0.45899l0.31902,0.20244c0,0 0.11083,0.21179 -0.12509,0.2534zM440.13102,195.89103c0,0 0.03394,0.06485 0.02428,0.12986c0.18207,-0.0424 0.36079,-0.08622 0.53358,-0.12476c-0.2098,-0.15865 -0.43023,-0.22475 -0.67122,-0.28385c0.01519,0.07623 0.05338,0.16789 0.11336,0.27878zM443.42525,195.21512l-0.24945,0.044c0,0 -0.11214,0.01979 -0.2181,-0.03736c0.06022,0.11853 0.10351,0.2284 0.14229,0.33636c0.15163,-0.01707 0.30326,-0.03441 0.45474,-0.05259c0.05302,-0.20487 0.08313,-0.43594 -0.12946,-0.29041zM443.4622,196.27356l-0.12529,-0.21416c0,0 -0.00889,-0.01699 -0.01628,-0.04226c-0.01601,0.00216 -0.03203,0.00433 -0.04805,0.00647c0.00727,0.01655 0.01479,0.03327 0.02265,0.05014l-0.14293,0.33512c0.20268,0.1222 0.43,0.23638 0.65862,0.3231c-0.05378,-0.12855 -0.17131,-0.2771 -0.34869,-0.4584zM442.50672,195.33714c-0.26788,-0.40588 -0.67654,-0.1627 -0.9031,0.1954c0.04478,0.06255 0.09029,0.12456 0.13622,0.18618c0.29103,-0.03925 0.58396,-0.07344 0.87762,-0.10657c-0.02864,-0.08832 -0.05957,-0.17835 -0.11072,-0.275zM442.07406,196.16063c0.10001,0.13292 0.19791,0.26608 0.29009,0.40136c0.09349,-0.08088 0.10058,-0.22492 -0.06715,-0.42326c-0.07408,0.00756 -0.14839,0.01485 -0.22292,0.02188zM441.56703,196.204c-0.03134,0.00241 -0.06275,0.00477 -0.0942,0.00708c-0.00036,0.00003 -0.00075,0.00006 -0.00112,0.00009c0.07405,0.18599 0.22032,0.30786 0.37672,0.37191c-0.09007,-0.12741 -0.18509,-0.25323 -0.2814,-0.37909z" fill="#a8f2ff" stroke-width="0.5"/><path d="M336.80181,93.44897c0.21504,0.08159 0.07188,0.26223 0.07188,0.26223l-0.10093,0.12735c-0.28204,0.28883 0.04448,0.41701 0.36786,0.25767c0,0 0.23839,-0.10506 0.33792,0.06302c0.09953,0.16808 -0.13889,0.27314 -0.13889,0.27314c-0.36242,0.14893 -0.68952,0.15057 -0.90308,0.04941l-0.38889,0.31649c0.00265,0.11729 -0.02123,0.25087 -0.07291,0.40235c0,0 -0.06781,0.19717 -0.31708,0.1769c-0.24927,-0.02027 -0.18148,-0.21744 -0.18148,-0.21744c0.03184,-0.09174 0.051,-0.17167 0.05675,-0.24128c-0.28185,0.10723 -0.58717,0.18494 -0.87541,0.23751c0.03301,0.11301 0.02602,0.23718 -0.01481,0.35959c0.08498,0.0306 0.16855,0.06421 0.25039,0.10153c-0.02157,-0.0529 -0.02086,-0.13079 0.093,-0.21213c0.20382,-0.14558 0.36254,-0.01105 0.36254,-0.01105l0.20796,0.18474c0.04241,0.15466 0.04856,0.32906 0.01348,0.49207c0.20204,0.17082 0.39698,0.34236 0.65427,0.46533c0.07676,-0.03816 0.16383,-0.07813 0.26162,-0.12122l0.30119,-0.08716c0,0 0.25327,-0.07005 0.30411,0.11538c0.05084,0.18541 -0.20246,0.25546 -0.20246,0.25546l-0.20383,0.0525c-0.05691,0.02508 -0.12891,0.03684 -0.20014,0.04814c-0.00784,0.01936 -0.02006,0.0402 -0.03777,0.06254c-0.0774,0.09767 -0.17578,0.11868 -0.24986,0.11739c0.01816,0.093 0.1694,0.167 0.22321,0.25672c0,0 0.09952,0.16807 -0.13887,0.27314c-0.2384,0.10505 -0.33792,-0.06304 -0.33792,-0.06304c-0.16763,-0.28617 -0.21651,-0.46386 -0.12291,-0.61369c-0.17904,-0.10244 -0.32862,-0.22248 -0.47679,-0.34484c-0.17728,0.16299 -0.45422,0.23538 -0.8466,0.11808c0,0 -0.21505,-0.08158 -0.07189,-0.26223c0.14316,-0.18064 0.35821,-0.09906 0.35821,-0.09906c0.11801,0.07489 0.19509,0.05347 0.24365,-0.01031c-0.11027,-0.0815 -0.22919,-0.15903 -0.36598,-0.22756c-0.08549,-0.04282 -0.1734,-0.08075 -0.26329,-0.11479c-0.14499,0.14 -0.33976,0.2509 -0.56885,0.30042c0.00628,0.01748 0.00772,0.02967 0.00772,0.02967c0.00841,0.07232 0.01468,0.14462 0.01947,0.21695c0.01389,-0.01606 0.02686,-0.03215 0.03872,-0.04808c0,0 0.14317,-0.18064 0.35821,-0.09905c0.21504,0.08159 0.07188,0.26223 0.07188,0.26223c-0.12687,0.15379 -0.28053,0.28697 -0.45131,0.38879c0.00158,0.08201 0.00315,0.16412 0.00568,0.24638c0.19929,0.03707 0.38153,0.22161 0.57123,0.54204c0,0 0.09953,0.16808 -0.13889,0.27314c-0.2384,0.10505 -0.33793,-0.06303 -0.33793,-0.06303c-0.04114,-0.06949 -0.06522,-0.21016 -0.08985,-0.32761c-0.02818,0.04468 -0.08174,0.08946 -0.18177,0.11558c-0.05291,0.01382 -0.09678,0.01668 -0.13313,0.01254c-0.04736,0.06859 -0.09696,0.13724 -0.15209,0.20682l-0.29047,0.13877c0,0 -0.25327,0.07005 -0.30411,-0.11538c-0.05084,-0.18541 0.20246,-0.25546 0.20246,-0.25546l-0.03796,0.06894c0.13727,-0.17323 0.26314,-0.30812 0.3804,-0.406c-0.00337,-0.08097 -0.00538,-0.1618 -0.00698,-0.24251c-0.20499,0.03609 -0.41902,0.02619 -0.63074,-0.0423l-0.00581,-0.08814c-0.07604,0.02412 -0.14625,0.01841 -0.14625,0.01841c-0.091,-0.00807 -0.17658,-0.00994 -0.25663,-0.00918c-0.22026,0.28956 -0.46437,0.56415 -0.77894,0.79275c0,0 -0.04058,0.02898 -0.09963,0.04912c0.07894,0.14431 0.1205,0.30665 0.12409,0.50085c0,0 0.00017,0.19555 -0.25817,0.22789c-0.25833,0.03232 -0.25852,-0.16323 -0.25852,-0.16323c0.00612,-0.26722 -0.13812,-0.43252 -0.2617,-0.66345l-0.23803,0.09563c0,0 -0.25328,0.07005 -0.30411,-0.11538c-0.05084,-0.18541 0.20245,-0.25546 0.20245,-0.25546l0.51953,-0.11388c0.08763,0.06162 0.1658,0.1234 0.23436,0.18716c0.013,-0.01167 0.02223,-0.01826 0.02223,-0.01826c0.20876,-0.14571 0.39567,-0.32901 0.56827,-0.52951c-0.15252,-0.03353 -0.25011,-0.13314 -0.28998,-0.40254l0.04562,-0.08637c-0.04147,-0.02876 -0.0781,-0.05871 -0.10985,-0.08988l-0.34543,0.17324c0,0 -0.06539,0.03278 -0.14396,0.03932c-0.12382,0.20568 -0.37349,0.39756 -0.72809,0.50705c0,0 -0.25327,0.07005 -0.3041,-0.11538c-0.05084,-0.18541 0.20245,-0.25547 0.20245,-0.25547c0.48469,-0.1083 0.59472,-0.55968 0.05794,-0.58278l-0.13387,0.05808c0,0 -0.25327,0.07005 -0.30411,-0.11538c-0.05084,-0.18541 0.20246,-0.25546 0.20246,-0.25546l0.37118,-0.08159c0.40578,0.0425 0.63147,0.20387 0.70143,0.40417l0.24519,-0.12287c0.00795,-0.00362 0.01587,-0.00722 0.0237,-0.01083c0.00132,-0.05539 0.01193,-0.11348 0.03187,-0.17446c-0.06977,-0.02954 -0.09936,-0.08477 -0.09936,-0.08477c-0.1855,-0.34638 -0.35713,-0.76706 -0.1327,-1.01175c-0.20025,-0.1067 -0.40275,-0.21075 -0.61686,-0.30168c-0.05771,0.02157 -0.13051,0.02954 -0.21419,-0.00222c-0.0353,-0.01341 -0.06097,-0.02948 -0.0792,-0.04697c-0.1027,0.05176 -0.19077,0.11048 -0.24436,0.18617c0,0 -0.14317,0.18064 -0.35821,0.09905c-0.21504,-0.08159 -0.07188,-0.26223 -0.07188,-0.26223c0.14037,-0.16661 0.34788,-0.31071 0.56987,-0.41102c0.11801,-0.05332 0.46342,-0.06169 0.3733,-0.11988c-0.14295,-0.09228 -0.29576,-0.17873 -0.41143,-0.29146l-0.00618,0.01445c0,0 -0.21504,-0.08159 -0.07188,-0.26223c0.14316,-0.18064 0.35821,-0.09905 0.35821,-0.09905l0.14543,0.07196c0.03593,0.03505 0.51373,0.47912 0.4986,0.55066c-0.01992,0.09411 -0.08066,0.16702 -0.16385,0.22802c0.30332,0.1327 0.58335,0.29234 0.86898,0.44585c0.08765,-0.00485 0.18543,-0.00453 0.29418,0.00148l0.22696,0.07404c0,0 0.18654,0.07076 0.09648,0.22645c0.04855,0.02032 0.09775,0.03994 0.14768,0.05869c0.01506,-0.11632 0.04774,-0.23023 0.09815,-0.33636c-0.01725,0.00439 -0.03599,0.00796 -0.05631,0.01049c-0.25833,0.03232 -0.25852,-0.16324 -0.25852,-0.16324l0.00482,-0.2108c-0.21842,-0.39066 -0.12166,-0.67203 0.13253,-0.81109c-0.00751,-0.09456 -0.01019,-0.18916 -0.00995,-0.28189l0.06332,-0.18926c-0.06466,-0.01618 -0.13243,-0.0373 -0.20338,-0.0634c0,0 -0.21505,-0.08158 -0.07189,-0.26222c0.14316,-0.18064 0.35821,-0.09906 0.35821,-0.09906c0.32322,0.12774 0.35653,0.16181 0.38313,-0.17714l-0.04761,-0.12262c0,0 -0.05085,-0.18541 0.20245,-0.25547c0.25327,-0.07005 0.30411,0.11538 0.30411,0.11538l0.05376,0.24708c-0.07225,0.34261 -0.22791,0.55365 -0.47061,0.62758l-0.05938,0.16699c0.00037,0.06262 0.0022,0.12924 0.0068,0.1976c0.15348,0.00813 0.31936,0.04283 0.48688,0.1064c0,0 0.21504,0.08157 0.07189,0.26222c-0.14316,0.18064 -0.3582,0.09906 -0.3582,0.09906c-0.04464,-0.01693 -0.08659,-0.0321 -0.12568,-0.04525c0.03937,0.12017 0.09706,0.23104 0.18112,0.31924c0.13595,-0.04908 0.29199,-0.07634 0.46821,-0.07544c-0.20499,-0.0828 -0.06495,-0.25951 -0.06495,-0.25951l0.15137,-0.19101c0.4582,-0.4488 0.78965,-0.36 1.03669,-0.08634c0.12229,-0.1428 0.24269,-0.28692 0.36018,-0.433c-0.06443,-0.10565 -0.077,-0.25551 -0.01765,-0.4566l0.54403,-0.10287c0,0 0.21505,0.08158 0.07189,0.26222c-0.03818,0.04817 -0.08147,0.07769 -0.12442,0.09511c0.09292,0.08807 0.39311,-0.018 0.61832,-0.12088c0,0 0.2384,-0.10505 0.33793,0.06303c0.09953,0.16808 -0.13889,0.27314 -0.13889,0.27314c-0.31519,0.1352 -0.63895,0.2069 -0.89007,0.18683c-0.16768,0.21027 -0.33569,0.41745 -0.50538,0.6223c0.004,0.00858 0.0477,0.10821 -0.03925,0.19576l0.01504,0.00808c0.3994,0.03578 0.69911,0.11821 0.8865,0.26328c0.01779,-0.01177 0.03519,-0.02377 0.05215,-0.03594l0.03618,-0.00627l-0.00543,-0.00914l0.28208,-0.1243c-0.02043,-0.13728 0.02539,-0.30427 0.15743,-0.4896l0.10093,-0.12735c0,0 0.14317,-0.18064 0.35821,-0.09906zM333.06656,96.6696c0.0741,0.02813 0.10568,0.068 0.11524,0.10819c0.05604,0.00351 0.11356,-0.00292 0.17077,-0.01705c-0.00469,-0.14707 -0.0129,-0.29387 -0.03033,-0.44059c0,0 -0.00666,-0.05664 0.0285,-0.11629c-0.13436,-0.02083 -0.25434,-0.06049 -0.35991,-0.11488c-0.13611,0.17605 -0.26271,0.35875 -0.39063,0.54092c0.03974,-0.00194 0.07793,-0.0021 0.11315,0.00056c0,0 0.07147,0.00582 0.12748,0.0415c0.05943,-0.02488 0.13636,-0.03627 0.22574,-0.00237zM332.05126,95.69123c-0.00962,0.01215 -0.01961,0.02313 -0.0298,0.03302c0.15162,-0.0603 0.30938,-0.10689 0.49677,-0.13293c-0.02397,-0.05245 -0.04372,-0.10668 -0.05934,-0.16202c-0.35566,-0.10348 -0.66944,-0.253 -0.97384,-0.41246c-0.13842,0.07754 0.01408,0.28624 0.13546,0.47031l0.35886,-0.05814c0,0 0.21504,0.08159 0.07188,0.26223zM332.15697,96.32454c0,0 0.06585,0.02498 0.10043,0.07792c0.10392,-0.14682 0.20452,-0.29251 0.30421,-0.43063c-0.25229,0.01987 -0.45312,0.11313 -0.66427,0.22457c0.05962,0.04515 0.14566,0.0867 0.25966,0.12816zM334.09539,93.7338l-0.15137,0.19101c0,0 -0.06804,0.08588 -0.18079,0.11245c0.11905,0.04681 0.22037,0.09821 0.31724,0.15111c0.0982,-0.10915 0.19623,-0.21848 0.29359,-0.32833c-0.09273,-0.18127 -0.21868,-0.36678 -0.27868,-0.12625zM334.79813,94.47175l-0.22695,-0.07405c0,0 -0.01726,-0.00654 -0.03871,-0.02001c-0.01014,0.01179 -0.02028,0.02357 -0.03044,0.03535c0.0158,0.00727 0.0319,0.01449 0.04833,0.02161l0.11124,0.33243c0.2239,-0.04155 0.46039,-0.10462 0.68027,-0.18827c-0.12081,-0.05814 -0.30027,-0.08995 -0.54373,-0.10707zM333.51245,94.40837c-0.45202,-0.12091 -0.59071,0.31512 -0.52495,0.71751c0.07218,0.0164 0.14453,0.03194 0.21694,0.04693c0.18432,-0.21416 0.37324,-0.42589 0.56337,-0.63732c-0.07703,-0.04526 -0.15679,-0.09026 -0.25534,-0.12713zM333.72721,95.27727c0.15687,0.03175 0.31237,0.06501 0.46512,0.10346c0.0156,-0.11792 -0.07132,-0.22609 -0.31871,-0.26163c-0.04848,0.05276 -0.09728,0.10548 -0.14642,0.15815zM333.39011,95.63237c-0.02101,0.02176 -0.0421,0.04352 -0.06325,0.06527c-0.00024,0.00025 -0.00051,0.00052 -0.00075,0.00078c0.17209,0.08652 0.35518,0.08075 0.50864,0.02694c-0.1462,-0.03413 -0.29494,-0.06396 -0.44463,-0.09299z" fill="#a8f2ff" stroke-width="0.5"/><path d="M350.87577,265.79231c0.26096,-0.00355 0.26581,0.18737 0.26581,0.18737l0.00341,0.13459c-0.04139,0.32231 0.35809,0.32038 0.53615,0.0887c0,0 0.1407,-0.16083 0.36052,-0.05789c0.21983,0.10294 0.0791,0.26377 0.0791,0.26377c-0.2221,0.23584 -0.52345,0.34215 -0.79791,0.32953l-0.11923,0.37879c0.0916,0.09327 0.17103,0.20814 0.23835,0.34629c0,0 0.08714,0.18 -0.15889,0.24374c-0.24603,0.06374 -0.33316,-0.11625 -0.33316,-0.11625c-0.04028,-0.08384 -0.0833,-0.15413 -0.13088,-0.21184c-0.17924,0.17652 -0.40264,0.33687 -0.62936,0.47158c0.11643,0.0801 0.20433,0.18198 0.25959,0.29332c0.10187,-0.00271 0.20473,-0.00258 0.30882,0.00111c-0.06016,-0.03552 -0.11871,-0.09826 -0.07519,-0.20008c0.07792,-0.18224 0.32701,-0.12524 0.32701,-0.12524l0.3328,0.0815c0.15678,0.11051 0.29502,0.24848 0.38645,0.39055c0.31674,0.07223 0.62745,0.14732 0.95894,0.16342c0.04201,-0.05527 0.09219,-0.11528 0.1499,-0.18125l0.2124,-0.16662c0,0 0.18107,-0.1375 0.36903,-0.00502c0.18795,0.13248 0.00686,0.26999 0.00686,0.26999l-0.14867,0.10756c-0.03359,0.0384 -0.09126,0.07094 -0.14857,0.10287c0.00746,0.01805 0.01199,0.03869 0.01259,0.06232c0.00263,0.10322 -0.07242,0.15167 -0.14195,0.17441c0.08749,0.0688 0.28364,0.07965 0.40161,0.13437c0,0 0.21982,0.10293 0.07912,0.26376c-0.1407,0.16083 -0.36053,0.05788 -0.36053,0.05788c-0.37258,-0.17585 -0.55286,-0.30275 -0.58014,-0.45303c-0.2435,-0.02474 -0.47311,-0.07307 -0.70318,-0.1237c-0.04012,0.1877 -0.24132,0.33468 -0.69349,0.36649c0,0 -0.26095,0.00355 -0.2658,-0.18736c-0.00485,-0.19092 0.2561,-0.19446 0.2561,-0.19446c0.16609,0.02222 0.22113,-0.0197 0.21758,-0.08647c-0.16395,-0.03002 -0.33291,-0.05406 -0.51154,-0.06515c-0.11163,-0.00692 -0.22179,-0.00915 -0.33082,-0.00761c-0.02772,0.15889 -0.12364,0.3104 -0.29793,0.42367c0.01908,0.01201 0.02969,0.02133 0.02969,0.02133c0.06274,0.05533 0.1235,0.11134 0.1829,0.16785c0.00065,-0.01735 0.00042,-0.03442 -0.00072,-0.05102c0,0 -0.00486,-0.19092 0.2561,-0.19446c0.26096,-0.00355 0.26581,0.18736 0.26581,0.18736c-0.00049,0.16414 -0.04143,0.32034 -0.12203,0.45687c0.0638,0.06531 0.12765,0.13069 0.19251,0.19589c0.21255,-0.03422 0.52139,0.05539 0.94043,0.25164c0,0 0.21982,0.10294 0.0791,0.26377c-0.1407,0.16083 -0.36053,0.05789 -0.36053,0.05789c-0.09087,-0.04256 -0.22006,-0.14772 -0.33212,-0.23406c0.00789,0.0449 -0.00763,0.09803 -0.08031,0.1511c-0.03843,0.02807 -0.07687,0.04445 -0.11363,0.0528c0.00831,0.07024 0.01462,0.14126 0.01649,0.21478l-0.16325,0.20459c0,0 -0.18107,0.1375 -0.36903,0.00502c-0.18795,-0.13248 -0.00686,-0.26999 -0.00686,-0.26999l0.01728,0.06751c-0.00466,-0.18308 0.00926,-0.33173 0.04334,-0.44791c-0.06465,-0.06389 -0.12794,-0.12812 -0.19078,-0.19238c-0.16221,0.09476 -0.36774,0.15552 -0.61567,0.16851l-0.07237,-0.06887c-0.05201,0.04377 -0.12131,0.06172 -0.12131,0.06172c-0.09033,0.02274 -0.17091,0.0487 -0.24438,0.075c0.0163,0.30306 -0.00083,0.60178 -0.1181,0.8862c0,0 -0.01551,0.03627 -0.05484,0.0714c0.18272,0.09047 0.34455,0.20742 0.49547,0.3621c0,0 0.14878,0.15688 -0.06564,0.26575c-0.21442,0.10886 -0.36323,-0.04802 -0.36323,-0.04802c-0.19745,-0.21641 -0.45651,-0.30275 -0.74636,-0.44841l-0.14752,0.15314c0,0 -0.18107,0.1375 -0.36904,0.00502c-0.18795,-0.13248 -0.00686,-0.26999 -0.00686,-0.26999l0.39409,-0.25814c0.1279,0.02132 0.24717,0.04581 0.35906,0.07498c0.00315,-0.01354 0.00668,-0.02179 0.00668,-0.02179c0.08238,-0.18394 0.116,-0.39102 0.12328,-0.60733c-0.16658,0.02204 -0.33258,-0.02656 -0.57422,-0.22995l-0.02345,-0.08395c-0.06023,-0.00977 -0.11687,-0.02205 -0.16994,-0.03687l-0.18789,0.24989c0,0 -0.03559,0.0473 -0.10329,0.07777c0.04178,0.20481 -0.04335,0.43893 -0.2882,0.6406c0,0 -0.18107,0.13751 -0.36904,0.00503c-0.18795,-0.13248 -0.00686,-0.26999 -0.00686,-0.26999c0.3661,-0.24248 0.12481,-0.64004 -0.38933,-0.48627l-0.07969,0.08958c0,0 -0.18107,0.13751 -0.36903,0.00502c-0.18795,-0.13248 -0.00686,-0.26999 -0.00686,-0.26999l0.28138,-0.18461c0.40769,-0.09614 0.73914,-0.03909 0.95611,0.0992l0.13345,-0.1773c0.0046,-0.00545 0.00918,-0.01089 0.0137,-0.01629c-0.04088,-0.04487 -0.07522,-0.0949 -0.10312,-0.15023c-0.087,-0.00131 -0.15635,-0.03614 -0.15635,-0.03614c-0.43487,-0.21843 -0.91339,-0.50092 -0.89172,-0.76932c-0.26636,-0.02135 -0.53278,-0.03986 -0.79997,-0.04411c-0.037,0.03584 -0.09828,0.0656 -0.19983,0.06696c-0.04284,0.00057 -0.07881,-0.00408 -0.10896,-0.01227c-0.05567,0.07451 -0.09251,0.14989 -0.08456,0.22784c0,0 0.00485,0.19092 -0.2561,0.19446c-0.26096,0.00355 -0.26581,-0.18736 -0.26581,-0.18736c0.00322,-0.17876 0.08568,-0.361 0.21482,-0.51275c0.06865,-0.08066 0.38183,-0.19825 0.25424,-0.21603c-0.20238,-0.02817 -0.40946,-0.0485 -0.60215,-0.10184l0.00528,0.01359c0,0 -0.26096,0.00355 -0.26581,-0.18736c-0.00485,-0.19092 0.2561,-0.19446 0.2561,-0.19446l0.18923,0.01107c0.05988,0.0166 0.83942,0.2196 0.8798,0.28187c0.0531,0.08192 0.05232,0.15992 0.02172,0.23557c0.38146,0.00913 0.76186,0.04736 1.14279,0.07888c0.07741,-0.03202 0.1681,-0.06316 0.27329,-0.09324l0.26624,-0.01342c0,0 0.22636,-0.00308 0.26137,0.15075c0.06036,0.00073 0.12077,0.00067 0.18123,-0.00031c-0.07448,-0.09819 -0.13082,-0.20008 -0.16485,-0.30143c-0.01262,0.00906 -0.02724,0.01794 -0.04412,0.0265c-0.21442,0.10886 -0.36323,-0.04802 -0.36323,-0.04802l-0.15575,-0.17071c-0.49899,-0.2434 -0.62333,-0.50026 -0.49385,-0.69343c-0.07882,-0.07347 -0.15319,-0.14853 -0.22345,-0.22303l-0.08526,-0.1722c-0.07211,0.00777 -0.15086,0.01257 -0.23634,0.01441c0,0 -0.26096,0.00355 -0.26581,-0.18736c-0.00485,-0.19092 0.2561,-0.19447 0.2561,-0.19447c0.39611,-0.00123 0.45281,0.01541 0.21982,-0.26513l-0.13724,-0.08312c0,0 -0.18795,-0.13247 -0.00687,-0.26999c0.18107,-0.1375 0.36904,-0.00502 0.36904,-0.00502l0.23753,0.18103c0.19356,0.29814 0.20994,0.51745 0.0416,0.65468l0.07199,0.15306c0.04794,0.05013 0.10026,0.10301 0.15648,0.15639c0.14816,-0.04274 0.328,-0.06813 0.5313,-0.07089c0,0 0.26096,-0.00355 0.26581,0.18736c0.00485,0.19092 -0.2561,0.19446 -0.2561,0.19446c-0.05416,0.00074 -0.1045,0.00203 -0.15065,0.00404c0.12776,0.0838 0.26538,0.15425 0.41019,0.19804c0.08848,-0.08302 0.21211,-0.15498 0.37582,-0.21082c-0.25257,-0.00066 -0.25732,-0.1874 -0.25732,-0.1874l-0.00515,-0.20188c0.0828,-0.50723 0.45692,-0.54235 0.89347,-0.40203c0.00461,-0.15384 0.00645,-0.30815 0.00412,-0.46309c-0.13989,-0.06411 -0.26544,-0.18033 -0.36337,-0.36075l0.42511,-0.25716c0,0 0.26096,-0.00355 0.26581,0.18736c0.00128,0.05091 -0.01631,0.0885 -0.04282,0.11626c0.1529,0.04085 0.35,-0.14063 0.48016,-0.29547c0,0 0.1407,-0.16082 0.36053,-0.05789c0.21983,0.10294 0.0791,0.26377 0.0791,0.26377c-0.18883,0.20966 -0.43386,0.37112 -0.68143,0.43561c0.00469,0.22256 0.00671,0.44274 0.00543,0.66161c0.01021,0.0056 0.12636,0.07152 0.11247,0.16969l0.02006,0.00165c0.39669,-0.09948 0.73663,-0.12953 1.02023,-0.07326c0.00751,-0.01515 0.01449,-0.03037 0.02092,-0.04558l0.0287,-0.01666l-0.01196,-0.00559l0.1665,-0.19029c-0.12324,-0.1036 -0.20778,-0.25233 -0.22647,-0.44343l-0.00341,-0.13459c0,0 -0.00486,-0.19092 0.2561,-0.19447zM349.86797,269.57575c0.08993,-0.00121 0.14945,0.02064 0.18885,0.04984c0.05452,-0.01516 0.10283,-0.03879 0.14502,-0.0685c-0.11613,-0.11652 -0.23529,-0.23168 -0.36292,-0.34383c0,0 -0.04921,-0.04332 -0.06202,-0.10248c-0.14014,0.02641 -0.28128,0.03309 -0.42028,0.02333c0.00789,0.18497 0.02962,0.37221 0.04974,0.55946c0.0353,-0.01432 0.0705,-0.02671 0.1051,-0.03587c0,0 0.07054,-0.01827 0.14947,-0.00761c0.03608,-0.03904 0.09859,-0.07288 0.20703,-0.07436zM348.18507,269.1165c0.00033,0.01284 -0.00057,0.02485 -0.00248,0.03607c0.09444,-0.09705 0.20497,-0.18507 0.35854,-0.26612c-0.06204,-0.03439 -0.12154,-0.07157 -0.17804,-0.11097c-0.40769,0.03111 -0.81161,0.01183 -1.21441,-0.01843c-0.06911,0.10665 0.23057,0.22518 0.48277,0.33395l0.28781,-0.16185c0,0 0.26096,-0.00355 0.26581,0.18737zM348.76422,269.59079c0,0 0.07991,-0.0011 0.15213,0.03029c-0.01545,-0.15117 -0.03312,-0.30038 -0.04586,-0.44322c-0.2183,0.09693 -0.33322,0.23623 -0.44386,0.39342c0.08947,0.01709 0.20065,0.02282 0.33763,0.01951zM348.58845,266.88957l0.00515,0.20188c0,0 0.00231,0.09075 -0.08179,0.14827c0.14571,-0.00064 0.27852,0.00807 0.40834,0.01944c0.00789,-0.11911 0.01548,-0.2383 0.02206,-0.35772c-0.22356,-0.11571 -0.48108,-0.22414 -0.35376,-0.01187zM349.79944,267.2562l-0.26624,0.01342c0,0 -0.02093,0.00029 -0.05101,-0.00364c-0.00042,0.01271 -0.00084,0.02542 -0.00129,0.03814c0.02014,0.00076 0.04052,0.00138 0.06113,0.00183l0.35557,0.23107c0.17555,-0.1052 0.34641,-0.23173 0.48626,-0.36943c-0.15596,-0.00787 -0.34615,0.0242 -0.58439,0.0886zM348.56185,267.61802c-0.51007,0.04806 -0.30697,0.44249 0.05968,0.74429c0.07925,-0.01001 0.15799,-0.02076 0.23637,-0.03197c0.00776,-0.23102 0.02161,-0.46158 0.03681,-0.69227c-0.10565,-0.0116 -0.21365,-0.02211 -0.33284,-0.02006zM349.42093,268.24636c0.16926,-0.02487 0.3384,-0.04808 0.50893,-0.06626c-0.07519,-0.09964 -0.23782,-0.15855 -0.49369,-0.10766c-0.00475,0.05791 -0.00983,0.11587 -0.01526,0.17391zM349.37896,268.63953c-0.0029,0.0242 -0.00588,0.04843 -0.00891,0.07269c-0.00003,0.00028 -0.00007,0.00058 -0.0001,0.00086c0.22497,0.01419 0.38997,-0.0492 0.49103,-0.14164c-0.1612,0.01953 -0.32148,0.04334 -0.48202,0.06809z" fill="#a8f2ff" stroke-width="0.5"/><path d="M403.27962,236.13124c0.15808,0.06024 0.10586,0.2787 0.10586,0.2787l-0.03682,0.15401c-0.11801,0.3566 0.12299,0.4528 0.29707,0.23301c0,0 0.13113,-0.14836 0.2337,0.02293c0.10257,0.17129 -0.02857,0.31967 -0.02857,0.31967c-0.20179,0.21368 -0.41386,0.26044 -0.5754,0.17846l-0.18116,0.40172c0.02819,0.12871 0.04283,0.27899 0.04344,0.45279c0,0 0.00045,0.2263 -0.16603,0.23824c-0.16648,0.01194 -0.16693,-0.21436 -0.16693,-0.21436c-0.00002,-0.10533 -0.00562,-0.19592 -0.01759,-0.27332c-0.15886,0.15673 -0.33963,0.28419 -0.51499,0.38165c0.04694,0.11983 0.07042,0.25743 0.07152,0.39775c0.06209,0.022 0.12396,0.04749 0.18554,0.07733c-0.02595,-0.05525 -0.04306,-0.14106 0.01253,-0.24622c0.09953,-0.18821 0.23298,-0.06197 0.23298,-0.06197l0.17676,0.17473c0.06245,0.16437 0.10579,0.35545 0.11979,0.53965c0.16977,0.16022 0.33509,0.32222 0.52995,0.42219c0.04124,-0.05255 0.08878,-0.10849 0.14257,-0.16934l0.17596,-0.1373c0,0 0.14869,-0.11189 0.22355,0.08519c0.07486,0.19705 -0.07385,0.30894 -0.07385,0.30894l-0.12055,0.08578c-0.03131,0.03542 -0.07541,0.05825 -0.11913,0.08048c-0.00072,0.02238 -0.00396,0.04698 -0.01042,0.07402c-0.02824,0.11811 -0.08739,0.15476 -0.1358,0.16352c0.03278,0.09986 0.14771,0.1605 0.2029,0.25184c0,0 0.10257,0.1713 -0.02856,0.31966c-0.13113,0.14837 -0.23371,-0.02295 -0.23371,-0.02295c-0.17345,-0.29189 -0.2453,-0.48072 -0.21831,-0.65846c-0.1394,-0.08814 -0.26364,-0.19969 -0.38749,-0.31398c-0.07836,0.20372 -0.2419,0.32144 -0.52323,0.24625c0,0 -0.15808,-0.06024 -0.10586,-0.2787c0.05222,-0.21846 0.2103,-0.15822 0.2103,-0.15822c0.09355,0.0662 0.13878,0.03204 0.15593,-0.04481c-0.09001,-0.07455 -0.18475,-0.14353 -0.28906,-0.20014c-0.06519,-0.03537 -0.13084,-0.06504 -0.19691,-0.09015c-0.06258,0.174 -0.16406,0.32278 -0.30168,0.40876c0.00802,0.01836 0.01171,0.0316 0.01171,0.0316c0.02178,0.07843 0.04217,0.15714 0.0616,0.23607c0.0054,-0.01958 0.01019,-0.03906 0.0143,-0.05824c0,0 0.05222,-0.21846 0.2103,-0.15822c0.15808,0.06024 0.10586,0.2787 0.10586,0.2787c-0.0477,0.18668 -0.11745,0.35435 -0.2054,0.48986c0.01953,0.09003 0.03908,0.18018 0.05928,0.27035c0.13781,0.01341 0.29781,0.19146 0.49333,0.51802c0,0 0.10257,0.1713 -0.02857,0.31966c-0.13113,0.14837 -0.2337,-0.02293 -0.2337,-0.02293c-0.0424,-0.07082 -0.08978,-0.22231 -0.13228,-0.34817c-0.00822,0.05304 -0.03291,0.10967 -0.09198,0.15217c-0.03124,0.02248 -0.0591,0.03166 -0.08363,0.03209c-0.01528,0.08199 -0.03201,0.16436 -0.05212,0.2485l-0.15734,0.19261c0,0 -0.14869,0.11189 -0.22356,-0.08518c-0.07486,-0.19705 0.07385,-0.30894 0.07385,-0.30894l-0.0091,0.08108c0.05007,-0.2095 0.10139,-0.37523 0.15546,-0.49906c-0.02046,-0.08864 -0.04001,-0.17732 -0.05926,-0.26592c-0.125,0.06789 -0.26625,0.08639 -0.41921,0.04011l-0.02366,-0.0962c-0.04394,0.03699 -0.09084,0.04036 -0.09084,0.04036c-0.06093,0.00362 -0.11693,0.01332 -0.16875,0.02516c-0.07772,0.34891 -0.17431,0.68463 -0.32703,0.97942c0,0 -0.01981,0.03747 -0.05363,0.06775c0.08384,0.14796 0.14746,0.32091 0.19362,0.53413c0,0 0.04424,0.21518 -0.11625,0.28626c-0.16049,0.07106 -0.20475,-0.14411 -0.20475,-0.14411c-0.05633,-0.29492 -0.18731,-0.457 -0.31968,-0.69415l-0.13303,0.13794c0,0 -0.14869,0.11188 -0.22356,-0.08519c-0.07486,-0.19705 0.07385,-0.30894 0.07385,-0.30894l0.31174,-0.1967c0.07082,0.05578 0.13554,0.11301 0.19445,0.17377c0.00581,-0.01463 0.01032,-0.02316 0.01032,-0.02316c0.10271,-0.18903 0.18275,-0.41643 0.24961,-0.66078c-0.10663,-0.01595 -0.19249,-0.11215 -0.27918,-0.40314l0.01013,-0.10132c-0.03343,-0.02596 -0.06397,-0.05388 -0.09163,-0.08381l-0.18526,0.2381c0,0 -0.03507,0.04506 -0.08463,0.06306c-0.03401,0.24337 -0.15286,0.48883 -0.35847,0.65803c0,0 -0.14869,0.11189 -0.22356,-0.08518c-0.07486,-0.19705 0.07385,-0.30894 0.07385,-0.30894c0.29037,-0.18577 0.25998,-0.69763 -0.09388,-0.64929l-0.07384,0.08231c0,0 -0.1487,0.11189 -0.22356,-0.08519c-0.07486,-0.19705 0.07385,-0.30895 0.07385,-0.30895l0.22267,-0.14079c0.27314,-0.00898 0.45615,0.13759 0.54679,0.34841l0.13153,-0.1689c0.00434,-0.00507 0.00867,-0.01013 0.01295,-0.01517c-0.01165,-0.06113 -0.01786,-0.12652 -0.01867,-0.19637c-0.05198,-0.02292 -0.08366,-0.07963 -0.08366,-0.07963c-0.19865,-0.35569 -0.40505,-0.79505 -0.31449,-1.09516c-0.15414,-0.08991 -0.30915,-0.1766 -0.46872,-0.24724c-0.03262,0.03167 -0.07809,0.05045 -0.13961,0.02699c-0.02595,-0.0099 -0.04626,-0.02406 -0.06203,-0.0408c-0.05502,0.07107 -0.09896,0.14779 -0.1167,0.23846c0,0 -0.05222,0.21846 -0.2103,0.15822c-0.15808,-0.06024 -0.10586,-0.2787 -0.10586,-0.2787c0.05357,-0.20263 0.15584,-0.38973 0.27739,-0.53061c0.06461,-0.07489 0.28707,-0.13156 0.21541,-0.18321c-0.11366,-0.08191 -0.23242,-0.15605 -0.33299,-0.26422l-0.00075,0.01676c0,0 -0.15808,-0.06024 -0.10586,-0.2787c0.05222,-0.21846 0.2103,-0.15822 0.2103,-0.15822l0.11069,0.05921c0.03125,0.03363 0.44179,0.45668 0.4481,0.53749c0.0083,0.10631 -0.0147,0.19488 -0.05497,0.27344c0.22695,0.10435 0.44485,0.24155 0.66501,0.37125c0.05584,-0.01738 0.11941,-0.03046 0.19141,-0.03879l0.16412,0.05031c0,0 0.13713,0.05224 0.11377,0.23594c0.03612,0.01569 0.07249,0.03052 0.10916,0.0443c-0.01646,-0.13008 -0.02095,-0.25992 -0.01215,-0.38364c-0.01021,0.0072 -0.02157,0.0137 -0.03421,0.01929c-0.16049,0.07106 -0.20474,-0.14411 -0.20474,-0.14411l-0.04443,-0.23264c-0.23002,-0.3999 -0.23067,-0.72284 -0.09695,-0.91079c-0.02622,-0.10303 -0.0493,-0.20676 -0.07007,-0.30885l-0.00158,-0.21697c-0.04565,-0.00892 -0.09443,-0.02285 -0.1464,-0.04182c0,0 -0.15808,-0.06024 -0.10586,-0.2787c0.05222,-0.21846 0.2103,-0.15823 0.2103,-0.15823c0.23875,0.09617 0.26808,0.12908 0.20887,-0.24758l-0.05859,-0.12839c0,0 -0.07486,-0.19706 0.07385,-0.30895c0.1487,-0.11189 0.22356,0.08519 0.22356,0.08519l0.09067,0.26453c0.03039,0.38696 -0.02309,0.64058 -0.16405,0.75529l-0.00089,0.19192c0.01437,0.06886 0.03059,0.14192 0.04901,0.21652c0.10152,-0.01214 0.21709,0.00325 0.34024,0.0502c0,0 0.15808,0.06024 0.10586,0.2787c-0.05222,0.21846 -0.2103,0.15822 -0.2103,0.15822c-0.03281,-0.01249 -0.06348,-0.02343 -0.09184,-0.03252c0.05269,0.12683 0.11517,0.24091 0.18968,0.32642c0.07723,-0.07269 0.17242,-0.12412 0.28708,-0.14735c-0.15182,-0.06297 -0.10075,-0.27665 -0.10075,-0.27665l0.05521,-0.231c0.19633,-0.55684 0.43164,-0.50466 0.65385,-0.23744c0.0472,-0.17394 0.09288,-0.34909 0.13623,-0.52599c-0.06568,-0.10741 -0.10767,-0.27061 -0.1145,-0.50006l0.33014,-0.18795c0,0 0.15808,0.06024 0.10586,0.2787c-0.01393,0.05826 -0.03538,0.09669 -0.05935,0.12175c0.08023,0.08415 0.25127,-0.07382 0.37432,-0.21798c0,0 0.13113,-0.14837 0.23371,0.02293c0.10257,0.17129 -0.02857,0.31966 -0.02857,0.31966c-0.17421,0.19208 -0.36831,0.31548 -0.53594,0.32789c-0.06146,0.25444 -0.12384,0.50551 -0.18782,0.75427c0.00453,0.00889 0.0554,0.11252 0.01868,0.22082l0.0116,0.00682c0.26748,-0.0155 0.48075,0.03404 0.6352,0.16793c0.0089,-0.0154 0.01749,-0.03099 0.02576,-0.04672l0.02208,-0.01188l-0.00559,-0.00931l0.15517,-0.17555c-0.04425,-0.14826 -0.05218,-0.33833 -0.00823,-0.56042l0.03682,-0.15401c0,0 0.05222,-0.21846 0.2103,-0.15822zM401.58033,240.18864c0.05448,0.02077 0.08398,0.0603 0.09926,0.10323c0.0372,-0.00383 0.07309,-0.01882 0.10707,-0.04223c-0.03624,-0.16121 -0.0747,-0.32162 -0.11912,-0.48068c0,0 -0.01711,-0.06142 -0.00773,-0.13189c-0.09197,-0.00447 -0.17885,-0.03163 -0.25969,-0.07698c-0.04868,0.21244 -0.08968,0.43089 -0.13165,0.64894c0.02538,-0.0076 0.05014,-0.01303 0.07361,-0.01493c0,0 0.04773,-0.00342 0.09216,0.02815c0.03299,-0.03554 0.08039,-0.05865 0.14608,-0.03362zM400.7001,239.25146c-0.00351,0.0147 -0.00752,0.02814 -0.01191,0.04044c0.08487,-0.08719 0.17682,-0.16013 0.29266,-0.21454c-0.0274,-0.05442 -0.05248,-0.11139 -0.0751,-0.17014c-0.25435,-0.06502 -0.49189,-0.18645 -0.72558,-0.3201c-0.0724,0.10435 0.07374,0.31306 0.19411,0.49895l0.21996,-0.11328c0,0 0.15808,0.06024 0.10586,0.2787zM400.91168,239.93389c0,0 0.04841,0.01844 0.08281,0.07195c0.03437,-0.17584 0.06683,-0.35 0.10041,-0.51569c-0.15938,0.05653 -0.26877,0.18675 -0.38077,0.33839c0.04891,0.04149 0.11417,0.0754 0.19757,0.10536zM401.58607,236.81653l-0.05521,0.23101c0,0 -0.02481,0.10385 -0.09205,0.14859c0.08789,0.03516 0.1653,0.0778 0.24015,0.1227c0.03915,-0.1336 0.07814,-0.2674 0.11659,-0.40166c-0.10113,-0.18675 -0.2248,-0.37357 -0.20949,-0.10064zM402.20902,237.53206l-0.16412,-0.05031c0,0 -0.01268,-0.00483 -0.02965,-0.01671c-0.00393,0.01436 -0.00785,0.02872 -0.0118,0.04309c0.0119,0.00583 0.02399,0.01156 0.03626,0.01715l0.14727,0.35054c0.13604,-0.07648 0.27542,-0.17838 0.39936,-0.30065c-0.09159,-0.04738 -0.21533,-0.05773 -0.37731,-0.04312zM401.35966,237.63896c-0.32087,-0.07094 -0.31255,0.42794 -0.17904,0.86172c0.05058,0.00813 0.10108,0.01529 0.1515,0.02184c0.07139,-0.261 0.14632,-0.51996 0.2221,-0.77875c-0.06024,-0.03923 -0.12221,-0.07779 -0.19454,-0.10482zM401.69523,238.56565c0.10905,0.01339 0.21757,0.02863 0.32545,0.04995c-0.01648,-0.13191 -0.09734,-0.23901 -0.26604,-0.24413c-0.01958,0.06473 -0.03938,0.12944 -0.05941,0.19416zM401.55641,239.00275c-0.00874,0.02683 -0.01753,0.05367 -0.02636,0.08052c-0.0001,0.00031 -0.00021,0.00065 -0.00031,0.00096c0.1313,0.07156 0.24892,0.04007 0.33644,-0.04024c-0.10266,-0.01748 -0.206,-0.02986 -0.30977,-0.04124z" fill="#6de9ff" stroke-width="0.5"/><path d="M397.9225,105.38304c0.14514,0.06894 0.07926,0.27185 0.07926,0.27185l-0.04645,0.14305c-0.13857,0.32876 0.08237,0.43798 0.26374,0.24298c0,0 0.13533,-0.1306 0.21955,0.0393c0.08423,0.16991 -0.05111,0.30052 -0.05111,0.30052c-0.20714,0.18713 -0.41146,0.21544 -0.55824,0.12566l-0.20177,0.36672c0.017,0.12399 0.01955,0.26738 0.00705,0.43199c0,0 -0.0166,0.2143 -0.17514,0.21308c-0.15853,-0.00122 -0.14193,-0.21553 -0.14193,-0.21553c0.0079,-0.09973 0.00943,-0.18593 0.00392,-0.26011c-0.16221,0.13644 -0.34297,0.24352 -0.51634,0.3226c0.03543,0.11699 0.0473,0.24905 0.03778,0.38199c0.05714,0.0255 0.1138,0.0543 0.16986,0.08719c-0.02041,-0.05426 -0.03016,-0.13681 0.0304,-0.23219c0.10841,-0.17071 0.22526,-0.04114 0.22526,-0.04114l0.15421,0.17874c0.04675,0.16033 0.07341,0.34452 0.0728,0.51997c0.14868,0.16448 0.29302,0.33031 0.47,0.43964c0.04301,-0.04665 0.09223,-0.09604 0.14773,-0.14961l0.17694,-0.11675c0,0 0.14921,-0.09475 0.20526,0.09748c0.05605,0.19222 -0.09317,0.28696 -0.09317,0.28696l-0.12059,0.07215c-0.03231,0.03118 -0.07579,0.04948 -0.11886,0.06723c-0.00236,0.02114 -0.00729,0.04419 -0.01544,0.0693c-0.03562,0.1097 -0.0944,0.13995 -0.14089,0.1446c0.02352,0.09702 0.12778,0.16309 0.17316,0.25372c0,0 0.08423,0.16991 -0.0511,0.30052c-0.13533,0.1306 -0.21955,-0.03932 -0.21955,-0.03932c-0.14226,-0.28943 -0.19608,-0.47362 -0.15715,-0.63989c-0.12536,-0.09394 -0.2346,-0.20892 -0.34326,-0.32645c-0.08953,0.18699 -0.25324,0.28615 -0.51395,0.19378c0,0 -0.14514,-0.06894 -0.07926,-0.27185c0.06588,-0.20291 0.21103,-0.13398 0.21103,-0.13398c0.08359,0.06972 0.12899,0.04078 0.15101,-0.03069c-0.07961,-0.07736 -0.16413,-0.1498 -0.25862,-0.21126c-0.05906,-0.0384 -0.11899,-0.07143 -0.17966,-0.10018c-0.07235,0.16003 -0.17963,0.29327 -0.31641,0.36432c0.00621,0.01799 0.00871,0.0308 0.00871,0.0308c0.01472,0.0759 0.0281,0.15196 0.04056,0.22816c0.00659,-0.01814 0.01259,-0.03622 0.01792,-0.05407c0,0 0.06588,-0.20291 0.21103,-0.13398c0.14514,0.06894 0.07926,0.27185 0.07926,0.27185c-0.05922,0.17316 -0.13788,0.32667 -0.23135,0.44836c0.01172,0.08672 0.02343,0.17354 0.03578,0.26044c0.12947,0.02307 0.26756,0.20369 0.42811,0.52761c0,0 0.08423,0.16991 -0.05112,0.30052c-0.13533,0.1306 -0.21955,-0.0393 -0.21955,-0.0393c-0.03481,-0.07024 -0.06827,-0.21725 -0.09904,-0.33962c-0.01177,0.0496 -0.03941,0.10137 -0.09854,0.13715c-0.03127,0.01893 -0.05834,0.02552 -0.0816,0.02409c-0.02065,0.07648 -0.04267,0.15321 -0.06805,0.23136l-0.16348,0.17053c0,0 -0.14921,0.09475 -0.20526,-0.09748c-0.05605,-0.19222 0.09317,-0.28696 0.09317,-0.28696l-0.01472,0.07608c0.06317,-0.19459 0.12424,-0.34765 0.18475,-0.46082c-0.0127,-0.08547 -0.02454,-0.1709 -0.03609,-0.25625c-0.12346,0.05487 -0.25859,0.06176 -0.39995,0.00642l-0.01516,-0.09287c-0.04439,0.03172 -0.08905,0.03137 -0.08905,0.03137c-0.05796,-0.00116 -0.11172,0.00381 -0.16167,0.01113c-0.09985,0.32451 -0.21657,0.63511 -0.38337,0.90274c0,0 -0.02158,0.03398 -0.05587,0.06011c0.06824,0.1464 0.11547,0.31495 0.14312,0.5203c0,0 0.02569,0.20707 -0.13162,0.26229c-0.15731,0.05521 -0.18301,-0.15187 -0.18301,-0.15187c-0.03113,-0.28348 -0.14295,-0.4468 -0.25044,-0.68132l-0.13634,0.12059c0,0 -0.14921,0.09475 -0.20526,-0.09748c-0.05605,-0.19222 0.09318,-0.28696 0.09318,-0.28696l0.30997,-0.16278c0.06286,0.05814 0.11982,0.11721 0.17104,0.17917c0.0066,-0.01342 0.01151,-0.02115 0.01151,-0.02115c0.11148,-0.17125 0.20438,-0.38053 0.28608,-0.60687c-0.09976,-0.02313 -0.17382,-0.12068 -0.234,-0.40272l0.01722,-0.09517c-0.02969,-0.0271 -0.05652,-0.05582 -0.08045,-0.08626l-0.19334,0.2115c0,0 -0.0366,0.04002 -0.08487,0.05333c-0.05052,0.22787 -0.18153,0.45134 -0.38895,0.59607c0,0 -0.14921,0.09475 -0.20526,-0.09748c-0.05605,-0.19222 0.09317,-0.28696 0.09317,-0.28696c0.28892,-0.15404 0.29867,-0.64097 -0.04002,-0.62184l-0.07611,0.07238c0,0 -0.14921,0.09475 -0.20526,-0.09748c-0.05605,-0.19222 0.09318,-0.28696 0.09318,-0.28696l0.22143,-0.11654c0.2593,0.01205 0.42154,0.16461 0.49149,0.37104l0.13725,-0.15003c0.0045,-0.00447 0.00897,-0.00894 0.0134,-0.01339c-0.00643,-0.05876 -0.00739,-0.12114 -0.0029,-0.18734c-0.04749,-0.02561 -0.07322,-0.0817 -0.07322,-0.0817c-0.16132,-0.35173 -0.32368,-0.78327 -0.21535,-1.06062c-0.13918,-0.09674 -0.27942,-0.19048 -0.4252,-0.26938c-0.03327,0.02754 -0.07774,0.04188 -0.13423,0.01505c-0.02383,-0.01133 -0.04199,-0.02626 -0.05566,-0.0433c-0.05745,0.06315 -0.10483,0.13248 -0.12844,0.21699c0,0 -0.06589,0.20291 -0.21103,0.13398c-0.14514,-0.06894 -0.07926,-0.27185 -0.07926,-0.27185c0.06597,-0.18783 0.17689,-0.35728 0.30258,-0.48153c0.06681,-0.06604 0.28171,-0.10296 0.21775,-0.15726c-0.10146,-0.08611 -0.20832,-0.16525 -0.29541,-0.27524l-0.00197,0.01581c0,0 -0.14514,-0.06894 -0.07926,-0.27185c0.06588,-0.20291 0.21103,-0.13398 0.21103,-0.13398l0.10035,0.06439c0.02705,0.0342 0.38393,0.46565 0.38383,0.54264c-0.00014,0.10128 -0.02859,0.18342 -0.07262,0.25476c0.20703,0.11589 0.40302,0.2622 0.60171,0.40157c0.05418,-0.01225 0.11536,-0.01986 0.18415,-0.02232l0.15161,0.05998c0,0 0.1259,0.05978 0.08996,0.23196c0.03302,0.01758 0.06634,0.03435 0.10002,0.05016c-0.0058,-0.1244 -0.00027,-0.24768 0.01737,-0.36416c-0.01021,0.00605 -0.02145,0.01135 -0.03384,0.01568c-0.15731,0.05521 -0.18301,-0.15187 -0.18301,-0.15187l-0.02456,-0.22362c-0.18769,-0.39595 -0.16401,-0.70177 -0.02324,-0.86967c-0.01707,-0.09953 -0.03111,-0.19948 -0.0431,-0.2977l0.01484,-0.20556c-0.04255,-0.01188 -0.08769,-0.02875 -0.13548,-0.05062c0,0 -0.14514,-0.06894 -0.07926,-0.27185c0.06588,-0.20291 0.21103,-0.13398 0.21103,-0.13398c0.21882,0.10903 0.24411,0.14239 0.21641,-0.2187l-0.04581,-0.12598c0,0 -0.05605,-0.19222 0.09318,-0.28696c0.14921,-0.09475 0.20526,0.09748 0.20526,0.09748l0.06594,0.25729c-0.00036,0.36868 -0.07008,0.60479 -0.21217,0.70279l-0.01529,0.18165c0.00843,0.06628 0.01828,0.13668 0.03011,0.2087c0.09703,-0.00385 0.2053,0.01942 0.31838,0.07314c0,0 0.14514,0.06894 0.07926,0.27185c-0.06588,0.20291 -0.21103,0.13398 -0.21103,0.13398c-0.03013,-0.0143 -0.05835,-0.02696 -0.08451,-0.0377c0.04034,0.12406 0.09091,0.23677 0.15503,0.32334c0.0786,-0.06301 0.1726,-0.10454 0.28291,-0.11791c-0.13901,-0.07104 -0.07456,-0.26953 -0.07456,-0.26953l0.06966,-0.21457c0.22781,-0.51246 0.44668,-0.44534 0.63696,-0.1756c0.05778,-0.16114 0.11422,-0.32354 0.16858,-0.48777c-0.0541,-0.10664 -0.08158,-0.26432 -0.07078,-0.48209l0.32673,-0.15311c0,0 0.14514,0.06894 0.07926,0.27185c-0.01758,0.05412 -0.04078,0.08889 -0.06536,0.11081c0.06963,0.08572 0.24347,-0.05098 0.37083,-0.17821c0,0 0.13533,-0.1306 0.21955,0.0393c0.08423,0.16991 -0.05112,0.30052 -0.05112,0.30052c-0.1794,0.16876 -0.37248,0.27098 -0.53213,0.27012c-0.07734,0.23628 -0.15531,0.46931 -0.23461,0.70003c0.00362,0.00876 0.04398,0.11071 0.00107,0.21049l0.01046,0.00733c0.25443,0.00546 0.45263,0.06841 0.58879,0.20681c0.00959,-0.01391 0.01889,-0.02803 0.02791,-0.0423l0.0218,-0.00959l-0.00459,-0.00924l0.16013,-0.15454c-0.03074,-0.1437 -0.02394,-0.32427 0.03439,-0.53124l0.04645,-0.14305c0,0 0.06588,-0.20292 0.21103,-0.13399zM396.00815,109.09684c0.05002,0.02377 0.07498,0.06342 0.08622,0.10521c0.03551,-0.00082 0.07062,-0.01232 0.10455,-0.03192c-0.02218,-0.15536 -0.04652,-0.31014 -0.07661,-0.4641c0,0 -0.01158,-0.05945 0.00261,-0.12547c-0.08675,-0.01115 -0.16696,-0.04341 -0.24009,-0.09243c-0.06208,0.19748 -0.11734,0.40124 -0.1735,0.60454c0.02459,-0.00529 0.04846,-0.00856 0.07083,-0.0086c0,0 0.04545,0.00036 0.08514,0.03359c0.03391,-0.03117 0.08053,-0.04948 0.14084,-0.02084zM395.24527,108.14323c-0.00443,0.01365 -0.00923,0.02608 -0.01432,0.03739c0.08692,-0.07616 0.17947,-0.1383 0.29325,-0.18111c-0.02185,-0.05359 -0.0413,-0.10941 -0.05831,-0.16675c-0.23594,-0.0807 -0.45171,-0.21356 -0.66291,-0.3577c-0.07641,0.09335 0.04625,0.30197 0.14624,0.48704l0.21679,-0.09071c0,0 0.14514,0.06894 0.07926,0.27185zM395.39423,108.8053c0,0 0.04444,0.0211 0.07299,0.07435c0.04577,-0.1639 0.08962,-0.32636 0.13389,-0.48071c-0.15516,0.04153 -0.26854,0.15659 -0.386,0.29174c0.04319,0.04296 0.10243,0.07998 0.17913,0.11463zM396.2674,105.90443l-0.06966,0.21457c0,0 -0.03131,0.09646 -0.09834,0.13376c0.08057,0.03991 0.15065,0.0861 0.21815,0.13426c0.04712,-0.12355 0.09411,-0.2473 0.14063,-0.37154c-0.0817,-0.18443 -0.18473,-0.37063 -0.19078,-0.11105zM396.80338,106.6288l-0.15161,-0.05998c0,0 -0.01165,-0.00553 -0.02682,-0.01805c-0.0048,0.0133 -0.0096,0.02661 -0.01441,0.03991c0.01083,0.00641 0.02184,0.01276 0.03304,0.01896l0.11305,0.34299c0.13457,-0.06218 0.27421,-0.14817 0.40076,-0.25461c-0.08316,-0.05175 -0.19953,-0.07086 -0.35401,-0.06922zM395.99114,106.6661c-0.29848,-0.09133 -0.32814,0.38167 -0.23439,0.80244c0.04728,0.01151 0.09455,0.02208 0.1418,0.03208c0.08724,-0.24175 0.17768,-0.4813 0.2689,-0.72063c-0.05408,-0.04167 -0.10986,-0.08285 -0.1763,-0.11389zM396.23911,107.56877c0.10225,0.02089 0.20384,0.04349 0.30438,0.07179c-0.00567,-0.12613 -0.07418,-0.23363 -0.23351,-0.25117c-0.02342,0.05981 -0.04703,0.11959 -0.07086,0.17937zM396.07478,107.97219c-0.01029,0.02475 -0.02063,0.0495 -0.03102,0.07425c-0.00011,0.00029 -0.00025,0.0006 -0.00036,0.00089c0.11893,0.07764 0.23267,0.05667 0.32158,-0.01277c-0.09589,-0.02428 -0.1928,-0.04378 -0.2902,-0.06236z" fill="#6de9ff" stroke-width="0.5"/><path d="M227.26346,97.0468c-1.77754,0.96054 -6.54557,-4.41773 -10.64968,-12.01269c-4.10411,-7.59496 -5.99016,-14.53056 -4.21262,-15.4911c1.77754,-0.96054 6.54557,4.41773 10.64968,12.01269c4.10411,7.59496 5.99016,14.53056 4.21262,15.4911z" fill="url(#color-7)" stroke-width="0"/><path d="M249.61986,60.83493c-1.6921,0.5089 -4.53524,-3.97102 -6.35032,-10.00619c-1.81509,-6.03516 -1.91479,-11.34018 -0.22268,-11.84908c1.6921,-0.5089 4.53524,3.97102 6.35032,10.00619c1.81509,6.03516 1.91479,11.34018 0.22268,11.84908z" fill="url(#color-8)" stroke-width="0"/><path d="M213.58222,313.75617c-2.26745,8.22865 -5.28492,14.57431 -6.73971,14.17344c-1.45479,-0.40087 -0.796,-7.39648 1.47145,-15.62514c2.26745,-8.22865 5.28492,-14.57431 6.73971,-14.17344c1.45479,0.40087 0.796,7.39648 -1.47145,15.62514z" fill="url(#color-9)" stroke-width="0"/><path d="M231.70058,351.97902c-3.11771,5.71581 -6.71441,9.76614 -8.03344,9.04666c-1.31904,-0.71947 0.13909,-5.9363 3.2568,-11.65211c3.11771,-5.71581 6.71441,-9.76614 8.03344,-9.04666c1.31904,0.71947 -0.13909,5.9363 -3.2568,11.65211z" fill="url(#color-10)" stroke-width="0"/></g></g></svg>