<svg version="1.1" xmlns="http://www.w3.org/2000/svg" xmlns:xlink="http://www.w3.org/1999/xlink" width="129.70848" height="182.6182" viewBox="0,0,129.70848,182.6182"><defs><radialGradient cx="408.56248" cy="208.42613" r="26.20934" gradientUnits="userSpaceOnUse" id="color-1"><stop offset="0" stop-color="#a8f2ff"/><stop offset="1" stop-color="#a8f2ff" stop-opacity="0"/></radialGradient><radialGradient cx="374.29434" cy="112.89523" r="42.28732" gradientUnits="userSpaceOnUse" id="color-2"><stop offset="0" stop-color="#a8f2ff"/><stop offset="1" stop-color="#a8f2ff" stop-opacity="0"/></radialGradient><radialGradient cx="389.38543" cy="239.39589" r="42.28732" gradientUnits="userSpaceOnUse" id="color-3"><stop offset="0" stop-color="#a8f2ff"/><stop offset="1" stop-color="#a8f2ff" stop-opacity="0"/></radialGradient><radialGradient cx="418.9422" cy="178.94764" r="42.28732" gradientUnits="userSpaceOnUse" id="color-4"><stop offset="0" stop-color="#a8f2ff"/><stop offset="1" stop-color="#a8f2ff" stop-opacity="0"/></radialGradient><radialGradient cx="409.75242" cy="144.08427" r="42.28733" gradientUnits="userSpaceOnUse" id="color-5"><stop offset="0" stop-color="#a8f2ff"/><stop offset="1" stop-color="#a8f2ff" stop-opacity="0"/></radialGradient></defs><g transform="translate(-331.76403,-84.83647)"><g data-paper-data="{&quot;isPaintingLayer&quot;:true}" fill-rule="nonzero" stroke="none" stroke-width="0" stroke-linecap="butt" stroke-linejoin="miter" stroke-miterlimit="10" stroke-dasharray="" stroke-dashoffset="0" style="mix-blend-mode: normal"><path d="M434.47183,204.47205c2.66613,9.3508 -6.77255,18.70142 -21.08189,20.8852c-14.30935,2.18378 -28.07068,-3.62623 -30.73681,-12.97703c-2.66613,-9.3508 6.77255,-18.70142 21.0819,-20.88521c14.30935,-2.18378 28.07068,3.62624 30.73681,12.97704z" fill="url(#color-1)"/><path d="M416.09765,106.51553c4.30165,15.08699 -10.92715,30.17371 -34.01448,33.69712c-23.08733,3.52341 -45.29048,-5.85073 -49.59213,-20.93772c-4.30165,-15.08699 10.92713,-30.1737 34.01446,-33.69711c23.08733,-3.52341 45.2905,5.85072 49.59215,20.93771z" fill="url(#color-2)"/><path d="M431.18874,233.01619c4.30165,15.08699 -10.92714,30.17371 -34.01448,33.69713c-23.08733,3.52341 -45.29047,-5.85073 -49.59213,-20.93772c-4.30165,-15.08699 10.92713,-30.17369 34.01446,-33.6971c23.08733,-3.52341 45.29049,5.85072 49.59214,20.9377z" fill="url(#color-3)"/><path d="M460.74551,172.56794c4.30165,15.08699 -10.92714,30.17371 -34.01448,33.69713c-23.08733,3.52341 -45.29048,-5.85073 -49.59213,-20.93772c-4.30165,-15.08699 10.92714,-30.1737 34.01447,-33.69711c23.08733,-3.52341 45.29049,5.85072 49.59214,20.93771z" fill="url(#color-4)"/><path d="M451.55574,137.70457c4.30165,15.08699 -10.92715,30.17371 -34.01448,33.69712c-23.08733,3.52341 -45.29048,-5.85073 -49.59213,-20.93772c-4.30165,-15.08699 10.92713,-30.1737 34.01446,-33.69711c23.08733,-3.52341 45.2905,5.85072 49.59215,20.93771z" fill="url(#color-5)"/></g></g></svg>