<svg version="1.1" xmlns="http://www.w3.org/2000/svg" xmlns:xlink="http://www.w3.org/1999/xlink" width="159.79471" height="81.23597" viewBox="0,0,159.79471,81.23597"><defs><linearGradient x1="-213.54328" y1="165.19875" x2="323.74947" y2="165.19875" gradientUnits="userSpaceOnUse" id="color-1"><stop offset="0" stop-color="#f7f7f7" stop-opacity="0"/><stop offset="1" stop-color="#f7f7f7"/></linearGradient><linearGradient x1="293.93237" y1="165.19875" x2="-183.72617" y2="165.19875" gradientUnits="userSpaceOnUse" id="color-2"><stop offset="0" stop-color="#f7f7f7" stop-opacity="0"/><stop offset="1" stop-color="#f7f7f7"/></linearGradient><linearGradient x1="326.10545" y1="180" x2="153.89455" y2="180" gradientUnits="userSpaceOnUse" id="color-3"><stop offset="0" stop-color="#f7f7f7" stop-opacity="0"/><stop offset="1" stop-color="#f7f7f7"/></linearGradient><linearGradient x1="188.75" y1="157.07434" x2="153.75" y2="157.07434" gradientUnits="userSpaceOnUse" id="color-4"><stop offset="0" stop-color="#f7f7f7" stop-opacity="0"/><stop offset="1" stop-color="#f7f7f7"/></linearGradient></defs><g transform="translate(-160.10264,-139.38202)"><g data-paper-data="{&quot;isPaintingLayer&quot;:true}" fill-rule="nonzero" stroke="none" stroke-linecap="butt" stroke-linejoin="miter" stroke-miterlimit="10" stroke-dasharray="" stroke-dashoffset="0" style="mix-blend-mode: normal"><path d="M270.68349,149.20338c9.55614,1.36637 21.6169,-1.53588 28.90386,3.12439c7.54718,4.82668 15.66751,10.97413 20.31,17.7255c-1.12956,0.47091 -2.20442,0.96958 -3.20581,1.48857c-1.79166,0.78614 -3.36425,1.80588 -4.63636,3.00052c-0.74873,0.63449 -1.36319,1.27732 -1.81728,1.91811c-0.34893,0.4924 -0.58653,1.01333 -0.76303,1.55c-0.58509,1.23467 -0.90256,2.55871 -0.90256,3.93619c0,4.98464 4.15725,9.26951 10.1093,11.152c-0.47281,2.07426 -1.41126,4.12967 -2.84755,6.09114c-6.16085,8.41339 -19.47137,12.35256 -31.70354,9.9844l-5.87726,-1.0393l-4.79176,0.35494c-1.62364,0.13749 -3.26915,0.17223 -4.91711,0.09982c-1.97099,1.10356 -4.12904,2.00275 -6.40696,2.68261c-0.00446,-0.03701 -0.00902,-0.07403 -0.01369,-0.11103c-0.19848,-1.57121 -0.46711,-2.80819 -0.8429,-3.80793c-0.39304,-1.04561 -0.9033,-1.83171 -1.57318,-2.46931c-2.95624,-3.53293 -8.33245,-5.89551 -14.47431,-5.89551c-8.80129,0 -16.03028,4.85151 -16.81902,11.04622c-0.04723,0.37094 -0.07136,0.7467 -0.07136,1.12652c-0.15805,1.51889 -0.34014,3.21212 -0.44828,4.99112c-5.34933,1.05609 -10.48217,0.16493 -17.31457,-1.79403c-1.08894,1.26252 -3.67072,3.94398 -7.69102,6.25966c-7.04846,-0.36592 -14.14766,-0.32192 -19.07963,-1.19975c-3.32647,-0.59207 -8.82714,-0.3828 -9.51574,-2.80181c-0.38222,-1.34267 -0.04821,-2.73877 0.53358,-4.17004c1.79669,-1.9343 2.8445,-4.26041 2.8445,-6.7629c0,-0.2499 -0.01045,-0.49805 -0.03105,-0.74422c0.02669,-0.55362 -0.02146,-1.1078 -0.16806,-1.66163c-0.13835,-0.52262 -0.36617,-1.00674 -0.66968,-1.45831c-2.24122,-4.82862 -8.56752,-8.30858 -16.0216,-8.30858c-0.22732,0 -0.45359,0.00324 -0.67872,0.00965l2.31861,-2.785l4.51975,-3.25734l0.57417,-0.68966l0.89155,-0.21418l2.67463,-4.06933l3.21451,-3.86111l-0.24727,-0.65341l0.47773,-0.72685l1.38684,-4.99742l-0.08765,-1.32651l0.14751,-0.33011c1.62361,-0.30042 3.15286,-0.77043 4.54926,-1.38228c0.99519,-0.37193 1.87175,-0.79703 2.58794,-1.26654c4.79154,-3.14118 6.84839,-9.06205 9.44622,-13.09837c2.69834,-4.19248 10.24074,-7.03064 15.56701,-9.23199c3.36477,-1.39066 11.11377,-3.42028 14.94127,-2.63643c1.63735,0.33532 2.80681,2.18668 4.43373,1.82591c5.8954,-1.30731 9.40391,-2.21216 11.63137,-3.3156c1.1508,0.17845 2.34517,0.27242 3.56999,0.27242c1.69494,0 3.33155,-0.17993 4.87511,-0.51472c1.77635,-0.38529 3.42942,-0.97568 4.90623,-1.73298c0.66777,-0.1406 1.30185,-0.19198 1.88766,-0.10226c0.12883,0.01973 2.5601,3.20869 3.16103,3.57991c2.76144,1.70584 10.70859,4.50168 13.98331,3.715c0.03533,-0.00849 0.07064,-0.01703 0.10592,-0.02562c-1.81753,1.06406 -3.90243,2.08326 -0.93555,2.50747z" data-paper-data="{&quot;index&quot;:null}" fill="url(#color-1)" stroke-width="0.5"/><path d="M248.01221,146.47591c4.8033,1.19087 -6.2381,3.79042 -1.25603,4.50277c8.49552,1.21471 19.21763,-1.36541 25.69582,2.7776c10.83609,6.93008 23.00127,16.92277 21.32447,27.29357c-0.39175,2.42279 -1.87176,4.84519 -4.06167,7.04806c-0.18709,2.48252 -1.10371,4.97624 -2.81934,7.31918c-5.38178,7.34948 -16.90046,10.8585 -27.61642,8.98102c-3.03005,-3.26199 -8.18987,-5.40962 -14.04571,-5.40962c-7.56464,0 -13.96779,3.58395 -16.11863,8.52431c-3.29726,-0.05566 -6.62391,-0.59066 -9.78218,-1.64906c-9.81909,6.21249 -15.76545,5.97531 -26.00891,3.03835c-1.73839,2.01551 -7.75638,8.0987 -17.7742,9.06221c-0.63618,-0.32673 -1.08826,-0.75957 -1.25572,-1.34786c-0.38222,-1.34267 -0.04821,-2.73877 0.53358,-4.17004c1.79669,-1.9343 2.8445,-4.26041 2.8445,-6.7629c0,-0.2499 -0.01045,-0.49805 -0.03105,-0.74422c0.02669,-0.55362 -0.02146,-1.1078 -0.16806,-1.66163c-0.13835,-0.52262 -0.36617,-1.00674 -0.66968,-1.45831c-2.24122,-4.82862 -8.56752,-8.30858 -16.0216,-8.30858c-0.22732,0 -0.45359,0.00324 -0.67872,0.00965l2.31861,-2.785l4.51975,-3.25734l0.57417,-0.68966l0.89155,-0.21418l2.67463,-4.06933l3.21451,-3.86111l-0.24727,-0.65341l0.47773,-0.72685l1.38684,-4.99742l-0.08765,-1.32651l0.14751,-0.33011c1.62361,-0.30042 3.15286,-0.77043 4.54926,-1.38228c0.99519,-0.37193 1.87175,-0.79703 2.58794,-1.26654c4.79154,-3.14118 6.84839,-9.06205 9.44622,-13.09837c2.69834,-4.19248 10.24074,-7.03064 15.56701,-9.23199c3.36477,-1.39066 11.11377,-3.42028 14.94127,-2.63643c1.63735,0.33532 2.80681,2.18668 4.43373,1.82591c5.8954,-1.30731 9.40391,-2.21216 11.63137,-3.3156c0.81076,0.12572 1.64313,0.20951 2.49255,0.24805c2.97297,2.40858 5.49429,4.37529 6.38987,4.72368z" data-paper-data="{&quot;index&quot;:null}" fill="url(#color-2)" stroke-width="0.5"/><path d="" data-paper-data="{&quot;index&quot;:null}" fill="url(#color-3)" stroke-width="0.5"/><path d="" data-paper-data="{&quot;index&quot;:null}" fill="url(#color-4)" stroke-width="0"/></g></g></svg>