<svg version="1.1" xmlns="http://www.w3.org/2000/svg" xmlns:xlink="http://www.w3.org/1999/xlink" width="205.49489" height="155.86662" viewBox="0,0,205.49489,155.86662"><g transform="translate(-190.29348,-106.96879)"><g data-paper-data="{&quot;isPaintingLayer&quot;:true}" fill-rule="nonzero" stroke="#000000" stroke-linejoin="miter" stroke-miterlimit="10" stroke-dasharray="" stroke-dashoffset="0" style="mix-blend-mode: normal"><path d="M239.21118,225.78515l1.16386,-86.87648l80.30659,-31.93988l1.16386,155.86662z" fill="#ffffff" stroke-width="0" stroke-linecap="butt"/><path d="M219.97904,251.37599v-59.29911h40.97981v59.29911z" fill="#ffffff" stroke-width="0" stroke-linecap="butt"/><path d="M190.29348,225.55291v-88.01718h60.8354v88.01718z" fill="#ffffff" stroke-width="0" stroke-linecap="butt"/><path d="M198.5,215.00002v-68h47v68z" fill="#000000" stroke-width="2" stroke-linecap="butt"/><path d="M240.5,215.00002l1,-68l69,-25l1,122z" fill="#000000" stroke-width="2" stroke-linecap="butt"/><path d="M228.5,242.00002v-37h24v37z" fill="#000000" stroke-width="2" stroke-linecap="butt"/><path d="M327.24767,138.68557c0,0 15.8164,28.12224 16.1438,42.36383c0.33888,14.74118 -14.1438,44.63617 -14.1438,44.63617" fill="none" stroke-width="8" stroke-linecap="round"/><path d="M343.93855,127.37113c0,0 22.17677,36.50248 22.66786,53.69061c0.50832,17.79108 -24.66786,56.30939 -24.66786,56.30939" fill="none" stroke-width="8" stroke-linecap="round"/><path d="M357.48591,117.00002c0,0 33.5308,45.01227 34.30246,64.00105c0.79872,19.65491 -35.13432,70.99895 -35.13432,70.99895" fill="none" stroke-width="8" stroke-linecap="round"/></g></g></svg>