<svg version="1.1" xmlns="http://www.w3.org/2000/svg" xmlns:xlink="http://www.w3.org/1999/xlink" width="446.36736" height="323.98689" viewBox="0,0,446.36736,323.98689"><g transform="translate(-50.10065,-43.8875)"><g data-paper-data="{&quot;isPaintingLayer&quot;:true}" fill="none" fill-rule="nonzero" stroke="#ffffff" stroke-width="3" stroke-linecap="round" stroke-linejoin="miter" stroke-miterlimit="10" stroke-dasharray="" stroke-dashoffset="0" style="mix-blend-mode: normal"><path d="M107.04152,366.37439c0,0 13.2746,-36.0491 10.8268,-67.7995c-3.3656,-37.4324 -62.0054,-43.6056 -65.2778,-83.8276c-3.6578,-44.9592 2.3219,-72.1752 26.3521,-111.7274c8.2825,-13.6326 35.9899,-34.5427 60.9796,-32.0179c52.7896,5.33369 50.66158,37.103 65.77747,60.90183c4.9871,7.85182 11.85122,21.07411 23.18383,23.92847c15.27756,3.84801 49.02739,25.49377 79.8517,40.39558c18.84515,9.11057 58.29022,13.91273 82.71494,3.6228c8.32534,-3.5074 32.75938,-20.29129 39.67963,-40.74793c3.74009,-11.0559 9.50374,-35.80534 5.13714,-58.03924c-1.71429,-8.72884 -15.27446,-29.62843 -25.05078,-37.81549c-6.67782,-5.59227 -28.52203,-16.66341 -52.27236,-17.86051c-17.22847,-0.86838 -35.45995,4.88039 -49.63288,14.81638c-15.19941,10.65561 -26.40357,31.39241 -34.19599,48.58626c-5.35577,11.81744 -11.09986,35.09382 -13.42173,57.01337c-2.46299,23.2518 -1.24406,29.97406 4.18599,48.11453c5.43005,18.14048 9.20964,22.53812 21.40504,37.37892c12.87402,15.66661 32.59889,25.12316 52.93156,31.76215c66.39936,21.68059 154.75223,5.72137 154.75223,5.72137"/></g></g></svg>