<svg version="1.1" xmlns="http://www.w3.org/2000/svg" xmlns:xlink="http://www.w3.org/1999/xlink" width="42.21908" height="38.5761" viewBox="0,0,42.21908,38.5761"><g transform="translate(-218.89046,-160.71195)"><g data-paper-data="{&quot;isPaintingLayer&quot;:true}" fill="#effffc" fill-rule="nonzero" stroke="none" stroke-width="0.5" stroke-linecap="butt" stroke-linejoin="miter" stroke-miterlimit="10" stroke-dasharray="" stroke-dashoffset="0" style="mix-blend-mode: normal"><path d="M228.51356,192.72305c-1.47156,-0.60882 -2.9364,-3.55668 -3.95189,-4.6371c-1.43017,-1.52163 -4.07934,-3.14765 -5.24605,-4.8894c-1.15358,-1.72214 0.37433,-2.32946 0.66302,-3.60938c0.32491,-1.44038 -1.44802,-3.20451 -0.11726,-4.83459c0.78851,-0.96584 5.01343,-3.41834 5.04883,-3.57366c0.12803,-0.56186 -0.36365,-1.51343 -0.03409,-2.05794c0.46327,-0.76542 6.07024,-4.54749 6.81298,-4.60888c0.23911,-0.01975 0.48376,-0.02349 0.72636,-0.00777l0.01543,-0.01821l0.22281,-0.01336l0.2029,-0.09327l0.17756,0.0705l0.65538,-0.03923l0.6991,0.13148l0.50636,-0.62074l0.23825,-0.17797l0.18733,-0.23125l0.38376,-0.2887l0.36244,-0.15308l0.33179,-0.21177l0.28782,-0.09624l0.13422,-0.01034l0.04579,-0.01934l0.01591,0.00692l0.14006,-0.06355l0.42072,-0.07672l0.10987,-0.11021l0.01193,-0.00718l0.01209,-0.04314l0.53616,-0.28681l0.52105,-0.31358l0.04309,0.01179l0.01227,-0.00656l0.15978,-0.04008l0.05583,-0.01999l0.09719,-0.06203l0.01672,-0.02936l0.04822,-0.01209l0.11357,-0.07249l0.28782,-0.09624l0.25025,-0.0193l0.06594,-0.02363l0.03204,0.01606l0.04389,-0.00339l0.38154,-0.09567h0.48891l0.79218,-0.18336l0.78449,-0.31475l0.23881,-0.03266l0.00699,-0.00861l0.13528,-0.01087l0.07801,-0.01066l0.4495,-0.11271h0.1919l0.0645,0.01618l0.08436,-0.01153l0.05598,0.04458l0.19738,-0.01586l0.37592,0.06283h1.23664l0.23639,0.05929l0.2434,-0.01163l0.47972,0.09624l0.43619,0.20725l0.18662,-0.01291l0.23259,0.21209l0.2841,0.13498l0.05915,0.17801l0.35714,0.32565l0.1269,0.19093l0.53983,0.16242l0.65613,0.18804l0.11032,0.06383l0.12617,0.01726l0.41295,0.16569l0.06818,0.02281l0.02649,-0.00725l0.06025,0.03625l0.06468,0.02162l0.47424,0.30272l0.46128,0.27758l0.13267,0.02958l0.025,-0.00393l0.04171,0.03188l0.14496,0.07269l0.27244,0.23425l0.14748,0.07889l0.01636,0.05835l0.37998,0.2904l0.10123,0.12695l0.03982,0.03423l0.00092,0.01686l0.07197,0.09021l0.18454,0.14808l1.06296,0.71077l0.29729,0.328l0.33645,0.28745l0.47972,0.67361l0.07112,0.1811l0.12628,0.14778l0.05782,0.11599l0.36554,0.21387l1.2712,0.51001l0.08415,0.06097l0.10132,0.02259l0.1919,0.09624l0.95735,0.82306l0.00535,0.09674l0.08388,0.04807l0.30581,1.22695v0.08284l0.0229,0.09185v0.30208l0.07304,0.29307v1.15286l0.10171,0.20402l0.35406,0.63923l0.25537,0.32015l0.10844,0.23731l0.16938,0.19821l0.21643,0.43417l0.02387,0.01366l0.01704,0.06838l0.03049,0.06116l0.12192,0.5504l0.13633,0.54699v0.06838l0.01524,0.0688l-0.01524,0.02294v0.0889l0.08098,0.73099l-0.01845,0.13692l0.03341,0.13406v0.74987l0.36372,0.65666l0.04077,0.15244l0.09213,0.12794l0.19188,0.48116l0.03587,0.26379l0.10583,0.24415l0.09594,0.57736l-0.0163,0.20444l0.04961,0.19898v0.48116l-0.04961,0.19898l0.0163,0.20443l-0.09594,0.57738l-0.07736,0.17851l-0.01489,0.19407l-0.15197,0.45728l-0.1645,0.7425l-0.01479,0.02967v0.03317l-0.0229,0.09185v0.66022l-0.0954,0.38269l-0.03015,0.39329l-0.38375,1.15477l-0.0395,0.06226l-0.00994,0.07311l-0.19188,0.48116l-0.07271,0.10098l0.00644,0.09361l-0.35925,0.3964l-0.26296,0.36519v0.34578l-0.0591,0.23712l0.01159,0.24413l-0.09594,0.48116l-0.13989,0.29622l-0.0709,0.31995l-0.05855,0.11744l0.00035,0.00181l-0.00425,0.006l-0.12942,0.25964l-0.31549,0.3692l-0.28057,0.39652l-0.21975,0.18891l-0.00478,0.0056l-0.00184,0.00011l-0.44522,0.38277l-0.28993,0.1454l-0.07898,0.13861l-0.39486,0.099l-0.36401,0.18256l-0.14989,-0.05371l-0.31448,0.07887h-0.34453l-0.09021,0.11581l-0.00828,0.1493l-0.32695,0.28108l-0.26513,0.34037l-0.14832,0.01506l-0.21697,0.18651l-0.1919,0.09624l-0.10134,0.02259l-0.08415,0.06096l-0.7229,0.29002l-0.6284,0.42019l-0.60785,0.42679l-0.35744,0.49058l-0.57564,0.48114l-0.11744,0.05686l-0.29355,0.3365l-0.44658,0.82116l-0.12117,0.13194l-0.06941,0.16534l-0.57566,0.76983l-0.54866,0.44713l-0.08484,0.1669l-0.1906,0.05758l-0.15449,0.1259l-0.18532,-0.02324l-0.67689,0.2045l-1.51631,0.07242l-0.35142,0.30026l-0.11171,-0.01137l-0.14559,0.09292l-0.28782,0.09623l-0.27276,0.02105l-0.25747,0.0927l-0.95941,0.09623l-0.45546,-0.06685l-0.46007,-0.01539l-0.42066,-0.12055l-0.00955,0.00358l-0.03192,-0.01544l-0.20949,-0.06003l-0.43836,-0.25367l-0.45576,-0.22068l-0.16738,-0.13989l-0.0307,-0.01776l-0.00243,-0.00992l-0.9508,-0.79472l-0.12228,-0.16785l-0.16902,-0.12031l-0.57564,-0.67361l-0.06707,-0.13457l-0.111,-0.10122l-0.4315,-0.64919l-0.35187,-0.30251l-0.00535,-0.09674l-0.08388,-0.04807l-0.00645,-0.02589l-0.25129,0.0504l-0.23232,-0.01108l-0.11073,0.07405l-0.45295,-0.10095l-0.46349,-0.02215l-0.08739,-0.10066l-0.22703,-0.0506l-0.19188,-0.09624l-0.95735,-0.82306l-0.00018,-0.00329l-0.00295,-0.00145l-0.36448,-1.13523l-1.38944,-0.09291l-0.23074,-0.07453l-0.12932,0.04284l-0.40439,-0.21522l-0.43575,-0.14075l-0.05956,-0.12285l-0.21411,-0.11397l-0.16378,-0.14784c-0.90772,0.64496 -2.28513,0.93545 -3.21257,0.55176zM236.17377,192.16289c0.9609,3.11956 5.87222,3.09971 8.34665,3.09971c2.48647,0 4.67154,-1.32064 6.44156,-3.26379c1.54423,-0.41368 2.99982,-1.64368 4.04177,-3.79506c2.56641,-5.29907 2.8915,-11.43591 0.27855,-16.76921c-1.0403,-2.12332 -3.07666,-3.81064 -5.30682,-4.35236c-0.14353,-0.10179 -0.28957,-0.20049 -0.43809,-0.296c-0.66684,-2.49996 -2.95629,-4.34224 -5.67806,-4.34224c-2.38041,0 -4.43011,1.40912 -5.35294,3.43494c-0.92132,0.32419 -1.84516,0.69588 -2.82174,1.05191c-2.83452,1.03336 -5.77229,1.97842 -7.66824,4.00172c-0.57922,0.51179 -1.05604,1.1358 -1.39611,1.8378c-2.39193,0.73434 -4.043,3.98833 -4.043,6.27279c0,2.36177 1.58859,7.60083 4.24651,8.39398c0.98046,0.29257 2.00957,0.47408 2.93214,0.93317c2.01339,1.00189 4.01944,2.39957 6.11569,2.79656c0.10134,0.35132 0.20669,0.6863 0.30212,0.99609z"/><path d="M237.63687,171.98718c0.58274,-0.50106 2.17124,-0.48968 2.8577,-0.6916c0.96679,-0.28438 2.24409,-1.07095 3.24827,-1.19394c0.99289,-0.12162 0.92156,0.66863 1.40983,1.07178c0.54947,0.45367 1.69538,0.07452 2.10743,1.00267c0.24415,0.54994 0.37987,2.90352 0.43905,2.95261c0.21405,0.17752 0.73093,0.17308 0.89361,0.43363c0.22869,0.36622 0.6359,3.60458 0.50054,3.93779c-0.04358,0.10727 -0.09527,0.21343 -0.15488,0.31448l0.00448,0.0106l-0.0428,0.09885l-0.00404,0.10769l-0.06904,0.06111l-0.12587,0.29076l-0.2089,0.27241l0.15701,0.35326l0.02474,0.14137l0.05876,0.13104l0.04071,0.22814l-0.01305,0.18943l0.01893,0.18901l-0.02126,0.14491l-0.02479,0.06004l-0.00165,0.02393l-0.00644,0.00534l-0.00315,0.07416l-0.05861,0.19788l0.02352,0.07133l0.00048,0.00669l0.01593,0.0146l0.00671,0.29336l0.02152,0.29269l-0.01446,0.01598l0.00015,0.00671l-0.01756,0.07753l-0.00354,0.02841l0.00553,0.05537l0.009,0.0136l-0.00529,0.02338l0.00649,0.0647l-0.02126,0.14491l-0.04621,0.11196l-0.00419,0.03355l-0.01389,0.01029l-0.0081,0.01964l-0.04191,0.18514l-0.10651,0.21054l-0.0936,0.38106l-0.03536,0.40637l-0.03795,0.10995l0.00218,0.0049l-0.02479,0.06061l-0.0124,0.03591l-0.04939,0.21813l-0.0418,0.08262l-0.02101,0.02426l-0.01341,0.03883l-0.03139,0.01439l-0.03618,0.08845l-0.10895,0.14819l-0.26938,0.53252l-0.07704,0.08888l-0.04802,0.10734l-0.14595,0.18561l-0.18425,0.14269l-0.0351,0.08317l-0.14199,0.05396l-0.12001,0.09293l-0.08954,-0.0133l-0.21803,0.08285l-0.10986,0.01306l-0.18754,0.19707l-0.2239,0.24159l-0.05151,0.0336l-0.03492,0.05058l-0.1613,0.14174l-0.02466,0.0244l-0.00267,0.013l-0.02874,0.01804l-0.02341,0.02314l-0.23366,0.13827l-0.22003,0.13817l-0.04164,0.05069l-0.00376,0.01163l-0.02282,0.01102l-0.06288,0.04659l-0.16022,0.06629l-0.0661,0.04633l-0.0287,-0.00567l-0.20782,0.10037l-0.07672,0.01593l-0.02342,0.00969l-0.00745,-0.00326l-0.05453,0.01133l-0.10396,0.04721l-0.53763,0.3029l-0.20602,0.05656l-0.19707,0.08226l-0.39456,0.05984l-0.09349,-0.00882l-0.09115,0.0222l-0.06254,-0.00038l-0.17173,0.11082l-0.49654,0.43631l-0.04458,0.02295l-0.0318,0.03872l-0.08324,0.06168l-0.56296,0.23297l-0.04283,-0.01877l-0.03897,0.02565l-0.59495,-0.13559l-0.03567,-0.01804l-0.04454,-0.01015l-0.1301,-0.0658l-0.14212,-0.03238l-0.49645,-0.25113l-0.11003,-0.00065l-0.3524,0.01321l-0.19349,0.04023l-0.12582,-0.005l-0.12225,0.02975l-0.23411,-0.00138l-0.01108,0.0073l-0.03314,-0.00755l-0.03298,-0.00019l-0.26357,-0.06739l-0.26525,-0.06045l-0.02945,-0.01489l-0.03295,-0.00843l-0.00655,-0.01155l-0.03828,-0.01937l-0.33242,-0.12436l-0.05494,-0.03778l-0.06502,-0.01481l-0.3229,-0.16336l-0.362,0.01358l-0.07452,-0.01565l-0.07516,0.01179l-0.24899,-0.02218l-0.1214,-0.04202l-0.12818,-0.00762l-0.26952,-0.08445l-0.08449,-0.05155l-0.09647,-0.02199l-0.2072,-0.10481l-0.07487,-0.0647l-0.09158,-0.03752l-0.22772,-0.1671l-0.06,-0.0722l-0.08031,-0.04868l-0.16381,-0.16505l-0.28389,-0.23259l-0.00955,-0.01283l-0.01429,-0.00723l-0.03456,-0.02988l-0.2843,-0.14382l-0.14401,-0.12444l-0.16278,-0.09866l-0.41366,-0.41681l-0.0182,-0.03057l-0.02932,-0.02021l-0.1654,-0.18744l-0.02765,-0.05331l-0.04171,-0.01763l-0.09242,-0.24104l-0.09997,-0.19278l-0.1489,-0.07532l-0.08922,-0.0771l-0.10765,-0.0482l-0.18629,-0.14613l-0.09708,-0.12478l-0.12234,-0.10022l-0.03781,-0.05079l-0.00086,-0.00024l-0.00166,-0.00315l-0.0836,-0.11229l-0.09025,-0.21627l-0.10965,-0.2072l-0.03347,-0.13578l-0.00137,-0.00326l0.00034,-0.00081l-0.06783,-0.27511l0.00056,-0.15652l-0.04249,-0.06419l0.04337,-0.19161l0.00067,-0.19652l0.05578,-0.05284l0.03455,-0.15259l0.07506,-0.14835l-0.03022,-0.06408l-0.06249,-0.03609l-0.04982,-0.20203l-0.08882,-0.18832l0.02583,-0.06715l-0.03306,-0.13406l0.00037,-0.10359l0.01235,-0.04855l-0.00791,-0.04953l0.03257,-0.37448l-0.04405,-0.36214l-0.05136,-0.35472l-0.1334,-0.26079l-0.0818,-0.35269l0.0011,-0.06297l-0.08096,-0.1997l-0.25634,-0.37119l-0.03043,-0.08092l-0.05608,-0.06591l-0.20611,-0.41559l-0.07303,-0.33367l-0.05339,-0.0729l0.01673,-0.09463l-0.02056,-0.09396l0.05038,-0.07475l0.05938,-0.33604l0.29911,-0.66872l-0.05274,-0.21674l0.02923,-0.04563l-0.0083,-0.08293l0.02126,-0.1449l0.05036,-0.12205l0.01616,-0.13106l0.16756,-0.43411l0.12802,-0.18157l0.10684,-0.19476l0.14355,-0.15488l0.00053,-0.0049l0.01362,-0.01038l0.07148,-0.07714l0.20472,-0.13351l0.1943,-0.14819l0.0967,-0.04161l0.01434,-0.00936l0.00481,0.00113l0.54936,-0.23631l0.09892,-0.01611l0.08863,-0.04657l0.41548,-0.10114l0.07257,0.00043l0.06776,-0.02576l0.37356,-0.04439l0.20692,-0.08563l0.04283,0.01877l0.03897,-0.02565l0.01257,0.00286l0.03304,-0.11919l0.05539,-0.09763l-0.00777,-0.0638l0.14214,-0.17306l0.11049,-0.19477l0.06238,-0.0157l0.07125,-0.08676l0.08324,-0.06165l0.56296,-0.23295l0.00146,0.00065l0.00127,-0.00095l0.56824,0.09035l0.34268,-0.57808l0.08236,-0.08312l0.00972,-0.06503l0.18077,-0.12725l0.15554,-0.15697l0.06588,0.00113l0.09571,-0.06738l0.09933,-0.03832c-0.07999,-0.53138 0.09497,-1.1878 0.46224,-1.50359zM236.20937,175.40786c-1.55266,-0.26578 -2.61401,1.85345 -3.15303,2.919c-0.54165,1.07071 -0.44895,2.29935 0.00223,3.48483c-0.15825,0.75509 0.05432,1.64983 0.75376,2.56717c1.72282,2.2595 4.29465,3.73634 7.16046,3.77295c1.14097,0.01456 2.31115,-0.49476 3.03024,-1.33709c0.0751,-0.03963 0.14942,-0.08101 0.2229,-0.12417c1.2218,0.25743 2.51384,-0.32713 3.10676,-1.49918c0.51855,-1.02505 0.35827,-2.21466 -0.31306,-3.05333c0.06111,-0.46736 0.10229,-0.94615 0.16172,-1.44423c0.17249,-1.44571 0.4055,-2.91665 -0.05277,-4.17383c-0.09421,-0.36092 -0.25905,-0.70217 -0.48727,-1.00153c0.20484,-1.18998 -0.8367,-2.60983 -1.82046,-3.10747c-1.01702,-0.5145 -3.61913,-0.97167 -4.53967,0.00009c-0.33957,0.35847 -0.64192,0.7621 -1.04058,1.05935c-0.87002,0.64875 -1.9089,1.20812 -2.5365,2.02433c-0.17336,-0.03289 -0.34056,-0.0605 -0.49474,-0.08689z"/></g></g></svg>