<svg version="1.1" xmlns="http://www.w3.org/2000/svg" xmlns:xlink="http://www.w3.org/1999/xlink" width="108.82296" height="103.29233" viewBox="0,0,108.82296,103.29233"><defs><radialGradient cx="241.27464" cy="180.65526" r="47.07977" gradientUnits="userSpaceOnUse" id="color-1"><stop offset="0" stop-color="#fdff77" stop-opacity="0"/><stop offset="1" stop-color="#fdff77"/></radialGradient><radialGradient cx="241.50615" cy="180.40163" r="23.35964" gradientUnits="userSpaceOnUse" id="color-2"><stop offset="0" stop-color="#ffd12c"/><stop offset="1" stop-color="#ffd12c" stop-opacity="0"/></radialGradient><radialGradient cx="198.76786" cy="189.99193" r="18.53626" gradientUnits="userSpaceOnUse" id="color-3"><stop offset="0" stop-color="#fff766"/><stop offset="1" stop-color="#fff766" stop-opacity="0"/></radialGradient><radialGradient cx="259.80301" cy="145.36389" r="24.8798" gradientUnits="userSpaceOnUse" id="color-4"><stop offset="0" stop-color="#fff766"/><stop offset="1" stop-color="#fff766" stop-opacity="0"/></radialGradient><radialGradient cx="274.51896" cy="211.19141" r="21.53247" gradientUnits="userSpaceOnUse" id="color-5"><stop offset="0" stop-color="#fff766"/><stop offset="1" stop-color="#fff766" stop-opacity="0"/></radialGradient><radialGradient cx="238.48349" cy="224.63797" r="13.11835" gradientUnits="userSpaceOnUse" id="color-6"><stop offset="0" stop-color="#fff766"/><stop offset="1" stop-color="#fff766" stop-opacity="0"/></radialGradient><radialGradient cx="227.02519" cy="139.8899" r="14.45389" gradientUnits="userSpaceOnUse" id="color-7"><stop offset="0" stop-color="#fff766"/><stop offset="1" stop-color="#fff766" stop-opacity="0"/></radialGradient><radialGradient cx="285.04238" cy="174.97706" r="19.16795" gradientUnits="userSpaceOnUse" id="color-8"><stop offset="0" stop-color="#fff766"/><stop offset="1" stop-color="#fff766" stop-opacity="0"/></radialGradient><radialGradient cx="212.65503" cy="218.24347" r="7.61896" gradientUnits="userSpaceOnUse" id="color-9"><stop offset="0" stop-color="#fff766"/><stop offset="1" stop-color="#fff766" stop-opacity="0"/></radialGradient><radialGradient cx="201.95592" cy="157.46285" r="12.05577" gradientUnits="userSpaceOnUse" id="color-10"><stop offset="0" stop-color="#fff766"/><stop offset="1" stop-color="#fff766" stop-opacity="0"/></radialGradient><radialGradient cx="241.27461" cy="180.65526" r="16.56761" gradientUnits="userSpaceOnUse" id="color-11"><stop offset="0" stop-color="#ffb91f"/><stop offset="1" stop-color="#ffb91f" stop-opacity="0"/></radialGradient><radialGradient cx="240.34289" cy="183.48044" r="27.47368" gradientUnits="userSpaceOnUse" id="color-12"><stop offset="0" stop-color="#ffb91f"/><stop offset="1" stop-color="#ffb91f" stop-opacity="0"/></radialGradient></defs><g transform="translate(-185.58852,-128.35384)"><g data-paper-data="{&quot;isPaintingLayer&quot;:true}" fill-rule="nonzero" stroke="none" stroke-linecap="butt" stroke-linejoin="miter" stroke-miterlimit="10" stroke-dasharray="" stroke-dashoffset="0" style="mix-blend-mode: normal"><path d="M242.32726,226.99128c-25.99472,0.59053 -47.53892,-19.67609 -48.12027,-45.26677c-0.58135,-25.59068 20.02028,-46.81474 46.01499,-47.40527c25.99472,-0.59053 47.53892,19.67609 48.12027,45.26677c0.58135,25.59068 -20.02028,46.81474 -46.01499,47.40527z" fill="url(#color-1)" stroke-width="0"/><path d="M262.06487,190.62643c-5.59388,11.66343 -19.43673,16.65428 -30.91888,11.14735c-11.48214,-5.50693 -16.25553,-19.42627 -10.66165,-31.08969c5.59388,-11.66343 19.43673,-16.65428 30.91888,-11.14735c11.48214,5.50693 16.25553,19.42627 10.66165,31.08969z" fill="url(#color-2)" stroke-width="0"/><path d="M186.60471,183.48566c-1.37851,-3.61619 -1.77712,-7.37117 1.55603,-10.10806c2.63764,-2.16581 4.47052,0.9524 6.18749,3.05799c1.13104,-0.42699 2.10722,-0.35343 2.94949,0.06581c0.08136,-0.32817 0.2053,-0.61129 0.45472,-0.73306c2.72182,-1.32967 6.85618,-0.79212 10.35837,-0.03283c0.57216,-0.06474 1.26456,-0.00102 1.89918,0.44208c0.76448,0.18796 1.47061,0.37074 2.09013,0.52615c0.92412,6.42538 0.48114,7.44215 -3.26638,11.95296c0.16411,0.55238 0.29006,1.12886 0.37801,1.73675c0.60515,0.63404 1.45137,1.29885 1.74028,1.98324c1.64917,3.90868 1.52045,9.48695 -1.27739,12.85093c-11.89489,14.30008 -22.96102,-9.02065 -23.06995,-21.7419z" fill="url(#color-3)" stroke-width="0.5"/><path d="M277.80119,162.8994c-1.49159,0.535 -2.48678,0.01901 -3.09937,-0.6018c-2.82429,-0.38318 -4.33975,-3.64304 -6.83254,-4.62366c-0.28281,-0.11091 -0.95542,0.55378 -1.86971,1.5189c-0.2204,0.73588 -0.59916,1.27943 -1.33165,1.40646c-2.17325,2.25345 -5.03617,4.86803 -7.43444,4.15659c-3.53321,-1.04783 -1.69728,-5.88309 -2.69662,-8.10602c-3.86738,-8.60254 -10.01826,-9.1338 -18.27864,-8.94615c0,0 -2.61258,0.05936 -3.0596,-2.34845c-0.95164,-0.49946 -1.61086,-1.48711 -1.63698,-2.63743c-0.02251,-0.99112 0.42982,-1.88261 1.14887,-2.45751l4.47561,-3.64692l0.04149,0.0508c0.09075,-0.09373 0.18318,-0.18627 0.27683,-0.27802c1.70222,-1.66422 8.88567,-3.49126 14.08305,-3.07399c0.83416,-0.27887 1.68412,-0.52429 2.55558,-0.7209c7.7807,-1.75546 20.45814,5.47931 25.90106,10.05142c0.82209,3.53023 2.52683,12.59379 -0.24443,17.07344c0.1061,0.92201 -0.0398,2.48037 -1.99854,3.18324z" fill="url(#color-4)" stroke-width="0.5"/><path d="M287.43149,195.56086l1.25462,3.86183l-1.18899,0.38644c1.53498,6.39101 -1.60604,12.17318 -4.51024,19.37286l-0.28882,0.17965l0.11294,0.08603l-1.51771,1.988c-0.21359,0.28515 -0.49074,0.52066 -0.81048,0.68556c-5.30476,6.10436 -13.83588,9.78052 -20.42753,4.63468c-2.07798,-0.24632 -3.98471,-0.73932 -5.45466,-1.42352l-0.14561,-0.21959l-0.06032,0.07892l-1.98799,-1.5174c-0.56035,-0.42016 -0.92919,-1.08429 -0.94634,-1.8387c-0.02964,-1.30525 1.0045,-2.38749 2.30975,-2.41713c0.14779,-0.00337 0.29274,0.00691 0.43356,0.02957l0.3312,0.04765c-0.00197,-0.22601 0.02833,-0.4742 0.09939,-0.74633c0.59753,-2.28743 2.88496,-1.68959 2.88496,-1.68959c1.26999,0.33374 2.56383,1.62003 3.77765,1.11827c1.36842,-0.56582 2.02485,-1.64829 2.33954,-2.93804c0.01319,-0.05768 0.0264,-0.11504 0.03991,-0.17274c0.56448,-2.59031 -0.14789,-5.94109 0.74218,-7.64746c2.63789,-5.05724 7.34531,-8.57496 11.03008,-6.7288c0.00616,-0.00645 0.01231,-0.01322 0.01815,-0.01965l-1.02919,-1.94685l1.02436,-0.54161c-0.00192,-0.91745 0.05161,-1.83646 0.11148,-2.7263l0.53047,0.64501c0.03357,-0.10449 0.06806,-0.20995 0.10317,-0.31606c-0.13792,-2.18496 -0.18677,-4.09922 -0.20369,-5.23262l0.21382,-0.33055l-0.13145,-0.04052l0.71829,-2.32896c0.2749,-0.97261 1.15832,-1.69514 2.22125,-1.71928c0.94349,-0.02144 1.77064,0.5131 2.16759,1.30366l1.21169,2.29141l-0.06449,0.03394c0.09522,0.15327 0.18301,0.31176 0.26241,0.47579c0.06618,0.13754 0.12412,0.27273 0.17412,0.40593c0.31986,-0.17374 0.68483,-0.27631 1.07402,-0.28514c1.18646,-0.02695 2.18855,0.82489 2.38366,1.96023l0.39176,2.0616c0.37785,0.29692 0.66364,0.70662 0.80524,1.1798z" fill="url(#color-5)" stroke-width="0.5"/><path d="M229.69309,229.25681c-2.5538,-0.27099 -4.89527,-1.16345 -5.51305,-3.95795c-0.48887,-2.21139 1.90682,-2.35888 3.66855,-2.74206c0.08722,-0.7975 0.42408,-1.35297 0.92521,-1.72534c-0.16972,-0.14675 -0.3,-0.30515 -0.29709,-0.48932c0.03114,-2.00996 1.59149,-4.29459 3.0931,-6.13857c0.13362,-0.35798 0.37938,-0.74851 0.83224,-0.99084c0.34093,-0.39584 0.66125,-0.75871 0.93936,-1.07856c4.07937,1.38395 4.54785,1.95157 6.09068,5.52427c0.37614,0.06889 0.75507,0.16758 1.14116,0.29821c0.55697,-0.16752 1.20459,-0.46844 1.69634,-0.43373c2.80818,0.19873 6.06999,1.95107 7.21963,4.61727c4.88667,11.33475 -12.23662,10.87472 -19.79609,7.11664z" fill="url(#color-6)" stroke-width="0.5"/><path d="M240.40293,138.5004c-0.40345,0.97108 -1.10113,1.22918 -1.67942,1.25266c-1.44926,1.21526 -3.72617,0.50348 -5.32068,1.28922c-0.18073,0.0893 -0.1548,0.71627 -0.08932,1.59605c0.26281,0.4368 0.36049,0.86543 0.09575,1.28172c0.13569,2.07306 0.1407,4.64592 -1.27947,5.50547c-2.0921,1.26645 -3.64576,-1.79392 -5.18319,-2.29602c-5.94971,-1.94304 -8.95714,0.83902 -12.55368,4.97761c0,0 -1.13749,1.30895 -2.51905,0.45319c-0.67012,0.2441 -1.4493,0.12667 -2.02563,-0.37419c-0.49657,-0.43154 -0.73218,-1.05166 -0.6933,-1.66134l0.20839,-3.82548l0.04346,0.00232c-0.00548,-0.0864 -0.00963,-0.1731 -0.01285,-0.26004c-0.0568,-1.57873 2.25411,-5.92074 4.7798,-8.28566c0.2356,-0.53399 0.49467,-1.06081 0.78732,-1.57638c2.61273,-4.60323 11.82516,-7.59557 16.5,-8.22568c2.09999,1.17287 7.31029,4.38337 8.27173,7.74407c0.49996,0.35964 1.19977,1.12713 0.67013,2.40249z" fill="url(#color-7)" stroke-width="0.5"/><path d="M281.60445,158.62404l3.16213,1.4574l-0.44861,0.97366c4.91802,2.75278 6.7313,8.0959 9.57507,14.11484l-0.05495,0.28644l0.1199,-0.02105l0.36866,2.11274c0.05527,0.30046 0.04228,0.61205 -0.03995,0.90937c0.75692,6.89323 -1.89295,14.40509 -8.96968,15.56138c-1.36446,1.16524 -2.78458,2.07907 -4.07093,2.60657l-0.22303,-0.03611l0.0146,0.08391l-2.11253,0.36883c-0.59071,0.10836 -1.2236,-0.04589 -1.70866,-0.47413c-0.83922,-0.74095 -0.91891,-2.02203 -0.17796,-2.86126c0.0839,-0.09503 0.17473,-0.18033 0.27095,-0.25582l0.22275,-0.18084c-0.14348,-0.13029 -0.28214,-0.29381 -0.41216,-0.49695c-1.09274,-1.70752 0.61497,-2.80008 0.61497,-2.80008c0.94928,-0.60555 2.5123,-0.67174 2.90272,-1.72813c0.44006,-1.19105 0.14042,-2.2344 -0.48865,-3.18317c-0.02865,-0.04188 -0.05709,-0.08357 -0.08555,-0.12566c-1.30271,-1.86298 -3.82742,-3.36443 -4.384,-4.91802c-1.64957,-4.60439 -1.12522,-9.61609 2.18184,-10.86212c-0.00047,-0.00763 -0.00115,-0.01544 -0.00181,-0.02286l-1.82499,-0.48491l0.25508,-0.96029c-0.57888,-0.53273 -1.12646,-1.10128 -1.652,-1.65684l0.7149,0.04132c-0.04626,-0.08196 -0.0926,-0.16505 -0.139,-0.2489c-1.45623,-1.18474 -2.69015,-2.26804 -3.41375,-2.917l-0.08372,-0.32703l-0.10202,0.0592l-1.04861,-1.80774c-0.4525,-0.73915 -0.39339,-1.71597 0.21001,-2.3994c0.53558,-0.60663 1.3536,-0.81643 2.08245,-0.60632l2.14818,0.5705l-0.01616,0.06037c0.15195,0.02923 0.30284,0.06619 0.45235,0.11165c0.12512,0.03837 0.24399,0.08057 0.35695,0.12659c0.07673,-0.30254 0.22455,-0.59207 0.44548,-0.8423c0.67351,-0.76284 1.79314,-0.89816 2.62168,-0.36029l1.52628,0.9531c0.40689,-0.06514 0.83122,-0.00669 1.2116,0.17951z" fill="url(#color-8)" stroke-width="0.5"/><path d="M218.36806,224.23195c-1.1718,3.43395 -4.7346,2.40144 -4.7346,2.40144c-1.99931,-0.96695 -16.12067,-5.33059 -3.66933,-11.9034c3.07105,-1.62102 6.77462,1.533 10.16158,2.29963l-1.6276,6.96825c0,0 -0.04324,0.09013 -0.13007,0.23406z" fill="url(#color-9)" stroke-width="0.5"/><path d="M197.38232,159.29779c-0.20939,-0.55486 -0.39604,-1.20866 -0.55078,-1.97871c-1.38918,-6.91002 2.55993,-9.34069 2.55993,-9.34069l9.18892,2.9659c1.98772,16.89237 0.37972,24.38798 -9.83526,19.83843c0,0 -3.77407,-3.16762 -1.964,-9.77224c0.18245,-0.66575 0.38482,-1.23245 0.60121,-1.71268z" fill="url(#color-10)" stroke-width="0.5"/><path d="M257.84222,180.65526c0,8.15185 -7.41758,14.76024 -16.56761,14.76024c-9.15004,0 -16.56761,-6.60839 -16.56761,-14.76024c0,-8.15185 7.41758,-14.76024 16.56761,-14.76024c9.15004,0 16.56761,6.60839 16.56761,14.76024z" fill="url(#color-11)" stroke-width="0"/><path d="M240.68541,188.54577c-0.23036,1.30765 -0.15785,2.68929 -0.5166,3.96755c1.5918,-1.03818 3.76578,-1.74034 5.36222,-2.45257c0.43038,-0.192 1.33464,-0.08696 1.29951,-0.55694c-0.16272,-2.17716 -3.05976,-2.76022 -5.6325,-3.30778c-0.1661,0.68617 -0.35566,1.4587 -0.51263,2.34973zM236.91228,196.59455c-1.14181,2.70126 -0.02149,4.63484 -3.62995,5.53696c-4.04221,1.01055 -14.56181,-5.30466 -7.83957,-8.66577c1.03186,-0.51594 4.60241,1.26749 5.39498,1.52961c0.53686,0.17755 -0.02018,-1.25349 0.37966,-1.65333c0.94901,-0.94901 1.86108,-1.37868 2.87139,-2.13039c0.89225,-0.66387 0.86293,-2.71315 0.86691,-4.76019c-0.07304,0.06226 -0.15332,0.12195 -0.2398,0.17866c-0.51144,0.39166 -1.15103,0.62438 -1.84497,0.62438c-0.07289,0 -0.14518,-0.00256 -0.21679,-0.00762c-0.27355,0.0114 -0.54675,-0.00344 -0.80869,-0.04872c-0.15218,0.1663 -0.27829,0.29547 -0.35775,0.37063c-2.43542,2.30387 -5.81996,2.96909 -9.01195,2.17653c-3.36909,-0.83653 -6.12589,-7.07797 -7.51097,-9.6541c-0.94712,-1.76153 -2.38358,-2.70118 -2.04491,-5.06806c0.54882,-3.83553 7.46118,-5.37625 7.50261,-5.46082c0.88835,-1.81346 -2.30717,-8.53659 2.60831,-8.26352c5.24367,0.29131 4.37301,8.95478 2.37171,11.7625c-2.11243,2.96365 -4.8219,1.81002 -5.7167,2.77806c-0.72223,0.78133 4.16833,7.59546 5.31571,8.15205c2.15069,1.04328 2.65139,-2.6515 4.04618,-2.71086c0.08067,-0.75599 0.43872,-1.42906 0.97037,-1.91549c0.12312,-0.18363 0.25458,-0.36122 0.39391,-0.53285c-1.00168,-3.11117 -4.95013,-5.35134 -1.37074,-10.54147c2.94474,-4.26988 10.8104,-1.64599 14.53031,-2.62264c1.15269,-0.30263 5.46459,-10.3467 8.24855,-4.77877c0.59198,1.18395 0.24914,2.82369 -0.45427,3.94503c-1.90315,3.03387 -3.03302,6.49309 -7.24897,6.95702c-2.70484,0.29764 -8.45971,-1.83966 -10.21682,0.64434c-0.63187,0.89327 0.0324,2.1322 0.89168,3.45182c5.69148,-2.11738 13.9164,-1.12202 17.63084,1.46901c2.11292,1.47388 2.65648,4.91957 3.73972,6.95726c0.28706,0.53999 1.01984,-0.71194 1.6056,-0.88767c1.26631,-0.37989 4.1802,-1.32968 5.31734,-0.1492c1.53744,1.59603 5.89188,10.60819 4.439,12.8913c-4.65886,7.32106 -6.549,-4.25242 -8.18214,-6.55234c-0.41941,-0.59065 -0.95763,1.08876 -1.47244,1.59843c-0.9473,0.93782 -3.23416,1.74927 -4.37876,0.59778c-0.7781,1.49033 -2.50849,2.49276 -4.1612,3.22958c-0.25273,0.11267 -4.25014,2.05767 -4.22553,2.09783c1.3261,2.16431 3.61427,4.74295 1.75046,7.32361c-0.98296,1.36103 -5.54702,4.61696 -7.46951,2.69447c-2.05735,-2.05735 -1.99234,-3.25787 0,-5.31523c0.33273,-0.34359 1.41397,0.12978 1.39201,-0.348c-0.11319,-2.46303 -3.30817,-3.77753 -2.88105,-6.08331c-0.43621,0.39335 -0.81101,0.77488 -0.98374,1.1835zM248.39862,182.01817c-0.36734,-0.1709 -0.75658,-0.32675 -1.16255,-0.46642c0.83159,0.50846 1.63087,1.08415 2.36947,1.70314c-0.36156,-0.5869 -0.75747,-1.02762 -1.20693,-1.23672z" fill="url(#color-12)" stroke-width="0.5"/></g></g></svg>