<svg version="1.1" xmlns="http://www.w3.org/2000/svg" xmlns:xlink="http://www.w3.org/1999/xlink" width="40.61509" height="18.4837" viewBox="0,0,40.61509,18.4837"><defs><radialGradient cx="240.49679" cy="145.89494" r="11.1875" gradientUnits="userSpaceOnUse" id="color-1"><stop offset="0" stop-color="#fffe58"/><stop offset="1" stop-color="#fffe58" stop-opacity="0"/></radialGradient><radialGradient cx="239.68409" cy="145.83669" r="5.36529" gradientUnits="userSpaceOnUse" id="color-2"><stop offset="0" stop-color="#fffe58"/><stop offset="1" stop-color="#fffe58" stop-opacity="0"/></radialGradient><linearGradient x1="214.4781" y1="145.78445" x2="239.76602" y2="145.78445" gradientUnits="userSpaceOnUse" id="color-3"><stop offset="0" stop-color="#fffe58" stop-opacity="0"/><stop offset="1" stop-color="#fffe58"/></linearGradient><linearGradient x1="211.06919" y1="146.045" x2="236.35712" y2="146.045" gradientUnits="userSpaceOnUse" id="color-4"><stop offset="0" stop-color="#fffe58"/><stop offset="1" stop-color="#fffe58" stop-opacity="0"/></linearGradient></defs><g transform="translate(-211.0692,-136.65309)"><g data-paper-data="{&quot;isPaintingLayer&quot;:true}" fill-rule="nonzero" stroke="none" stroke-linecap="butt" stroke-linejoin="miter" stroke-miterlimit="10" stroke-dasharray="" stroke-dashoffset="0" style="mix-blend-mode: normal"><path d="M240.49679,155.13679c-6.17869,0 -11.1875,-4.13772 -11.1875,-9.24185c0,-5.10413 5.00881,-9.24185 11.1875,-9.24185c6.17869,0 11.1875,4.13772 11.1875,9.24185c0,5.10413 -5.00881,9.24185 -11.1875,9.24185z" fill="url(#color-1)" stroke-width="0"/><path d="M245.04938,145.83669c0,1.19647 -2.40212,2.1664 -5.36529,2.1664c-2.96317,0 -5.36529,-0.96993 -5.36529,-2.1664c0,-1.19647 2.40213,-2.1664 5.36529,-2.1664c2.96317,0 5.36529,0.96993 5.36529,2.1664z" fill="url(#color-2)" stroke-width="0"/><path d="M238.47288,145.74279c0,1.19647 4.16688,1.91642 -2.45909,1.91642c-6.62597,0 -21.53569,-0.71996 -21.53569,-1.91642c0,-1.19647 13.71743,-1.8331 20.3434,-1.8331c6.62597,0 3.65138,0.63664 3.65138,1.8331z" fill="url(#color-3)" stroke-width="0"/><path d="M235.06398,146.00333c0,1.19647 4.16688,1.91642 -2.45909,1.91642c-6.62597,0 -21.53569,-0.71996 -21.53569,-1.91642c0,-1.19647 13.71743,-1.8331 20.3434,-1.8331c6.62597,0 3.65138,0.63664 3.65138,1.8331z" fill="url(#color-4)" stroke-width="0"/><path d="M241.56596,145.76395c0,0.34513 -5.27133,0.62492 -11.77384,0.62492c-6.50251,0 -11.77384,-0.27979 -11.77384,-0.62492c0,-0.34513 5.27133,-0.62492 11.77384,-0.62492c6.50251,0 11.77384,0.27979 11.77384,0.62492z" fill="#ffffff" stroke-width="NaN"/></g></g></svg>