<svg version="1.1" xmlns="http://www.w3.org/2000/svg" xmlns:xlink="http://www.w3.org/1999/xlink" width="38.73811" height="19.07408" viewBox="0,0,38.73811,19.07408"><defs><radialGradient cx="221.88637" cy="180.01984" r="5.4289" gradientUnits="userSpaceOnUse" id="color-1"><stop offset="0" stop-color="#ff8108"/><stop offset="1" stop-color="#ff8108" stop-opacity="0"/></radialGradient><radialGradient cx="220.82327" cy="179.66821" r="9.02036" gradientUnits="userSpaceOnUse" id="color-2"><stop offset="0" stop-color="#ff8108"/><stop offset="1" stop-color="#ff8108" stop-opacity="0"/></radialGradient><radialGradient cx="246.5" cy="177.00002" r="10" gradientUnits="userSpaceOnUse" id="color-3"><stop offset="0" stop-color="#3f3f3f"/><stop offset="1" stop-color="#000000"/></radialGradient></defs><g transform="translate(-211.26189,-170.46297)"><g data-paper-data="{&quot;isPaintingLayer&quot;:true}" fill-rule="nonzero" stroke-linecap="butt" stroke-linejoin="miter" stroke-miterlimit="10" stroke-dasharray="" stroke-dashoffset="0" style="mix-blend-mode: normal"><path d="M231.19458,179.28237c0,0 4.6433,2.0849 4.5553,2.4318c-0.07,0.2761 -5.0417,-0.5139 -5.0417,-0.5139c0,0 -4.4524,0.4053 -6.4612,0.1599c-0.9918,-0.1212 -3.963,-2.1391 -3.963,-2.1391c0,0 3.3501,0.912 3.6997,0.9547c0.6689,0.0818 3.2381,0.134 4.1556,0.0758c1.7393,-0.1103 3.0553,-0.9692 3.0553,-0.9692z" fill="#654110" stroke="#000000" stroke-width="0.5"/><path d="M224.9486,176.64429c2.22069,2.01454 2.6499,5.15894 0.95868,7.02322c-1.69121,1.86428 -4.86244,1.74245 -7.08311,-0.27208c-2.22069,-2.01454 -2.6499,-5.15894 -0.95868,-7.02322c1.69121,-1.86428 4.86244,-1.74245 7.08311,0.27208z" fill="url(#color-1)" stroke="none" stroke-width="0"/><path d="M220.07749,177.97766c0,0 1.20277,0.49851 2.27884,-0.07664c0.81062,-0.43326 3.08189,1.25351 2.33724,2.67794c-0.42112,0.80557 -3.95312,1.66771 -3.95312,1.66771c0,0 -0.94262,0.72124 -2.04976,0.39061c-1.7141,-0.51191 -7.4288,-2.31781 -7.4288,-2.31781c0,0 4.59956,-2.26257 5.86796,-2.69937c1.29431,-0.44573 2.94765,0.35757 2.94765,0.35757z" data-paper-data="{&quot;index&quot;:null}" fill="url(#color-2)" stroke="none" stroke-width="0"/><path d="M227.625,183.25002v-6h4.75v6z" fill="#000000" stroke="none" stroke-width="0"/><path d="M240,189.53705c-5.52285,0 -10,-4.26988 -10,-9.53704c0,-5.26716 4.47715,-9.53704 10,-9.53704c5.52285,0 10,4.26988 10,9.53704c0,5.26716 -4.47715,9.53704 -10,9.53704z" fill="url(#color-3)" stroke="none" stroke-width="0"/></g></g></svg>