<svg version="1.1" xmlns="http://www.w3.org/2000/svg" xmlns:xlink="http://www.w3.org/1999/xlink" width="181.15925" height="162.83599" viewBox="0,0,181.15925,162.83599"><defs><radialGradient cx="243.93248" cy="174.89034" r="71.06738" gradientUnits="userSpaceOnUse" id="color-1"><stop offset="0" stop-color="#ff0000"/><stop offset="1" stop-color="#ff0000" stop-opacity="0"/></radialGradient><radialGradient cx="240.39196" cy="175.40522" r="82.26822" gradientUnits="userSpaceOnUse" id="color-2"><stop offset="0" stop-color="#ff0000"/><stop offset="1" stop-color="#ff0000" stop-opacity="0"/></radialGradient><radialGradient cx="234.23893" cy="175.15378" r="66.06418" gradientUnits="userSpaceOnUse" id="color-3"><stop offset="0" stop-color="#ff0000"/><stop offset="1" stop-color="#ff0000" stop-opacity="0"/></radialGradient></defs><g transform="translate(-149.42038,-98.58201)"><g data-paper-data="{&quot;isPaintingLayer&quot;:true}" fill-rule="nonzero" stroke-linecap="butt" stroke-linejoin="miter" stroke-miterlimit="10" stroke-dasharray="" stroke-dashoffset="0" style="mix-blend-mode: normal"><path d="M299.78736,135.34312c0.20824,-0.89476 1.103,-0.68654 1.103,-0.68654l0.71646,0.16674c3.4061,0.79269 13.9385,3.45827 10.61292,9.35409c-0.59969,1.06314 -4.19025,2.2755 -5.31622,2.83989c0,0 -0.82128,0.41166 -1.23295,-0.40963c-0.41166,-0.82128 0.40963,-1.23295 0.40963,-1.23295c0.69626,-0.349 4.20056,-1.49963 4.53922,-2.1c2.32223,-4.11703 -7.31137,-6.16903 -9.42907,-6.66186l-0.71646,-0.16674c0,0 -0.89476,-0.20824 -0.68654,-1.103z" fill="#ff0000" stroke="none" stroke-width="0.5"/><path d="M311.71684,174.89034c0,39.24944 -30.3481,71.06738 -67.78438,71.06738c-37.43628,0 -67.78438,-31.81794 -67.78438,-71.06738c0,-39.24944 30.3481,-71.06738 67.78438,-71.06738c37.43628,0 67.78438,31.81794 67.78438,71.06738z" fill="url(#color-1)" stroke="none" stroke-width="0"/><path d="M322.66018,175.40522c0,40.13656 -36.83274,72.67365 -82.26822,72.67365c-45.43548,0 -82.26822,-32.53711 -82.26822,-72.67365c0,-40.13656 36.83274,-72.67365 82.26822,-72.67365c45.43548,0 82.26822,32.53711 82.26822,72.67365z" fill="url(#color-2)" stroke="#000000" stroke-width="0"/><path d="M300.30312,175.15378c0,32.23101 -29.57796,58.35942 -66.06418,58.35942c-36.48623,0 -66.06418,-26.1284 -66.06418,-58.35942c0,-32.23101 29.57796,-58.35942 66.06418,-58.35942c36.48623,0 66.06418,26.1284 66.06418,58.35942z" fill="url(#color-3)" stroke="#000000" stroke-width="0"/><path d="M239.39548,113.66703c0.32945,0.69438 -0.36492,1.02383 -0.36492,1.02383c-8.33253,3.95344 -16.80484,7.9732 -25.13738,11.92664c-3.57426,1.68571 -6.76221,4.60186 -9.95274,6.93305c-4.60156,3.36219 -9.20313,6.72437 -13.80468,10.08655c-0.8373,2.63406 -1.58536,5.27564 -2.25484,7.88748c-2.62829,10.25376 -6.38313,20.09106 -8.88458,30.3748c-1.14666,4.71404 -1.58866,9.32636 -1.39533,13.9319c0.38993,0.8085 0.88801,1.57602 1.43515,2.31198c0.85258,1.1468 2.44911,1.90892 3.62804,2.71608l0.01814,0.01242c0,0 0.12683,0.08684 0.04,0.21367v-0.00001c-0.08684,0.12683 -0.21367,0.04 -0.21367,0.04l-0.01814,-0.01242c-1.21053,-0.82878 -2.82483,-1.60769 -3.70109,-2.78633c-0.42165,-0.56716 -0.81398,-1.15293 -1.15223,-1.76109c0.21241,3.75264 0.84427,7.50412 1.85806,11.30582c0,0 0.19803,0.74262 -0.54459,0.94065c-0.74262,0.19803 -0.94065,-0.54459 -0.94065,-0.54459c-1.98542,-7.44533 -2.54182,-14.72401 -1.41009,-22.16548c0.00014,-0.06629 0.00014,-0.13258 -0.00001,-0.19889c-0.00512,-2.38391 -0.32865,-3.96874 -1.43807,-6.07608c-1.00233,-1.90392 -2.02225,-3.79442 -3.0812,-5.66739c-0.17695,-0.31297 -0.33669,-0.61291 -0.48033,-0.9045c-1.32656,3.35505 -2.65312,6.71011 -3.97968,10.06517c-0.67324,1.70271 -1.92176,3.76099 -2.2171,5.55976c-0.21631,1.31746 0.17617,3.10493 0.24447,4.44167c0.15687,3.07028 0.31375,6.14055 0.47062,9.21083c0.28761,5.62883 0.57521,11.25767 0.86282,16.88651c0.1771,3.46611 -0.03827,7.22777 0.53739,10.64619c0.22341,1.32664 0.88976,2.73135 1.30326,4.01063c2.83662,8.77578 5.67323,17.55157 8.50985,26.32735c0,0 0.23639,0.73132 -0.49493,0.9677c-0.73132,0.23639 -0.9677,-0.49493 -0.9677,-0.49493c-2.83662,-8.77578 -5.67323,-17.55157 -8.50985,-26.32735c-0.4348,-1.34517 -1.11466,-2.81081 -1.35242,-4.20542c-0.59398,-3.48387 -0.38025,-7.31325 -0.56074,-10.84573c-0.28761,-5.62883 -0.57521,-11.25767 -0.86282,-16.88651c-0.15687,-3.07028 -0.31375,-6.14055 -0.47062,-9.21083c-0.07403,-1.44902 -0.46034,-3.34287 -0.22616,-4.76915c0.31438,-1.91472 1.58907,-4.06658 2.30447,-5.87591c1.50719,-3.81189 3.01437,-7.62378 4.52156,-11.43568c0.02801,-0.07084 0.05602,-0.14168 0.08403,-0.21252c-0.23095,-0.94154 -0.31087,-1.92382 -0.2818,-3.12573c0.53986,-2.27577 1.10456,-4.00905 2.33097,-6.0055c1.12382,-1.82945 2.07707,-3.76203 3.07981,-5.6603c0.55066,-1.04243 1.12342,-2.07356 1.70166,-3.10163c0.44797,-1.32782 0.96591,-2.61309 1.66996,-3.5237c0.029,-0.03751 0.3143,-0.25555 0.68779,-0.53398c0.85651,-1.30816 1.8057,-2.5651 2.67294,-3.85991c1.20532,-1.79956 2.4291,-3.54769 3.76185,-5.25533c1.17372,-1.50386 3.06636,-2.75109 4.69229,-3.8279c1.97768,-5.11821 4.33403,-10.08312 7.14696,-14.61846c1.25139,-2.01764 2.36343,-4.39853 3.87052,-6.23086c1.29786,-1.57794 2.96104,-2.96824 4.40652,-4.41371c2.64142,-2.64142 5.00586,-5.20684 8.22658,-7.12411c0.66574,-0.39631 1.32096,-0.81924 1.98041,-1.23154c-2.32416,0.01107 -4.68948,0.18111 -6.94037,0.18111c-5.50225,0 -11.2986,0.1154 -16.74587,0.9757c-4.9605,0.78342 -9.97737,2.33918 -14.75698,3.84338c-8.49186,2.67247 -16.16563,7.73105 -24.10532,11.7009c0,0 -0.68743,0.34372 -1.03114,-0.34372c-0.34372,-0.68743 0.34372,-1.03114 0.34372,-1.03114c8.01639,-4.00819 15.75664,-9.09375 24.33131,-11.79228c4.85151,-1.52682 9.94304,-3.10017 14.97863,-3.89545c5.52631,-0.87278 11.40417,-0.99452 16.98567,-0.99452c3.1048,0 6.41555,-0.31008 9.55264,-0.10997c0.78412,-0.36377 1.59788,-0.65266 2.46243,-0.81318c4.5117,-0.80297 8.9443,-1.9089 13.53193,-1.70944c1.22928,0.05345 2.98388,-0.17734 4.16433,0.19918c4.39744,1.4026 8.58253,4.48978 11.89529,7.55697c1.86313,1.72503 4.02861,3.36827 5.69661,5.28028c0.89543,1.02642 1.67259,2.21881 2.43894,3.39528c3.59993,2.12744 7.08564,4.47483 10.38585,6.90657c1.58131,1.17627 2.72476,2.80917 3.98751,4.31475c1.57995,1.88379 3.82784,3.86507 5.02153,6.00869c0.71421,1.28258 1.04084,3.11488 1.50157,4.51321c0.79386,2.40939 1.9027,4.9011 2.42711,7.38119c0.42027,1.98755 0.41754,4.17905 0.61743,6.2022c1.04484,10.57547 2.43358,21.10846 3.13723,31.71247c0.16963,2.55628 0.33926,5.11256 0.50889,7.66883c0.09175,1.38265 0.51711,3.24394 0.28695,4.60915c-0.32376,1.92045 -1.59259,4.06447 -2.31276,5.87929c-1.7009,4.28627 -3.4018,8.57254 -5.1027,12.85881c-0.87353,2.13672 -2.92679,3.94273 -4.4144,5.70082c-1.93352,2.28507 -3.78285,5.16543 -6.04039,7.1246c-1.13086,0.9814 -2.72941,1.72563 -3.99952,2.52365c-3.07441,1.93169 -6.14183,3.87503 -9.22955,5.78535c-3.39963,0.76137 -7.00028,1.93737 -10.46602,2.27523c-2.33444,0.22758 -4.80297,0.00437 -7.15269,0.00437c-1.83155,0 -4.22206,0.40488 -6.00242,-0.01711c-2.35109,-0.55727 -5.11556,-2.17035 -7.15741,-3.42827c-1.35832,-0.84904 -2.23775,-1.89683 -3.31111,-3.07753l-1.0063,-1.10693c0,0 -0.517,-0.5687 0.0517,-1.08569c0.5687,-0.517 1.08569,0.0517 1.08569,0.0517l1.0063,1.10693c0.97238,1.06962 1.74427,2.05078 2.98133,2.80364c1.90121,1.17687 4.48806,2.70219 6.67237,3.23325c1.65222,0.4017 3.97184,-0.01711 5.67984,-0.01711c2.29492,0 4.70936,0.22388 6.98899,0.00437c3.33378,-0.32102 6.76573,-1.48697 10.04932,-2.17019c2.98369,-1.90918 5.99284,-3.77904 8.99217,-5.66355c1.20267,-0.75565 2.73833,-1.45318 3.8098,-2.38303c2.19405,-1.90407 3.99393,-4.73413 5.87445,-6.95658c1.33995,-1.58357 3.41969,-3.33378 4.15908,-5.27487c1.7009,-4.28627 3.4018,-8.57254 5.1027,-12.85881c0.67744,-1.70714 1.91349,-3.74852 2.22298,-5.55077c0.21395,-1.24591 -0.21843,-3.00674 -0.30218,-4.26893c-0.16963,-2.55628 -0.33926,-5.11256 -0.50889,-7.66883c-0.70257,-10.58744 -2.08995,-21.10412 -3.13316,-31.66311c-0.19428,-1.96644 -0.18321,-4.10387 -0.59163,-6.03533c-0.51244,-2.42345 -1.60723,-4.86318 -2.38316,-7.21816c-0.42972,-1.30421 -0.71779,-3.04896 -1.38459,-4.2464c-1.14239,-2.0515 -3.34206,-3.96329 -4.85632,-5.76874c-1.17383,-1.39957 -2.24125,-2.98644 -3.72159,-4.06505c-2.35184,-1.73293 -4.79882,-3.42271 -7.31473,-5.01859c1.4149,1.92732 2.90639,3.85354 4.09586,5.89291c1.54698,2.6523 2.77819,5.55173 4.15171,8.29877c4.70581,9.42495 6.08287,20.13265 7.32901,30.4625c0.13587,3.6264 0.3117,7.22121 0.14407,10.84747c-0.00992,0.21473 -0.13867,3.13525 -0.17107,3.2479c-0.03239,0.11265 -1.47462,2.6555 -1.58027,2.84269c-0.69975,1.23992 -1.40513,3.13398 -2.37626,4.16519c-0.08301,0.08814 -2.53841,1.66722 -2.72426,1.78734c-2.17666,1.40683 -4.29714,2.92471 -6.63329,4.05085c-2.76761,1.33086 -5.51392,2.70196 -8.26149,4.07364c-1.60485,0.80119 -3.40009,1.96216 -5.13094,2.41843c-1.43651,0.37868 -3.2379,0.29982 -4.72092,0.43164c-4.13646,0.36765 -8.3764,0.1946 -12.52814,0.14564c-3.10701,-1.50714 -6.44632,-2.92842 -9.19838,-5.05076c-2.03128,-1.56647 -3.90849,-3.39579 -5.84454,-5.07935c-1.40246,-1.21955 -3.34108,-2.49422 -4.45246,-3.98638c-1.45348,-1.95146 -2.34772,-4.70776 -3.37039,-6.90975c-0.44504,-0.96151 -0.82174,-1.95766 -1.12428,-2.97306l-0.24228,-0.81704c0,0 -0.21851,-0.73686 0.51835,-0.95536c0.73686,-0.21851 0.95536,0.51835 0.95536,0.51835l0.24228,0.81704c0.27859,0.94427 0.62875,1.87027 1.04469,2.7626c0.97504,2.09946 1.82023,4.76377 3.19892,6.62561c1.03797,1.40171 2.92084,2.61233 4.23844,3.75806c1.90744,1.65862 3.7561,3.4607 5.7548,5.00704c2.5943,2.00713 5.74095,3.28609 8.63244,4.78694c4.00154,-0.06196 8.0518,0.17552 12.03876,-0.18064c1.39601,-0.12471 3.11223,-0.03018 4.46552,-0.38692c1.62194,-0.42756 3.33166,-1.55624 4.83618,-2.30735c2.75436,-1.37507 5.50749,-2.7495 8.28193,-4.08366c2.278,-1.09258 4.34446,-2.58593 6.46506,-3.95652c0.80919,-0.523 1.77906,-0.84878 2.43961,-1.5502c0.88498,-0.93973 1.51998,-2.73875 2.15663,-3.86684c0.4745,-0.84078 1.17487,-1.58416 1.44166,-2.512c0.2668,-0.92784 0.06827,-1.92969 0.11284,-2.8941c0.16466,-3.56217 -0.01058,-7.09284 -0.14094,-10.6554c-1.23539,-10.12654 -2.54482,-20.65654 -7.17151,-29.89617c-1.35673,-2.71346 -2.57157,-5.5786 -4.09745,-8.19955c-1.45935,-2.50668 -3.39139,-4.84024 -5.05581,-7.21749c-0.32628,-0.46602 -0.64471,-0.95174 -0.96373,-1.44273c-2.44825,-1.43562 -4.94893,-2.76643 -7.47934,-3.94857c-3.19453,-1.49239 -6.68622,-2.54419 -9.98267,-3.7996c-4.83022,-1.83953 -9.59699,-3.08745 -14.62614,-4.27078c-1.91752,-0.45118 -3.94298,-1.16609 -5.89769,-1.39296c-0.28914,-0.03356 -0.58037,-0.06145 -0.87338,-0.0844c-1.4048,0.70263 -2.72544,1.67122 -4.05175,2.46077c-6.69803,3.98729 -11.93544,10.73113 -15.9836,17.25805c-2.44814,3.94717 -4.54375,8.22627 -6.34113,12.64817c1.1037,-0.44153 2.26485,-0.67055 3.50103,-0.76564c0,0 0.15326,-0.01179 0.16505,0.14147c0.01179,0.15326 -0.14147,0.16505 -0.14147,0.16505c-1.30958,0.10074 -2.52947,0.35304 -3.68654,0.85989c-0.75209,1.87252 -1.45118,3.76953 -2.10139,5.67676c4.02418,-2.94031 8.04835,-5.88062 12.07253,-8.82093c3.27822,-2.39527 6.53546,-5.3322 10.20068,-7.08068c8.33253,-3.95344 16.66506,-7.90688 24.99759,-11.86032l0.13978,-0.06632c0,0 0.69438,-0.32945 1.02383,0.36492zM187.80567,145.33962c-1.65485,1.20913 -3.3097,2.41827 -4.96455,3.6274c-0.76998,0.56259 -1.74438,0.90881 -2.32767,1.66323c-1.31048,1.69497 -1.92381,4.94794 -2.71928,6.95979c-1.88399,4.76486 -3.76797,9.52973 -5.65195,14.29459c-0.12935,0.32716 -0.25871,0.65432 -0.38807,0.98148c0.17041,0.36435 0.36755,0.74144 0.59414,1.14221c1.06047,1.87564 2.08186,3.76885 3.08562,5.67548c0.90678,1.72243 1.30343,3.11974 1.42768,4.85803c0.18301,-0.99834 0.39653,-2 0.64117,-3.00576c2.50306,-10.29036 6.25936,-20.13352 8.88916,-30.39317c0.50864,-1.98435 1.06224,-3.98528 1.66525,-5.98707c-0.08384,0.06125 -0.16767,0.12251 -0.2515,0.18376zM176.36471,157.02485c0.27047,-0.68406 0.52179,-1.48672 0.78389,-2.32239c-0.32206,0.58289 -0.64005,1.1679 -0.95099,1.75652c-1.00586,1.90417 -1.96237,3.84246 -3.08969,5.67762c-1.20728,1.96531 -1.7439,3.64752 -2.28803,5.884c-0.01805,0.97854 0.03293,1.80003 0.18004,2.57254c1.78826,-4.52276 3.57652,-9.04553 5.36478,-13.56828zM181.93427,147.72588c1.65485,-1.20913 3.3097,-2.41827 4.96455,-3.6274c0.64211,-0.46917 1.28423,-0.93834 1.92634,-1.4075c0.64616,-2.00557 1.34385,-4.0055 2.09753,-5.98394c-1.51274,1.00332 -3.19278,2.15509 -4.26036,3.52295c-1.32822,1.70182 -2.54755,3.44381 -3.74878,5.23727c-0.70876,1.05819 -1.47287,2.09098 -2.19578,3.14737c0.57321,-0.42105 1.12236,-0.81997 1.21649,-0.88874zM226.724,102.66691c5.09363,1.1985 9.92829,2.46718 14.82115,4.33057c3.33162,1.2688 6.85652,2.33477 10.08541,3.84307c1.62926,0.76106 3.24647,1.58277 4.84569,2.4538c-0.17176,-0.22 -0.3476,-0.43447 -0.52846,-0.64179c-1.63117,-1.8698 -3.76018,-3.47552 -5.58261,-5.16285c-3.16586,-2.93118 -7.07487,-5.79843 -11.24748,-7.19977c-1.03489,-0.34756 -2.74573,-0.10126 -3.8346,-0.1486c-4.17987,-0.18173 -8.24093,0.76847 -12.34689,1.53237c1.27581,0.31034 2.55252,0.70257 3.78778,0.99321z" fill="#ff0000" stroke="none" stroke-width="0.5"/><path d="M298.30899,176.10055c0.15009,-0.03317 0.18326,0.11692 0.18326,0.11692l0.01596,0.0722c0.35494,1.60613 1.01472,3.14253 1.17511,4.78128c0.24628,2.51628 -0.46265,3.98942 -1.85475,6.0541c-1.76385,1.6693 -2.9733,2.65789 -2.65314,5.21726c0.91061,1.97047 1.89183,3.78963 3.03249,5.6374c1.21133,1.96282 1.99058,3.82941 1.56033,6.15481c-0.3509,1.89655 -1.31148,4.52157 -2.70742,5.88335c-1.63092,1.59101 -3.23633,2.66091 -5.20795,3.79651c-1.88161,1.08376 -3.77191,2.05339 -5.73857,2.97357c-1.62876,0.76208 -3.21667,1.71592 -3.92311,3.482c0,0 -0.05709,0.14272 -0.19981,0.08563c-0.14272,-0.05709 -0.08563,-0.19981 -0.08563,-0.19981c0.73442,-1.83605 2.38131,-2.85229 4.07826,-3.64628c1.95891,-0.91656 3.84123,-1.88203 5.71542,-2.96151c1.95193,-1.12425 3.53262,-2.17557 5.14671,-3.75017c1.34982,-1.31679 2.28069,-3.88641 2.6198,-5.71922c0.4162,-2.24948 -0.34725,-4.0388 -1.51963,-5.93739c-1.1545,-1.87018 -2.1661,-3.70817 -3.06647,-5.71432c-0.36299,-2.66283 0.86981,-3.77727 2.71418,-5.50059c1.33656,-2.00986 2.02198,-3.3868 1.7833,-5.82538c-0.15903,-1.62485 -0.81725,-3.15171 -1.16933,-4.74489l-0.01596,-0.0722c0,0 -0.03317,-0.15009 0.11692,-0.18326z" fill="#ff0000" stroke="none" stroke-width="0.5"/><path d="M281.59011,124.72733c0.02913,-0.15093 0.18005,-0.1218 0.18005,-0.1218l0.03987,0.0077c1.87779,0.3649 3.69955,1.42945 5.43689,2.20283c1.90051,0.84602 3.82958,2.32832 5.05057,4.01387c1.30403,1.80018 2.08337,3.72338 3.11531,5.64306c1.03245,1.92062 1.96063,3.81516 2.77207,5.8393c0.37482,0.93498 0.70643,1.93311 1.16459,2.83002c0.35759,0.70004 1.13138,1.41029 1.14468,2.21012c0,0 0,0.15371 -0.15371,0.15371c-0.15371,0 -0.15371,-0.15371 -0.15371,-0.15371c0.01529,-0.69867 -0.79564,-1.45285 -1.11103,-2.07027c-0.46248,-0.90536 -0.79785,-1.91176 -1.17616,-2.85548c-0.80723,-2.01367 -1.73035,-3.89739 -2.75749,-5.80813c-1.02595,-1.90854 -1.79693,-3.8184 -3.09349,-5.60827c-1.19089,-1.64399 -3.07295,-3.08819 -4.92663,-3.91336c-1.71221,-0.7622 -3.51824,-1.82714 -5.37012,-2.18183l-0.03987,-0.0077c0,0 -0.15093,-0.02913 -0.1218,-0.18005z" fill="#ff0000" stroke="none" stroke-width="0.5"/><path d="M211.32752,221.81074c-0.06075,0.1412 -0.20195,0.08045 -0.20195,0.08045l-0.13513,-0.05814c-1.75734,-0.76028 -3.46379,-1.06092 -5.04317,-2.24323c-1.66101,-1.24478 -4.15219,-1.08606 -6.11531,-1.51721c-2.1845,-0.47979 -4.04736,-1.21773 -6.09417,-2.12046c-1.64646,-0.72616 -3.26986,-1.83522 -4.77154,-2.83596c0,0 -0.1279,-0.08527 -0.04263,-0.21316c0.08527,-0.1279 0.21316,-0.04263 0.21316,-0.04263c1.48665,0.99149 3.0946,2.09136 4.72507,2.81047c2.02942,0.89506 3.87077,1.62596 6.03606,2.10147c2.02056,0.44376 4.52094,0.29061 6.23361,1.57137c1.55587,1.16471 3.24434,1.46375 4.98044,2.20695l0.13513,0.05814c0,0 0.1412,0.06075 0.08045,0.20195z" fill="#ff0000" stroke="none" stroke-width="0.5"/><path d="M162.02347,141.87167c-0.00172,-0.1537 0.15198,-0.15543 0.15198,-0.15543l0.07672,0.07157c0.41469,-0.64736 1.57187,-0.80803 2.29072,-1.00755c2.12835,-0.59073 4.06222,-1.13564 5.45022,-2.9023c1.39031,-1.7696 1.79259,-3.64694 2.08772,-5.87379c0.30068,-2.16345 2.19159,-3.86167 3.65615,-5.29498c1.56896,-1.53549 3.36664,-2.6335 5.20081,-3.83326c1.73153,-1.13261 4.02406,-1.89499 6.06677,-2.25024c1.85737,-0.32302 3.61792,-0.63437 5.50549,-0.63437c0,0 0.15371,0 0.15371,0.15371c0,0.15371 -0.15371,0.15371 -0.15371,0.15371c-1.86979,0 -3.61256,0.30978 -5.45281,0.62983c-2.00325,0.34839 -4.25294,1.09382 -5.95116,2.20464c-1.81731,1.18872 -3.59989,2.27467 -5.15408,3.7957c-1.3961,1.36631 -3.30676,3.03745 -3.56642,5.11566c-0.30226,2.28064 -0.72497,4.20858 -2.15075,6.02332c-1.43276,1.82364 -3.41602,2.39973 -5.60975,3.00861c-0.59003,0.16377 -1.80104,0.32214 -2.11021,0.87096l-0.336,0.07619c0,0 -0.1537,0.00172 -0.15543,-0.15198z" fill="#ff0000" stroke="none" stroke-width="0.5"/><path d="M299.44015,221.35816c0.03316,0.15009 -0.11693,0.18326 -0.11693,0.18326l-0.02806,0.0062c-0.61506,0.13589 -1.20824,0.20019 -1.83044,0.28277c-1.90503,0.25283 -4.57683,0.41176 -5.54536,2.34897c-0.33748,0.67502 -0.89419,1.44479 -1.08884,2.17087c-0.15392,0.57416 0.20836,1.77534 -0.31454,2.19315c-0.36691,0.29317 -1.27415,0.41173 -1.73681,0.65343c-1.90952,0.99757 -3.81962,1.98663 -5.75393,2.93534c-1.9929,0.97745 -3.90038,1.68983 -6.03022,2.3132c-1.77098,0.51834 -3.44883,1.21945 -5.09979,2.04493c0,0 -0.13749,0.06874 -0.20623,-0.06874c-0.06874,-0.13749 0.06874,-0.20623 0.06874,-0.20623c1.66735,-0.83368 3.3623,-1.54151 5.15092,-2.06501c2.11413,-0.61877 4.00311,-1.32398 5.9812,-2.29418c1.93197,-0.94757 3.83974,-1.93545 5.74695,-2.93181c0.48151,-0.25154 1.29186,-0.34624 1.69305,-0.62564c0.27542,-0.19181 0.15984,-1.37731 0.18025,-1.69064c0.05568,-0.85483 0.75143,-1.80045 1.13426,-2.56617c1.0247,-2.04957 3.7589,-2.24802 5.77988,-2.51625c0.61425,-0.08152 1.19763,-0.14411 1.80457,-0.2782l0.02806,-0.0062c0,0 0.15009,-0.03316 0.18326,0.11693z" fill="#ff0000" stroke="none" stroke-width="0.5"/><path d="M160.38778,213.34417c-0.66331,0.38823 -1.05154,-0.27507 -1.05154,-0.27507l-0.32553,-0.55617c-2.09072,-3.57204 -4.12659,-7.12014 -5.96612,-10.82864c-2.44762,-5.65963 -4.11626,-11.46737 -3.49302,-17.67833c0.12938,-1.28938 0.24516,-3.05168 0.83812,-4.24176c0.69789,-1.40067 2.14025,-2.51084 3.22527,-3.59587c0,0 0.54346,-0.54346 1.08692,0c0.54346,0.54346 0,1.08692 0,1.08692c-0.93464,0.93464 -2.32628,1.95403 -2.92329,3.16755c-0.50992,1.03648 -0.58649,2.62187 -0.6975,3.73611c-0.59127,5.9345 1.02118,11.47017 3.35793,16.87855c1.81904,3.66398 3.83224,7.16909 5.89831,10.699l0.32553,0.55617c0,0 0.38823,0.66331 -0.27507,1.05154z" fill="#ff0000" stroke="none" stroke-width="0.5"/><path d="M306.95012,215.90885c-0.46114,-0.61486 0.15371,-1.076 0.15371,-1.076l1.18729,-0.88805c3.06616,-3.0782 5.77682,-5.9839 7.96934,-9.75991c5.1874,-8.93386 9.96532,-18.59051 11.52807,-28.90469c0.37707,-2.48867 0.95587,-5.03271 1.14486,-7.54157c0.25086,-3.33016 -0.00167,-6.77428 -0.00363,-10.11679c-0.00175,-2.97913 0.3012,-6.12019 -0.29104,-9.04271c0,0 -0.15073,-0.75365 0.60292,-0.90437c0.75365,-0.15073 0.90437,0.60292 0.90437,0.60292c0.59979,3.03532 0.31908,6.25253 0.32089,9.34327c0.00199,3.38168 0.25311,6.86364 -0.00071,10.23316c-0.19191,2.54777 -0.77497,5.12931 -1.15786,7.65638c-1.59187,10.50633 -6.4338,20.34474 -11.71856,29.44627c-2.27692,3.92135 -5.09521,6.96426 -8.29151,10.1493l-1.27214,0.95652c0,0 -0.61486,0.46114 -1.076,-0.15371z" fill="#ff0000" stroke="none" stroke-width="0.5"/><path d="M208.33013,226.70828c0.72913,-0.24304 0.97217,0.48609 0.97217,0.48609l0.02899,0.08698c1.06521,3.19562 2.06896,6.40454 3.34631,9.52199c0.38448,0.93836 0.87415,3.31153 1.57952,4.0139c0.70537,0.70236 3.08062,1.18189 4.0206,1.56236c3.39187,1.37289 6.49142,2.44794 10.08416,3.15238c4.4019,0.86309 9.02506,2.28177 13.49105,2.65007c5.95574,0.49115 12.30535,-0.38743 18.13164,-1.4758c3.022,-0.56452 6.04401,-1.12905 9.06601,-1.69357c1.37254,-0.25639 3.09919,-0.32349 4.40523,-0.81128c1.77142,-0.66161 3.54897,-2.0937 5.18458,-3.0525c3.53623,-2.07296 7.07247,-4.14593 10.6087,-6.21889c2.43784,-1.39361 4.03255,-4.48564 5.71133,-6.72402c2.38129,-3.17505 5.33359,-6.32528 7.32347,-9.75372c1.67679,-2.88902 2.62674,-6.54889 3.87527,-9.65333c1.72066,-4.27838 3.44131,-8.55676 5.16196,-12.83514c0.71443,-1.77641 1.825,-3.71404 2.25506,-5.57546c0.2902,-1.25607 0.07807,-2.89962 0.118,-4.18707c0.0794,-2.56067 0.1588,-5.12134 0.2382,-7.68201c0.28584,-9.21841 0.57169,-18.43682 0.85753,-27.65523c0,0 0.02382,-0.7682 0.79202,-0.74438c0.7682,0.02382 0.74438,0.79202 0.74438,0.79202c-0.28584,9.21841 -0.57169,18.43682 -0.85753,27.65523c-0.0794,2.56067 -0.1588,5.12134 -0.2382,7.68201c-0.04288,1.38278 0.15691,3.10428 -0.14998,4.45488c-0.44339,1.95142 -1.5856,3.97428 -2.33335,5.83356c-1.72066,4.27838 -3.44131,8.55676 -5.16196,12.83514c-1.27554,3.17161 -2.25314,6.87795 -3.96208,9.83412c-2.01785,3.49054 -5.01187,6.6934 -7.43307,9.92167c-1.84458,2.45944 -3.51255,5.5417 -6.16369,7.12782c-3.53623,2.07296 -7.07247,4.14593 -10.6087,6.21889c-1.71426,1.00491 -3.56596,2.47239 -5.42412,3.16639c-1.38894,0.51875 -3.19996,0.60941 -4.66079,0.8823c-3.022,0.56452 -6.04401,1.12905 -9.06601,1.69357c-5.95794,1.11297 -12.44917,1.99906 -18.54024,1.49674c-4.52537,-0.37319 -9.20102,-1.79922 -13.66048,-2.67359c-3.68492,-0.72251 -6.88784,-1.82848 -10.36513,-3.23595c-1.15659,-0.46814 -3.65833,-1.03153 -4.52848,-1.89797c-0.14072,-0.14011 -1.20652,-2.78564 -1.33449,-3.09796c-1.48829,-3.63227 -2.72376,-7.31737 -3.965,-11.04108l-0.02899,-0.08698c0,0 -0.24304,-0.72913 0.48609,-0.97217z" fill="#ff0000" stroke="none" stroke-width="0.5"/><path d="M205.72881,248.31628c0.33366,-0.69236 1.02603,-0.3587 1.02603,-0.3587c1.84631,0.88976 4.68595,2.25824 6.53226,3.148c1.54642,0.74524 2.01983,1.43865 3.65101,0.81179c0,0 0.72913,-0.24304 0.97217,0.48609c0.24304,0.72913 -0.48609,0.97217 -0.48609,0.97217c-0.5834,0.17466 -1.14245,0.56272 -1.7502,0.52397c-0.19164,-0.01222 -2.75827,-1.26667 -3.05422,-1.40929c-1.84631,-0.88976 -3.69262,-1.77953 -5.53892,-2.6693l-0.99334,-0.47871c0,0 -0.69236,-0.33366 -0.3587,-1.02603z" fill="#ff0000" stroke="none" stroke-width="0.5"/></g></g></svg>